<svg width="247" height="84" viewBox="0 0 247 84" fill="none" xmlns="http://www.w3.org/2000/svg">
<path d="M0.046875 81.8271V-82.2871L37.2506 -54.2068V53.7469L37.151 53.8216L0.046875 81.8271ZM0.545422 -81.2876V80.8277L36.7521 53.4987V-53.9587L0.545422 -81.2876Z" fill="#FFAF34"/>
<path d="M9.608 -75.3574H9.10938V74.876H9.608V-75.3574Z" fill="#FFAF34"/>
<path d="M16.4048 -69.8711H15.9062V69.3664H16.4048V-69.8711Z" fill="#FFAF34"/>
<path d="M23.2017 -65.127H22.7031V64.615H23.2017V-65.127Z" fill="#FFAF34"/>
<path d="M27.7329 -60.9844H27.2344V60.4744H27.7329V-60.9844Z" fill="#FFAF34"/>
<path d="M32.2642 -57.3379H31.7656V56.8312H32.2642V-57.3379Z" fill="#FFAF34"/>
<path d="M36.731 43.5778L0.046875 66.2793L0.309478 66.7036L36.9936 44.0021L36.731 43.5778Z" fill="#FFAF34"/>
<path d="M0.263241 51.8955L0.046875 51.4467L36.752 33.8164L36.9684 34.2652L0.263241 51.8955Z" fill="#FFAF34"/>
<path d="M0.207383 37.0755L0.046875 36.6048L36.7521 24.0117L36.9126 24.4823L0.207383 37.0755Z" fill="#FFAF34"/>
<path d="M0.146584 22.248L0.046875 21.7604L36.7521 14.2051L36.8518 14.6927L0.146584 22.248Z" fill="#FFAF34"/>
<path d="M36.7522 4.39465L0.046875 6.91211L0.0809881 7.40949L36.7863 4.89203L36.7522 4.39465Z" fill="#FFAF34"/>
<path d="M52.1562 81.9691V-82.3594L52.5831 -81.9277L79.9886 -54.1501V53.7598L79.9169 53.8327L52.1562 81.9691ZM52.6548 -81.1457V80.7554L79.4901 53.5555V-53.9458L52.6548 -81.1457Z" fill="#FFAF34"/>
<path d="M59.4517 -75.3242H58.9531V74.9092H59.4517V-75.3242Z" fill="#FFAF34"/>
<path d="M63.9829 -69.8359H63.4844V69.4016H63.9829V-69.8359Z" fill="#FFAF34"/>
<path d="M68.5142 -65.0938H68.0156V64.6482H68.5142V-65.0938Z" fill="#FFAF34"/>
<path d="M73.0454 -60.9512H72.5469V60.5076H73.0454V-60.9512Z" fill="#FFAF34"/>
<path d="M77.5767 -57.3047H77.0781V56.8644H77.5767V-57.3047Z" fill="#FFAF34"/>
<path d="M52.4749 66.7067L52.1562 66.3237L79.49 43.6562L79.8086 44.0393L52.4749 66.7067Z" fill="#FFAF34"/>
<path d="M79.4871 33.8456L52.1562 51.4805L52.4262 51.8988L79.757 34.2639L79.4871 33.8456Z" fill="#FFAF34"/>
<path d="M52.3654 37.0905L52.1562 36.6381L79.4901 24.0449L79.6992 24.4973L52.3654 37.0905Z" fill="#FFAF34"/>
<path d="M52.29 22.2759L52.1562 21.7957L79.4901 14.2402L79.6238 14.7205L52.29 22.2759Z" fill="#FFAF34"/>
<path d="M79.4875 4.4379L52.1562 6.98242L52.2024 7.47855L79.5337 4.93403L79.4875 4.4379Z" fill="#FFAF34"/>
<path d="M92.9375 82.2548V-82.6426L110.226 -54.1159V53.7282L110.19 53.7879L92.9375 82.2548ZM93.436 -80.8599V80.4722L109.728 53.5896V-53.9773L93.436 -80.8599Z" fill="#FFAF34"/>
<path d="M97.9672 -75.3242H97.4688V74.9092H97.9672V-75.3242Z" fill="#FFAF34"/>
<path d="M100.233 -69.8359H99.7344V69.4016H100.233V-69.8359Z" fill="#FFAF34"/>
<path d="M102.499 -65.0566H102V64.6853H102.499V-65.0566Z" fill="#FFAF34"/>
<path d="M107.03 -60.916H106.531V60.5427H107.03V-60.916Z" fill="#FFAF34"/>
<path d="M109.295 -57.3047H108.797V56.8644H109.295V-57.3047Z" fill="#FFAF34"/>
<path d="M109.708 43.7028L92.9375 66.3848L93.3388 66.6815L110.109 43.9995L109.708 43.7028Z" fill="#FFAF34"/>
<path d="M109.73 33.8872L92.9375 51.5156L93.2975 51.8585L110.09 34.2301L109.73 33.8872Z" fill="#FFAF34"/>
<path d="M109.726 24.0883L92.9375 36.6836L93.2367 37.0824L110.025 24.4871L109.726 24.0883Z" fill="#FFAF34"/>
<path d="M109.732 14.2681L92.9375 21.8145L93.1418 22.2692L109.936 14.7229L109.732 14.2681Z" fill="#FFAF34"/>
<path d="M93.0105 7.44437L92.9375 6.95191L109.728 4.43359L109.801 4.92605L93.0105 7.44437Z" fill="#FFAF34"/>
<path d="M122.391 83.1199V-83.5977L130.698 -54.0917L130.688 53.6813L122.391 83.1199ZM122.889 -79.9948V79.5171L130.2 53.5792V-54.057L122.889 -79.9948Z" fill="#FFAF34"/>
<path d="M125.155 -75.3945H124.656V74.8389H125.155V-75.3945Z" fill="#FFAF34"/>
<path d="M125.155 -69.9062H124.656V69.3312H125.155V-69.9062Z" fill="#FFAF34"/>
<path d="M127.42 -65.1621H126.922V64.5799H127.42V-65.1621Z" fill="#FFAF34"/>
<path d="M129.686 -61.0215H129.188V60.4373H129.686V-61.0215Z" fill="#FFAF34"/>
<path d="M129.686 -57.375H129.188V56.7941H129.686V-57.375Z" fill="#FFAF34"/>
<path d="M122.862 66.5226L122.391 66.3608L130.2 43.6934L130.671 43.8551L122.862 66.5226Z" fill="#FFAF34"/>
<path d="M130.213 33.8933L122.391 51.5176L122.845 51.7194L130.668 34.0951L130.213 33.8933Z" fill="#FFAF34"/>
<path d="M130.207 24.0601L122.391 36.6484L122.814 36.9111L130.63 24.3229L130.207 24.0601Z" fill="#FFAF34"/>
<path d="M130.206 14.2326L122.391 21.7812L122.736 22.1388L130.551 14.5901L130.206 14.2326Z" fill="#FFAF34"/>
<path d="M130.199 4.39077L122.391 6.91211L122.544 7.38633L130.352 4.86499L130.199 4.39077Z" fill="#FFAF34"/>
<path d="M272.876 81.8271L235.672 53.7469V-54.2068L235.772 -54.2816L272.876 -82.2871V81.8271ZM236.17 53.4987L272.377 80.8277V-81.2876L236.17 -53.9587V53.4987Z" fill="#FFAF34"/>
<path d="M245.233 -60.9844H244.734V60.4744H245.233V-60.9844Z" fill="#FFAF34"/>
<path d="M240.702 -57.3379H240.203V56.8312H240.702V-57.3379Z" fill="#FFAF34"/>
<path d="M235.706 4.39715L235.672 4.89453L272.377 7.41285L272.411 6.91547L235.706 4.39715Z" fill="#FFAF34"/>
<path d="M272.377 22.248L235.672 14.6927L235.772 14.2051L272.477 21.7604L272.377 22.248Z" fill="#FFAF34"/>
<path d="M272.377 37.0755L235.672 24.4823L235.832 24.0117L272.538 36.6048L272.377 37.0755Z" fill="#FFAF34"/>
<path d="M272.377 51.8955L235.672 34.2652L235.888 33.8164L272.593 51.4467L272.377 51.8955Z" fill="#FFAF34"/>
<path d="M235.934 43.6242L235.672 44.0488L272.377 66.7163L272.639 66.2916L235.934 43.6242Z" fill="#FFAF34"/>
<path d="M220.457 81.9691L220.03 81.5374L192.625 53.7598V-54.1501L192.697 -54.2231L220.457 -82.3594V81.9691ZM193.124 53.5555L219.959 80.7554V-81.1457L193.124 -53.9458V53.5555Z" fill="#FFAF34"/>
<path d="M213.514 -75.3242H213.016V74.9092H213.514V-75.3242Z" fill="#FFAF34"/>
<path d="M208.983 -69.8359H208.484V69.4016H208.983V-69.8359Z" fill="#FFAF34"/>
<path d="M204.452 -65.0938H203.953V64.6482H204.452V-65.0938Z" fill="#FFAF34"/>
<path d="M199.92 -60.9512H199.422V60.5076H199.92V-60.9512Z" fill="#FFAF34"/>
<path d="M195.389 -57.3047H194.891V56.8644H195.389V-57.3047Z" fill="#FFAF34"/>
<path d="M192.671 4.43355L192.625 4.92969L219.959 7.44801L220.004 6.95187L192.671 4.43355Z" fill="#FFAF34"/>
<path d="M219.959 22.2759L192.625 14.7205L192.759 14.2402L220.092 21.7957L219.959 22.2759Z" fill="#FFAF34"/>
<path d="M219.959 37.0905L192.625 24.4973L192.834 24.0449L220.168 36.6381L219.959 37.0905Z" fill="#FFAF34"/>
<path d="M192.895 33.8569L192.625 34.2754L219.959 51.9057L220.229 51.4873L192.895 33.8569Z" fill="#FFAF34"/>
<path d="M219.959 66.7067L192.625 44.0393L192.944 43.6562L220.277 66.3237L219.959 66.7067Z" fill="#FFAF34"/>
<path d="M180.462 82.2548L163.172 53.7282V-54.1159L163.208 -54.1756L180.462 -82.6426V82.2548ZM163.67 53.5896L179.963 80.4722V-80.8599L163.67 -53.9773V53.5896Z" fill="#FFAF34"/>
<path d="M177.264 -75.3242H176.766V74.9092H177.264V-75.3242Z" fill="#FFAF34"/>
<path d="M172.733 -69.8359H172.234V69.4016H172.733V-69.8359Z" fill="#FFAF34"/>
<path d="M170.467 -65.0566H169.969V64.6853H170.467V-65.0566Z" fill="#FFAF34"/>
<path d="M168.202 -60.916H167.703V60.5427H168.202V-60.916Z" fill="#FFAF34"/>
<path d="M165.936 -57.3047H165.438V56.8644H165.936V-57.3047Z" fill="#FFAF34"/>
<path d="M179.963 7.44437L163.172 4.92605L163.245 4.43359L180.036 6.95191L179.963 7.44437Z" fill="#FFAF34"/>
<path d="M163.376 14.2446L163.172 14.6992L179.963 22.2545L180.168 21.7999L163.376 14.2446Z" fill="#FFAF34"/>
<path d="M163.471 24.0719L163.172 24.4707L179.963 37.0639L180.262 36.665L163.471 24.0719Z" fill="#FFAF34"/>
<path d="M163.532 33.8974L163.172 34.2402L179.963 51.8705L180.323 51.5277L163.532 33.8974Z" fill="#FFAF34"/>
<path d="M163.573 43.7146L163.172 44.0117L179.963 66.6792L180.364 66.3821L163.573 43.7146Z" fill="#FFAF34"/>
<path d="M151.09 83.1199L142.781 53.6138L142.791 -54.1591L151.09 -83.5977V83.1199ZM143.28 53.5792L150.591 79.5171V-79.9948L143.28 -54.057V53.5792Z" fill="#FFAF34"/>
<path d="M150.077 -75.3945H149.578V74.8389H150.077V-75.3945Z" fill="#FFAF34"/>
<path d="M147.811 -69.9062H147.312V69.3312H147.811V-69.9062Z" fill="#FFAF34"/>
<path d="M145.545 -65.1621H145.047V64.5799H145.545V-65.1621Z" fill="#FFAF34"/>
<path d="M145.545 -61.0215H145.047V60.4373H145.545V-61.0215Z" fill="#FFAF34"/>
<path d="M143.28 -57.375H142.781V56.7941H143.28V-57.375Z" fill="#FFAF34"/>
<path d="M142.934 4.3851L142.781 4.85938L150.591 7.37767L150.744 6.9034L142.934 4.3851Z" fill="#FFAF34"/>
<path d="M143.127 14.2365L142.781 14.5938L150.591 22.1492L150.937 21.792L143.127 14.2365Z" fill="#FFAF34"/>
<path d="M143.204 24.0676L142.781 24.3301L150.591 36.9232L151.015 36.6607L143.204 24.0676Z" fill="#FFAF34"/>
<path d="M143.236 33.8981L142.781 34.0996L150.591 51.7298L151.046 51.5283L143.236 33.8981Z" fill="#FFAF34"/>
<path d="M150.591 66.5226L142.781 43.8551L143.253 43.6934L151.063 66.3608L150.591 66.5226Z" fill="#FFAF34"/>
</svg>
