<svg width="173" height="101" viewBox="0 0 173 101" fill="none" xmlns="http://www.w3.org/2000/svg">
<path d="M17.3102 100.554C17.3102 100.554 -0.280348 78.6753 17.3102 59.0181C27.5212 47.6076 37.8764 59.5417 44.1439 27.8787C52.3501 -13.5784 155.392 -9.78836 146.009 45.9053C142.734 65.3421 177.829 75.4278 160.684 100.594L17.3102 100.554Z" fill="#EBF3FA"/>
<path d="M117.64 14.1074H60.582V47.1875H117.64V14.1074Z" fill="#2A4E96"/>
<path d="M117.009 14.8887H61.2148V46.4076H117.009V14.8887Z" fill="#D4E4F8"/>
<path d="M92.7863 47.9739H85.4557C85.0228 47.9739 84.6719 47.623 84.6719 47.1901V46.4062H93.5458V47.2144C93.5459 47.6339 93.2059 47.9739 92.7863 47.9739Z" fill="#2A4E96"/>
<path d="M88.9258 47.1908C88.9258 47.0876 89.0095 47.0039 89.1127 47.0039C89.2158 47.0039 89.2995 47.0876 89.2995 47.1908C89.2995 47.294 89.2158 47.3777 89.1127 47.3777C89.0095 47.3777 88.9258 47.294 88.9258 47.1908Z" fill="#F99746"/>
<mask id="mask0_1540_6208" style="mask-type:luminance" maskUnits="userSpaceOnUse" x="61" y="14" width="57" height="33">
<path d="M117.005 14.8848H61.2109V46.4037H117.005V14.8848Z" fill="white"/>
</mask>
<g mask="url(#mask0_1540_6208)">
<path d="M166.768 -12.3711H22.0391V66.2232H166.768V-12.3711Z" fill="white"/>
<path d="M156.852 60.9353L41.7487 60.9017C41.7487 60.9017 24.6442 41.7404 37.0257 24.2168C40.3535 19.5066 30.4934 -0.913557 34.8632 -2.49037C35.0611 -2.56212 59.0754 -16.5452 59.2747 -16.6115C63.2492 -17.9311 144.541 -19.9142 147.725 -15.4025C147.766 -15.3441 149.879 7.44232 149.92 7.50119C150.185 7.88563 150.44 8.27944 150.682 8.68219C150.719 8.74257 150.755 8.80344 150.79 8.86476C152.698 12.1129 153.811 15.9433 153.84 20.3403C153.84 20.4076 153.841 20.4749 153.841 20.5426C153.838 23.0887 153.473 25.8243 152.692 28.7454C148.459 44.5561 165.571 45.131 156.852 60.9353Z" fill="#9FC6ED"/>
<path d="M115.811 -35.3281V60.724H61.75V-9.51225C63.4005 -9.28494 109.697 -33.5128 115.811 -35.3281Z" fill="#9FC6ED"/>
<path d="M94.0034 40.0786H58.8242V22.4865C61.509 21.6398 64.367 21.1836 67.3311 21.1836C70.5829 21.1836 73.7062 21.7327 76.6138 22.7437C81.286 24.3675 85.4007 27.1834 88.5938 30.8272C90.9453 33.5105 92.797 36.6427 94.0034 40.0786Z" fill="#80B3DD"/>
<path d="M63.1602 21.4836C64.482 20.961 65.8528 20.4956 67.2635 20.0914C70.127 19.2715 72.984 18.7514 75.7552 18.5459C78.4348 18.3471 80.9223 18.4491 83.1493 18.8493C85.3843 19.2511 87.2455 19.9331 88.6814 20.8764C90.1819 21.8622 91.1516 23.0912 91.5637 24.5296C91.9755 25.9681 91.8038 27.5239 91.0527 29.1544C90.6509 30.0267 90.0933 30.8999 89.3853 31.7667C88.8271 32.4506 88.1752 33.1306 87.4328 33.8029C85.7555 35.3216 83.6993 36.7257 81.321 37.9757C79.8317 38.7585 78.2545 39.4594 76.6064 40.0731C76.6055 40.0734 76.6049 40.0737 76.604 40.074H75.7085C75.7095 40.0737 75.71 40.0734 75.711 40.0731C81.6941 37.9736 86.5197 34.8253 89.1902 31.5263C91.0806 29.1916 91.8917 26.7813 91.2708 24.6134C90.8794 23.2471 89.952 22.0753 88.5142 21.1309C87.1127 20.2102 85.2895 19.5434 83.0954 19.1492C81.6226 18.8844 80.0335 18.7517 78.3483 18.7517C77.514 18.7517 76.6563 18.7842 75.7777 18.8494C73.0272 19.0533 70.1908 19.5698 67.3472 20.3843C66.3577 20.6677 65.388 20.9814 64.4411 21.3242L63.1602 21.4836Z" fill="white"/>
<path d="M99.5352 19.2782V17.3477H100.211C100.324 17.3477 100.424 17.3582 100.512 17.3795C100.601 17.4007 100.676 17.4332 100.737 17.4769C100.798 17.5207 100.845 17.5757 100.878 17.642C100.91 17.7083 100.926 17.7866 100.926 17.8767C100.926 17.9209 100.92 17.9633 100.909 18.004C100.898 18.0447 100.882 18.0827 100.859 18.1181C100.836 18.1535 100.808 18.1855 100.773 18.2142C100.739 18.2429 100.698 18.2666 100.65 18.2852C100.707 18.2993 100.755 18.3207 100.795 18.3495C100.836 18.3782 100.869 18.4116 100.895 18.4496C100.921 18.4876 100.94 18.529 100.952 18.5735C100.964 18.6182 100.97 18.6639 100.97 18.7108C100.97 18.8982 100.909 19.0396 100.789 19.1351C100.668 19.2305 100.496 19.2783 100.274 19.2783H99.5352V19.2782ZM99.9329 18.1565H100.227C100.329 18.1547 100.404 18.1332 100.454 18.0922C100.503 18.051 100.528 17.9925 100.528 17.9164C100.528 17.8289 100.503 17.7659 100.452 17.7275C100.401 17.689 100.321 17.6698 100.211 17.6698H99.9328V18.1565H99.9329ZM99.9329 18.4376V18.9587H100.274C100.325 18.9587 100.369 18.9522 100.406 18.9394C100.443 18.9266 100.474 18.9089 100.499 18.8863C100.524 18.8638 100.542 18.8373 100.554 18.8068C100.566 18.7763 100.572 18.7429 100.572 18.7067C100.572 18.6651 100.567 18.6277 100.556 18.5946C100.545 18.5615 100.529 18.5332 100.506 18.5097C100.484 18.4863 100.454 18.4684 100.418 18.456C100.382 18.4437 100.339 18.4375 100.288 18.4375H99.9329V18.4376Z" fill="white"/>
<path d="M101.98 18.5715H101.663V19.2782H101.266V17.3477H101.983C102.094 17.3477 102.194 17.3602 102.283 17.3854C102.371 17.4106 102.446 17.4477 102.507 17.4968C102.568 17.5458 102.615 17.6067 102.647 17.6791C102.68 17.7516 102.696 17.8355 102.696 17.931C102.696 18.0017 102.688 18.0652 102.672 18.1213C102.657 18.1774 102.634 18.2273 102.603 18.2712C102.573 18.3149 102.537 18.3532 102.495 18.3858C102.452 18.4185 102.405 18.4468 102.352 18.4707L102.769 19.2597V19.2782H102.342L101.98 18.5715ZM101.663 18.2493H101.984C102.036 18.2493 102.082 18.2425 102.121 18.2287C102.161 18.215 102.193 18.1955 102.22 18.1703C102.246 18.1452 102.265 18.1151 102.279 18.0802C102.292 18.0452 102.298 18.0062 102.298 17.9628C102.298 17.8717 102.273 17.8002 102.221 17.748C102.169 17.6958 102.09 17.6698 101.983 17.6698H101.663L101.663 18.2493Z" fill="white"/>
<path d="M104.162 18.4415H103.398V18.9587H104.294V19.2782H103V17.3477H104.291V17.6698H103.398V18.13H104.162V18.4415Z" fill="white"/>
<path d="M105.62 18.8804H104.923L104.79 19.2782H104.367L105.086 17.3477H105.454L106.177 19.2782H105.754L105.62 18.8804ZM105.03 18.5582H105.513L105.27 17.8356L105.03 18.5582Z" fill="white"/>
<path d="M106.96 18.5039L106.753 18.7267V19.2782H106.355V17.3477H106.753V18.2228L106.928 17.9828L107.42 17.3477H107.909L107.224 18.2055L107.929 19.2782H107.456L106.96 18.5039Z" fill="white"/>
<path d="M108.503 19.2782H108.105V17.3477H108.503V19.2782Z" fill="white"/>
<path d="M110.441 19.2782H110.043L109.269 18.008V19.2782H108.871V17.3477H109.269L110.045 18.6205V17.3477H110.441V19.2782Z" fill="white"/>
<path d="M112.317 19.0333C112.294 19.0607 112.263 19.0901 112.223 19.1215C112.183 19.1529 112.133 19.1821 112.073 19.209C112.013 19.236 111.942 19.2585 111.861 19.2766C111.779 19.2947 111.685 19.3038 111.579 19.3038C111.454 19.3038 111.34 19.2832 111.237 19.2422C111.134 19.2011 111.046 19.1407 110.973 19.0612C110.9 18.9817 110.843 18.8841 110.803 18.7682C110.762 18.6524 110.742 18.5199 110.742 18.3704V18.2564C110.742 18.1071 110.761 17.9742 110.8 17.858C110.838 17.7417 110.893 17.6439 110.963 17.5643C111.033 17.4847 111.118 17.4242 111.218 17.3826C111.318 17.3411 111.429 17.3203 111.551 17.3203C111.676 17.3203 111.785 17.336 111.876 17.3674C111.968 17.3987 112.044 17.4427 112.106 17.4993C112.167 17.5559 112.215 17.6235 112.25 17.7022C112.284 17.7809 112.307 17.8671 112.317 17.9607H111.93C111.922 17.9121 111.91 17.8682 111.893 17.8288C111.876 17.7894 111.853 17.7559 111.824 17.7281C111.795 17.7002 111.759 17.6787 111.716 17.6637C111.673 17.6487 111.622 17.6412 111.563 17.6412C111.427 17.6412 111.323 17.6927 111.253 17.7957C111.182 17.8987 111.147 18.0514 111.147 18.2539V18.3706C111.147 18.573 111.185 18.7259 111.262 18.8293C111.339 18.9327 111.452 18.9845 111.6 18.9845C111.648 18.9845 111.689 18.9814 111.725 18.9752C111.76 18.969 111.79 18.9612 111.815 18.952C111.841 18.9427 111.862 18.9326 111.878 18.9215C111.895 18.9104 111.909 18.8996 111.92 18.889V18.5562H111.558V18.2632H112.317V19.0333Z" fill="white"/>
<path d="M106.46 22.4032H106.063L105.288 21.133V22.4032H104.891V20.4727H105.288L106.064 21.7455V20.4727H106.46V22.4032Z" fill="white"/>
<path d="M107.97 21.5665H107.206V22.0837H108.103V22.4032H106.809V20.4727H108.1V20.7948H107.206V21.255H107.97V21.5665Z" fill="white"/>
<path d="M109.84 21.8463L110.1 20.4727H110.497L110.069 22.4032H109.668L109.354 21.1117L109.04 22.4032H108.639L108.211 20.4727H108.607L108.869 21.8437L109.187 20.4727H109.524L109.84 21.8463Z" fill="white"/>
<path d="M111.711 21.8958C111.711 21.8623 111.706 21.832 111.696 21.805C111.687 21.7781 111.668 21.7531 111.64 21.7301C111.612 21.7071 111.574 21.6846 111.525 21.6625C111.476 21.6404 111.412 21.6169 111.334 21.5922C111.246 21.5639 111.163 21.5321 111.084 21.4967C111.006 21.4614 110.938 21.4196 110.879 21.3714C110.82 21.3233 110.774 21.2678 110.74 21.205C110.706 21.1422 110.689 21.0689 110.689 20.9849C110.689 20.9044 110.706 20.8309 110.741 20.7641C110.776 20.6974 110.825 20.6406 110.888 20.5938C110.951 20.5469 111.026 20.5104 111.114 20.4844C111.201 20.4583 111.296 20.4453 111.401 20.4453C111.508 20.4453 111.605 20.4601 111.692 20.4897C111.78 20.5193 111.855 20.5606 111.916 20.6136C111.978 20.6667 112.026 20.7296 112.06 20.8026C112.093 20.8755 112.11 20.9553 112.11 21.0419H111.712C111.712 21.0013 111.706 20.9637 111.693 20.9292C111.68 20.8947 111.66 20.8651 111.634 20.8404C111.607 20.8157 111.574 20.7964 111.535 20.7827C111.495 20.769 111.448 20.7621 111.394 20.7621C111.342 20.7621 111.297 20.7679 111.258 20.7794C111.22 20.7909 111.188 20.8068 111.163 20.8271C111.137 20.8475 111.118 20.8714 111.106 20.8988C111.093 20.9261 111.086 20.9553 111.086 20.9862C111.086 21.0499 111.119 21.1032 111.184 21.146C111.249 21.1889 111.344 21.2289 111.47 21.266C111.575 21.2987 111.667 21.3349 111.747 21.3748C111.827 21.4145 111.894 21.4596 111.948 21.51C112.001 21.5604 112.041 21.6169 112.069 21.6797C112.096 21.7424 112.11 21.8136 112.11 21.8932C112.11 21.978 112.093 22.0536 112.06 22.1199C112.027 22.1863 111.98 22.2422 111.919 22.2877C111.858 22.3333 111.784 22.3681 111.698 22.3924C111.612 22.4167 111.516 22.4289 111.41 22.4289C111.346 22.4289 111.283 22.4234 111.219 22.4123C111.155 22.4013 111.094 22.3843 111.037 22.3613C110.979 22.3383 110.925 22.3096 110.875 22.2751C110.826 22.2406 110.783 22.2 110.746 22.1531C110.71 22.1063 110.681 22.053 110.66 21.9934C110.639 21.9337 110.629 21.8676 110.629 21.7951H111.028C111.028 21.8535 111.037 21.903 111.056 21.9436C111.074 21.9843 111.1 22.0173 111.133 22.0424C111.167 22.0676 111.207 22.086 111.253 22.0974C111.3 22.1089 111.352 22.1147 111.41 22.1147C111.461 22.1147 111.506 22.1092 111.544 22.0981C111.582 22.0871 111.613 22.0718 111.638 22.0524C111.663 22.0329 111.681 22.0097 111.693 21.9827C111.705 21.9557 111.711 21.9268 111.711 21.8958Z" fill="white"/>
<path d="M89.9239 39.1903C89.9239 39.1903 90.786 38.7394 91.0503 38.8127C91.3146 38.8861 92.3841 39.3126 92.5182 39.5066C92.7275 39.8092 93.1016 40.2938 92.8601 40.3189C92.6188 40.3439 90.517 40.252 90.2778 40.2086C90.0386 40.1652 89.4987 39.8774 89.9239 39.1903Z" fill="#EA9E6A"/>
<path d="M82.191 31.5215L82.2007 40.9909C82.2007 40.9909 81.0847 41.9783 77.0352 41.9718C76.9342 41.9723 76.8316 41.9719 76.7266 41.9702C74.4049 41.9395 73.8292 38.8864 73.7912 36.0837C73.7584 33.6934 74.1168 31.4852 74.1168 31.4852C79.7091 29.7266 82.191 31.5215 82.191 31.5215Z" fill="#2B478B"/>
<path d="M90.2625 40.1075C89.4312 40.4106 84.6619 40.263 84.2187 40.0827C83.9914 39.99 83.0936 39.0054 82.2082 37.8157C82.2074 37.8149 82.2074 37.8149 82.2074 37.8149C81.3695 36.6895 80.5404 35.3804 80.3023 34.4737C79.8127 32.6104 80.5153 31.0684 80.5153 31.0684C80.5153 31.0684 81.7253 31.1826 82.191 31.5384C82.6567 31.8951 84.996 37.5309 85.3602 37.7094C85.7245 37.8888 90.1671 38.5932 90.656 38.894C90.656 38.894 91.0931 39.8045 90.2625 40.1075Z" fill="#2B478B"/>
<path d="M79.4245 30.954L79.3958 31.2474C79.3958 31.2474 79.3908 32.1728 78.248 32.2022C77.1052 32.232 76.2944 31.6604 76.3905 30.9548C76.5431 30.4158 76.6897 30.0495 76.7393 29.5963C76.7577 29.428 76.7627 29.2479 76.75 29.043L78.9444 29.202L79.5798 29.3671L79.4245 30.954Z" fill="#EA9E6A"/>
<path d="M79.5798 29.367L79.4246 30.954C79.1819 31.0407 78.9132 31.0824 78.6189 31.0552C77.6122 30.962 76.7627 29.248 76.75 29.043L79.5798 29.367Z" fill="#D88D59"/>
<path d="M79.6321 30.1507C79.6321 30.1507 76.7744 30.4578 76.6105 28.6752C76.4466 26.8926 75.9675 25.7317 77.7851 25.4602C79.6028 25.1888 80.0203 25.8364 80.2198 26.4181C80.4192 26.9997 80.3713 30.0249 79.6321 30.1507Z" fill="#EA9E6A"/>
<path d="M80.8862 25.1667C80.8862 25.1667 80.1096 25.0342 79.2239 24.5476C78.5052 24.1527 77.5271 24.4239 77.2055 24.557C77.2184 24.5084 77.2443 24.4427 77.2974 24.3794C77.2974 24.3794 77.1506 24.4643 77.1177 24.5989C77.1026 24.608 77.0956 24.6147 77.0989 24.6174C77.0989 24.6174 76.9455 24.5744 76.841 24.6103C76.841 24.6103 76.9122 24.6067 76.9331 24.6542C76.9353 24.6592 76.9389 24.6636 76.9432 24.6677C75.7227 25.124 75.444 26.9603 75.7804 27.4223C76.1851 27.9781 76.6203 29.1858 76.6203 29.1858C76.6203 29.1858 76.8434 28.9307 76.803 28.4707C76.7626 28.0109 77.1532 28.047 77.6657 27.887C78.1781 27.7271 77.8202 27.1134 78.2843 26.8039C78.7484 26.4944 80.3124 26.8464 80.3166 26.5772C80.9241 26.4176 80.8807 25.2269 80.8862 25.1667Z" fill="#233862"/>
<path d="M77.0331 41.9721C76.9321 41.9725 76.8295 41.9722 76.7244 41.9705C74.4027 41.9398 73.8271 38.8867 73.7891 36.084C74.0546 36.2472 77.651 38.5252 77.0331 41.9721Z" fill="#233862"/>
<path d="M75.2364 39.1903C75.2364 39.1903 76.0984 38.7394 76.3628 38.8127C76.6272 38.8861 77.6966 39.3126 77.8307 39.5066C78.04 39.8092 78.414 40.2938 78.1727 40.3189C77.9312 40.3439 75.8295 40.252 75.5903 40.2086C75.3511 40.1652 74.8112 39.8774 75.2364 39.1903Z" fill="#EA9E6A"/>
<path d="M75.1333 31.2539C75.1333 31.2539 73.402 31.4738 72.4612 32.369C71.6062 33.1825 68.9638 37.2992 68.2021 38.7977C68.0808 39.0363 68.3058 39.6017 68.5138 39.7702C69.0346 40.1923 70.1532 40.5684 73.0272 40.3678L75.5917 40.237C75.5917 40.237 75.8833 39.118 75.3556 38.8293L71.2645 38.387C71.2645 38.387 73.8394 36.1794 74.3583 35.5239C74.8773 34.8684 75.1333 31.2539 75.1333 31.2539Z" fill="#2B478B"/>
<path d="M90.2613 40.1083C89.43 40.4113 84.6607 40.2637 84.2175 40.0835C83.9902 39.9908 83.0924 39.0062 82.207 37.8164C82.255 37.8278 83.7817 38.2077 84.6585 39.1519C84.6585 39.1519 85.1733 39.4515 86.647 39.4577C88.1207 39.464 90.0017 39.5986 90.2613 40.1083Z" fill="#233862"/>
<path d="M75.4277 31.1211C75.4277 31.1211 73.6161 31.3506 72.9873 31.7872C72.3585 32.2237 72.459 32.3678 72.459 32.3678C72.459 32.3678 72.651 32.7283 73.588 32.4405C74.525 32.1527 75.7755 31.5265 75.7755 31.5265C75.7755 31.5265 75.7735 31.1637 75.4277 31.1211Z" fill="#EE9849"/>
<path d="M79.7773 30.776C79.7773 30.776 79.86 31.0439 80.0184 31.0942C80.1769 31.1445 81.7444 31.729 81.9672 31.6253C82.1899 31.5216 81.6473 30.963 80.8029 30.8473C79.9585 30.7314 79.7773 30.776 79.7773 30.776Z" fill="#EE9849"/>
<path d="M96.5139 39.7453C96.7465 40.0137 97.553 39.3057 97.6635 39.212C97.67 39.2026 97.6757 39.1981 97.6757 39.1981L97.5416 38.5765C97.5416 38.5765 96.6286 38.4188 96.4562 38.5506C96.2838 38.6825 96.258 39.4583 96.5139 39.7453Z" fill="#ED985F"/>
<path d="M105.431 34.3515C105.424 34.4603 105.41 34.5736 105.388 34.6928C105.298 35.2123 104.953 35.8318 104.495 36.4418C104.476 36.47 104.456 36.4988 104.432 36.5265C103.557 37.6743 102.301 38.7712 101.583 39.0889C101.489 39.131 101.369 39.1651 101.23 39.1928C100.673 39.3036 99.8075 39.309 99.0589 39.2843C98.4365 39.2685 97.8898 39.2265 97.6646 39.2121C97.5929 39.2076 97.5523 39.2022 97.5523 39.2022L97.543 38.5763C97.543 38.5763 98.0768 38.4413 98.7373 38.2503C99.3201 38.0791 100 37.8669 100.489 37.6749C100.77 37.5646 100.988 37.4611 101.088 37.3766C101.723 36.8368 102.661 34.8661 103.466 33.5901C103.538 33.4709 103.61 33.3566 103.681 33.2478C103.688 33.2379 103.695 33.2235 103.707 33.2146C103.744 33.1632 103.776 33.1157 103.808 33.0736C103.809 33.0682 103.815 33.0637 103.82 33.0598C103.966 32.852 104.112 32.6906 104.239 32.5887L104.239 32.5838C104.249 32.5758 104.258 32.5685 104.268 32.5615C104.413 32.4502 104.543 32.4155 104.651 32.4784C104.651 32.4784 104.873 32.6323 105.078 32.9534C105.105 32.9831 105.121 33.0162 105.137 33.0494C105.26 33.2562 105.369 33.5239 105.413 33.8495C105.434 34.0036 105.442 34.1704 105.431 34.3515Z" fill="#FFB27D"/>
<path d="M111.364 41.3803C111.243 42.1571 104.536 42.306 104.791 41.4688C104.791 41.4688 104.437 36.5786 104.057 35.3585C104.043 35.314 104.031 35.2709 104.021 35.2264C103.749 34.0568 104.735 33.0093 104.24 32.5848C104.239 32.5843 104.239 32.5843 104.239 32.5843C104.239 32.5843 104.56 32.29 105.509 32.0564C105.509 32.0564 105.584 32.0352 105.71 32.0025C105.78 31.9095 105.76 31.5428 105.717 31.1604C105.661 30.6711 105.565 30.155 105.565 30.155L107.18 29.643L107.276 29.6133C107.398 30.7423 107.774 31.4578 108.014 31.6265C108.145 31.628 108.303 31.6335 108.453 31.6448C108.453 31.6448 109.08 31.6433 109.609 31.7888C109.756 31.8289 109.895 31.8808 110.01 31.9467C110.01 31.9467 109.923 32.0857 109.818 32.2985C109.734 32.4701 109.638 32.6908 109.57 32.9248C109.555 32.9748 109.542 33.0248 109.53 33.0752C109.505 33.1816 109.487 33.2885 109.479 33.3943C109.469 33.5343 109.524 33.6675 109.623 33.803C109.712 33.9272 109.838 34.0548 109.983 34.1924C110.077 34.282 110.179 34.3765 110.283 34.4774V34.4779C110.209 35.1082 110.027 36.1373 109.997 37.257C109.989 37.541 110.046 37.8215 110.161 38.0788C110.206 38.1807 110.261 38.2797 110.325 38.3732C110.829 39.1177 111.705 40.5852 111.364 41.3803Z" fill="#FFB27D"/>
<path d="M107.156 25.5411C107.172 25.4502 108.575 26.9217 108.475 26.8905C108.529 27.0075 108.581 27.1353 108.628 27.2767C109.063 28.584 108.286 29.7016 107.797 29.5016C107.484 29.3734 107.318 29.9152 107.318 29.9152L104.504 26.9413C104.504 26.9413 105.982 24.698 107.156 25.5411Z" fill="#2C3A64"/>
<path d="M105.562 30.1546C105.562 30.1546 105.658 30.6702 105.714 31.1597C106.636 31.0301 107.03 30.1323 107.178 29.6426L105.562 30.1546Z" fill="#ED985F"/>
<path d="M105.308 30.654C105.308 30.654 107.499 30.4451 107.348 29.0828C107.197 27.7206 107.378 26.7762 105.973 26.8519C104.568 26.9277 104.354 27.4776 104.294 27.9445C104.234 28.4115 104.735 30.6732 105.308 30.654Z" fill="#FFB27D"/>
<path d="M104.274 27.18C104.567 26.7325 104.832 26.7938 104.989 26.9009C106.111 26.11 106.99 26.9952 106.99 26.9952C107.245 27.9562 108.013 28.4371 108.013 28.4371C108.013 28.4371 107.642 28.7279 106.696 28.5945C106.408 28.5538 106.135 28.3824 105.895 28.1643C106.336 28.7459 106.893 29.1383 106.893 29.1383C105.738 28.7539 105.127 27.2767 105.065 27.1202C104.945 27.255 104.711 27.5449 104.659 27.8092C104.589 28.1682 104.62 28.8878 104.409 28.8868C104.409 28.8869 103.836 27.8513 104.274 27.18Z" fill="#2C3A64"/>
<path d="M99.0981 37.2582L95.7656 36.8145L98.6853 41.5506L101.853 41.9725L99.0981 37.2582Z" fill="#CAD8E5"/>
<path d="M99.0591 37.2582L95.7266 36.8145L98.6462 41.5506L101.814 41.9725L99.0591 37.2582Z" fill="#E9F3FE"/>
<path d="M99.8251 39.8321C100.105 39.868 100.548 39.9075 100.816 39.8438C100.816 39.8438 100.003 39.7238 100.21 39.4896C100.248 39.447 100.648 39.5363 101.1 39.5965C101.285 39.6211 101.709 39.9359 101.684 39.9445C102.017 39.9448 102.323 39.9211 102.422 39.9131C102.448 39.9114 102.459 39.9076 102.459 39.9076L102.635 40.7879C102.635 40.7879 102.573 40.795 102.463 40.8011C102.186 40.8312 101.614 40.8996 101.065 41.0329C100.296 41.2247 99.807 40.7938 99.5971 40.5072C99.4641 40.3254 99.3708 40.0953 99.3999 39.9413C99.4317 39.7726 99.6547 39.8102 99.8251 39.8321Z" fill="#FFB27D"/>
<path d="M107 25.6017C107 25.6017 107.483 24.7273 108.509 25.4286C109.721 26.2573 108.701 28.5441 108.701 28.5441L107 25.6017Z" fill="#2C3A64"/>
<path d="M111.364 41.3806C111.303 41.7744 109.547 42.0069 107.865 42.0312C106.231 42.0549 104.666 41.8817 104.791 41.4691C104.791 41.4691 104.754 40.9536 104.69 40.2154C104.666 39.9378 104.638 39.6291 104.608 39.304C104.567 38.8676 104.52 38.4021 104.47 37.9464C104.348 36.8643 104.204 35.8337 104.057 35.3587C104.043 35.3142 104.031 35.2712 104.021 35.2267C103.749 34.0571 104.735 33.0096 104.24 32.5851C104.269 32.6014 105.322 33.1863 106.785 33.0398C108.269 32.8914 109.609 31.7891 109.609 31.7891C109.609 31.7891 109.876 31.8583 110.011 31.9469C110.17 32.0518 109.638 32.691 109.57 32.925C109.555 32.975 109.542 33.025 109.53 33.0754C109.505 33.1818 109.487 33.2887 109.479 33.3946C109.469 33.5346 109.524 33.6677 109.623 33.8032C109.712 33.9274 109.838 34.0551 109.983 34.1926C110.077 34.2822 110.178 34.3762 110.283 34.4771L110.283 34.4776V34.4781C110.213 35.0723 110.048 36.0218 110.004 37.0667C110.001 37.1301 109.999 37.1934 109.997 37.2573C109.989 37.5413 110.046 37.8217 110.162 38.079C110.207 38.1809 110.261 38.2799 110.325 38.3734C110.829 39.118 111.705 40.5855 111.364 41.3806Z" fill="#B64C41"/>
<path d="M103.984 39.2852C104.161 39.724 104.398 40.2158 104.683 40.5898C104.403 40.627 104.122 40.6601 103.85 40.6888C103.788 40.6957 103.725 40.7022 103.664 40.7086L103.659 40.7076C103.278 40.7398 102.928 40.7704 102.636 40.7883C102.636 40.7883 102.573 40.7952 102.465 40.8016C102.101 40.8204 101.872 40.8308 101.872 40.8308L101.781 40.1584C101.781 40.1584 102.036 40.0635 102.423 39.9135C102.662 39.8215 102.95 39.7102 103.256 39.586C103.279 39.5765 103.303 39.5672 103.327 39.5573C103.541 39.4712 103.763 39.3797 103.984 39.2852Z" fill="#FFB27D"/>
<path d="M105.43 34.3526C105.424 34.4614 105.41 34.5748 105.388 34.6939C105.298 35.2134 104.952 35.8329 104.494 36.4429C104.475 36.4711 104.456 36.4999 104.432 36.5276C104.392 36.5791 104.352 36.631 104.311 36.6819C104.311 36.6819 104.311 36.6819 104.311 36.6819C103.445 37.7724 102.268 38.7866 101.582 39.0899C101.488 39.132 101.369 39.1661 101.229 39.1938C100.999 39.0211 100.838 38.7886 100.726 38.5486C100.578 38.231 100.515 37.9 100.488 37.6759C100.77 37.5656 100.987 37.4621 101.087 37.3776C101.722 36.8378 102.66 34.8671 103.465 33.5911C103.538 33.4719 103.61 33.3576 103.681 33.2488C103.687 33.2389 103.695 33.2245 103.706 33.2156C103.744 33.1642 103.776 33.1167 103.808 33.0746C103.808 33.0692 103.814 33.0647 103.819 33.0607C103.966 32.8529 104.111 32.6916 104.239 32.5897L104.239 32.5848C104.248 32.5768 104.258 32.5694 104.267 32.5625C104.666 32.9776 105.093 33.7054 105.43 34.3526Z" fill="#B64C41"/>
<path d="M104.311 36.6816C103.445 37.7721 102.269 38.7863 101.583 39.0896C101.489 39.1317 101.369 39.1658 101.23 39.1935C100.999 39.0208 100.838 38.7883 100.727 38.5483C101.619 38.7473 103.281 37.2872 103.573 37.0061C103.876 36.7163 104.292 36.6831 104.311 36.6816Z" fill="#A53F3A"/>
<path d="M110.281 34.4771V34.4776C110.211 35.0718 110.045 36.0213 110.001 37.0662C109.64 38.3001 108.849 40.722 107.862 42.0307C106.228 42.0544 104.663 41.8813 104.788 41.4686C104.788 41.4686 104.751 40.9531 104.688 40.2149C104.909 39.8983 105.276 39.6108 105.82 39.3931C107.568 38.6935 109.32 36.1009 110.28 34.4766L110.281 34.4771Z" fill="#A53F3A"/>
<path d="M106.388 39.3933C105.72 39.5209 105.021 39.561 104.607 39.3037C104.566 38.8673 104.519 38.4018 104.469 37.9461C105.237 37.3959 108.551 35.1888 109.076 34.2106C109.67 33.1058 107.576 39.1661 106.388 39.3933Z" fill="#A53F3A"/>
<path d="M110.527 33.7156C110.522 33.7977 110.505 33.8833 110.487 33.9738C110.443 34.2311 110.35 34.5388 110.228 34.8733C110.03 35.4354 109.738 36.0776 109.394 36.7232C109.299 36.8964 109.203 37.0745 109.102 37.2521C108.373 38.538 107.499 39.7121 106.848 40.0639C106.82 40.0807 106.798 40.0936 106.771 40.1054C106.501 40.2296 106.115 40.338 105.675 40.429C105.108 40.5408 104.452 40.6234 103.848 40.6882C103.456 40.3459 103.347 39.8842 103.324 39.5567C104.043 39.2678 104.857 38.9136 105.427 38.6053C105.766 38.4232 106.026 38.2565 106.126 38.1254C106.282 37.924 106.47 37.5984 106.684 37.1932C106.794 36.981 106.913 36.7489 107.034 36.5021C107.243 36.0963 107.456 35.655 107.675 35.2147C108.071 34.4107 108.488 33.6042 108.864 32.9887C109.107 32.6028 109.334 32.2872 109.534 32.1026C109.693 31.9532 109.837 31.8849 109.961 31.9221C109.98 31.9295 109.995 31.9369 110.009 31.9438C110.009 31.9438 110.713 32.2441 110.527 33.7156Z" fill="#B64C41"/>
<path d="M114.168 60.7241H56.7092C55.2181 60.7241 54.056 59.4695 53.7994 57.9194C53.7024 57.336 53.734 56.7103 53.9251 56.0941L57.5052 44.5401C58.335 41.862 60.5136 40.0781 62.9538 40.0781H106.058C107.854 40.0781 109.433 41.4661 109.929 43.4811L114.168 60.7241Z" fill="#BAD4F4"/>
<path d="M119.591 60.7242H69.9556C67.9905 60.7242 66.2632 59.6022 65.3343 57.9195C64.9186 57.1666 64.6623 56.3011 64.6166 55.3739L64.1959 46.8218C64.015 43.1556 66.7823 40.0781 70.2603 40.0781H117.403C119.388 40.0781 121.134 41.4661 121.682 43.4811L124.5 53.8466C125.436 57.2918 122.986 60.7242 119.591 60.7242Z" fill="#D2E3FC"/>
<path d="M65.6033 26.7579C65.6026 26.8297 65.5555 26.8652 65.462 26.8642L65.0666 26.8601C65.0163 26.8596 64.9807 26.8482 64.96 26.8258C64.9393 26.8035 64.9291 26.7672 64.9297 26.7169L64.9405 25.6849C64.9416 25.5856 64.9801 25.5364 65.0562 25.5371C65.1323 25.5379 65.1698 25.5892 65.1687 25.6909L65.1587 26.6472L65.451 26.6503C65.5533 26.6513 65.604 26.6872 65.6033 26.7579Z" fill="white"/>
<path d="M65.9236 26.7324C65.9225 26.8329 65.884 26.8827 65.808 26.8819C65.7318 26.8811 65.6943 26.8311 65.6953 26.7318L65.7062 25.6927C65.7073 25.5934 65.7458 25.5441 65.822 25.5449C65.898 25.5457 65.9355 25.5957 65.9345 25.6951L65.9236 26.7324Z" fill="white"/>
<path d="M67.1087 25.6622C67.1085 25.6886 67.104 25.7131 67.0954 25.7357L66.6871 26.7919C66.6613 26.8587 66.6207 26.8919 66.5657 26.8913C66.5105 26.8907 66.4719 26.8598 66.4498 26.7984L66.0583 25.7225C66.0479 25.6973 66.0427 25.6733 66.043 25.6506C66.0433 25.6172 66.0537 25.5898 66.0743 25.5686C66.0948 25.5473 66.1212 25.5368 66.1535 25.5371C66.2061 25.5377 66.2446 25.5735 66.269 25.6446L66.571 26.5176C66.5722 26.5152 66.574 26.5117 66.5765 26.5069L66.8839 25.6545C66.9086 25.5864 66.9485 25.5527 67.0037 25.5532C67.0745 25.554 67.1095 25.5903 67.1087 25.6622Z" fill="white"/>
<path d="M67.8962 26.7859C67.8955 26.8554 67.8466 26.8896 67.7496 26.8886L67.338 26.8843C67.2877 26.8838 67.2519 26.8732 67.2305 26.8526C67.2091 26.832 67.1987 26.7965 67.1992 26.7462L67.2099 25.7218C67.211 25.6212 67.257 25.5713 67.348 25.5723L67.765 25.5767C67.8584 25.5777 67.9047 25.6141 67.904 25.686C67.9033 25.7578 67.8554 25.7933 67.7604 25.7923L67.4374 25.7889L67.4342 26.1034L67.7301 26.1065C67.8251 26.1075 67.8722 26.1425 67.8716 26.2113C67.8708 26.2803 67.8229 26.3142 67.7279 26.3132L67.4319 26.3101L67.4282 26.6713L67.7565 26.6748C67.8505 26.6758 67.897 26.7128 67.8962 26.7859Z" fill="white"/>
<path d="M63.5 26.2009C63.5 26.0328 63.6363 25.8965 63.8044 25.8965C63.9724 25.8965 64.1087 26.0327 64.1087 26.2009C64.1087 26.369 63.9724 26.5052 63.8044 26.5052C63.6363 26.5052 63.5 26.369 63.5 26.2009Z" fill="white"/>
</g>
<path d="M117.009 44.709H61.2148V46.4072H117.009V44.709Z" fill="#F99746"/>
<path d="M115.273 70.684C115.32 71.2104 113.414 73.046 111.898 74.4165C111.486 74.788 111.104 75.1261 110.797 75.3939C110.432 75.7122 110.3 76.2181 110.45 76.6793C110.524 76.9046 110.558 77.1378 110.501 77.3395C110.425 77.6098 110.309 77.8615 110.028 77.8615L108.554 77.8596L106.727 77.8577C106.419 77.8577 106.235 77.508 106.415 77.2582C106.632 76.9547 106.987 76.7388 107.4 76.6491C107.545 76.6178 107.701 76.5371 107.86 76.4238C108.414 76.0286 109 75.2396 109.242 74.7925C109.463 74.3833 109.662 73.9477 109.849 73.4975C110.984 70.7531 111.62 67.4619 113.486 66.2399C113.955 65.9331 115.197 69.8123 115.273 70.684Z" fill="#EA9C68"/>
<path d="M111.898 74.417C111.486 74.7885 111.104 75.1267 110.797 75.3944C110.432 75.7127 110.3 76.2187 110.45 76.6798C110.524 76.9052 110.558 77.1384 110.501 77.34C110.425 77.6103 110.309 77.862 110.028 77.862L108.554 77.8601L106.727 77.8582C106.419 77.8582 106.235 77.5085 106.415 77.2587C106.632 76.9552 106.987 76.7394 107.4 76.6497C107.545 76.6183 107.701 76.5376 107.86 76.4243C108.414 76.0291 109 75.2401 109.242 74.793C109.463 74.3838 109.662 73.9482 109.849 73.498C110.357 73.5851 111.264 73.8189 111.898 74.417Z" fill="#35488B"/>
<path d="M108.554 77.8596L106.727 77.8578C106.419 77.8578 106.235 77.5081 106.415 77.2583C106.632 76.9548 106.987 76.7389 107.4 76.6492C107.545 76.6178 107.701 76.5371 107.86 76.4238C108.132 76.7286 108.522 77.2641 108.554 77.8596Z" fill="#25386D"/>
<path d="M119.418 52.7671C119.418 52.7671 119.607 52.2023 119.404 51.7988C119.404 51.7988 119.394 52.3545 119.176 52.6018C118.958 52.8491 119.418 52.7671 119.418 52.7671Z" fill="#2C3A64"/>
<path d="M119.332 52.3722C119.332 52.3722 119.849 52.3136 120.093 52.7112C120.093 52.7112 119.729 52.465 119.361 52.7261L119.332 52.3722Z" fill="#2C3A64"/>
<path d="M124.914 72.9957C124.914 72.9957 124.707 77.8693 118.271 77.8693C113.585 77.8693 110.273 66.2411 110.273 66.2411C110.273 66.2411 111.424 65.5387 111.672 65.6016C113.913 66.17 124.914 72.9957 124.914 72.9957Z" fill="#FFB27D"/>
<path d="M115.016 59.9979L117.528 61.1553L118.092 59.2019C118.092 59.2019 117.734 58.5259 117.571 57.4185C117.504 56.9529 117.47 56.4109 117.513 55.8105L115.219 56.9852C115.219 56.9852 115.274 57.1974 115.31 57.5104C115.349 57.8487 115.367 58.3047 115.271 58.738C115.188 59.1099 115.096 59.5095 115.016 59.9979Z" fill="#FFB27D"/>
<path d="M115.273 58.7375C116.578 58.7026 117.574 57.418 117.574 57.418L115.313 57.5099C115.352 57.8482 115.37 58.3042 115.273 58.7375Z" fill="#EA9C68"/>
<path d="M114.64 58.0113C114.64 58.0113 117.243 58.6983 118.14 56.6291C119.109 54.3961 118.046 52.769 117.162 52.6593C115.4 52.4404 114.377 53.1123 114.067 53.8225C113.757 54.5328 113.205 57.645 114.64 58.0113Z" fill="#FFB27D"/>
<path d="M121.464 77.8684C121.464 77.8684 117.365 77.8665 116.949 77.8684C116.848 77.8684 116.659 77.7961 116.428 77.6852C115.704 77.3388 114.579 76.6176 114.579 76.6176C114.131 72.6788 117.594 70.8535 117.594 70.8535C117.594 70.8535 123.609 71.6861 124.282 73.9917C124.318 74.1159 124.342 74.239 124.356 74.3593C124.587 76.4626 121.464 77.8684 121.464 77.8684Z" fill="#35488B"/>
<path d="M121.462 77.8687C121.462 77.8687 117.363 77.8668 116.946 77.8687C116.846 77.8687 116.656 77.7963 116.426 77.6855C116.521 77.6906 116.622 77.697 116.729 77.7053C121.431 78.0703 120.81 74.1367 120.81 74.1367L124.353 74.3595C124.585 76.4629 121.462 77.8687 121.462 77.8687Z" fill="#25386D"/>
<path d="M114.258 53.5031C113.567 53.5578 112.981 52.9859 113.765 51.9032C114.48 50.9158 117.258 50.7262 118.523 51.6525C122.018 54.2114 119.471 56.7445 117.918 57.5348C117.721 57.6352 117.48 57.5752 117.351 57.3955C117.088 57.0301 116.697 56.4232 116.802 56.1755C116.957 55.8098 116.977 54.9133 116.486 55.1054C115.996 55.2976 114.942 53.4489 114.258 53.5031Z" fill="#2C3A64"/>
<path d="M124.856 74.7245C121.769 77.3965 118.394 71.717 117.003 69.9487C116.816 69.7105 116.665 69.5433 116.556 69.4767C115.63 68.9144 114.298 66.7906 114.224 65.8915C114.158 65.0775 114.187 64.2391 114.268 63.4411C114.508 61.0701 115.203 59.0495 115.203 59.0495C117.645 59.1181 117.899 58.7383 117.899 58.7383C123.558 59.5952 125.962 73.7677 124.856 74.7245Z" fill="#FFB93E"/>
<path d="M117.003 69.9481C116.816 69.7098 116.665 69.5427 116.556 69.4761C115.63 68.9138 114.298 66.79 114.224 65.8908C114.158 65.0768 114.187 64.2385 114.268 63.4405C114.618 62.7059 115.207 62.1064 116.111 61.7695H116.919C116.919 61.7695 119.188 63.9302 117.003 69.9481Z" fill="#FFA412"/>
<path d="M112.059 70.6841C112.064 70.7481 112.041 70.8307 111.993 70.93C111.648 71.6486 110.015 73.212 108.683 74.4166C108.272 74.788 107.889 75.1262 107.582 75.394C107.217 75.7123 107.085 76.2182 107.235 76.6794C107.309 76.9047 107.344 77.1379 107.286 77.3396C107.21 77.6099 107.094 77.8616 106.813 77.8616L103.512 77.8577C103.204 77.8577 103.02 77.508 103.2 77.2582C103.418 76.9547 103.772 76.7389 104.186 76.6492C104.836 76.5083 105.716 75.3677 106.027 74.7925C106.248 74.3833 106.448 73.9477 106.634 73.4975C107.053 72.483 107.405 71.3943 107.776 70.3625C108.036 69.6362 108.306 68.9394 108.616 68.3169C109.057 67.4293 109.58 66.6928 110.271 66.24C110.276 66.2368 110.28 66.2349 110.285 66.2323C110.475 66.142 110.785 66.696 111.092 67.4485C111.257 67.8539 111.423 68.3176 111.569 68.7698C111.83 69.5793 112.029 70.351 112.059 70.6841Z" fill="#FFB27D"/>
<path d="M108.683 74.4171C108.272 74.7885 107.889 75.1267 107.582 75.3945C107.217 75.7128 107.085 76.2187 107.235 76.6799C107.309 76.9052 107.344 77.1384 107.286 77.3401C107.21 77.6104 107.094 77.8621 106.813 77.8621L103.512 77.8582C103.204 77.8582 103.02 77.5085 103.2 77.2587C103.418 76.9552 103.772 76.7394 104.186 76.6497C104.836 76.5088 105.716 75.3682 106.027 74.793C106.248 74.3838 106.448 73.9482 106.634 73.498C107.142 73.5852 108.049 73.819 108.683 74.4171Z" fill="#35488B"/>
<path d="M113.925 66.5977C113.891 66.6355 112.94 67.7595 111.57 68.7701C111.455 68.8553 111.337 68.9392 111.216 69.0224C110.2 69.718 108.995 70.3065 107.777 70.3629C108.037 69.6366 108.308 68.9398 108.618 68.3173C109.28 68.0598 110.004 67.8068 110.698 67.5782C110.831 67.534 110.963 67.4911 111.094 67.4489C112.616 66.9575 113.901 66.604 113.925 66.5977Z" fill="#EA9C68"/>
<path d="M114.841 59.5768C114.841 59.5768 112.105 65.7697 110.957 66.242C109.809 66.7143 107.34 69.1233 107.34 69.1233L107.87 69.974C107.87 69.974 111.33 68.6143 112.157 68.1373C112.985 67.6604 117.162 63.5762 116.91 62.4737C116.658 61.3712 117.421 59.1798 114.841 59.5768Z" fill="#FFB27D"/>
<path d="M115.845 59.0569C115.845 59.0569 114.757 59.3357 114.074 60.4245C113.39 61.5133 112.75 62.6448 112.75 62.6448C112.75 62.6448 114.095 64.5559 117.062 63.7177C120.03 62.8796 117.894 58.9488 115.845 59.0569Z" fill="#FFB93E"/>
<path d="M107.339 69.123C107.339 69.123 106.28 70.4444 107.296 71.7325L108.04 69.6422L107.339 69.123Z" fill="#FFB27D"/>
<path d="M32.3778 88.2294C32.3778 88.2294 30.4325 85.9598 32.2579 84.5182C32.2579 84.5182 33.5913 83.7109 34.6785 83.7765C34.6785 83.7765 33.1379 86.3599 33.6363 86.6168C34.1346 86.8738 35.1454 83.6145 35.1454 83.6145C35.1454 83.6145 38.1797 83.3203 39.1558 83.7896C39.1558 83.7896 36.5619 85.9123 37.1082 86.0386C37.6545 86.1649 40.4563 84.0815 40.4563 84.0815C40.4563 84.0815 43.2804 84.5621 43.1298 86.2849C42.9793 88.0076 42.0061 88.5396 41.5785 88.4938C41.1508 88.4481 38.649 87.4929 38.5945 87.8434C38.54 88.1938 40.046 89.3391 41.1005 89.3927C41.1005 89.3927 39.1095 91.5884 37.7862 90.9548C36.463 90.321 36.35 89.3165 35.5252 88.9398C34.7003 88.5631 33.9961 88.564 34.3367 88.9482C34.6773 89.3325 36.1701 89.7059 36.6418 90.5403C37.1135 91.3748 37.5368 91.9374 36.1677 91.7315C34.7986 91.5256 32.5733 90.5238 32.4756 89.3766C32.3778 88.2294 32.3778 88.2294 32.3778 88.2294Z" fill="#82B378"/>
<path d="M41.7433 86.3317C41.7433 86.3317 34.0728 86.0361 32.3789 88.2297C32.3789 88.2297 32.0043 89.3517 30.8516 90.3734L30.6719 90.8631C30.6719 90.8631 32.001 89.4617 32.4766 89.3769C32.4766 89.3769 31.7328 86.6592 41.7433 86.3317Z" fill="#82B378"/>
<path d="M30.8506 90.3728C30.8506 90.3728 29.2042 91.5903 29.0898 93.7659L29.3887 93.7926C29.3887 93.7926 29.9145 91.5431 30.8649 90.6634C31.8153 89.7837 30.8506 90.3728 30.8506 90.3728Z" fill="#82B378"/>
<path d="M25.5777 85.373C25.5777 85.373 28.6723 83.64 27.2282 81.2882C27.2282 81.2882 26.0729 79.844 24.835 79.4726C24.835 79.4726 25.4952 82.9799 24.835 83.0624C24.1748 83.1449 24.3811 79.1013 24.3811 79.1013C24.3811 79.1013 21.1215 77.5334 19.8424 77.6572C19.8424 77.6572 21.8642 81.0819 21.204 80.9994C20.5438 80.9169 18.2744 77.4509 18.2744 77.4509C18.2744 77.4509 14.9322 76.832 14.3958 78.8126C13.8594 80.7931 14.7259 81.7834 15.221 81.9072C15.7162 82.0309 18.8933 81.9897 18.8108 82.4023C18.7283 82.8149 16.5827 83.4751 15.386 83.1038C15.386 83.1038 16.7064 86.3634 18.4394 86.1984C20.1724 86.0334 20.7088 84.9606 21.7816 84.8781C22.8544 84.7956 23.6384 85.0844 23.1019 85.3732C22.5655 85.6621 20.75 85.4679 19.8835 86.2045C19.017 86.9412 18.3156 87.3951 19.9248 87.7251C21.534 88.0552 24.4223 87.8489 25 86.6111C25.5777 85.373 25.5777 85.373 25.5777 85.373Z" fill="#A8D29F"/>
<path d="M15.9258 79.4316C15.9258 79.4316 24.5907 82.2375 25.581 85.3733C25.581 85.3733 25.5397 86.7762 26.4062 88.3854V89.0043C26.4062 89.0043 25.4985 86.9 25.0033 86.6111C25.0033 86.6111 26.9427 83.8879 15.9258 79.4316Z" fill="#82B378"/>
<path d="M26.4061 88.3853C26.4061 88.3853 27.7424 90.4144 26.9806 92.8845L26.6369 92.7921C26.6369 92.7921 26.9706 90.0715 26.2715 88.7031C25.5723 87.3348 26.4061 88.3853 26.4061 88.3853Z" fill="#82B378"/>
<path d="M30.5021 82.9836C30.5021 82.9836 26.4228 80.6992 28.3265 77.5989C28.3265 77.5989 29.8494 75.6952 31.4812 75.2057C31.4812 75.2057 30.6109 79.8289 31.4812 79.9377C32.3514 80.0465 32.0794 74.7162 32.0794 74.7162C32.0794 74.7162 36.3763 72.6494 38.0624 72.8126C38.0624 72.8126 35.3973 77.3269 36.2675 77.2182C37.1378 77.1094 40.1293 72.5406 40.1293 72.5406C40.1293 72.5406 44.5349 71.7247 45.242 74.3355C45.9491 76.9462 44.8069 78.2516 44.1542 78.4148C43.5015 78.5779 39.3134 78.5236 39.4222 79.0675C39.531 79.6114 42.3593 80.4816 43.9367 79.9921C43.9367 79.9921 42.1962 84.289 39.9118 84.0714C37.6274 83.8539 36.9203 82.4397 35.5062 82.3309C34.092 82.2221 33.0586 82.6029 33.7657 82.9836C34.4727 83.3643 36.8659 83.1083 38.0081 84.0794C39.1503 85.0504 40.0749 85.6487 37.9537 86.0838C35.8325 86.5189 32.0252 86.2469 31.2637 84.6152C30.5021 82.9836 30.5021 82.9836 30.5021 82.9836Z" fill="#A8D29F"/>
<path d="M43.2293 75.1504C43.2293 75.1504 31.8073 78.8489 30.5019 82.9826C30.5019 82.9826 30.5562 84.8319 29.4141 86.9531V87.769C29.4141 87.769 30.6106 84.995 31.2633 84.6143C31.2633 84.6143 28.707 81.0246 43.2293 75.1504Z" fill="#82B378"/>
<path d="M29.4143 86.9531C29.4143 86.9531 27.6528 89.6279 28.6571 92.884L29.1103 92.7623C29.1103 92.7623 28.6704 89.1759 29.592 87.3722C30.5135 85.5684 29.4143 86.9531 29.4143 86.9531Z" fill="#82B378"/>
<path d="M38.3522 91.9551C38.3522 96.3681 34.7747 99.9457 30.3617 99.9457C29.4402 99.9457 28.5554 99.7899 27.732 99.5026C24.6107 98.4154 22.3711 95.4467 22.3711 91.9551H38.3522Z" fill="#ED7D2B"/>
<path d="M33.0925 91.9551C33.0925 94.949 32.3753 97.998 29.9384 99.3665C29.5333 99.594 28.1768 99.3476 27.732 99.5026C24.6107 98.4154 22.3711 95.4467 22.3711 91.9551H33.0925Z" fill="#F99746"/>
<path d="M38.4638 100.353H22.2617C22.2617 100.081 22.3722 99.8342 22.5505 99.6559C22.7288 99.4776 22.9755 99.3672 23.2478 99.3672H37.4782C38.0224 99.3671 38.4638 99.8086 38.4638 100.353Z" fill="#ED7D2B"/>
<path d="M30.8725 100.353H22.2617C22.2617 100.081 22.3722 99.8342 22.5505 99.6559C22.7288 99.4776 22.9755 99.3672 23.2478 99.3672H29.8868C30.431 99.3671 30.8725 99.8086 30.8725 100.353Z" fill="#F99746"/>
<path d="M38.5352 91.9551H22.1094V92.2002H38.5352V91.9551Z" fill="#B5453C"/>
<path d="M142.553 86.6116L141.855 89.2568C141.855 89.2568 141.855 89.2568 141.854 89.2577L138.946 100.267H138.641L140.321 91.1332C140.323 91.1242 140.325 91.1152 140.327 91.1054L141.158 86.5879L142.553 86.6116Z" fill="#2B478B"/>
<path d="M142.555 86.6116L141.856 89.2568C141.856 89.2568 141.856 89.2568 141.855 89.2577C141.815 89.2773 140.544 89.9348 140.328 91.1054L141.159 86.5879L142.555 86.6116Z" fill="#163560"/>
<path d="M156.284 100.268H155.978L153.609 91.2988C153.609 91.298 153.609 91.298 153.609 91.2973L153.07 89.2578C153.069 89.2569 153.069 89.2569 153.069 89.2569L152.371 86.6116L153.766 86.5879L154.242 89.1708L154.597 91.1054C154.599 91.1152 154.601 91.1243 154.603 91.1332L156.284 100.268Z" fill="#2B478B"/>
<path d="M154.242 89.1709C153.984 89.5455 153.629 90.2496 153.609 91.2973L153.07 89.2578C153.069 89.2569 153.069 89.2569 153.069 89.2569L152.371 86.6116L153.766 86.5879L154.242 89.1709Z" fill="#163560"/>
<path d="M158.502 86.8479H135.622C135.312 86.8479 135.059 86.5945 135.059 86.2847V84.6472C135.059 84.3374 135.312 84.084 135.622 84.084H158.502C158.811 84.084 159.065 84.3374 159.065 84.6472V86.2847C159.065 86.5945 158.811 86.8479 158.502 86.8479Z" fill="#2B478B"/>
<path d="M156.5 82.9121H149.43V84.1014H156.5V82.9121Z" fill="#EFDECE"/>
<path d="M156.651 83.9744H146.008L145.976 82.9118H156.645C156.679 82.9118 156.708 82.8841 156.707 82.8502C156.706 82.8141 156.676 82.7852 156.64 82.7852H145.972H145.66C145.583 82.7852 145.512 82.8263 145.473 82.8933C145.353 83.1035 145.159 83.5913 145.544 84.1011H145.551H146.012H156.635C156.674 84.1011 156.706 84.0694 156.707 84.0302C156.707 83.9996 156.681 83.9744 156.651 83.9744Z" fill="#2A4E96"/>
<path d="M152.613 83.9747L145.76 83.9817C145.64 83.9819 145.543 83.8848 145.543 83.7651V83.043C145.543 82.9707 145.602 82.9121 145.674 82.9121H152.613V83.9747Z" fill="#FCECDB"/>
<path d="M150.57 83.4839L152.617 83.4648V83.5345L150.57 83.4839Z" fill="#EFDECE"/>
<path d="M151.875 83.7319L152.612 83.6953V83.7431L151.875 83.7319Z" fill="#EFDECE"/>
<path d="M154.614 81.5957H148.367V82.785H154.614V81.5957Z" fill="#EFDECE"/>
<path d="M154.749 82.658H145.345L145.317 81.5954H154.744C154.774 81.5954 154.799 81.5676 154.798 81.5337C154.797 81.4977 154.771 81.4688 154.739 81.4688H145.314H145.038C144.97 81.4688 144.907 81.5099 144.873 81.5769C144.767 81.7871 144.595 82.2749 144.936 82.7847H144.942H145.349H154.735C154.77 82.7847 154.798 82.753 154.798 82.7138C154.799 82.6831 154.776 82.658 154.749 82.658Z" fill="#A9453D"/>
<path d="M151.185 82.6583L145.129 82.6653C145.023 82.6654 144.938 82.5684 144.938 82.4487V81.7266C144.938 81.6543 144.989 81.5957 145.053 81.5957H151.185V82.6583Z" fill="#FCECDB"/>
<path d="M149.375 82.1675L151.183 82.1484V82.2182L149.375 82.1675Z" fill="#EFDECE"/>
<path d="M150.531 82.4155L151.183 82.3789V82.4268L150.531 82.4155Z" fill="#EFDECE"/>
<path d="M151.257 81.4674H145.583C145.438 81.4674 145.32 81.3499 145.32 81.2049V80.7237C145.32 80.5559 145.456 80.4199 145.624 80.4199H151.257V81.4674Z" fill="#2A4E96"/>
<path d="M153.977 81.3816H151.113C150.973 81.3816 150.859 81.268 150.859 81.1278V80.7219C150.859 80.6026 150.956 80.5059 151.075 80.5059H153.977V81.3816Z" fill="#FCECDB"/>
<path d="M154.121 80.4199H146.133V80.5058H154.121V80.4199Z" fill="#2A4E96"/>
<path d="M154.121 81.3828H146.359V81.4688H154.121V81.3828Z" fill="#2A4E96"/>
<path d="M142.163 80.5459C142.163 80.5459 140.913 81.0536 140.023 79.778C140.023 79.778 141.467 79.5331 142.163 80.5459Z" fill="#6BB7BF"/>
<path d="M142.254 80.0228C142.254 80.0228 142.342 79.5759 142.866 79.5605C142.866 79.5605 142.669 80.0132 142.254 80.0228Z" fill="#6BB7BF"/>
<path d="M141.99 77.4064C141.99 77.4064 141.384 77.4712 141.156 76.8066C141.156 76.8066 141.813 76.8799 141.99 77.4064Z" fill="#6BB7BF"/>
<path d="M140.548 68.6208C141.772 68.3584 141.793 67.3574 141.793 67.3574C140.351 67.8129 140.548 68.6208 140.548 68.6208Z" fill="#6BB7BF"/>
<path d="M140.466 68.3909C140.466 68.3909 139.703 68.7008 139.16 67.9221C139.16 67.9221 140.041 67.7726 140.466 68.3909Z" fill="#6BB7BF"/>
<path d="M142.14 83.4805L142.298 83.6625C142.322 83.6901 142.368 83.6729 142.368 83.6363C142.359 78.4839 141.705 73.9064 141.155 71.2055C140.556 68.2579 139.948 66.5152 139.941 66.498C139.948 66.5152 140.496 68.2858 141.094 71.225C141.644 73.9304 142.274 77.466 142.114 83.4109C142.114 83.4364 142.124 83.4613 142.14 83.4805Z" fill="#6BB7BF"/>
<path d="M139.953 65.7974C140.148 65.9543 140.896 66.6227 140.171 67.1383C140.171 67.1383 139.615 67.3143 139.431 66.8862C139.29 66.5594 139.253 66.1951 139.242 66.0409C139.24 66.0007 139.27 65.9667 139.31 65.9631C139.353 65.9591 139.41 65.9496 139.467 65.9274C139.536 65.9007 139.571 65.7969 139.664 65.7741C139.722 65.7598 139.781 65.7475 139.849 65.7535C139.887 65.7568 139.923 65.7733 139.953 65.7974Z" fill="#F99746"/>
<path d="M140.366 66.9512C140.366 66.9512 140.145 67.1286 140.227 67.4119L140.229 67.5168C140.229 67.5168 140.17 67.2547 139.898 67.1736C139.898 67.1736 140.143 67.2007 140.366 66.9512Z" fill="#6BB7BF"/>
<path d="M140.551 68.6208C141.774 68.3584 141.795 67.3574 141.795 67.3574C141.795 67.3574 140.826 67.8898 140.551 68.6208Z" fill="#8AD8DB"/>
<path d="M141.727 67.9361C141.727 67.9361 142.496 68.2306 143.023 67.4412C143.023 67.4412 142.139 67.3095 141.727 67.9361Z" fill="#6BB7BF"/>
<path d="M140.352 83.0562L140.198 83.2414C140.174 83.2694 140.128 83.2531 140.128 83.2166C140.033 78.065 140.596 73.4753 141.091 70.7641C141.631 67.805 142.205 66.0505 142.21 66.0332C142.205 66.0505 141.692 67.8317 141.153 70.7823C140.657 73.4981 140.098 77.0458 140.377 82.9862C140.378 83.0116 140.369 83.0366 140.352 83.0562Z" fill="#6BB7BF"/>
<path d="M142.187 65.3317C141.995 65.4924 141.261 66.1757 141.996 66.6767C141.996 66.6767 142.555 66.8416 142.731 66.4098C142.865 66.0803 142.895 65.7153 142.902 65.5609C142.904 65.5207 142.873 65.4873 142.833 65.4843C142.79 65.4813 142.733 65.4729 142.675 65.4519C142.606 65.4266 142.569 65.3234 142.476 65.3025C142.417 65.2893 142.358 65.2782 142.29 65.2855C142.252 65.2898 142.216 65.307 142.187 65.3317Z" fill="#F99746"/>
<path d="M141.793 66.4941C141.793 66.4941 142.018 66.6671 141.942 66.952L141.941 67.0569C141.941 67.0569 141.995 66.7936 142.265 66.7071C142.265 66.7071 142.021 66.7392 141.793 66.4941Z" fill="#6BB7BF"/>
<path d="M141.395 67.0334C141.395 67.0334 140.582 67.1693 140.223 66.291C140.223 66.291 141.115 66.3373 141.395 67.0334Z" fill="#6BB7BF"/>
<path d="M139.74 82.1255L139.854 82.3376C139.872 82.3698 139.92 82.3628 139.928 82.3271C141.043 77.2968 141.402 72.6868 141.455 69.9312C141.513 66.9237 141.299 65.0904 141.297 65.0723C141.299 65.0903 141.448 66.938 141.391 69.9367C141.338 72.6969 141.181 76.2849 139.729 82.0519C139.723 82.0766 139.727 82.103 139.74 82.1255Z" fill="#6BB7BF"/>
<path d="M141.462 64.389C141.618 64.5847 142.202 65.4 141.382 65.745C141.382 65.745 140.801 65.7957 140.715 65.3377C140.649 64.9882 140.691 64.6244 140.715 64.4717C140.721 64.4318 140.758 64.4052 140.798 64.4105C140.841 64.4159 140.899 64.4192 140.959 64.4099C141.032 64.3988 141.089 64.3051 141.185 64.3031C141.244 64.3018 141.305 64.3028 141.37 64.3234C141.406 64.3351 141.438 64.359 141.462 64.389Z" fill="#F99746"/>
<path d="M141.614 65.6055C141.614 65.6055 141.36 65.7304 141.378 66.0247L141.357 66.1276C141.357 66.1276 141.356 65.8589 141.109 65.7206C141.109 65.7206 141.342 65.8005 141.614 65.6055Z" fill="#6BB7BF"/>
<path d="M140.727 66.1266C140.727 66.1266 140.727 65.4831 140.173 65.2812C140.173 65.2812 140.051 65.8181 140.727 66.1266Z" fill="#6BB7BF"/>
<path d="M142.031 65.0935C142.031 65.0935 142.015 64.6025 142.469 64.4609C142.469 64.4609 142.579 64.9179 142.031 65.0935Z" fill="#ED9F4A"/>
<path d="M140.541 68.0468C140.525 68.0611 140.304 67.5691 140.753 67.1738C140.753 67.1738 140.94 67.7003 140.541 68.0468Z" fill="#ED9F4A"/>
<path d="M140.228 68.0087C140.24 68.0121 140.231 67.7639 139.998 67.7285C139.998 67.7285 139.959 67.935 140.228 68.0087Z" fill="#6BB7BF"/>
<path d="M142.551 67.1746C142.551 67.1746 142.747 66.7676 143.377 66.8383C143.377 66.8383 143.282 67.275 142.551 67.1746Z" fill="#6BB7BF"/>
<path d="M139.069 84.0846H143.103C143.374 84.0846 143.582 83.8443 143.544 83.576L141.666 70.6341C141.648 70.5134 141.545 70.4238 141.423 70.4238H140.823C140.693 70.4238 140.583 70.519 140.564 70.6475L138.641 83.5886C138.603 83.8499 138.805 84.0846 139.069 84.0846Z" fill="#F99746"/>
<path d="M142.208 83.6923L141.211 70.4258C141.318 70.4402 141.405 70.5235 141.421 70.6332L143.299 83.575C143.338 83.8433 143.13 84.0837 142.859 84.0837H142.053C142.157 83.9902 142.219 83.8482 142.208 83.6923Z" fill="#FFB278"/>
<path d="M106.456 56.2104C106.456 56.2104 106.196 57.924 106.738 58.8133H103.289C103.289 58.8133 103.564 57.3383 103.426 56.4056C103.289 55.4728 106.456 56.2104 106.456 56.2104Z" fill="#FFB27D"/>
<path d="M103.427 56.4053C103.427 56.4053 102.371 56.8472 102.132 53.7373C101.944 51.2861 102.176 50.8523 104.713 50.78C107.115 50.7115 107.583 51.4116 107.584 52.2623C107.591 56.7523 104.382 56.1853 103.427 56.4053Z" fill="#FFB27D"/>
<path d="M105.586 49.4066C106.539 49.6737 107.899 50.4115 107.899 51.674C107.899 52.8571 107.784 54.0068 107.48 54.3016C107.177 54.5965 107.266 55.9306 105.901 55.9336C104.637 55.9364 103.351 55.1381 103.156 54.4006C102.96 53.6631 102.039 54.1806 101.848 53.4123C101.472 51.8961 101.538 51.113 102.539 50.2887C103.411 49.5708 104.502 49.1029 105.586 49.4066Z" fill="#B22929"/>
<path d="M107.584 53.8969C107.584 53.8969 107.882 53.6508 107.988 53.9544C108.094 54.2581 107.4 55.2667 107.14 54.9305C106.879 54.5943 107.584 53.8969 107.584 53.8969Z" fill="#FFB27D"/>
<path d="M114.036 63.9579V72.4161L93.5246 71.9213C92.9963 71.8946 90.9984 69.724 91.0518 69.1975L92.1385 67.48C92.6265 66.7657 93.7534 65.5946 94.048 65.3491C95.1862 64.3993 98.065 61.9352 98.3129 61.1053C98.8251 59.3928 99.4878 58.7768 100.155 58.5393C101.141 58.1881 102.272 57.955 103.421 57.8332C103.663 57.8077 103.906 57.7866 104.147 57.771C104.924 57.7201 105.697 57.7201 106.426 57.7679C108.074 57.876 109.5 58.2316 110.251 58.8135C110.95 59.3549 112.719 61.9483 114.036 63.9579Z" fill="#2B478B"/>
<path d="M104.518 48.7236C104.88 48.7631 105.246 48.748 105.606 48.692C106.309 48.5825 107.454 48.546 107.998 49.3119C110.097 52.2668 107.514 53.9497 107.9 54.9978C108.287 56.0459 110.807 57.4668 110.251 58.8128C108.871 62.1534 106.532 59.5549 104.259 58.7976C103.821 58.6516 104.035 56.3481 106.381 55.1764C107.086 54.8238 102.827 54.0705 102.132 53.7372C101.12 53.2525 101.071 52.4081 101.227 51.6036C101.483 50.2904 102.626 48.5175 104.518 48.7236Z" fill="#B22929"/>
<path d="M103.327 53.9881C103.327 53.9881 103.369 53.5933 103.05 53.6226C102.256 53.696 102.275 54.8389 102.706 54.928C103.137 55.0171 103.327 53.9881 103.327 53.9881Z" fill="#FFB27D"/>
<path d="M77.1913 52.8126C77.1913 52.8126 77.4725 54.6636 76.8867 55.6242H80.612C80.612 55.6242 80.3155 54.031 80.4638 53.0235C80.6121 52.016 77.1913 52.8126 77.1913 52.8126Z" fill="#FFB27D"/>
<path d="M78.8311 53.6843C78.8311 53.6843 81.6039 53.4999 81.8614 50.1408C82.0644 47.4931 81.8145 47.0245 79.0743 46.9464C76.4794 46.8724 75.9741 47.6286 75.9727 48.5474C75.9654 53.3974 77.7991 53.4468 78.8311 53.6843Z" fill="#FFB27D"/>
<path d="M78.1276 45.4649C77.0977 45.7535 75.629 46.5504 75.6289 47.914C75.6288 49.192 75.7533 50.4337 76.0813 50.7522C76.4093 51.0707 77.2311 53.1389 78.7055 53.142C80.0713 53.145 80.7673 52.486 80.9781 51.6894C81.189 50.8928 81.9591 50.6216 82.165 49.7916C82.5713 48.1539 82.5002 47.308 81.419 46.4177C80.4773 45.6422 79.2982 45.1369 78.1276 45.4649Z" fill="#B22929"/>
<path d="M75.9712 50.3146C75.9712 50.3146 75.6498 50.0487 75.5352 50.3767C75.4207 50.7047 76.1704 51.7942 76.4516 51.431C76.7327 51.0679 75.9712 50.3146 75.9712 50.3146Z" fill="#FFB27D"/>
<path d="M73.0907 55.6246C74.904 54.2201 80.3657 54.0356 83.9957 55.3286C84.7166 55.5853 85.4321 56.2506 85.985 58.1002C86.2531 58.9968 89.3625 61.6581 90.592 62.6839C90.91 62.9493 92.1275 64.2143 92.6549 64.9861L93.8282 66.8412C93.8861 67.4097 91.728 69.754 91.1573 69.7833L66.7625 70.3711L65.8391 66.6498C65.692 66.0574 65.8287 65.4298 66.2113 64.9543C66.7494 64.2854 67.5053 63.5068 67.6943 63.209C68.8243 61.4294 72.0523 56.4288 73.0907 55.6246Z" fill="#B64C41"/>
<path d="M78.7467 44.8305C78.7467 44.8305 76.7482 44.4597 75.5225 45.3621C74.2967 46.2646 74.0881 47.6508 73.6709 48.7829C73.2537 49.915 71.8007 50.1836 72.4013 51.6375C73.892 55.2458 79.7042 54.2547 82.1596 53.4366C82.6329 53.2789 82.1792 52.514 81.5045 52.2458C80.7126 51.9311 81.1078 50.502 81.8591 50.142C82.9519 49.6184 83.0055 48.7065 82.836 47.8374C82.5362 46.2993 81.1104 44.1772 78.7467 44.8305Z" fill="#163560"/>
<path d="M81.126 50.2444C81.126 50.2444 81.2954 49.8385 81.563 50.09C81.8306 50.3416 81.6651 51.728 81.2251 51.5248C80.7849 51.3215 81.126 50.2444 81.126 50.2444Z" fill="#FFB27D"/>
<path d="M89.4576 62.1817C89.4576 62.1817 91.6485 61.8109 92.2889 61.9795C92.9293 62.148 94.2438 63.3951 94.0079 63.9344C93.7719 64.4736 91.5811 63.5689 91.2778 63.5689C90.9744 63.5689 89.1094 63.5689 89.1094 63.5689L89.4576 62.1817Z" fill="#FFB27D"/>
<path d="M61.4531 55.6646L63.5136 57.0155L66.4914 56.4605C66.4502 56.2201 66.2536 55.2238 66.0746 54.3214C66.0637 54.2681 66.0529 54.2149 66.0428 54.1629C65.8894 53.395 65.7571 52.7354 65.7571 52.7354L62.9758 51.5083L61.9389 51.0508C61.9416 51.0669 62.0192 51.903 62.0301 52.025C62.2246 54.1922 61.4531 55.6646 61.4531 55.6646Z" fill="#FFB27D"/>
<path d="M69.1598 70.8531H56.1914C57.3798 62.8913 59.0988 55.5139 61.1487 54.9114C62.0574 54.6444 66.9197 56.2164 66.9197 56.2164C66.9197 56.2164 67.6814 58.2104 68.1816 60.7518C68.3408 61.558 68.8072 66.6016 69.1598 70.8531Z" fill="#2B478B"/>
<path d="M62.2397 52.0631C62.8504 53.0977 65.1263 53.9923 66.0755 54.3213C66.0647 54.268 66.0539 54.2148 66.0437 54.1628C65.8904 53.3949 65.758 52.7353 65.758 52.7353L62.9767 51.5082C62.3619 51.4997 61.9877 51.6373 62.2397 52.0631Z" fill="#FCA56B"/>
<path d="M66.8064 52.5669C66.8064 52.5669 62.3263 53.9644 61.4989 51.1611C60.6716 48.3578 59.5361 46.6501 62.3616 45.6393C65.187 44.6285 66.061 45.5335 66.5648 46.402C67.0685 47.2705 67.9504 52.1311 66.8064 52.5669Z" fill="#FFB27D"/>
<path d="M66.3859 46.1313C66.3859 46.1313 66.1002 49.3935 65.4256 49.2519C64.751 49.1103 64.1391 49.0053 64.2379 49.9887C64.3367 50.9721 65.2722 52.1076 63.1931 52.2815C61.114 52.4554 58.125 47.0935 58.6962 46.0782C60.3442 43.149 68.7679 42.5579 66.3859 46.1313Z" fill="#163560"/>
<path d="M65.7278 54.9831C65.67 54.9587 62.3927 53.4886 62.0094 53.6151C61.6262 53.7416 61.1484 54.9123 61.1484 54.9123L66.9193 56.217C66.9193 56.217 66.465 55.2934 65.7278 54.9831Z" fill="#163560"/>
<path d="M63.4062 55.4219C63.4062 55.4219 77.1907 60.5337 79.6849 60.6834C82.1791 60.833 87.1 61.5407 89.4593 62.1812C89.4593 62.1812 89.6696 62.5921 89.5791 62.8946C89.4279 63.4001 89.1111 63.5684 89.1111 63.5684L67.9556 63.5069L63.4062 55.4219Z" fill="#2B478B"/>
<path d="M61.1504 54.9121C61.1504 54.9121 57.8886 55.2185 57.2145 56.217C56.5404 57.2155 55.1023 63.6869 55.8663 64.2262C56.6303 64.7654 58.3994 64.7205 58.3994 64.7205L61.1504 54.9121Z" fill="#2B478B"/>
<path d="M53.8664 71.168H51.7521C49.2833 71.168 47.3894 73.3588 47.7465 75.8017L50.0357 91.4637C50.2838 93.1614 51.7399 94.4201 53.4556 94.4201H59.7423L53.8664 71.168Z" fill="#ED7D2B"/>
<path d="M127.407 71.168H129.521C131.99 71.168 133.884 73.3588 133.527 75.8017L131.238 91.4637C130.99 93.1614 129.534 94.4201 127.818 94.4201H121.531L127.407 71.168Z" fill="#ED7D2B"/>
<path d="M122.911 94.4194H58.5821C56.8813 94.4194 55.469 93.3806 55.3453 92.0383L52.9697 66.2762C52.8325 64.7884 54.3212 63.5215 56.2066 63.5215H125.153C127.033 63.5215 128.52 64.7816 128.39 66.2657L126.149 92.0278C126.032 93.3744 124.617 94.4194 122.911 94.4194Z" fill="#F99746"/>
<path d="M59.7436 94.4199L59.2602 99.7384C59.2302 100.068 59.4901 100.353 59.8216 100.353C60.0536 100.353 60.2564 100.196 60.3151 99.9719L61.7659 94.4199H59.7436Z" fill="#2A4E96"/>
<path d="M121.046 94.4199L121.529 99.7384C121.559 100.068 121.299 100.353 120.968 100.353C120.736 100.353 120.533 100.196 120.474 99.9719L119.023 94.4199H121.046Z" fill="#2A4E96"/>
<path d="M172.561 100.765H0.195001C0.0877507 100.765 0 100.678 0 100.57V100.506C0 100.398 0.0877507 100.311 0.195001 100.311H172.561C172.668 100.311 172.756 100.398 172.756 100.506V100.57C172.756 100.678 172.668 100.765 172.561 100.765Z" fill="#2E3552"/>
</svg>
