<svg width="191" height="144" viewBox="0 0 191 144" fill="none" xmlns="http://www.w3.org/2000/svg">
<g id="OBJECTS">
<g id="Group">
<path id="Vector" d="M169.426 142.588C169.426 142.588 170.314 137.67 174.085 135.422C174.085 135.422 174.085 138.847 172.32 141.442C172.32 141.442 174.465 140.508 177.095 140.438C177.095 140.438 176.034 142.004 173.26 142.588" fill="url(#paint0_linear_701_1480)"/>
<path id="Vector_2" d="M39.7108 142.588C39.7108 142.588 22.4665 129.049 21.3594 115.37C21.3594 115.37 32.1762 116.153 46.6744 131.534C46.6744 131.534 36.7356 117.536 36.5603 104.475C36.5603 104.475 47.4823 110.776 52.8142 129.128C52.8142 129.128 55.0407 112.901 59.5458 107.204C59.5458 107.204 62.6283 111.932 61.2076 130.752C61.2076 130.752 70.5755 112.901 79.7118 108.987C79.7118 108.987 76.7315 124.397 70.289 134.218C70.289 134.218 77.9048 132.774 87.9477 133.45C87.9477 133.45 84.4323 138.155 70.289 142.588" fill="url(#paint1_linear_701_1480)"/>
</g>
<g id="Group_2">
<g id="Group_3">
<g id="Group_4">
<path id="Vector_3" d="M116.937 72.0638L73.5234 65.791L64.9498 125.129L108.364 131.402L116.937 72.0638Z" fill="white"/>
<path id="Vector_4" opacity="0.5" d="M97.183 95.166L68.6016 99.8742L73.5265 65.7969L92.7314 68.5719L97.183 95.166Z" fill="url(#paint2_linear_701_1480)"/>
<path id="Vector_5" d="M116.937 72.0638L73.5234 65.791L64.9498 125.129L108.364 131.402L116.937 72.0638Z" stroke="#242548" stroke-width="0.361333" stroke-miterlimit="10" stroke-linecap="round" stroke-linejoin="round"/>
<g id="XMLID_00000028302414874242687020000004706128536567872420_">
<path id="Vector_6" d="M74.9722 120.608C73.9218 120.456 72.9491 121.183 72.7974 122.234C72.6456 123.284 73.3726 124.257 74.423 124.409C75.4702 124.56 76.4432 123.833 76.595 122.782C76.7468 121.732 76.0197 120.759 74.9722 120.608ZM75.9616 122.737C75.8962 122.873 75.7867 122.981 75.6617 123.057L74.5202 123.737L73.6147 122.761C73.5164 122.653 73.4416 122.518 73.4178 122.369C73.3152 121.753 73.941 121.2 74.5357 121.536C74.6976 121.631 74.7894 121.872 74.7894 121.872C74.7894 121.872 74.9426 121.666 75.1247 121.621C75.7907 121.467 76.2344 122.175 75.9616 122.737Z" fill="url(#paint3_linear_701_1480)"/>
<path id="Vector_7" d="M70.6332 123.86L70.4316 122.974C70.6788 122.7 70.85 122.353 70.9068 121.961C71.0585 120.91 70.3315 119.938 69.2811 119.786C68.2336 119.634 67.2577 120.361 67.1059 121.411C66.9541 122.462 67.6844 123.435 68.7319 123.586C69.125 123.643 69.5077 123.577 69.8401 123.417L70.6332 123.86ZM70.0016 121.547C70.1545 121.569 70.2607 121.711 70.2387 121.864C70.2166 122.017 70.0746 122.123 69.9218 122.101C69.7689 122.079 69.6627 121.937 69.6847 121.784C69.7068 121.631 69.8488 121.525 70.0016 121.547ZM68.0147 121.825C67.8618 121.803 67.7556 121.661 67.7776 121.508C67.7997 121.356 67.9417 121.249 68.0945 121.271C68.2474 121.293 68.3536 121.435 68.3315 121.588C68.3099 121.741 68.1675 121.848 68.0147 121.825ZM68.9664 121.963C68.8136 121.941 68.7073 121.799 68.7294 121.646C68.7514 121.493 68.8934 121.387 69.0463 121.409C69.1991 121.431 69.3053 121.573 69.2833 121.726C69.2616 121.879 69.1193 121.985 68.9664 121.963Z" fill="url(#paint4_linear_701_1480)"/>
<path id="Vector_8" d="M80.6639 121.43C79.6168 121.279 78.6408 122.005 78.4887 123.056C78.3369 124.106 79.0672 125.08 80.1147 125.231C81.1651 125.383 82.1378 124.656 82.2899 123.605C82.4417 122.555 81.7143 121.582 80.6639 121.43ZM81.6786 123.494C81.6637 123.596 81.59 123.679 81.4975 123.712C81.5084 123.749 81.5124 123.789 81.5066 123.83C81.4918 123.932 81.4213 124.015 81.3263 124.044C81.34 124.085 81.344 124.125 81.3378 124.166C81.3165 124.312 81.1781 124.416 81.0318 124.394L79.6757 124.199L79.6652 124.272C79.6605 124.304 79.6316 124.325 79.5998 124.321L79.0076 124.236C78.9758 124.231 78.9541 124.202 78.9584 124.17L79.177 122.658C79.1817 122.626 79.211 122.604 79.2428 122.608L79.835 122.694C79.8668 122.699 79.8885 122.728 79.8842 122.759L79.8639 122.9C79.9246 122.886 79.985 122.871 80.0059 122.862C80.1967 122.756 80.3246 122.456 80.4237 122.174C80.4291 122.159 80.4356 122.137 80.4388 122.115C80.4663 122.015 80.5075 121.865 80.6376 121.841C80.7044 121.828 80.7918 121.854 80.8591 121.906C80.944 121.97 80.9953 122.065 81.0083 122.177C81.0191 122.306 80.996 122.578 80.9346 122.755L81.5011 122.837C81.6475 122.858 81.7512 122.996 81.7299 123.143C81.7208 123.206 81.6861 123.266 81.6377 123.308C81.6713 123.363 81.688 123.43 81.6786 123.494Z" fill="url(#paint5_linear_701_1480)"/>
</g>
<g id="Group_5">
<g id="Group_6">
<path id="Vector_9" d="M114.242 76.068C114.267 75.8924 114.43 75.771 114.605 75.7963C114.78 75.8216 114.902 75.9845 114.877 76.1598C114.852 76.335 114.689 76.4568 114.513 76.4315C114.338 76.4062 114.216 76.2436 114.242 76.068Z" fill="white"/>
<path id="Vector_10" d="M112.976 75.8864C113.001 75.7108 113.164 75.5894 113.339 75.6147C113.515 75.64 113.637 75.8026 113.611 75.9782C113.586 76.1538 113.423 76.2752 113.248 76.2499C113.072 76.2246 112.951 76.062 112.976 75.8864Z" fill="white"/>
<path id="Vector_11" d="M111.71 75.7028C111.736 75.5272 111.899 75.4058 112.074 75.4311C112.249 75.4564 112.371 75.619 112.346 75.7946C112.32 75.9698 112.157 76.0916 111.982 76.0663C111.807 76.041 111.685 75.8784 111.71 75.7028Z" fill="white"/>
</g>
</g>
<g id="Group_7">
<path id="Vector_12" d="M79.4698 71.7136C79.382 72.321 79.0936 72.8489 78.6803 73.241C78.117 73.775 77.3238 74.0558 76.496 73.9362C75.6686 73.8166 74.9871 73.3227 74.5983 72.6509C74.3132 72.1581 74.1856 71.5702 74.2735 70.9628C74.4809 69.5279 75.812 68.5328 77.2469 68.7402C78.6824 68.9476 79.6772 70.2788 79.4698 71.7136Z" fill="url(#paint6_linear_701_1480)"/>
<path id="Vector_13" d="M91.0041 73.4359L81.6069 72.078C81.3421 72.0397 81.1582 71.794 81.1965 71.5288C81.2348 71.2639 81.4805 71.08 81.7457 71.1183L91.1429 72.4762C91.4077 72.5145 91.5916 72.7602 91.5533 73.0251C91.515 73.2907 91.2693 73.4742 91.0041 73.4359Z" fill="url(#paint7_linear_701_1480)"/>
<path id="Vector_14" d="M85.4794 74.0351L81.1777 73.4136C81.0422 73.394 80.9479 73.2679 80.9674 73.1324L80.975 73.08C80.9945 72.9442 81.1206 72.8502 81.2561 72.8698L85.5578 73.4912C85.6936 73.5108 85.7876 73.6369 85.7681 73.7724L85.7605 73.8248C85.741 73.9606 85.6152 74.0549 85.4794 74.0351Z" fill="url(#paint8_linear_701_1480)"/>
<path id="Vector_15" d="M88.8248 74.5174L86.5527 74.189C86.4168 74.1694 86.3229 74.0433 86.3424 73.9078L86.35 73.8554C86.3695 73.7196 86.4956 73.6256 86.6311 73.6451L88.9032 73.9736C89.039 73.9931 89.133 74.1192 89.1135 74.2547L89.1059 74.3071C89.0864 74.4426 88.9606 74.5369 88.8248 74.5174Z" fill="url(#paint9_linear_701_1480)"/>
<path id="Vector_16" d="M100.65 78.7499L80.8488 75.8885C80.6985 75.8668 80.5945 75.7273 80.6161 75.5773C80.6378 75.427 80.7773 75.323 80.9272 75.3447L100.728 78.206C100.878 78.2277 100.982 78.3672 100.961 78.5172C100.939 78.6675 100.8 78.7715 100.65 78.7499Z" fill="url(#paint10_linear_701_1480)"/>
</g>
<g id="Group_8">
<path id="Vector_17" d="M88.6475 124.8L84.6652 124.224C84.5149 124.203 84.4109 124.063 84.4325 123.913C84.4542 123.763 84.5937 123.659 84.7436 123.681L88.7259 124.256C88.8762 124.278 88.9803 124.417 88.9586 124.567C88.9373 124.718 88.7978 124.822 88.6475 124.8Z" fill="url(#paint11_linear_701_1480)"/>
<path id="Vector_18" d="M98.2482 126.188L90.3332 125.045C90.1829 125.023 90.0788 124.884 90.1005 124.734C90.1222 124.583 90.2617 124.479 90.4116 124.501L98.3266 125.645C98.4769 125.666 98.581 125.806 98.5593 125.956C98.5376 126.106 98.3982 126.21 98.2482 126.188Z" fill="url(#paint12_linear_701_1480)"/>
</g>
<g id="Group_9" opacity="0.2">
<path id="Vector_19" d="M108.14 122.871L67.5859 117.011L73.4464 76.457L114 82.3175L108.14 122.871Z" fill="url(#paint13_linear_701_1480)"/>
</g>
</g>
<g id="Group_10">
<path id="Vector_20" d="M108.316 108.92C104.421 116.394 97.0514 120.117 88.593 118.895L88.4679 118.877C80.6519 117.705 76.8211 113.623 74.9808 110.409C72.3615 105.822 72.0482 99.9837 74.1414 94.7874C75.986 90.2173 79.836 86.708 84.705 85.1619C89.7973 83.5416 95.1811 84.3134 99.8673 87.3317C103.267 89.5231 105.411 92.6689 106.07 96.4351C106.802 100.631 105.594 105.542 102.992 108.949C98.6297 114.659 90.8578 115.43 85.4356 113.241C79.6839 110.916 76.6863 105.752 77.418 99.4302C78.1233 94.5497 81.393 90.7289 86.1648 89.2019C90.8918 87.6926 95.868 88.8915 99.1562 92.3365C101.683 94.9789 102.546 98.9655 101.412 102.74C100.329 106.342 97.691 108.946 94.3533 109.708C91.1852 110.431 85.1408 109.943 82.4105 105.556C80.605 102.651 80.6386 99.0548 82.5034 96.1724C84.3932 93.2424 87.686 91.784 91.3105 92.2715C94.71 92.7202 97.1313 94.8131 97.7784 97.8548C98.3894 100.727 97.1435 103.678 94.6774 105.195C92.5611 106.498 89.0327 106.143 86.9767 104.422C85.6633 103.321 84.9959 101.594 85.1939 99.8038C85.3803 98.094 86.3097 96.683 87.7445 95.9368C89.3987 95.0797 91.3669 95.1578 92.8827 96.1421C94.1011 96.9345 94.7812 98.1746 94.7017 99.4595C94.6345 100.512 94.2641 101.352 93.6274 101.891C93.029 102.397 92.2009 102.623 91.295 102.526C89.7543 102.367 89.0504 101.272 88.9294 100.386C88.7921 99.4251 89.2643 98.5521 90.0965 98.2139C90.2511 98.1514 90.4256 98.2251 90.4885 98.3798C90.5514 98.5344 90.4773 98.709 90.3227 98.7718C89.7391 99.0063 89.4247 99.6076 89.5241 100.305C89.6155 100.974 90.1528 101.795 91.36 101.931C92.099 102.007 92.7682 101.831 93.2419 101.431C93.7571 100.995 94.0462 100.321 94.1004 99.4208C94.1662 98.3556 93.5906 97.3189 92.555 96.6472C91.2202 95.7771 89.484 95.7114 88.0228 96.472C86.7689 97.1227 85.9552 98.3624 85.7923 99.8692C85.617 101.459 86.2038 102.989 87.363 103.958C89.2076 105.503 92.4773 105.842 94.3635 104.681C96.6131 103.297 97.7491 100.604 97.1902 97.9791C96.5994 95.1975 94.3696 93.2933 91.231 92.8673C87.8443 92.4142 84.7701 93.7706 83.0064 96.4972C81.2731 99.1827 81.2384 102.533 82.9211 105.239C85.4858 109.362 91.2115 109.81 94.2193 109.124C97.3437 108.41 99.817 105.959 100.836 102.566C101.907 98.998 101.099 95.238 98.7229 92.7509C95.5952 89.4751 90.8534 88.3347 86.3491 89.7757C81.8002 91.2286 78.6845 94.868 78.0138 99.5079C77.3157 105.537 80.1739 110.468 85.6622 112.682C90.8715 114.789 98.3345 114.055 102.513 108.587C105.019 105.305 106.182 100.576 105.477 96.5421C104.85 92.9446 102.794 89.9362 99.5421 87.8386C95.012 84.919 89.8063 84.1729 84.8864 85.736C80.1894 87.2283 76.476 90.6115 74.7008 95.0154C72.6719 100.042 72.974 105.684 75.5037 110.112C77.2756 113.21 80.9818 117.146 88.5568 118.284L88.679 118.302C96.8758 119.486 104.01 115.881 107.786 108.641C111.608 101.312 110.592 92.6053 105.262 86.9805C100.241 81.6822 92.5814 79.4488 85.2756 81.1532C78.803 82.6622 73.6222 87.0173 71.0625 92.984L71.3476 91.0122C74.1891 85.7631 79.1184 81.9698 85.1386 80.5686C92.6518 78.8154 100.532 81.1142 105.699 86.5667C111.204 92.3766 112.26 101.359 108.316 108.92Z" fill="url(#paint14_linear_701_1480)"/>
</g>
</g>
<g id="Group_11">
<g id="Group_12">
<path id="Vector_21" d="M83.4246 21.1358L31.4023 29.8281L43.283 100.932L95.3053 92.2395L83.4246 21.1358Z" fill="white"/>
<path id="Vector_22" d="M83.4246 21.1358L31.4023 29.8281L43.283 100.932L95.3053 92.2395L83.4246 21.1358Z" stroke="#242548" stroke-width="0.361333" stroke-miterlimit="10" stroke-linecap="round" stroke-linejoin="round"/>
<g id="XMLID_00000008118674174174683220000005492771862651066295_">
<path id="Vector_23" d="M53.1126 92.0846C51.8537 92.2949 51.0053 93.4834 51.2156 94.7422C51.4259 96.0011 52.6147 96.8495 53.8732 96.6392C55.1281 96.4297 55.9765 95.2409 55.7662 93.982C55.5563 92.7231 54.3675 91.8747 53.1126 92.0846ZM55.024 94.1609C54.9995 94.3415 54.9131 94.5048 54.7978 94.6378L53.7391 95.8342L52.3451 95.0476C52.193 94.9594 52.0582 94.8326 51.9762 94.67C51.6333 94.0019 52.1478 93.1394 52.9522 93.307C53.1722 93.3565 53.3655 93.5986 53.3655 93.5986C53.3655 93.5986 53.466 93.3074 53.6578 93.1892C54.3642 92.7694 55.131 93.4176 55.024 94.1609Z" fill="url(#paint15_linear_701_1480)"/>
<path id="Vector_24" d="M49.3306 97.3988L48.7756 96.4564C48.9588 96.0532 49.0282 95.5928 48.9498 95.1224C48.7395 93.8635 47.5507 93.0151 46.2922 93.2254C45.0373 93.4349 44.1849 94.6244 44.3952 95.883C44.6055 97.1419 45.7979 97.9895 47.0528 97.78C47.524 97.7012 47.9377 97.4851 48.26 97.1798L49.3306 97.3988ZM47.761 94.98C47.9442 94.9493 48.1176 95.0732 48.1483 95.2564C48.179 95.4396 48.0551 95.6131 47.8719 95.6438C47.6887 95.6745 47.5153 95.5505 47.4846 95.3673C47.4542 95.1841 47.5782 95.0107 47.761 94.98ZM45.5872 96.0253C45.404 96.056 45.2306 95.9321 45.1998 95.7489C45.1691 95.5657 45.2931 95.3923 45.4763 95.3616C45.6595 95.3309 45.8329 95.4548 45.8636 95.638C45.894 95.8212 45.77 95.995 45.5872 96.0253ZM46.7276 95.8349C46.5444 95.8656 46.3709 95.7417 46.3402 95.5585C46.3095 95.3753 46.4334 95.2019 46.6166 95.1711C46.7998 95.1404 46.9733 95.2644 47.004 95.4476C47.0347 95.6308 46.9108 95.8042 46.7276 95.8349Z" fill="url(#paint16_linear_701_1480)"/>
<path id="Vector_25" d="M59.9328 90.9461C58.6779 91.1556 57.8255 92.3451 58.0358 93.6037C58.2461 94.8625 59.4385 95.7102 60.6934 95.5007C61.9523 95.2904 62.8007 94.1016 62.5904 92.8431C62.3801 91.5842 61.1917 90.7358 59.9328 90.9461ZM61.8497 92.9392C61.8703 93.0613 61.8161 93.1841 61.7221 93.2546C61.7481 93.2933 61.7673 93.3374 61.7756 93.3869C61.7958 93.509 61.746 93.6311 61.6473 93.6983C61.678 93.7402 61.6968 93.784 61.7051 93.8338C61.7344 94.0094 61.6137 94.1785 61.4381 94.2078L59.8132 94.4792L59.828 94.567C59.8345 94.6053 59.8089 94.6407 59.7709 94.6472L59.0613 94.7657C59.0233 94.7722 58.9875 94.7466 58.981 94.7086L58.6782 92.8969C58.6717 92.8586 58.6974 92.8232 58.7353 92.8167L59.445 92.6982C59.4833 92.6917 59.5187 92.7173 59.5252 92.7552L59.5534 92.9233C59.6177 92.885 59.6817 92.847 59.7023 92.8279C59.8822 92.6371 59.9187 92.2465 59.9295 91.8881C59.9303 91.8682 59.9295 91.8411 59.9252 91.8143C59.9201 91.6897 59.9122 91.5029 60.0528 91.4284C60.1247 91.389 60.2338 91.3865 60.3299 91.4212C60.4506 91.4638 60.5442 91.5538 60.6002 91.6781C60.6594 91.8212 60.7324 92.1421 60.727 92.3665L61.406 92.253C61.5816 92.2237 61.7507 92.3444 61.7799 92.52C61.7926 92.5963 61.7749 92.6776 61.7348 92.7433C61.7937 92.7917 61.837 92.8629 61.8497 92.9392Z" fill="url(#paint17_linear_701_1480)"/>
</g>
<g id="Group_13">
<g id="Group_14">
<path id="Vector_26" d="M81.8178 26.7053C81.7828 26.495 81.9248 26.2962 82.1347 26.2612C82.345 26.2261 82.5437 26.3681 82.5788 26.5784C82.6138 26.7887 82.4718 26.9875 82.2619 27.0225C82.0516 27.0576 81.8529 26.9155 81.8178 26.7053Z" fill="white"/>
<path id="Vector_27" d="M80.3022 26.9592C80.2671 26.7489 80.4091 26.5501 80.6191 26.5151C80.829 26.48 81.0281 26.622 81.0632 26.832C81.0982 27.0423 80.9562 27.241 80.7463 27.276C80.5363 27.3111 80.3372 27.1695 80.3022 26.9592Z" fill="white"/>
<path id="Vector_28" d="M78.7905 27.2111C78.7554 27.0008 78.8974 26.8021 79.1074 26.767C79.3177 26.732 79.5164 26.874 79.5514 27.0843C79.5865 27.2946 79.4445 27.4933 79.2346 27.5284C79.0246 27.5634 78.8259 27.4214 78.7905 27.2111Z" fill="white"/>
</g>
</g>
<g id="Group_15">
<path id="Vector_29" d="M40.3717 34.4391C40.4931 35.1672 40.3558 35.8773 40.0259 36.4774C39.5761 37.2951 38.7699 37.9069 37.7784 38.0727C36.7869 38.2382 35.8254 37.9217 35.1346 37.2948C34.6276 36.8344 34.2666 36.2075 34.1452 35.4798C33.858 33.7602 35.0186 32.1338 36.7381 31.8466C38.4577 31.5586 40.0845 32.7196 40.3717 34.4391Z" fill="url(#paint18_linear_701_1480)"/>
<path id="Vector_30" d="M54.217 32.193L42.9564 34.0741C42.6388 34.1272 42.3385 33.9126 42.2854 33.5953C42.2323 33.2777 42.4469 32.9775 42.7642 32.9243L54.0248 31.0432C54.3424 30.9901 54.6426 31.2044 54.6958 31.522C54.7489 31.8396 54.5346 32.1399 54.217 32.193Z" fill="url(#paint19_linear_701_1480)"/>
<path id="Vector_31" d="M48.1064 34.9001L42.952 35.7611C42.7894 35.7882 42.6354 35.6784 42.6083 35.5158L42.5979 35.4529C42.5708 35.2903 42.6806 35.1364 42.8432 35.1093L47.9976 34.2482C48.1602 34.2211 48.3142 34.331 48.3413 34.4936L48.3517 34.5565C48.3785 34.7191 48.2686 34.873 48.1064 34.9001Z" fill="url(#paint20_linear_701_1480)"/>
<path id="Vector_32" d="M52.1082 34.2302L49.3856 34.6851C49.223 34.7122 49.069 34.6023 49.0419 34.4397L49.0315 34.3769C49.0044 34.2143 49.1142 34.0603 49.2768 34.0332L51.9995 33.5783C52.1621 33.5512 52.316 33.6611 52.3431 33.8237L52.3536 33.8865C52.3807 34.0491 52.2708 34.2031 52.1082 34.2302Z" fill="url(#paint21_linear_701_1480)"/>
<path id="Vector_33" d="M67.2022 34.7541L43.4749 38.7179C43.2949 38.7479 43.1247 38.6265 43.0944 38.4465C43.0644 38.2666 43.1858 38.0964 43.3658 38.066L67.0931 34.1022C67.273 34.0722 67.4432 34.1936 67.4732 34.3736C67.5039 34.5539 67.3821 34.7241 67.2022 34.7541Z" fill="url(#paint22_linear_701_1480)"/>
</g>
<g id="Group_16">
<path id="Vector_34" d="M70.3017 91.8888L65.5296 92.6859C65.3496 92.7159 65.1794 92.5945 65.1491 92.4146C65.1191 92.2346 65.2405 92.0644 65.4204 92.0341L70.1926 91.237C70.3725 91.207 70.5427 91.3284 70.5727 91.5083C70.6034 91.6886 70.4816 91.8588 70.3017 91.8888Z" fill="url(#paint23_linear_701_1480)"/>
<path id="Vector_35" d="M81.8111 89.9666L72.3264 91.551C72.1465 91.581 71.9763 91.4596 71.946 91.2797C71.916 91.0997 72.0374 90.9295 72.2173 90.8995L81.702 89.3151C81.8819 89.2851 82.0521 89.4065 82.0824 89.5865C82.1128 89.7664 81.991 89.9366 81.8111 89.9666Z" fill="url(#paint24_linear_701_1480)"/>
</g>
<g id="Group_17" opacity="0.2">
<path id="Vector_36" d="M91.9329 82.5531L43.3372 90.6716L35.2188 42.0755L83.8148 33.957L91.9329 82.5531Z" fill="url(#paint25_linear_701_1480)"/>
</g>
</g>
<g id="Group_18">
<path id="Vector_37" d="M87.0302 66.5087C85.3023 76.4945 78.2223 83.4546 68.0866 85.1478L67.937 85.1727C58.5553 86.6885 52.6746 83.4141 49.3912 80.4056C44.7133 76.1097 42.2194 69.5363 42.7166 62.8188C43.1582 56.9092 46.2848 51.4816 51.2965 47.9297C56.5369 44.2116 62.9863 43.1269 69.4578 44.8703C74.1537 46.1375 77.7605 48.9566 79.8917 53.0296C82.2653 57.5675 82.6779 63.6347 80.9432 68.4892C78.0344 76.6243 69.4141 80.3503 62.4024 79.8257C54.9637 79.266 49.6419 74.4476 48.1677 66.9384C47.1906 61.0898 49.5386 55.5177 54.4462 52.0236C59.3087 48.5664 65.4474 48.1198 70.4739 50.8626C74.3347 52.9652 76.7813 57.2163 76.8623 61.9541C76.9399 66.4766 74.8702 70.4234 71.3259 72.5173C67.9615 74.5043 60.8595 76.1563 56.1275 72.1293C52.9966 69.4615 51.72 65.3301 52.8022 61.3467C53.8956 57.2991 57.1335 54.4247 61.4637 53.6572C65.5218 52.928 69.0603 54.4395 70.9143 57.6871C72.665 60.7541 72.3163 64.5893 70.0464 67.2289C68.0988 69.4959 63.9272 70.3797 60.943 69.1598C59.0359 68.3794 57.6397 66.6453 57.2119 64.5225C56.7999 62.4958 57.3488 60.5395 58.7193 59.1603C60.3005 57.5737 62.5838 56.9432 64.6799 57.5162C66.3652 57.9784 67.5977 59.1498 67.9767 60.6508C68.2849 61.8815 68.1679 62.9781 67.6356 63.8291C67.1352 64.6269 66.2694 65.1891 65.1959 65.4088C63.373 65.7904 62.1661 64.7938 61.7036 63.8237C61.1948 62.7729 61.4163 61.6004 62.246 60.9084C62.4002 60.7802 62.6272 60.8008 62.7558 60.955C62.8841 61.1093 62.8635 61.3363 62.7092 61.4645C62.1267 61.9465 61.9862 62.7501 62.3554 63.5129C62.7049 64.2457 63.6208 64.9904 65.0528 64.7035C65.9272 64.5207 66.6289 64.0737 67.0257 63.4435C67.4567 62.7559 67.5406 61.8775 67.2736 60.8268C66.9596 59.5823 65.9207 58.6057 64.4888 58.2147C62.6416 57.7063 60.6286 58.266 59.2335 59.6716C58.0353 60.8755 57.5566 62.593 57.9208 64.3787C58.3016 66.2641 59.5331 67.8019 61.2158 68.4881C63.8936 69.583 67.7628 68.7754 69.499 66.7562C71.5694 64.348 71.886 60.8477 70.2856 58.0452C68.5913 55.0751 65.3411 53.7096 61.5901 54.369C57.545 55.0888 54.5196 57.7666 53.4966 61.535C52.4936 65.2452 53.6791 69.0952 56.5962 71.579C61.042 75.3643 67.7642 73.7835 70.9588 71.898C74.2762 69.9371 76.2133 66.2247 76.1392 61.9657C76.0615 57.4873 73.7609 53.4754 70.1295 51.4957C65.3491 48.8872 59.5002 49.315 54.8675 52.6129C50.1883 55.9408 47.9505 61.2492 48.8792 66.809C50.2844 73.9706 55.3615 78.5737 62.4581 79.1026C69.1958 79.611 77.4758 76.0407 80.2624 68.2482C81.9321 63.5733 81.535 57.7305 79.2528 53.3678C77.2178 49.4766 73.7638 46.7821 69.2714 45.5691C63.0145 43.8813 56.7786 44.9306 51.7149 48.5205C46.8803 51.9474 43.8639 57.1809 43.4415 62.8748C42.9555 69.3741 45.3652 75.7271 49.8826 79.8741C53.0453 82.7749 58.7302 85.9279 67.8228 84.4605L67.9691 84.4359C77.7912 82.7951 84.6443 76.0562 86.322 66.383C88.0195 56.5891 83.6716 46.9884 75.5098 42.4942C67.8203 38.2615 58.2297 38.5047 50.4849 43.1287C43.6225 47.224 39.2811 54.1074 38.5313 61.8782L38.1367 59.5155C39.4718 52.4637 43.7309 46.316 50.1142 42.5093C58.0791 37.7535 67.9467 37.5045 75.8585 41.8611C84.2887 46.5028 88.7823 56.4055 87.0302 66.5087Z" fill="url(#paint26_linear_701_1480)"/>
</g>
</g>
</g>
<g id="Group_19">
<g id="Group_20">
<path id="Vector_38" d="M126.045 112.631C126.004 112.631 125.963 112.631 125.922 112.631L125.923 111.909C125.964 111.909 126.005 111.909 126.045 111.909C129.807 111.909 133.971 111.617 137.19 111.361L137.247 112.082C134.016 112.338 129.832 112.631 126.045 112.631Z" fill="url(#paint27_linear_701_1480)"/>
<path id="Vector_39" d="M133.342 94.9577L132.394 94.9512C131.177 94.9433 129.918 94.935 128.699 94.9082L128.715 94.1855C129.928 94.2123 131.184 94.2206 132.398 94.2285L133.347 94.235L133.342 94.9577Z" fill="url(#paint28_linear_701_1480)"/>
</g>
<g id="Group_21">
<path id="Vector_40" d="M125.917 50.5344C124.253 50.2565 122.781 48.9431 122.415 47.2958C122.048 45.6488 122.876 43.7818 124.388 43.0331C123.783 42.6881 123.432 41.9466 123.55 41.2604C123.667 40.5742 124.244 39.9911 124.929 39.8668C123.757 38.3127 124.276 35.5449 127.632 35.4065C126.992 32.2929 130.918 30.9783 132.296 32.5772C132.605 32.0421 133.097 31.8611 133.599 31.8343C134.248 31.7996 134.758 32.1631 134.847 32.6379C135.923 31.9814 137.006 32.0161 138.059 32.325C139.113 32.634 140.034 33.5077 140.202 34.5924C141.202 34.6899 142.206 35.1409 142.782 35.9647C143.358 36.7886 143.401 38.0088 142.732 38.76C143.328 39.3562 143.859 40.0695 143.998 40.9005C144.136 41.7316 143.777 42.6895 143.005 43.0263C143.595 43.5607 144.133 44.2277 144.223 45.0187C144.313 45.8096 143.784 46.7064 142.99 46.7632C143.216 46.834 143.37 47.0866 143.328 47.3203C143.287 47.5541 143.055 47.738 142.818 47.7261C143.63 48.5001 144.036 49.6788 143.873 50.7884C143.71 51.8984 142.981 52.9102 141.981 53.4171C141.204 53.8106 140.312 53.9028 139.442 53.9454C135.422 54.1423 131.358 53.4139 127.656 51.8316" fill="black"/>
<path id="Vector_41" d="M128.697 51.3694C128.697 51.3694 128.014 51.1858 127.473 50.9065C126.731 50.5231 125.824 49.8821 124.43 49.9858C120.547 50.2749 112.722 60.4027 112.801 60.8572C112.881 61.3118 115.441 64.3896 116.176 64.3087C116.911 64.2278 126.298 57.0235 126.711 56.4367C127.124 55.8502 128.697 51.3694 128.697 51.3694Z" fill="url(#paint29_linear_701_1480)"/>
<path id="Vector_42" d="M116.94 60.5649C116.532 61.714 114.765 60.9696 113.262 60.0699C114.017 58.9751 115.643 56.9263 117.507 54.957C117.522 56.4024 117.468 59.0943 116.94 60.5649Z" fill="black"/>
<path id="Vector_43" d="M113.316 122.912L110.949 135.92C110.949 135.92 115.47 137.166 118.191 136.658L121.42 124.665" fill="url(#paint30_linear_701_1480)"/>
<path id="Vector_44" d="M144.527 122.772L150.64 134.218C150.64 134.218 154.816 132.086 156.481 129.874L151.19 118.146" fill="url(#paint31_linear_701_1480)"/>
<path id="Vector_45" d="M144.762 103.839L142.41 88.0636C142.41 88.0636 143.379 79.2782 137.705 74.3301L123.554 74.6824C123.554 74.6824 121.756 75.817 120.372 82.39C119.509 87.3287 117.656 95.5349 116.186 103.561C114.198 114.426 112.641 124.801 112.641 124.801C114.457 126.257 122.068 127.503 124.598 126.324L127.326 105.984L130.544 90.0333L130.984 90.2587L134.245 105.223L140.891 125.725C144.762 126.119 150.574 124.043 152.858 121.4L144.762 103.839Z" fill="url(#paint32_linear_701_1480)"/>
<path id="Vector_46" d="M113.352 123.695C113.352 123.695 118.195 125.84 124.042 125.079" stroke="black" stroke-width="0.361333" stroke-miterlimit="10" stroke-linecap="round" stroke-linejoin="round"/>
<path id="Vector_47" d="M141.414 124.468C141.414 124.468 147.688 124.387 151.793 120.65" stroke="black" stroke-width="0.361333" stroke-miterlimit="10" stroke-linecap="round" stroke-linejoin="round"/>
<path id="Vector_48" d="M131.164 51.9095C131.164 51.9095 129.115 51.2978 127.032 50.668C127.032 50.668 124.729 53.3075 122.368 55.9507C120.275 58.2935 120.924 61.1694 121.332 62.7242C121.849 64.6931 123.558 74.6807 123.558 74.6807C123.558 74.6807 129.838 76.6377 137.709 74.3284C137.709 74.3284 137.389 71.6343 137.564 68.3321C137.674 66.2736 139.273 63.1708 139.964 61.1452C141.766 55.8697 142.09 52.8667 142.09 52.8667L136.871 52.4941L131.164 51.9095Z" fill="url(#paint33_linear_701_1480)"/>
<path id="Vector_49" d="M137.923 55.3691C137.923 55.3691 135.933 61.0081 137.49 62.0307C139.347 63.2505 140.966 58.396 140.966 58.396" fill="black"/>
<path id="Vector_50" d="M132.163 44.9863C132.163 44.9863 131.404 49.2486 130.664 51.9767C130.664 51.9767 131.675 54.2166 136.877 52.8489L136.602 45.3101L132.163 44.9863Z" fill="url(#paint34_linear_701_1480)"/>
<path id="Vector_51" d="M136.614 45.4866L135.989 46.3141C135.989 46.3141 135.129 48.9952 131.184 49.8732C131.722 47.4776 132.166 44.9844 132.166 44.9844L136.607 45.3096L136.614 45.4866Z" fill="black"/>
<path id="Vector_52" d="M129.712 35.8772C128.142 38.0803 125.673 43.1986 127.882 46.5438C130.091 49.889 137.01 48.4152 139.306 43.0725C142.587 35.4357 132.741 31.6276 129.712 35.8772Z" fill="url(#paint35_linear_701_1480)"/>
<g id="Group_22">
<path id="Vector_53" d="M119.284 45.9444L114.205 44.8214C113.567 44.6805 113.165 44.0492 113.305 43.4115L115.737 32.4158C115.877 31.778 116.509 31.3755 117.146 31.5164L122.226 32.6394C122.863 32.7803 123.266 33.4116 123.125 34.0493L120.694 45.0454C120.553 45.6828 119.922 46.0854 119.284 45.9444Z" fill="black"/>
<path id="Vector_54" d="M117.591 32.9538C117.526 33.2494 117.233 33.4362 116.938 33.3708C116.642 33.3054 116.455 33.0127 116.521 32.7171C116.586 32.4216 116.879 32.2348 117.175 32.3002C117.47 32.3652 117.657 32.6579 117.591 32.9538Z" fill="white"/>
<path id="Vector_55" d="M117.104 34.0807C117.067 34.2498 116.899 34.3568 116.73 34.3192C116.561 34.2816 116.454 34.1143 116.492 33.9452C116.529 33.7761 116.697 33.6692 116.866 33.7067C117.035 33.744 117.142 33.9113 117.104 34.0807Z" fill="white"/>
</g>
<path id="Vector_56" d="M119.222 38.5325C118.393 38.6593 115.153 39.2313 115.153 39.2313C115.153 39.2313 117.268 36.4548 117.564 35.9298C118.044 35.0803 117.386 34.6008 116.818 35.0326C116.818 35.0326 113.098 38.1766 112.605 39.1218C112.112 40.0671 111.413 45.2663 111.413 45.2663C111.413 45.2663 109.091 57.4454 111.5 62.395C112.207 63.8464 113.909 65.2065 116.231 64.2876C118.552 63.3687 114.618 46.2112 114.618 46.2112C114.618 46.2112 115.632 45.2179 115.536 43.8893C115.536 43.8893 118.171 43.7866 118.646 43.6016C119.252 43.3653 119.202 42.6503 118.646 42.6564C117.711 42.6665 115.399 42.5588 115.399 42.5588C115.399 42.5588 118.904 41.843 119.29 41.6291C119.828 41.331 119.958 40.5141 119.15 40.5415C118.342 40.569 115.386 40.944 115.386 40.944C115.386 40.944 119.403 39.7072 119.624 39.6151C120.044 39.4398 120.342 38.3612 119.222 38.5325Z" fill="url(#paint36_linear_701_1480)"/>
<path id="Vector_57" d="M118.692 134.855L114.834 135.309C114.834 135.309 113.163 133.045 110.379 132.785L109.785 135.309L106.519 136.355C106.519 136.355 98.3522 133.834 98.5748 142.59H119.474C119.474 142.59 120.657 137.89 118.692 134.855Z" fill="url(#paint37_linear_701_1480)"/>
<path id="Vector_58" d="M119.681 141.338C120.04 141.696 119.79 142.588 119.79 142.588H98.5658C98.3367 142.123 98.3482 141.524 98.6019 141.338H119.681Z" fill="black"/>
<path id="Vector_59" d="M155.507 127.701L152.376 130.338C152.376 130.338 149.932 129.416 147.749 130.267L149.263 132.933L147.678 134.733C147.678 134.733 138.607 133.451 140.129 142.59H151.995L161.371 134.219C161.371 134.219 159.884 128.731 155.507 127.701Z" fill="url(#paint38_linear_701_1480)"/>
<path id="Vector_60" d="M161.765 133.905L151.997 142.589H139.824C139.748 142.148 139.663 141.571 139.986 141.339H150.895L160.788 132.678C161.55 133.02 161.765 133.905 161.765 133.905Z" fill="black"/>
<path id="Vector_61" d="M140.701 52.7681C142.77 52.6698 143.459 53.2624 144.489 55.2418C145.688 57.5474 149.24 65.7121 148.963 67.9722C148.549 71.3525 139.773 79.5042 139.773 79.5042L136.883 77.191L142.274 67.6496C142.274 67.6496 138.123 60.4077 137.754 57.4553C137.385 54.5035 139.456 52.8273 140.701 52.7681Z" fill="url(#paint39_linear_701_1480)"/>
<path id="Vector_62" d="M141.897 39.836L141.792 42.8242C141.792 42.8242 138.124 48.3815 136.679 46.4845C136.285 45.9642 136.18 45.4294 136.235 44.9236C137.991 45.0031 139.891 41.0826 137.806 40.5442C136.925 40.3166 136.065 41.0898 135.577 42.0474C135.346 41.8631 135.172 41.5957 135.114 41.2199C134.872 39.6264 135.566 38.799 135.566 38.799C135.566 38.799 134.457 39.3157 133.777 38.799C133.098 38.2787 133.29 37.4837 133.29 37.4837C133.29 37.4837 131.62 38.6255 130.03 37.8993C128.437 37.173 128.704 35.7168 128.704 35.7168L129.546 33.5054C129.546 33.5054 130.789 33.2272 131.931 33.0213C133.073 32.8117 133.456 32.9851 134.666 33.1224C135.877 33.2633 136.014 33.3645 137.665 33.7475C139.317 34.1269 138.229 33.9535 140.856 36.6888C143.487 39.4205 141.897 39.836 141.897 39.836Z" fill="black"/>
<path id="Vector_63" d="M136.185 76.4609L140.706 79.9666L139.827 80.7225L135.531 77.5594L136.185 76.4609Z" fill="black"/>
<path id="Vector_64" d="M130.993 90.2592L130.025 85.0643L128.18 84.4648L129.678 85.3295L130.553 90.0337L130.993 90.2592Z" fill="black"/>
</g>
<g id="Group_23">
<path id="Vector_65" d="M150.381 118.99C149.969 120.063 149.42 121.208 148.885 122.321C147.559 125.078 146.19 127.933 146.75 129.982L146.052 130.169C145.42 127.861 146.851 124.887 148.235 122.007C148.762 120.909 149.304 119.778 149.706 118.73C150.493 116.685 150.294 114.813 149.229 113.505C149.225 113.501 149.225 113.501 149.225 113.501L148.499 111.926C150.764 113.335 151.505 116.056 150.381 118.99Z" fill="url(#paint40_linear_701_1480)"/>
<path id="Vector_66" d="M131.842 101.842C124.435 103.429 116.041 105.228 115.264 108.285C115.196 108.559 115.178 108.816 115.214 109.051C115.141 109.466 115.069 109.878 115.001 110.287C114.502 109.669 114.357 108.935 114.563 108.108C115.449 104.617 123.705 102.847 131.691 101.134C137.537 99.8839 144.16 98.4638 143.813 96.7511C143.788 96.6355 143.737 96.5235 143.662 96.4223L143.503 95.3672C144.077 95.6888 144.42 96.1079 144.521 96.6066C145.013 99.0203 139.199 100.267 131.842 101.842Z" fill="url(#paint41_linear_701_1480)"/>
<path id="Vector_67" d="M132.221 86.7961C126.403 87.6596 119.809 88.6389 118.533 90.6009C118.335 90.9044 118.288 91.2188 118.382 91.5621C118.414 91.6705 118.454 91.7752 118.508 91.8764C118.443 92.1872 118.378 92.5015 118.313 92.8159C118.006 92.5051 117.796 92.1474 117.688 91.7572C117.536 91.2116 117.616 90.6876 117.926 90.2107C119.379 87.9704 125.854 87.0129 132.116 86.0842C136.774 85.3941 142.566 84.5341 142.392 83.3309C142.385 83.2767 142.327 83.19 142.201 83.078C142.15 82.7564 142.089 82.4239 142.013 82.0879C142.689 82.4528 143.046 82.8286 143.104 83.2261C143.372 85.0544 139.354 85.741 132.221 86.7961Z" fill="url(#paint42_linear_701_1480)"/>
<path id="Vector_68" d="M137.907 75.38L137.491 76.1135C135.862 76.1533 134.127 76.128 132.436 76.1099C127.396 76.0449 122.182 75.9798 121.434 77.5769C121.246 77.9744 121.228 78.3032 121.39 78.5959C121.304 78.8488 121.217 79.1198 121.127 79.4089C120.368 78.6898 120.498 77.8732 120.78 77.2698C121.726 75.2536 126.695 75.315 132.447 75.3872C134.279 75.4089 136.173 75.4342 137.907 75.38Z" fill="url(#paint43_linear_701_1480)"/>
<path id="Vector_69" d="M145.95 74.2036C145.715 74.7637 144.916 75.2371 143.76 75.5117C144.111 75.1359 144.465 74.7456 144.819 74.3482C144.822 74.3482 144.822 74.3446 144.826 74.3446C145.104 74.1783 145.245 74.0194 145.285 73.9218C145.784 72.7511 144.584 71.584 143.312 70.3482C142.073 69.145 140.794 67.902 141.162 66.5217C141.213 66.3338 141.281 66.1567 141.368 65.9941C141.541 66.3193 141.7 66.612 141.834 66.8505C141.704 67.7864 142.734 68.78 143.814 69.8315C145.205 71.1793 146.64 72.5776 145.95 74.2036Z" fill="url(#paint44_linear_701_1480)"/>
<path id="Vector_70" d="M148.591 62.3875C148.5 62.7489 148.283 63.0596 147.918 63.3306C147.832 63.0921 147.745 62.8464 147.658 62.6007C147.778 62.4778 147.853 62.3514 147.89 62.2141C147.915 62.1057 147.897 62.0226 147.824 61.9322C146.853 60.6784 139.655 60.6098 132.692 60.5447C121.747 60.4435 110.43 60.3388 109.653 56.57C109.512 55.8907 109.787 55.1464 110.437 54.4707C110.426 54.9043 110.419 55.3415 110.426 55.7751C110.351 55.9775 110.314 56.2015 110.361 56.4255C111.019 59.6233 123.041 59.7353 132.699 59.822C141.696 59.9052 147.268 60.0316 148.395 61.4878C148.601 61.7516 148.67 62.0623 148.591 62.3875Z" fill="url(#paint45_linear_701_1480)"/>
<path id="Vector_71" d="M116.225 50.8501C116.131 51.1283 115.972 51.4029 115.748 51.6631C115.679 51.2981 115.614 50.9404 115.549 50.5972C115.885 49.5674 114.606 48.9531 112.488 48.0389C110.675 47.2584 108.626 46.3732 107.751 44.7833C107.278 43.9269 107.235 43.0597 107.614 42.207C108.42 40.4039 111.083 38.9731 113.576 37.9902C113.114 38.4564 112.749 38.8683 112.619 39.1212C112.608 39.1429 112.597 39.1682 112.582 39.1935C110.649 40.0679 108.861 41.188 108.275 42.5033C107.986 43.1428 108.022 43.7788 108.384 44.4364C109.139 45.8059 111.068 46.6406 112.774 47.3741C114.855 48.2738 116.821 49.1229 116.225 50.8501Z" fill="url(#paint46_linear_701_1480)"/>
</g>
</g>
<g id="Group_24">
<g id="Group_25">
<path id="Vector_72" d="M12.8863 122.114L12.8477 121.392C13.3394 121.366 13.8453 121.337 14.3634 121.305C16.5658 121.168 18.5437 121.044 20.4461 120.908L20.4978 121.629C18.5925 121.765 16.6127 121.89 14.4083 122.027C13.8876 122.058 13.3806 122.088 12.8863 122.114Z" fill="url(#paint47_linear_701_1480)"/>
<path id="Vector_73" d="M16.6524 100.309L16.5273 99.5976C17.3765 99.448 18.2343 99.3034 19.0852 99.1596C19.5936 99.0736 20.1002 98.9883 20.6003 98.9023L20.7224 99.6149C20.2213 99.7005 19.7147 99.7862 19.2055 99.8722C18.3564 100.016 17.5001 100.161 16.6524 100.309Z" fill="url(#paint48_linear_701_1480)"/>
</g>
<g id="XMLID_263_">
<path id="Vector_74" d="M23.8 134.673L23.5352 127.984L31.2211 127.846L31.7992 137.671C31.7992 137.671 24.7568 138.215 23.8 134.673Z" fill="url(#paint49_linear_701_1480)"/>
<path id="Vector_75" d="M-1.33971 134.673L0.817089 126.738C0.817089 126.738 8.65874 128.491 8.4741 128.491C8.28946 128.491 5.6604 137.947 5.6604 137.947C5.6604 137.947 -1.37476 138.18 -1.33971 134.673Z" fill="url(#paint50_linear_701_1480)"/>
<path id="Vector_76" d="M31.3031 106.58C31.3031 106.58 28.7094 83.6311 28.2588 81.071C27.8082 78.511 26.7506 76.6183 26.7506 76.6183C25.1456 75.9145 9.33001 76.0283 9.33001 76.0283C6.96472 77.3587 6.74792 85.5783 6.83211 88.8896C6.59002 93.214 6.40863 100.098 5.89807 106.187C3.47641 110.304 -0.640625 130.266 -0.640625 130.266C1.34273 131.304 6.73961 132.772 10.7761 132.925C10.7761 132.925 16.015 110.859 16.6911 107.902C17.3108 105.207 17.6508 93.4196 18.2387 88.1958C18.2387 88.1958 18.5025 88.0589 18.7792 87.8974C18.9306 91.1197 19.9037 103.363 20.3059 107.365C19.8871 110.561 19.9221 132.448 19.9221 132.448C27.2435 133.656 31.8057 132.162 31.8057 132.162L31.3031 106.58Z" fill="url(#paint51_linear_701_1480)"/>
<path id="Vector_77" d="M-0.152828 127.971C2.34399 128.65 7.30148 129.922 11.3665 130.449C11.0015 131.978 10.7775 132.925 10.7775 132.925C6.74141 132.773 1.34309 131.306 -0.640625 130.265C-0.640625 130.265 -0.459962 129.391 -0.152828 127.971Z" fill="black"/>
<path id="Vector_78" d="M31.8061 132.162C31.8061 132.162 27.2425 133.658 19.9219 132.448C19.9219 132.448 19.9219 131.461 19.9219 129.875C19.9219 129.875 26.8884 130.634 31.7628 129.962L31.8061 132.162Z" fill="black"/>
<path id="Vector_79" d="M13.8688 76.0255C13.8291 76.6109 13.2365 83.4726 7.11553 84.5313C7.04326 84.5421 6.97461 84.5602 6.90234 84.5783C7.1083 81.0119 7.72257 76.9325 9.3305 76.0291C9.3305 76.0291 11.2745 76.0147 13.8688 76.0255Z" fill="black"/>
<path id="XMLID_385_" d="M30.3597 60.2676L31.9738 68.5826C33.9705 66.9638 37.0725 64.5458 39.1679 63.3758L40.8022 64.3369C40.8022 64.3369 33.9871 76.3679 29.4469 74.5301C26.1162 73.182 24.5039 62.6867 24.5039 62.6867L30.3597 60.2676Z" fill="url(#paint52_linear_701_1480)"/>
<path id="XMLID_509_" d="M32.236 65.1959C32.236 65.1959 28.8669 67.5688 24.7423 67.1413L23.6449 62.6637L22.8297 59.3528L20.8594 48.2129C20.8594 48.2129 28.6017 50.6613 29.4548 52.6215C30.4943 55.0099 31.4266 61.0359 32.236 65.1959Z" fill="url(#paint53_linear_701_1480)"/>
<path id="Vector_80" d="M27.6642 61.1678C27.4138 62.8248 26.9791 69.0669 26.7916 74.0822C26.7583 74.9772 27.3751 76.304 26.7435 76.6195C20.8552 77.5495 11.5003 76.9194 8.77151 76.4738C7.84035 76.0294 9.09996 73.5998 9.14404 72.9223C9.40168 68.8494 9.22209 63.1746 8.80258 61.9338C7.7493 58.822 6.74768 56.3107 7.16755 53.8211C7.64632 52.9962 4.89946 51.4613 5.59358 51.1487C9.45768 49.4078 14.1052 48.382 15.1068 48.2129H20.8552C22.5896 49.0967 24.7659 50.1941 26.2832 51.7334C27.528 52.9962 28.4671 55.8464 27.6642 61.1678Z" fill="url(#paint54_linear_701_1480)"/>
<path id="XMLID_456_" d="M8.43882 59.3334C8.43882 59.3334 6.97723 63.0093 5.43 65.9682C4.90029 66.981 3.86724 70.1521 3.43833 70.4354C2.06093 71.3456 -0.296048 69.3351 -1.22648 68.4332C-1.23262 68.3595 -0.891888 66.2446 -0.149709 63.7688C0.983071 59.99 2.68965 55.3125 2.68965 55.3125L8.43882 59.3334Z" fill="url(#paint55_linear_701_1480)"/>
<path id="Vector_81" d="M8.43375 59.3322C8.43375 59.3322 6.97397 63.0106 5.42746 65.9663C4.8963 66.9816 3.86288 70.1505 3.43651 70.436C3.27391 70.5444 3.10047 70.6094 2.91619 70.6419C1.89 69.7964 1.17818 69.0268 1.36607 68.6185C1.91891 67.408 5.0336 63.4984 5.0336 63.4984L6.62347 58.6673L1.36246 59.0793C2.08874 56.9546 2.68855 55.3105 2.68855 55.3105L8.43375 59.3322Z" fill="black"/>
<path id="XMLID_455_" d="M9.31316 52.4279C8.56123 51.4458 5.9076 49.9629 4.37446 52.1171C2.31125 55.0165 -0.132812 62.7136 -0.132812 62.7136C-0.132812 62.7136 3.07221 65.274 8.43584 65.3661C8.43584 65.3661 10.2851 60.5102 10.7065 57.9642C10.7065 57.9642 10.6682 54.1977 9.31316 52.4279Z" fill="url(#paint56_linear_701_1480)"/>
<path id="Vector_82" d="M19.5619 54.6366C19.0784 54.3461 18.0696 55.3701 16.9325 56.0523C15.7957 56.7345 14.1585 56.9162 13.7343 57.735C13.3101 58.5538 11.5822 61.8177 11.5822 61.8177C6.0213 65.0217 -1.22668 68.4319 -1.22668 68.4319C-1.81204 70.4045 -1.12406 74.4091 2.70498 73.1889C7.73366 71.5867 11.9544 66.6394 13.4276 64.7236C13.5251 64.7348 13.627 64.7344 13.7343 64.7203C15.4246 64.4977 16.397 63.1287 16.4649 63.1135C16.4833 63.21 16.5534 63.5366 16.6662 63.7342C16.7778 63.9301 17.115 63.9987 17.2284 63.8517C17.4604 63.5503 18.0696 62.4418 18.1834 61.8506C18.2972 61.2595 18.0017 60.9867 17.9789 60.3952C17.9561 59.804 17.4561 59.4402 17.4561 59.1218C17.4561 58.8035 16.8877 57.9583 16.8877 57.9583C16.8877 57.9583 18.1155 57.0069 18.6615 56.5473C19.2067 56.0881 20.1733 55.0041 19.5619 54.6366Z" fill="url(#paint57_linear_701_1480)"/>
<path id="XMLID_00000072994295050609353940000015605769466173432454_" d="M24.5702 70.0404L35.5876 69.7116C36.1881 69.7116 36.7413 69.3857 37.0325 68.8603L44.1833 55.9546C44.2498 55.835 44.6476 55.9101 44.618 55.792C44.532 55.4476 43.9745 55.0039 43.6233 55.0039H32.2012C31.6006 55.0039 31.0474 55.3298 30.7562 55.8552L23.605 68.761C23.3694 69.188 24.0824 70.0404 24.5702 70.0404Z" fill="url(#paint58_linear_701_1480)"/>
<path id="XMLID_240_" d="M24.5358 70.0417H35.9576C36.5581 70.0417 37.1113 69.7158 37.4025 69.1904L44.5533 56.2847C44.7896 55.8579 44.4811 55.334 43.9933 55.334H32.5715C31.971 55.334 31.4178 55.6599 31.1266 56.1853L23.9754 69.091C23.7395 69.5178 24.048 70.0417 24.5358 70.0417Z" fill="black"/>
<path id="XMLID_382_" d="M36.6762 62.3747C36.0684 61.9697 36.5927 61.4504 37.2453 61.4046C37.5138 61.3858 37.8968 61.4291 38.2874 61.4945C38.286 61.4942 38.2842 61.4938 38.2827 61.4931C36.8175 61.0992 37.456 60.3238 38.2589 60.2674C39.0617 60.2111 40.8832 60.7068 40.8832 60.7068L42.2617 60.4253L43.2366 58.666C43.2366 58.666 44.313 61.5827 43.4743 62.1373C43.3298 62.5019 43.0762 63.1057 42.9403 63.2076C42.8778 63.2542 42.7708 63.2886 42.6559 63.3146C42.3553 63.8154 41.9918 64.3122 41.711 64.3552C41.6348 64.3668 41.5553 64.3733 41.4769 64.3816C41.285 64.6909 41.057 64.9286 40.7972 64.9684C39.9506 65.0981 38.8883 64.951 38.8883 64.951C38.8883 64.951 37.9492 64.6501 36.7311 64.3231C35.7577 64.0614 35.9066 63.6018 36.3442 63.402C35.5796 63.0139 36.0395 62.4777 36.6762 62.3747Z" fill="url(#paint59_linear_701_1480)"/>
<g id="Group_26">
<path id="Vector_83" d="M41.8364 62.1069C41.8364 62.1069 41.3233 62.2153 40.2393 62.1178C39.7949 62.078 38.0171 61.5649 37.457 61.4023C37.6811 61.406 37.9557 61.4421 38.2375 61.4854C38.2484 61.4854 38.2556 61.4891 38.2664 61.4891C38.27 61.4927 38.2736 61.4927 38.2773 61.4927C38.2773 61.4927 39.8599 61.9227 40.2465 61.9877C40.7958 62.078 41.8364 62.1069 41.8364 62.1069Z" fill="url(#paint60_linear_701_1480)"/>
<path id="Vector_84" d="M41.1059 63.2928C41.1059 63.2928 40.5964 63.3759 39.5197 63.2277C38.8693 63.1338 37.0518 62.6135 36.4375 62.4364C36.5134 62.4075 36.5893 62.3895 36.6724 62.375C36.6724 62.375 39.0716 63.0254 39.5197 63.1157C39.9677 63.2097 41.1059 63.2928 41.1059 63.2928Z" fill="url(#paint61_linear_701_1480)"/>
<path id="Vector_85" d="M40.6458 64.2459C40.6458 64.2459 39.999 64.3832 38.9331 64.2062C38.3694 64.1122 36.8734 63.7003 36.1797 63.5016C36.2267 63.4618 36.2809 63.4293 36.3423 63.4004C36.3423 63.4004 38.4236 63.9821 38.9439 64.0869C39.4606 64.1881 40.6458 64.2459 40.6458 64.2459Z" fill="url(#paint62_linear_701_1480)"/>
</g>
<g id="XMLID_00000092446099098205746160000005476457589391975102_">
<path id="XMLID_468_" d="M25.2084 33.4141L25.2207 34.5627L23.9297 35.9369L23.9355 37.8476C23.9355 37.8476 23.7815 39.5733 25.0758 39.1726C25.8419 38.9356 25.9803 37.4494 25.9672 36.2733C27.1719 34.2357 25.2084 33.4141 25.2084 33.4141Z" fill="black"/>
<path id="XMLID_00000137126571735584199460000013898376830775765141_" d="M14.5 48.3305C15.0268 44.7233 15.4453 41.4688 15.4453 41.4688L21.081 45.571C21.2439 46.3254 21.8766 49.2035 21.8766 49.2035C21.8766 49.2035 20.8577 50.5129 18.7287 50.5064C15.7817 50.497 14.5 48.3305 14.5 48.3305Z" fill="url(#paint63_linear_701_1480)"/>
<path id="Vector_86" d="M21.363 46.8589C17.84 45.8363 16.9836 43.372 16.7812 42.4434L21.0811 45.5725C21.1353 45.8254 21.2437 46.3169 21.363 46.8589Z" fill="black"/>
<path id="XMLID_465_" d="M25.2724 37.3135C25.2724 37.3135 25.9973 44.0408 23.5153 45.265C22.1534 45.9367 19.2757 45.6783 17.4102 44.1373C16.5921 43.4608 15.7509 42.4318 15.3683 41.5003C14.7464 39.9877 14.1459 37.2795 14.7515 35.4826C15.6143 32.9233 24.4847 31.3392 25.2724 37.3135Z" fill="url(#paint64_linear_701_1480)"/>
<path id="Vector_87" d="M25.4023 35.54C24.8277 36.3856 23.8811 36.6204 21.4529 36.082C21.1674 36.3097 20.5604 37.2275 18.3057 37.0721C18.4383 37.8685 18.3519 39.5808 17.135 39.6412C16.9507 39.204 16.5785 38.6872 15.892 38.8607C14.8296 39.1317 15.0284 41.1443 15.7727 42.0224C15.4587 42.805 15.3941 42.9943 15.1447 43.7643C14.6642 43.3163 14.4423 42.5907 14.5547 41.914C13.6983 41.4316 13.4046 40.7053 13.5682 40.1181C12.5467 39.5461 12.1934 37.7991 13.243 37.0468C11.7786 35.2911 12.7469 32.61 15.0063 32.8336C14.8054 32.1081 16.051 30.0496 18.1174 30.9981C18.5937 30.1016 19.6058 29.6344 20.5658 29.6348C21.6299 29.6351 22.5896 30.0152 23.2158 30.9692C24.8382 30.7762 25.928 32.2985 25.4706 33.7623C25.4709 33.7691 26.0165 34.6367 25.4023 35.54Z" fill="black"/>
</g>
<g id="Group_27">
<path id="Vector_88" d="M23.8018 134.674C23.8018 134.674 22.9956 134.762 22.6267 136.24C22.2578 137.718 22.1573 140.342 22.1573 140.342C22.1573 140.342 21.6406 141.274 21.6406 142.589H42.732C42.732 142.589 43.0128 138.686 40.8065 137.09C38.2464 135.237 33.1332 136.07 33.1332 136.07C33.1332 136.07 32.5063 134.888 32.0221 134.577C31.5379 134.266 30.5663 134.834 29.6319 136.206C28.7672 136.552 24.76 136.171 23.8018 134.674Z" fill="url(#paint65_linear_701_1480)"/>
<path id="Vector_89" d="M21.6406 142.59H42.7316C42.7316 142.59 42.8039 141.589 42.5907 140.393H41.4417C41.2827 140.393 41.0045 140.628 40.7732 140.855C40.5095 141.112 40.159 141.26 39.7868 141.264C37.0298 141.289 25.7454 141.379 25.2901 141.256C24.7734 141.119 24.459 140.584 23.7183 140.342C22.9739 140.104 22.1573 140.342 22.1573 140.342C22.1573 140.342 21.6406 141.275 21.6406 142.59Z" fill="url(#paint66_linear_701_1480)"/>
<path id="Vector_90" d="M31.2266 136.569C32.0576 136.291 33.138 136.071 33.138 136.071C33.138 136.071 32.9935 135.793 32.7839 135.475C31.7107 135.952 31.2266 136.569 31.2266 136.569Z" fill="url(#paint67_linear_701_1480)"/>
</g>
<g id="Group_28">
<path id="Vector_91" d="M-1.35022 134.674C-1.35022 134.674 -2.15636 134.762 -2.52564 136.24C-2.89456 137.718 -2.99501 140.342 -2.99501 140.342C-2.99501 140.342 -3.51172 141.274 -3.51172 142.589H17.5797C17.5797 142.589 17.8604 138.686 15.6541 137.09C13.0941 135.237 7.98085 136.07 7.98085 136.07C7.98085 136.07 7.35394 134.888 6.86975 134.577C6.38556 134.266 5.41358 134.834 4.47953 136.206C3.61522 136.552 -0.39233 136.171 -1.35022 134.674Z" fill="url(#paint68_linear_701_1480)"/>
<path id="Vector_92" d="M-3.51172 142.59H17.5793C17.5793 142.59 17.6516 141.589 17.4384 140.393H16.2893C16.1304 140.393 15.8521 140.628 15.6209 140.855C15.3571 141.112 15.0066 141.26 14.6344 141.264C11.8775 141.289 0.59303 141.379 0.13775 141.256C-0.378957 141.119 -0.693319 140.584 -1.43405 140.342C-2.1784 140.104 -2.99501 140.342 -2.99501 140.342C-2.99501 140.342 -3.51172 141.275 -3.51172 142.59Z" fill="url(#paint69_linear_701_1480)"/>
<path id="Vector_93" d="M6.07422 136.569C6.90529 136.291 7.98567 136.071 7.98567 136.071C7.98567 136.071 7.84114 135.793 7.63156 135.475C6.5584 135.952 6.07422 136.569 6.07422 136.569Z" fill="url(#paint70_linear_701_1480)"/>
</g>
</g>
<g id="Group_29">
<path id="Vector_94" d="M2.3068 135.144L1.61304 134.938C2.2237 132.889 1.28062 130.92 0.449549 129.178C-0.229758 127.754 -0.872929 126.41 -0.558569 125.218C-0.323702 124.322 0.164098 123.628 0.926511 123.111C0.825338 123.538 0.731392 123.95 0.644672 124.351C0.409805 124.651 0.243589 125.001 0.138802 125.402C-0.106905 126.338 0.453161 127.512 1.10356 128.867C1.98883 130.725 2.99334 132.828 2.3068 135.144Z" fill="url(#paint71_linear_701_1480)"/>
<path id="Vector_95" d="M32.6169 118.365C32.5193 119.033 32.1471 119.608 31.5581 120.023L31.5401 119.062C31.7352 118.827 31.8581 118.553 31.9014 118.26C32.0062 117.552 31.6629 116.771 30.9547 116.117C29.5166 114.791 25.0072 113.534 20.2303 112.204C12.6098 110.08 4.72915 107.883 5.11939 104.436C5.18805 103.832 5.5277 103.276 6.13474 102.773C6.11306 103.156 6.08776 103.539 6.05886 103.919C5.93239 104.114 5.86012 104.313 5.83844 104.515C5.51686 107.352 13.7842 109.657 20.4255 111.507C25.2854 112.862 29.878 114.141 31.4461 115.59C32.3314 116.403 32.7578 117.415 32.6169 118.365Z" fill="url(#paint72_linear_701_1480)"/>
<path id="Vector_96" d="M30.1859 96.9369C30.1498 96.6297 30.1136 96.319 30.0775 96.0082C30.2473 95.7481 30.2148 95.553 30.1967 95.459C29.8029 93.2332 24.2745 92.8141 18.9304 92.4058C12.5601 91.9216 5.97656 91.4229 5.97656 87.7843C5.97656 87.0219 6.26563 86.339 6.84377 85.75C6.8257 86.227 6.81486 86.6858 6.81125 87.1122C6.73537 87.3254 6.69923 87.5494 6.69923 87.7843C6.69923 90.7509 12.9431 91.2278 18.9846 91.6867C24.8635 92.1311 30.4135 92.5539 30.9086 95.3326C31.0133 95.9215 30.7713 96.4599 30.1859 96.9369Z" fill="url(#paint73_linear_701_1480)"/>
<path id="Vector_97" d="M27.9282 79.6445L27.9245 79.6408C27.8089 79.2325 27.6861 78.8567 27.5668 78.5171C27.6788 78.0329 27.6933 77.4331 27.3862 76.8586C26.8333 75.8215 25.3952 75.1495 23.108 74.8604C21.0737 74.6038 18.8262 74.6617 16.6546 74.7195C12.1451 74.8351 7.88862 74.9471 5.23282 72.4828C5.14248 72.3997 5.05576 72.313 4.97266 72.2263C5.19307 72.1107 5.41349 71.9878 5.63029 71.8613C5.65919 71.8902 5.69171 71.9228 5.72423 71.9517C8.16323 74.2172 12.2788 74.1088 16.6329 73.9968C18.8334 73.939 21.1098 73.8776 23.1983 74.1413C25.7313 74.4629 27.3536 75.2615 28.0257 76.5189C28.7086 77.798 28.1847 79.1314 27.9282 79.6445Z" fill="url(#paint74_linear_701_1480)"/>
<path id="Vector_98" d="M15.2708 64.1452C15.1154 64.8823 14.8191 65.7098 14.0206 65.9519C12.9763 66.2735 12.232 65.7568 11.4442 65.2111C10.5012 64.5607 9.43523 63.82 7.42261 64.0621C6.74691 64.1452 6.064 64.5246 5.48948 65.1064C4.99806 65.3593 4.5211 65.6014 4.05859 65.8362C4.81378 64.4668 6.07844 63.4984 7.33588 63.3467C9.61951 63.0684 10.8589 63.9284 11.8562 64.6186C12.5752 65.1172 13.0992 65.4785 13.811 65.2617C14.0639 65.1822 14.259 64.9618 14.4072 64.5607C14.7324 64.4523 15.0214 64.3078 15.2708 64.1452Z" fill="url(#paint75_linear_701_1480)"/>
<path id="Vector_99" d="M29.3792 58.3249L28.9528 59.0909C27.8833 56.9952 26.2464 54.5996 24.0604 53.6167C22.6114 52.9663 21.0613 53.0169 19.4534 53.7685C18.3838 54.2708 17.5564 55.0151 16.9566 56.0305C16.9457 56.0377 16.9313 56.0449 16.9204 56.0521C16.6025 56.2436 16.2483 56.3954 15.8906 56.5327C16.5844 54.9356 17.6503 53.8155 19.1462 53.1145C20.9529 52.269 22.7054 52.2184 24.3567 52.9591C26.5897 53.9636 28.2555 56.24 29.3792 58.3249Z" fill="url(#paint76_linear_701_1480)"/>
</g>
</g>
<g id="Group_30">
<g id="Group_31">
<path id="Vector_100" d="M91.5712 0.150391C88.9696 0.150391 86.8594 2.26058 86.8594 4.86579C86.8594 7.46739 88.9696 9.57758 91.5712 9.57758C94.1764 9.57758 96.2866 7.46739 96.2866 4.86579C96.2866 2.26058 94.1764 0.150391 91.5712 0.150391ZM91.5712 7.77091C89.9668 7.77091 88.666 6.47011 88.666 4.86579C88.666 3.25786 89.9668 1.95706 91.5712 1.95706C93.1791 1.95706 94.4799 3.25786 94.4799 4.86579C94.4799 6.47011 93.1791 7.77091 91.5712 7.77091Z" fill="url(#paint77_linear_701_1480)"/>
<path id="Vector_101" d="M13.51 15.1027C13.51 16.3005 12.5388 17.2718 11.341 17.2718C10.1431 17.2718 9.17188 16.3005 9.17188 15.1027C9.17188 13.9045 10.1431 12.9336 11.341 12.9336C12.5391 12.9336 13.51 13.9049 13.51 15.1027Z" fill="url(#paint78_linear_701_1480)"/>
<path id="Vector_102" d="M62.7753 106.306C62.7753 106.802 62.3724 107.205 61.8759 107.205C61.3791 107.205 60.9766 106.802 60.9766 106.306C60.9766 105.809 61.3795 105.406 61.8759 105.406C62.3724 105.406 62.7753 105.809 62.7753 106.306Z" fill="url(#paint79_linear_701_1480)"/>
<path id="Vector_103" d="M165.184 115.371C166.292 115.371 167.189 114.473 167.189 113.366C167.189 112.259 166.292 111.361 165.184 111.361C164.077 111.361 163.18 112.259 163.18 113.366C163.18 114.473 164.077 115.371 165.184 115.371Z" fill="url(#paint80_linear_701_1480)"/>
<path id="Vector_104" d="M46.6327 14.4C46.6327 14.8075 46.302 15.1382 45.8945 15.1382C45.4869 15.1382 45.1562 14.8079 45.1562 14.4C45.1562 13.9924 45.4865 13.6621 45.8945 13.6621C46.302 13.6617 46.6327 13.9924 46.6327 14.4Z" fill="black"/>
<path id="Vector_105" d="M172.622 79.1042C172.622 80.031 171.871 80.7826 170.944 80.7826C170.017 80.7826 169.266 80.031 169.266 79.1042C169.266 78.1774 170.017 77.4258 170.944 77.4258C171.871 77.4258 172.622 78.1774 172.622 79.1042Z" fill="url(#paint81_linear_701_1480)"/>
<path id="Vector_106" d="M155.095 45.9264C155.095 46.8533 154.343 47.6048 153.417 47.6048C152.49 47.6048 151.738 46.8533 151.738 45.9264C151.738 44.9996 152.49 44.248 153.417 44.248C154.343 44.248 155.095 44.9993 155.095 45.9264Z" fill="black"/>
<path id="Vector_107" opacity="0.1" d="M165.864 59.7737C165.864 61.4695 164.489 62.8447 162.793 62.8447C161.098 62.8447 159.723 61.4698 159.723 59.7737C159.723 58.078 161.098 56.7031 162.793 56.7031C164.489 56.7031 165.864 58.078 165.864 59.7737Z" fill="url(#paint82_linear_701_1480)"/>
<path id="Vector_108" opacity="0.1" d="M1.66075 113.846C1.66075 115.542 0.28588 116.917 -1.40986 116.917C-3.10559 116.917 -4.48047 115.542 -4.48047 113.846C-4.48047 112.15 -3.10559 110.775 -1.40986 110.775C0.28588 110.775 1.66075 112.15 1.66075 113.846Z" fill="url(#paint83_linear_701_1480)"/>
<path id="Vector_109" opacity="0.1" d="M163.183 66.1304C163.183 66.6522 162.76 67.0753 162.238 67.0753C161.716 67.0753 161.293 66.6522 161.293 66.1304C161.293 65.6087 161.716 65.1855 162.238 65.1855C162.76 65.1855 163.183 65.6087 163.183 66.1304Z" fill="url(#paint84_linear_701_1480)"/>
<path id="Vector_110" d="M122.586 23.2341C123.311 23.2341 123.898 22.6465 123.898 21.9217C123.898 21.1969 123.311 20.6094 122.586 20.6094C121.861 20.6094 121.273 21.1969 121.273 21.9217C121.273 22.6465 121.861 23.2341 122.586 23.2341Z" fill="white"/>
<path id="Vector_111" opacity="0.1" d="M90.4638 135.283C90.4638 135.973 89.9045 136.532 89.2143 136.532C88.5246 136.532 87.9648 135.972 87.9648 135.283C87.9648 134.593 88.5242 134.033 89.2143 134.033C89.9045 134.033 90.4638 134.593 90.4638 135.283Z" fill="url(#paint85_linear_701_1480)"/>
</g>
<g id="Group_32">
<g id="Group_33">
<path id="Vector_112" d="M97.0004 59.6823L95.658 60.1423C95.1836 60.3049 94.6676 60.052 94.505 59.5775L92.5376 53.8342C92.375 53.3597 92.6279 52.8437 93.1023 52.6811L94.4447 52.2212C94.9191 52.0586 95.4351 52.3115 95.5977 52.7859L97.5652 58.5293C97.7278 59.0034 97.4748 59.5197 97.0004 59.6823Z" fill="black"/>
<path id="Vector_113" d="M105.333 53.6691C105.462 54.7423 104.644 55.0913 104.644 55.0913C104.644 55.0913 105.403 55.2174 105.455 55.853C105.506 56.4889 105.045 56.9272 104.584 57.0851L100.844 58.3661C100.227 58.5774 99.5734 58.6674 98.9244 58.606C98.8821 58.602 98.8413 58.5988 98.8019 58.5959C98.536 58.5767 98.3087 58.3971 98.2224 58.1449L96.3647 52.722C96.2784 52.4695 96.256 52.201 96.2979 51.9376C96.3893 51.362 96.5223 50.3018 96.3553 49.814C96.1198 49.1264 94.4428 47.3606 95.0115 46.6545C95.5684 45.9637 96.8912 46.2643 97.5654 47.0668C98.2397 47.8693 98.6451 49.7703 99.1069 49.9965L102.729 48.7557C102.729 48.7557 103.742 48.3568 104.069 49.3981C104.317 50.1862 103.882 50.7044 103.882 50.7044C103.882 50.7044 104.663 50.571 104.865 51.4321C105.091 52.3961 104.502 52.8742 104.502 52.8742C104.502 52.8742 105.24 52.8962 105.333 53.6691Z" fill="black"/>
</g>
<g id="Group_34">
<path id="Vector_114" d="M157.988 104.637L157.15 104.924C156.854 105.025 156.532 104.867 156.43 104.571L155.203 100.987C155.101 100.691 155.259 100.368 155.555 100.267L156.393 99.98C156.689 99.8785 157.011 100.036 157.113 100.332L158.34 103.917C158.442 104.213 158.284 104.535 157.988 104.637Z" fill="black"/>
<path id="Vector_115" d="M163.187 100.884C163.268 101.554 162.758 101.771 162.758 101.771C162.758 101.771 163.231 101.85 163.263 102.247C163.296 102.644 163.008 102.918 162.72 103.016L160.385 103.816C160.001 103.948 159.592 104.004 159.187 103.966C159.161 103.963 159.136 103.961 159.111 103.96C158.945 103.948 158.803 103.836 158.749 103.678L157.59 100.293C157.536 100.136 157.522 99.968 157.548 99.8035C157.605 99.4444 157.688 98.7824 157.584 98.4782C157.437 98.0489 156.39 96.9468 156.745 96.506C157.093 96.0746 157.918 96.2625 158.339 96.7633C158.76 97.2641 159.013 98.4507 159.301 98.592L161.562 97.8177C161.562 97.8177 162.195 97.5687 162.398 98.2187C162.553 98.7105 162.282 99.0339 162.282 99.0339C162.282 99.0339 162.769 98.9504 162.895 99.4881C163.036 100.09 162.668 100.388 162.668 100.388C162.668 100.388 163.129 100.402 163.187 100.884Z" fill="black"/>
</g>
</g>
<g id="Group_35">
<path id="XMLID_48_" d="M102.259 27.9279C101.571 26.9028 100.422 26.8371 99.585 27.0575C98.7677 27.2728 98.2148 27.7906 98.2148 27.7906C98.2148 27.7906 97.9915 27.0669 97.3881 26.475C96.7706 25.8687 95.7397 25.3563 94.6344 25.9059C92.0187 27.2063 94.01 32.5183 96.5039 34.2404C99.5236 33.9806 103.886 30.3539 102.259 27.9279Z" fill="url(#paint86_linear_701_1480)"/>
<path id="XMLID_00000043424700639307718270000000835446596145372074_" d="M36.022 82.1225C35.3333 81.9284 34.801 82.3313 34.5141 82.7429C34.2341 83.145 34.1846 83.5815 34.1846 83.5815C34.1846 83.5815 33.8139 83.3459 33.325 83.3112C32.8245 83.2758 32.1767 83.437 31.8952 84.095C31.2289 85.6523 34.1047 87.2491 35.8532 87.072C37.0893 85.8229 37.6523 82.5821 36.022 82.1225Z" fill="url(#paint87_linear_701_1480)"/>
<path id="XMLID_00000064344900852377070430000001476831696650550191_" d="M154.912 24.7053C154.524 24.104 153.858 24.0538 153.371 24.173C152.894 24.2894 152.569 24.5838 152.569 24.5838C152.569 24.5838 152.447 24.1622 152.103 23.8124C151.751 23.4547 151.159 23.1468 150.512 23.454C148.983 24.181 150.082 27.2812 151.511 28.3049C153.264 28.186 155.83 26.1282 154.912 24.7053Z" fill="url(#paint88_linear_701_1480)"/>
</g>
</g>
<g id="Group_36">
<path id="Vector_116" d="M-41.7227 142.588H190.71" stroke="black" stroke-width="0.361333" stroke-miterlimit="10" stroke-linecap="round"/>
</g>
</g>
<defs>
<linearGradient id="paint0_linear_701_1480" x1="173.667" y1="142.764" x2="171.517" y2="136.158" gradientUnits="userSpaceOnUse">
<stop stop-color="#53B0B1"/>
<stop offset="1" stop-color="#6ACAD8"/>
</linearGradient>
<linearGradient id="paint1_linear_701_1480" x1="54.6534" y1="140.992" x2="54.6534" y2="106.058" gradientUnits="userSpaceOnUse">
<stop stop-color="#53B0B1"/>
<stop offset="1" stop-color="#6ACAD8"/>
</linearGradient>
<linearGradient id="paint2_linear_701_1480" x1="78.9935" y1="67.8404" x2="83.514" y2="102.252" gradientUnits="userSpaceOnUse">
<stop stop-color="#8AB9FD"/>
<stop offset="1" stop-color="#0056E9"/>
</linearGradient>
<linearGradient id="paint3_linear_701_1480" x1="68.342" y1="120.655" x2="98.0966" y2="129.334" gradientUnits="userSpaceOnUse">
<stop stop-color="#8AB9FD"/>
<stop offset="1" stop-color="#0056E9"/>
</linearGradient>
<linearGradient id="paint4_linear_701_1480" x1="68.1213" y1="121.428" x2="97.8756" y2="130.107" gradientUnits="userSpaceOnUse">
<stop stop-color="#8AB9FD"/>
<stop offset="1" stop-color="#0056E9"/>
</linearGradient>
<linearGradient id="paint5_linear_701_1480" x1="68.5679" y1="119.882" x2="98.3225" y2="128.562" gradientUnits="userSpaceOnUse">
<stop stop-color="#8AB9FD"/>
<stop offset="1" stop-color="#0056E9"/>
</linearGradient>
<linearGradient id="paint6_linear_701_1480" x1="70.9987" y1="68.0004" x2="105.385" y2="87.5429" gradientUnits="userSpaceOnUse">
<stop stop-color="#8AB9FD"/>
<stop offset="1" stop-color="#0056E9"/>
</linearGradient>
<linearGradient id="paint7_linear_701_1480" x1="72.9132" y1="64.6268" x2="107.3" y2="84.1693" gradientUnits="userSpaceOnUse">
<stop stop-color="#8AB9FD"/>
<stop offset="1" stop-color="#0056E9"/>
</linearGradient>
<linearGradient id="paint8_linear_701_1480" x1="71.6766" y1="66.808" x2="106.063" y2="86.3506" gradientUnits="userSpaceOnUse">
<stop stop-color="#8AB9FD"/>
<stop offset="1" stop-color="#0056E9"/>
</linearGradient>
<linearGradient id="paint9_linear_701_1480" x1="72.4715" y1="65.4106" x2="106.858" y2="84.9531" gradientUnits="userSpaceOnUse">
<stop stop-color="#8AB9FD"/>
<stop offset="1" stop-color="#0056E9"/>
</linearGradient>
<linearGradient id="paint10_linear_701_1480" x1="71.9449" y1="66.338" x2="106.332" y2="85.8806" gradientUnits="userSpaceOnUse">
<stop stop-color="#8AB9FD"/>
<stop offset="1" stop-color="#0056E9"/>
</linearGradient>
<linearGradient id="paint11_linear_701_1480" x1="68.8313" y1="119.029" x2="98.5859" y2="127.709" gradientUnits="userSpaceOnUse">
<stop stop-color="#8AB9FD"/>
<stop offset="1" stop-color="#0056E9"/>
</linearGradient>
<linearGradient id="paint12_linear_701_1480" x1="69.13" y1="117.994" x2="98.8845" y2="126.673" gradientUnits="userSpaceOnUse">
<stop stop-color="#8AB9FD"/>
<stop offset="1" stop-color="#0056E9"/>
</linearGradient>
<linearGradient id="paint13_linear_701_1480" x1="94.2311" y1="72.4761" x2="88.103" y2="120.939" gradientUnits="userSpaceOnUse">
<stop stop-color="#8AB9FD"/>
<stop offset="1" stop-color="#0056E9"/>
</linearGradient>
<linearGradient id="paint14_linear_701_1480" x1="93.4037" y1="79.3874" x2="88.9417" y2="110.269" gradientUnits="userSpaceOnUse">
<stop stop-color="#8AB9FD"/>
<stop offset="1" stop-color="#0056E9"/>
</linearGradient>
<linearGradient id="paint15_linear_701_1480" x1="45.5348" y1="94.5627" x2="82.7914" y2="93.6222" gradientUnits="userSpaceOnUse">
<stop stop-color="#8AB9FD"/>
<stop offset="1" stop-color="#0056E9"/>
</linearGradient>
<linearGradient id="paint16_linear_701_1480" x1="45.5636" y1="95.531" x2="82.8196" y2="94.5905" gradientUnits="userSpaceOnUse">
<stop stop-color="#8AB9FD"/>
<stop offset="1" stop-color="#0056E9"/>
</linearGradient>
<linearGradient id="paint17_linear_701_1480" x1="45.5112" y1="93.5968" x2="82.7677" y2="92.6563" gradientUnits="userSpaceOnUse">
<stop stop-color="#8AB9FD"/>
<stop offset="1" stop-color="#0056E9"/>
</linearGradient>
<linearGradient id="paint18_linear_701_1480" x1="29.31" y1="33.2836" x2="75.8455" y2="43.0925" gradientUnits="userSpaceOnUse">
<stop stop-color="#8AB9FD"/>
<stop offset="1" stop-color="#0056E9"/>
</linearGradient>
<linearGradient id="paint19_linear_701_1480" x1="30.2727" y1="28.7187" x2="76.8086" y2="38.5276" gradientUnits="userSpaceOnUse">
<stop stop-color="#8AB9FD"/>
<stop offset="1" stop-color="#0056E9"/>
</linearGradient>
<linearGradient id="paint20_linear_701_1480" x1="29.6524" y1="31.6697" x2="76.1884" y2="41.4787" gradientUnits="userSpaceOnUse">
<stop stop-color="#8AB9FD"/>
<stop offset="1" stop-color="#0056E9"/>
</linearGradient>
<linearGradient id="paint21_linear_701_1480" x1="30.0457" y1="29.7799" x2="76.5815" y2="39.5888" gradientUnits="userSpaceOnUse">
<stop stop-color="#8AB9FD"/>
<stop offset="1" stop-color="#0056E9"/>
</linearGradient>
<linearGradient id="paint22_linear_701_1480" x1="29.7829" y1="31.035" x2="76.3189" y2="40.844" gradientUnits="userSpaceOnUse">
<stop stop-color="#8AB9FD"/>
<stop offset="1" stop-color="#0056E9"/>
</linearGradient>
<linearGradient id="paint23_linear_701_1480" x1="45.4927" y1="92.5263" x2="82.7492" y2="91.5858" gradientUnits="userSpaceOnUse">
<stop stop-color="#8AB9FD"/>
<stop offset="1" stop-color="#0056E9"/>
</linearGradient>
<linearGradient id="paint24_linear_701_1480" x1="45.4607" y1="91.2296" x2="82.7175" y2="90.2891" gradientUnits="userSpaceOnUse">
<stop stop-color="#8AB9FD"/>
<stop offset="1" stop-color="#0056E9"/>
</linearGradient>
<linearGradient id="paint25_linear_701_1480" x1="57.5722" y1="29.9152" x2="68.2738" y2="87.6672" gradientUnits="userSpaceOnUse">
<stop stop-color="#8AB9FD"/>
<stop offset="1" stop-color="#0056E9"/>
</linearGradient>
<linearGradient id="paint26_linear_701_1480" x1="59.1484" y1="38.1343" x2="65.3315" y2="75.1394" gradientUnits="userSpaceOnUse">
<stop stop-color="#E4816F"/>
<stop offset="1" stop-color="#E25E52"/>
</linearGradient>
<linearGradient id="paint27_linear_701_1480" x1="131.584" y1="111.361" x2="131.584" y2="112.631" gradientUnits="userSpaceOnUse">
<stop stop-color="#E4816F"/>
<stop offset="1" stop-color="#E25E52"/>
</linearGradient>
<linearGradient id="paint28_linear_701_1480" x1="131.024" y1="94.1855" x2="131.024" y2="94.9577" gradientUnits="userSpaceOnUse">
<stop stop-color="#E4816F"/>
<stop offset="1" stop-color="#E25E52"/>
</linearGradient>
<linearGradient id="paint29_linear_701_1480" x1="120.675" y1="61.8805" x2="120.952" y2="40.2928" gradientUnits="userSpaceOnUse">
<stop stop-color="#914713"/>
<stop offset="1" stop-color="#AF6145"/>
</linearGradient>
<linearGradient id="paint30_linear_701_1480" x1="116.185" y1="118.044" x2="116.185" y2="136.237" gradientUnits="userSpaceOnUse">
<stop stop-color="#914713"/>
<stop offset="1" stop-color="#AF6145"/>
</linearGradient>
<linearGradient id="paint31_linear_701_1480" x1="143.123" y1="117.667" x2="155.017" y2="130.666" gradientUnits="userSpaceOnUse">
<stop stop-color="#914713"/>
<stop offset="1" stop-color="#AF6145"/>
</linearGradient>
<linearGradient id="paint32_linear_701_1480" x1="140.44" y1="150.721" x2="126.324" y2="99.7957" gradientUnits="userSpaceOnUse">
<stop stop-color="#8AB9FD"/>
<stop offset="1" stop-color="#0056E9"/>
</linearGradient>
<linearGradient id="paint33_linear_701_1480" x1="131.498" y1="50.9465" x2="131.498" y2="73.886" gradientUnits="userSpaceOnUse">
<stop stop-color="#875FA7"/>
<stop offset="1" stop-color="#582792"/>
</linearGradient>
<linearGradient id="paint34_linear_701_1480" x1="134.173" y1="53.5321" x2="132.582" y2="39.1403" gradientUnits="userSpaceOnUse">
<stop stop-color="#914713"/>
<stop offset="1" stop-color="#AF6145"/>
</linearGradient>
<linearGradient id="paint35_linear_701_1480" x1="134.695" y1="52.7138" x2="133.104" y2="38.322" gradientUnits="userSpaceOnUse">
<stop stop-color="#914713"/>
<stop offset="1" stop-color="#AF6145"/>
</linearGradient>
<linearGradient id="paint36_linear_701_1480" x1="115.035" y1="60.2965" x2="115.462" y2="26.9843" gradientUnits="userSpaceOnUse">
<stop stop-color="#914713"/>
<stop offset="1" stop-color="#AF6145"/>
</linearGradient>
<linearGradient id="paint37_linear_701_1480" x1="109.199" y1="129.343" x2="109.199" y2="142.206" gradientUnits="userSpaceOnUse">
<stop stop-color="#8AB9FD"/>
<stop offset="1" stop-color="#0056E9"/>
</linearGradient>
<linearGradient id="paint38_linear_701_1480" x1="150.664" y1="122.474" x2="150.664" y2="142.007" gradientUnits="userSpaceOnUse">
<stop stop-color="#8AB9FD"/>
<stop offset="1" stop-color="#0056E9"/>
</linearGradient>
<linearGradient id="paint39_linear_701_1480" x1="142.93" y1="43.3684" x2="142.93" y2="78.4576" gradientUnits="userSpaceOnUse">
<stop stop-color="#914713"/>
<stop offset="1" stop-color="#AF6145"/>
</linearGradient>
<linearGradient id="paint40_linear_701_1480" x1="148.399" y1="111.926" x2="148.399" y2="130.169" gradientUnits="userSpaceOnUse">
<stop stop-color="#E4816F"/>
<stop offset="1" stop-color="#E25E52"/>
</linearGradient>
<linearGradient id="paint41_linear_701_1480" x1="129.512" y1="95.3672" x2="129.512" y2="110.287" gradientUnits="userSpaceOnUse">
<stop stop-color="#E4816F"/>
<stop offset="1" stop-color="#E25E52"/>
</linearGradient>
<linearGradient id="paint42_linear_701_1480" x1="130.365" y1="82.0879" x2="130.365" y2="92.8159" gradientUnits="userSpaceOnUse">
<stop stop-color="#E4816F"/>
<stop offset="1" stop-color="#E25E52"/>
</linearGradient>
<linearGradient id="paint43_linear_701_1480" x1="129.233" y1="75.3613" x2="129.233" y2="79.4089" gradientUnits="userSpaceOnUse">
<stop stop-color="#E4816F"/>
<stop offset="1" stop-color="#E25E52"/>
</linearGradient>
<linearGradient id="paint44_linear_701_1480" x1="143.613" y1="65.9941" x2="143.613" y2="75.5117" gradientUnits="userSpaceOnUse">
<stop stop-color="#E4816F"/>
<stop offset="1" stop-color="#E25E52"/>
</linearGradient>
<linearGradient id="paint45_linear_701_1480" x1="129.12" y1="54.4707" x2="129.12" y2="63.3306" gradientUnits="userSpaceOnUse">
<stop stop-color="#E4816F"/>
<stop offset="1" stop-color="#E25E52"/>
</linearGradient>
<linearGradient id="paint46_linear_701_1480" x1="111.846" y1="37.9902" x2="111.846" y2="51.6631" gradientUnits="userSpaceOnUse">
<stop stop-color="#E4816F"/>
<stop offset="1" stop-color="#E25E52"/>
</linearGradient>
<linearGradient id="paint47_linear_701_1480" x1="31.7113" y1="54.5208" x2="14.9667" y2="129.11" gradientUnits="userSpaceOnUse">
<stop stop-color="#E4816F"/>
<stop offset="1" stop-color="#E25E52"/>
</linearGradient>
<linearGradient id="paint48_linear_701_1480" x1="28.8883" y1="53.8881" x2="12.1437" y2="128.477" gradientUnits="userSpaceOnUse">
<stop stop-color="#E4816F"/>
<stop offset="1" stop-color="#E25E52"/>
</linearGradient>
<linearGradient id="paint49_linear_701_1480" x1="27.6671" y1="128.547" x2="27.6671" y2="137.87" gradientUnits="userSpaceOnUse">
<stop stop-color="#FFCBCA"/>
<stop offset="1" stop-color="#E994A8"/>
</linearGradient>
<linearGradient id="paint50_linear_701_1480" x1="3.56868" y1="127.536" x2="3.56868" y2="138.143" gradientUnits="userSpaceOnUse">
<stop stop-color="#FFCBCA"/>
<stop offset="1" stop-color="#E994A8"/>
</linearGradient>
<linearGradient id="paint51_linear_701_1480" x1="13.5808" y1="152.571" x2="19.3929" y2="90.5759" gradientUnits="userSpaceOnUse">
<stop stop-color="#8AB9FD"/>
<stop offset="1" stop-color="#0056E9"/>
</linearGradient>
<linearGradient id="paint52_linear_701_1480" x1="35.7498" y1="35.0772" x2="31.7255" y2="72.0284" gradientUnits="userSpaceOnUse">
<stop stop-color="#FFCBCA"/>
<stop offset="1" stop-color="#E994A8"/>
</linearGradient>
<linearGradient id="paint53_linear_701_1480" x1="24.0895" y1="88.5416" x2="26.0269" y2="63.4481" gradientUnits="userSpaceOnUse">
<stop stop-color="#E6832C"/>
<stop offset="1" stop-color="#E9A347"/>
</linearGradient>
<linearGradient id="paint54_linear_701_1480" x1="14.3931" y1="87.7929" x2="16.3305" y2="62.6995" gradientUnits="userSpaceOnUse">
<stop stop-color="#E6832C"/>
<stop offset="1" stop-color="#E9A347"/>
</linearGradient>
<linearGradient id="paint55_linear_701_1480" x1="22.0312" y1="48.3865" x2="-1.70146" y2="66.5147" gradientUnits="userSpaceOnUse">
<stop stop-color="#FFCBCA"/>
<stop offset="1" stop-color="#E994A8"/>
</linearGradient>
<linearGradient id="paint56_linear_701_1480" x1="3.23395" y1="86.9313" x2="5.17127" y2="61.8379" gradientUnits="userSpaceOnUse">
<stop stop-color="#E6832C"/>
<stop offset="1" stop-color="#E9A347"/>
</linearGradient>
<linearGradient id="paint57_linear_701_1480" x1="25.4376" y1="52.8265" x2="1.69626" y2="70.9612" gradientUnits="userSpaceOnUse">
<stop stop-color="#FFCBCA"/>
<stop offset="1" stop-color="#E994A8"/>
</linearGradient>
<linearGradient id="paint58_linear_701_1480" x1="47.4661" y1="79.8789" x2="35.3807" y2="64.1494" gradientUnits="userSpaceOnUse">
<stop stop-color="#8AB9FD"/>
<stop offset="1" stop-color="#0056E9"/>
</linearGradient>
<linearGradient id="paint59_linear_701_1480" x1="42.7587" y1="35.6165" x2="38.6995" y2="72.8877" gradientUnits="userSpaceOnUse">
<stop stop-color="#FFCBCA"/>
<stop offset="1" stop-color="#E994A8"/>
</linearGradient>
<linearGradient id="paint60_linear_701_1480" x1="39.6758" y1="61.6247" x2="38.5406" y2="66.6816" gradientUnits="userSpaceOnUse">
<stop stop-color="#FFCBCA"/>
<stop offset="1" stop-color="#E994A8"/>
</linearGradient>
<linearGradient id="paint61_linear_701_1480" x1="38.7917" y1="62.7755" x2="37.8971" y2="66.7604" gradientUnits="userSpaceOnUse">
<stop stop-color="#FFCBCA"/>
<stop offset="1" stop-color="#E994A8"/>
</linearGradient>
<linearGradient id="paint62_linear_701_1480" x1="38.4397" y1="63.7533" x2="37.404" y2="68.3669" gradientUnits="userSpaceOnUse">
<stop stop-color="#FFCBCA"/>
<stop offset="1" stop-color="#E994A8"/>
</linearGradient>
<linearGradient id="paint63_linear_701_1480" x1="19.8918" y1="33.1257" x2="15.8326" y2="70.3969" gradientUnits="userSpaceOnUse">
<stop stop-color="#FFCBCA"/>
<stop offset="1" stop-color="#E994A8"/>
</linearGradient>
<linearGradient id="paint64_linear_701_1480" x1="20.5331" y1="33.1955" x2="16.4739" y2="70.4667" gradientUnits="userSpaceOnUse">
<stop stop-color="#FFCBCA"/>
<stop offset="1" stop-color="#E994A8"/>
</linearGradient>
<linearGradient id="paint65_linear_701_1480" x1="32.1921" y1="133.902" x2="32.1921" y2="142.399" gradientUnits="userSpaceOnUse">
<stop stop-color="#8AB9FD"/>
<stop offset="1" stop-color="#0056E9"/>
</linearGradient>
<linearGradient id="paint66_linear_701_1480" x1="32.192" y1="139.673" x2="32.192" y2="142.462" gradientUnits="userSpaceOnUse">
<stop stop-color="#8AB9FD"/>
<stop offset="0.1912" stop-color="#70A6F9"/>
<stop offset="1" stop-color="#0056E9"/>
</linearGradient>
<linearGradient id="paint67_linear_701_1480" x1="32.1823" y1="135.394" x2="32.1823" y2="136.544" gradientUnits="userSpaceOnUse">
<stop stop-color="#8AB9FD"/>
<stop offset="0.1912" stop-color="#70A6F9"/>
<stop offset="1" stop-color="#0056E9"/>
</linearGradient>
<linearGradient id="paint68_linear_701_1480" x1="7.03997" y1="133.902" x2="7.03997" y2="142.399" gradientUnits="userSpaceOnUse">
<stop stop-color="#8AB9FD"/>
<stop offset="1" stop-color="#0056E9"/>
</linearGradient>
<linearGradient id="paint69_linear_701_1480" x1="7.03954" y1="139.673" x2="7.03954" y2="142.462" gradientUnits="userSpaceOnUse">
<stop stop-color="#8AB9FD"/>
<stop offset="0.1912" stop-color="#70A6F9"/>
<stop offset="1" stop-color="#0056E9"/>
</linearGradient>
<linearGradient id="paint70_linear_701_1480" x1="7.02976" y1="135.394" x2="7.02976" y2="136.544" gradientUnits="userSpaceOnUse">
<stop stop-color="#8AB9FD"/>
<stop offset="0.1912" stop-color="#70A6F9"/>
<stop offset="1" stop-color="#0056E9"/>
</linearGradient>
<linearGradient id="paint71_linear_701_1480" x1="18.5282" y1="51.5649" x2="1.78377" y2="126.153" gradientUnits="userSpaceOnUse">
<stop stop-color="#E4816F"/>
<stop offset="1" stop-color="#E25E52"/>
</linearGradient>
<linearGradient id="paint72_linear_701_1480" x1="31.637" y1="54.51" x2="14.8927" y2="129.098" gradientUnits="userSpaceOnUse">
<stop stop-color="#E4816F"/>
<stop offset="1" stop-color="#E25E52"/>
</linearGradient>
<linearGradient id="paint73_linear_701_1480" x1="27.0156" y1="53.4722" x2="10.2713" y2="128.06" gradientUnits="userSpaceOnUse">
<stop stop-color="#E4816F"/>
<stop offset="1" stop-color="#E25E52"/>
</linearGradient>
<linearGradient id="paint74_linear_701_1480" x1="21.819" y1="52.3055" x2="5.07458" y2="126.894" gradientUnits="userSpaceOnUse">
<stop stop-color="#E4816F"/>
<stop offset="1" stop-color="#E25E52"/>
</linearGradient>
<linearGradient id="paint75_linear_701_1480" x1="12.9595" y1="50.3148" x2="-3.78488" y2="124.903" gradientUnits="userSpaceOnUse">
<stop stop-color="#E4816F"/>
<stop offset="1" stop-color="#E25E52"/>
</linearGradient>
<linearGradient id="paint76_linear_701_1480" x1="23.6909" y1="52.7244" x2="7.24218" y2="125.996" gradientUnits="userSpaceOnUse">
<stop stop-color="#E4816F"/>
<stop offset="1" stop-color="#E25E52"/>
</linearGradient>
<linearGradient id="paint77_linear_701_1480" x1="88.2828" y1="1.29719" x2="94.856" y2="8.42395" gradientUnits="userSpaceOnUse">
<stop stop-color="#E4816F"/>
<stop offset="1" stop-color="#E25E52"/>
</linearGradient>
<linearGradient id="paint78_linear_701_1480" x1="9.82704" y1="13.4614" x2="12.8519" y2="16.741" gradientUnits="userSpaceOnUse">
<stop stop-color="#E4816F"/>
<stop offset="1" stop-color="#E25E52"/>
</linearGradient>
<linearGradient id="paint79_linear_701_1480" x1="-4.36366" y1="106.305" x2="-4.18299" y2="106.305" gradientUnits="userSpaceOnUse">
<stop stop-color="#8AB9FD"/>
<stop offset="1" stop-color="#0056E9"/>
</linearGradient>
<linearGradient id="paint80_linear_701_1480" x1="167.732" y1="115.914" x2="164.438" y2="112.62" gradientUnits="userSpaceOnUse">
<stop stop-color="#E6832C"/>
<stop offset="1" stop-color="#E9A347"/>
</linearGradient>
<linearGradient id="paint81_linear_701_1480" x1="169.773" y1="77.8342" x2="172.113" y2="80.3719" gradientUnits="userSpaceOnUse">
<stop stop-color="#E4816F"/>
<stop offset="1" stop-color="#E25E52"/>
</linearGradient>
<linearGradient id="paint82_linear_701_1480" x1="159.723" y1="59.774" x2="165.864" y2="59.774" gradientUnits="userSpaceOnUse">
<stop stop-color="#8AB9FD"/>
<stop offset="1" stop-color="#0056E9"/>
</linearGradient>
<linearGradient id="paint83_linear_701_1480" x1="-4.48072" y1="113.846" x2="1.66075" y2="113.846" gradientUnits="userSpaceOnUse">
<stop stop-color="#8AB9FD"/>
<stop offset="1" stop-color="#0056E9"/>
</linearGradient>
<linearGradient id="paint84_linear_701_1480" x1="161.293" y1="66.1305" x2="163.183" y2="66.1305" gradientUnits="userSpaceOnUse">
<stop stop-color="#8AB9FD"/>
<stop offset="1" stop-color="#0056E9"/>
</linearGradient>
<linearGradient id="paint85_linear_701_1480" x1="81.6714" y1="128.885" x2="96.2478" y2="141.248" gradientUnits="userSpaceOnUse">
<stop stop-color="#8AB9FD"/>
<stop offset="1" stop-color="#0056E9"/>
</linearGradient>
<linearGradient id="paint86_linear_701_1480" x1="99.159" y1="24.2305" x2="95.8524" y2="36.696" gradientUnits="userSpaceOnUse">
<stop stop-color="#E4816F"/>
<stop offset="1" stop-color="#E25E52"/>
</linearGradient>
<linearGradient id="paint87_linear_701_1480" x1="33.2637" y1="81.6551" x2="36.4889" y2="88.4018" gradientUnits="userSpaceOnUse">
<stop stop-color="#E4816F"/>
<stop offset="1" stop-color="#E25E52"/>
</linearGradient>
<linearGradient id="paint88_linear_701_1480" x1="153.153" y1="22.5298" x2="151.108" y2="29.7225" gradientUnits="userSpaceOnUse">
<stop stop-color="#E4816F"/>
<stop offset="1" stop-color="#E25E52"/>
</linearGradient>
</defs>
</svg>
