<svg width="111" height="114" viewBox="0 0 111 114" fill="none" xmlns="http://www.w3.org/2000/svg">
<path d="M68.3665 15.3382C50.7635 19.0571 53.3854 39.6183 23.0798 51.1567C-9.40222 63.5239 10.2713 110.178 47.2275 112.835C84.0107 115.478 100.974 98.8924 104.75 67.3728C107.59 43.6717 94.5254 9.81161 68.3665 15.3382Z" fill="#ECF2FA"/>
<path d="M26.9831 46.9305C34.8776 44.2177 46.8441 31.5399 42.5165 17.3399C38.1893 3.14025 3.67588 54.9388 26.9831 46.9305Z" fill="#ECF2FA"/>
<mask id="mask0_1540_7440" style="mask-type:luminance" maskUnits="userSpaceOnUse" x="13" y="36" width="92" height="78">
<path d="M104.19 113.011H33.7239L13.8711 56.6888L33.7239 36.1621H104.19V113.011Z" fill="white"/>
</mask>
<g mask="url(#mask0_1540_7440)">
<path d="M103.758 45.078V145.446C103.758 149.653 100.334 153.081 96.123 153.081H76.0449V153.065H50.7118C49.0585 152.967 47.5452 152.339 46.3422 151.355C44.6283 149.952 43.5352 147.825 43.5352 145.446V45.078C43.5352 40.8672 46.9629 37.4434 51.1698 37.4434H96.1233C100.334 37.4434 103.758 40.8672 103.758 45.078Z" fill="#101C3A"/>
<path d="M102.061 45.0761V145.447C102.061 148.725 99.4037 151.383 96.1226 151.383H51.1698C47.8921 151.383 45.2344 148.725 45.2344 145.447V45.0761C45.2344 41.7983 47.8921 39.1406 51.1698 39.1406H96.1226C99.4034 39.1406 102.061 41.7983 102.061 45.0761Z" fill="#EBF1FD"/>
<path d="M80.7282 40.1289H66.7333C66.421 40.1289 66.168 40.3822 66.168 40.6942C66.168 41.0065 66.421 41.2595 66.7333 41.2595H80.7282C81.0405 41.2595 81.2938 41.0065 81.2938 40.6942C81.2942 40.3822 81.0405 40.1289 80.7282 40.1289Z" fill="#101C3A"/>
<path d="M52.2928 44.4171L50.418 46.293L50.6555 46.5303L52.5303 44.6545L52.2928 44.4171Z" fill="#101C3A"/>
<path d="M50.6554 44.409L50.418 44.6465L52.2933 46.5218L52.5307 46.2844L50.6554 44.409Z" fill="#101C3A"/>
<path d="M96.735 45.9238H93.7266V46.2596H96.735V45.9238Z" fill="#361E4D"/>
<path d="M62.7405 87.1602C62.7405 87.1602 69.24 93.329 72.861 94.9161C75.1627 95.9248 70.9379 100.307 70.9379 100.307C70.9379 100.307 73.3918 105.604 73.8313 106.426C77.3294 112.974 84.5905 124.324 88.4688 131.582C92.5805 139.278 79.0345 154.309 72.5128 140.372C69.1272 133.138 65.4177 114.16 63.6866 105.95L62.3783 102.046C61.8909 101.053 61.1626 99.851 60.0636 98.4012C55.9072 92.9205 62.7405 87.1602 62.7405 87.1602Z" fill="#F8A3A2"/>
<path d="M57.9644 99.7818C56.4687 101.116 54.1132 103.278 54.1689 105.22C54.225 107.162 61.682 106.182 61.682 106.182L79.6784 78.9943L68.3895 76.7559C68.3895 76.7559 59.4602 98.4474 57.9644 99.7818Z" fill="#101C3A"/>
<path d="M74.8452 82.1119L61.5977 102.82L61.9121 103.021L75.1597 82.3131L74.8452 82.1119Z" fill="white"/>
<path d="M87.7561 73.0289L57.6185 43.3203L40.9297 75.8741L82.4192 83.4406C84.0392 84.271 86.5469 82.6135 88.0209 79.738C89.4944 76.8632 89.3761 73.8593 87.7561 73.0289Z" fill="#425FEC"/>
<path d="M87.7579 73.0286L83.8992 69.2246C84.0045 72.1389 83.3798 77.9632 77.6289 82.5662L82.4204 83.4402C84.0404 84.2706 86.5481 82.6131 88.022 79.7377C89.4962 76.8628 89.3779 73.8589 87.7579 73.0286Z" fill="#101C3A"/>
<path d="M57.7044 42.0666C56.6761 41.5401 55.5485 41.232 54.3529 41.1544C48.5541 40.7756 41.7354 45.9123 37.7691 53.6461C32.8081 63.3252 33.7898 73.4043 40.0046 76.5928C41.0332 77.1193 42.1609 77.427 43.3564 77.5053C49.1553 77.8838 55.9739 72.7461 59.9402 65.0123C64.9022 55.3316 63.9193 45.2531 57.7044 42.0666Z" fill="#390D9F"/>
<path d="M57.0354 43.375C51.6007 40.5889 43.5337 45.4719 39.0174 54.2819C34.5008 63.0918 35.2454 72.4922 40.6798 75.2783C46.1145 78.0642 54.1814 73.1811 58.6981 64.3711C63.214 55.5615 62.4697 46.1611 57.0354 43.375Z" fill="#CFE0FA"/>
<path d="M40.852 75.5567C40.7673 75.5172 40.6831 75.4765 40.6 75.4338C35.089 72.6082 34.3098 63.0843 38.862 54.2032C43.4145 45.3212 51.6089 40.3958 57.1141 43.2207C62.6254 46.0463 63.4045 55.5699 58.852 64.4509C54.3683 73.1976 46.3588 78.1091 40.852 75.5567ZM56.7144 43.4128C51.3768 40.9389 43.5703 45.7816 39.1717 54.3617C34.7066 63.0722 35.4183 72.3865 40.7584 75.1244C46.08 77.8665 54.0775 73.0037 58.5427 64.2928C63.0081 55.5823 62.2964 46.2683 56.9559 43.5304C56.8764 43.4897 56.7952 43.4502 56.7144 43.4128Z" fill="#101C3A"/>
<path d="M53.0864 57.3714L50.4219 63.2348L55.807 68.9062C56.8695 67.5529 57.8397 66.0396 58.6919 64.3772C59.6182 62.5662 60.3269 60.7411 60.8026 58.9516L53.4196 57.3672L53.0864 57.3714Z" fill="#101C3A"/>
<path d="M53.4235 57.3667C52.5113 56.8992 51.099 57.8325 50.269 59.4515C49.439 61.0709 49.5055 62.7622 50.4177 63.2301C51.3299 63.6979 52.7422 62.7642 53.5722 61.1449C54.4022 59.5262 54.3357 57.8345 53.4235 57.3667Z" fill="#425FEC"/>
<path d="M36.2589 39.8787L35.6914 40.3379L40.2021 45.9119L40.7696 45.4527L36.2589 39.8787Z" fill="#101C3A"/>
<path d="M33.3307 66.54L19.6875 67.748L19.7519 68.4755L33.3951 67.2674L33.3307 66.54Z" fill="#101C3A"/>
<path d="M27.8457 57.9318L27.6797 58.6426L32.7495 59.8265L32.9154 59.1156L27.8457 57.9318Z" fill="#101C3A"/>
<path d="M21.8589 51.8705L21.5742 52.543L33.4315 57.5619L33.7161 56.8894L21.8589 51.8705Z" fill="#101C3A"/>
<path d="M60.5061 88.0721C57.1221 88.6805 59.0195 92.0971 59.0195 92.0971C56.1359 92.8845 57.3076 95.5069 57.3076 95.5069C56.7449 96.2225 56.4224 96.9075 56.2617 97.5419C56.4094 98.1307 58.2312 99.6871 59.9614 98.3443C61.6915 97.0014 60.3252 95.6478 60.3252 95.6478C62.0677 95.7831 63.2743 94.3995 63.3154 93.6167C63.3545 92.8483 61.9396 92.1441 61.8826 92.1164C61.939 92.1085 63.2173 91.9286 63.8863 90.6529C64.554 89.3821 63.1808 88.2599 63.1126 88.2038C63.9228 88.3489 64.4698 88.316 64.8855 88.1549C65.4942 87.9218 65.8173 87.4168 66.261 86.8046C67.0072 85.775 65.8427 83.2725 62.3517 84.4054C58.8604 85.538 60.5061 88.0721 60.5061 88.0721Z" fill="#F8A3A2"/>
<path d="M61.7692 92.0945C61.3816 91.8767 60.9385 91.7629 60.4922 91.7313C60.2686 91.715 60.0423 91.729 59.8216 91.7685C59.5996 91.8033 59.3877 91.8868 59.1914 91.9875C59.4085 91.939 59.6201 91.8949 59.8366 91.8793C60.0518 91.8636 60.2673 91.8565 60.4828 91.8741C60.6979 91.8871 60.9128 91.9152 61.127 91.952C61.3412 91.9918 61.5553 92.0361 61.7692 92.0945Z" fill="#D17F80"/>
<path d="M60.152 95.5689C59.7641 95.3511 59.321 95.2376 58.875 95.2057C58.6514 95.1897 58.4251 95.2037 58.2044 95.2429C57.9824 95.2777 57.7705 95.3612 57.5742 95.4623C57.791 95.4134 58.0029 95.3697 58.2191 95.3537C58.4342 95.3384 58.6501 95.3309 58.8653 95.3485C59.0807 95.3615 59.2953 95.3896 59.5098 95.4264C59.7237 95.4662 59.9382 95.5105 60.152 95.5689Z" fill="#D17F80"/>
<path d="M63.1091 88.2019C62.7211 87.9841 62.2781 87.8703 61.8321 87.8387C61.6081 87.8224 61.3822 87.8364 61.1614 87.8759C60.9394 87.9108 60.7275 87.9942 60.5312 88.095C60.7481 88.0464 60.96 88.0024 61.1764 87.9867C61.3916 87.9711 61.6074 87.9636 61.8226 87.9815C62.0381 87.9942 62.2526 88.0226 62.4671 88.0594C62.6813 88.0995 62.8952 88.1435 63.1091 88.2019Z" fill="#D17F80"/>
<path d="M70.4184 98.8399C70.4184 98.8399 73.4285 98.7372 74.0522 95.2002C74.6755 91.6633 75.102 90.2294 76.453 88.4487C77.804 86.6684 73.9273 85.3878 71.3691 90.2764C68.8108 95.1643 67.2704 96.0257 70.4184 98.8399Z" fill="#F8A3A2"/>
<path d="M71.455 90.5078C71.3862 90.7116 71.3591 90.93 71.3692 91.1481C71.379 91.3662 71.4331 91.5856 71.5355 91.7835C71.5844 91.8843 71.6555 91.971 71.7252 92.058C71.808 92.1324 71.8847 92.2139 71.9834 92.2667C72.0731 92.3322 72.1784 92.3674 72.2782 92.4088C72.3277 92.4316 72.3835 92.4359 72.4353 92.4496C72.4878 92.462 72.5403 92.4724 72.5928 92.4818C72.4956 92.4336 72.3939 92.4039 72.3023 92.3518C72.2117 92.2986 72.1178 92.254 72.0392 92.1858C71.9535 92.1278 71.8856 92.0508 71.8142 91.9785C71.7543 91.8966 71.6897 91.8181 71.647 91.7252C71.5515 91.5455 71.4957 91.3453 71.4667 91.1396C71.4419 90.9333 71.4341 90.721 71.455 90.5078Z" fill="#D17F80"/>
</g>
<path d="M73.8253 3.27139L73.7695 3.27693L74.2299 7.83889L77.8786 5.21608L77.7548 5.01558C76.8784 3.82595 75.4084 3.11523 73.8253 3.27139Z" fill="#425FEC"/>
<path d="M11.0627 65.2422L7.32031 67.9054L7.32129 67.9067L7.47419 68.1467C7.69654 68.4561 7.96485 68.7537 8.31532 69.0266C8.7675 69.3803 9.27707 69.6287 9.80913 69.7709L11.0627 65.2422Z" fill="#FC721A"/>
<path d="M62.8042 3.79646C62.8042 4.47458 62.2539 5.02457 61.5758 5.02457C60.8973 5.02457 60.3477 4.47458 60.3477 3.79646C60.3477 3.11802 60.897 2.56836 61.5758 2.56836C62.2539 2.56836 62.8042 3.11802 62.8042 3.79646Z" fill="#390D9F"/>
<path d="M31.3156 77.0406C31.3156 77.7187 30.7656 78.2687 30.0875 78.2687C29.409 78.2687 28.8594 77.719 28.8594 77.0406C28.8594 76.3622 29.409 75.8125 30.0875 75.8125C30.7656 75.8125 31.3156 76.3618 31.3156 77.0406Z" fill="#7109B5"/>
<path d="M63.5328 26.9054C64.2111 26.9054 64.7609 26.3556 64.7609 25.6773C64.7609 24.9991 64.2111 24.4492 63.5328 24.4492C62.8545 24.4492 62.3047 24.9991 62.3047 25.6773C62.3047 26.3556 62.8545 26.9054 63.5328 26.9054Z" fill="#FC721A"/>
<path d="M110.173 37.1096C110.173 37.5566 109.811 37.9188 109.364 37.9188C108.917 37.9188 108.555 37.5566 108.555 37.1096C108.555 36.6627 108.917 36.3008 109.364 36.3008C109.811 36.3008 110.173 36.663 110.173 37.1096Z" fill="#FC721A"/>
<path d="M54.0065 18.7711C51.0387 25.0424 43.5491 27.7206 37.2779 24.7529C31.0066 21.7851 28.3284 14.2956 31.2961 8.02398C34.2639 1.75272 41.7534 -0.925508 48.025 2.04222C54.2963 5.01028 56.9745 12.4999 54.0065 18.7711Z" fill="#FC721A"/>
<path d="M48.4759 9.43374C47.135 8.3204 45.3129 8.28095 43.9192 9.18629C43.0079 7.68238 41.2334 6.92537 39.5003 7.4483C37.3708 8.09121 36.1107 10.4232 36.6861 12.6577C37.2616 14.8919 41.7251 19.8105 41.7251 19.8105C41.7251 19.8105 47.7022 17.1757 49.0846 15.3408C50.4675 13.5057 50.195 10.861 48.4759 9.43374Z" fill="white"/>
<path d="M22.2058 94.9815L9.186 88.7295C8.79022 88.5394 8.81891 87.9382 9.24338 87.8254C9.24664 87.8248 9.2499 87.8238 9.25284 87.8231L32.1627 82.0214C32.166 82.0207 32.1695 82.0197 32.1728 82.0191C32.5996 81.9167 32.9106 82.4318 32.653 82.7872L24.2581 94.3712C23.7094 95.1324 22.8885 95.3401 22.2058 94.9815Z" fill="#425FEC"/>
<path d="M18.3896 94.5246L13.0944 102.077C12.8571 102.415 12.3322 102.319 12.2308 101.918L9.32012 90.425C9.21971 90.0276 9.62821 89.6937 9.99758 89.8711L18.2031 93.8123C18.4717 93.9411 18.5604 94.2804 18.3896 94.5246Z" fill="#425FEC"/>
<path d="M36.2528 97.5118C36.2459 97.5766 36.1778 97.637 36.0692 97.6813L13.4127 103.419C13.2963 103.432 13.208 103.411 13.1708 103.357C13.1284 103.295 13.1476 103.2 13.2171 103.079C13.2379 103.044 13.2676 103.003 13.2996 102.958L19.0277 94.7889C19.2138 94.5255 19.5633 94.4339 19.8548 94.5727L21.8849 95.5462C22.385 95.7855 22.9321 95.8302 23.4354 95.7024C23.9388 95.5749 24.3988 95.2753 24.7245 94.8267L26.1058 92.9228C26.2959 92.6616 26.647 92.5762 26.9359 92.7193L35.9496 97.2219C35.9988 97.2457 36.0445 97.2679 36.0797 97.2888C36.1983 97.3625 36.2606 97.4361 36.2528 97.5118Z" fill="#425FEC"/>
<path d="M33.3421 84.341L36.2201 95.7062C36.3215 96.1069 35.9059 96.4414 35.5362 96.2566L27.3766 92.1814C27.1099 92.048 27.0265 91.7073 27.2012 91.4658L32.4827 84.1763C32.723 83.8448 33.2413 83.9439 33.3421 84.341Z" fill="#425FEC"/>
<path d="M105.447 113.01H6.32422V113.763H105.447V113.01Z" fill="#131313"/>
<path d="M97.846 35.511L83.3402 32.3209C82.1675 32.0631 81.4261 30.9034 81.684 29.7307L84.8741 15.225C85.132 14.0523 86.2919 13.3109 87.4643 13.5688L101.97 16.7589C103.143 17.0167 103.884 18.1764 103.626 19.3491L100.436 33.8549C100.178 35.0275 99.019 35.7689 97.846 35.511Z" fill="#7109B5"/>
<path d="M96.1962 22.5207C95.802 24.3884 94.0503 25.5934 92.2833 25.212C90.5166 24.8305 89.4039 23.0071 89.7981 21.139C90.1923 19.271 91.9439 18.066 93.7106 18.4474C95.4776 18.8292 96.5907 20.6526 96.1962 22.5207Z" fill="white"/>
<path d="M87.1055 28.5827C87.6339 26.0783 89.5897 26.3264 91.9589 26.8376C94.3284 27.3494 96.2134 27.9304 95.6849 30.4352L87.1055 28.5827Z" fill="white"/>
<path d="M26.3872 24.5169L2.71186 29.7214C0.948437 30.1065 -0.153172 31.9432 0.264129 33.8032L3.7812 49.4918C4.19817 51.352 5.98214 52.5586 7.74556 52.1736L24.2978 48.4655L33.5739 52.4562L31.4212 46.9694C33.1847 46.5847 34.2859 44.7479 33.869 42.8876L30.3519 27.1987C29.9346 25.3388 28.1506 24.1319 26.3872 24.5169Z" fill="#390D9F"/>
<path d="M10.5031 39.4496C10.2664 38.3549 9.18697 37.6591 8.0922 37.8958C6.99744 38.1325 6.30172 39.212 6.5384 40.3067C6.77509 41.4015 7.85454 42.0972 8.9493 41.8605C10.0441 41.6238 10.7398 40.5444 10.5031 39.4496Z" fill="white"/>
<path d="M18.2104 37.7839C17.9738 36.6892 16.8943 35.9931 15.7992 36.2298C14.7045 36.4665 14.0087 37.5463 14.2454 38.6407C14.4821 39.7355 15.5616 40.4312 16.6567 40.1945C17.7517 39.9578 18.4471 38.8787 18.2104 37.7839Z" fill="white"/>
<path d="M25.925 36.1156C25.6883 35.0209 24.6088 34.3252 23.5141 34.5618C22.4193 34.7985 21.7236 35.878 21.9603 36.9727C22.197 38.0675 23.2764 38.7632 24.3715 38.5265C25.4659 38.2898 26.1617 37.2107 25.925 36.1156Z" fill="white"/>
</svg>
