<svg width="212" height="141" viewBox="0 0 212 141" fill="none" xmlns="http://www.w3.org/2000/svg">
<g id="19948939_6192246 1" clip-path="url(#clip0_725_5648)">
<g id="OBJECTS">
<g id="Group">
<g id="Group_2">
<g id="Group_3">
<g id="Group_4">
<path id="Vector" d="M36.1418 40.3903C40.0468 44.2953 40.0468 50.6494 36.1418 54.5542C32.2367 58.4592 25.8827 58.4592 21.9776 54.5542C18.0726 50.6491 18.0726 44.2951 21.9776 40.3903C25.8829 36.4853 32.2367 36.4853 36.1418 40.3903ZM36.2619 40.2702C32.2845 36.2928 25.8355 36.2928 21.8581 40.2702C17.8806 44.2476 17.8806 50.6966 21.8581 54.674C25.8357 58.6514 32.2845 58.6514 36.2619 54.674C40.2393 50.6966 40.2393 44.2478 36.2619 40.2702Z" fill="#A8AEBA"/>
<path id="Vector_2" d="M34.25 42.2837C37.116 45.1497 37.116 49.7965 34.25 52.6624C31.3841 55.5284 26.7373 55.5284 23.8713 52.6624C21.0054 49.7965 21.0054 45.1497 23.8713 42.2837C26.7376 39.4175 31.3841 39.4175 34.25 42.2837ZM34.3817 42.1517C31.4477 39.2177 26.6737 39.2177 23.7396 42.1517C20.8055 45.0858 20.8055 49.8598 23.7396 52.7938C26.6737 55.7279 31.4477 55.7279 34.3817 52.7938C37.3158 49.8598 37.3158 45.0858 34.3817 42.1517Z" fill="#A8AEBA"/>
<path id="Vector_3" d="M33.9821 42.5492C36.7011 45.2682 36.7011 49.6764 33.9821 52.3954L36.5637 54.977C40.7085 50.8322 40.7085 44.1127 36.5637 39.9679C32.419 35.8232 25.6994 35.8232 21.5547 39.9679L24.1363 42.5495C26.855 39.8303 31.2634 39.8303 33.9821 42.5492Z" fill="#DEE0E0"/>
</g>
<g id="Group_5">
<path id="Vector_4" d="M34.0238 46.7416C33.9905 46.3602 33.9139 45.9772 33.7878 45.5982C33.6617 45.2194 33.4935 44.8664 33.2917 44.5413L32.3434 45.0187C32.1489 44.7219 31.9174 44.4571 31.6573 44.2281L32.2656 43.3566C31.6658 42.8535 30.9544 42.497 30.192 42.3184L29.8587 43.3278C29.5195 43.2569 29.1687 43.23 28.8146 43.2523L28.6286 42.207C28.2473 42.2404 27.8642 42.317 27.4852 42.4431C27.1061 42.5691 26.7534 42.7376 26.4283 42.9391L26.9057 43.8875C26.6089 44.082 26.3441 44.3135 26.1151 44.5735L25.2436 43.9652C24.7405 44.565 24.384 45.2765 24.2054 46.0389L25.2148 46.3721C25.1439 46.7113 25.117 47.0621 25.1391 47.4163L24.0938 47.6023C24.1271 47.9836 24.2037 48.3669 24.3298 48.7457C24.4558 49.1247 24.6243 49.4775 24.8259 49.8026L25.7742 49.3251C25.9687 49.6219 26.2002 49.8868 26.4602 50.1158L25.8519 50.9872C26.4518 51.4904 27.1632 51.8468 27.9256 52.0255L28.2588 51.0163C28.598 51.0873 28.9488 51.1141 29.303 51.0921L29.489 52.1374C29.8703 52.104 30.2533 52.0274 30.6324 51.9014C31.0115 51.7753 31.3642 51.6068 31.6893 51.4053L31.2119 50.4569C31.5087 50.2625 31.7735 50.031 32.0025 49.7709L32.8739 50.3792C33.3771 49.7794 33.7335 49.0679 33.9122 48.3056L32.9031 47.9723C32.974 47.6331 33.0009 47.2823 32.9785 46.9281L34.0238 46.7416ZM29.727 49.1799C28.6178 49.549 27.4196 48.9489 27.0504 47.8397C26.6813 46.7305 27.2814 45.5323 28.3906 45.1632C29.4998 44.794 30.698 45.3941 31.0671 46.5033C31.436 47.6125 30.8362 48.811 29.727 49.1799Z" fill="#DEE0E0"/>
</g>
</g>
<g id="Group_6">
<g id="Group_7">
<path id="Vector_5" d="M43.9062 82.7306V11.3945H168.839V82.7306H43.9062Z" fill="#07076C" stroke="#BBBACE"/>
<path id="Vector_6" d="M69.2188 56.3542V32.3789H73.4665V56.3542H69.2188Z" fill="#DEE0E0" stroke="#BBBACE"/>
<path id="Vector_7" d="M76.1602 56.3601V40.3184H80.6374V56.3601H76.1602Z" fill="#DEE0E0" stroke="#BBBACE"/>
<path id="Vector_8" d="M83.4297 56.3588V46.4043H87.9069V56.3588H83.4297Z" fill="#DEE0E0" stroke="#BBBACE"/>
<g id="Vector_9">
<mask id="path-9-inside-1_725_5648" fill="white">
<path d="M88.4052 57.7559H68.1484V58.7192H88.4052V57.7559Z"/>
</mask>
<path d="M88.4052 57.7559H68.1484V58.7192H88.4052V57.7559Z" fill="#DEE0E0"/>
<path d="M68.1484 57.7559V56.7559H67.1484V57.7559H68.1484ZM88.4052 57.7559H89.4052V56.7559H88.4052V57.7559ZM88.4052 58.7192V59.7192H89.4052V58.7192H88.4052ZM68.1484 58.7192H67.1484V59.7192H68.1484V58.7192ZM68.1484 58.7559H88.4052V56.7559H68.1484V58.7559ZM87.4052 57.7559V58.7192H89.4052V57.7559H87.4052ZM88.4052 57.7192H68.1484V59.7192H88.4052V57.7192ZM69.1484 58.7192V57.7559H67.1484V58.7192H69.1484Z" fill="#BBBACE" mask="url(#path-9-inside-1_725_5648)"/>
</g>
<path id="Vector_10" d="M88.3047 28.9232V24.1387H93.0892V28.9232H88.3047Z" fill="#DEE0E0" stroke="#BBBACE"/>
<path id="Vector_11" d="M95.8203 28.9232V24.1387H100.605V28.9232H95.8203Z" fill="#DEE0E0" stroke="#BBBACE"/>
<path id="Vector_12" d="M103.336 28.9232V24.1387H108.12V28.9232H103.336Z" fill="#DEE0E0" stroke="#BBBACE"/>
<path id="Vector_13" d="M110.852 28.9232V24.1387H115.636V28.9232H110.852Z" fill="#DEE0E0" stroke="#BBBACE"/>
<path id="Vector_14" d="M169.899 13.8702H43.3667C42.6832 13.8702 42.1289 13.3161 42.1289 12.6324C42.1289 11.9489 42.6832 11.3945 43.3667 11.3945H169.899C170.582 11.3945 171.136 11.9489 171.136 12.6324C171.136 13.3162 170.582 13.8702 169.899 13.8702Z" fill="#BACECD" stroke="#BBBACE"/>
<path id="Vector_15" d="M47.0547 23.1365V22.7031H62.9338V23.1365H47.0547Z" fill="#BACECD" stroke="#BBBACE"/>
<path id="Vector_16" d="M47.0547 26.0291V25.5957H62.9338V26.0291H47.0547Z" fill="#BACECD" stroke="#BBBACE"/>
<path id="Vector_17" d="M47.0547 28.4939V28.0605H62.9338V28.4939H47.0547Z" fill="#BACECD" stroke="#BBBACE"/>
<path id="Vector_18" d="M47.0547 30.9568V30.5234H62.9338V30.9568H47.0547Z" fill="#BACECD" stroke="#BBBACE"/>
<g id="Group_8">
<g id="Group_9">
<path id="Vector_19" d="M89.6846 43.647H84.8388V37.6211H78.6736L74.6094 28.9336" stroke="#BBBACE" stroke-width="3" stroke-miterlimit="10"/>
<g id="Group_10">
<path id="Vector_20" d="M74.2653 28.2009L74.9885 28.4629L74.0029 28.924L74.2653 28.2009Z" fill="#BACECD" stroke="#BBBACE"/>
</g>
</g>
</g>
<g id="Vector_21">
<mask id="path-22-inside-2_725_5648" fill="white">
<path d="M163.095 20.9707H151.102V21.8806H163.095V20.9707Z"/>
</mask>
<path d="M163.095 20.9707H151.102V21.8806H163.095V20.9707Z" fill="#DEE0E0"/>
<path d="M151.102 20.9707V19.9707H150.102V20.9707H151.102ZM163.095 20.9707H164.095V19.9707H163.095V20.9707ZM163.095 21.8806V22.8806H164.095V21.8806H163.095ZM151.102 21.8806H150.102V22.8806H151.102V21.8806ZM151.102 21.9707H163.095V19.9707H151.102V21.9707ZM162.095 20.9707V21.8806H164.095V20.9707H162.095ZM163.095 20.8806H151.102V22.8806H163.095V20.8806ZM152.102 21.8806V20.9707H150.102V21.8806H152.102Z" fill="#BBBACE" mask="url(#path-22-inside-2_725_5648)"/>
</g>
<g id="Vector_22">
<mask id="path-24-inside-3_725_5648" fill="white">
<path d="M163.095 23.1816H151.102V24.0915H163.095V23.1816Z"/>
</mask>
<path d="M163.095 23.1816H151.102V24.0915H163.095V23.1816Z" fill="#DEE0E0"/>
<path d="M151.102 23.1816V22.1816H150.102V23.1816H151.102ZM163.095 23.1816H164.095V22.1816H163.095V23.1816ZM163.095 24.0915V25.0915H164.095V24.0915H163.095ZM151.102 24.0915H150.102V25.0915H151.102V24.0915ZM151.102 24.1816H163.095V22.1816H151.102V24.1816ZM162.095 23.1816V24.0915H164.095V23.1816H162.095ZM163.095 23.0915H151.102V25.0915H163.095V23.0915ZM152.102 24.0915V23.1816H150.102V24.0915H152.102Z" fill="#BBBACE" mask="url(#path-24-inside-3_725_5648)"/>
</g>
<g id="Vector_23">
<mask id="path-26-inside-4_725_5648" fill="white">
<path d="M163.095 25.3945H151.102V26.3044H163.095V25.3945Z"/>
</mask>
<path d="M163.095 25.3945H151.102V26.3044H163.095V25.3945Z" fill="#DEE0E0"/>
<path d="M151.102 25.3945V24.3945H150.102V25.3945H151.102ZM163.095 25.3945H164.095V24.3945H163.095V25.3945ZM163.095 26.3044V27.3044H164.095V26.3044H163.095ZM151.102 26.3044H150.102V27.3044H151.102V26.3044ZM151.102 26.3945H163.095V24.3945H151.102V26.3945ZM162.095 25.3945V26.3044H164.095V25.3945H162.095ZM163.095 25.3044H151.102V27.3044H163.095V25.3044ZM152.102 26.3044V25.3945H150.102V26.3044H152.102Z" fill="#BBBACE" mask="url(#path-26-inside-4_725_5648)"/>
</g>
<g id="Vector_24">
<mask id="path-28-inside-5_725_5648" fill="white">
<path d="M163.095 27.6055H151.102V28.5154H163.095V27.6055Z"/>
</mask>
<path d="M163.095 27.6055H151.102V28.5154H163.095V27.6055Z" fill="#DEE0E0"/>
<path d="M151.102 27.6055V26.6055H150.102V27.6055H151.102ZM163.095 27.6055H164.095V26.6055H163.095V27.6055ZM163.095 28.5154V29.5154H164.095V28.5154H163.095ZM151.102 28.5154H150.102V29.5154H151.102V28.5154ZM151.102 28.6055H163.095V26.6055H151.102V28.6055ZM162.095 27.6055V28.5154H164.095V27.6055H162.095ZM163.095 27.5154H151.102V29.5154H163.095V27.5154ZM152.102 28.5154V27.6055H150.102V28.5154H152.102Z" fill="#BBBACE" mask="url(#path-28-inside-5_725_5648)"/>
</g>
<g id="Vector_25">
<mask id="path-30-inside-6_725_5648" fill="white">
<path d="M163.095 29.8164H151.102V30.7263H163.095V29.8164Z"/>
</mask>
<path d="M163.095 29.8164H151.102V30.7263H163.095V29.8164Z" fill="#DEE0E0"/>
<path d="M151.102 29.8164V28.8164H150.102V29.8164H151.102ZM163.095 29.8164H164.095V28.8164H163.095V29.8164ZM163.095 30.7263V31.7263H164.095V30.7263H163.095ZM151.102 30.7263H150.102V31.7263H151.102V30.7263ZM151.102 30.8164H163.095V28.8164H151.102V30.8164ZM162.095 29.8164V30.7263H164.095V29.8164H162.095ZM163.095 29.7263H151.102V31.7263H163.095V29.7263ZM152.102 30.7263V29.8164H150.102V30.7263H152.102Z" fill="#BBBACE" mask="url(#path-30-inside-6_725_5648)"/>
</g>
<g id="Vector_26">
<mask id="path-32-inside-7_725_5648" fill="white">
<path d="M163.095 32.0293H151.102V32.9392H163.095V32.0293Z"/>
</mask>
<path d="M163.095 32.0293H151.102V32.9392H163.095V32.0293Z" fill="#DEE0E0"/>
<path d="M151.102 32.0293V31.0293H150.102V32.0293H151.102ZM163.095 32.0293H164.095V31.0293H163.095V32.0293ZM163.095 32.9392V33.9392H164.095V32.9392H163.095ZM151.102 32.9392H150.102V33.9392H151.102V32.9392ZM151.102 33.0293H163.095V31.0293H151.102V33.0293ZM162.095 32.0293V32.9392H164.095V32.0293H162.095ZM163.095 31.9392H151.102V33.9392H163.095V31.9392ZM152.102 32.9392V32.0293H150.102V32.9392H152.102Z" fill="#BBBACE" mask="url(#path-32-inside-7_725_5648)"/>
</g>
<path id="Vector_27" d="M48.9011 35.5404C48.9011 35.883 48.6233 36.1609 48.2806 36.1609C47.938 36.1609 47.6602 35.883 47.6602 35.5404C47.6602 35.1978 47.938 34.9199 48.2806 34.9199C48.6233 34.9199 48.9011 35.1978 48.9011 35.5404Z" fill="#DEE0E0" stroke="#BBBACE"/>
<path id="Vector_28" d="M52.5769 35.5404C52.5769 35.883 52.299 36.1609 51.9564 36.1609C51.6138 36.1609 51.3359 35.883 51.3359 35.5404C51.3359 35.1978 51.6138 34.9199 51.9564 34.9199C52.299 34.9199 52.5769 35.1978 52.5769 35.5404Z" fill="#DEE0E0" stroke="#BBBACE"/>
<path id="Vector_29" d="M56.2488 35.5404C56.2488 35.883 55.9709 36.1609 55.6283 36.1609C55.2857 36.1609 55.0078 35.883 55.0078 35.5404C55.0078 35.1978 55.2857 34.9199 55.6283 34.9199C55.9709 34.9199 56.2488 35.1978 56.2488 35.5404Z" fill="#DEE0E0" stroke="#BBBACE"/>
<path id="Vector_30" d="M59.9246 35.5404C59.9246 35.883 59.6467 36.1609 59.3041 36.1609C58.9615 36.1609 58.6836 35.883 58.6836 35.5404C58.6836 35.1978 58.9615 34.9199 59.3041 34.9199C59.6467 34.9199 59.9246 35.1978 59.9246 35.5404Z" fill="#DEE0E0" stroke="#BBBACE"/>
</g>
<g id="Group_11">
<path id="Vector_31" d="M197.83 32.9531H178.199C177.487 32.9531 176.91 33.5298 176.91 34.2421V45.8823C176.91 46.5918 177.487 47.1684 178.199 47.1684H183.617L183.321 49.8704L186.646 47.1684H197.83C198.543 47.1684 199.119 46.5918 199.119 45.8823V34.2421C199.119 33.5298 198.543 32.9531 197.83 32.9531Z" fill="#F3F3F4"/>
<path id="Vector_32" d="M199.119 34.2421V35.8674C198.927 35.7826 198.701 35.7148 198.339 35.7148C197.37 35.7148 197.37 36.2094 196.4 36.2094C195.43 36.2094 195.43 35.7148 194.464 35.7148C193.491 35.7148 193.491 36.2094 192.522 36.2094C191.555 36.2094 191.555 35.7148 190.586 35.7148C189.616 35.7148 189.616 36.2094 188.646 36.2094C187.68 36.2094 187.68 35.7148 186.71 35.7148C185.741 35.7148 185.741 36.2094 184.774 36.2094C183.804 36.2094 183.804 35.7148 182.835 35.7148C181.865 35.7148 181.865 36.2094 180.899 36.2094C179.929 36.2094 179.929 35.7148 178.959 35.7148C177.993 35.7148 177.993 36.2094 177.023 36.2094H176.91V34.2421C176.91 33.5298 177.487 32.9531 178.199 32.9531H197.83C198.543 32.9531 199.119 33.5298 199.119 34.2421Z" fill="#BACECD"/>
<path id="Vector_33" d="M197.619 37.6309H178.457V38.3406H197.619V37.6309Z" fill="#BACECD"/>
<path id="Vector_34" d="M189.874 39.1211H178.457V39.8309H189.874V39.1211Z" fill="#BACECD"/>
<path id="Vector_35" d="M197.616 39.1211H190.457V39.8309H197.616V39.1211Z" fill="#BACECD"/>
<path id="Vector_36" d="M193.331 41.8359H186.172V42.5457H193.331V41.8359Z" fill="#BACECD"/>
<path id="Vector_37" d="M197.617 41.8359H193.758V42.5457H197.617V41.8359Z" fill="#BACECD"/>
<path id="Vector_38" d="M189.874 40.6113H178.457V41.3211H189.874V40.6113Z" fill="#BACECD"/>
<path id="Vector_39" d="M197.616 40.6113H190.457V41.3211H197.616V40.6113Z" fill="#BACECD"/>
</g>
</g>
</g>
<g id="Group_12">
<path id="Vector_40" d="M134.956 112.239C135.088 111.239 135.193 109.774 134.264 108.266C133.034 106.268 131.692 110.143 130.742 109.323C129.792 108.504 131.756 107.605 131.665 106.452C131.575 105.299 130.27 104.239 129.481 104.052C128.691 103.865 127.741 105.867 127.173 104.935C126.605 104.004 128.161 104.252 127.758 103.302C127.355 102.352 126.306 101.285 125.487 101.013C124.668 100.74 123.897 102.623 123.192 101.796C122.488 100.969 123.161 100.814 122.304 100.211C121.448 99.6077 120.031 99.5404 118.862 99.751C117.693 99.9616 117.719 102.206 118.146 102.67C118.573 103.135 120.142 102.978 120.379 103.946C120.616 104.915 117.807 103.684 117.428 104.693C117.049 105.701 117.584 107.484 118.894 108.351C120.204 109.219 121.934 107.25 122.534 107.942C123.134 108.633 119.93 109.142 119.689 110.332C119.448 111.522 120.334 112.211 121.943 113.281C123.552 114.352 125.106 111.259 125.815 112.047C126.525 112.834 123.925 113.994 123.613 114.808C123.301 115.622 125.579 117.474 127.455 117.766C129.33 118.057 132.274 116.454 132.752 116.233C133.23 116.011 134.573 115.121 134.956 112.239Z" fill="#548282"/>
<path id="Vector_41" d="M123.105 103.984C123.105 103.984 135.927 115.964 137.339 123.079" stroke="#BACECD" stroke-miterlimit="10"/>
<path id="Vector_42" d="M141.034 108.077C141.682 107.305 142.558 106.125 142.584 104.354C142.62 102.008 139.406 104.555 139.045 103.353C138.684 102.152 140.823 102.449 141.366 101.428C141.909 100.407 141.378 98.8119 140.813 98.2299C140.247 97.6478 138.37 98.826 138.392 97.7352C138.413 96.6444 139.591 97.6897 139.762 96.6721C139.933 95.6545 139.621 94.1908 139.076 93.5212C138.531 92.8513 136.87 94.0255 136.72 92.9494C136.571 91.8732 137.221 92.1039 136.822 91.1352C136.424 90.1662 135.265 89.3488 134.166 88.8982C133.067 88.4479 131.883 90.3548 131.994 90.9758C132.105 91.5968 133.513 92.3071 133.192 93.2518C132.872 94.1962 131.163 91.6488 130.302 92.2958C129.44 92.9429 128.935 94.7344 129.574 96.1698C130.213 97.6052 132.729 96.8736 132.864 97.779C132.999 98.6844 130.023 97.392 129.181 98.2669C128.338 99.1415 128.716 100.198 129.498 101.965C130.28 103.732 133.251 101.959 133.427 103.004C133.603 104.049 130.787 103.632 130.086 104.15C129.385 104.669 130.312 107.455 131.738 108.709C133.164 109.962 136.508 110.191 137.03 110.261C137.551 110.331 139.163 110.302 141.034 108.077Z" fill="#4A7373"/>
<path id="Vector_43" d="M135.469 94.748C135.469 94.748 138.788 114.941 136.158 121.701" stroke="#BACECD" stroke-miterlimit="10"/>
<path id="Vector_44" d="M136.445 114.311C136.04 113.387 135.534 112.008 136.008 110.302C136.636 108.041 139 111.392 139.685 110.341C140.371 109.29 138.235 108.971 138.002 107.839C137.77 106.706 138.729 105.325 139.436 104.927C140.143 104.528 141.611 106.188 141.899 105.136C142.186 104.083 140.761 104.753 140.884 103.729C141.008 102.705 141.72 101.389 142.432 100.9C143.143 100.411 144.406 102.006 144.853 101.016C145.3 100.026 144.611 100.064 145.267 99.2467C145.922 98.4296 147.265 97.9725 148.447 97.8507C149.628 97.7288 150.225 99.8924 149.944 100.457C149.662 101.021 148.111 101.305 148.152 102.302C148.192 103.298 150.551 101.337 151.195 102.201C151.838 103.065 151.818 104.926 150.8 106.123C149.781 107.32 147.574 105.908 147.189 106.738C146.804 107.569 150.024 107.169 150.585 108.246C151.146 109.323 150.486 110.23 149.237 111.704C147.988 113.179 145.638 110.638 145.174 111.592C144.71 112.545 147.529 112.939 148.055 113.634C148.581 114.33 146.905 116.741 145.184 117.541C143.462 118.341 140.19 117.617 139.669 117.536C139.149 117.456 137.612 116.974 136.445 114.311Z" fill="#548282"/>
<path id="Vector_45" d="M145.546 103.094C145.546 103.094 136.548 118.158 137.163 125.385" stroke="#BACECD" stroke-miterlimit="10"/>
<path id="Vector_46" d="M131.686 119.6H142.39C142.746 119.6 143.017 119.919 142.958 120.27L142.63 122.239C142.602 122.408 142.499 122.557 142.35 122.643C142.191 122.735 142.085 122.898 142.066 123.081L141.394 129.416C141.363 129.709 141.116 129.931 140.822 129.931H133.756C133.468 129.931 133.224 129.718 133.185 129.432L132.372 123.431C132.343 123.215 132.194 123.033 131.987 122.963L131.916 122.939C131.719 122.872 131.573 122.704 131.535 122.5L131.119 120.282C131.053 119.927 131.325 119.6 131.686 119.6Z" fill="#BACECD"/>
</g>
</g>
<g id="Group_13">
<g id="Group_14">
<path id="Vector_47" d="M136.228 52.5339C143.124 52.5339 148.714 44.5868 148.714 34.7835C148.714 24.9803 143.124 17.0332 136.228 17.0332C129.332 17.0332 123.742 24.9803 123.742 34.7835C123.742 44.5868 129.332 52.5339 136.228 52.5339Z" fill="#D56071"/>
<path id="Vector_48" d="M135.715 48.5974C140.803 48.5974 144.927 42.413 144.927 34.7841C144.927 27.1552 140.803 20.9707 135.715 20.9707C130.628 20.9707 126.504 27.1552 126.504 34.7841C126.504 42.413 130.628 48.5974 135.715 48.5974Z" fill="white"/>
<path id="Vector_49" d="M135.715 44.9579C139.512 44.9579 142.59 40.3419 142.59 34.6479C142.59 28.9538 139.512 24.3379 135.715 24.3379C131.918 24.3379 128.84 28.9538 128.84 34.6479C128.84 40.3419 131.918 44.9579 135.715 44.9579Z" fill="#D56071"/>
<path id="Vector_50" d="M135.411 41.1616C137.916 41.1616 139.946 38.1165 139.946 34.3601C139.946 30.6037 137.916 27.5586 135.411 27.5586C132.906 27.5586 130.875 30.6037 130.875 34.3601C130.875 38.1165 132.906 41.1616 135.411 41.1616Z" fill="white"/>
<path id="Vector_51" d="M137.273 34.2254C137.273 35.872 136.383 37.2067 135.285 37.2067C134.187 37.2067 133.297 35.872 133.297 34.2254C133.297 32.5789 134.187 31.2441 135.285 31.2441C136.383 31.2439 137.273 32.5786 137.273 34.2254Z" fill="#D56071"/>
</g>
<g id="Group_15">
<g id="Group_16">
<path id="Vector_52" d="M104.617 46.5731C108.432 46.1985 113.734 47.3504 118.739 43.8894C123.744 40.4285 126.133 37.541 126.133 37.541L128.961 40.7086C128.961 40.7086 123.192 48.219 118.859 50.3215C113.163 53.0849 109.63 53.0439 106.637 53.0577" fill="#FC7F4F"/>
<g id="Group_17">
<path id="Vector_53" d="M124.996 38.7574C126.136 37.5408 129.001 33.9854 129.296 34.0818C129.592 34.1782 128.653 35.4347 128.91 35.4683C129.168 35.5019 130.744 33.6669 131.013 33.8418C131.378 34.0793 129.664 35.8722 129.664 35.8722C129.664 35.8722 130.081 35.5709 130.338 35.8683C130.521 36.0792 130.158 36.6482 130.158 36.6482C130.158 36.6482 130.637 36.3157 130.822 36.5385C131.005 36.7595 130.587 37.4374 130.587 37.4374C130.587 37.4374 130.919 37.3254 131.099 37.5233C131.279 37.7206 129.781 39.9848 127.237 42.8157" fill="#FC7F4F"/>
</g>
<path id="Vector_54" d="M128.525 35.9531C128.525 35.9531 128.341 36.6623 128.313 37.1564C128.268 37.9524 127.961 38.319 127.961 38.319" stroke="#AF3586" stroke-width="0.75" stroke-miterlimit="10" stroke-linejoin="round"/>
<g id="Group_18">
<path id="Vector_55" d="M129.518 36.0156C129.391 36.231 129.266 36.4478 129.156 36.6703C129.1 36.7814 129.049 36.8944 129.005 37.0089C128.962 37.1209 128.92 37.2427 128.923 37.3456C128.931 37.4001 128.935 37.412 128.977 37.4196C129.016 37.4278 129.069 37.4177 129.121 37.3984C129.225 37.3589 129.329 37.2944 129.427 37.2237C129.622 37.0804 129.813 36.921 129.988 36.7517C130.026 36.7155 130.085 36.7166 130.121 36.754C130.154 36.7882 130.156 36.8413 130.127 36.8775L130.126 36.8789C129.976 37.0688 129.831 37.2684 129.701 37.4725C129.637 37.5748 129.575 37.6788 129.524 37.7846C129.473 37.8869 129.428 38.0059 129.428 38.0839C129.436 38.1235 129.424 38.113 129.457 38.1246C129.487 38.139 129.535 38.132 129.582 38.1201C129.678 38.0932 129.779 38.0308 129.874 37.9623C130.062 37.8233 130.237 37.648 130.394 37.4688L130.395 37.4674C130.429 37.4292 130.487 37.4256 130.525 37.4589C130.56 37.4903 130.566 37.5434 130.539 37.5813C130.41 37.7622 130.279 37.9462 130.16 38.1348C130.043 38.3233 129.925 38.5189 129.863 38.7213C129.849 38.7702 129.841 38.8239 129.851 38.857C129.857 38.8872 129.882 38.8994 129.931 38.9005C130.025 38.894 130.128 38.8381 130.22 38.7801C130.406 38.6586 130.577 38.5085 130.742 38.3536C130.598 38.5288 130.441 38.6939 130.259 38.8358C130.166 38.9039 130.071 38.9751 129.939 38.9983C129.904 38.9995 129.868 39.0011 129.829 38.9853C129.792 38.9672 129.757 38.9305 129.747 38.892C129.722 38.816 129.736 38.7527 129.747 38.693C129.806 38.4576 129.917 38.2566 130.026 38.0551C130.138 37.8549 130.257 37.6613 130.391 37.4736L130.536 37.5858C130.37 37.7809 130.197 37.9615 129.992 38.1201C129.888 38.1972 129.778 38.2727 129.637 38.3157C129.567 38.3341 129.485 38.3519 129.397 38.3219C129.358 38.3157 129.301 38.2846 129.266 38.2377C129.234 38.1907 129.219 38.1359 129.219 38.0941C129.219 37.9233 129.283 37.8094 129.339 37.6916C129.398 37.5762 129.464 37.4682 129.533 37.3631C129.673 37.1528 129.822 36.9544 129.982 36.7596L130.119 36.8868C129.931 37.0604 129.739 37.2237 129.521 37.362C129.412 37.4309 129.299 37.4957 129.167 37.5375C129.101 37.557 129.026 37.5731 128.943 37.5516C128.922 37.5443 128.901 37.5358 128.882 37.5268C128.862 37.5118 128.84 37.4948 128.829 37.4731C128.802 37.4304 128.798 37.3871 128.797 37.3498C128.823 37.0618 128.967 36.8546 129.091 36.6352C129.222 36.4201 129.364 36.2132 129.518 36.0156Z" fill="#AF3586"/>
</g>
<g id="Group_19">
<g id="Group_20">
<path id="Vector_56" d="M93.9385 79.7715C93.9385 79.7715 93.5767 95.7156 92.6029 101.184C91.5118 107.312 82.3828 119.678 82.3828 119.678L84.4943 121.769L87.6266 123.26C87.6266 123.26 95.6082 115.631 100.107 106.082C104.009 97.8031 104.181 80.6119 104.181 80.6119" fill="#FC7F4F"/>
<g id="Group_21">
<g id="Group_22">
<path id="Vector_57" d="M91.6716 128.369C91.7714 127.992 91.8121 127.521 91.6775 127.323L88.4223 122.534C85.3113 121.961 82.5988 119.156 82.5988 119.156L79.8767 122.17C79.8061 122.282 79.84 122.43 79.9519 122.501L90.9084 129.402C91.1289 129.54 91.6685 128.381 91.6716 128.369Z" fill="#548282"/>
<path id="Vector_58" d="M89.2697 123.346C88.8098 123.513 88.3694 123.735 87.9609 124.005" stroke="#2A3C83" stroke-width="0.75" stroke-miterlimit="10" stroke-linejoin="round"/>
<path id="Vector_59" d="M89.6185 124.043C89.1283 124.237 88.892 124.38 88.5234 124.615" stroke="#2A3C83" stroke-width="0.75" stroke-miterlimit="10" stroke-linejoin="round"/>
<path id="Vector_60" d="M89.9411 124.594C89.6129 124.719 89.2302 124.937 88.9258 125.112" stroke="#2A3C83" stroke-width="0.75" stroke-miterlimit="10" stroke-linejoin="round"/>
</g>
<path id="Vector_61" d="M80.2695 121.68L91.4939 128.749" stroke="#2A3C83" stroke-width="0.75" stroke-miterlimit="10" stroke-linejoin="round"/>
<path id="Vector_62" d="M81.6328 120.225C81.6328 120.225 84.2271 121.952 83.4444 123.68" stroke="#2A3C83" stroke-width="0.75" stroke-miterlimit="10" stroke-linejoin="round"/>
<path id="Vector_63" d="M91.0096 126.342C91.0096 126.342 89.6291 126.91 89.1836 127.294" stroke="#2A3C83" stroke-width="0.75" stroke-miterlimit="10" stroke-linejoin="round"/>
</g>
</g>
<g id="Group_23">
<path id="Vector_64" d="M105.656 86.3905C105.656 86.3905 106.267 95.7098 106.692 102.838C107.117 109.966 107.949 126.236 107.949 126.236L111.033 126.965L114.455 126.395C114.455 126.395 115.344 112.347 115.344 103.04C115.344 93.4139 114.319 84.0859 114.319 84.0859" fill="#FC7F4F"/>
<g id="Group_24">
<g id="Group_25">
<path id="Vector_65" d="M120.521 128.907C120.402 128.534 120.184 128.116 119.964 128.021L114.645 125.73C111.714 126.919 107.919 126.011 107.919 126.011L107.242 130.015C107.243 130.147 107.351 130.254 107.484 130.253L120.432 130.187C120.692 130.186 120.525 128.918 120.521 128.907Z" fill="#548282"/>
<path id="Vector_66" d="M115.797 125.959C115.499 126.347 115.247 126.771 115.047 127.218" stroke="#2A3C83" stroke-width="0.75" stroke-miterlimit="10" stroke-linejoin="round"/>
<path id="Vector_67" d="M116.468 126.359C116.159 126.787 116.036 127.034 115.852 127.43" stroke="#2A3C83" stroke-width="0.75" stroke-miterlimit="10" stroke-linejoin="round"/>
<path id="Vector_68" d="M117.031 126.652C116.822 126.934 116.616 127.324 116.453 127.635" stroke="#2A3C83" stroke-width="0.75" stroke-miterlimit="10" stroke-linejoin="round"/>
</g>
<path id="Vector_69" d="M107.312 129.388L120.577 129.32" stroke="#2A3C83" stroke-width="0.75" stroke-miterlimit="10" stroke-linejoin="round"/>
<path id="Vector_70" d="M107.68 127.43C107.68 127.43 110.796 127.493 111.064 129.37" stroke="#2A3C83" stroke-width="0.75" stroke-miterlimit="10" stroke-linejoin="round"/>
<path id="Vector_71" d="M118.872 127.551C118.872 127.551 118.013 128.772 117.844 129.335" stroke="#2A3C83" stroke-width="0.75" stroke-miterlimit="10" stroke-linejoin="round"/>
</g>
</g>
<g id="Group_26">
<path id="Vector_72" d="M97.5409 64.3691C97.5409 64.3691 93.0609 69.1473 92.2098 75.6526C91.3587 82.1576 91.3438 92.7494 91.3438 92.7494C91.3438 92.7494 104.246 95.1139 115.976 92.4965C115.529 87.0871 114.386 72.846 110.29 65.2706" fill="#1A405C"/>
<path id="Vector_73" d="M93.7043 93.0988C93.7043 93.0988 93.2995 76.7579 95.1939 71.2416C96.6821 66.9089 99.9554 62.7246 99.9554 62.7246" stroke="#5A65A5" stroke-width="0.75" stroke-miterlimit="10"/>
</g>
<g id="Group_27">
<path id="Vector_74" d="M114.219 45.5371L115.602 52.1818C115.602 52.1818 112.877 53.2819 110.057 53.4385C108.537 53.4088 106.242 47.4903 107.114 46.3506C109.65 45.6016 114.219 45.5371 114.219 45.5371Z" fill="#548282"/>
<path id="Vector_75" d="M96.9542 52.9701C96.9542 52.9701 96.7614 60.7559 97.221 65.2554C103.785 66.717 110.291 65.272 110.291 65.272L110.755 58.2014C114.037 54.8388 111.169 50.475 111.169 50.475L107.115 46.3509L103.054 46.1211L96.9542 52.9701Z" fill="#548282"/>
<path id="Vector_76" d="M103.054 46.12C103.054 46.12 99.4459 45.5422 95.9516 48.4079C95.1626 49.0549 94.1815 50.4046 93.3711 52.0351L98.9936 55.7485L102.317 52.0464" fill="#548282"/>
<path id="Vector_77" d="M112.208 53.158C111.932 52.1181 111.167 50.4761 111.168 49.4746" stroke="#2A3C83" stroke-width="0.75" stroke-miterlimit="10" stroke-linejoin="round"/>
<path id="Vector_78" d="M113.156 45.5723L114.738 52.4905" stroke="#2A3C83" stroke-width="0.75" stroke-miterlimit="10" stroke-linejoin="round"/>
<path id="Vector_79" d="M93.8633 51.1191L97.9388 53.6569" stroke="#2A3C83" stroke-width="0.75" stroke-miterlimit="10" stroke-linejoin="round"/>
</g>
<g id="Group_28">
<path id="Vector_80" d="M103.648 37.3237C103.648 37.3237 101.995 36.8821 100.27 38.3568C98.5443 39.8315 98.81 42.0866 99.4316 43.7995C100.053 45.5125 100.134 45.508 100.134 45.508L101.048 45.1535L100.836 44.608L101.281 44.9545C101.281 44.9545 102.327 44.9322 103.13 44.3346C103.933 43.7371 105.133 44.4019 106.867 44.0636C108.6 43.7249 109.265 43.2608 109.265 43.2608C109.265 43.2608 108.425 39.7455 107.122 38.5846C105.82 37.4232 103.648 37.3237 103.648 37.3237Z" fill="#222A41"/>
<path id="Vector_81" d="M107.429 38.8978C107.429 38.8978 108.916 42.7769 107.796 43.9573C107.214 44.5709 105.197 44.2269 104.438 43.6458C103.875 43.2144 103.133 40.6334 103.438 40.1475C104.601 38.2901 107.429 38.8978 107.429 38.8978Z" fill="#FC7F4F"/>
<path id="Vector_82" d="M103.215 42.3047L103.059 46.1193C103.36 47.0812 106.599 47.9996 107.119 46.3491L106.799 43.4868L103.215 42.3047Z" fill="#FC7F4F"/>
<path id="Vector_83" d="M103.719 41.6887C103.368 41.144 103.036 41.1938 102.833 41.455C102.563 41.8035 102.961 42.6196 103.169 42.7725C103.589 43.0817 103.952 43.0882 104.021 42.7292" fill="#FC7F4F"/>
<path id="Vector_84" d="M106.885 44.3896C105.451 44.447 104.438 43.6465 104.438 43.6465" stroke="#AF3586" stroke-width="0.75" stroke-miterlimit="10" stroke-linejoin="round"/>
<path id="Vector_85" d="M106.605 40.8594C106.605 40.8594 107.556 41.6867 107.534 41.9454C107.511 42.2043 106.917 42.3123 106.917 42.3123" stroke="#AF3586" stroke-width="0.5" stroke-miterlimit="10" stroke-linejoin="round"/>
<path id="Vector_86" d="M107.374 42.6504L105.969 42.7578C105.969 42.7578 106.19 43.4933 106.957 43.3814C107.504 43.3017 107.374 42.6504 107.374 42.6504Z" fill="white"/>
<g id="Group_29">
<g id="Group_30">
<path id="Vector_87" d="M107.296 40.5557C107.307 40.5918 107.318 40.6272 107.331 40.6625C107.346 40.7058 107.361 40.7487 107.381 40.7906C107.392 40.8135 107.423 40.8364 107.447 40.8417C107.472 40.8474 107.496 40.8462 107.52 40.8361C107.541 40.827 107.562 40.8115 107.573 40.7906C107.587 40.7654 107.595 40.7323 107.585 40.7046C107.568 40.6614 107.548 40.621 107.528 40.5797C107.511 40.5461 107.493 40.5133 107.474 40.481C107.45 40.4392 107.397 40.4225 107.353 40.4412C107.309 40.4596 107.283 40.5085 107.296 40.5557Z" fill="#182B6D"/>
</g>
</g>
<path id="Vector_88" d="M106.902 40.1722C106.902 40.1722 107.109 39.8022 107.506 40.0196" stroke="#182B6D" stroke-width="0.5" stroke-miterlimit="10" stroke-linecap="round" stroke-linejoin="round"/>
<g id="Group_31">
<g id="Group_32">
<path id="Vector_89" d="M105.495 41.2319C105.503 41.2681 105.512 41.3034 105.523 41.339C105.533 41.3746 105.542 41.4103 105.556 41.4445C105.56 41.4589 105.566 41.4716 105.576 41.4823C105.584 41.4945 105.595 41.5041 105.608 41.5112C105.632 41.525 105.667 41.531 105.694 41.5225C105.721 41.5137 105.747 41.497 105.76 41.4713C105.774 41.4453 105.781 41.4142 105.772 41.3854C105.758 41.3419 105.738 41.3003 105.72 41.2582C105.705 41.2237 105.69 41.1903 105.673 41.157C105.663 41.1369 105.637 41.1174 105.615 41.1123C105.593 41.1072 105.572 41.1087 105.552 41.1171C105.505 41.1366 105.484 41.1841 105.495 41.2319Z" fill="#182B6D"/>
</g>
</g>
<path id="Vector_90" d="M105.672 40.5245C105.672 40.5245 105.255 40.4403 104.902 40.9663" stroke="#182B6D" stroke-width="0.5" stroke-miterlimit="10" stroke-linecap="round" stroke-linejoin="round"/>
<path id="Vector_91" d="M102.571 37.2819C102.571 37.2819 103.438 36.1535 105.501 36.2434C107.565 36.3333 108.534 37.7209 108.921 38.8566L107.48 39.5444L106.941 39.0463L106.976 39.6939L106.022 40.019L105.683 39.5415L105.825 40.1306L105.09 40.4062L104.528 39.7877L104.672 40.5702L104.117 40.8051C104.117 40.8051 104.116 41.8882 103.925 42.1079L102.16 41.0247C102.16 41.0247 101.514 38.0149 102.571 37.2819Z" fill="#222A41"/>
</g>
<path id="Vector_92" d="M94.0765 52.502C94.0765 52.502 92.1312 58.7969 96.3163 62.8885C100.502 66.9799 112.488 63.8835 112.488 63.8835C112.488 63.8835 115.061 64.571 116.691 64.0636C116.691 64.0636 118.965 64.9512 119.374 64.6026C119.782 64.2541 118.66 63.4479 118.66 63.4479C118.66 63.4479 120.177 64.0415 120.482 63.7136C120.787 63.3858 119.704 62.3795 119.704 62.3795C119.704 62.3795 120.606 62.9092 121.053 62.8071C121.499 62.7051 120.932 62.0306 120.303 61.424C120.303 61.424 121.349 62.1946 121.549 61.8786C121.749 61.5626 120.706 60.1229 118.119 59.7425C115.532 59.362 111.437 59.9287 107.418 60.1272C103.399 60.3259 100.515 58.8707 99.7779 57.837C99.0413 56.8033 99.3191 54.8911 99.3191 54.8911L94.0765 52.502Z" fill="#FC7F4F"/>
</g>
</g>
<path id="Vector_93" d="M136.227 34.486L132.851 33.6445L133.72 34.7424C133.439 34.7096 133.16 34.6977 132.883 34.6955C132.527 34.6901 132.175 34.7057 131.824 34.7331C131.473 34.7613 131.126 34.8131 130.782 34.8877C130.438 34.9637 130.095 35.0443 129.749 35.111C129.059 35.2433 128.369 35.3818 127.68 35.5268C126.993 35.6786 126.328 35.7535 125.642 35.9149C125.306 35.9635 124.959 36.0181 124.656 35.8213C124.417 35.6729 124.217 35.353 124.147 35.0714L122.254 35.3451C122.395 35.8451 122.727 36.2431 123.242 36.3632C122.785 36.6063 122.556 37.1199 122.583 37.6194L124.476 37.3458C124.467 37.0442 124.605 36.6179 124.821 36.4096C125.029 36.2109 125.378 36.1557 125.656 36.1153C126.36 36.0757 127.033 35.957 127.736 35.9081C128.437 35.8522 129.138 35.7897 129.838 35.721C130.188 35.6871 130.54 35.667 130.891 35.6427C131.242 35.6167 131.59 35.5681 131.935 35.4957C132.279 35.4225 132.622 35.3377 132.961 35.2317C133.226 35.1511 133.49 35.061 133.751 34.9496L133.228 36.249L136.227 34.486Z" fill="#222A41"/>
</g>
</g>
<g id="Group_33">
<g id="Group_34">
<g id="Group_35">
<g id="Group_36">
<g id="Group_37">
<g id="Group_38">
<path id="Vector_94" d="M178.008 79.2227C177.847 80.6459 176.704 84.6923 176.943 84.8616C177.182 85.0309 177.603 83.6128 177.774 83.7883C177.945 83.9641 177.445 86.1898 177.729 86.295C178.114 86.4377 178.504 84.1306 178.504 84.1306C178.504 84.1306 178.203 86.6786 178.573 86.7054C178.836 86.7246 179.155 84.7906 179.369 84.0667C179.237 84.8805 179.178 86.2252 179.45 86.2393C179.72 86.2531 179.966 84.9413 180.208 83.946C180.115 84.5812 180.009 85.746 180.26 85.7712C180.51 85.7961 181.329 82.6469 181.984 79.652" fill="#FC7F4F"/>
</g>
<path id="Vector_95" d="M182.641 59.6992C182.641 59.6992 184.944 63.79 185.277 66.3009C186.096 72.4862 180.964 82.9638 180.964 82.9638C180.964 82.9638 177.234 81.9465 177.234 81.4784C177.234 81.0103 179.833 70.0013 179.833 70.0013L176.105 61.3961" fill="#FC7F4F"/>
</g>
<g id="Group_39">
<path id="Vector_96" d="M152.986 128.618L165.082 129.295L165.112 128.753L153.016 128.076L152.986 128.618Z" fill="#548282"/>
<path id="Vector_97" d="M163.641 124.182L164.673 124.488C164.673 124.488 164.996 125.878 165.096 126.838C165.195 127.799 165.108 128.745 165.108 128.745L153.012 128.067C153.012 128.067 153.387 127.037 156.37 125.51C157.545 124.909 158.167 124.18 158.167 124.18L163.641 124.182Z" fill="#282A30"/>
<path id="Vector_98" d="M165.303 116.898L164.673 124.489C164.673 124.489 164.13 125.074 162.076 124.959C160.022 124.844 158.167 124.18 158.167 124.18L158.113 117.953" fill="#E0AE8E"/>
</g>
<path id="Vector_99" d="M180.962 81.4732L168.409 81.3008L159.217 95.2419L159.214 95.2447C158.914 95.5387 158.654 95.8722 158.442 96.2341C158.046 96.904 157.812 97.6728 157.775 98.4756L156.879 118.067L167.018 119.085L168.409 106.811L169.347 99.4649C169.347 99.4649 172.332 97.1386 175.128 94.4702C176.931 92.7488 178.658 90.886 179.447 89.4105C181.462 85.6564 180.962 81.4732 180.962 81.4732Z" fill="#1A405C"/>
<g id="Group_40">
<path id="Vector_100" d="M146.52 120.822L158.285 117.93L158.156 117.403L146.39 120.295L146.52 120.822Z" fill="#548282"/>
<path id="Vector_101" d="M155.417 113.47L156.494 113.461C156.494 113.461 157.21 114.695 157.586 115.585C157.962 116.474 158.156 117.404 158.156 117.404L146.391 120.296C146.391 120.296 146.448 119.201 148.853 116.868C149.801 115.949 150.183 115.07 150.183 115.07L155.417 113.47Z" fill="#282A30"/>
<path id="Vector_102" d="M154.875 106.02L156.494 113.462C156.494 113.462 156.146 114.18 154.148 114.671C152.15 115.162 150.182 115.071 150.182 115.071L148.309 109.131" fill="#E0AE8E"/>
</g>
<g id="Group_41">
<path id="Vector_103" d="M171.443 46.2656L171.943 50.8782C171.943 50.8782 169.178 53.2232 166.73 50.5961L167.03 47.56L171.443 46.2656Z" fill="#FC7F4F"/>
<path id="Vector_104" d="M167.584 41.6461C167.584 41.6461 164.59 45.769 165.813 47.3141C166.715 48.4544 169.083 48.5838 169.814 48.1358C169.972 47.2912 171.912 44.5007 171.601 43.8797C170.412 41.5067 167.584 41.6461 167.584 41.6461Z" fill="#FC7F4F"/>
<g id="Group_42">
<path id="Vector_105" d="M172.243 42.3583C172.146 40.7997 170.609 40.3432 167.659 40.5193C167.264 40.5427 166.562 40.2748 166.379 40.6256C166.139 41.0869 166.097 42.0202 166.56 42.4406C166.869 42.721 167.076 42.7817 167.483 42.8767C168.017 43.0017 168.562 43.5107 168.278 44.0704C168.203 44.2171 168.027 44.4659 168.138 44.5866C168.195 44.6479 168.385 44.7152 168.459 44.7545C168.671 44.8681 168.658 45.1909 168.525 45.3922C168.393 45.5934 168.452 45.8165 168.319 46.0171C168.004 46.4923 168.378 47.368 168.868 47.6586C169.303 47.9158 170.726 48.3449 171.768 47.8047C172.672 47.3361 173.215 46.0607 173.222 43.768C173.225 42.8886 172.571 42.2987 172.243 42.3583Z" fill="#262739"/>
</g>
<path id="Vector_106" d="M167.91 44.7123C168.396 44.0961 168.79 44.1939 169.004 44.5325C169.291 44.9839 168.716 45.9218 168.449 46.0821C167.907 46.4066 167.468 46.3724 167.426 45.932" fill="#FC7F4F"/>
<g id="Group_43">
<g id="Group_44">
<path id="Vector_107" d="M166.711 43.7686C166.572 43.8845 166.442 44.0945 166.519 44.2489C166.541 44.2924 166.583 44.3133 166.631 44.3088C166.942 44.2783 167.002 43.5267 166.711 43.7686Z" fill="#30394D"/>
</g>
</g>
<path id="Vector_108" d="M166.75 43.1973C166.945 43.2662 167.26 43.4432 167.376 43.6888" stroke="#30394D" stroke-width="0.75" stroke-miterlimit="10"/>
<path id="Vector_109" d="M166.745 45.9673L166.061 45.6016C166.061 45.6016 165.612 46.4414 165.93 46.6186C166.282 46.8145 166.745 45.9673 166.745 45.9673Z" fill="white"/>
</g>
<g id="Group_45">
<g id="Group_46">
<path id="Vector_110" d="M151.49 56.7827C150.08 55.1871 146.296 49.1208 145.87 49.2163C145.445 49.3121 146.591 51.1896 146.227 51.2029C145.863 51.2162 143.904 48.4469 143.505 48.6558C142.963 48.9393 145.121 51.6679 145.121 51.6679C145.121 51.6679 144.276 50.5087 143.878 50.8903C143.595 51.1608 143.744 51.7281 144.329 52.6863C143.937 52.1959 143.566 52.1094 143.279 52.396C142.995 52.6807 143.277 53.2033 143.628 53.7316C143.351 53.3854 142.947 53.2115 142.843 53.5722C142.707 54.0443 143.852 56.493 146.56 60.4865" fill="#FC7F4F"/>
</g>
<path id="Vector_111" d="M171.893 50.4083C171.893 50.4083 177.853 50.6582 179.64 57.4411C180.446 60.4992 180.965 81.4703 180.965 81.4703L159.188 81.3244C159.188 81.3244 159.478 62.3654 159.965 58.2605C160.855 50.7588 166.761 50.291 166.761 50.291C166.761 50.291 167.03 50.9544 169.339 50.9544C171.647 50.955 171.893 50.4083 171.893 50.4083Z" fill="#D2C8BE"/>
<path id="Vector_112" d="M171.895 50.4082C178.968 50.4082 183.324 60.1246 183.324 60.1246L178.876 62.3582" fill="#D2C8BE"/>
<path id="Vector_113" d="M162.55 64.1962C162.55 64.1962 158.776 69.628 155.728 69.9228C151.631 70.3191 144.344 56.6813 144.344 56.6813L148.941 53.5762L155.237 61.4954L157.385 58.2857" fill="#FC7F4F"/>
<path id="Vector_114" d="M166.763 50.293C160.673 50.6279 156.215 59.7004 156.215 59.7004L163.346 64.8189L167.393 59.5393" fill="#D2C8BE"/>
<path id="Vector_115" d="M163.094 64.6372L166.543 60.1504" stroke="#7C6A6A" stroke-width="0.75" stroke-miterlimit="10"/>
<path id="Vector_116" d="M180.24 61.6746C179.845 58.8205 178.875 56.3848 178.875 56.3848" stroke="#7C6A6A" stroke-width="0.75" stroke-miterlimit="10"/>
</g>
<path id="Vector_117" d="M166.453 44.1152C166.453 44.1152 165.472 44.5864 165.521 44.7662C165.571 44.946 165.864 45.381 165.864 45.381" fill="#FC7F4F"/>
<path id="Vector_118" d="M159.187 81.3251L145.813 84.6798C144.855 84.92 143.993 85.4461 143.342 86.1881C142.282 87.3954 141.886 89.0487 142.285 90.605L147.159 109.601L157.153 107.607L154.892 95.4629C154.892 95.4629 169.106 93.0312 172.66 91.3821C176.213 89.733 176.645 84.0135 176.106 81.3008L159.187 81.3251Z" fill="#1A405C"/>
<path id="Vector_119" d="M146.504 107.043L156.625 104.766" stroke="#203269" stroke-width="0.75" stroke-miterlimit="10"/>
<path id="Vector_120" d="M149.497 106.37L145.906 91.3787C145.762 90.7786 145.792 90.1502 145.993 89.5665C146.376 88.4511 147.331 87.6308 148.492 87.4233C152.564 86.6946 162.041 84.9427 164.463 83.9991C167.573 82.7876 167.774 81.3008 167.774 81.3008" stroke="#203269" stroke-width="0.75" stroke-miterlimit="10"/>
<path id="Vector_121" d="M160.465 94.2536C160.465 94.2536 170.479 94.0238 173.508 90.8695C176.537 87.7149 176.298 85.373 176.298 85.373" stroke="#203269" stroke-width="0.75" stroke-miterlimit="10"/>
</g>
<path id="Vector_122" d="M180.594 97.4813C180.594 95.2383 178.775 93.4199 176.532 93.4199H161.366C159.123 93.4199 157.305 95.2383 157.305 97.4813H163.21L158.607 130.437H160.384L167.647 97.4813H170.016L177.279 130.437H179.056L174.452 97.4813H180.594Z" fill="#BACECD"/>
</g>
<path id="Vector_123" d="M123.867 64.125L126.411 77.3872H150.458V75.876L141.614 75.2095L139.131 64.125H123.867Z" fill="#1A405C"/>
<g id="Group_47">
<path id="Vector_124" d="M91.5751 64.125L89.0311 77.3872H64.9844V75.876L73.8276 75.2095L76.3111 64.125H91.5751Z" fill="#1A405C"/>
<g id="Group_48">
<g id="Group_49">
<g id="Group_50">
<path id="Vector_125" d="M55.2488 54.1323L53.7775 56.9265C53.7775 56.9265 52.7738 56.9265 51.389 56.2427C50.0138 55.5638 49.6133 54.6287 49.6133 54.6287L52.1007 51.3379" fill="#FC7F4F"/>
<path id="Vector_126" d="M58.3769 48.8535C59.7453 49.66 57.4851 54.7661 56.2504 55.0892C55.0155 55.4123 52.5639 52.9997 51.8329 50.9554C51.1022 48.9112 53.4535 47.7935 54.836 47.378C56.2179 46.9625 58.3769 48.8535 58.3769 48.8535Z" fill="#FC7F4F"/>
<g id="Group_51">
<g id="Group_52">
<path id="Vector_127" d="M57.3667 51.3324C57.3436 51.3734 57.3215 51.4144 57.3003 51.4562C57.2788 51.4981 57.2568 51.5394 57.2378 51.5823C57.2285 51.6035 57.2229 51.6233 57.2294 51.6468C57.2347 51.6663 57.2497 51.6872 57.2678 51.6968C57.3057 51.7169 57.3614 51.7087 57.3823 51.6668C57.4038 51.6239 57.4219 51.5795 57.4405 51.5354C57.4612 51.4868 57.4815 51.4382 57.5002 51.3887C57.5061 51.3726 57.5019 51.3466 57.4928 51.3324C57.484 51.3189 57.4727 51.309 57.458 51.3028C57.4253 51.2886 57.3848 51.3005 57.3667 51.3324Z" fill="#182B6D"/>
</g>
</g>
<path id="Vector_128" d="M58.1215 50.8317C58.1215 50.8317 57.821 50.3817 57.0312 50.5394" stroke="#182B6D" stroke-width="0.75" stroke-miterlimit="10" stroke-linecap="round" stroke-linejoin="round"/>
<path id="Vector_129" d="M56.1571 53.3164L57.0277 53.938C57.0277 53.938 56.6874 54.5963 56.3765 54.3402C56.0655 54.0844 56.1571 53.3164 56.1571 53.3164Z" fill="white"/>
<g id="Group_53">
<path id="Vector_130" d="M59.6074 49.9726C58.9858 49.7725 58.3029 49.394 57.8319 49.1579C57.2033 49.288 56.5498 49.8779 56.5328 50.5461C56.5291 50.6965 56.5139 50.9009 56.3649 50.9218C56.2623 50.9362 56.1772 50.8358 56.1487 50.7361C56.1198 50.6363 56.1235 50.5277 56.0828 50.4325C56 50.2389 55.745 50.1614 55.5457 50.2298C55.3467 50.2982 55.2034 50.4786 55.1223 50.6725C54.9145 51.1688 54.7288 51.7698 55.2031 52.1861C55.2769 52.2509 55.3631 52.3068 55.4106 52.3928C55.5135 52.5793 55.392 52.8063 55.2704 52.981C54.8933 53.5229 54.3266 54.1317 53.2143 54.1317C52.4325 54.1317 51.1336 53.1006 51.0479 52.5853C51.0403 52.5392 50.2921 49.3829 51.6806 47.3752C52.4257 46.2982 53.7367 45.5138 55.1042 45.6283C55.9488 45.699 56.686 46.1967 57.0998 46.5187C59.3804 46.9382 59.8694 49.2883 59.6074 49.9726Z" fill="#262739"/>
</g>
<path id="Vector_131" d="M58.2885 51.8359C58.2885 51.8359 58.4901 53.3669 58.1885 53.5342C57.8869 53.7015 57.25 53.2657 57.25 53.2657" fill="#FC7F4F"/>
</g>
<g id="Group_54">
<g id="Group_55">
<g id="Group_56">
<path id="Vector_132" d="M79.0676 77.388H78.2812V69.1862C78.2812 68.9691 78.4573 68.793 78.6744 68.793C78.8915 68.793 79.0676 68.9691 79.0676 69.1862V77.388Z" fill="#7088C8"/>
</g>
</g>
<path id="Vector_133" d="M71.3976 70.389L74.3142 70.6041C74.3142 70.6041 76.556 69.8477 77.449 69.8285C77.9962 69.8166 78.2797 70.1055 78.2797 70.1055C78.2797 70.1055 78.2797 70.3997 78.2797 70.9868C78.2797 71.5739 79.0661 71.8323 79.0661 71.4337V70.949C79.0751 70.9812 80.681 71.7444 79.74 72.4709C80.1815 72.5622 80.4161 73.1829 79.578 73.6086C79.844 73.7903 80.1515 74.2935 79.537 74.6974C79.8095 75.1121 79.2552 75.5689 78.8145 75.6644C77.9807 75.8448 71.3086 75.7045 71.3086 75.7045" fill="#FC7F4F"/>
<path id="Vector_134" d="M54.3797 57.2219C59.1707 63.8493 56.5973 65.997 53.1541 82.903C41.6535 82.903 32.8516 80.9141 32.8516 80.9141C32.8516 80.9141 35.5903 72.0421 40.6664 62.1682C43.0869 57.4601 47.111 55.1157 49.3884 54.5176" fill="#BACECD"/>
<path id="Vector_135" d="M47.1094 64.6724C47.1094 64.6724 54.5124 76.2673 58.0308 76.7815C63.6168 77.5979 72.8547 77.3686 72.8547 77.3686L73.4056 69.2114C73.4056 69.2114 61.5313 68.611 61.0412 68.3323C59.4503 67.4278 54.3779 57.2207 54.3779 57.2207" fill="#BACECD"/>
<path id="Vector_136" d="M54.9921 74.6662C54.9921 74.6662 50.6486 71.0611 47.7578 65.4629" stroke="#313D77" stroke-width="0.75" stroke-miterlimit="10"/>
<path id="Vector_137" d="M71.6957 69.123L70.9961 77.3998" stroke="#313D77" stroke-width="0.75" stroke-miterlimit="10"/>
</g>
<g id="Group_57">
<path id="Vector_138" d="M58.4026 129.375L47.9062 129.963L47.9326 130.433L58.429 129.845L58.4026 129.375Z" fill="#548282"/>
<path id="Vector_139" d="M49.1833 126.006L48.287 126.272C48.287 126.272 48.0068 127.478 47.9203 128.311C47.8339 129.145 47.9096 129.966 47.9096 129.966L58.4064 129.378C58.4064 129.378 58.0805 128.483 55.4927 127.159C54.4728 126.637 53.9329 126.004 53.9329 126.004L49.1833 126.006Z" fill="#282A30"/>
<path id="Vector_140" d="M47.7422 119.686L48.2891 126.272C48.2891 126.272 48.7601 126.78 50.5426 126.68C52.3251 126.58 53.9348 126.004 53.9348 126.004L53.9812 120.6" fill="#E0AE8E"/>
</g>
<path id="Vector_141" d="M33.7538 81.0996L44.191 82.4762L52.1678 94.5738L52.1704 94.5763C52.4304 94.8313 52.656 95.1207 52.84 95.4348C53.1835 96.0162 53.387 96.6833 53.4189 97.3798L55.5211 121.845L46.3879 123.999L44.1913 104.613L43.3769 98.2383C43.3769 98.2383 40.7866 96.2195 38.3607 93.9041C36.7959 92.4102 35.2972 90.794 34.6128 89.5135C32.8637 86.256 33.7538 81.0996 33.7538 81.0996Z" fill="#548282"/>
<g id="Group_58">
<path id="Vector_142" d="M63.3031 116.316L53.0938 113.807L52.9813 114.264L63.1907 116.773L63.3031 116.316Z" fill="#548282"/>
<path id="Vector_143" d="M55.4668 110.393L54.532 110.385C54.532 110.385 53.9113 111.456 53.5845 112.228C53.2577 112.999 53.0898 113.807 53.0898 113.807L63.2992 116.316C63.2992 116.316 63.2492 115.366 61.1622 113.342C60.3397 112.544 60.0087 111.781 60.0087 111.781L55.4668 110.393Z" fill="#282A30"/>
<path id="Vector_144" d="M55.9397 103.926L54.5352 110.384C54.5352 110.384 54.8368 111.007 56.5706 111.433C58.3045 111.86 60.0124 111.78 60.0124 111.78L61.638 106.626" fill="#E0AE8E"/>
</g>
<path id="Vector_145" d="M52.1958 82.4978L63.8015 85.4089C64.6326 85.6173 65.3805 86.0738 65.9459 86.7177C66.8659 87.7655 67.2088 89.2001 66.8623 90.5507L62.6327 107.034L53.9605 105.304L55.9228 94.7661C55.9228 94.7661 43.5883 92.6557 40.5047 91.2248C37.4211 89.794 37.0466 84.8306 37.5141 82.4766L52.1958 82.4978Z" fill="#548282"/>
<path id="Vector_146" d="M63.2007 104.817L54.418 102.84" stroke="#203269" stroke-width="0.75" stroke-miterlimit="10"/>
<path id="Vector_147" d="M60.6023 104.231L63.7187 91.222C63.8434 90.7013 63.8174 90.1558 63.6435 89.6495C63.3111 88.6817 62.4823 87.9699 61.4749 87.7896C57.9407 87.1572 49.7171 85.6371 47.6155 84.8182C44.9174 83.7669 44.7422 82.4766 44.7422 82.4766" stroke="#203269" stroke-width="0.75" stroke-miterlimit="10"/>
</g>
<path id="Vector_148" d="M52.5623 97.4813C52.5623 95.2383 50.7439 93.4199 48.501 93.4199H33.3348C31.0918 93.4199 29.2734 95.2383 29.2734 97.4813H35.1789L30.5754 130.437H32.3522L39.6154 97.4813H41.9847L49.2478 130.437H51.0246L46.4211 97.4813H52.5623Z" fill="#BACECD"/>
</g>
</g>
<path id="Vector_149" d="M153.449 77.3887H57.9453V81.0577H68.1213L66.1831 129.933H70.2212L73.4075 87.3792H138.595L142.136 129.933H146.175L143.881 81.0577H153.449V77.3887Z" fill="#BACECD"/>
</g>
<path id="Vector_150" d="M22.2305 130.438H189.771" stroke="#DFE3E8" stroke-width="3" stroke-miterlimit="10"/>
</g>
<g id="Group_59">
<path id="Vector_151" opacity="0.15" d="M24.4705 94.5532C24.4705 104.936 16.0526 113.351 5.67312 113.351C3.69445 113.351 1.78928 113.045 0 112.48V76.6293C1.78928 76.0611 3.69445 75.7559 5.67312 75.7559C16.0526 75.7559 24.4705 84.1737 24.4705 94.5532Z" fill="#DE4C4D"/>
<path id="Vector_152" opacity="0.15" d="M212 66.0977V119.68C199.682 116.986 190.461 106.013 190.461 92.8888C190.461 79.7618 199.682 68.7915 212 66.0977Z" fill="#DE4C4D"/>
<path id="Vector_153" opacity="0.15" d="M212 0.0585938V25.1707C209.829 26.047 207.458 26.5303 204.973 26.5303C194.591 26.5303 186.176 18.1153 186.176 7.73299C186.176 4.99961 186.758 2.4019 187.807 0.0585938H212Z" fill="#DE4C4D"/>
<path id="Vector_154" opacity="0.15" d="M37.6704 3.14814C37.6704 11.6734 30.7564 18.5874 22.2283 18.5874C13.7003 18.5874 6.78906 11.6734 6.78906 3.14814C6.78906 2.09097 6.89648 1.05641 7.09717 0.0585938H37.3623C37.563 1.05641 37.6704 2.09097 37.6704 3.14814Z" fill="#DE4C4D"/>
<path id="Vector_155" opacity="0.39" d="M12.2335 64.1564C14.2609 64.1564 15.9045 62.5129 15.9045 60.4854C15.9045 58.458 14.2609 56.8145 12.2335 56.8145C10.2061 56.8145 8.5625 58.458 8.5625 60.4854C8.5625 62.5129 10.2061 64.1564 12.2335 64.1564Z" fill="#DEE4E9"/>
<path id="Vector_156" opacity="0.39" d="M82.835 103.204C84.8474 102.957 86.2786 101.125 86.0317 99.1129C85.7847 97.1004 83.9531 95.6692 81.9407 95.9162C79.9283 96.1631 78.4971 97.9947 78.744 100.007C78.9909 102.02 80.8225 103.451 82.835 103.204Z" fill="#DEE4E9"/>
<path id="Vector_157" opacity="0.39" d="M201.23 61.4279C203.257 61.4279 204.901 59.7844 204.901 57.7569C204.901 55.7295 203.257 54.0859 201.23 54.0859C199.202 54.0859 197.559 55.7295 197.559 57.7569C197.559 59.7844 199.202 61.4279 201.23 61.4279Z" fill="#DEE4E9"/>
<path id="Vector_158" opacity="0.39" d="M131.113 0.0585938C131.113 3.43646 128.374 6.1755 124.996 6.1755C121.618 6.1755 118.879 3.43646 118.879 0.0585938H131.113Z" fill="#DEE4E9"/>
</g>
</g>
</g>
<defs>
<clipPath id="clip0_725_5648">
<rect width="212" height="141.333" fill="white"/>
</clipPath>
</defs>
</svg>
