<svg width="444" height="216" viewBox="0 0 444 216" fill="none" xmlns="http://www.w3.org/2000/svg">
<path d="M443.931 177.923L443.878 176.3L444 175.189L443.845 175.308L443.585 167.436L443.155 154.386L443.505 154.901L443.141 152.916L443.099 152.685L443.096 152.581L443.065 151.648L442.932 151.772L439.353 132.261L440.119 133.386L439.015 130.201L438.932 129.962L438.759 129.019L438.648 129.143L431.58 108.765L431.61 108.724L431.481 108.481L431.193 107.65L431.103 107.769L421.062 88.8489L421.09 88.8046L420.912 88.5659L420.533 87.8512L420.48 87.934L418.27 84.6812L418.268 84.678L415.629 80.7923L413.48 77.6331L413.528 77.6315L412.99 76.9105L412.864 76.6719L412.813 76.6736L400.864 60.6673L400.031 59.5517L400.206 59.534L399.491 58.8272L399.347 58.6353L399.301 58.6399L384.042 43.562L384.238 43.5286L383.336 42.8644L383.183 42.7137L383.141 42.721L365.69 29.8779L365.908 29.8254L364.888 29.2731L364.813 29.2327L364.657 29.1177L364.653 29.1186L362.513 27.54L363 28.2506L345.281 18.6559L345.518 18.5812L344.235 18.0896L342.46 17.1283L342.725 17.511L323.151 10.0124L323.406 9.91196L322.095 9.58778L321.947 9.55116L321.796 9.49334L320.485 8.99116L320.652 9.23081L308.279 6.1706L299.636 4.03309L299.9 3.905L298.292 3.70078L298.148 3.66499L297.044 3.39205L297.16 3.55701L275.088 0.754048L275.354 0.598066L273.639 0.570059L273.497 0.552104L272.551 0.432033L272.638 0.553653L260.3 0.352062L249.846 0.181115L250.099 0L248.334 0.156462L247.381 0.140899L247.449 0.234747L224.247 2.28989L224.47 2.09296L223.018 2.37033L222.74 2.42348L221.897 2.49806L221.952 2.57383L210.546 4.75311L198.634 7.02888L198.807 6.83195L197.514 7.21179L197.209 7.30121L197.068 7.32815L196.465 7.44354L196.511 7.50603L173.321 14.3172L173.429 14.141L172.399 14.5532L172.072 14.6839L171.415 14.8768L171.456 14.9305L164.474 17.7243L148.642 24.0595L148.685 23.9273L148 24.2785L147.657 24.4537L147.464 24.5311L147.077 24.6863L147.113 24.7328L124.949 36.1007L124.943 36.0211L124.628 36.2222L124.275 36.4463L123.764 36.7086L123.797 36.7509L102.613 50.2421L102.586 50.2054L102.203 50.5027L101.763 50.783L101.794 50.821L93.4685 57.2872L82.1179 66.1026L82.0879 66.0653L81.7219 66.4102L81.3441 66.7036L81.0821 66.9076L81.159 66.9406L63.4744 83.6033L63.4402 83.5618L63.0773 83.9773L62.7596 84.2767L62.2378 84.7684L62.3822 84.7735L46.8911 102.516L46.8514 102.468L46.5956 102.829L46.4989 102.965L46.2386 103.263L45.5585 104.043L45.7647 104L32.5717 122.603L32.5244 122.547L32.266 123.007L32.1921 123.138L31.2669 124.443L31.5127 124.348L20.6936 143.612L20.6356 143.545L20.3382 144.245L19.5242 145.694L19.7817 145.556L12.6998 162.234L11.4075 165.277L11.3343 165.193L11.0902 166.024L10.4486 167.535L10.696 167.366L5.23999 185.94L4.83542 187.318L4.73957 187.209L4.60201 188.045L4.57692 188.198L4.13494 189.702L4.35987 189.516L2.54739 200.536L1.08091 209.451L0.950399 209.305L0.909405 210.493L0.876654 210.693L0.67228 211.935L0.866374 211.746L0.451173 223.798L0.190148 231.375L0 231.164L0.147127 232.619L0.100993 233.96L0.264011 233.773L2.18608 252.767L1.8849 252.435L2.29174 254.087L2.33918 254.28L2.46217 255.495L2.59483 255.318L7.02498 273.304L6.47675 272.7L7.49122 275.197L7.75607 276.272L7.86112 276.107L11.7507 285.682L14.537 292.541L13.2362 291.124L15.4449 294.869L15.5669 295.076L15.9448 296.006L16.0263 295.855L21.6503 305.389L26.3608 313.375L26.3415 313.418L26.5079 313.624L26.9714 314.41L27.0323 314.274L31.8587 320.248L40.0003 330.328L39.984 330.373L40.1955 330.569L40.7204 331.219L40.7419 331.159L41.5415 332.024L43.309 333.939L44.6236 335.365L46.4123 337.307L47.7528 338.758L48.9103 340.013L48.8244 340.03L49.5053 340.66L49.6697 340.864L49.7154 340.855L55.5806 346.283L65.1161 355.107L64.956 355.151L65.7869 355.727L65.9622 355.89L66.004 355.878L83.6633 368.132L83.4935 368.194L84.4695 368.692L84.6494 368.817L84.6514 368.816L88.061 371.184L86.92 369.941L104.398 378.852L104.223 378.932L105.325 379.324L105.51 379.419L105.514 379.417L107.703 380.537L107.209 379.995L127.054 387.061L126.881 387.161L128.085 387.428L128.269 387.494L129.895 388.073L129.62 387.77L137.737 389.574L151.344 392.599L151.181 392.715L152.288 392.827L152.446 392.844L153.912 393.17L153.737 392.975L176.921 395.325L176.776 395.455L178.054 395.44L179.275 395.564L179.154 395.427L203.427 395.141L203.311 395.276L204.537 395.128L204.734 395.126L205.577 395.116L205.487 395.013L225.38 392.613L230.457 392.001L230.377 392.131L231.231 391.935L231.493 391.876L232.381 391.768L232.311 391.688L257.592 385.892L257.55 386.007L258.496 385.685L259.258 385.51L259.202 385.444L284.378 376.868L284.37 376.959L284.796 376.763L285.115 376.617L285.392 376.523L285.764 376.396L285.718 376.341L310.355 365.048L310.37 365.11L310.57 364.993L310.911 364.792L311.464 364.539L311.425 364.49L330.588 353.226L335.043 350.608L335.072 350.646L335.085 350.636L335.446 350.371L335.893 350.108L335.909 350.099L335.875 350.056L350.146 339.571L357.897 333.876L357.929 333.917L358.046 333.811L358.301 333.58L358.865 333.165L358.801 333.125L378.673 315.06L378.71 315.108L379.085 314.685L379.744 314.086L379.64 314.06L388.643 303.912L397.036 294.453L397.08 294.511L397.32 294.172L397.451 293.985L398.148 293.2L398.006 293.198L412.673 272.404L412.727 272.476L413.079 271.828L413.749 270.878L413.579 270.908L420.891 257.449L425.322 249.292L425.39 249.387L425.634 248.769L425.707 248.583L426.286 247.517L426.103 247.579L434.793 225.516L434.885 225.645L435.135 224.647L435.581 223.516L435.397 223.604L440.952 201.489L441.082 201.674L441.198 200.624L441.22 200.422L441.267 200.234L441.508 199.276L441.335 199.384L443.731 177.634L443.931 177.923ZM434.452 223.349L432.692 220.881L432.55 220.681L432.527 220.648L435.543 208.662L438.297 197.714L440.208 200.432L434.452 223.349ZM335.263 349.289L333.046 346.514L355.1 330.303L357.293 333.104L335.263 349.289ZM334.438 349.827L310.798 363.722L308.564 360.98L332.227 347.059L332.256 347.095L334.438 349.827ZM284.101 375.927L258.522 384.64L256.283 381.992L281.885 373.256L284.101 375.927ZM126.546 385.84L105.799 378.453L104.142 376.638L124.896 384.021L126.546 385.84ZM103.338 377.211L85.0209 367.872L83.8406 366.587L102.152 375.913L102.175 375.938L103.338 377.211ZM81.3795 365.355L66.4174 354.972L66.383 354.934L81.3198 365.29L81.3795 365.355ZM64.6206 83.8701L82.1409 67.3616L83.4956 67.9425L89.4183 70.4825L79.2693 80.037L74.9655 84.0886L74.9318 84.0646L74.7934 84.2231L64.6206 83.8701ZM125.028 37.1626L147.036 25.8742L143.928 35.6321L143.697 35.7242L143.712 35.7644L128.21 43.6949L125.609 45.0255L125.028 37.1626ZM171.038 16.154L168.979 19.4959L163.967 27.628L163.711 27.7028L163.72 27.7437L145.105 35.1628L148.257 25.2704L171.038 16.154ZM195.843 8.72434L184.543 21.6014L184.284 21.6505L184.286 21.691L179.791 23.0044L165.371 27.2179L172.552 15.5649L195.843 8.72434ZM381.797 42.9493L335.342 50.8488L335.204 50.7092L335.156 50.7491L327.917 45.3219L321.507 40.5168L364.444 30.1779L381.797 42.9493ZM441.717 150.58L441.283 149.95L440.44 148.726L436.725 128.423L437.995 130.279L441.717 150.58ZM442.843 174.638L441.255 172.35L441.233 172.318L441.205 171.465L440.522 150.571L442.126 152.9L442.843 174.638ZM16.5693 294.847L36.4718 257.897L36.728 258.322L44.7845 271.714L44.7233 271.756L44.8708 271.935L26.8507 312.278L16.5693 294.847ZM273.705 1.56738L296.503 4.46214L266.829 18.8417L266.615 18.7874L266.595 18.8284L251.827 16.8876L248.41 16.4383L273.705 1.56738ZM200.462 390.756L175.291 391.068L173.137 388.643L198.324 388.317L198.346 388.342L198.763 388.816L200.462 390.756ZM27.4808 313.27L45.5669 272.779L55.9759 285.391L55.9173 285.44L56.0906 285.597L47.8657 308.463L40.3884 329.249L27.4808 313.27ZM421.998 244.701L409.889 266.977L407.832 264.186L407.807 264.152L419.933 241.854L420.001 241.949L421.998 244.701ZM394.316 289.2L392.185 286.365L407.237 265.03L409.348 267.893L394.316 289.2ZM331.61 346.285L307.938 360.211L305.698 357.46L306.818 356.8L329.393 343.507L330.206 344.525L331.61 346.285ZM123.505 382.485L102.733 375.096L101.068 373.273L121.84 380.648L121.862 380.672L123.505 382.485ZM334.386 51.3969L334.053 51.6766L299.956 80.3392L289.722 72.4826L320.43 40.9343L334.386 51.3969ZM78.2917 361.998L63.3298 351.625L63.2741 351.565L78.2319 361.933L78.2876 361.993L78.2917 361.998ZM91.049 70.3648L107.007 57.9828L126.39 82.9212L127.466 84.3043L127.463 84.3059L127.493 84.3446L115.469 93.6293L115.439 93.5967L115.419 93.6148L91.049 70.3648ZM206.063 18.5769L225.798 16.8818L224.317 23.9831L218.184 53.3895L218.019 53.3849L218.027 53.4426L203.407 54.5944L206.063 18.5769ZM197.476 387.347L172.277 387.674L170.117 385.238L173.988 385.185L195.157 384.894L195.167 384.939L195.349 384.916L195.781 385.41L197.476 387.347ZM81.903 247.439L89.6577 256.629L89.4986 256.659L89.8232 256.946L76.7817 267.906L56.7258 284.76L46.1609 271.958L81.903 247.439ZM128.905 84.5549L141.781 76.4279L162.234 107.861L172.663 123.889L172.615 123.913L172.649 123.957L164.056 129.318L128.905 84.5549ZM144.951 36.2796L163.927 28.7165L171.031 62.0936L170.94 62.1197L170.959 62.1662L160.989 66.0855L156.747 67.7532L144.951 36.2796ZM172.271 62.7585L186.821 58.5956L203.739 111.801L203.489 111.844L203.541 111.911L194.015 114.541L172.271 62.7585ZM187.779 58.3758L202.501 55.6948L210.035 89.6366L214.53 109.888L214.185 109.911L214.249 109.993L204.713 111.633L187.779 58.3758ZM429.1 215.849L427.183 213.158L427.26 212.962L427.207 212.939L432.961 190.128L434.888 192.867L429.1 215.849ZM406.624 264.199L391.566 285.541L389.429 282.696L404.503 261.328L406.624 264.199ZM224.533 384.155L198.741 387.305L196.524 384.772L208.392 383.314L222.19 381.62L222.204 381.663L222.355 381.628L224.533 384.155ZM203.477 55.5723L218.154 54.4164L220.839 74.9838L225.299 109.161L215.519 109.821L203.477 55.5723ZM295.04 92.0589L280.799 127.933L274.184 122.726L289.249 73.3546L299.378 81.1313L295.04 92.0589ZM436.441 142.92L435.168 141.072L435.161 140.819L435.104 140.809L432.663 127.426L431.435 120.689L432.727 122.577L436.441 142.92ZM405.706 261.308L405.098 260.484L405.192 260.352L405.144 260.321L417.225 238.117L419.296 240.975L407.165 263.282L405.706 261.308ZM373.223 306.337L371.044 303.497L381.546 291.652L388.792 283.479L390.947 286.348L373.223 306.337ZM372.533 307.047L352.446 325.324L350.238 322.499L357.527 315.864L370.345 304.196L371.699 305.96L372.533 307.047ZM116.143 94.3475L128.099 85.1153L152.061 115.63L163.219 129.84L163.216 129.842L163.248 129.881L155.229 136.017L116.143 94.3475ZM248.508 56.8521L246.103 111.024L236.854 109.608L234.547 54.8918L248.508 56.8521ZM261.004 116.79L265.019 118.468L266.292 120.164L266.284 120.16L266.66 120.659L259.398 117.618L257.745 115.428L261.004 116.79ZM249.85 374.212L227.018 319.988L247.6 312.741L275.538 365.417L249.85 374.212ZM75.2176 358.651L75.0269 358.519L75.1572 358.585L75.1876 358.618L75.2176 358.651ZM82.9557 247.167L132.685 241.486L137.913 247.548L126.312 249.732L90.7635 256.42L82.9557 247.167ZM123.115 218.392L124.6 220.153L126.371 226.63L124.886 224.871L123.115 218.392ZM123.041 188.376L125.378 180.092L127.585 182.76L125.257 191.033L124.874 190.573L123.041 188.376ZM134.109 161.66L136.392 164.449L131.905 172.513L130.604 170.935L129.614 169.735L130.44 168.25L134.109 161.66ZM416.911 236.514L361.945 207.863L369.306 189.429L425.998 213.491L416.911 236.514ZM123.985 217.904L122.524 216.172L121.621 208.857L123.446 211.031L124.354 218.342L124.031 217.958L123.984 217.903L123.985 217.904ZM183.967 120.689L185.484 122.622L176.414 127.136L174.132 124.253L183.215 119.731L183.967 120.689ZM200.61 118.225L207.056 116.449L209.266 119.3L199.663 121.938L197.45 119.095L200.61 118.225ZM255.973 114.705L257.824 117.159L249.687 114.896L247.834 112.451L255.973 114.705ZM277.389 126.496L280.658 129.07L281.187 129.777L276.778 126.301L276.255 125.603L277.389 126.496ZM434.076 140.625L376.391 130.337L373.403 112.972L430.124 118.966L434.076 140.625ZM404.313 259.798L351.716 226.691L361.525 208.75L416.498 237.404L404.313 259.798ZM141.222 326.153L154.391 287.785L169.049 288.939L163.674 314.711L160.928 327.873L141.222 326.153ZM239.13 114.455L241.024 116.943L231.785 116.566L229.721 113.868L238.966 114.24L239.13 114.455ZM372.424 113.055L373.622 120.021L375.405 130.379L330.429 140.017L330.264 140.053L328.178 127.26L372.424 113.055ZM247.201 311.842L226.727 319.051L218.83 281.965L233.971 276.546L245.815 308.146L247.201 311.842ZM125.799 193.212L127.926 195.763L126.71 203.894L124.579 201.35L125.799 193.212ZM205.436 121.369L209.916 120.139L212.117 122.984L202.524 125.612L200.316 122.775L205.436 121.369ZM283.461 132.818L283.974 133.503L279.576 130.033L279.065 129.352L283.461 132.818ZM278.826 249.508L290.604 238.685L322.811 261.591L306.828 276.224L278.826 249.508ZM204.056 269.104L213.792 267.707L207.132 277.365L201.715 285.22L187.011 287.286L204.056 269.104ZM215.129 267.493L224.963 265.031L217.91 281.229L203.133 284.889L215.129 267.493ZM246.638 256.185L249.166 268.302L243.092 271.186L234.881 275.084L237.033 260.764L246.638 256.185ZM235.981 261.173L233.819 275.559L226.693 278.11L219.163 280.804L226.174 264.703L235.981 261.173ZM162.665 263.759L170.954 266.428L154.181 275.576L139.108 283.795L126.548 279.662L162.665 263.759ZM140.581 284.109L172.272 266.827L181.079 268.515L153.947 286.746L142.038 284.396L140.581 284.109ZM155.493 286.888L182.473 268.758L191.69 269.439L181.282 278.133L169.482 287.989L160.969 287.319L155.493 286.888ZM327.592 199.823L319.338 197.922L324.77 184.431L368.343 189.2L361.027 207.521L327.592 199.823ZM306.062 276.848L288.493 289.902L265.116 259.824L278.071 250.142L283.923 255.725L306.062 276.848ZM257.549 249.612L266.09 243.219L277.216 249.557L264.524 259.043L257.549 249.612ZM274.564 235.471L289.517 238.354L278.041 248.898L266.88 242.54L274.564 235.471ZM310.688 211.805L306.702 212.74L289.102 216.869L293.642 208.612L317.59 199.222L313.113 207.384L310.688 211.805ZM297.587 198.905L323.495 184.976L321.091 190.947L318.295 197.892L306.998 202.321L294.178 207.349L297.587 198.905ZM300.222 189.069L327.474 170.498L324.035 183.572L297.962 197.59L300.222 189.069ZM288.435 218.033L309.866 213.005L301.328 225.087L282.8 226.013L288.435 218.033ZM282.049 227.033L300.453 226.113L290.383 237.522L275.35 234.624L282.049 227.033ZM342.663 185.403L325.072 183.478L328.658 169.845L373.45 169.741L368.669 188.249L342.663 185.403ZM327.822 169.075L300.42 187.748L301.508 179.241L329.447 156.028L328.908 160.357L327.822 169.075ZM329.592 154.633L319.234 163.239L301.525 177.953L301.433 169.584L329.393 141.799L329.471 146.825L329.592 154.633ZM323.514 260.889L291.292 237.972L301.704 226.177L337.632 244.92L336.932 245.713L323.514 260.889ZM338.261 244.143L302.314 225.39L311.195 212.822L350.296 227.101L347.478 231.092L338.261 244.143ZM350.838 226.255L311.715 211.968L318.921 198.832L360.586 208.426L355.789 217.201L350.838 226.255ZM375.9 149.362L346.994 152.52L330.567 154.314L330.36 141.035L375.491 131.363L375.847 147.029L375.9 149.362ZM329.34 140.47L301.276 168.358L299.998 160.239L327.314 128.047L329.34 140.47ZM299.001 160.206L300.452 169.423L300.539 177.307L300.557 178.958L299.699 185.661L299.314 188.672L298.357 192.28L296.734 198.401L293.05 207.529L292.856 208.01L287.726 217.339L285.049 221.129L281.435 226.248L279.527 228.409L274.063 234.6L267.486 240.651L265.742 242.256L256.591 249.104L248.406 254.047L246.756 255.043L245.8 255.499L236.397 259.981L230.228 262.202L225.67 263.843L218.193 265.715L214.737 266.58L203.772 268.154L192.941 268.548L182.408 267.77L172.311 265.836L168.029 264.456L162.818 262.778L154.058 258.661L146.137 253.547L140.724 248.857L137.446 243.67L136.636 241.835L133.845 235.517L131.877 228.347L131.473 226.876L130.347 217.87L130.446 211.382L130.489 208.626L131.878 199.27L134.5 189.934L135.972 186.393L138.321 180.744L143.277 171.832L149.305 163.316L156.325 155.318L164.229 147.947L170.544 143.125L172.927 141.304L178.143 138.06L182.291 135.48L192.192 130.569L202.489 126.638L213.06 123.743L218.156 122.876L223.729 121.928L234.373 121.233L244.815 121.675L247.032 122.018L254.925 123.242L259.485 124.518L264.536 125.932L270.258 128.333L273.526 129.704L281.738 134.511L289.062 140.289L292.606 144.036L296.241 151.436L299.001 160.206ZM158.048 141.035L158.81 141.986L160.346 143.901L153.104 150.654L150.798 147.798L158.048 141.035ZM199.315 123.085L200.617 124.757L201.545 125.949L192.156 129.533L189.919 126.682L199.11 123.163L199.315 123.085ZM181.326 134.926L172.762 140.253L170.48 137.392L179.056 132.057L180.632 134.049L181.326 134.926ZM171.955 140.813L163.998 146.89L161.709 144.034L169.669 137.948L171.955 140.813ZM166.766 134.301L169.058 137.181L161.095 143.269L158.795 140.402L166.766 134.301ZM156.022 154.26L153.722 151.418L155.045 150.184L160.961 144.668L163.249 147.522L156.022 154.26ZM182.188 134.437L179.928 131.58L180.561 131.265L188.984 127.078L191.237 129.949L182.188 134.437ZM179.306 130.794L177.035 127.922L186.103 123.409L188.366 126.291L179.306 130.794ZM153.039 152.131L155.331 154.964L148.936 162.252L146.638 159.429L151.247 154.174L153.039 152.131ZM148.306 163.032L142.834 170.762L140.543 167.964L146.024 160.226L146.885 161.284L148.306 163.032ZM137.314 180.615L133.897 188.834L132.824 187.541L131.652 186.128L135.074 177.901L137.314 180.615ZM130.882 199.311L129.675 207.435L128.639 206.197L127.55 204.897L128.541 198.267L128.765 196.77L130.882 199.311ZM129.507 208.76L129.388 216.576L127.383 214.193L127.503 206.367L129.507 208.76ZM130.301 225.393L128.488 223.245L128.458 222.998L127.581 215.95L129.39 218.099L130.301 225.393ZM132.323 233.67L130.855 231.933L129.081 225.467L130.548 227.205L132.323 233.67ZM132.964 235.946L135.198 241.004L134.456 240.129L133.176 237.224L132.229 235.077L132.964 235.946ZM253.739 119.984L261.604 122.175L262.975 123.996L263.435 124.606L255.318 122.333L253.484 119.913L253.739 119.984ZM265.009 125.067L263.377 122.9L270.636 125.943L272.266 128.112L265.009 125.067ZM274.076 128.89L272.8 127.193L278.89 130.753L280.166 132.456L274.076 128.89ZM286.756 137.222L282.368 133.76L281.862 133.086L286.253 136.55L286.756 137.222ZM276.093 127.021L277.375 128.732L271.278 125.168L269.993 123.46L276.093 127.021ZM243.842 120.652L234.614 120.262L232.561 117.58L241.795 117.956L243.842 120.652ZM245.133 120.732L243.169 118.145L248.657 118.996L251.945 119.505L253.905 122.091L245.133 120.732ZM231.307 117.554L231.702 118.069L233.419 120.313L223.901 120.934L221.785 118.179L226.112 117.895L231.307 117.554ZM220.63 118.283L221.129 118.933L222.788 121.093L213.16 122.731L210.99 119.925L215.224 119.204L220.63 118.283ZM140.005 168.854L142.272 171.623L137.8 179.665L135.525 176.908L138.992 170.674L140.005 168.854ZM131.306 187.244L133.497 189.886L131.179 198.137L128.984 195.502L129.459 193.813L131.306 187.244ZM124.604 212.409L126.423 214.573L127.331 221.872L125.512 219.714L124.604 212.409ZM260.633 120.886L252.506 118.622L250.662 116.185L258.796 118.448L260.633 120.886ZM249.126 115.778L250.081 117.04L250.949 118.189L250.947 118.188L251.093 118.38L242.314 117.021L240.34 114.428L246.449 115.367L249.126 115.778ZM228.467 113.843L230.512 116.515L230.591 116.618L221.066 117.243L218.936 114.478L228.467 113.843ZM176.164 128.399L177.413 129.98L178.444 131.284L169.864 136.621L167.576 133.745L168.357 133.259L176.164 128.399ZM150.114 148.511L151.129 149.768L152.413 151.358L146.011 158.658L143.704 155.824L150.114 148.511ZM126.541 205.218L126.421 213.048L124.407 210.651L124.488 205.524L124.531 202.819L126.541 205.218ZM127.577 223.684L129.352 230.156L128.796 229.499L128.594 229.259L128.595 229.262L127.873 228.408L126.103 221.936L127.577 223.684ZM113.593 273.631L153.792 259.619L161.454 263.221L137.346 273.836L125.189 279.189L122.084 277.701L113.593 273.631ZM125.391 280.313L138.472 284.619L133.064 295.84L120.516 321.875L102.993 315.914L125.391 280.313ZM171.05 287.956L193.119 269.523L202.644 269.176L192.342 280.166L185.484 287.481L179.135 287.69L171.05 287.956ZM250.062 267.804L247.54 255.715L256.736 250.162L262.586 258.07L263.709 259.588L259.918 261.87L250.062 267.804ZM373.648 168.76L328.836 168.864L330.524 155.306L375.84 150.356L373.982 165.951L373.648 168.76ZM327.076 126.813L307.924 149.384L299.68 159.1L297.238 151.341L323.253 114.982L327.076 126.813ZM273.286 123.278L273.531 123.606L274.578 125.002L268.471 121.436L267.178 119.713L273.286 123.278ZM268.825 123.537L269.467 124.39L262.206 121.345L260.568 119.171L267.828 122.211L268.825 123.537ZM219.953 117.403L210.31 119.047L208.13 116.235L217.78 114.583L219.953 117.403ZM198.641 122.219L198.685 122.276L189.285 125.875L187.037 123.013L196.449 119.405L198.479 122.011L198.641 122.219ZM137.06 165.264L139.337 168.039L134.856 176.096L133.213 174.1L132.575 173.324L135.295 168.435L137.06 165.264ZM132.123 174.318L134.369 177.046L130.946 185.276L129.433 183.453L128.692 182.56L130.412 178.427L132.123 174.318ZM128.345 183.675L130.546 186.329L128.223 194.59L126.018 191.944L126.044 191.851L128.345 183.675ZM123.446 209.506L121.425 207.099L121.549 199.26L123.57 201.671L123.446 209.506ZM129.242 231.543L129.992 232.43L132.228 237.503L131.475 236.615L130.565 234.549L129.242 231.543ZM139.433 284.882L153.406 287.639L140.235 326.013L140.233 326.019L121.482 322.126L139.433 284.882ZM183.296 327.3L186.162 288.395L201.542 286.234L204.037 324.533L193.597 325.926L183.296 327.3ZM205.006 324.345L202.511 286.053L217.889 282.245L225.786 319.333L205.006 324.345ZM234.877 276.172L249.52 269.219L252.749 274.993L267.945 302.165L248.107 311.47L234.877 276.172ZM289.097 290.675L306.763 277.549L310.043 281.044L348.836 322.374L326.757 338.629L289.097 290.675ZM370.37 302.781L324.278 261.503L338.482 245.439L369.283 268.615L388.105 282.777L370.37 302.781ZM339.089 244.669L351.198 227.522L403.796 260.631L388.715 282.009L339.089 244.669ZM237.505 110.7L246.298 112.047L248.275 114.655L239.485 113.304L237.505 110.7ZM163.858 130.648L166.156 133.534L158.181 139.637L155.871 136.76L158.583 134.685L163.858 130.648ZM155.124 137.394L155.73 138.149L157.432 140.269L150.18 147.033L147.868 144.17L155.124 137.394ZM149.489 147.737L143.076 155.053L140.759 152.208L147.185 144.884L149.489 147.737ZM143.09 156.621L145.382 159.437L139.898 167.179L137.598 164.375L140.344 160.498L143.09 156.621ZM138.699 248.399L144.823 253.706L100.851 265.385L91.6489 257.251L138.699 248.399ZM101.907 266.119L145.76 254.471L152.71 258.958L135.549 264.94L112.375 273.017L106.044 268.845L101.907 266.119ZM112.449 274.171L124.473 279.933L108.716 304.979L102.069 315.543L86.0029 307.632L112.449 274.171ZM85.6013 308.527L101.544 316.378L101.503 316.442L101.717 316.515L95.8926 368.026L76.0089 357.919L85.6013 308.527ZM96.8302 368.45L102.666 316.838L120.087 322.765L120.055 322.831L120.266 322.875L118.969 363.985L118.585 376.158L96.8302 368.45ZM161.925 327.894L170.043 288.971L185.175 288.473L182.308 327.386L175.411 327.558L161.925 327.894ZM268.811 301.707L250.383 268.755L264.303 260.375L287.674 290.445L279.458 295.35L268.811 301.707ZM349.598 321.755L307.517 276.921L323.592 262.204L369.678 303.478L349.598 321.755ZM426.295 212.552L407.506 204.577L369.617 188.496L374.425 169.882L432.161 189.293L426.295 212.552ZM432.327 188.314L403.786 178.719L374.615 168.911L376.82 150.414L434.9 165.211L432.327 188.314ZM434.923 164.204L418.805 160.098L376.88 149.417L376.47 131.347L434.207 141.645L434.923 164.204ZM429.826 117.948L391.381 113.886L373.23 111.968L373.197 111.777L373.121 111.801L367.704 95.5761L422.762 97.537L429.826 117.948ZM227.673 112.804L227.752 112.908L218.216 113.543L216.079 110.766L225.623 110.122L226.026 110.649L227.673 112.804ZM193.568 115.715L194.013 116.285L195.818 118.597L186.403 122.206L184.149 119.334L190.353 116.95L193.568 115.715ZM129.163 170.727L131.419 173.462L127.986 181.707L125.725 178.976L129.163 170.727ZM126.256 228.011L127.01 228.904L129.243 233.977L129.103 233.811L128.487 233.084L128.377 232.833L126.256 228.011ZM121.239 323.077L126.681 324.207L139.912 326.954L139.889 327.021L140.088 327.038L140.397 333.037L142.894 381.597L119.555 376.453L121.239 323.077ZM195.926 383.857L183.359 328.281L204.101 325.513L204.105 325.571L204.228 325.541L221.885 380.669L195.926 383.857ZM366.72 95.7227L372.189 112.101L327.942 126.306L324.023 114.18L366.72 95.7227ZM322.849 113.862L296.776 150.303L293.201 143.026L317.297 102.811L319.203 106.605L322.849 113.862ZM236.132 110.513L237.225 111.951L238.091 113.09L238.195 113.227L228.946 112.855L226.875 110.146L233.696 110.416L236.132 110.513ZM209.631 111.782L214.924 110.872L217.04 113.621L217.103 113.703L207.449 115.356L205.263 112.534L209.631 111.782ZM204.19 112.749L206.355 115.543L206.407 115.611L196.797 118.258L194.569 115.405L199.11 114.151L204.19 112.749ZM173.261 124.731L175.552 127.625L166.962 132.973L164.668 130.092L169.353 127.169L173.261 124.731ZM140.145 153.005L142.447 155.833L136.954 163.589L135.065 161.28L134.647 160.77L139.32 154.17L140.145 153.005ZM122.822 189.643L124.96 192.205L123.739 200.348L121.597 197.792L122.105 194.413L122.822 189.643ZM127.806 233.848L132.055 240.57L82.2446 246.262L75.9338 236.032L127.806 233.848ZM100.792 266.558L111.593 273.675L97.7144 291.234L85.1403 307.144L70.7444 297.423L100.792 266.558ZM74.9158 358.409L74.9103 358.438L60.2316 348.263L60.1733 348.2L63.9348 350.805L74.9158 358.409ZM78.8558 361.164L77.6526 359.854L79.658 360.873L95.7754 369.066L95.7699 369.115L96.021 369.204L97.2025 370.496L78.8558 361.164ZM104.336 372.15L118.553 377.187L118.551 377.235L118.795 377.289L120.449 379.113L99.6609 371.733L97.9843 369.899L104.336 372.15ZM143.883 381.768L141.073 327.124L160.727 328.84L160.713 328.905L160.893 328.901L165.742 364.296L168.471 384.214L143.883 381.768ZM169.466 384.267L161.878 328.876L182.235 328.369L182.231 328.431L182.385 328.411L194.935 383.916L169.466 384.267ZM205.183 325.311L225.99 320.293L226.001 320.346L226.092 320.314L229.997 329.587L248.899 374.477L222.861 380.504L205.183 325.311ZM302.236 353.135L269.318 302.546L288.282 291.223L312.669 322.276L325.934 339.168L302.236 353.135ZM329.599 342.195L327.366 339.398L349.479 323.119L351.689 325.946L329.599 342.195ZM417.744 237.163L417.835 236.996L417.784 236.969L426.754 214.245L428.763 217.064L419.746 239.926L417.744 237.163ZM435.94 164.711L435.966 164.47L435.911 164.456L435.226 142.883L436.849 145.24L437.551 167.029L435.94 164.711ZM273.33 122.168L265.885 117.823L277.042 66.3339L288.403 72.7689L273.33 122.168ZM255.851 113.654L247.074 111.223L249.479 57.0571L262.768 60.5569L255.851 113.654ZM183.352 91.6762L193.063 114.803L192.893 114.851L192.937 114.908L183.583 118.501L157.153 68.6472L171.339 63.0704L183.352 91.6762ZM150.191 132.078L154.482 136.652L147.194 143.459L104.514 105.187L115.395 94.9815L150.191 132.078ZM146.513 144.165L140.049 151.53L94.1759 116.931L103.831 105.891L146.513 144.165ZM124.571 179.343L122.281 187.465L122.177 187.341L122.102 187.84L118.87 186.751L68.1676 169.653L71.8477 156.881L124.571 179.343ZM120.584 198.318L120.463 205.953L120.243 205.691L120.365 206.676L65.5598 196.989L65.8721 184.382L120.584 198.318ZM120.491 207.694L121.37 214.808L120.998 214.362L121.396 215.817L96.1949 213.241L67.0116 210.257L65.6204 197.996L120.491 207.694ZM124.119 225.585L127.331 232.887L75.395 235.073L70.6722 224.005L124.119 225.585ZM70.2749 298.289L84.5309 307.915L84.4825 307.976L84.6905 308.078L75.1199 357.358L57.3646 345.063L70.2749 298.289ZM137.901 381.501L142.947 382.613L142.949 382.661L143.179 382.684L145.078 384.801L122.377 379.781L120.448 377.654L137.901 381.501ZM265.057 370.042L276.004 366.294L276.024 366.333L276.104 366.297L276.522 366.8L278.317 368.96L252.674 377.725L250.414 375.056L265.057 370.042ZM276.456 365.056L248.509 312.364L268.452 303.011L276.069 314.718L301.361 353.587L276.456 365.056ZM435.074 191.429L433.877 189.728L433.276 188.874L433.332 188.652L433.277 188.634L435.775 166.191L437.587 168.797L435.074 191.429ZM431.003 118.326L430.956 118.067L430.901 118.061L424.778 100.368L425.323 101.167L431.534 119.1L431.003 118.326ZM422.285 96.539L367.372 94.583L367.311 94.3991L367.241 94.4295L359.489 79.418L412.285 77.6726L422.285 96.539ZM366.339 94.8192L350.035 101.867L323.65 113.273L317.984 101.997L358.493 79.626L366.339 94.8192ZM316.75 101.819L292.613 142.102L287.955 135.417L309.547 91.7144L309.913 92.2281L316.75 101.819ZM308.878 90.8563L287.26 134.612L281.582 128.614L300.146 81.8524L301.103 82.84L308.878 90.8563ZM264.977 117.388L256.797 113.968L263.713 60.8834L276.139 65.8799L264.977 117.388ZM233.563 54.8019L234.637 80.2791L235.87 109.521L226.284 109.141L219.139 54.3971L222.226 54.4837L233.563 54.8019ZM156.256 69.046L182.662 118.855L182.559 118.894L182.597 118.943L173.546 123.449L142.636 75.946L156.256 69.046ZM93.5678 117.7L112.16 131.723L139.443 152.301L134.004 159.984L133.955 159.923L133.856 160.1L85.2657 129.416L93.5678 117.7ZM133.379 160.959L128.945 168.923L128.884 168.85L128.777 169.107L77.8939 142.485L84.7422 130.245L133.379 160.959ZM67.9604 170.618L121.955 188.826L120.757 196.791L120.611 196.617L120.6 197.31L65.951 183.39L67.9604 170.618ZM67.2223 211.265L121.673 216.83L123.387 223.101L122.628 222.198L123.681 224.592L109.65 224.177L70.3015 223.013L67.2223 211.265ZM57.4083 285.467L90.5655 257.602L99.7125 265.687L99.5394 265.733L99.9584 266.009L94.5721 271.542L69.9624 296.821L57.4083 285.467ZM146.699 385.139L144.624 382.827L154.83 383.842L168.608 385.212L168.614 385.259L168.823 385.256L170.861 387.554L146.699 385.139ZM225.681 383.986L223.433 381.378L227.018 380.548L249.285 375.395L249.303 375.436L249.419 375.396L249.723 375.756L251.623 378.001L225.681 383.986ZM305.072 356.691L302.821 353.928L308.366 350.66L326.545 339.946L326.574 339.981L326.577 339.979L328.775 342.732L305.072 356.691ZM266.147 19.7586L248.751 55.8514L248.555 55.7996L248.552 55.8677L234.689 53.9212L247.265 17.2767L266.147 19.7586ZM103.064 105.28L93.3917 116.339L93.3528 116.31L93.3082 116.372L62.1915 100.143L75.086 85.3777L103.064 105.28ZM128.398 170.015L125.02 178.124L124.942 178.029L124.84 178.391L73.8558 156.671L72.1714 155.953L77.4651 143.367L128.398 170.015ZM80.7574 363.231L99.081 372.552L100.273 373.856L81.9437 364.521L80.7574 363.231ZM279.285 368.592L277.025 365.873L286.547 361.488L301.902 354.418L301.926 354.456L301.967 354.431L303.983 356.905L304.179 357.146L279.285 368.592ZM330.211 342.961L352.292 326.719L352.324 326.76L354.496 329.531L332.434 345.747L330.211 342.961ZM373.859 307.166L373.831 307.129L383.809 295.875L391.547 287.148L391.591 287.206L392.207 288.024L393.696 290.006L375.999 309.958L373.859 307.166ZM439.77 170.219L438.578 168.506L437.876 146.732L439.493 149.078L440.205 170.842L439.77 170.219ZM439.085 146.759L438.873 146.452L437.796 144.888L435.527 132.461L434.085 124.563L435.366 126.436L439.085 146.759ZM433.631 122.164L430.94 114.394L427.429 104.255L427.962 105.037L434.169 122.949L433.631 122.164ZM357.974 78.7932L356.863 79.407L317.48 101.155L310.159 90.8855L347.905 64.9995L357.016 77.4802L357.974 78.7932ZM347.259 64.2543L316.06 85.6498L309.534 90.1256L300.688 81.0039L335.144 52.0403L347.259 64.2543ZM319.581 40.4028L288.899 71.9228L277.444 65.4347L304.013 31.816L319.581 40.4028ZM285.188 24.497L263.113 59.5848L262.906 59.5015L262.896 59.5768L249.716 56.1056L267.15 19.9339L285.188 24.497ZM246.251 17.2155L233.701 53.7825L233.519 53.757L233.522 53.8194L219.178 53.4175L226.808 16.8348L246.251 17.2155ZM61.565 100.921L92.7358 117.18L84.5455 128.738L84.4362 128.892L84.3923 128.865L84.344 128.951L53.4203 117.661L50.4566 116.579L61.565 100.921ZM32.7919 152.468L70.899 156.638L68.8811 163.641L67.2385 169.34L67.1739 169.319L67.1486 169.479L27.7972 169.572L32.7919 152.468ZM64.6347 197.992L66.0144 210.155L65.9167 210.145L65.9783 210.38L25.9201 223.238L24.1668 206.662L64.6347 197.992ZM26.084 224.216L66.2272 211.33L68.0964 218.462L69.2812 222.983L69.1701 222.98L69.2793 223.236L30.1106 240.164L26.084 224.216ZM30.4146 241.101L69.6639 224.138L74.3485 235.117L74.2219 235.122L74.391 235.397L61.3616 242.591L36.6904 256.213L30.4146 241.101ZM37.1304 257.091L74.906 236.232L81.1692 246.384L81.0271 246.401L81.2679 246.686L45.5936 271.159L37.1304 257.091ZM56.8759 286.307L60.6385 289.71L69.2784 297.523L69.2241 297.579L69.4185 297.71L56.5421 344.362L41.125 330.095L56.8759 286.307ZM149.733 388.518L147.671 386.222L153.536 386.808L171.82 388.636L171.842 388.66L173.648 390.694L173.873 390.947L149.733 388.518ZM199.523 388.198L225.303 385.049L227.49 387.59L201.729 390.715L199.523 388.198ZM255.603 381.188L253.354 378.53L278.988 369.768L281.215 372.449L255.603 381.188ZM355.253 328.909L353.052 326.098L373.132 307.828L375.31 310.668L355.253 328.909ZM422.448 243.653L420.61 241.118L420.428 240.867L429.441 218.013L431.444 220.817L422.448 243.653ZM435.924 192.638L438.436 170.017L440.241 172.609L437.738 195.218L435.924 192.638ZM303.091 31.4022L297.81 38.0842L276.548 64.9879L264.037 59.9564L286.161 24.791L303.091 31.4022ZM205.071 18.7239L203.007 46.703L202.42 54.6722L202.277 54.6835L202.289 54.7365L187.596 57.4123L185.317 22.4529L205.071 18.7239ZM184.351 22.6938L186.627 57.5891L186.508 57.6106L186.524 57.6603L171.975 61.8234L164.859 28.3895L184.351 22.6938ZM144.058 36.6885L145.703 41.0777L155.835 68.1114L155.773 68.1358L155.797 68.1798L145.328 73.4833L142.126 75.1056L125.851 46.0028L144.058 36.6885ZM125.001 46.4893L141.251 75.5489L141.219 75.5649L141.246 75.606L128.298 83.7788L107.811 57.4201L125.001 46.4893ZM90.2965 71.0016L114.704 94.286L103.782 104.53L103.747 104.499L103.713 104.539L75.7799 84.6679L90.2965 71.0016ZM49.9084 117.423L83.8587 129.818L80.0481 136.628L77.0255 142.03L76.9755 142.004L76.9289 142.115L40.7318 133.78L49.9084 117.423ZM40.2751 134.681L76.5429 143.033L74.7109 147.389L71.2703 155.57L71.2139 155.545L71.1746 155.681L65.9051 155.105L33.1449 151.521L40.2751 134.681ZM66.9942 170.46L65.9131 177.331L64.9977 183.147L64.9235 183.128L64.9189 183.314L24.7794 187.696L27.5601 170.553L66.9942 170.46ZM24.6692 188.695L64.8945 184.304L64.5847 196.817L64.4998 196.802L64.5236 197.012L24.142 205.664L24.6692 188.695ZM125.433 383.155L123.515 381.038L146.202 386.053L146.224 386.078L147.3 387.274L148.111 388.177L125.433 383.155ZM228.638 387.422L226.404 384.825L252.335 378.842L252.358 378.87L254.264 381.122L254.552 381.462L228.638 387.422ZM282.183 372.081L279.934 369.373L297.031 361.511L304.818 357.931L307.044 360.666L282.183 372.081ZM431.78 219.603L430.347 217.596L429.846 216.895L435.631 193.924L437.553 196.657L431.78 219.603ZM398.895 59.6667L411.621 76.713L358.99 78.4532L358.901 78.2812L358.838 78.3159L348.92 64.7279L398.895 59.6667ZM436.795 126.791L436.27 126.024L432.022 113.764L430.074 108.142L430.59 108.901L436.795 126.791ZM398.037 58.768L348.25 63.8101L348.136 63.6529L348.08 63.6908L336.187 51.6999L382.853 43.7643L398.037 58.768ZM354.295 31.613L320.489 39.7536L320.329 39.6339L320.289 39.6746L305.125 31.3098L343.979 19.0661L363.193 29.4702L354.295 31.613ZM342.542 18.491L320.446 25.4538L303.939 30.6556L303.759 30.5566L303.727 30.5978L299.482 28.9404L287.303 24.1845L321.802 10.5458L342.542 18.491ZM303.752 16.6271L285.961 23.6606L285.763 23.5835L285.738 23.6245L268.307 19.2151L298.256 4.70226L320.193 10.1273L303.752 16.6271ZM271.849 1.52127L258.908 9.12929L246.829 16.2306L246.599 16.2004L246.585 16.2416L227.899 15.8757L248.505 1.13964L271.849 1.52127ZM242.018 4.57381L226.258 15.8436L226.015 15.8388L226.007 15.8794L207.041 17.5084L223.01 3.38391L246.605 1.29393L242.018 4.57381ZM218.462 6.09829L205.403 17.6489L205.148 17.6709L205.145 17.7119L202.619 18.1888L186.106 21.3061L197.581 8.22836L221.144 3.72676L218.462 6.09829ZM124.66 45.4571L124.663 45.5093L124.5 45.5929L124.522 45.6326L109.877 54.945L107.221 56.6343L103.187 51.0386L124.088 37.7276L124.66 45.4571ZM102.385 51.6027L104.405 54.4047L106.392 57.1609L106.376 57.1711L106.406 57.2088L90.3319 69.6805L90.3013 69.6513L90.1968 69.7496L82.9964 66.6615L102.385 51.6027ZM63.6445 84.8173L73.9616 85.1755L61.2975 99.6764L61.2609 99.6573L61.1259 99.8476L48.2075 102.498L63.6445 84.8173ZM47.1702 103.712L52.8492 102.547L60.2945 101.019L49.5023 116.231L49.4624 116.216L49.345 116.425L33.9452 122.36L47.1702 103.712ZM32.9465 123.795L48.593 117.766L44.4501 125.15L39.7371 133.551L39.6942 133.541L39.6013 133.761L22.0322 143.229L32.9465 123.795ZM21.1614 144.812L38.9903 135.204L37.1755 139.489L32.1284 151.409L32.0824 151.404L32.0164 151.63L12.6562 164.842L21.1614 144.812ZM11.9727 166.495L31.5837 153.112L30.3614 157.297L26.7761 169.574L26.7267 169.574L26.6897 169.803L5.97624 186.91L11.9727 166.495ZM5.50845 188.568L26.4516 171.27L25.4138 177.669L23.7695 187.807L23.7169 187.812L23.7098 188.041L22.8276 188.904L2.12324 209.147L5.50845 188.568ZM1.88014 210.755L23.6659 189.454L23.2207 203.797L23.1561 205.875L23.1001 205.887L23.124 206.113L14.4046 216.096L1.17415 231.242L1.88014 210.755ZM1.14594 232.763L23.2645 207.442L24.968 223.544L24.9093 223.562L24.9649 223.782L3.18311 252.896L1.14594 232.763ZM3.35355 254.304L25.2735 225.005L29.2001 240.558L29.1397 240.584L29.2269 240.794L13.7347 265.079L8.16005 273.818L3.35355 254.304ZM8.5069 275.095L29.685 241.897L34.1705 252.699L35.8279 256.69L35.7664 256.724L35.8848 256.921L16.0692 293.71L8.5069 275.095ZM128.478 386.511L126.573 384.411L136.948 386.709L149.237 389.431L150.232 390.538L151.139 391.548L128.478 386.511ZM152.763 391.89L150.707 389.601L174.833 392.029L176.464 393.869L176.877 394.335L152.763 391.89ZM178.294 394.457L176.151 392.038L186.98 391.904L201.312 391.726L203.44 394.16L178.294 394.457ZM204.706 394.12L202.51 391.608L228.259 388.484L228.281 388.51L228.839 389.157L230.438 391.015L204.706 394.12ZM231.588 390.848L229.361 388.262L242.731 385.187L255.264 382.305L256.97 384.322L257.47 384.914L231.588 390.848ZM282.831 372.862L292.733 368.316L307.683 361.451L307.709 361.483L309.904 364.176L285.07 375.56L282.831 372.862ZM355.859 329.683L375.908 311.448L376.27 311.922L378.075 314.279L358.051 332.483L355.859 329.683ZM378.766 313.569L376.635 310.787L376.607 310.75L394.297 290.805L394.817 291.497L396.436 293.653L378.766 313.569ZM397.055 292.847L394.961 290.057L394.934 290.022L409.96 268.724L412.06 271.572L397.055 292.847ZM412.601 270.656L411.79 269.555L410.531 267.848L422.635 245.581L424.685 248.413L412.601 270.656ZM423.154 244.627L423.13 244.594L432.122 221.768L434.115 224.565L425.135 247.364L423.154 244.627ZM440.393 198.991L439.801 198.151L438.59 196.428L441.091 173.832L442.88 176.409L440.393 198.991Z" fill="#FFAF34"/>
</svg>
