<svg width="213" height="204" viewBox="0 0 213 204" fill="none" xmlns="http://www.w3.org/2000/svg">
<path d="M102.556 168.05C102.548 168.05 102.539 168.049 102.531 168.049L77.3035 165.983C77.1402 165.97 77.0179 165.827 77.0324 165.663C77.0456 165.5 77.1973 165.384 77.3524 165.391L102.58 167.456C102.744 167.469 102.866 167.613 102.851 167.777C102.838 167.932 102.709 168.05 102.556 168.05Z" fill="#FFAF34"/>
<path d="M77.553 165.996C77.4534 165.996 77.3555 165.946 77.3 165.855L63.4818 143.33C63.3954 143.19 63.4394 143.007 63.5781 142.921C63.7185 142.835 63.9029 142.879 63.9876 143.019L77.806 165.544C77.8924 165.684 77.8485 165.866 77.7081 165.953C77.6591 165.983 77.6068 165.996 77.553 165.996Z" fill="#FFAF34"/>
<path d="M156.625 169.186C156.467 169.186 156.337 169.062 156.328 168.904C156.322 168.739 156.448 168.6 156.611 168.592L182.947 167.377C183.113 167.347 183.249 167.495 183.258 167.66C183.265 167.824 183.138 167.963 182.974 167.97L156.64 169.186H156.625Z" fill="#FFAF34"/>
<path d="M196.015 186.775C195.926 186.775 195.839 186.735 195.781 186.659L181.311 167.851C181.212 167.721 181.236 167.534 181.367 167.434C181.495 167.336 181.682 167.358 181.783 167.488L196.25 186.297C196.35 186.426 196.325 186.613 196.197 186.713C196.143 186.754 196.079 186.775 196.015 186.775Z" fill="#FFAF34"/>
<path d="M43.3439 144.182C43.184 144.182 43.0535 144.055 43.047 143.894C43.0422 143.731 43.171 143.593 43.3342 143.587L64.197 142.878C64.3651 142.866 64.4972 143.001 64.5054 143.165C64.5103 143.329 64.3814 143.467 64.2182 143.473L43.3555 144.182H43.3439Z" fill="#FFAF34"/>
<path d="M22.9549 169.507C22.8145 169.507 22.6889 169.408 22.6611 169.265C22.6317 169.104 22.7378 168.949 22.8978 168.918L36.9639 166.245C37.1255 166.217 37.2806 166.32 37.3117 166.482C37.3426 166.643 37.2365 166.798 37.075 166.829L23.0104 169.502C22.9907 169.505 22.9728 169.507 22.9549 169.507Z" fill="#FFAF34"/>
<path d="M197.406 186.826C197.279 186.826 197.16 186.743 197.122 186.613C197.075 186.457 197.163 186.29 197.321 186.244L220.194 179.422C220.35 179.377 220.516 179.466 220.563 179.623C220.611 179.781 220.521 179.946 220.364 179.993L197.491 186.814C197.463 186.822 197.434 186.826 197.406 186.826Z" fill="#FFAF34"/>
<path d="M121.396 55.4661C121.295 55.4661 121.197 55.4146 121.142 55.3215L111.057 38.3992C110.974 38.2588 111.02 38.0757 111.162 37.9915C111.299 37.9074 111.483 37.9524 111.568 38.0945L121.652 55.0168C121.736 55.1572 121.69 55.3403 121.548 55.4245C121.501 55.4531 121.449 55.4661 121.396 55.4661Z" fill="#FFAF34"/>
<path d="M111.313 38.5454C111.243 38.5454 111.173 38.5217 111.118 38.4718C110.994 38.364 110.981 38.176 111.09 38.0525L119.234 28.684C119.203 28.6455 119.18 28.5998 119.172 28.5491C119.154 28.4567 119.182 28.3612 119.247 28.2925L124.27 22.894C124.38 22.7755 124.566 22.7656 124.685 22.876C124.805 22.9847 124.817 23.1693 124.711 23.292L119.926 28.7951C119.921 28.8008 119.917 28.8057 119.912 28.8114L111.537 38.4423C111.478 38.5103 111.395 38.5454 111.313 38.5454Z" fill="#FFAF34"/>
<path d="M9.63257 94.169C9.53632 94.169 9.44492 94.1242 9.3861 94.0391L9.11373 93.6378C9.03369 93.5193 9.04839 93.3583 9.15116 93.2579C9.25559 93.1564 9.41718 93.1467 9.53298 93.2292L9.8381 93.449C9.96225 93.5374 9.99818 93.7032 9.92633 93.8331C9.94103 93.9411 9.89525 94.0522 9.799 94.1176C9.74837 94.1519 9.68972 94.169 9.63257 94.169Z" fill="#FFAF34"/>
<path d="M125.466 23.4179C125.402 23.4179 125.338 23.3975 125.283 23.3558L113.395 14.1262C113.266 14.0256 113.243 13.8393 113.344 13.7086C113.444 13.5777 113.63 13.5565 113.76 13.6562L125.648 22.8852C125.777 22.9864 125.8 23.1727 125.699 23.3028C125.642 23.3787 125.554 23.4179 125.466 23.4179Z" fill="#FFAF34"/>
<path d="M195.14 18.3318C195.132 18.3318 195.124 18.331 195.116 18.3302C194.953 18.3171 194.83 18.1742 194.845 18.0098C194.856 17.8471 195.02 17.6846 195.166 17.7025C195.33 17.7156 195.455 17.8244 195.442 17.9877L195.436 18.0589C195.423 18.2142 195.294 18.3318 195.14 18.3318Z" fill="#FFAF34"/>
<path d="M148.603 56.4714H148.593L122.631 55.5365C122.468 55.5308 122.339 55.3927 122.344 55.2283C122.35 55.0641 122.499 54.9383 122.652 54.9415L148.614 55.8764C148.778 55.8822 148.907 56.0203 148.9 56.1845C148.895 56.3455 148.763 56.4714 148.603 56.4714Z" fill="#FFAF34"/>
<path d="M147.561 56.4352C147.486 56.4352 147.41 56.4058 147.351 56.3462C147.235 56.2294 147.238 56.0406 147.354 55.9261L163.344 40.1603C163.46 40.045 163.648 40.045 163.764 40.1635C163.88 40.2805 163.878 40.4693 163.762 40.5836L147.77 56.3494C147.713 56.4066 147.638 56.4352 147.561 56.4352Z" fill="#FFAF34"/>
<path d="M190.609 46.6851C190.524 46.6851 190.439 46.6483 190.38 46.5765C190.276 46.4498 190.294 46.2627 190.421 46.1581L202.046 36.6006C202.172 36.4968 202.36 36.5147 202.464 36.6414C202.568 36.769 202.551 36.9561 202.423 37.0607L190.796 46.6182C190.743 46.6639 190.676 46.6851 190.609 46.6851Z" fill="#FFAF34"/>
<path d="M194.247 103.564C194.126 103.564 194.012 103.491 193.968 103.371L185.799 81.3981C185.744 81.2436 185.82 81.0727 185.976 81.0148C186.124 80.9576 186.3 81.0361 186.357 81.1897L194.525 103.163C194.582 103.317 194.505 103.488 194.35 103.546C194.316 103.559 194.281 103.564 194.247 103.564Z" fill="#FFAF34"/>
<path d="M186.078 81.5252C186 81.5252 185.92 81.4934 185.861 81.4305C185.75 81.3111 185.755 81.1232 185.876 81.0104L201.202 66.6329C201.321 66.5218 201.508 66.526 201.623 66.6468C201.734 66.7661 201.727 66.9541 201.608 67.0669L186.28 81.445C186.225 81.4982 186.151 81.5252 186.078 81.5252Z" fill="#FFAF34"/>
<path d="M16.1558 191.833C16.0026 191.833 15.8736 191.716 15.8606 191.561C15.8459 191.397 15.9667 191.253 16.1298 191.239L23.4779 190.596C23.646 190.587 23.7847 190.703 23.7994 190.866C23.8125 191.029 23.6916 191.174 23.5286 191.189L16.1804 191.831C16.1722 191.832 16.164 191.833 16.1558 191.833Z" fill="#FFAF34"/>
<path d="M18.4209 124.605C18.2725 124.605 18.1435 124.494 18.1271 124.343C18.1076 124.18 18.2236 124.031 18.3867 124.013L33.5806 122.207C33.7356 122.178 33.8905 122.304 33.9103 122.467C33.9298 122.63 33.8138 122.778 33.6491 122.797L18.4552 124.603C18.4438 124.604 18.4324 124.605 18.4209 124.605Z" fill="#FFAF34"/>
<path d="M9.35857 106.019C9.23792 106.019 9.1253 105.945 9.08119 105.824C9.02404 105.671 9.10241 105.499 9.2558 105.443L16.7345 102.681C16.8944 102.623 17.0608 102.703 17.1163 102.857C17.1734 103.011 17.0934 103.182 16.94 103.239L9.4615 106C9.42708 106.013 9.39282 106.019 9.35857 106.019Z" fill="#FFAF34"/>
<path d="M27.4837 81.6308C27.3286 81.6308 27.1964 81.5106 27.1882 81.3528C27.1769 81.1886 27.3008 81.0472 27.4658 81.0366L41.3329 80.1482C41.4912 80.1295 41.638 80.2627 41.6462 80.4261C41.6576 80.5904 41.5336 80.7317 41.3705 80.7424L27.5015 81.6308H27.4837Z" fill="#FFAF34"/>
<path d="M143.032 191.697C142.983 191.697 142.933 191.684 142.887 191.659C142.743 191.579 142.693 191.397 142.771 191.255L155.243 168.801C155.323 168.658 155.504 168.606 155.646 168.686C155.79 168.765 155.842 168.947 155.762 169.091L143.292 191.544C143.236 191.641 143.137 191.697 143.032 191.697Z" fill="#FFAF34"/>
<path d="M157.07 212.287C156.976 212.287 156.883 212.241 156.824 212.157L142.785 191.487C142.694 191.351 142.728 191.166 142.864 191.073C142.999 190.981 143.184 191.015 143.277 191.152L157.317 211.822C157.408 211.958 157.374 212.142 157.237 212.235C157.186 212.27 157.129 212.287 157.07 212.287Z" fill="#FFAF34"/>
<path d="M106.782 75.4769C106.718 75.4769 106.655 75.4565 106.599 75.4148C106.47 75.3143 106.446 75.1271 106.547 74.9971L121.968 55.057C122.067 54.9263 122.252 54.9034 122.384 55.0038C122.513 55.1044 122.537 55.2915 122.436 55.4216L107.015 75.3616C106.958 75.4376 106.87 75.4769 106.782 75.4769Z" fill="#FFAF34"/>
<path d="M81.8591 77.4869C81.7057 77.4869 81.5767 77.3699 81.5637 77.2148C81.549 77.0504 81.6715 76.9075 81.8329 76.8936L107.009 74.7664C107.191 74.7548 107.317 74.8742 107.33 75.0377C107.345 75.2011 107.222 75.345 107.059 75.3589L81.8852 77.4861C81.8753 77.4869 81.8672 77.4869 81.8591 77.4869Z" fill="#FFAF34"/>
<path d="M81.4253 77.5927C81.3076 77.5927 81.1967 77.5224 81.151 77.4071L74.5144 60.9337L54.6975 62.6848C54.541 62.7012 54.3908 62.5771 54.3762 62.4144C54.3615 62.251 54.4822 62.1063 54.6454 62.0924L74.6808 60.3223C74.8163 60.3206 74.9338 60.3869 74.9811 60.5071L81.701 77.184C81.7613 77.3368 81.6879 77.5102 81.5362 77.5714C81.4986 77.5862 81.4627 77.5927 81.4253 77.5927Z" fill="#FFAF34"/>
<path d="M102.25 168.023C102.201 168.023 102.154 168.011 102.108 167.987C101.965 167.909 101.911 167.728 101.989 167.584L114.306 144.872C114.384 144.727 114.567 144.675 114.709 144.752C114.853 144.831 114.907 145.011 114.828 145.156L102.511 167.867C102.458 167.967 102.355 168.023 102.25 168.023Z" fill="#FFAF34"/>
<path d="M115.619 145.416C115.515 145.416 115.412 145.359 115.358 145.26L101.988 120.518C101.912 120.374 101.964 120.192 102.108 120.115C102.254 120.035 102.432 120.09 102.511 120.235L115.88 144.977C115.958 145.121 115.905 145.302 115.761 145.38C115.715 145.404 115.668 145.416 115.619 145.416Z" fill="#FFAF34"/>
<path d="M102.25 120.576C102.196 120.576 102.141 120.561 102.09 120.529C101.951 120.44 101.912 120.257 102 120.118L117.099 96.4499L106.613 75.1948C106.541 75.047 106.602 74.8688 106.749 74.7961C106.896 74.7242 107.075 74.7837 107.147 74.9308L117.708 96.3372C117.754 96.4303 117.747 96.5414 117.692 96.6289L102.501 120.439C102.444 120.528 102.348 120.576 102.25 120.576Z" fill="#FFAF34"/>
<path d="M179.281 123.442C179.22 123.442 179.158 123.423 179.106 123.384C178.974 123.288 178.945 123.101 179.041 122.969L193.594 103.066C193.693 102.936 193.879 102.905 194.008 103.002C194.14 103.099 194.17 103.286 194.073 103.418L179.521 123.321C179.462 123.4 179.372 123.442 179.281 123.442Z" fill="#FFAF34"/>
<path d="M177.982 123.455C177.977 123.455 177.971 123.455 177.964 123.454L154.342 122.09C154.179 122.081 154.053 121.941 154.063 121.777C154.071 121.612 154.207 121.472 154.376 121.497L178 122.861C178.163 122.87 178.289 123.011 178.279 123.174C178.271 123.333 178.139 123.455 177.982 123.455Z" fill="#FFAF34"/>
<path d="M155.724 122.145C155.612 122.145 155.504 122.081 155.454 121.972L144.313 97.7257L118.101 96.884C117.937 96.8792 117.809 96.7411 117.813 96.5776C117.819 96.4134 117.969 96.2899 118.119 96.2891L144.516 97.1366C144.628 97.1398 144.728 97.2077 144.777 97.3098L155.994 121.723C156.062 121.872 155.997 122.049 155.849 122.117C155.808 122.136 155.765 122.145 155.724 122.145Z" fill="#FFAF34"/>
<path d="M143.032 97.6724C142.97 97.6724 142.906 97.6526 142.852 97.6126C142.721 97.5137 142.695 97.3274 142.795 97.1959L158.085 76.8667C158.183 76.7343 158.371 76.7099 158.5 76.8078C158.632 76.9067 158.658 77.0931 158.558 77.2247L143.268 97.5539C143.209 97.6314 143.121 97.6724 143.032 97.6724Z" fill="#FFAF34"/>
<path d="M156.269 169.13C156.168 169.13 156.07 169.08 156.014 168.987L142.199 145.956L115.838 145.312C115.673 145.308 115.544 145.171 115.547 145.008C115.552 144.843 115.692 144.721 115.852 144.717L142.377 145.366C142.479 145.367 142.572 145.422 142.624 145.51L156.524 168.68C156.608 168.822 156.563 169.004 156.422 169.089C156.375 169.117 156.321 169.13 156.269 169.13Z" fill="#FFAF34"/>
<path d="M143.03 146.029C142.983 146.029 142.934 146.017 142.89 145.993C142.746 145.915 142.692 145.734 142.77 145.591L155.68 121.651C155.756 121.505 155.936 121.451 156.081 121.531C156.225 121.608 156.279 121.789 156.2 121.933L143.291 145.872C143.239 145.972 143.136 146.029 143.03 146.029Z" fill="#FFAF34"/>
<path d="M63.7349 143.537C63.6876 143.537 63.6418 143.527 63.5977 143.504C63.4525 143.428 63.3955 143.249 63.4706 143.103L75.2343 120.391C75.2849 120.293 75.386 120.232 75.497 120.231L101.727 120.078C101.89 120.078 102.024 120.211 102.025 120.374C102.027 120.538 101.895 120.671 101.73 120.673L75.6781 120.825L63.9976 143.377C63.9455 143.478 63.841 143.537 63.7349 143.537Z" fill="#FFAF34"/>
<path d="M75.8817 120.727C75.7707 120.727 75.6614 120.662 75.6125 120.553L65.7301 98.9407C65.6862 98.8443 65.6959 98.7298 65.7595 98.6441L81.3271 77.0146C81.4233 76.8806 81.6078 76.8504 81.7433 76.9477C81.8755 77.0432 81.9047 77.2287 81.8101 77.3619L66.3422 98.8508L76.1525 120.306C76.2212 120.455 76.1559 120.631 76.0058 120.7C75.9666 120.718 75.9241 120.727 75.8817 120.727Z" fill="#FFAF34"/>
<path d="M142.522 191.671H142.514L116.2 191.05C116.1 191.048 116.007 190.994 115.953 190.907L101.996 167.967C101.911 167.827 101.955 167.645 102.096 167.559C102.235 167.474 102.417 167.517 102.505 167.658L116.378 190.46L142.529 191.076C142.692 191.08 142.823 191.216 142.818 191.38C142.815 191.542 142.683 191.671 142.522 191.671Z" fill="#FFAF34"/>
<path d="M104.515 211.037C104.464 211.037 104.414 211.025 104.366 210.997C104.224 210.915 104.177 210.732 104.259 210.59L115.895 190.603C115.977 190.461 116.156 190.412 116.3 190.496C116.442 190.579 116.489 190.761 116.407 190.903L104.771 210.89C104.717 210.985 104.618 211.037 104.515 211.037Z" fill="#FFAF34"/>
<path d="M156.624 212.333C156.478 212.333 156.349 212.222 156.331 212.072C156.309 211.909 156.425 211.761 156.587 211.74L183.409 208.345L195.6 186.36C195.68 186.216 195.862 186.165 196.003 186.244C196.147 186.324 196.199 186.504 196.119 186.648L183.855 208.766C183.809 208.849 183.726 208.905 183.633 208.917L156.662 212.33C156.649 212.332 156.636 212.333 156.624 212.333Z" fill="#FFAF34"/>
<path d="M45.8054 100.525C45.6684 100.525 45.5492 100.431 45.5167 100.297L40.7893 80.5134C40.7517 80.3539 40.8496 80.193 41.0095 80.1545C41.1678 80.1169 41.3293 80.2149 41.3669 80.3751L46.0355 99.9148L66.5883 98.6122C66.7564 98.6034 66.8935 98.7267 66.9032 98.8901C66.9131 99.0544 66.7891 99.1958 66.6259 99.2055L45.8235 100.525C45.8184 100.525 45.8104 100.525 45.8054 100.525Z" fill="#FFAF34"/>
<path d="M7.09388 150.166C6.95686 150.166 6.83287 150.07 6.80346 149.93C6.76921 149.77 6.87197 149.612 7.03189 149.577L14.486 147.981C14.6589 147.946 14.8043 148.051 14.8386 148.21C14.8728 148.37 14.77 148.529 14.61 148.563L7.15587 150.16C7.13465 150.164 7.11343 150.166 7.09388 150.166Z" fill="#FFAF34"/>
<path d="M184.361 81.5473C184.346 81.5473 184.33 81.5456 184.314 81.5433L158.379 77.3116C158.286 77.2962 158.206 77.2389 158.162 77.1548L147.299 56.2257C147.224 56.0794 147.279 55.9005 147.426 55.8245C147.571 55.7492 147.751 55.8048 147.826 55.9511L158.621 76.7486L184.408 80.9565C184.571 80.9818 184.679 81.1354 184.655 81.2972C184.63 81.4435 184.504 81.5473 184.361 81.5473Z" fill="#FFAF34"/>
<path d="M154.848 29.5781C154.768 29.5781 154.688 29.5454 154.629 29.4817L149.608 24.0031C149.499 23.8821 149.507 23.6941 149.628 23.583C149.748 23.4742 149.934 23.4807 150.047 23.6009L155.068 29.0797C155.178 29.2005 155.169 29.3885 155.049 29.4996C154.991 29.552 154.92 29.5781 154.848 29.5781Z" fill="#FFAF34"/>
<path d="M149.828 24.1245C149.735 24.1245 149.644 24.082 149.587 24.0018C149.492 23.8679 149.521 23.6823 149.654 23.5859L162.033 14.643C162.166 14.5457 162.352 14.576 162.449 14.7093C162.543 14.8433 162.514 15.0296 162.382 15.1252L150.001 24.0681C149.949 24.1064 149.889 24.1245 149.828 24.1245Z" fill="#FFAF34"/>
<path d="M214.784 113.692C214.742 113.692 214.7 113.683 214.66 113.665L192.752 103.54C192.601 103.47 192.536 103.294 192.606 103.144C192.675 102.996 192.853 102.93 193 102.999L214.744 113.048L228.898 101.876C229.024 101.775 229.215 101.797 229.316 101.926C229.417 102.055 229.396 102.242 229.265 102.344L214.967 113.628C214.913 113.671 214.85 113.692 214.784 113.692Z" fill="#FFAF34"/>
<path d="M182.983 168.036C182.942 168.036 182.902 168.029 182.864 168.012C182.714 167.946 182.645 167.771 182.709 167.62L192.222 145.664L179.026 123.36C178.943 123.219 178.988 123.036 179.129 122.953C179.267 122.868 179.452 122.914 179.537 123.056L192.81 145.491C192.859 145.573 192.865 145.674 192.826 145.761L183.256 167.857C183.207 167.969 183.097 168.036 182.983 168.036Z" fill="#FFAF34"/>
<path d="M192.876 145.926C192.746 145.926 192.627 145.84 192.589 145.709C192.545 145.55 192.638 145.386 192.795 145.342L215.255 139.063C215.413 139.022 215.578 139.112 215.622 139.269C215.666 139.428 215.573 139.591 215.415 139.635L192.956 145.915C192.928 145.922 192.902 145.926 192.876 145.926Z" fill="#FFAF34"/>
<path d="M83.9598 207.109C83.8602 207.109 83.7623 207.059 83.7068 206.969L70.2786 185.154C70.228 185.072 70.2199 184.97 70.259 184.881L78.5421 165.572C78.6058 165.42 78.7821 165.349 78.9321 165.415C79.0823 165.48 79.1525 165.655 79.0872 165.806L70.8661 184.974L84.2128 206.656C84.2976 206.796 84.2552 206.978 84.1148 207.065C84.0659 207.095 84.0136 207.109 83.9598 207.109Z" fill="#FFAF34"/>
<path d="M50.1409 185.51C49.9776 185.51 49.8454 185.378 49.8438 185.214C49.8421 185.05 49.9743 184.916 50.1392 184.915L70.341 184.791H70.3444C70.5075 184.791 70.6397 184.923 70.6413 185.087C70.643 185.251 70.5108 185.384 70.3461 185.386L50.1409 185.51Z" fill="#FFAF34"/>
<path d="M165.229 40.6943C165.141 40.6943 165.053 40.6549 164.994 40.5798L156.391 29.5107C156.29 29.3798 156.313 29.1935 156.443 29.0923C156.569 28.9908 156.76 29.0146 156.859 29.1445L165.462 40.2138C165.564 40.3436 165.541 40.5299 165.41 40.6314C165.358 40.6739 165.293 40.6943 165.229 40.6943Z" fill="#FFAF34"/>
<path d="M111.312 38.5733C111.242 38.5733 111.172 38.5489 111.116 38.499C110.994 38.3902 110.981 38.2014 111.09 38.0789L119.723 28.2804C119.832 28.1579 120.019 28.1447 120.142 28.2543C120.264 28.3629 120.276 28.5509 120.168 28.6742L111.534 38.4727C111.475 38.539 111.394 38.5733 111.312 38.5733Z" fill="#FFAF34"/>
<path d="M36.547 166.444C36.516 166.444 36.485 166.44 36.454 166.43C36.2974 166.377 36.2142 166.21 36.2648 166.054L38.0386 160.676L42.8573 143.8C42.9013 143.642 43.0662 143.548 43.2244 143.597C43.3827 143.641 43.4741 143.806 43.4285 143.964L38.6064 160.851L36.8293 166.241C36.7885 166.365 36.671 166.444 36.547 166.444Z" fill="#FFAF34"/>
<path d="M46.6141 229.128C46.5015 229.128 46.3939 229.063 46.3449 228.953L37.773 210.082L22.7194 191.078C22.6198 190.949 22.6394 190.762 22.7684 190.66C22.8972 190.559 23.0849 190.578 23.1861 190.708L38.2771 209.774L46.885 228.707C46.9535 228.856 46.8867 229.033 46.7381 229.101C46.699 229.119 46.6566 229.128 46.6141 229.128Z" fill="#FFAF34"/>
<path d="M89.0191 19.7253C89.006 19.7253 88.9947 19.7253 88.9831 19.7236L77.2913 18.2935C77.1297 18.2739 77.0137 18.1259 77.0334 17.9626C77.053 17.7999 77.1868 17.6831 77.3646 17.7035L89.055 19.1328C89.2166 19.1532 89.3324 19.3012 89.3128 19.4637C89.2949 19.615 89.1659 19.7253 89.0191 19.7253Z" fill="#FFAF34"/>
<path d="M88.6571 19.7622C88.5201 19.7622 88.3993 19.6698 88.3667 19.5318C88.3308 19.3724 88.4304 19.2123 88.5886 19.1754L112.836 13.5733L125.562 5.28836C125.704 5.19849 125.885 5.23849 125.974 5.37506C126.063 5.51313 126.024 5.69707 125.887 5.78695L113.116 14.1005C113.086 14.1201 113.054 14.1332 113.02 14.1414L88.7241 19.7549C88.6996 19.7606 88.6783 19.7622 88.6571 19.7622Z" fill="#FFAF34"/>
<path d="M127.246 5.90575C127.226 5.90575 127.208 5.90408 127.189 5.90006L115.787 3.70572C115.627 3.67392 115.521 3.5186 115.552 3.35676C115.583 3.19575 115.74 3.08964 115.9 3.1206L127.301 5.31562C127.461 5.34675 127.567 5.5029 127.536 5.66458C127.51 5.80684 127.386 5.90575 127.246 5.90575Z" fill="#FFAF34"/>
<path d="M162.787 4.05321C162.771 4.05321 162.754 4.05238 162.736 4.04903L152.8 2.36733L129.434 2.011C129.269 2.00849 129.139 1.8736 129.141 1.70857C129.144 1.54589 129.276 1.41602 129.438 1.41602H129.442L152.854 1.77636L162.836 3.46241C162.998 3.48935 163.107 3.643 163.079 3.80467C163.055 3.95028 162.929 4.05321 162.787 4.05321Z" fill="#FFAF34"/>
<path d="M32.0154 53.0838C31.9421 53.0838 31.8685 53.0568 31.8114 53.0029C31.6924 52.8901 31.6874 52.7022 31.8 52.582L48.7791 34.524L61.7195 25.9635C61.8548 25.8728 62.041 25.9104 62.1322 26.0477C62.2221 26.1851 62.1845 26.3697 62.0475 26.4596L49.1594 34.9759L32.2308 52.9899C32.1737 53.052 32.0938 53.0838 32.0154 53.0838Z" fill="#FFAF34"/>
<path d="M56.5639 45.2634L45.6079 45.2005C45.443 45.1996 45.3108 45.0657 45.3125 44.9014C45.3142 44.7379 45.4464 44.6055 45.6096 44.6055L56.5656 44.6684C56.7303 44.6701 56.8625 44.8033 56.861 44.9677C56.861 45.1318 56.7272 45.2634 56.5639 45.2634Z" fill="#FFAF34"/>
<path d="M47.874 34.976C47.7681 34.976 47.6651 34.9188 47.613 34.8184C47.5363 34.6727 47.5901 34.493 47.7353 34.4162L55.4212 30.34L76.5745 17.7433C76.7148 17.6591 76.8976 17.7049 76.9825 17.847C77.0657 17.9885 77.02 18.1716 76.8796 18.2549L55.7134 30.858L48.0144 34.9417C47.9704 34.9653 47.9215 34.976 47.874 34.976Z" fill="#FFAF34"/>
<path d="M45.6102 45.1052C45.5497 45.1052 45.491 45.0881 45.4404 45.0522C45.3051 44.9589 45.2723 44.7735 45.3654 44.6386L55.2345 30.4305C55.3293 30.2956 55.5153 30.2621 55.6474 30.356C55.7829 30.4501 55.8155 30.6355 55.7225 30.7704L45.8533 44.9777C45.7945 45.061 45.7031 45.1052 45.6102 45.1052Z" fill="#FFAF34"/>
<path d="M216.437 28.2634C216.393 28.2634 216.349 28.2535 216.306 28.2331L195.998 18.1789L183.644 9.60366C183.508 9.5106 183.475 9.32499 183.569 9.19026C183.662 9.05369 183.848 9.0234 183.981 9.11495L196.298 17.6681L216.569 27.6993C216.716 27.7721 216.776 27.9502 216.703 28.0982C216.652 28.2019 216.546 28.2634 216.437 28.2634Z" fill="#FFAF34"/>
<path d="M188.345 21.6905C188.226 21.6905 188.115 21.6202 188.068 21.5033C188.007 21.3514 188.082 21.1781 188.234 21.1169L196.752 17.722C196.901 17.6624 197.077 17.7344 197.139 17.8889C197.199 18.0409 197.124 18.2141 196.973 18.2753L188.455 21.67C188.419 21.6839 188.381 21.6905 188.345 21.6905Z" fill="#FFAF34"/>
<path d="M188.734 46.7002C188.712 46.7002 188.689 46.6986 188.665 46.692L163.354 40.6618C163.194 40.6242 163.094 40.464 163.134 40.3038C163.171 40.1445 163.328 40.0424 163.491 40.0832L188.802 46.1135C188.962 46.1519 189.062 46.3121 189.022 46.4715C188.99 46.6087 188.869 46.7002 188.734 46.7002Z" fill="#FFAF34"/>
<path d="M221.809 77.7113C221.765 77.7113 221.721 77.7023 221.681 77.6827L199.544 67.1177C199.396 67.0474 199.334 66.87 199.404 66.7214C199.476 66.5734 199.657 66.5122 199.8 66.5808L221.936 77.1458C222.084 77.2161 222.146 77.3933 222.076 77.5413C222.026 77.6484 221.918 77.7113 221.809 77.7113Z" fill="#FFAF34"/>
<path d="M201.432 67.1348C201.325 67.1348 201.223 67.0768 201.17 66.9753L190.347 46.4567C190.271 46.3121 190.325 46.1313 190.47 46.0545C190.617 45.981 190.794 46.0334 190.871 46.1797L201.693 66.6983C201.77 66.8429 201.716 67.0237 201.571 67.1005C201.525 67.1233 201.48 67.1348 201.432 67.1348Z" fill="#FFAF34"/>
<path d="M199.804 67.4001C199.696 67.4001 199.594 67.3422 199.54 67.2408L199.408 66.9882C199.385 66.9442 199.375 66.8968 199.375 66.8501C199.375 66.7432 199.432 66.6394 199.533 66.5862C199.68 66.511 199.858 66.5666 199.935 66.712L200.067 66.9646C200.09 67.0088 200.101 67.0553 200.101 67.1018C200.101 67.2098 200.042 67.3127 199.941 67.3658C199.897 67.3887 199.85 67.4001 199.804 67.4001Z" fill="#FFAF34"/>
<path d="M23.4059 207.522C23.2916 207.522 23.1823 207.455 23.1333 207.343L7.27035 170.729C7.26066 170.703 7.25414 170.678 7.24913 170.651L4.53378 151.285C4.51273 151.123 4.62519 150.972 4.78677 150.95C4.94668 150.93 5.10008 151.04 5.12464 151.203L7.8318 170.528L23.6784 207.106C23.7436 207.256 23.6751 207.432 23.525 207.497C23.4874 207.513 23.4466 207.522 23.4059 207.522Z" fill="#FFAF34"/>
<path d="M4.82899 128.922C4.80927 128.922 4.78972 128.92 4.77017 128.916C4.60859 128.883 4.50582 128.726 4.53673 128.565L9.24623 105.558L12.6111 87.7519C12.642 87.5901 12.7987 87.4848 12.9587 87.5149C13.1202 87.546 13.2262 87.7012 13.1953 87.863L9.82874 105.674L5.11941 128.684C5.09167 128.825 4.96601 128.922 4.82899 128.922Z" fill="#FFAF34"/>
<path d="M43.475 144.181C43.3608 144.181 43.2515 144.113 43.2026 144.001L34.0088 122.619C33.9435 122.468 34.0137 122.293 34.1639 122.228C34.3156 122.162 34.4869 122.232 34.5539 122.383L43.7475 143.766C43.8128 143.916 43.7426 144.091 43.5926 144.157C43.555 144.174 43.5142 144.181 43.475 144.181Z" fill="#FFAF34"/>
<path d="M41.0774 80.7248C41.0122 80.7248 40.9485 80.7035 40.8931 80.6602C40.7641 80.5572 40.7445 80.3709 40.8458 80.2417L55.1389 62.2319L57.7922 45.1404C57.8183 44.9779 57.9748 44.8676 58.1299 44.8921C58.2932 44.9173 58.4041 45.0695 58.3796 45.232L55.7148 62.4018C55.7067 62.4517 55.6854 62.4999 55.6529 62.5407L41.3091 80.612C41.252 80.6854 41.1639 80.7248 41.0774 80.7248Z" fill="#FFAF34"/>
<path d="M34.2816 122.757C34.236 122.757 34.1919 122.747 34.1495 122.725C34.0026 122.652 33.9423 122.473 34.0156 122.326L45.1529 99.9948C45.2262 99.8477 45.409 99.788 45.5509 99.8616C45.6978 99.9351 45.7566 100.114 45.6848 100.26L34.5477 122.592C34.4954 122.696 34.3909 122.757 34.2816 122.757Z" fill="#FFAF34"/>
<path d="M24.2361 191.254C24.0812 191.254 23.9505 191.132 23.9408 190.976L22.5832 169.259L15.8829 153.486C15.8192 153.334 15.8894 153.16 16.0396 153.096C16.1848 153.032 16.3643 153.102 16.4296 153.253L23.1493 169.072C23.1625 169.103 23.1705 169.136 23.1722 169.17L24.5332 190.938C24.5429 191.102 24.4189 191.243 24.2558 191.253C24.2491 191.254 24.2426 191.254 24.2361 191.254Z" fill="#FFAF34"/>
<path d="M16.0157 153.567C15.8999 153.567 15.7906 153.499 15.7416 153.386L13.617 148.389C13.5533 148.237 13.6252 148.062 13.7752 147.998C13.9188 147.935 14.0999 148.004 14.1652 148.155L16.2882 153.153C16.3519 153.304 16.2817 153.478 16.1316 153.543C16.0941 153.559 16.0549 153.567 16.0157 153.567Z" fill="#FFAF34"/>
<path d="M13.8899 144.431C13.8687 144.431 13.8491 144.428 13.8279 144.424C13.6663 144.389 13.5651 144.231 13.601 144.07L17.8732 124.377L14.8248 103.002C14.8021 102.839 14.9145 102.689 15.0761 102.665C15.2377 102.641 15.3894 102.755 15.4123 102.918L18.4687 124.347C18.4752 124.381 18.4736 124.417 18.4654 124.451L14.1803 144.197C14.1492 144.336 14.0269 144.431 13.8899 144.431Z" fill="#FFAF34"/>
<path d="M13.8908 148.589C13.8696 148.589 13.8484 148.587 13.8288 148.582C13.6674 148.548 13.5661 148.389 13.6004 148.228L14.4979 144.101C14.5321 143.941 14.6921 143.839 14.8505 143.874C15.0119 143.909 15.1131 144.068 15.0772 144.228L14.1814 148.356C14.1503 148.495 14.028 148.589 13.8908 148.589Z" fill="#FFAF34"/>
<path d="M23.6701 210.792C23.5541 210.792 23.4432 210.723 23.3959 210.607L15.6464 191.653L6.82159 171.329C6.75625 171.178 6.82476 171.003 6.97649 170.937C7.12671 170.875 7.30133 170.942 7.36649 171.092L16.1946 191.422L23.9458 210.382C24.0078 210.535 23.9345 210.708 23.7827 210.77C23.7468 210.786 23.7075 210.792 23.6701 210.792Z" fill="#FFAF34"/>
<path d="M8.92291 171.617C8.76951 171.617 8.63734 171.496 8.62764 171.339L7.11975 149.981L4.5334 128.768C4.51385 128.604 4.62965 128.457 4.79291 128.437C4.96251 128.412 5.10287 128.533 5.12242 128.696L7.71061 149.923L9.21834 171.298C9.23137 171.461 9.10738 171.604 8.94413 171.616C8.93761 171.617 8.92959 171.617 8.92291 171.617Z" fill="#FFAF34"/>
<path d="M150.146 24.0926H150.138L124.898 23.3987C124.735 23.3939 124.605 23.2573 124.61 23.0931C124.614 22.9289 124.765 22.7679 124.915 22.8039L150.154 23.4977C150.317 23.5025 150.448 23.6391 150.443 23.8033C150.438 23.9651 150.306 24.0926 150.146 24.0926Z" fill="#FFAF34"/>
<path d="M22.9541 67.3935C22.8447 67.3935 22.7387 67.332 22.6864 67.2274C22.6147 67.0803 22.6751 66.9014 22.8219 66.8294L30.1699 63.2034L46.7036 44.7041C46.8146 44.5824 47.0022 44.5717 47.1229 44.6811C47.2454 44.7899 47.2551 44.9787 47.1458 45.1004L30.5746 63.6423C30.5486 63.6709 30.5192 63.6938 30.4849 63.7111L23.0846 67.3623C23.0422 67.3836 22.9981 67.3935 22.9541 67.3935Z" fill="#FFAF34"/>
<path d="M16.1559 103.239C16.1103 103.239 16.0662 103.228 16.0221 103.207C15.8769 103.133 15.8182 102.955 15.8899 102.808L26.6633 81.2432L29.8241 63.3999C29.8518 63.2374 30.0101 63.1303 30.1685 63.1589C30.3299 63.1875 30.4377 63.342 30.4083 63.5037L27.2409 81.3895C27.2361 81.4181 27.2262 81.4451 27.2148 81.4703L16.422 103.074C16.3697 103.178 16.2652 103.239 16.1559 103.239Z" fill="#FFAF34"/>
<path d="M223.646 47.6813C223.602 47.6813 223.558 47.6714 223.515 47.651L201.967 37.1171C201.933 37.0999 201.9 37.0763 201.876 37.0477L188.123 21.5957C188.013 21.473 188.023 21.2851 188.147 21.1756C188.266 21.066 188.455 21.0759 188.565 21.1992L202.28 36.608L223.776 47.1166C223.923 47.1886 223.985 47.3667 223.913 47.5146C223.861 47.6201 223.757 47.6813 223.646 47.6813Z" fill="#FFAF34"/>
<path d="M151.594 6.14258L127.167 5.79127C127.002 5.78876 126.872 5.6532 126.875 5.48968C126.877 5.32633 127.009 5.19629 127.172 5.19629H127.175L151.545 5.55261L163.392 3.40245C163.558 3.37634 163.708 3.48011 163.738 3.64195C163.767 3.8038 163.659 3.95911 163.498 3.98773L151.594 6.14258Z" fill="#FFAF34"/>
<path d="M186.623 21.708C186.597 21.708 186.571 21.7056 186.547 21.6982L162.117 15.1867C162.083 15.1768 162.05 15.1612 162.019 15.14L149.655 6.2021C149.522 6.10654 149.491 5.92009 149.586 5.78687C149.682 5.65448 149.867 5.62435 150.002 5.71992L162.324 14.626L186.699 21.1237C186.857 21.1662 186.952 21.3289 186.909 21.4874C186.875 21.6206 186.754 21.708 186.623 21.708Z" fill="#FFAF34"/>
<path d="M77.3286 18.3931C77.2292 18.3931 77.1328 18.3441 77.0773 18.255C76.9892 18.116 77.0317 17.9322 77.1687 17.8438L90.0438 9.67416C90.1808 9.5883 90.367 9.62763 90.4534 9.76655C90.5414 9.90546 90.4991 10.0886 90.362 10.1768L77.4869 18.3473C77.4381 18.3784 77.3824 18.3931 77.3286 18.3931Z" fill="#FFAF34"/>
<path d="M61.4691 26.4962C61.368 26.4962 61.2685 26.444 61.213 26.3508C61.1298 26.2093 61.177 26.0262 61.3174 25.9429L81.738 13.7787C81.8767 13.6945 82.0612 13.7394 82.1459 13.8816C82.2291 14.023 82.1818 14.206 82.0414 14.2893L61.6209 26.4545C61.5736 26.4823 61.5214 26.4962 61.4691 26.4962Z" fill="#FFAF34"/>
<path d="M227.293 36.5643C227.223 36.5643 227.153 36.5397 227.098 36.4906L214.749 25.6804L194.993 14.4339C194.851 14.3522 194.802 14.1708 194.882 14.0285C194.964 13.8848 195.143 13.8341 195.289 13.9166L215.091 25.1983L227.488 36.0419C227.612 36.1507 227.625 36.3387 227.517 36.462C227.458 36.5298 227.375 36.5643 227.293 36.5643Z" fill="#FFAF34"/>
<path d="M56.9383 45.1572C56.8372 45.1572 56.7376 45.1048 56.6821 45.0109C56.5989 44.8695 56.6445 44.6872 56.7865 44.603L77.9611 32.0482L88.2593 19.2276C88.3623 19.1009 88.5499 19.0796 88.6756 19.1827C88.8044 19.2856 88.824 19.4728 88.7212 19.6011L78.3885 32.4633C78.3673 32.491 78.3412 32.514 78.3086 32.5327L57.0883 45.1155C57.041 45.1433 56.9889 45.1572 56.9383 45.1572Z" fill="#FFAF34"/>
<path d="M2.56151 131.234C2.54347 131.234 2.52392 131.232 2.50604 131.229C2.34445 131.197 2.24002 131.042 2.2711 130.88L5.53636 113.687L10.1364 93.4043C10.1738 93.2442 10.3339 93.1469 10.4922 93.1804C10.6521 93.2164 10.7517 93.3766 10.7157 93.5359L6.11887 113.809L2.8536 130.992C2.82586 131.134 2.70187 131.234 2.56151 131.234Z" fill="#FFAF34"/>
<path d="M90.9224 42.0031C90.7788 42.0031 90.6515 41.8985 90.6288 41.7514C90.6026 41.5896 90.7152 41.4368 90.8768 41.4122L113.207 37.952C113.368 37.9301 113.52 38.0387 113.546 38.2006C113.571 38.3631 113.459 38.5152 113.296 38.5397L90.9665 41.9998C90.9518 42.0023 90.9371 42.0031 90.9224 42.0031Z" fill="#FFAF34"/>
<path d="M75.0628 60.7941C74.9975 60.7941 74.9321 60.7737 74.8783 60.7295C74.7495 60.6282 74.7283 60.4411 74.8294 60.3119L89.7295 41.4595C89.834 41.3312 90.0199 41.3107 90.1473 41.4113C90.2761 41.5134 90.2958 41.7005 90.1962 41.8298L75.2961 60.6813C75.2358 60.7557 75.1492 60.7941 75.0628 60.7941Z" fill="#FFAF34"/>
<path d="M50.2071 206.861C50.0487 206.861 49.9182 206.737 49.91 206.578L48.8789 185.242L36.3024 166.989C36.2093 166.855 36.2436 166.669 36.3791 166.576C36.5144 166.483 36.6989 166.517 36.792 166.652L49.4156 184.974C49.4467 185.02 49.4645 185.074 49.4679 185.128L50.5041 206.549C50.5122 206.714 50.3849 206.853 50.2202 206.861H50.2071Z" fill="#FFAF34"/>
<path d="M13.8902 187.676C13.7532 187.676 13.6292 187.579 13.5998 187.439C13.5672 187.278 13.67 187.121 13.8299 187.087L14.6328 186.921C14.8007 186.885 14.9509 186.992 14.9852 187.152C15.0178 187.313 14.9133 187.471 14.7534 187.503L13.9505 187.67C13.931 187.674 13.9097 187.676 13.8902 187.676Z" fill="#FFAF34"/>
<path d="M81.8603 15.6085C81.8489 15.6085 81.8359 15.6077 81.8228 15.606C81.6596 15.5847 81.5438 15.4368 81.565 15.2734L81.7281 13.9986C81.7493 13.8367 81.8783 13.71 82.0594 13.741C82.2225 13.7623 82.3385 13.9111 82.3173 14.0746L82.154 15.3486C82.1345 15.4989 82.0071 15.6085 81.8603 15.6085Z" fill="#FFAF34"/>
<path d="M4.82817 113.968C4.67627 113.968 4.54577 113.852 4.53274 113.697C4.51636 113.533 4.63717 113.389 4.80043 113.375L5.80887 113.283C5.99 113.264 6.11716 113.39 6.13187 113.553C6.14657 113.717 6.02593 113.861 5.86267 113.876L4.85423 113.967C4.84605 113.968 4.83619 113.968 4.82817 113.968Z" fill="#FFAF34"/>
<path d="M9.36001 93.6667C9.24421 93.6667 9.13326 93.5979 9.08597 93.4844C9.0223 93.3331 9.09249 93.1584 9.24421 93.0946L9.67332 92.9132C9.82505 92.8511 9.99966 92.9214 10.0633 93.0717C10.127 93.2237 10.0551 93.3977 9.90341 93.4615L9.47431 93.6429C9.43671 93.6585 9.39761 93.6667 9.36001 93.6667Z" fill="#FFAF34"/>
<path d="M9.36001 93.7811C9.30136 93.7811 9.24254 93.7638 9.19191 93.7279C9.05489 93.6348 9.0223 93.4492 9.11521 93.3145L9.60965 92.5953C9.7044 92.4604 9.89038 92.4261 10.0226 92.5193C10.1581 92.6124 10.1923 92.798 10.0993 92.9327L9.60481 93.6519C9.54599 93.7361 9.45308 93.7811 9.36001 93.7811Z" fill="#FFAF34"/>
<path d="M90.6069 41.9606C90.5384 41.9606 90.4699 41.9377 90.4144 41.8903L79.4013 32.5256C79.2773 32.4195 79.261 32.2316 79.3671 32.1065C79.4732 31.9807 79.6623 31.9675 79.7865 32.0721L90.7996 41.4367C90.9236 41.5428 90.94 41.7308 90.8322 41.856C90.775 41.9254 90.6902 41.9606 90.6069 41.9606Z" fill="#FFAF34"/>
<path d="M9.36057 93.6813C9.33617 93.6813 9.31161 93.6779 9.28721 93.6722C9.1288 93.6314 9.03088 93.4704 9.07182 93.311L10.4751 87.7327C10.5159 87.5734 10.6775 87.4827 10.8357 87.517C10.9941 87.557 11.0904 87.7188 11.0496 87.8782L9.64781 93.4565C9.61355 93.5906 9.49274 93.6813 9.36057 93.6813Z" fill="#FFAF34"/>
<path d="M115.844 3.65704C115.694 3.65704 115.567 3.54507 115.549 3.3931C115.531 3.23042 115.647 3.0833 115.81 3.06372L130.137 1.41784C130.315 1.39976 130.447 1.51826 130.465 1.6801C130.483 1.84362 130.367 1.99073 130.204 2.00948L115.877 3.65536C115.865 3.6562 115.854 3.65704 115.844 3.65704Z" fill="#FFAF34"/>
<path d="M196.317 14.3996C196.283 14.3996 196.247 14.3931 196.211 14.3809L183.707 9.63768C183.553 9.57977 183.477 9.40722 183.535 9.25441C183.591 9.09993 183.764 9.02478 183.917 9.08119L196.424 13.8244C196.577 13.8824 196.654 14.054 196.595 14.2076C196.551 14.327 196.437 14.3996 196.317 14.3996Z" fill="#FFAF34"/>
<path d="M184.514 9.64837C184.488 9.64837 184.461 9.64502 184.437 9.63849L163.346 3.98167C163.186 3.93832 163.093 3.77581 163.135 3.61714C163.178 3.45865 163.346 3.37045 163.499 3.40643L184.589 9.06326C184.749 9.10644 184.842 9.26912 184.799 9.42761C184.765 9.56084 184.644 9.64837 184.514 9.64837Z" fill="#FFAF34"/>
<path d="M11.6248 88.0793C11.579 88.0793 11.5318 88.0686 11.4893 88.0465C11.3424 87.9713 11.287 87.7916 11.3605 87.6462L22.0342 66.8577C22.1092 66.7098 22.2904 66.6534 22.4339 66.7285C22.5791 66.8037 22.6363 66.9836 22.5629 67.129L11.8892 87.9175C11.8354 88.0204 11.7324 88.0793 11.6248 88.0793Z" fill="#FFAF34"/>
<path d="M22.9537 67.3964C22.8982 67.3964 22.841 67.3817 22.7921 67.3488C22.6551 67.2598 22.6143 67.076 22.704 66.9378L31.8781 52.6716C31.9678 52.5336 32.1506 52.4936 32.2893 52.5826C32.4263 52.6716 32.4656 52.8556 32.3773 52.9936L23.2033 67.2598C23.1462 67.3482 23.0499 67.3964 22.9537 67.3964Z" fill="#FFAF34"/>
<path d="M4.02223 151.454C3.86883 151.454 3.73665 151.334 3.7268 151.178L2.26636 130.876C2.25499 130.712 2.37731 130.57 2.54056 130.557C2.70048 130.545 2.84569 130.669 2.85705 130.833L4.31766 151.135C4.32902 151.299 4.2067 151.441 4.04345 151.453C4.03693 151.454 4.02874 151.454 4.02223 151.454Z" fill="#FFAF34"/>
<path d="M2.56317 131.256C2.51589 131.256 2.46843 131.245 2.42281 131.22C2.2776 131.143 2.2238 130.962 2.3005 130.818L3.49324 128.59C3.57328 128.446 3.75108 128.391 3.89628 128.469C4.04149 128.546 4.0938 128.727 4.01877 128.871L2.82585 131.099C2.77038 131.199 2.66928 131.256 2.56317 131.256Z" fill="#FFAF34"/>
<path d="M90.9212 10.2338C90.7907 10.2338 90.6699 10.1455 90.6357 10.0132C90.5917 9.85383 90.688 9.69115 90.8445 9.64864L115.328 3.12569C115.485 3.08234 115.65 3.17791 115.691 3.3364C115.733 3.49574 115.638 3.65842 115.48 3.70093L90.9979 10.224C90.9735 10.2306 90.9473 10.2338 90.9212 10.2338Z" fill="#FFAF34"/>
<path d="M81.8587 14.3922C81.7494 14.3922 81.645 14.3317 81.5927 14.2271C81.521 14.08 81.5813 13.9011 81.7282 13.8283L90.1451 9.65886C90.2903 9.58773 90.4714 9.64748 90.5416 9.79375C90.615 9.94171 90.5547 10.1198 90.4078 10.1926L81.9909 14.362C81.9484 14.3824 81.9028 14.3922 81.8587 14.3922Z" fill="#FFAF34"/>
<path d="M103.163 167.841C103.163 168.803 102.385 169.582 101.425 169.582C100.466 169.582 99.6875 168.803 99.6875 167.841C99.6875 166.879 100.466 166.1 101.425 166.1C102.385 166.1 103.163 166.879 103.163 167.841Z" fill="#FFAF34"/>
<path d="M78.2429 165.715C78.2429 166.677 77.4646 167.457 76.5034 167.457C75.544 167.457 74.7656 166.677 74.7656 165.715C74.7656 164.754 75.544 163.975 76.5034 163.975C77.4646 163.975 78.2429 164.754 78.2429 165.715Z" fill="#FFAF34"/>
<path d="M78.2429 165.715C78.2429 166.677 77.4646 167.457 76.5034 167.457C75.544 167.457 74.7656 166.677 74.7656 165.715C74.7656 164.754 75.544 163.975 76.5034 163.975C77.4646 163.975 78.2429 164.754 78.2429 165.715Z" fill="#FFAF34"/>
<path d="M64.6492 143.202C64.6492 144.163 63.8708 144.943 62.9114 144.943C61.9502 144.943 61.1719 144.163 61.1719 143.202C61.1719 142.241 61.9502 141.461 62.9114 141.461C63.8708 141.461 64.6492 142.241 64.6492 143.202Z" fill="#FFAF34"/>
<path d="M157.538 168.974C157.538 169.935 156.76 170.714 155.8 170.714C154.841 170.714 154.062 169.935 154.062 168.974C154.062 168.012 154.841 167.232 155.8 167.232C156.76 167.232 157.538 168.012 157.538 168.974Z" fill="#FFAF34"/>
<path d="M182.462 167.698C182.462 168.66 181.683 169.439 180.724 169.439C179.763 169.439 178.984 168.66 178.984 167.698C178.984 166.737 179.763 165.957 180.724 165.957C181.683 165.957 182.462 166.737 182.462 167.698Z" fill="#FFAF34"/>
<path d="M182.462 167.698C182.462 168.66 181.683 169.439 180.724 169.439C179.763 169.439 178.984 168.66 178.984 167.698C178.984 166.737 179.763 165.957 180.724 165.957C181.683 165.957 182.462 166.737 182.462 167.698Z" fill="#FFAF34"/>
<path d="M198.32 186.532C198.32 187.493 197.541 188.273 196.582 188.273C195.622 188.273 194.844 187.493 194.844 186.532C194.844 185.571 195.622 184.791 196.582 184.791C197.541 184.791 198.32 185.571 198.32 186.532Z" fill="#FFAF34"/>
<path d="M64.6492 143.202C64.6492 144.163 63.8708 144.943 62.9114 144.943C61.9502 144.943 61.1719 144.163 61.1719 143.202C61.1719 142.241 61.9502 141.461 62.9114 141.461C63.8708 141.461 64.6492 142.241 64.6492 143.202Z" fill="#FFAF34"/>
<path d="M44.2587 143.909C44.2587 144.87 43.4802 145.65 42.5207 145.65C41.5596 145.65 40.7812 144.87 40.7812 143.909C40.7812 142.948 41.5596 142.168 42.5207 142.168C43.4802 142.168 44.2587 142.948 44.2587 143.909Z" fill="#FFAF34"/>
<path d="M37.4619 166.566C37.4619 167.527 36.6833 168.306 35.7222 168.306C34.7627 168.306 33.9844 167.527 33.9844 166.566C33.9844 165.604 34.7627 164.824 35.7222 164.824C36.6833 164.824 37.4619 165.604 37.4619 166.566Z" fill="#FFAF34"/>
<path d="M23.8681 169.256C23.8681 170.218 23.0898 170.998 22.1303 170.998C21.1691 170.998 20.3906 170.218 20.3906 169.256C20.3906 168.295 21.1691 167.516 22.1303 167.516C23.0898 167.516 23.8681 168.295 23.8681 169.256Z" fill="#FFAF34"/>
<path d="M198.32 186.532C198.32 187.493 197.541 188.273 196.582 188.273C195.622 188.273 194.844 187.493 194.844 186.532C194.844 185.571 195.622 184.791 196.582 184.791C197.541 184.791 198.32 185.571 198.32 186.532Z" fill="#FFAF34"/>
<path d="M112.227 38.2738C112.227 39.2357 111.449 40.0154 110.489 40.0154C109.528 40.0154 108.75 39.2357 108.75 38.2738C108.75 37.3128 109.528 36.5332 110.489 36.5332C111.449 36.5332 112.227 37.3128 112.227 38.2738Z" fill="#FFAF34"/>
<path d="M123.554 55.267C123.554 56.2289 122.775 57.0085 121.816 57.0085C120.856 57.0085 120.078 56.2289 120.078 55.267C120.078 54.3052 120.856 53.5254 121.816 53.5254C122.775 53.5254 123.554 54.3052 123.554 55.267Z" fill="#FFAF34"/>
<path d="M112.227 38.2738C112.227 39.2357 111.449 40.0154 110.489 40.0154C109.528 40.0154 108.75 39.2357 108.75 38.2738C108.75 37.3128 109.528 36.5332 110.489 36.5332C111.449 36.5332 112.227 37.3128 112.227 38.2738Z" fill="#FFAF34"/>
<path d="M125.82 23.1243C125.82 24.0861 125.041 24.8657 124.082 24.8657C123.122 24.8657 122.344 24.0861 122.344 23.1243C122.344 22.1624 123.122 21.3828 124.082 21.3828C125.041 21.3828 125.82 22.1624 125.82 23.1243Z" fill="#FFAF34"/>
<path d="M114.493 13.9183C114.493 14.8802 113.715 15.66 112.754 15.66C111.794 15.66 111.016 14.8802 111.016 13.9183C111.016 12.9573 111.794 12.1777 112.754 12.1777C113.715 12.1777 114.493 12.9573 114.493 13.9183Z" fill="#FFAF34"/>
<path d="M125.82 23.1243C125.82 24.0861 125.041 24.8657 124.082 24.8657C123.122 24.8657 122.344 24.0861 122.344 23.1243C122.344 22.1624 123.122 21.3828 124.082 21.3828C125.041 21.3828 125.82 22.1624 125.82 23.1243Z" fill="#FFAF34"/>
<path d="M196.055 18.0268C196.055 18.9886 195.277 19.7682 194.318 19.7682C193.356 19.7682 192.578 18.9886 192.578 18.0268C192.578 17.0649 193.356 16.2852 194.318 16.2852C195.277 16.2852 196.055 17.0649 196.055 18.0268Z" fill="#FFAF34"/>
<path d="M196.055 18.0266C196.055 18.9885 195.277 19.7681 194.318 19.7681C193.356 19.7681 192.578 18.9885 192.578 18.0266C192.578 17.0648 193.356 16.2852 194.318 16.2852C195.277 16.2852 196.055 17.0648 196.055 18.0266Z" fill="#FFAF34"/>
<path d="M123.554 55.267C123.554 56.2289 122.775 57.0085 121.816 57.0085C120.856 57.0085 120.078 56.2289 120.078 55.267C120.078 54.3052 120.856 53.5254 121.816 53.5254C122.775 53.5254 123.554 54.3052 123.554 55.267Z" fill="#FFAF34"/>
<path d="M148.477 56.1166C148.477 57.0785 147.699 57.8581 146.738 57.8581C145.778 57.8581 145 57.0785 145 56.1166C145 55.1548 145.778 54.375 146.738 54.375C147.699 54.375 148.477 55.1548 148.477 56.1166Z" fill="#FFAF34"/>
<path d="M148.477 56.1166C148.477 57.0785 147.699 57.8581 146.738 57.8581C145.778 57.8581 145 57.0785 145 56.1166C145 55.1548 145.778 54.375 146.738 54.375C147.699 54.375 148.477 55.1548 148.477 56.1166Z" fill="#FFAF34"/>
<path d="M164.337 40.3997C164.337 41.3617 163.558 42.1413 162.599 42.1413C161.638 42.1413 160.859 41.3617 160.859 40.3997C160.859 39.4378 161.638 38.6582 162.599 38.6582C163.558 38.6582 164.337 39.4378 164.337 40.3997Z" fill="#FFAF34"/>
<path d="M202.852 36.8586C202.852 37.8197 202.074 38.5994 201.113 38.5994C200.153 38.5994 199.375 37.8197 199.375 36.8586C199.375 35.8968 200.153 35.1172 201.113 35.1172C202.074 35.1172 202.852 35.8968 202.852 36.8586Z" fill="#FFAF34"/>
<path d="M191.524 46.3471C191.524 47.3081 190.746 48.0877 189.787 48.0877C188.825 48.0877 188.047 47.3081 188.047 46.3471C188.047 45.3852 188.825 44.6055 189.787 44.6055C190.746 44.6055 191.524 45.3852 191.524 46.3471Z" fill="#FFAF34"/>
<path d="M193.788 103.271C193.788 104.233 193.01 105.012 192.05 105.012C191.089 105.012 190.312 104.233 190.312 103.271C190.312 102.309 191.089 101.529 192.05 101.529C193.01 101.529 193.788 102.309 193.788 103.271Z" fill="#FFAF34"/>
<path d="M186.993 81.3217C186.993 82.2827 186.215 83.0623 185.254 83.0623C184.294 83.0623 183.516 82.2827 183.516 81.3217C183.516 80.3598 184.294 79.5801 185.254 79.5801C186.215 79.5801 186.993 80.3598 186.993 81.3217Z" fill="#FFAF34"/>
<path d="M186.993 81.3217C186.993 82.2827 186.215 83.0623 185.254 83.0623C184.294 83.0623 183.516 82.2827 183.516 81.3217C183.516 80.3598 184.294 79.5801 185.254 79.5801C186.215 79.5801 186.993 80.3598 186.993 81.3217Z" fill="#FFAF34"/>
<path d="M200.587 66.8782C200.587 67.8392 199.808 68.619 198.849 68.619C197.888 68.619 197.109 67.8392 197.109 66.8782C197.109 65.9163 197.888 65.1367 198.849 65.1367C199.808 65.1367 200.587 65.9163 200.587 66.8782Z" fill="#FFAF34"/>
<path d="M17.0712 191.63C17.0712 192.592 16.2929 193.372 15.3332 193.372C14.3723 193.372 13.5938 192.592 13.5938 191.63C13.5938 190.668 14.3723 189.889 15.3332 189.889C16.2929 189.889 17.0712 190.668 17.0712 191.63Z" fill="#FFAF34"/>
<path d="M23.8679 190.921C23.8679 191.883 23.0896 192.663 22.1301 192.663C21.169 192.663 20.3906 191.883 20.3906 190.921C20.3906 189.959 21.169 189.18 22.1301 189.18C23.0896 189.18 23.8679 189.959 23.8679 190.921Z" fill="#FFAF34"/>
<path d="M19.3352 124.368C19.3352 125.33 18.5567 126.11 17.5972 126.11C16.6377 126.11 15.8594 125.33 15.8594 124.368C15.8594 123.407 16.6377 122.627 17.5972 122.627C18.5567 122.627 19.3352 123.407 19.3352 124.368Z" fill="#FFAF34"/>
<path d="M35.1961 122.529C35.1961 123.49 34.4177 124.27 33.4566 124.27C32.4971 124.27 31.7188 123.49 31.7188 122.529C31.7188 121.567 32.4971 120.787 33.4566 120.787C34.4177 120.787 35.1961 121.567 35.1961 122.529Z" fill="#FFAF34"/>
<path d="M17.0696 102.988C17.0696 103.949 16.2911 104.729 15.3316 104.729C14.3721 104.729 13.5938 103.949 13.5938 102.988C13.5938 102.026 14.3721 101.246 15.3316 101.246C16.2911 101.246 17.0696 102.026 17.0696 102.988Z" fill="#FFAF34"/>
<path d="M10.2742 105.676C10.2742 106.638 9.49585 107.418 8.5347 107.418C7.57522 107.418 6.79688 106.638 6.79688 105.676C6.79688 104.715 7.57522 103.936 8.5347 103.936C9.49585 103.936 10.2742 104.715 10.2742 105.676Z" fill="#FFAF34"/>
<path d="M41.9929 80.4712C41.9929 81.4331 41.2131 82.2127 40.2534 82.2127C39.294 82.2127 38.5156 81.4331 38.5156 80.4712C38.5156 79.5094 39.294 78.7305 40.2534 78.7305C41.2131 78.7305 41.9929 79.5094 41.9929 80.4712Z" fill="#FFAF34"/>
<path d="M28.3992 81.3215C28.3992 82.2825 27.6208 83.0621 26.6614 83.0621C25.7002 83.0621 24.9219 82.2825 24.9219 81.3215C24.9219 80.3597 25.7002 79.5801 26.6614 79.5801C27.6208 79.5801 28.3992 80.3597 28.3992 81.3215Z" fill="#FFAF34"/>
<path d="M157.538 168.974C157.538 169.935 156.76 170.714 155.8 170.714C154.841 170.714 154.062 169.935 154.062 168.974C154.062 168.012 154.841 167.232 155.8 167.232C156.76 167.232 157.538 168.012 157.538 168.974Z" fill="#FFAF34"/>
<path d="M143.946 191.346C143.946 192.308 143.168 193.088 142.208 193.088C141.247 193.088 140.469 192.308 140.469 191.346C140.469 190.385 141.247 189.605 142.208 189.605C143.168 189.605 143.946 190.385 143.946 191.346Z" fill="#FFAF34"/>
<path d="M143.946 191.346C143.946 192.308 143.168 193.088 142.208 193.088C141.247 193.088 140.469 192.308 140.469 191.346C140.469 190.385 141.247 189.605 142.208 189.605C143.168 189.605 143.946 190.385 143.946 191.346Z" fill="#FFAF34"/>
<path d="M123.554 55.267C123.554 56.2289 122.775 57.0085 121.816 57.0085C120.856 57.0085 120.078 56.2289 120.078 55.267C120.078 54.3052 120.856 53.5254 121.816 53.5254C122.775 53.5254 123.554 54.3052 123.554 55.267Z" fill="#FFAF34"/>
<path d="M107.696 75.0911C107.696 76.0529 106.918 76.8327 105.958 76.8327C104.997 76.8327 104.219 76.0529 104.219 75.0911C104.219 74.1292 104.997 73.3496 105.958 73.3496C106.918 73.3496 107.696 74.1292 107.696 75.0911Z" fill="#FFAF34"/>
<path d="M107.696 75.0911C107.696 76.0529 106.918 76.8327 105.958 76.8327C104.997 76.8327 104.219 76.0529 104.219 75.0911C104.219 74.1292 104.997 73.3496 105.958 73.3496C106.918 73.3496 107.696 74.1292 107.696 75.0911Z" fill="#FFAF34"/>
<path d="M82.7727 77.2152C82.7727 78.1771 81.9943 78.9568 81.0349 78.9568C80.0737 78.9568 79.2969 78.1771 79.2969 77.2152C79.2969 76.2542 80.0737 75.4746 81.0349 75.4746C81.9943 75.4746 82.7727 76.2542 82.7727 77.2152Z" fill="#FFAF34"/>
<path d="M55.5869 62.3461C55.5869 63.3079 54.8083 64.0875 53.8489 64.0875C52.8877 64.0875 52.1094 63.3079 52.1094 62.3461C52.1094 61.3851 52.8877 60.6055 53.8489 60.6055C54.8083 60.6055 55.5869 61.3851 55.5869 62.3461Z" fill="#FFAF34"/>
<path d="M75.9758 60.6479C75.9758 61.6097 75.1975 62.3893 74.238 62.3893C73.2783 62.3893 72.5 61.6097 72.5 60.6479C72.5 59.686 73.2783 58.9062 74.238 58.9062C75.1975 58.9062 75.9758 59.686 75.9758 60.6479Z" fill="#FFAF34"/>
<path d="M82.7727 77.2152C82.7727 78.1771 81.9943 78.9568 81.0349 78.9568C80.0737 78.9568 79.2969 78.1771 79.2969 77.2152C79.2969 76.2542 80.0737 75.4746 81.0349 75.4746C81.9943 75.4746 82.7727 76.2542 82.7727 77.2152Z" fill="#FFAF34"/>
<path d="M103.163 167.841C103.163 168.803 102.385 169.582 101.425 169.582C100.466 169.582 99.6875 168.803 99.6875 167.841C99.6875 166.879 100.466 166.1 101.425 166.1C102.385 166.1 103.163 166.879 103.163 167.841Z" fill="#FFAF34"/>
<path d="M116.759 145.042C116.759 146.004 115.98 146.784 115.019 146.784C114.06 146.784 113.281 146.004 113.281 145.042C113.281 144.08 114.06 143.301 115.019 143.301C115.98 143.301 116.759 144.08 116.759 145.042Z" fill="#FFAF34"/>
<path d="M116.759 145.042C116.759 146.004 115.98 146.784 115.019 146.784C114.06 146.784 113.281 146.004 113.281 145.042C113.281 144.08 114.06 143.301 115.019 143.301C115.98 143.301 116.759 144.08 116.759 145.042Z" fill="#FFAF34"/>
<path d="M103.165 120.404C103.165 121.366 102.386 122.145 101.427 122.145C100.466 122.145 99.6875 121.366 99.6875 120.404C99.6875 119.442 100.466 118.662 101.427 118.662C102.386 118.662 103.165 119.442 103.165 120.404Z" fill="#FFAF34"/>
<path d="M107.696 75.0911C107.696 76.0529 106.918 76.8327 105.958 76.8327C104.997 76.8327 104.219 76.0529 104.219 75.0911C104.219 74.1292 104.997 73.3496 105.958 73.3496C106.918 73.3496 107.696 74.1292 107.696 75.0911Z" fill="#FFAF34"/>
<path d="M119.024 96.6147C119.024 97.5757 118.246 98.3553 117.286 98.3553C116.325 98.3553 115.547 97.5757 115.547 96.6147C115.547 95.6528 116.325 94.873 117.286 94.873C118.246 94.873 119.024 95.6528 119.024 96.6147Z" fill="#FFAF34"/>
<path d="M103.165 120.404C103.165 121.366 102.386 122.145 101.427 122.145C100.466 122.145 99.6875 121.366 99.6875 120.404C99.6875 119.442 100.466 118.662 101.427 118.662C102.386 118.662 103.165 119.442 103.165 120.404Z" fill="#FFAF34"/>
<path d="M193.788 103.271C193.788 104.233 193.01 105.012 192.05 105.012C191.089 105.012 190.312 104.233 190.312 103.271C190.312 102.309 191.089 101.529 192.05 101.529C193.01 101.529 193.788 102.309 193.788 103.271Z" fill="#FFAF34"/>
<path d="M180.195 123.236C180.195 124.197 179.416 124.977 178.457 124.977C177.497 124.977 176.719 124.197 176.719 123.236C176.719 122.274 177.497 121.494 178.457 121.494C179.416 121.494 180.195 122.274 180.195 123.236Z" fill="#FFAF34"/>
<path d="M180.195 123.236C180.195 124.197 179.416 124.977 178.457 124.977C177.497 124.977 176.719 124.197 176.719 123.236C176.719 122.274 177.497 121.494 178.457 121.494C179.416 121.494 180.195 122.274 180.195 123.236Z" fill="#FFAF34"/>
<path d="M155.274 121.82C155.274 122.781 154.496 123.561 153.535 123.561C152.575 123.561 151.797 122.781 151.797 121.82C151.797 120.858 152.575 120.078 153.535 120.078C154.496 120.078 155.274 120.858 155.274 121.82Z" fill="#FFAF34"/>
<path d="M119.024 96.6147C119.024 97.5757 118.246 98.3553 117.286 98.3553C116.325 98.3553 115.547 97.5757 115.547 96.6147C115.547 95.6528 116.325 94.873 117.286 94.873C118.246 94.873 119.024 95.6528 119.024 96.6147Z" fill="#FFAF34"/>
<path d="M143.946 97.3235C143.946 98.2853 143.168 99.0651 142.208 99.0651C141.247 99.0651 140.469 98.2853 140.469 97.3235C140.469 96.3616 141.247 95.582 142.208 95.582C143.168 95.582 143.946 96.3616 143.946 97.3235Z" fill="#FFAF34"/>
<path d="M155.274 121.82C155.274 122.781 154.496 123.561 153.535 123.561C152.575 123.561 151.797 122.781 151.797 121.82C151.797 120.858 152.575 120.078 153.535 120.078C154.496 120.078 155.274 120.858 155.274 121.82Z" fill="#FFAF34"/>
<path d="M143.946 97.3235C143.946 98.2853 143.168 99.0651 142.208 99.0651C141.247 99.0651 140.469 98.2853 140.469 97.3235C140.469 96.3616 141.247 95.582 142.208 95.582C143.168 95.582 143.946 96.3616 143.946 97.3235Z" fill="#FFAF34"/>
<path d="M159.804 77.0735C159.804 78.0353 159.026 78.8151 158.066 78.8151C157.106 78.8151 156.328 78.0353 156.328 77.0735C156.328 76.1116 157.106 75.332 158.066 75.332C159.026 75.332 159.804 76.1116 159.804 77.0735Z" fill="#FFAF34"/>
<path d="M157.538 168.974C157.538 169.935 156.76 170.714 155.8 170.714C154.841 170.714 154.062 169.935 154.062 168.974C154.062 168.012 154.841 167.232 155.8 167.232C156.76 167.232 157.538 168.012 157.538 168.974Z" fill="#FFAF34"/>
<path d="M143.946 145.751C143.946 146.713 143.168 147.493 142.208 147.493C141.247 147.493 140.469 146.713 140.469 145.751C140.469 144.79 141.247 144.01 142.208 144.01C143.168 144.01 143.946 144.79 143.946 145.751Z" fill="#FFAF34"/>
<path d="M116.759 145.042C116.759 146.004 115.98 146.784 115.019 146.784C114.06 146.784 113.281 146.004 113.281 145.042C113.281 144.08 114.06 143.301 115.019 143.301C115.98 143.301 116.759 144.08 116.759 145.042Z" fill="#FFAF34"/>
<path d="M155.274 121.82C155.274 122.781 154.496 123.561 153.535 123.561C152.575 123.561 151.797 122.781 151.797 121.82C151.797 120.858 152.575 120.078 153.535 120.078C154.496 120.078 155.274 120.858 155.274 121.82Z" fill="#FFAF34"/>
<path d="M143.946 145.751C143.946 146.713 143.168 147.493 142.208 147.493C141.247 147.493 140.469 146.713 140.469 145.751C140.469 144.79 141.247 144.01 142.208 144.01C143.168 144.01 143.946 144.79 143.946 145.751Z" fill="#FFAF34"/>
<path d="M64.6492 143.202C64.6492 144.163 63.8708 144.943 62.9114 144.943C61.9502 144.943 61.1719 144.163 61.1719 143.202C61.1719 142.241 61.9502 141.461 62.9114 141.461C63.8708 141.461 64.6492 142.241 64.6492 143.202Z" fill="#FFAF34"/>
<path d="M75.9775 120.546C75.9775 121.508 75.199 122.288 74.2395 122.288C73.2783 122.288 72.5 121.508 72.5 120.546C72.5 119.584 73.2783 118.805 74.2395 118.805C75.199 118.805 75.9775 119.584 75.9775 120.546Z" fill="#FFAF34"/>
<path d="M103.165 120.404C103.165 121.366 102.386 122.145 101.427 122.145C100.466 122.145 99.6875 121.366 99.6875 120.404C99.6875 119.442 100.466 118.662 101.427 118.662C102.386 118.662 103.165 119.442 103.165 120.404Z" fill="#FFAF34"/>
<path d="M82.7727 77.2152C82.7727 78.1771 81.9943 78.9568 81.0349 78.9568C80.0737 78.9568 79.2969 78.1771 79.2969 77.2152C79.2969 76.2542 80.0737 75.4746 81.0349 75.4746C81.9943 75.4746 82.7727 76.2542 82.7727 77.2152Z" fill="#FFAF34"/>
<path d="M66.915 98.8803C66.915 99.8421 66.1366 100.622 65.1772 100.622C64.216 100.622 63.4375 99.8421 63.4375 98.8803C63.4375 97.9184 64.216 97.1387 65.1772 97.1387C66.1366 97.1387 66.915 97.9184 66.915 98.8803Z" fill="#FFAF34"/>
<path d="M75.9775 120.546C75.9775 121.508 75.199 122.288 74.2395 122.288C73.2783 122.288 72.5 121.508 72.5 120.546C72.5 119.584 73.2783 118.805 74.2395 118.805C75.199 118.805 75.9775 119.584 75.9775 120.546Z" fill="#FFAF34"/>
<path d="M103.163 167.841C103.163 168.803 102.385 169.582 101.425 169.582C100.466 169.582 99.6875 168.803 99.6875 167.841C99.6875 166.879 100.466 166.1 101.425 166.1C102.385 166.1 103.163 166.879 103.163 167.841Z" fill="#FFAF34"/>
<path d="M119.024 190.781C119.024 191.742 118.246 192.522 117.285 192.522C116.325 192.522 115.547 191.742 115.547 190.781C115.547 189.819 116.325 189.039 117.285 189.039C118.246 189.039 119.024 189.819 119.024 190.781Z" fill="#FFAF34"/>
<path d="M143.946 191.346C143.946 192.308 143.168 193.088 142.208 193.088C141.247 193.088 140.469 192.308 140.469 191.346C140.469 190.385 141.247 189.605 142.208 189.605C143.168 189.605 143.946 190.385 143.946 191.346Z" fill="#FFAF34"/>
<path d="M119.024 190.781C119.024 191.742 118.246 192.522 117.285 192.522C116.325 192.522 115.547 191.742 115.547 190.781C115.547 189.819 116.325 189.039 117.285 189.039C118.246 189.039 119.024 189.819 119.024 190.781Z" fill="#FFAF34"/>
<path d="M198.32 186.532C198.32 187.493 197.541 188.273 196.582 188.273C195.622 188.273 194.844 187.493 194.844 186.532C194.844 185.571 195.622 184.791 196.582 184.791C197.541 184.791 198.32 185.571 198.32 186.532Z" fill="#FFAF34"/>
<path d="M41.9929 80.4712C41.9929 81.4331 41.2131 82.2127 40.2534 82.2127C39.294 82.2127 38.5156 81.4331 38.5156 80.4712C38.5156 79.5094 39.294 78.7305 40.2534 78.7305C41.2131 78.7305 41.9929 79.5094 41.9929 80.4712Z" fill="#FFAF34"/>
<path d="M46.5227 100.156C46.5227 101.118 45.7443 101.897 44.7847 101.897C43.8252 101.897 43.0469 101.118 43.0469 100.156C43.0469 99.1938 43.8252 98.4141 44.7847 98.4141C45.7443 98.4141 46.5227 99.1938 46.5227 100.156Z" fill="#FFAF34"/>
<path d="M66.915 98.8803C66.915 99.8421 66.1366 100.622 65.1772 100.622C64.216 100.622 63.4375 99.8421 63.4375 98.8803C63.4375 97.9184 64.216 97.1387 65.1772 97.1387C66.1366 97.1387 66.915 97.9184 66.915 98.8803Z" fill="#FFAF34"/>
<path d="M14.8056 148.3C14.8056 149.262 14.0271 150.041 13.0659 150.041C12.1065 150.041 11.3281 149.262 11.3281 148.3C11.3281 147.338 12.1065 146.559 13.0659 146.559C14.0271 146.559 14.8056 147.338 14.8056 148.3Z" fill="#FFAF34"/>
<path d="M8.00689 149.857C8.00689 150.818 7.23022 151.597 6.26907 151.597C5.30959 151.597 4.53125 150.818 4.53125 149.857C4.53125 148.895 5.30959 148.115 6.26907 148.115C7.23022 148.115 8.00689 148.895 8.00689 149.857Z" fill="#FFAF34"/>
<path d="M148.477 56.1166C148.477 57.0785 147.699 57.8581 146.738 57.8581C145.778 57.8581 145 57.0785 145 56.1166C145 55.1548 145.778 54.375 146.738 54.375C147.699 54.375 148.477 55.1548 148.477 56.1166Z" fill="#FFAF34"/>
<path d="M159.804 77.0735C159.804 78.0353 159.026 78.8151 158.066 78.8151C157.106 78.8151 156.328 78.0353 156.328 77.0735C156.328 76.1116 157.106 75.332 158.066 75.332C159.026 75.332 159.804 76.1116 159.804 77.0735Z" fill="#FFAF34"/>
<path d="M186.993 81.3217C186.993 82.2827 186.215 83.0623 185.254 83.0623C184.294 83.0623 183.516 82.2827 183.516 81.3217C183.516 80.3598 184.294 79.5801 185.254 79.5801C186.215 79.5801 186.993 80.3598 186.993 81.3217Z" fill="#FFAF34"/>
<path d="M150.743 23.8305C150.743 24.7923 149.965 25.5721 149.005 25.5721C148.044 25.5721 147.266 24.7923 147.266 23.8305C147.266 22.8694 148.044 22.0898 149.005 22.0898C149.965 22.0898 150.743 22.8694 150.743 23.8305Z" fill="#FFAF34"/>
<path d="M150.743 23.8305C150.743 24.7923 149.965 25.5721 149.005 25.5721C148.044 25.5721 147.266 24.7923 147.266 23.8305C147.266 22.8694 148.044 22.0898 149.005 22.0898C149.965 22.0898 150.743 22.8694 150.743 23.8305Z" fill="#FFAF34"/>
<path d="M164.337 14.9107C164.337 15.8726 163.558 16.6522 162.599 16.6522C161.638 16.6522 160.859 15.8726 160.859 14.9107C160.859 13.9497 161.638 13.1699 162.599 13.1699C163.558 13.1699 164.337 13.9497 164.337 14.9107Z" fill="#FFAF34"/>
<path d="M216.445 113.323C216.445 114.285 215.666 115.065 214.707 115.065C213.746 115.065 212.969 114.285 212.969 113.323C212.969 112.362 213.746 111.582 214.707 111.582C215.666 111.582 216.445 112.362 216.445 113.323Z" fill="#FFAF34"/>
<path d="M193.788 103.271C193.788 104.233 193.01 105.012 192.05 105.012C191.089 105.012 190.312 104.233 190.312 103.271C190.312 102.309 191.089 101.529 192.05 101.529C193.01 101.529 193.788 102.309 193.788 103.271Z" fill="#FFAF34"/>
<path d="M216.445 139.378C216.445 140.339 215.666 141.119 214.707 141.119C213.745 141.119 212.969 140.339 212.969 139.378C212.969 138.416 213.745 137.637 214.707 137.637C215.666 137.637 216.445 138.416 216.445 139.378Z" fill="#FFAF34"/>
<path d="M216.445 113.323C216.445 114.285 215.666 115.065 214.707 115.065C213.746 115.065 212.969 114.285 212.969 113.323C212.969 112.362 213.746 111.582 214.707 111.582C215.666 111.582 216.445 112.362 216.445 113.323Z" fill="#FFAF34"/>
<path d="M182.462 167.698C182.462 168.66 181.683 169.439 180.724 169.439C179.763 169.439 178.984 168.66 178.984 167.698C178.984 166.737 179.763 165.957 180.724 165.957C181.683 165.957 182.462 166.737 182.462 167.698Z" fill="#FFAF34"/>
<path d="M193.79 145.609C193.79 146.571 193.011 147.35 192.052 147.35C191.091 147.35 190.312 146.571 190.312 145.609C190.312 144.647 191.091 143.867 192.052 143.867C193.011 143.867 193.79 144.647 193.79 145.609Z" fill="#FFAF34"/>
<path d="M180.195 123.236C180.195 124.197 179.416 124.977 178.457 124.977C177.497 124.977 176.719 124.197 176.719 123.236C176.719 122.274 177.497 121.494 178.457 121.494C179.416 121.494 180.195 122.274 180.195 123.236Z" fill="#FFAF34"/>
<path d="M216.445 139.378C216.445 140.339 215.666 141.119 214.707 141.119C213.745 141.119 212.969 140.339 212.969 139.378C212.969 138.416 213.745 137.637 214.707 137.637C215.666 137.637 216.445 138.416 216.445 139.378Z" fill="#FFAF34"/>
<path d="M193.79 145.609C193.79 146.571 193.011 147.35 192.052 147.35C191.091 147.35 190.312 146.571 190.312 145.609C190.312 144.647 191.091 143.867 192.052 143.867C193.011 143.867 193.79 144.647 193.79 145.609Z" fill="#FFAF34"/>
<path d="M78.2429 165.715C78.2429 166.677 77.4646 167.457 76.5034 167.457C75.544 167.457 74.7656 166.677 74.7656 165.715C74.7656 164.754 75.544 163.975 76.5034 163.975C77.4646 163.975 78.2429 164.754 78.2429 165.715Z" fill="#FFAF34"/>
<path d="M71.4446 185.116C71.4446 186.078 70.6662 186.858 69.7067 186.858C68.7473 186.858 67.9688 186.078 67.9688 185.116C67.9688 184.155 68.7473 183.375 69.7067 183.375C70.6662 183.375 71.4446 184.155 71.4446 185.116Z" fill="#FFAF34"/>
<path d="M51.0539 185.116C51.0539 186.078 50.2756 186.858 49.3161 186.858C48.355 186.858 47.5781 186.078 47.5781 185.116C47.5781 184.155 48.355 183.375 49.3161 183.375C50.2756 183.375 51.0539 184.155 51.0539 185.116Z" fill="#FFAF34"/>
<path d="M71.4446 185.116C71.4446 186.078 70.6662 186.858 69.7067 186.858C68.7473 186.858 67.9688 186.078 67.9688 185.116C67.9688 184.155 68.7473 183.375 69.7067 183.375C70.6662 183.375 71.4446 184.155 71.4446 185.116Z" fill="#FFAF34"/>
<path d="M164.337 40.3997C164.337 41.3617 163.558 42.1413 162.599 42.1413C161.638 42.1413 160.859 41.3617 160.859 40.3997C160.859 39.4378 161.638 38.6582 162.599 38.6582C163.558 38.6582 164.337 39.4378 164.337 40.3997Z" fill="#FFAF34"/>
<path d="M112.226 38.2748C112.226 39.2367 111.449 40.0163 110.488 40.0163C109.528 40.0163 108.75 39.2367 108.75 38.2748C108.75 37.313 109.528 36.5332 110.488 36.5332C111.449 36.5332 112.226 37.313 112.226 38.2748Z" fill="#FFAF34"/>
<path d="M44.2587 143.909C44.2587 144.87 43.4804 145.65 42.5192 145.65C41.5596 145.65 40.7812 144.87 40.7812 143.909C40.7812 142.948 41.5596 142.168 42.5192 142.168C43.4804 142.168 44.2587 142.948 44.2587 143.909Z" fill="#FFAF34"/>
<path d="M23.8679 190.921C23.8679 191.883 23.0896 192.663 22.1301 192.663C21.169 192.663 20.3906 191.883 20.3906 190.921C20.3906 189.959 21.169 189.18 22.1301 189.18C23.0896 189.18 23.8679 189.959 23.8679 190.921Z" fill="#FFAF34"/>
<path d="M89.5712 19.4418C89.5712 20.4038 88.7927 21.1834 87.8332 21.1834C86.8721 21.1834 86.0938 20.4038 86.0938 19.4418C86.0938 18.4799 86.8721 17.7012 87.8332 17.7012C88.7927 17.7012 89.5712 18.4799 89.5712 19.4418Z" fill="#FFAF34"/>
<path d="M78.2431 18.0266C78.2431 18.9885 77.4646 19.7682 76.5034 19.7682C75.544 19.7682 74.7656 18.9885 74.7656 18.0266C74.7656 17.0647 75.544 16.2852 76.5034 16.2852C77.4646 16.2852 78.2431 17.0647 78.2431 18.0266Z" fill="#FFAF34"/>
<path d="M89.5712 19.4418C89.5712 20.4038 88.7927 21.1834 87.8332 21.1834C86.8721 21.1834 86.0938 20.4038 86.0938 19.4418C86.0938 18.4799 86.8721 17.7012 87.8332 17.7012C88.7927 17.7012 89.5712 18.4799 89.5712 19.4418Z" fill="#FFAF34"/>
<path d="M114.493 13.9183C114.493 14.8802 113.715 15.66 112.754 15.66C111.794 15.66 111.016 14.8802 111.016 13.9183C111.016 12.9573 111.794 12.1777 112.754 12.1777C113.715 12.1777 114.493 12.9573 114.493 13.9183Z" fill="#FFAF34"/>
<path d="M128.087 5.565C128.087 6.52686 127.308 7.30645 126.349 7.30645C125.388 7.30645 124.609 6.52686 124.609 5.565C124.609 4.60381 125.388 3.82422 126.349 3.82422C127.308 3.82422 128.087 4.60381 128.087 5.565Z" fill="#FFAF34"/>
<path d="M128.087 5.565C128.087 6.52686 127.308 7.30645 126.349 7.30645C125.388 7.30645 124.609 6.52686 124.609 5.565C124.609 4.60381 125.388 3.82422 126.349 3.82422C127.308 3.82422 128.087 4.60381 128.087 5.565Z" fill="#FFAF34"/>
<path d="M116.759 3.44067C116.759 4.40253 115.98 5.18229 115.021 5.18229C114.06 5.18229 113.281 4.40253 113.281 3.44067C113.281 2.47881 114.06 1.69922 115.021 1.69922C115.98 1.69922 116.759 2.47881 116.759 3.44067Z" fill="#FFAF34"/>
<path d="M130.352 1.74145C130.352 2.70331 129.574 3.48307 128.613 3.48307C127.653 3.48307 126.875 2.70331 126.875 1.74145C126.875 0.779594 127.653 0 128.613 0C129.574 0 130.352 0.779594 130.352 1.74145Z" fill="#FFAF34"/>
<path d="M153.009 2.1674C153.009 3.12926 152.23 3.90885 151.271 3.90885C150.31 3.90885 149.531 3.12926 149.531 2.1674C149.531 1.20554 150.31 0.425781 151.271 0.425781C152.23 0.425781 153.009 1.20554 153.009 2.1674Z" fill="#FFAF34"/>
<path d="M164.337 3.72387C164.337 4.6859 163.558 5.46549 162.599 5.46549C161.638 5.46549 160.859 4.6859 160.859 3.72387C160.859 2.76202 161.638 1.98242 162.599 1.98242C163.558 1.98242 164.337 2.76202 164.337 3.72387Z" fill="#FFAF34"/>
<path d="M216.446 28.0793C216.446 29.0412 215.668 29.8208 214.707 29.8208C213.747 29.8208 212.969 29.0412 212.969 28.0793C212.969 27.1175 213.747 26.3379 214.707 26.3379C215.668 26.3379 216.446 27.1175 216.446 28.0793Z" fill="#FFAF34"/>
<path d="M62.3837 26.2397C62.3837 27.2015 61.6052 27.9811 60.6441 27.9811C59.6846 27.9811 58.9062 27.2015 58.9062 26.2397C58.9062 25.2778 59.6846 24.498 60.6441 24.498C61.6052 24.498 62.3837 25.2778 62.3837 26.2397Z" fill="#FFAF34"/>
<path d="M48.79 34.7349C48.79 35.6968 48.0115 36.4764 47.0503 36.4764C46.0908 36.4764 45.3125 35.6968 45.3125 34.7349C45.3125 33.7737 46.0908 32.9941 47.0503 32.9941C48.0115 32.9941 48.79 33.7737 48.79 34.7349Z" fill="#FFAF34"/>
<path d="M32.9306 52.8606C32.9306 53.8224 32.1521 54.6012 31.1909 54.6012C30.2315 54.6012 29.4531 53.8224 29.4531 52.8606C29.4531 51.8987 30.2315 51.1191 31.1909 51.1191C32.1521 51.1191 32.9306 51.8987 32.9306 52.8606Z" fill="#FFAF34"/>
<path d="M57.8523 44.9309C57.8523 45.8928 57.074 46.6724 56.1128 46.6724C55.1533 46.6724 54.375 45.8928 54.375 44.9309C54.375 43.969 55.1533 43.1895 56.1128 43.1895C57.074 43.1895 57.8523 43.969 57.8523 44.9309Z" fill="#FFAF34"/>
<path d="M46.5227 44.9311C46.5227 45.8921 45.7443 46.6717 44.7849 46.6717C43.8252 46.6717 43.0469 45.8921 43.0469 44.9311C43.0469 43.9692 43.8252 43.1895 44.7849 43.1895C45.7443 43.1895 46.5227 43.9692 46.5227 44.9311Z" fill="#FFAF34"/>
<path d="M78.2431 18.0266C78.2431 18.9885 77.4646 19.7682 76.5034 19.7682C75.544 19.7682 74.7656 18.9885 74.7656 18.0266C74.7656 17.0647 75.544 16.2852 76.5034 16.2852C77.4646 16.2852 78.2431 17.0647 78.2431 18.0266Z" fill="#FFAF34"/>
<path d="M57.8525 30.6282C57.8525 31.59 57.074 32.369 56.113 32.369C55.1533 32.369 54.375 31.59 54.375 30.6282C54.375 29.6663 55.1533 28.8867 56.113 28.8867C57.074 28.8867 57.8525 29.6663 57.8525 30.6282Z" fill="#FFAF34"/>
<path d="M48.79 34.7349C48.79 35.6968 48.0115 36.4764 47.0503 36.4764C46.0908 36.4764 45.3125 35.6968 45.3125 34.7349C45.3125 33.7737 46.0908 32.9941 47.0503 32.9941C48.0115 32.9941 48.79 33.7737 48.79 34.7349Z" fill="#FFAF34"/>
<path d="M46.5242 44.9302C46.5242 45.8921 45.7458 46.6717 44.7864 46.6717C43.8252 46.6717 43.0469 45.8921 43.0469 44.9302C43.0469 43.9692 43.8252 43.1895 44.7864 43.1895C45.7458 43.1895 46.5242 43.9692 46.5242 44.9302Z" fill="#FFAF34"/>
<path d="M57.8525 30.6282C57.8525 31.59 57.074 32.369 56.113 32.369C55.1533 32.369 54.375 31.59 54.375 30.6282C54.375 29.6663 55.1533 28.8867 56.113 28.8867C57.074 28.8867 57.8525 29.6663 57.8525 30.6282Z" fill="#FFAF34"/>
<path d="M184.727 9.38793C184.727 10.3498 183.949 11.1296 182.989 11.1296C182.028 11.1296 181.25 10.3498 181.25 9.38793C181.25 8.42608 182.028 7.64648 182.989 7.64648C183.949 7.64648 184.727 8.42608 184.727 9.38793Z" fill="#FFAF34"/>
<path d="M196.055 18.0266C196.055 18.9885 195.277 19.7681 194.318 19.7681C193.356 19.7681 192.578 18.9885 192.578 18.0266C192.578 17.0648 193.356 16.2852 194.318 16.2852C195.277 16.2852 196.055 17.0648 196.055 18.0266Z" fill="#FFAF34"/>
<path d="M216.446 28.0793C216.446 29.0412 215.668 29.8208 214.707 29.8208C213.747 29.8208 212.969 29.0412 212.969 28.0793C212.969 27.1175 213.747 26.3379 214.707 26.3379C215.668 26.3379 216.446 27.1175 216.446 28.0793Z" fill="#FFAF34"/>
<path d="M196.055 18.0266C196.055 18.9885 195.277 19.7681 194.318 19.7681C193.356 19.7681 192.578 18.9885 192.578 18.0266C192.578 17.0648 193.356 16.2852 194.318 16.2852C195.277 16.2852 196.055 17.0648 196.055 18.0266Z" fill="#FFAF34"/>
<path d="M189.259 21.425C189.259 22.3861 188.48 23.1657 187.521 23.1657C186.56 23.1657 185.781 22.3861 185.781 21.425C185.781 20.4632 186.56 19.6836 187.521 19.6836C188.48 19.6836 189.259 20.4632 189.259 21.425Z" fill="#FFAF34"/>
<path d="M164.337 40.3997C164.337 41.3617 163.558 42.1413 162.599 42.1413C161.638 42.1413 160.859 41.3617 160.859 40.3997C160.859 39.4378 161.638 38.6582 162.599 38.6582C163.558 38.6582 164.337 39.4378 164.337 40.3997Z" fill="#FFAF34"/>
<path d="M191.524 46.3471C191.524 47.3081 190.746 48.0877 189.787 48.0877C188.825 48.0877 188.047 47.3081 188.047 46.3471C188.047 45.3852 188.825 44.6055 189.787 44.6055C190.746 44.6055 191.524 45.3852 191.524 46.3471Z" fill="#FFAF34"/>
<path d="M200.587 66.8782C200.587 67.8392 199.808 68.619 198.849 68.619C197.888 68.619 197.109 67.8392 197.109 66.8782C197.109 65.9163 197.888 65.1367 198.849 65.1367C199.808 65.1367 200.587 65.9163 200.587 66.8782Z" fill="#FFAF34"/>
<path d="M200.587 66.8782C200.587 67.8392 199.808 68.619 198.849 68.619C197.888 68.619 197.109 67.8392 197.109 66.8782C197.109 65.9163 197.888 65.1367 198.849 65.1367C199.808 65.1367 200.587 65.9163 200.587 66.8782Z" fill="#FFAF34"/>
<path d="M191.524 46.3471C191.524 47.3081 190.746 48.0877 189.787 48.0877C188.825 48.0877 188.047 47.3081 188.047 46.3471C188.047 45.3852 188.825 44.6055 189.787 44.6055C190.746 44.6055 191.524 45.3852 191.524 46.3471Z" fill="#FFAF34"/>
<path d="M200.587 66.8782C200.587 67.8392 199.808 68.619 198.847 68.619C197.888 68.619 197.109 67.8392 197.109 66.8782C197.109 65.9163 197.888 65.1367 198.847 65.1367C199.808 65.1367 200.587 65.9163 200.587 66.8782Z" fill="#FFAF34"/>
<path d="M200.587 67.1614C200.587 68.1232 199.808 68.9028 198.847 68.9028C197.888 68.9028 197.109 68.1232 197.109 67.1614C197.109 66.1995 197.888 65.4199 198.847 65.4199C199.808 65.4199 200.587 66.1995 200.587 67.1614Z" fill="#FFAF34"/>
<path d="M200.587 66.8782C200.587 67.8392 199.808 68.619 198.849 68.619C197.888 68.619 197.109 67.8392 197.109 66.8782C197.109 65.9163 197.888 65.1367 198.849 65.1367C199.808 65.1367 200.587 65.9163 200.587 66.8782Z" fill="#FFAF34"/>
<path d="M8.00857 170.531C8.00857 171.492 7.23022 172.271 6.27074 172.271C5.30959 172.271 4.53125 171.492 4.53125 170.531C4.53125 169.569 5.30959 168.789 6.27074 168.789C7.23022 168.789 8.00857 169.569 8.00857 170.531Z" fill="#FFAF34"/>
<path d="M5.74294 151.273C5.74294 152.234 4.9646 153.013 4.00512 153.013C3.04397 153.013 2.26562 152.234 2.26562 151.273C2.26562 150.311 3.04397 149.531 4.00512 149.531C4.9646 149.531 5.74294 150.311 5.74294 151.273Z" fill="#FFAF34"/>
<path d="M12.54 87.8352C12.54 88.7962 11.7616 89.576 10.8005 89.576C9.84101 89.576 9.0625 88.7962 9.0625 87.8352C9.0625 86.8733 9.84101 86.0938 10.8005 86.0938C11.7616 86.0938 12.54 86.8733 12.54 87.8352Z" fill="#FFAF34"/>
<path d="M10.2742 105.676C10.2742 106.638 9.49585 107.418 8.5347 107.418C7.57522 107.418 6.79688 106.638 6.79688 105.676C6.79688 104.715 7.57522 103.936 8.5347 103.936C9.49585 103.936 10.2742 104.715 10.2742 105.676Z" fill="#FFAF34"/>
<path d="M5.74144 128.758C5.74144 129.72 4.96309 130.5 4.00361 130.5C3.04397 130.5 2.26562 129.72 2.26562 128.758C2.26562 127.797 3.04397 127.018 4.00361 127.018C4.96309 127.018 5.74144 127.797 5.74144 128.758Z" fill="#FFAF34"/>
<path d="M44.2587 143.909C44.2587 144.87 43.4802 145.65 42.5207 145.65C41.5596 145.65 40.7812 144.87 40.7812 143.909C40.7812 142.948 41.5596 142.168 42.5207 142.168C43.4802 142.168 44.2587 142.948 44.2587 143.909Z" fill="#FFAF34"/>
<path d="M35.1961 122.529C35.1961 123.49 34.4177 124.27 33.4566 124.27C32.4971 124.27 31.7188 123.49 31.7188 122.529C31.7188 121.567 32.4971 120.787 33.4566 120.787C34.4177 120.787 35.1961 121.567 35.1961 122.529Z" fill="#FFAF34"/>
<path d="M57.8525 45.2141C57.8525 46.176 57.0741 46.9556 56.1145 46.9556C55.1533 46.9556 54.375 46.176 54.375 45.2141C54.375 44.2523 55.1533 43.4727 56.1145 43.4727C57.0741 43.4727 57.8525 44.2523 57.8525 45.2141Z" fill="#FFAF34"/>
<path d="M55.5869 62.3461C55.5869 63.3079 54.8083 64.0875 53.8489 64.0875C52.8877 64.0875 52.1094 63.3079 52.1094 62.3461C52.1094 61.3851 52.8877 60.6055 53.8489 60.6055C54.8083 60.6055 55.5869 61.3851 55.5869 62.3461Z" fill="#FFAF34"/>
<path d="M41.9929 80.4712C41.9929 81.4331 41.2131 82.2127 40.2534 82.2127C39.294 82.2127 38.5156 81.4331 38.5156 80.4712C38.5156 79.5094 39.294 78.7305 40.2534 78.7305C41.2131 78.7305 41.9929 79.5094 41.9929 80.4712Z" fill="#FFAF34"/>
<path d="M35.1961 122.529C35.1961 123.49 34.4177 124.27 33.4566 124.27C32.4971 124.27 31.7188 123.49 31.7188 122.529C31.7188 121.567 32.4971 120.787 33.4566 120.787C34.4177 120.787 35.1961 121.567 35.1961 122.529Z" fill="#FFAF34"/>
<path d="M46.5227 100.156C46.5227 101.118 45.7443 101.897 44.7847 101.897C43.8252 101.897 43.0469 101.118 43.0469 100.156C43.0469 99.1938 43.8252 98.4141 44.7847 98.4141C45.7443 98.4141 46.5227 99.1938 46.5227 100.156Z" fill="#FFAF34"/>
<path d="M23.8679 190.921C23.8679 191.883 23.0896 192.663 22.1301 192.663C21.169 192.663 20.3906 191.883 20.3906 190.921C20.3906 189.959 21.169 189.18 22.1301 189.18C23.0896 189.18 23.8679 189.959 23.8679 190.921Z" fill="#FFAF34"/>
<path d="M23.8681 169.256C23.8681 170.218 23.0898 170.998 22.1303 170.998C21.1691 170.998 20.3906 170.218 20.3906 169.256C20.3906 168.295 21.1691 167.516 22.1303 167.516C23.0898 167.516 23.8681 168.295 23.8681 169.256Z" fill="#FFAF34"/>
<path d="M14.8056 148.3C14.8056 149.262 14.0271 150.041 13.0659 150.041C12.1065 150.041 11.3281 149.262 11.3281 148.3C11.3281 147.338 12.1065 146.559 13.0659 146.559C14.0271 146.559 14.8056 147.338 14.8056 148.3Z" fill="#FFAF34"/>
<path d="M17.0696 102.988C17.0696 103.949 16.2911 104.729 15.3316 104.729C14.3721 104.729 13.5938 103.949 13.5938 102.988C13.5938 102.026 14.3721 101.246 15.3316 101.246C16.2911 101.246 17.0696 102.026 17.0696 102.988Z" fill="#FFAF34"/>
<path d="M19.3352 124.368C19.3352 125.33 18.5567 126.11 17.5972 126.11C16.6377 126.11 15.8594 125.33 15.8594 124.368C15.8594 123.407 16.6377 122.627 17.5972 122.627C18.5567 122.627 19.3352 123.407 19.3352 124.368Z" fill="#FFAF34"/>
<path d="M14.8056 148.3C14.8056 149.262 14.0271 150.041 13.0659 150.041C12.1065 150.041 11.3281 149.262 11.3281 148.3C11.3281 147.338 12.1065 146.559 13.0659 146.559C14.0271 146.559 14.8056 147.338 14.8056 148.3Z" fill="#FFAF34"/>
<path d="M17.0712 191.63C17.0712 192.592 16.2929 193.372 15.3332 193.372C14.3723 193.372 13.5938 192.592 13.5938 191.63C13.5938 190.668 14.3723 189.889 15.3332 189.889C16.2929 189.889 17.0712 190.668 17.0712 191.63Z" fill="#FFAF34"/>
<path d="M8.00873 171.24C8.00873 172.201 7.23022 172.981 6.26907 172.981C5.30959 172.981 4.53125 172.201 4.53125 171.24C4.53125 170.278 5.30959 169.498 6.26907 169.498C7.23022 169.498 8.00873 170.278 8.00873 171.24Z" fill="#FFAF34"/>
<path d="M5.74144 128.758C5.74144 129.72 4.96309 130.5 4.00361 130.5C3.04397 130.5 2.26562 129.72 2.26562 128.758C2.26562 127.797 3.04397 127.018 4.00361 127.018C4.96309 127.018 5.74144 127.797 5.74144 128.758Z" fill="#FFAF34"/>
<path d="M8.00689 149.857C8.00689 150.818 7.23022 151.597 6.26907 151.597C5.30959 151.597 4.53125 150.818 4.53125 149.857C4.53125 148.895 5.30959 148.115 6.26907 148.115C7.23022 148.115 8.00689 148.895 8.00689 149.857Z" fill="#FFAF34"/>
<path d="M8.00873 171.24C8.00873 172.201 7.23022 172.981 6.26907 172.981C5.30959 172.981 4.53125 172.201 4.53125 171.24C4.53125 170.278 5.30959 169.498 6.26907 169.498C7.23022 169.498 8.00873 170.278 8.00873 171.24Z" fill="#FFAF34"/>
<path d="M125.82 23.1243C125.82 24.0861 125.041 24.8657 124.082 24.8657C123.122 24.8657 122.344 24.0861 122.344 23.1243C122.344 22.1624 123.122 21.3828 124.082 21.3828C125.041 21.3828 125.82 22.1624 125.82 23.1243Z" fill="#FFAF34"/>
<path d="M150.743 23.8305C150.743 24.7923 149.965 25.5721 149.005 25.5721C148.044 25.5721 147.266 24.7923 147.266 23.8305C147.266 22.8694 148.044 22.0898 149.005 22.0898C149.965 22.0898 150.743 22.8694 150.743 23.8305Z" fill="#FFAF34"/>
<path d="M23.8679 67.0207C23.8679 67.9826 23.0896 68.7624 22.1301 68.7624C21.169 68.7624 20.3906 67.9826 20.3906 67.0207C20.3906 66.0589 21.169 65.2793 22.1301 65.2793C23.0896 65.2793 23.8679 66.0589 23.8679 67.0207Z" fill="#FFAF34"/>
<path d="M30.6648 63.4797C30.6648 64.4416 29.8865 65.2212 28.9253 65.2212C27.9658 65.2212 27.1875 64.4416 27.1875 63.4797C27.1875 62.5179 27.9658 61.7383 28.9253 61.7383C29.8865 61.7383 30.6648 62.5179 30.6648 63.4797Z" fill="#FFAF34"/>
<path d="M46.5242 44.9302C46.5242 45.8921 45.7458 46.6717 44.7864 46.6717C43.8252 46.6717 43.0469 45.8921 43.0469 44.9302C43.0469 43.9692 43.8252 43.1895 44.7864 43.1895C45.7458 43.1895 46.5242 43.9692 46.5242 44.9302Z" fill="#FFAF34"/>
<path d="M17.0696 102.988C17.0696 103.949 16.2911 104.729 15.3316 104.729C14.3721 104.729 13.5938 103.949 13.5938 102.988C13.5938 102.026 14.3721 101.246 15.3316 101.246C16.2911 101.246 17.0696 102.026 17.0696 102.988Z" fill="#FFAF34"/>
<path d="M28.3992 81.3215C28.3992 82.2825 27.6208 83.0621 26.6614 83.0621C25.7002 83.0621 24.9219 82.2825 24.9219 81.3215C24.9219 80.3597 25.7002 79.5801 26.6614 79.5801C27.6208 79.5801 28.3992 80.3597 28.3992 81.3215Z" fill="#FFAF34"/>
<path d="M30.6648 63.4797C30.6648 64.4416 29.8865 65.2212 28.9253 65.2212C27.9658 65.2212 27.1875 64.4416 27.1875 63.4797C27.1875 62.5179 27.9658 61.7383 28.9253 61.7383C29.8865 61.7383 30.6648 62.5179 30.6648 63.4797Z" fill="#FFAF34"/>
<path d="M189.259 21.425C189.259 22.3861 188.48 23.1657 187.521 23.1657C186.56 23.1657 185.781 22.3861 185.781 21.425C185.781 20.4632 186.56 19.6836 187.521 19.6836C188.48 19.6836 189.259 20.4632 189.259 21.425Z" fill="#FFAF34"/>
<path d="M202.852 36.8586C202.852 37.8197 202.074 38.5994 201.113 38.5994C200.153 38.5994 199.375 37.8197 199.375 36.8586C199.375 35.8968 200.153 35.1172 201.113 35.1172C202.074 35.1172 202.852 35.8968 202.852 36.8586Z" fill="#FFAF34"/>
<path d="M128.087 5.565C128.087 6.52686 127.308 7.30645 126.349 7.30645C125.388 7.30645 124.609 6.52686 124.609 5.565C124.609 4.60381 125.388 3.82422 126.349 3.82422C127.308 3.82422 128.087 4.60381 128.087 5.565Z" fill="#FFAF34"/>
<path d="M150.741 5.98866C150.741 6.95068 149.963 7.73028 149.003 7.73028C148.044 7.73028 147.266 6.95068 147.266 5.98866C147.266 5.02764 148.044 4.24805 149.003 4.24805C149.963 4.24805 150.741 5.02764 150.741 5.98866Z" fill="#FFAF34"/>
<path d="M164.337 3.72387C164.337 4.6859 163.558 5.46549 162.599 5.46549C161.638 5.46549 160.859 4.6859 160.859 3.72387C160.859 2.76202 161.638 1.98242 162.599 1.98242C163.558 1.98242 164.337 2.76202 164.337 3.72387Z" fill="#FFAF34"/>
<path d="M189.259 21.425C189.259 22.3861 188.48 23.1657 187.521 23.1657C186.56 23.1657 185.781 22.3861 185.781 21.425C185.781 20.4632 186.56 19.6836 187.521 19.6836C188.48 19.6836 189.259 20.4632 189.259 21.425Z" fill="#FFAF34"/>
<path d="M164.337 14.9107C164.337 15.8726 163.558 16.6522 162.599 16.6522C161.638 16.6522 160.859 15.8726 160.859 14.9107C160.859 13.9497 161.638 13.1699 162.599 13.1699C163.558 13.1699 164.337 13.9497 164.337 14.9107Z" fill="#FFAF34"/>
<path d="M150.741 5.98866C150.741 6.95068 149.963 7.73028 149.003 7.73028C148.044 7.73028 147.266 6.95068 147.266 5.98866C147.266 5.02764 148.044 4.24805 149.003 4.24805C149.963 4.24805 150.741 5.02764 150.741 5.98866Z" fill="#FFAF34"/>
<path d="M78.2431 18.0266C78.2431 18.9885 77.4646 19.7682 76.5034 19.7682C75.544 19.7682 74.7656 18.9885 74.7656 18.0266C74.7656 17.0647 75.544 16.2852 76.5034 16.2852C77.4646 16.2852 78.2431 17.0647 78.2431 18.0266Z" fill="#FFAF34"/>
<path d="M91.8367 9.95434C91.8367 10.9154 91.0583 11.695 90.0972 11.695C89.1377 11.695 88.3594 10.9154 88.3594 9.95434C88.3594 8.99248 89.1377 8.21289 90.0972 8.21289C91.0583 8.21289 91.8367 8.99248 91.8367 9.95434Z" fill="#FFAF34"/>
<path d="M82.7742 14.0609C82.7742 15.0228 81.9958 15.8024 81.0347 15.8024C80.0752 15.8024 79.2969 15.0228 79.2969 14.0609C79.2969 13.0991 80.0752 12.3203 81.0347 12.3203C81.9958 12.3203 82.7742 13.0991 82.7742 14.0609Z" fill="#FFAF34"/>
<path d="M62.3837 26.2397C62.3837 27.2015 61.6052 27.9811 60.6441 27.9811C59.6846 27.9811 58.9062 27.2015 58.9062 26.2397C58.9062 25.2778 59.6846 24.498 60.6441 24.498C61.6052 24.498 62.3837 25.2778 62.3837 26.2397Z" fill="#FFAF34"/>
<path d="M216.446 25.5305C216.446 26.4924 215.668 27.2721 214.707 27.2721C213.747 27.2721 212.969 26.4924 212.969 25.5305C212.969 24.5687 213.747 23.7891 214.707 23.7891C215.668 23.7891 216.446 24.5687 216.446 25.5305Z" fill="#FFAF34"/>
<path d="M196.056 14.2024C196.056 15.1634 195.277 15.943 194.316 15.943C193.357 15.943 192.578 15.1634 192.578 14.2024C192.578 13.2405 193.357 12.4609 194.316 12.4609C195.277 12.4609 196.056 13.2405 196.056 14.2024Z" fill="#FFAF34"/>
<path d="M89.5712 19.4418C89.5712 20.4038 88.7927 21.1834 87.8332 21.1834C86.8721 21.1834 86.0938 20.4038 86.0938 19.4418C86.0938 18.4799 86.8721 17.7012 87.8332 17.7012C88.7927 17.7012 89.5712 18.4799 89.5712 19.4418Z" fill="#FFAF34"/>
<path d="M80.5087 32.3274C80.5087 33.2884 79.7302 34.068 78.7707 34.068C77.8096 34.068 77.0312 33.2884 77.0312 32.3274C77.0312 31.3655 77.8096 30.5859 78.7707 30.5859C79.7302 30.5859 80.5087 31.3655 80.5087 32.3274Z" fill="#FFAF34"/>
<path d="M57.8508 44.9302C57.8508 45.8921 57.074 46.6717 56.1128 46.6717C55.1533 46.6717 54.375 45.8921 54.375 44.9302C54.375 43.969 55.1533 43.1895 56.1128 43.1895C57.074 43.1895 57.8508 43.969 57.8508 44.9302Z" fill="#FFAF34"/>
<path d="M3.47748 130.882C3.47748 131.844 2.69914 132.623 1.73799 132.623C0.778511 132.623 0 131.844 0 130.882C0 129.92 0.778511 129.141 1.73799 129.141C2.69914 129.141 3.47748 129.92 3.47748 130.882Z" fill="#FFAF34"/>
<path d="M112.227 38.2738C112.227 39.2357 111.449 40.0154 110.489 40.0154C109.528 40.0154 108.75 39.2357 108.75 38.2738C108.75 37.3128 109.528 36.5332 110.489 36.5332C111.449 36.5332 112.227 37.3128 112.227 38.2738Z" fill="#FFAF34"/>
<path d="M91.8352 41.6731C91.8352 42.6349 91.0568 43.4145 90.0972 43.4145C89.1377 43.4145 88.3594 42.6349 88.3594 41.6731C88.3594 40.7112 89.1377 39.9316 90.0972 39.9316C91.0568 39.9316 91.8352 40.7112 91.8352 41.6731Z" fill="#FFAF34"/>
<path d="M75.9758 60.6479C75.9758 61.6097 75.1975 62.3893 74.238 62.3893C73.2783 62.3893 72.5 61.6097 72.5 60.6479C72.5 59.686 73.2783 58.9062 74.238 58.9062C75.1975 58.9062 75.9758 59.686 75.9758 60.6479Z" fill="#FFAF34"/>
<path d="M91.8352 41.6731C91.8352 42.6349 91.0568 43.4145 90.0972 43.4145C89.1377 43.4145 88.3594 42.6349 88.3594 41.6731C88.3594 40.7112 89.1377 39.9316 90.0972 39.9316C91.0568 39.9316 91.8352 40.7112 91.8352 41.6731Z" fill="#FFAF34"/>
<path d="M51.0539 185.116C51.0539 186.078 50.2756 186.858 49.3161 186.858C48.355 186.858 47.5781 186.078 47.5781 185.116C47.5781 184.155 48.355 183.375 49.3161 183.375C50.2756 183.375 51.0539 184.155 51.0539 185.116Z" fill="#FFAF34"/>
<path d="M82.7742 14.0609C82.7742 15.0228 81.9958 15.8024 81.0347 15.8024C80.0752 15.8024 79.2969 15.0228 79.2969 14.0609C79.2969 13.0991 80.0752 12.3203 81.0347 12.3203C81.9958 12.3203 82.7742 13.0991 82.7742 14.0609Z" fill="#FFAF34"/>
<path d="M82.7744 15.3352C82.7744 16.2971 81.996 17.0768 81.0364 17.0768C80.0769 17.0768 79.2969 16.2971 79.2969 15.3352C79.2969 14.3733 80.0769 13.5938 81.0364 13.5938C81.996 13.5938 82.7744 14.3733 82.7744 15.3352Z" fill="#FFAF34"/>
<path d="M216.446 28.0793C216.446 29.0412 215.668 29.8208 214.707 29.8208C213.747 29.8208 212.969 29.0412 212.969 28.0793C212.969 27.1175 213.747 26.3379 214.707 26.3379C215.668 26.3379 216.446 27.1175 216.446 28.0793Z" fill="#FFAF34"/>
<path d="M216.446 25.5305C216.446 26.4924 215.668 27.2721 214.707 27.2721C213.747 27.2721 212.969 26.4924 212.969 25.5305C212.969 24.5687 213.747 23.7891 214.707 23.7891C215.668 23.7891 216.446 24.5687 216.446 25.5305Z" fill="#FFAF34"/>
<path d="M80.5087 32.3274C80.5087 33.2884 79.7302 34.068 78.7707 34.068C77.8096 34.068 77.0312 33.2884 77.0312 32.3274C77.0312 31.3655 77.8096 30.5859 78.7707 30.5859C79.7302 30.5859 80.5087 31.3655 80.5087 32.3274Z" fill="#FFAF34"/>
<path d="M91.8352 41.6731C91.8352 42.6349 91.0568 43.4145 90.0972 43.4145C89.1377 43.4145 88.3594 42.6349 88.3594 41.6731C88.3594 40.7112 89.1377 39.9316 90.0972 39.9316C91.0568 39.9316 91.8352 40.7112 91.8352 41.6731Z" fill="#FFAF34"/>
<path d="M12.54 87.8352C12.54 88.7962 11.7616 89.576 10.8005 89.576C9.84101 89.576 9.0625 88.7962 9.0625 87.8352C9.0625 86.8733 9.84101 86.0938 10.8005 86.0938C11.7616 86.0938 12.54 86.8733 12.54 87.8352Z" fill="#FFAF34"/>
<path d="M130.352 1.74145C130.352 2.70331 129.574 3.48307 128.613 3.48307C127.653 3.48307 126.875 2.70331 126.875 1.74145C126.875 0.779594 127.653 0 128.613 0C129.574 0 130.352 0.779594 130.352 1.74145Z" fill="#FFAF34"/>
<path d="M116.759 3.44067C116.759 4.40253 115.98 5.18229 115.021 5.18229C114.06 5.18229 113.281 4.40253 113.281 3.44067C113.281 2.47881 114.06 1.69922 115.021 1.69922C115.98 1.69922 116.759 2.47881 116.759 3.44067Z" fill="#FFAF34"/>
<path d="M196.056 14.2024C196.056 15.1634 195.277 15.943 194.316 15.943C193.357 15.943 192.578 15.1634 192.578 14.2024C192.578 13.2405 193.357 12.4609 194.316 12.4609C195.277 12.4609 196.056 13.2405 196.056 14.2024Z" fill="#FFAF34"/>
<path d="M184.727 9.38793C184.727 10.3498 183.949 11.1296 182.989 11.1296C182.028 11.1296 181.25 10.3498 181.25 9.38793C181.25 8.42608 182.028 7.64648 182.989 7.64648C183.949 7.64648 184.727 8.42608 184.727 9.38793Z" fill="#FFAF34"/>
<path d="M184.727 9.38793C184.727 10.3498 183.949 11.1296 182.989 11.1296C182.028 11.1296 181.25 10.3498 181.25 9.38793C181.25 8.42608 182.028 7.64648 182.989 7.64648C183.949 7.64648 184.727 8.42608 184.727 9.38793Z" fill="#FFAF34"/>
<path d="M164.337 3.72387C164.337 4.6859 163.558 5.46549 162.599 5.46549C161.638 5.46549 160.859 4.6859 160.859 3.72387C160.859 2.76202 161.638 1.98242 162.599 1.98242C163.558 1.98242 164.337 2.76202 164.337 3.72387Z" fill="#FFAF34"/>
<path d="M12.54 87.8352C12.54 88.7962 11.7616 89.576 10.8005 89.576C9.84101 89.576 9.0625 88.7962 9.0625 87.8352C9.0625 86.8733 9.84101 86.0938 10.8005 86.0938C11.7616 86.0938 12.54 86.8733 12.54 87.8352Z" fill="#FFAF34"/>
<path d="M23.8679 67.0207C23.8679 67.9826 23.0896 68.7624 22.1301 68.7624C21.169 68.7624 20.3906 67.9826 20.3906 67.0207C20.3906 66.0589 21.169 65.2793 22.1301 65.2793C23.0896 65.2793 23.8679 66.0589 23.8679 67.0207Z" fill="#FFAF34"/>
<path d="M23.8679 67.0207C23.8679 67.9826 23.0896 68.7624 22.1301 68.7624C21.169 68.7624 20.3906 67.9826 20.3906 67.0207C20.3906 66.0589 21.169 65.2793 22.1301 65.2793C23.0896 65.2793 23.8679 66.0589 23.8679 67.0207Z" fill="#FFAF34"/>
<path d="M32.9306 52.8606C32.9306 53.8224 32.1521 54.6012 31.1909 54.6012C30.2315 54.6012 29.4531 53.8224 29.4531 52.8606C29.4531 51.8987 30.2315 51.1191 31.1909 51.1191C32.1521 51.1191 32.9306 51.8987 32.9306 52.8606Z" fill="#FFAF34"/>
<path d="M5.74294 151.273C5.74294 152.234 4.9646 153.013 4.00512 153.013C3.04397 153.013 2.26562 152.234 2.26562 151.273C2.26562 150.311 3.04397 149.531 4.00512 149.531C4.9646 149.531 5.74294 150.311 5.74294 151.273Z" fill="#FFAF34"/>
<path d="M3.47748 130.882C3.47748 131.844 2.69914 132.623 1.73799 132.623C0.778511 132.623 0 131.844 0 130.882C0 129.92 0.778511 129.141 1.73799 129.141C2.69914 129.141 3.47748 129.92 3.47748 130.882Z" fill="#FFAF34"/>
<path d="M5.74144 128.758C5.74144 129.72 4.96309 130.5 4.00361 130.5C3.04397 130.5 2.26562 129.72 2.26562 128.758C2.26562 127.797 3.04397 127.018 4.00361 127.018C4.96309 127.018 5.74144 127.797 5.74144 128.758Z" fill="#FFAF34"/>
<path d="M3.47748 130.882C3.47748 131.844 2.69914 132.623 1.73799 132.623C0.778511 132.623 0 131.844 0 130.882C0 129.92 0.778511 129.141 1.73799 129.141C2.69914 129.141 3.47748 129.92 3.47748 130.882Z" fill="#FFAF34"/>
<path d="M116.759 3.44067C116.759 4.40253 115.98 5.18229 115.021 5.18229C114.06 5.18229 113.281 4.40253 113.281 3.44067C113.281 2.47881 114.06 1.69922 115.021 1.69922C115.98 1.69922 116.759 2.47881 116.759 3.44067Z" fill="#FFAF34"/>
<path d="M91.8367 9.95434C91.8367 10.9154 91.0583 11.695 90.0972 11.695C89.1377 11.695 88.3594 10.9154 88.3594 9.95434C88.3594 8.99248 89.1377 8.21289 90.0972 8.21289C91.0583 8.21289 91.8367 8.99248 91.8367 9.95434Z" fill="#FFAF34"/>
<path d="M91.8367 9.95434C91.8367 10.9154 91.0583 11.695 90.0972 11.695C89.1377 11.695 88.3594 10.9154 88.3594 9.95434C88.3594 8.99248 89.1377 8.21289 90.0972 8.21289C91.0583 8.21289 91.8367 8.99248 91.8367 9.95434Z" fill="#FFAF34"/>
<path d="M82.7742 14.0609C82.7742 15.0228 81.9958 15.8024 81.0347 15.8024C80.0752 15.8024 79.2969 15.0228 79.2969 14.0609C79.2969 13.0991 80.0752 12.3203 81.0347 12.3203C81.9958 12.3203 82.7742 13.0991 82.7742 14.0609Z" fill="#FFAF34"/>
</svg>
