<svg width="211" height="211" viewBox="0 0 211 211" fill="none" xmlns="http://www.w3.org/2000/svg">
<path d="M268.066 137.248C268.066 137.23 268.047 137.218 268.046 137.2C268.044 137.175 268.059 137.154 268.054 137.13L254.091 65.1052C254.068 64.9844 254.009 64.8735 253.921 64.7868L227.04 37.9022C227.018 37.88 226.986 37.8807 226.961 37.8626C226.945 37.85 226.945 37.8237 226.927 37.8127L187.211 13.5916C187.196 13.5818 187.175 13.5937 187.159 13.5856C187.132 13.5714 187.116 13.542 187.086 13.5319L149.105 0.85211C148.975 0.812318 148.844 0.812318 148.713 0.85211L81.2791 23.3007C81.262 23.3064 81.2542 23.324 81.2382 23.3309C81.2272 23.3357 81.213 23.3279 81.2023 23.3334L41.4844 43.0104C41.3764 43.063 41.2883 43.1455 41.2286 43.2464L14.3688 88.0082L0.427638 105.838C0.342349 105.946 0.296875 106.08 0.296875 106.217L0.308246 150.192L14.2715 222.263C14.2949 222.385 14.356 222.491 14.4399 222.576C14.4413 222.577 14.4406 222.58 14.442 222.581L41.4361 249.557L81.154 273.732C81.1831 273.75 81.2173 273.746 81.2478 273.758C81.262 273.764 81.2642 273.785 81.2791 273.79L119.311 286.464C119.377 286.486 119.442 286.496 119.507 286.496C119.573 286.496 119.638 286.486 119.704 286.464L187.163 263.989L226.878 244.305C226.946 244.272 226.988 244.211 227.038 244.157C227.053 244.142 227.078 244.148 227.091 244.131L241.052 226.274C241.055 226.27 241.054 226.264 241.057 226.26L241.094 226.211L267.978 181.47C267.999 181.434 267.983 181.393 267.997 181.355C268.021 181.287 268.066 181.226 268.066 181.153V137.248ZM119.289 285.155L82.4993 272.897L97.5463 253.671L99.4864 251.193L125.494 277.2L119.289 285.155ZM226.051 38.7237L239.858 109.945L207.737 120.637L126.87 71.3477L120.215 36.9741L186.814 14.7926L226.051 38.7237ZM252.957 198.643L238.016 223.559L236.109 226.715L207.829 236.188L181.438 209.755V166.277L208.074 121.827L240.398 111.066L266.832 137.504V180.939L252.957 198.643ZM100.473 250.436L180.697 210.759L206.617 236.722L126.438 276.4L100.473 250.436ZM60.3342 225.742V136.545L99.398 117.229L180.204 166.454V209.627L99.4609 249.561L60.3342 225.742ZM126.526 72.5828L206.817 121.521L180.611 165.257L100.274 116.317L126.526 72.5828ZM22.2992 124.386L59.1005 136.607V225.233L22.2992 212.97V124.386ZM239.42 225.623L237.911 226.12L238.667 224.869L239.42 225.623ZM236.405 228.623L238.423 227.633L232.291 235.477L236.405 228.623ZM240.443 224.901L239.321 223.781L253.972 199.341L261.803 189.353L240.443 224.901ZM241.136 110.059L227.595 40.2005L252.917 65.5259L266.46 135.386L241.136 110.059ZM119.505 35.9102L83.4253 23.8863L148.909 2.08726L184.938 14.1168L119.505 35.9102ZM81.5196 24.5521L118.971 37.0325L125.665 71.6178L110.418 97.0208L98.9943 116.052L59.6719 135.497L22.2196 123.06L15.5279 88.4748L42.1923 44.0353L81.5196 24.5521ZM1.5306 106.429L14.5273 89.8066L21.0655 123.592V213.203L15.2238 220.696L1.5306 150.074V106.429ZM15.6985 222.093L21.9002 214.138L59.4566 226.653L98.5164 250.431L81.3274 272.393L42.1923 248.593L15.6985 222.093ZM121.25 284.649L126.716 277.639L135.01 273.534L207.9 237.464L235.135 228.342L226.169 243.28L186.694 262.85L121.25 284.649Z" fill="#FFAF34"/>
</svg>
