<svg width="242" height="149" viewBox="0 0 242 149" fill="none" xmlns="http://www.w3.org/2000/svg">
<path d="M121.443 134.414H64.2463C64.2463 134.414 32.0432 136.203 24.8335 113.002C17.6238 89.8017 29.6 76.5236 48.385 74.6503C67.1701 72.7774 85.7567 50.2289 92.1235 39.1395C99.3043 26.6321 126.249 19.2535 139.944 37.1872C150.881 51.5103 164.134 41.3499 182.024 47.6646C204.828 55.714 190.347 85.591 206.13 95.7176C217.572 103.059 216.139 113.02 209.881 122.472C195.462 144.252 121.443 134.414 121.443 134.414Z" fill="url(#paint0_linear_1573_1639)"/>
<path d="M110.796 58.9197L110.683 57.1996C110.813 57.1912 110.943 57.1804 111.072 57.1671L111.252 58.8809C111.101 58.8969 110.949 58.9096 110.796 58.9197ZM108.959 58.8835C108.806 58.8676 108.653 58.8491 108.5 58.8263L108.752 57.1215C108.878 57.1401 109.006 57.156 109.134 57.1687L108.959 58.8835ZM113.057 58.5367L112.592 56.8775C112.717 56.8427 112.841 56.805 112.964 56.7653L113.498 58.4034C113.352 58.4512 113.206 58.4951 113.057 58.5367ZM106.712 58.4099C106.564 58.3624 106.418 58.3119 106.274 58.2576L106.878 56.6439C106.999 56.6892 107.12 56.7311 107.243 56.7712L106.712 58.4099ZM115.194 57.6886L114.39 56.1638C114.504 56.1036 114.618 56.0411 114.73 55.976L115.594 57.467C115.462 57.5438 115.328 57.6177 115.194 57.6886ZM104.612 57.4771C104.478 57.3997 104.345 57.3197 104.215 57.2361L105.143 55.7844C105.251 55.8531 105.36 55.9194 105.472 55.9835L104.612 57.4771ZM117.099 56.4185L116.002 55.0902C116.101 55.0082 116.198 54.9239 116.294 54.8377L117.449 56.1166C117.335 56.2197 117.218 56.3206 117.099 56.4185ZM102.753 56.1276C102.64 56.0258 102.529 55.9217 102.42 55.8157L103.621 54.5797C103.714 54.6705 103.809 54.7596 103.906 54.8471L102.753 56.1276ZM118.705 54.7785L117.356 53.7065C117.436 53.605 117.514 53.5022 117.59 53.3978L118.984 54.4118C118.893 54.5364 118.8 54.6588 118.705 54.7785ZM101.216 54.4261C101.126 54.3022 101.038 54.1763 100.953 54.0488L102.387 53.0929C102.458 53.2003 102.532 53.3057 102.608 53.4098L101.216 54.4261ZM119.936 52.8421L118.395 52.0698C118.453 51.9549 118.507 51.8391 118.56 51.722L120.134 52.4221C120.071 52.5636 120.005 52.7038 119.936 52.8421ZM100.064 52.4419C100.002 52.3024 99.9419 52.1605 99.885 52.0174L101.486 51.3814C101.534 51.5008 101.583 51.6188 101.636 51.736L100.064 52.4419ZM120.738 50.6855L119.069 50.259C119.1 50.1337 119.13 50.0078 119.157 49.8803L120.842 50.2381C120.811 50.3881 120.776 50.5374 120.738 50.6855ZM99.3511 50.2599C99.3195 50.1109 99.2906 49.9606 99.2649 49.8093L100.963 49.5175C100.985 49.6457 101.009 49.7729 101.037 49.8991L99.3511 50.2599ZM121.07 48.4156L119.349 48.3431C119.354 48.2149 119.356 48.0854 119.356 47.9556L121.08 47.9153V47.9556C121.08 48.1098 121.077 48.263 121.07 48.4156ZM99.1094 47.9758V47.9556C99.1094 47.8089 99.1123 47.6625 99.1182 47.5167L100.84 47.5867C100.835 47.7093 100.833 47.8323 100.833 47.9556L99.1094 47.9758ZM119.223 46.3741C119.201 46.2466 119.176 46.1201 119.15 45.9951L120.833 45.6291C120.866 45.7791 120.895 45.9304 120.921 46.0823L119.223 46.3741ZM101.029 46.0478L99.3426 45.6955C99.3742 45.5449 99.409 45.3959 99.4461 45.2478L101.117 45.6698C101.085 45.7947 101.056 45.9206 101.029 46.0478ZM118.698 44.5165C118.649 44.3955 118.598 44.2757 118.545 44.157L120.116 43.451C120.179 43.589 120.238 43.7289 120.295 43.8694L118.698 44.5165ZM101.622 44.2078L100.047 43.5073C100.109 43.3674 100.175 43.2288 100.242 43.0915L101.788 43.8538C101.73 43.9709 101.675 44.0887 101.622 44.2078ZM117.793 42.8036C117.721 42.6963 117.646 42.5905 117.57 42.4864L118.961 41.4688C119.051 41.5921 119.139 41.7177 119.225 41.8452L117.793 42.8036ZM102.589 42.5281L101.192 41.5186C101.283 41.3936 101.376 41.2703 101.472 41.1496L102.822 42.2203C102.741 42.3211 102.664 42.4236 102.589 42.5281ZM116.554 41.3175C116.461 41.2271 116.366 41.1386 116.269 41.0523L117.42 39.7689C117.534 39.8711 117.646 39.9755 117.756 40.0822L116.554 41.3175ZM103.881 41.0875L102.725 39.8089C102.838 39.7071 102.954 39.6072 103.07 39.5096L104.175 40.8314C104.076 40.9147 103.978 41 103.881 41.0875ZM115.032 40.1177C114.923 40.0487 114.813 39.9823 114.701 39.9179L115.558 38.4233C115.692 38.5001 115.824 38.5798 115.954 38.6621L115.032 40.1177ZM105.444 39.9439L104.576 38.4555C104.708 38.3788 104.842 38.3043 104.977 38.2327L105.783 39.7562C105.668 39.8167 105.555 39.8792 105.444 39.9439ZM113.298 39.262C113.176 39.2175 113.053 39.1749 112.93 39.1352L113.456 37.4942C113.603 37.5413 113.747 37.5911 113.892 37.6442L113.298 39.262ZM107.208 39.1521L106.67 37.515C106.816 37.4668 106.963 37.422 107.112 37.3803L107.577 39.0395C107.453 39.0746 107.33 39.1121 107.208 39.1521ZM111.421 38.7877C111.293 38.7695 111.164 38.7539 111.035 38.7405L111.209 37.026C111.362 37.0416 111.513 37.0599 111.665 37.0813L111.421 38.7877ZM109.098 38.7467L108.916 37.0332C109.068 37.0169 109.22 37.0039 109.373 36.9941L109.486 38.7135C109.356 38.722 109.227 38.733 109.098 38.7467Z" fill="white"/>
<path d="M173.199 113.919C173.199 113.919 165.97 77.0374 208.776 71.3574C208.776 71.3574 214.982 107.291 173.199 113.919Z" fill="url(#paint1_linear_1573_1639)"/>
<path opacity="0.4" d="M205.885 74.1682C205.66 73.9772 205.321 74.0039 205.128 74.2313L193.575 87.8715L193.368 81.5779C193.359 81.2796 193.109 81.0477 192.812 81.0571C192.513 81.0675 192.282 81.3167 192.291 81.6134L192.538 89.0964L181.589 102.024L181.713 92.0042C181.717 91.7066 181.478 91.4625 181.182 91.4593C180.885 91.4541 180.64 91.6939 180.636 91.9909L180.496 103.313L174.948 109.864C174.756 110.091 174.784 110.43 175.011 110.623C175.165 110.753 175.371 110.782 175.548 110.715C175.631 110.684 175.708 110.632 175.769 110.56L186.05 98.4218L197.622 97.0352C197.667 97.031 197.709 97.0199 197.749 97.0046C197.975 96.9194 198.123 96.6881 198.093 96.4369C198.058 96.1428 197.79 95.932 197.495 95.9671L187.072 97.2151L198.171 84.111L203.91 82.8822C203.936 82.8764 203.963 82.8685 203.987 82.8594C204.233 82.7667 204.379 82.5071 204.324 82.2436C204.261 81.9524 203.975 81.7676 203.684 81.8294L199.309 82.7657L205.949 74.9272C206.141 74.6998 206.114 74.3608 205.885 74.1682Z" fill="white"/>
<path d="M70.6678 71.5584C70.6678 71.5584 33.108 70.221 37.299 27.2441C37.299 27.2441 73.7035 29.3627 70.6678 71.5584Z" fill="url(#paint2_linear_1573_1639)"/>
<path opacity="0.4" d="M39.3809 30.6949C39.1438 30.8709 39.0924 31.2076 39.2703 31.4471L49.9299 45.7959L43.7537 44.5681C43.4616 44.5095 43.1785 44.6995 43.1203 44.991C43.0631 45.2842 43.2527 45.5662 43.5439 45.6241L50.8873 47.0839L60.9896 60.6832L51.2605 58.2868C50.9713 58.2149 50.6794 58.3918 50.6092 58.6801C50.5366 58.9677 50.7149 59.2605 51.0035 59.3317L61.9978 62.0398L67.1169 68.931C67.2942 69.1698 67.6316 69.2196 67.8704 69.042C68.0324 68.9216 68.1079 68.7274 68.0825 68.5396C68.0708 68.4521 68.0379 68.3656 67.981 68.2898L58.4956 55.5198L59.7741 43.935C59.78 43.8908 59.779 43.8468 59.7731 43.8049C59.7413 43.5654 59.5496 43.3689 59.2982 43.3413C59.0037 43.3084 58.7373 43.5215 58.7044 43.8172L57.5521 54.251L47.3116 40.4657L47.418 34.5976C47.4189 34.5703 47.4167 34.543 47.4134 34.5166C47.3796 34.257 47.1593 34.0553 46.8906 34.0494C46.5926 34.0439 46.3479 34.2807 46.3421 34.5784L46.2604 39.0511L40.1344 30.8052C39.9568 30.5667 39.6201 30.5163 39.3809 30.6949Z" fill="white"/>
<path d="M30.8633 102.039V103.234H31.676C31.7534 103.64 31.9096 104.019 32.1308 104.352L31.5618 104.92L32.4063 105.765L32.9688 105.202C33.3023 105.428 33.6829 105.59 34.0925 105.67V106.463H35.2872V105.67C35.6961 105.59 36.0764 105.428 36.4096 105.202L36.9721 105.765L37.817 104.92L37.2489 104.352C37.4701 104.019 37.6266 103.641 37.7031 103.235H38.5154V102.039H37.6959C37.6143 101.638 37.4539 101.266 37.2314 100.94L37.8166 100.354L36.9717 99.5087L36.3806 100.099C36.0543 99.8832 35.6847 99.7277 35.2868 99.6493V98.8105H34.0922V99.6493C33.6937 99.7277 33.3238 99.8832 32.9971 100.099L32.4063 99.5087L31.5618 100.353L32.1477 100.94C31.9255 101.266 31.7654 101.639 31.6828 102.039L30.8633 102.039ZM34.7081 100.633C35.8275 100.643 36.7261 101.559 36.716 102.678C36.7059 103.797 35.7911 104.696 34.6713 104.685C33.5525 104.676 32.6536 103.76 32.6637 102.641C32.6741 101.522 33.5889 100.623 34.7081 100.633Z" fill="url(#paint3_linear_1573_1639)"/>
<path d="M187.121 40.945V39.7501H186.309C186.231 39.3441 186.075 38.9654 185.854 38.6329L186.423 38.0642L185.578 37.2197L185.016 37.7825C184.682 37.557 184.302 37.395 183.892 37.3143V36.5215H182.697V37.3143C182.288 37.3947 181.908 37.5564 181.575 37.7825L181.012 37.2197L180.167 38.0642L180.735 38.6322C180.514 38.9654 180.358 39.3434 180.281 39.7501H179.469V40.9454H180.288C180.37 41.3462 180.53 41.7187 180.753 42.0456L180.168 42.6312L181.012 43.4761L181.604 42.8857C181.93 43.1017 182.299 43.2569 182.697 43.3353V44.1743H183.892V43.3353C184.291 43.2569 184.66 43.1017 184.987 42.8853L185.578 43.4761L186.422 42.6319L185.836 42.046C186.059 41.719 186.219 41.3462 186.301 40.9457H187.121V40.945ZM183.276 42.3511C182.157 42.341 181.258 41.4252 181.268 40.3067C181.278 39.1876 182.193 38.2887 183.313 38.2991C184.432 38.3089 185.331 39.224 185.321 40.3432C185.31 41.4623 184.396 42.3615 183.276 42.3511Z" fill="url(#paint4_linear_1573_1639)"/>
<path d="M18.2662 116.764C18.1471 116.764 18.0508 116.668 18.0508 116.549V114.149C18.0508 114.03 18.1471 113.934 18.2662 113.934C18.3852 113.934 18.4815 114.03 18.4815 114.149V116.549C18.4815 116.668 18.3852 116.764 18.2662 116.764Z" fill="white"/>
<path d="M18.2662 121.526C18.1471 121.526 18.0508 121.429 18.0508 121.311V118.911C18.0508 118.792 18.1471 118.695 18.2662 118.695C18.3852 118.695 18.4815 118.792 18.4815 118.911V121.311C18.4815 121.429 18.3852 121.526 18.2662 121.526Z" fill="white"/>
<path d="M21.8458 117.952H19.4458C19.3268 117.952 19.2305 117.856 19.2305 117.737C19.2305 117.618 19.3268 117.521 19.4458 117.521H21.8458C21.9649 117.521 22.0612 117.618 22.0612 117.737C22.0612 117.856 21.9649 117.952 21.8458 117.952Z" fill="white"/>
<path d="M17.0802 117.952H14.6802C14.5611 117.952 14.4648 117.856 14.4648 117.737C14.4648 117.618 14.5611 117.521 14.6802 117.521H17.0802C17.1993 117.521 17.2956 117.618 17.2956 117.737C17.2956 117.856 17.1993 117.952 17.0802 117.952Z" fill="white"/>
<path d="M216.731 93.0045C216.612 93.0045 216.516 92.9079 216.516 92.7892V90.3892C216.516 90.2704 216.612 90.1738 216.731 90.1738C216.85 90.1738 216.946 90.2704 216.946 90.3892V92.7892C216.946 92.9079 216.85 93.0045 216.731 93.0045Z" fill="#00FFFF"/>
<path d="M216.731 97.7663C216.612 97.7663 216.516 97.67 216.516 97.5509V95.1509C216.516 95.0322 216.612 94.9355 216.731 94.9355C216.85 94.9355 216.946 95.0322 216.946 95.1509V97.5509C216.946 97.67 216.85 97.7663 216.731 97.7663Z" fill="#00FFFF"/>
<path d="M220.315 94.1925H217.915C217.796 94.1925 217.699 94.0962 217.699 93.9771C217.699 93.8583 217.796 93.7617 217.915 93.7617H220.315C220.434 93.7617 220.53 93.8583 220.53 93.9771C220.53 94.0962 220.434 94.1925 220.315 94.1925Z" fill="#00FFFF"/>
<path d="M215.553 94.1925H213.153C213.034 94.1925 212.938 94.0962 212.938 93.9771C212.938 93.8583 213.034 93.7617 213.153 93.7617H215.553C215.672 93.7617 215.769 93.8583 215.769 93.9771C215.769 94.0962 215.672 94.1925 215.553 94.1925Z" fill="#00FFFF"/>
<path d="M157.684 36.6686C157.565 36.6686 157.469 36.5723 157.469 36.4532V34.0533C157.469 33.9342 157.565 33.8379 157.684 33.8379C157.803 33.8379 157.899 33.9342 157.899 34.0533V36.4532C157.899 36.5723 157.803 36.6686 157.684 36.6686Z" fill="#00FFFF"/>
<path d="M157.684 41.43C157.565 41.43 157.469 41.3337 157.469 41.2146V38.815C157.469 38.6959 157.565 38.5996 157.684 38.5996C157.803 38.5996 157.899 38.6959 157.899 38.815V41.2146C157.899 41.3337 157.803 41.43 157.684 41.43Z" fill="#00FFFF"/>
<path d="M161.264 37.8487H158.864C158.745 37.8487 158.648 37.7524 158.648 37.6333C158.648 37.5143 158.745 37.418 158.864 37.418H161.264C161.383 37.418 161.479 37.5143 161.479 37.6333C161.479 37.7524 161.383 37.8487 161.264 37.8487Z" fill="#00FFFF"/>
<path d="M156.498 37.8487H154.098C153.979 37.8487 153.883 37.7524 153.883 37.6333C153.883 37.5143 153.979 37.418 154.098 37.418H156.498C156.617 37.418 156.714 37.5143 156.714 37.6333C156.714 37.7524 156.617 37.8487 156.498 37.8487Z" fill="#00FFFF"/>
<path d="M179.445 118.755C179.445 123.065 175.919 126.591 171.61 126.591H67.8597C63.5497 126.591 60.0234 123.065 60.0234 118.755V54.2598C60.0234 49.9498 63.5497 46.4238 67.8597 46.4238H171.61C175.919 46.4238 179.445 49.9501 179.445 54.2598V118.755Z" fill="url(#paint5_linear_1573_1639)"/>
<path d="M175.526 118.158C175.526 120.845 173.328 123.043 170.641 123.043H68.8338C66.1475 123.043 63.9492 120.845 63.9492 118.158V54.8572C63.9492 52.1709 66.1475 49.9727 68.8338 49.9727H170.641C173.328 49.9727 175.526 52.1709 175.526 54.8572L175.526 118.158Z" fill="url(#paint6_linear_1573_1639)"/>
<path d="M144.719 126.59H94.7461V134.344H144.719V126.59Z" fill="url(#paint7_linear_1573_1639)"/>
<path d="M170.637 49.9746H68.8299C66.1436 49.9746 63.9453 52.1729 63.9453 54.8592V58.0253H175.522V54.8592C175.522 52.1729 173.324 49.9746 170.637 49.9746Z" fill="url(#paint8_linear_1573_1639)"/>
<path d="M73.3739 54.0053C73.3739 54.5532 72.9298 54.9972 72.3822 54.9972C71.8347 54.9972 71.3906 54.5532 71.3906 54.0053C71.3906 53.4578 71.8347 53.0137 72.3822 53.0137C72.9301 53.0137 73.3739 53.4578 73.3739 54.0053Z" fill="white"/>
<path d="M78.8387 54.0053C78.8387 54.5532 78.3946 54.9972 77.8471 54.9972C77.2995 54.9972 76.8555 54.5532 76.8555 54.0053C76.8555 53.4578 77.2995 53.0137 77.8471 53.0137C78.3946 53.0137 78.8387 53.4578 78.8387 54.0053Z" fill="white"/>
<path d="M84.3035 54.0053C84.3035 54.5532 83.8595 54.9972 83.3119 54.9972C82.7644 54.9972 82.3203 54.5532 82.3203 54.0053C82.3203 53.4578 82.7644 53.0137 83.3119 53.0137C83.8595 53.0137 84.3035 53.4578 84.3035 54.0053Z" fill="white"/>
<path d="M168.487 53.5986L169.22 52.6008C169.281 52.5077 169.35 52.4397 169.428 52.3968C169.506 52.3538 169.583 52.332 169.658 52.332C169.731 52.332 169.799 52.345 169.863 52.3711C169.928 52.3971 169.983 52.4261 170.031 52.4589C170.078 52.4914 170.114 52.5243 170.139 52.5572C170.164 52.5897 170.172 52.6131 170.165 52.6268L169.039 54.0329L170.165 55.4338C170.172 55.4477 170.164 55.4699 170.139 55.5011C170.114 55.532 170.077 55.5649 170.028 55.5994C169.979 55.6338 169.921 55.6641 169.855 55.6898C169.788 55.7155 169.717 55.7285 169.641 55.7285C169.562 55.7285 169.481 55.7087 169.4 55.669C169.318 55.6293 169.247 55.5613 169.187 55.465L168.459 54.4568L167.72 55.4702C167.655 55.5701 167.584 55.6397 167.507 55.6794C167.429 55.7191 167.352 55.7389 167.276 55.7389C167.204 55.7389 167.136 55.7262 167.072 55.7002C167.007 55.6742 166.952 55.6442 166.907 55.6098C166.861 55.5753 166.826 55.5424 166.802 55.5115C166.777 55.4803 166.768 55.4582 166.776 55.4442L167.908 54.0277L166.799 52.6372C166.792 52.6232 166.8 52.6004 166.825 52.5676C166.849 52.5347 166.886 52.5012 166.935 52.4667C166.984 52.4326 167.043 52.402 167.112 52.3763C167.18 52.3503 167.252 52.3376 167.328 52.3376C167.415 52.3376 167.497 52.3581 167.572 52.3994C167.648 52.4407 167.716 52.5097 167.777 52.6063L168.487 53.5986Z" fill="white"/>
<path d="M158.72 61.9727H80.7461V67.3576H158.72V61.9727Z" fill="white"/>
<path d="M158.721 61.9727H151.828V67.3576H158.721V61.9727Z" fill="url(#paint9_linear_1573_1639)"/>
<path d="M86.1208 65.4265C85.9669 65.4265 85.8187 65.4069 85.6762 65.3679C85.5361 65.3265 85.4246 65.2771 85.3419 65.2197L85.5073 64.8923C85.59 64.9451 85.6888 64.9888 85.8037 65.0232C85.9186 65.0577 86.0335 65.0749 86.1484 65.0749C86.2839 65.0749 86.3816 65.0566 86.4413 65.0198C86.5033 64.983 86.5344 64.9336 86.5344 64.8716C86.5344 64.8211 86.5137 64.7831 86.4723 64.7579C86.431 64.7303 86.377 64.7096 86.3103 64.6958C86.2437 64.682 86.169 64.6694 86.0863 64.6579C86.0059 64.6464 85.9243 64.6315 85.8416 64.6131C85.7612 64.5924 85.6877 64.5637 85.6211 64.527C85.5544 64.4879 85.5004 64.4362 85.4591 64.3719C85.4177 64.3075 85.397 64.2225 85.397 64.1168C85.397 63.9997 85.4304 63.8986 85.497 63.8136C85.5636 63.7263 85.6567 63.6596 85.7762 63.6137C85.8979 63.5654 86.0415 63.5413 86.2069 63.5413C86.331 63.5413 86.4562 63.5551 86.5826 63.5827C86.709 63.6102 86.8135 63.6493 86.8962 63.6998L86.7308 64.0272C86.6435 63.9744 86.555 63.9388 86.4654 63.9204C86.3781 63.8997 86.2908 63.8894 86.2035 63.8894C86.0725 63.8894 85.9749 63.9089 85.9106 63.948C85.8485 63.987 85.8175 64.0364 85.8175 64.0962C85.8175 64.1513 85.8382 64.1927 85.8795 64.2202C85.9209 64.2478 85.9749 64.2696 86.0415 64.2857C86.1082 64.3018 86.1817 64.3156 86.2621 64.3271C86.3448 64.3363 86.4264 64.3512 86.5068 64.3719C86.5872 64.3926 86.6607 64.4213 86.7274 64.458C86.7963 64.4925 86.8514 64.5419 86.8928 64.6062C86.9341 64.6706 86.9548 64.7544 86.9548 64.8578C86.9548 64.9727 86.9204 65.0726 86.8514 65.1577C86.7848 65.2427 86.6894 65.3093 86.5654 65.3575C86.4413 65.4035 86.2931 65.4265 86.1208 65.4265ZM88.1909 65.4265C87.9864 65.4265 87.8072 65.3863 87.6532 65.3058C87.5016 65.2231 87.3833 65.1105 87.2982 64.9681C87.2155 64.8256 87.1742 64.6637 87.1742 64.4822C87.1742 64.2984 87.2144 64.1364 87.2948 63.9962C87.3775 63.8538 87.4901 63.7423 87.6325 63.6619C87.7773 63.5815 87.9416 63.5413 88.1254 63.5413C88.3046 63.5413 88.4643 63.5804 88.6044 63.6585C88.7446 63.7366 88.8549 63.8469 88.9353 63.9893C89.0157 64.1318 89.0559 64.2995 89.0559 64.4925C89.0559 64.5109 89.0547 64.5316 89.0525 64.5545C89.0525 64.5775 89.0513 64.5993 89.049 64.62H87.5154V64.334H88.8215L88.6527 64.4236C88.655 64.3179 88.6331 64.2248 88.5872 64.1444C88.5412 64.064 88.4781 64.0008 88.3976 63.9549C88.3195 63.9089 88.2288 63.8859 88.1254 63.8859C88.0197 63.8859 87.9266 63.9089 87.8462 63.9549C87.7681 64.0008 87.7061 64.0651 87.6601 64.1479C87.6165 64.2283 87.5946 64.3236 87.5946 64.4339V64.5028C87.5946 64.6131 87.6199 64.7108 87.6705 64.7958C87.721 64.8808 87.7922 64.9463 87.8841 64.9922C87.976 65.0382 88.0817 65.0612 88.2012 65.0612C88.3046 65.0612 88.3976 65.0451 88.4804 65.0129C88.5631 64.9807 88.6366 64.9302 88.7009 64.8613L88.9318 65.1266C88.8491 65.2231 88.7446 65.2978 88.6182 65.3506C88.4941 65.4012 88.3517 65.4265 88.1909 65.4265ZM90.5531 65.4023V65.0301L90.529 64.9509V64.2995C90.529 64.1731 90.491 64.0755 90.4152 64.0066C90.3394 63.9353 90.2245 63.8997 90.0706 63.8997C89.9672 63.8997 89.865 63.9158 89.7639 63.948C89.6651 63.9801 89.5812 64.0249 89.5123 64.0824L89.3434 63.7688C89.4422 63.6929 89.5594 63.6366 89.6949 63.5999C89.8328 63.5608 89.9752 63.5413 90.1223 63.5413C90.3888 63.5413 90.5944 63.6056 90.7392 63.7343C90.8862 63.8607 90.9598 64.0571 90.9598 64.3236V65.4023H90.5531ZM89.9741 65.4265C89.8362 65.4265 89.7156 65.4035 89.6122 65.3575C89.5088 65.3093 89.4284 65.2438 89.371 65.1611C89.3158 65.0761 89.2883 64.9807 89.2883 64.875C89.2883 64.7717 89.3124 64.6786 89.3606 64.5959C89.4112 64.5132 89.4927 64.4477 89.6053 64.3994C89.7179 64.3512 89.8673 64.3271 90.0534 64.3271H90.5875V64.6131H90.0844C89.9373 64.6131 89.8385 64.6372 89.788 64.6855C89.7374 64.7314 89.7122 64.7889 89.7122 64.8578C89.7122 64.9359 89.7432 64.998 89.8052 65.0439C89.8673 65.0899 89.9534 65.1128 90.0637 65.1128C90.1694 65.1128 90.2636 65.0887 90.3463 65.0405C90.4313 64.9922 90.4922 64.921 90.529 64.8268L90.6013 65.0853C90.56 65.1933 90.4853 65.2771 90.3773 65.3369C90.2716 65.3966 90.1372 65.4265 89.9741 65.4265ZM91.5126 65.4023V63.562H91.9228V64.0686L91.8745 63.9204C91.9296 63.7963 92.0158 63.7021 92.133 63.6378C92.2525 63.5735 92.4007 63.5413 92.5776 63.5413V63.9514C92.5592 63.9468 92.542 63.9445 92.5259 63.9445C92.5098 63.9422 92.4937 63.9411 92.4776 63.9411C92.3145 63.9411 92.1847 63.9893 92.0882 64.0858C91.9917 64.18 91.9434 64.3213 91.9434 64.5097V65.4023H91.5126ZM93.7706 65.4265C93.5776 65.4265 93.4052 65.3863 93.2536 65.3058C93.1043 65.2231 92.9871 65.1105 92.9021 64.9681C92.8171 64.8256 92.7745 64.6637 92.7745 64.4822C92.7745 64.2984 92.8171 64.1364 92.9021 63.9962C92.9871 63.8538 93.1043 63.7423 93.2536 63.6619C93.4052 63.5815 93.5776 63.5413 93.7706 63.5413C93.9498 63.5413 94.1072 63.5781 94.2427 63.6516C94.3806 63.7228 94.4851 63.8285 94.5563 63.9686L94.2255 64.1616C94.1703 64.0743 94.1026 64.01 94.0221 63.9686C93.944 63.9273 93.859 63.9066 93.7671 63.9066C93.6614 63.9066 93.5661 63.9296 93.4811 63.9755C93.396 64.0215 93.3294 64.0881 93.2812 64.1754C93.2329 64.2604 93.2088 64.3627 93.2088 64.4822C93.2088 64.6016 93.2329 64.705 93.2812 64.7923C93.3294 64.8773 93.396 64.9428 93.4811 64.9888C93.5661 65.0347 93.6614 65.0577 93.7671 65.0577C93.859 65.0577 93.944 65.037 94.0221 64.9957C94.1026 64.9543 94.1703 64.89 94.2255 64.8027L94.5563 64.9957C94.4851 65.1335 94.3806 65.2404 94.2427 65.3162C94.1072 65.3897 93.9498 65.4265 93.7706 65.4265ZM95.9562 63.5413C96.1032 63.5413 96.2342 63.57 96.349 63.6275C96.4662 63.6849 96.5581 63.7734 96.6248 63.8928C96.6914 64.01 96.7247 64.1616 96.7247 64.3477V65.4023H96.2939V64.4029C96.2939 64.2398 96.2548 64.118 96.1767 64.0376C96.1009 63.9572 95.9941 63.917 95.8562 63.917C95.7551 63.917 95.6655 63.9376 95.5874 63.979C95.5093 64.0203 95.4484 64.0824 95.4047 64.1651C95.3634 64.2455 95.3427 64.3477 95.3427 64.4718V65.4023H94.9119V62.8451H95.3427V64.0583L95.2496 63.9066C95.314 63.7894 95.407 63.6998 95.5288 63.6378C95.6529 63.5735 95.7953 63.5413 95.9562 63.5413Z" fill="#0084E8"/>
<path d="M154.951 65.9844C154.541 65.9844 154.156 65.825 153.866 65.5354C153.577 65.2459 153.418 64.861 153.418 64.4518C153.418 64.0425 153.577 63.6576 153.866 63.3681C154.446 62.7887 155.455 62.789 156.034 63.3677C156.632 63.9651 156.632 64.9378 156.034 65.5354C155.744 65.825 155.36 65.9844 154.951 65.9844ZM154.951 63.4393C154.68 63.4393 154.426 63.5451 154.235 63.736C154.044 63.9273 153.938 64.1814 153.938 64.4518C153.938 64.7221 154.044 64.9762 154.235 65.1675C154.617 65.5498 155.284 65.5498 155.666 65.1675C156.061 64.7729 156.061 64.1303 155.666 63.736C155.475 63.5447 155.221 63.4393 154.951 63.4393Z" fill="white"/>
<path d="M156.754 66.5121C156.687 66.5121 156.621 66.4867 156.57 66.436L155.67 65.5361C155.568 65.4346 155.568 65.27 155.67 65.1682C155.772 65.0663 155.937 65.0663 156.038 65.1682L156.938 66.068C157.04 66.1699 157.04 66.3342 156.938 66.436C156.887 66.4871 156.82 66.5121 156.754 66.5121Z" fill="white"/>
<path d="M162.751 73.7129H129.148V115.357H162.751V73.7129Z" fill="url(#paint10_linear_1573_1639)"/>
<path d="M147.954 78.6309H133.379V79.7796H147.954V78.6309Z" fill="url(#paint11_linear_1573_1639)"/>
<path d="M150.97 78.6309H148.961V79.7796H150.97V78.6309Z" fill="url(#paint12_linear_1573_1639)"/>
<path d="M158.365 78.6309H151.688V79.7796H158.365V78.6309Z" fill="url(#paint13_linear_1573_1639)"/>
<path d="M158.366 81.2871H141.277V82.4359H158.366V81.2871Z" fill="url(#paint14_linear_1573_1639)"/>
<path d="M140.275 81.2871H138.266V82.4359H140.275V81.2871Z" fill="url(#paint15_linear_1573_1639)"/>
<path d="M137.543 81.2871H133.379V82.4359H137.543V81.2871Z" fill="url(#paint16_linear_1573_1639)"/>
<path d="M150.54 84.2305H133.379V85.3792H150.54V84.2305Z" fill="url(#paint17_linear_1573_1639)"/>
<path d="M153.556 84.2305H151.547V85.3792H153.556V84.2305Z" fill="url(#paint18_linear_1573_1639)"/>
<path d="M158.361 84.2305H154.27V85.3792H158.361V84.2305Z" fill="url(#paint19_linear_1573_1639)"/>
<path d="M158.364 86.8848H143.789V88.0335H158.364V86.8848Z" fill="url(#paint20_linear_1573_1639)"/>
<path d="M142.782 86.8848H140.773V88.0335H142.782V86.8848Z" fill="url(#paint21_linear_1573_1639)"/>
<path d="M140.056 86.8848H133.379V88.0335H140.056V86.8848Z" fill="url(#paint22_linear_1573_1639)"/>
<path d="M135.928 89.8281H133.379V90.9769H135.928V89.8281Z" fill="url(#paint23_linear_1573_1639)"/>
<path d="M138.943 89.8281H136.934V90.9769H138.943V89.8281Z" fill="url(#paint24_linear_1573_1639)"/>
<path d="M158.364 89.8281H139.66V90.9769H158.364V89.8281Z" fill="url(#paint25_linear_1573_1639)"/>
<path d="M158.367 92.4883H147.633V93.637H158.367V92.4883Z" fill="url(#paint26_linear_1573_1639)"/>
<path d="M146.626 92.4883H144.617V93.637H146.626V92.4883Z" fill="url(#paint27_linear_1573_1639)"/>
<path d="M143.897 92.4883H133.379V93.637H143.897V92.4883Z" fill="url(#paint28_linear_1573_1639)"/>
<path d="M151.688 95.4316H133.379V96.5804H151.688V95.4316Z" fill="url(#paint29_linear_1573_1639)"/>
<path d="M154.704 95.4316H152.695V96.5804H154.704V95.4316Z" fill="url(#paint30_linear_1573_1639)"/>
<path d="M158.365 95.4316H155.422V96.5804H158.365V95.4316Z" fill="url(#paint31_linear_1573_1639)"/>
<path d="M158.363 98.0879H150.859V99.237H158.363V98.0879Z" fill="url(#paint32_linear_1573_1639)"/>
<path d="M149.857 98.0879H147.848V99.237H149.857V98.0879Z" fill="url(#paint33_linear_1573_1639)"/>
<path d="M147.128 98.0879H133.379V99.237H147.128V98.0879Z" fill="url(#paint34_linear_1573_1639)"/>
<path d="M147.954 101.033H133.379V102.182H147.954V101.033Z" fill="url(#paint35_linear_1573_1639)"/>
<path d="M150.97 101.033H148.961V102.182H150.97V101.033Z" fill="url(#paint36_linear_1573_1639)"/>
<path d="M158.365 101.033H151.688V102.182H158.365V101.033Z" fill="url(#paint37_linear_1573_1639)"/>
<path d="M147.808 103.689H138.727V104.838H147.808V103.689Z" fill="url(#paint38_linear_1573_1639)"/>
<path d="M137.728 103.689H135.719V104.838H137.728V103.689Z" fill="url(#paint39_linear_1573_1639)"/>
<path d="M134.996 103.689H133.379V104.838H134.996V103.689Z" fill="url(#paint40_linear_1573_1639)"/>
<path d="M136.466 106.629H133.379V107.778H136.466V106.629Z" fill="url(#paint41_linear_1573_1639)"/>
<path d="M139.482 106.629H137.473V107.778H139.482V106.629Z" fill="url(#paint42_linear_1573_1639)"/>
<path d="M147.81 106.629H140.199V107.778H147.81V106.629Z" fill="url(#paint43_linear_1573_1639)"/>
<path d="M147.809 109.287H143.859V110.436H147.809V109.287Z" fill="url(#paint44_linear_1573_1639)"/>
<path d="M142.856 109.287H140.848V110.436H142.856V109.287Z" fill="url(#paint45_linear_1573_1639)"/>
<path d="M140.128 109.287H133.379V110.436H140.128V109.287Z" fill="url(#paint46_linear_1573_1639)"/>
<path d="M158.366 103.654H149.156V110.466H158.366V103.654Z" fill="url(#paint47_linear_1573_1639)"/>
<path d="M149.156 110.465L152.52 106.732L153.953 109.026L155.632 107.731L158.366 110.465H149.156Z" fill="url(#paint48_linear_1573_1639)"/>
<path d="M156.546 105.476C156.546 105.9 156.203 106.244 155.779 106.244C155.355 106.244 155.012 105.9 155.012 105.476C155.012 105.053 155.355 104.709 155.779 104.709C156.203 104.709 156.546 105.053 156.546 105.476Z" fill="url(#paint49_linear_1573_1639)"/>
<path d="M80.3645 75.9277L81.05 78.0372H83.2678L81.4736 79.3411L82.1587 81.4503L80.3645 80.1467L78.5703 81.4503L79.2555 79.3411L77.4609 78.0372H79.6794L80.3645 75.9277Z" fill="url(#paint50_linear_1573_1639)"/>
<path d="M90.1298 75.9277L90.8153 78.0372H93.0334L91.2389 79.3411L91.924 81.4503L90.1298 80.1467L88.3356 81.4503L89.0211 79.3411L87.2266 78.0372H89.4447L90.1298 75.9277Z" fill="url(#paint51_linear_1573_1639)"/>
<path d="M99.8958 75.9277L100.581 78.0372H102.799L101.005 79.3411L101.69 81.4503L99.8958 80.1467L98.1016 81.4503L98.7867 79.3411L96.9922 78.0372H99.2103L99.8958 75.9277Z" fill="url(#paint52_linear_1573_1639)"/>
<path d="M109.661 75.9277L110.346 78.0372H112.565L110.77 79.3411L111.455 81.4503L109.661 80.1467L107.867 81.4503L108.552 79.3411L106.758 78.0372H108.976L109.661 75.9277Z" fill="url(#paint53_linear_1573_1639)"/>
<path d="M119.423 75.9277L120.108 78.0372H122.326L120.532 79.3411L121.217 81.4503L119.423 80.1467L117.629 81.4503L118.314 79.3411L116.52 78.0372H118.738L119.423 75.9277Z" fill="url(#paint54_linear_1573_1639)"/>
<path d="M117.697 93.0289C114.242 88.1131 107.456 86.9285 102.539 90.3839L108.797 99.2853L117.697 93.0289Z" fill="url(#paint55_linear_1573_1639)"/>
<path d="M122.403 103.106C122.802 99.8072 122.03 96.3551 119.968 93.4225V93.4219L110.086 100.369L122.403 103.106Z" fill="url(#paint56_linear_1573_1639)"/>
<path d="M119.552 104.127L108.092 101.55L101.337 91.9395C96.0289 95.6704 94.7506 102.998 98.4812 108.306C102.212 113.613 109.54 114.891 114.847 111.16C117.334 109.412 118.935 106.876 119.552 104.128V104.127Z" fill="url(#paint57_linear_1573_1639)"/>
<path d="M91.4137 42.2969L91.7882 42.5376C91.7882 42.5376 92.0156 42.6622 92.1893 42.6619C92.3627 42.6616 92.6028 42.7419 92.6971 42.8434C92.7905 42.9446 92.8175 43.1304 92.7642 43.1977C92.7111 43.2657 92.7518 43.5169 92.8988 43.633C93.0462 43.7488 93.5342 44.1822 93.2008 44.3579C92.8673 44.5332 92.5407 44.4187 92.0725 44.2144C91.6047 44.0094 91.2959 43.6574 91.1895 43.4629C91.0822 43.2686 90.8008 43.0747 90.8008 43.0747L91.4137 42.2969Z" fill="url(#paint58_linear_1573_1639)"/>
<path d="M86.926 34.9403C86.926 34.9403 85.9891 34.6133 85.5577 35.9869C85.1263 37.3614 86.9514 39.8147 87.3877 40.4322C87.8236 41.0497 90.788 43.3521 90.788 43.3521L91.7878 42.0833C91.7878 42.0833 88.7902 39.8925 88.5546 38.8833C88.3181 37.8738 87.8949 35.0183 86.926 34.9403Z" fill="url(#paint59_linear_1573_1639)"/>
<path d="M85.0852 31.2012C85.0852 31.2012 84.6265 33.011 84.3359 33.3816C84.3359 33.3816 85.8787 34.0625 86.5602 33.8221C86.5602 33.8221 86.3432 33.1707 86.6403 32.5295C86.6403 32.5295 85.5546 31.9163 85.0852 31.2012Z" fill="url(#paint60_linear_1573_1639)"/>
<path d="M84.8869 29.7414C84.6748 31.3141 85.4387 32.6968 86.5927 32.8288C87.7466 32.9609 88.8544 31.7933 89.0665 30.2207C89.2779 28.6477 88.5147 27.2653 87.3604 27.1332C86.2065 27.0012 85.099 28.1684 84.8869 29.7414Z" fill="url(#paint61_linear_1573_1639)"/>
<path d="M84.4863 33.2461C84.4863 33.2461 82.1439 33.5051 81.1425 37.1787C80.1411 40.8524 79.9219 46.4231 79.9219 46.4231C79.9219 46.4231 84.4765 46.4231 87.3905 46.4231C87.3905 46.4231 88.0959 38.8607 87.8486 36.4962C87.6014 34.132 86.557 33.6755 86.557 33.6755C86.557 33.6755 86.2272 34.3226 84.4863 33.2461Z" fill="url(#paint62_linear_1573_1639)"/>
<path d="M93.4589 46.8782L88.9953 43.9004L83.0742 46.5977L87.5378 49.5749L93.4589 46.8782Z" fill="url(#paint63_linear_1573_1639)"/>
<path d="M85.2329 43.9766C85.2329 43.9766 84.4895 44.4441 84.3242 44.7313C84.3242 44.7313 84.9417 45.3215 85.2661 45.3443C85.5907 45.3667 85.7918 45.4344 85.8595 45.4149C85.9278 45.395 86.6175 45.4988 86.828 45.4194C87.0388 45.34 87.2799 45.1048 87.1045 45.0001C86.9301 44.896 86.0865 44.2886 85.2329 43.9766Z" fill="url(#paint64_linear_1573_1639)"/>
<path d="M85.3729 35.2628C85.3729 35.2628 85.3761 36.065 84.758 36.9086C83.6864 38.3716 82.7244 40.8146 82.7972 40.9548C82.9101 41.1718 85.6117 43.7884 85.6117 43.7884L84.5999 45.1975C84.5999 45.1975 82.1358 43.2116 81.5974 42.5031C81.0586 41.7945 80.5654 41.4438 80.8478 40.5101C81.1305 39.576 81.9185 37.1705 81.9185 37.1705C81.9185 37.1705 83.6073 32.9799 85.3729 35.2628Z" fill="url(#paint65_linear_1573_1639)"/>
<path d="M84.9095 30.4735C84.9095 30.4735 85.0848 29.7311 85.6385 29.4335C85.6385 29.4335 86.5892 29.7311 88.2097 28.1663C88.2097 28.1663 89.1639 29.0053 89.1102 28.1435C89.0565 27.282 88.4101 25.9358 86.6331 25.7204C84.8561 25.5051 83.7789 26.3665 83.4559 27.7128C83.1328 29.059 83.5099 29.059 83.0251 30.7286C82.5404 32.3979 81.1405 32.9903 80.5481 34.1212C79.9556 35.252 80.1352 36.6816 81.0858 36.8211C81.5527 36.8898 81.6822 36.3061 82.3872 34.9505C82.9305 33.9055 83.7695 34.088 84.6375 33.1611C85.5052 32.2339 84.941 30.9251 84.9095 30.4735Z" fill="url(#paint66_linear_1573_1639)"/>
<path opacity="0.4" d="M90.4848 136.388C90.4848 136.929 85.0878 137.368 78.4299 137.368C71.7723 137.368 66.375 136.929 66.375 136.388C66.375 135.847 71.7723 135.408 78.4299 135.408C85.0878 135.408 90.4848 135.847 90.4848 136.388Z" fill="url(#paint67_radial_1573_1639)"/>
<path d="M74.5547 109.226L75.5336 108.551C75.5336 108.551 76.9121 110.722 76.8187 110.819C76.7234 110.915 77.0051 111.492 76.2965 111.479C75.5883 111.464 74.7365 110.257 74.5547 109.226Z" fill="url(#paint68_linear_1573_1639)"/>
<path d="M75.8302 96.9375C75.8302 96.9375 73.8987 100.594 73.2949 101.986C72.6888 103.377 72.5356 104.024 73.2949 106.161C73.8785 107.806 74.5669 109.844 74.5669 109.844L75.8696 109.106C75.8696 109.106 74.6112 105.319 74.5643 104.285C74.5042 102.953 76.0768 100.715 76.0768 100.715C76.0768 100.715 76.2492 97.5163 75.8302 96.9375Z" fill="url(#paint69_linear_1573_1639)"/>
<path d="M76.1951 131.715C76.1951 131.715 76.2985 133.914 76.103 134.458C76.103 134.458 75.4576 134.715 75.3033 134.367C75.3033 134.367 74.9819 133.303 75.1352 131.753L76.1951 131.715Z" fill="url(#paint70_linear_1573_1639)"/>
<path d="M76.2346 132.523C76.1933 133.417 76.7509 134.784 76.9549 134.966C77.1583 135.149 77.3613 135.292 77.3203 135.556C77.2799 135.82 76.8931 136.267 76.4464 135.922C75.9994 135.576 75.8777 135.149 75.6533 134.825C75.4304 134.5 75.4304 134.662 75.4304 134.662C75.4304 134.662 75.3081 136.043 75.4304 136.43H75.1363C75.1363 136.43 75.0068 135.214 74.9053 134.645C74.8041 134.076 74.4583 133.243 74.8243 132.674L75.123 132.16C75.123 132.16 75.5996 131.967 75.8641 132.86C76.0258 133.407 76.2346 132.523 76.2346 132.523Z" fill="url(#paint71_linear_1573_1639)"/>
<path d="M80.2764 131.766C80.2764 131.766 80.3802 133.966 80.1847 134.51C80.1847 134.51 79.5399 134.766 79.385 134.418C79.385 134.418 79.0646 133.354 79.2168 131.804L80.2764 131.766Z" fill="url(#paint72_linear_1573_1639)"/>
<path d="M80.3166 132.573C80.2759 133.468 80.8329 134.834 81.0372 135.017C81.2392 135.2 81.4432 135.342 81.4022 135.607C81.3612 135.87 80.975 136.317 80.528 135.973C80.0817 135.626 79.9597 135.2 79.7355 134.875C79.5127 134.55 79.5127 134.712 79.5127 134.712C79.5127 134.712 79.3903 136.094 79.5127 136.48H79.2189C79.2189 136.48 79.0894 135.264 78.9882 134.695C78.8857 134.127 78.5406 133.293 78.9062 132.724L79.2052 132.211C79.2052 132.211 79.6818 132.018 79.946 132.91C80.108 133.457 80.3166 132.573 80.3166 132.573Z" fill="url(#paint73_linear_1573_1639)"/>
<path d="M82.1321 108.99C82.1321 108.99 82.4981 115.038 81.1021 126.665C80.89 128.433 80.6811 131.724 80.6811 131.724C80.6811 131.724 79.3495 132.087 78.7451 131.785C78.7451 131.785 78.4965 121.1 78.4965 119.346C78.4965 118.345 78.543 118.343 78.2707 113.816L76.5068 131.846C76.5068 131.846 75.4781 132.237 74.6914 131.686L75.2864 108.586C75.2864 108.586 80.1355 109.293 82.1321 108.99Z" fill="url(#paint74_linear_1573_1639)"/>
<path d="M88.8789 99.2035C88.8789 99.2035 89.5139 98.1572 89.5244 97.8862C89.5338 97.6149 89.5894 96.8269 89.6682 96.6184C89.7462 96.4099 89.9164 96.3698 90.0176 96.3165C90.1181 96.2641 90.3488 95.1807 90.408 95.0295C90.4646 94.8775 90.4948 94.711 90.6445 94.7581C90.7974 94.8056 90.6705 95.3909 90.624 95.5956C90.5762 95.7995 90.4939 96.3123 90.4939 96.3123C90.4939 96.3123 90.7229 96.3334 90.812 96.4001C90.9021 96.4668 90.9679 96.6103 91.0541 96.6373C91.14 96.662 91.1803 96.7811 91.2291 96.9018C91.2782 97.0218 91.4279 96.9776 91.4422 97.2336C91.4565 97.4906 91.2773 97.924 91.0817 98.1113C90.8839 98.2991 90.6881 98.4865 90.6175 98.544C90.5466 98.6026 89.7287 99.8682 89.7287 99.8682C89.7287 99.8682 88.9801 99.5467 88.8789 99.2035Z" fill="url(#paint75_linear_1573_1639)"/>
<path d="M82.1383 108.992C82.1383 108.992 77.895 109.857 75.293 108.587C75.293 108.587 77.0153 105.88 76.0347 101.681C75.656 100.06 75.5988 97.3856 75.901 96.7206C76.2036 96.0546 78.0843 95.3926 78.0843 95.3926C78.0843 95.3926 79.262 95.3818 80.3038 95.3555C80.3038 95.3555 81.4353 95.7524 82.1608 96.3572C82.1608 96.3572 82.923 97.1198 83.2854 98.3905C83.6495 99.6606 86.0042 102.347 86.1855 102.347C86.367 102.347 89.158 98.6326 89.158 98.6326L90.3156 99.3141C90.3156 99.3141 87.8186 104.343 86.6087 105.009C85.3991 105.674 83.6365 102.798 82.9106 101.77C82.9106 101.77 82.0762 104.457 82.016 105.788C81.9558 107.118 82.1383 108.992 82.1383 108.992Z" fill="url(#paint76_linear_1573_1639)"/>
<path d="M79.2013 94.7803C79.2013 94.7803 79.5647 95.6275 78.8984 96.3536C78.8984 96.3536 80.1692 96.9584 81.4998 96.1718C81.4998 96.1718 80.8947 95.3858 81.0765 94.2969C81.0765 94.2969 80.1692 94.8412 79.2013 94.7803Z" fill="url(#paint77_linear_1573_1639)"/>
<path d="M77.6289 92.3286C77.6289 94.0496 78.6446 95.4443 79.8978 95.4443C81.15 95.4443 82.1666 94.0496 82.1666 92.3286C82.1666 90.6076 81.1503 89.2129 79.8978 89.2129C78.6449 89.2126 77.6289 90.6076 77.6289 92.3286Z" fill="url(#paint78_linear_1573_1639)"/>
<path d="M81.8823 89.6596C81.8823 89.6596 82.6934 90.6773 81.4747 92.3413C81.4747 92.3413 81.0013 91.6396 80.8865 92.4217C80.8419 92.7223 81.1718 93.155 81.1718 93.155C81.1718 93.155 80.7294 94.0002 80.7365 94.5363C80.7473 95.3331 80.6962 96.0524 80.6786 96.6117C80.6366 97.9478 79.9294 101.104 76.7043 100.028C74.8834 99.4196 75.4759 97.9696 76.0322 96.4291C76.3061 95.6724 76.3705 95.7075 76.4008 94.103C76.4301 92.4985 76.3253 90.4736 77.6628 89.3444C78.9999 88.2151 81.1396 88.3225 81.8823 89.6596Z" fill="url(#paint79_linear_1573_1639)"/>
<path opacity="0.4" d="M182.121 137.149C188.779 137.149 194.176 136.711 194.176 136.169C194.176 135.628 188.779 135.189 182.121 135.189C175.464 135.189 170.066 135.628 170.066 136.169C170.066 136.711 175.464 137.149 182.121 137.149Z" fill="url(#paint80_radial_1573_1639)"/>
<path d="M181.325 99.0547C181.325 99.0547 178.323 104.357 178.08 104.384C177.838 104.411 173.691 103.711 173.691 103.711L173.207 105.138C173.207 105.138 176.573 106.189 177.461 106.242C178.35 106.296 178.915 106.512 179.534 105.758C180.154 105.004 181.715 103.011 181.715 103.011C181.715 103.011 182.685 99.1367 181.325 99.0547Z" fill="url(#paint81_linear_1573_1639)"/>
<path d="M173.609 103.962L172.293 103.416L171.836 104.385L173.275 104.946L173.609 103.962Z" fill="url(#paint82_linear_1573_1639)"/>
<path d="M178.692 132.449C178.692 132.449 178.076 134.241 177.96 134.378C177.844 134.515 177.512 134.676 177.512 134.676C177.512 134.676 178.509 135.453 179.426 135.146C179.426 135.146 179.869 134.017 180.296 132.975L178.692 132.449Z" fill="url(#paint83_linear_1573_1639)"/>
<path d="M177.961 134.379C177.961 134.379 177.984 135.135 179.473 134.934C179.473 134.934 179.574 135.084 179.559 135.335C179.546 135.586 179.43 136.334 179.43 136.334C179.43 136.334 174.727 136.204 174.55 136.158C174.372 136.111 174.197 135.419 174.852 135.277C175.508 135.135 176.27 135 176.751 134.776C177.232 134.552 177.961 134.379 177.961 134.379Z" fill="url(#paint84_linear_1573_1639)"/>
<path d="M180.883 109.18C180.883 109.18 178.91 123.649 178.695 125.731C178.479 127.813 177.91 133.146 177.91 133.146L180.351 133.792C180.351 133.792 183.085 124.903 183.444 121.888C183.803 118.872 185.597 109.426 185.597 109.426L180.883 109.18Z" fill="url(#paint85_linear_1573_1639)"/>
<path d="M185.852 132.631C185.852 132.631 186.443 134.006 186.402 134.181C186.361 134.356 186.137 134.65 186.137 134.65C186.137 134.65 187.379 134.89 188.057 134.201C188.057 134.201 187.636 133.23 187.426 132.199L185.852 132.631Z" fill="url(#paint86_linear_1573_1639)"/>
<path d="M186.405 134.179C186.405 134.179 186.769 134.842 188.004 133.988C188.004 133.988 188.163 134.076 188.264 134.306C188.365 134.536 188.6 135.256 188.6 135.256C188.6 135.256 184.351 137.273 184.172 137.313C183.993 137.352 183.522 136.813 184.042 136.39C184.562 135.966 185.18 135.5 185.507 135.082C185.834 134.665 186.405 134.179 186.405 134.179Z" fill="url(#paint87_linear_1573_1639)"/>
<path d="M182.418 109.42C182.418 109.42 184.289 123.611 184.525 125.691C184.76 127.771 185.464 133.071 185.464 133.071L187.875 132.426C187.875 132.426 187.888 125.227 187.594 122.204C187.3 119.182 187.649 109.586 187.649 109.586L182.418 109.42Z" fill="url(#paint88_linear_1573_1639)"/>
<path d="M184.616 94.4551C184.616 94.4551 184.847 96.3075 185.09 96.7116C185.09 96.7116 183.474 97.1963 182.828 96.873C182.828 96.873 183.124 96.2538 182.909 95.5804C182.909 95.5804 184.061 95.1064 184.616 94.4551Z" fill="url(#paint89_linear_1573_1639)"/>
<path d="M184.959 93.3115C184.748 94.8884 183.609 96.0375 182.416 95.8781C181.222 95.719 180.425 94.3113 180.635 92.734C180.846 91.1568 181.984 90.0074 183.178 90.1672C184.372 90.3266 185.169 91.7346 184.959 93.3115Z" fill="url(#paint90_linear_1573_1639)"/>
<path d="M184.277 92.6342C184.277 92.6342 183.737 92.4097 183.683 91.5749C183.683 91.5749 182.584 90.8715 181.882 91.058C181.18 91.2444 180.321 90.2775 180.671 89.2003C181.021 88.1231 181.747 88.0964 182.798 88.5809C183.848 89.0656 184.494 89.1463 184.978 89.1463C185.463 89.1463 186.675 89.8464 186.567 91.327C186.459 92.8083 185.953 93.5272 184.849 93.8441C184.849 93.8441 185.23 92.6098 184.277 92.6342Z" fill="url(#paint91_linear_1573_1639)"/>
<path d="M185.049 93.1751C184.812 93.5122 184.446 93.6644 184.233 93.5148C184.021 93.3655 184.04 92.9702 184.278 92.6335C184.516 92.2961 184.881 92.1442 185.094 92.2941C185.307 92.4435 185.287 92.8381 185.049 93.1751Z" fill="url(#paint92_linear_1573_1639)"/>
<path d="M185.004 96.5137C185.004 96.5137 187.296 97.0609 187.834 100.83C188.373 104.6 187.834 110.361 187.834 110.361C187.834 110.361 182.88 110.846 180.457 110.146C180.457 110.146 180.726 101.638 181.265 99.3223C181.803 97.0069 182.896 96.6835 182.896 96.6835C182.896 96.6835 183.143 97.3664 185.004 96.5137Z" fill="url(#paint93_linear_1573_1639)"/>
<path d="M183.959 99.6458C183.959 99.6458 184.282 98.4606 185.628 99.107C186.975 99.7531 188.59 105.407 188.805 106.323C189.021 107.239 188.994 111.978 188.994 111.978H187.379C187.379 111.978 187.513 107.293 186.867 106.269C186.221 105.246 183.421 100.669 183.959 99.6458Z" fill="url(#paint94_linear_1573_1639)"/>
<path d="M187.563 111.979L187.51 112.678C187.51 112.678 187.456 113.082 187.321 113.297C187.187 113.513 187.079 113.89 187.106 114.105C187.133 114.321 187.294 114.536 187.402 114.536C187.51 114.536 187.725 114.832 187.725 115.128C187.725 115.424 187.698 116.905 188.129 116.663C188.56 116.421 188.775 115.451 188.936 114.671C189.098 113.89 188.99 113.163 188.883 112.84C188.775 112.517 188.802 111.979 188.802 111.979H187.563Z" fill="url(#paint95_linear_1573_1639)"/>
<path d="M166.25 85.1212C166.25 88.7526 169.193 91.6959 172.825 91.6959C176.455 91.6959 179.399 88.7526 179.399 85.1212C179.399 81.4902 176.455 78.5469 172.825 78.5469C169.193 78.5469 166.25 81.4902 166.25 85.1212Z" fill="url(#paint96_linear_1573_1639)"/>
<path d="M171.914 110.631C171.914 110.99 172.17 111.283 172.482 111.283C172.795 111.283 173.051 110.99 173.051 110.631V93.9918C173.051 93.6333 172.795 93.3398 172.482 93.3398C172.17 93.3398 171.914 93.6333 171.914 93.9918V110.631Z" fill="url(#paint97_linear_1573_1639)"/>
<path d="M174.636 92.5918C174.636 93.5828 174.132 94.3867 172.482 94.3867C170.973 94.3867 170.328 93.5828 170.328 92.5918H174.636Z" fill="url(#paint98_linear_1573_1639)"/>
<path d="M164.66 85.1232C164.66 89.6658 168.342 93.3483 172.885 93.3483C177.428 93.3483 181.11 89.6658 181.11 85.1232C181.11 80.5809 177.428 76.8984 172.885 76.8984C168.342 76.8984 164.66 80.5809 164.66 85.1232ZM166.31 85.1232C166.31 81.4921 169.254 78.5489 172.885 78.5489C176.516 78.5489 179.46 81.4921 179.46 85.1232C179.46 88.7546 176.516 91.6978 172.885 91.6978C169.254 91.6978 166.31 88.7546 166.31 85.1232Z" fill="url(#paint99_linear_1573_1639)"/>
<g opacity="0.6">
<path d="M178.159 85.6103C178.429 85.6103 178.647 85.392 178.647 85.1223C178.647 81.9458 176.063 79.3613 172.886 79.3613C172.617 79.3613 172.398 79.5796 172.398 79.8493C172.398 80.119 172.617 80.3373 172.886 80.3373C175.525 80.3373 177.671 82.4842 177.671 85.1223C177.671 85.392 177.89 85.6103 178.159 85.6103Z" fill="white"/>
</g>
<path d="M172.836 104.658C172.836 104.658 172.34 104.74 172.039 104.773C171.738 104.806 171.482 104.737 171.378 104.479C171.275 104.221 171.381 103.753 171.359 103.492C171.337 103.231 171.417 102.845 171.616 102.695C171.816 102.545 172.117 102.512 172.421 102.62C172.724 102.728 173.19 102.829 173.282 103.148C173.375 103.466 173.165 103.677 173.154 103.98C173.142 104.282 172.836 104.658 172.836 104.658Z" fill="url(#paint100_linear_1573_1639)"/>
<path d="M130.728 26.2656H142.747C143.662 26.2656 144.41 27.0139 144.41 27.9278V39.9469C144.41 40.8617 143.662 41.6087 142.747 41.6087H135.695L133.208 43.6514V41.6087H130.728C129.814 41.6087 129.066 40.8614 129.066 39.9469V27.9278C129.066 27.0139 129.814 26.2656 130.728 26.2656Z" fill="url(#paint101_linear_1573_1639)"/>
<path d="M136.78 38.8996C136.652 38.8996 136.53 38.8476 136.442 38.7559L132.953 35.1365C132.188 34.4605 131.038 32.7554 132.07 31.0347C132.585 30.1784 133.399 29.707 134.362 29.707C135.196 29.707 136.086 30.0594 136.78 30.6476C137.473 30.0597 138.363 29.707 139.197 29.707C140.16 29.707 140.974 30.1788 141.488 31.0347C142.52 32.7554 141.372 34.4605 140.607 35.1365L137.118 38.7559C137.028 38.8476 136.907 38.8996 136.78 38.8996ZM134.362 30.6456C133.723 30.6456 133.223 30.9391 132.876 31.5178C131.984 33.0056 133.52 34.3853 133.586 34.4436C133.596 34.452 133.606 34.4615 133.615 34.4709L136.78 37.7538L139.944 34.4709C139.955 34.4611 139.964 34.4517 139.975 34.4426C140.039 34.3856 141.576 33.0059 140.683 31.5178C140.336 30.9387 139.836 30.6456 139.198 30.6456C138.483 30.6456 137.669 31.0256 137.125 31.6141C136.948 31.8061 136.614 31.8061 136.435 31.6141C135.891 31.0256 135.077 30.6456 134.362 30.6456Z" fill="white"/>
<path d="M194.464 58.8652H170.414C169.634 58.8652 168.996 59.5032 168.996 60.283V70.4523C168.996 71.2318 169.634 71.8701 170.414 71.8701H182.331L181.751 76.3184L186.877 71.8701H194.464C195.243 71.8701 195.881 71.2321 195.881 70.4523V60.283C195.881 59.5032 195.243 58.8652 194.464 58.8652Z" fill="url(#paint102_linear_1573_1639)"/>
<path d="M171.936 67.6895V62.7967H172.872L175.759 66.3195H175.305V62.7967H176.423V67.6895H175.493L172.6 64.1667H173.054V67.6895H171.936ZM178.622 64.7678H180.978V65.6485H178.622V64.7678ZM178.706 66.7808H181.369V67.6895H177.581V62.7967H181.278V63.7054H178.706V66.7808ZM183.376 67.6895L181.775 62.7967H182.95L184.34 67.1303H183.753L185.207 62.7967H186.256L187.654 67.1303H187.087L188.513 62.7967H189.597L187.996 67.6895H186.78L185.543 63.8871H185.864L184.592 67.6895H183.376ZM191.836 67.7733C191.445 67.7733 191.07 67.7221 190.711 67.6196C190.352 67.5124 190.063 67.3749 189.844 67.2072L190.229 66.3544C190.438 66.5035 190.685 66.627 190.97 66.7249C191.259 66.8181 191.55 66.8647 191.843 66.8647C192.067 66.8647 192.246 66.8437 192.382 66.8018C192.521 66.7552 192.624 66.6923 192.689 66.613C192.754 66.5338 192.787 66.443 192.787 66.3405C192.787 66.21 192.736 66.1075 192.633 66.0329C192.531 65.9537 192.396 65.8908 192.228 65.8442C192.06 65.7929 191.874 65.7463 191.669 65.7044C191.468 65.6578 191.266 65.6019 191.061 65.5366C190.86 65.4714 190.676 65.3875 190.508 65.285C190.341 65.1825 190.203 65.0474 190.096 64.8796C189.993 64.7119 189.942 64.4975 189.942 64.2366C189.942 63.957 190.017 63.703 190.166 63.4747C190.32 63.2417 190.548 63.0577 190.851 62.9225C191.158 62.7827 191.543 62.7128 192.004 62.7128C192.312 62.7128 192.615 62.7501 192.913 62.8247C193.211 62.8946 193.474 63.0017 193.703 63.1462L193.353 64.0059C193.125 63.8754 192.897 63.7799 192.668 63.7193C192.44 63.6541 192.216 63.6215 191.997 63.6215C191.778 63.6215 191.599 63.6471 191.459 63.6984C191.319 63.7496 191.219 63.8172 191.158 63.9011C191.098 63.9803 191.068 64.0735 191.068 64.1807C191.068 64.3065 191.119 64.409 191.221 64.4882C191.324 64.5628 191.459 64.6233 191.627 64.6699C191.794 64.7165 191.979 64.7631 192.179 64.8097C192.384 64.8563 192.587 64.9099 192.787 64.9705C192.992 65.0311 193.178 65.1126 193.346 65.2151C193.514 65.3176 193.649 65.4528 193.752 65.6205C193.859 65.7883 193.912 66.0003 193.912 66.2566C193.912 66.5315 193.835 66.7831 193.682 67.0115C193.528 67.2398 193.297 67.4238 192.99 67.5636C192.687 67.7034 192.302 67.7733 191.836 67.7733Z" fill="white"/>
<path d="M68.9017 89.1217C68.9017 90.6062 67.6866 91.8213 66.2017 91.8213H42.1921C40.7073 91.8213 39.4922 90.6065 39.4922 89.1217V69.7582C39.4922 68.2737 40.7073 67.0586 42.1921 67.0586H66.2017C67.6866 67.0586 68.9017 68.2737 68.9017 69.7582V89.1217Z" fill="url(#paint103_linear_1573_1639)"/>
<path d="M54.1916 86.0921C49.9912 86.0921 46.5742 82.6745 46.5742 78.4738C46.5742 74.2731 49.9912 70.8555 54.1916 70.8555C58.3926 70.8555 61.8099 74.2731 61.8099 78.4738C61.8099 82.6748 58.3929 86.0921 54.1916 86.0921ZM54.1916 71.7605C50.4903 71.7605 47.479 74.7725 47.479 78.4738C47.479 82.1751 50.4903 85.1871 54.1916 85.1871C57.8929 85.1871 60.9051 82.1751 60.9051 78.4738C60.9055 74.7725 57.8929 71.7605 54.1916 71.7605Z" fill="white"/>
<path d="M51.8164 74.4902L58.7184 78.4756L51.8164 82.4609V74.4902Z" fill="white"/>
<path d="M61.678 88.3281H41.8398V89.7918H61.678V88.3281Z" fill="white"/>
<path d="M66.5536 88.3281H62.4883V89.7918H66.5536V88.3281Z" fill="white"/>
<path d="M45.7816 106.682C45.7816 105.88 46.4345 105.227 47.2374 105.227H56.2176C57.0212 105.227 57.6732 105.88 57.6732 106.682V111.746C57.6732 112.403 57.2281 112.982 56.5904 113.15L55.3652 113.474L55.7462 114.594C55.3399 114.355 54.8964 114.02 54.4403 113.555L54.0929 113.201H53.5964H47.2371C46.4342 113.201 45.7812 112.548 45.7812 111.745L45.7816 106.682Z" fill="url(#paint104_linear_1573_1639)"/>
<path d="M55.4794 107.43H47.9766V108.368H55.4794V107.43Z" fill="white"/>
<path d="M55.4794 110.227H47.9766V111.164H55.4794V110.227Z" fill="white"/>
<defs>
<linearGradient id="paint0_linear_1573_1639" x1="118.691" y1="133.96" x2="118.691" y2="19.0567" gradientUnits="userSpaceOnUse">
<stop stop-color="#F2E7FF"/>
<stop offset="0.5149" stop-color="#D9B9FF"/>
<stop offset="0.9987" stop-color="#BF8BFF"/>
</linearGradient>
<linearGradient id="paint1_linear_1573_1639" x1="172.738" y1="92.6383" x2="209.102" y2="92.6383" gradientUnits="userSpaceOnUse">
<stop stop-color="#F7ABC5"/>
<stop offset="1" stop-color="#F16D9A"/>
</linearGradient>
<linearGradient id="paint2_linear_1573_1639" x1="36.9729" y1="49.4012" x2="70.8477" y2="49.4012" gradientUnits="userSpaceOnUse">
<stop stop-color="#C5F9F7"/>
<stop offset="1" stop-color="#31D8DD"/>
</linearGradient>
<linearGradient id="paint3_linear_1573_1639" x1="38.5159" y1="102.636" x2="30.8633" y2="102.636" gradientUnits="userSpaceOnUse">
<stop stop-color="#D7DAE3"/>
<stop offset="0.4855" stop-color="#AAB1C4"/>
<stop offset="1" stop-color="#6E7B9A"/>
</linearGradient>
<linearGradient id="paint4_linear_1573_1639" x1="179.469" y1="40.3479" x2="187.121" y2="40.3479" gradientUnits="userSpaceOnUse">
<stop stop-color="#D7DAE3"/>
<stop offset="1" stop-color="#AAB1C4"/>
</linearGradient>
<linearGradient id="paint5_linear_1573_1639" x1="60.0234" y1="86.5075" x2="179.445" y2="86.5075" gradientUnits="userSpaceOnUse">
<stop stop-color="#6D6E71"/>
<stop offset="0.6223" stop-color="#3C3A3C"/>
<stop offset="1" stop-color="#98AABB"/>
</linearGradient>
<linearGradient id="paint6_linear_1573_1639" x1="180.328" y1="60.3123" x2="64.9437" y2="110.197" gradientUnits="userSpaceOnUse">
<stop stop-color="#F8FBFF"/>
<stop offset="0.9994" stop-color="#D6EAFF"/>
</linearGradient>
<linearGradient id="paint7_linear_1573_1639" x1="94.7462" y1="130.467" x2="144.719" y2="130.467" gradientUnits="userSpaceOnUse">
<stop stop-color="#6D6E71"/>
<stop offset="0.6223" stop-color="#3C3A3C"/>
<stop offset="1" stop-color="#98AABB"/>
</linearGradient>
<linearGradient id="paint8_linear_1573_1639" x1="63.9453" y1="54" x2="175.522" y2="54" gradientUnits="userSpaceOnUse">
<stop stop-color="#00C4FF"/>
<stop offset="0.6781" stop-color="#0392EC"/>
<stop offset="1" stop-color="#0579E3"/>
</linearGradient>
<linearGradient id="paint9_linear_1573_1639" x1="151.828" y1="64.665" x2="158.721" y2="64.665" gradientUnits="userSpaceOnUse">
<stop stop-color="#00C4FF"/>
<stop offset="0.6781" stop-color="#0392EC"/>
<stop offset="1" stop-color="#0579E3"/>
</linearGradient>
<linearGradient id="paint10_linear_1573_1639" x1="162.752" y1="94.5347" x2="129.149" y2="94.5347" gradientUnits="userSpaceOnUse">
<stop stop-color="#DAE8FF"/>
<stop offset="1" stop-color="#B0CDFF"/>
</linearGradient>
<linearGradient id="paint11_linear_1573_1639" x1="134.231" y1="79.2053" x2="157.691" y2="79.2053" gradientUnits="userSpaceOnUse">
<stop stop-color="#00C4FF"/>
<stop offset="0.6781" stop-color="#0392EC"/>
<stop offset="1" stop-color="#0579E3"/>
</linearGradient>
<linearGradient id="paint12_linear_1573_1639" x1="134.233" y1="79.2053" x2="157.693" y2="79.2053" gradientUnits="userSpaceOnUse">
<stop stop-color="#00C4FF"/>
<stop offset="0.6781" stop-color="#0392EC"/>
<stop offset="1" stop-color="#0579E3"/>
</linearGradient>
<linearGradient id="paint13_linear_1573_1639" x1="134.231" y1="79.2053" x2="157.691" y2="79.2053" gradientUnits="userSpaceOnUse">
<stop stop-color="#00C4FF"/>
<stop offset="0.6781" stop-color="#0392EC"/>
<stop offset="1" stop-color="#0579E3"/>
</linearGradient>
<linearGradient id="paint14_linear_1573_1639" x1="134.232" y1="81.8615" x2="157.692" y2="81.8615" gradientUnits="userSpaceOnUse">
<stop stop-color="#00C4FF"/>
<stop offset="0.6781" stop-color="#0392EC"/>
<stop offset="1" stop-color="#0579E3"/>
</linearGradient>
<linearGradient id="paint15_linear_1573_1639" x1="134.235" y1="81.8615" x2="157.695" y2="81.8615" gradientUnits="userSpaceOnUse">
<stop stop-color="#00C4FF"/>
<stop offset="0.6781" stop-color="#0392EC"/>
<stop offset="1" stop-color="#0579E3"/>
</linearGradient>
<linearGradient id="paint16_linear_1573_1639" x1="134.231" y1="81.8615" x2="157.691" y2="81.8615" gradientUnits="userSpaceOnUse">
<stop stop-color="#00C4FF"/>
<stop offset="0.6781" stop-color="#0392EC"/>
<stop offset="1" stop-color="#0579E3"/>
</linearGradient>
<linearGradient id="paint17_linear_1573_1639" x1="134.231" y1="84.8047" x2="157.691" y2="84.8047" gradientUnits="userSpaceOnUse">
<stop stop-color="#00C4FF"/>
<stop offset="0.6781" stop-color="#0392EC"/>
<stop offset="1" stop-color="#0579E3"/>
</linearGradient>
<linearGradient id="paint18_linear_1573_1639" x1="134.233" y1="84.8047" x2="157.693" y2="84.8047" gradientUnits="userSpaceOnUse">
<stop stop-color="#00C4FF"/>
<stop offset="0.6781" stop-color="#0392EC"/>
<stop offset="1" stop-color="#0579E3"/>
</linearGradient>
<linearGradient id="paint19_linear_1573_1639" x1="134.227" y1="84.8047" x2="157.687" y2="84.8047" gradientUnits="userSpaceOnUse">
<stop stop-color="#00C4FF"/>
<stop offset="0.6781" stop-color="#0392EC"/>
<stop offset="1" stop-color="#0579E3"/>
</linearGradient>
<linearGradient id="paint20_linear_1573_1639" x1="134.23" y1="87.459" x2="157.69" y2="87.459" gradientUnits="userSpaceOnUse">
<stop stop-color="#00C4FF"/>
<stop offset="0.6781" stop-color="#0392EC"/>
<stop offset="1" stop-color="#0579E3"/>
</linearGradient>
<linearGradient id="paint21_linear_1573_1639" x1="134.229" y1="87.459" x2="157.689" y2="87.459" gradientUnits="userSpaceOnUse">
<stop stop-color="#00C4FF"/>
<stop offset="0.6781" stop-color="#0392EC"/>
<stop offset="1" stop-color="#0579E3"/>
</linearGradient>
<linearGradient id="paint22_linear_1573_1639" x1="134.231" y1="87.459" x2="157.691" y2="87.459" gradientUnits="userSpaceOnUse">
<stop stop-color="#00C4FF"/>
<stop offset="0.6781" stop-color="#0392EC"/>
<stop offset="1" stop-color="#0579E3"/>
</linearGradient>
<linearGradient id="paint23_linear_1573_1639" x1="134.231" y1="90.4027" x2="157.691" y2="90.4027" gradientUnits="userSpaceOnUse">
<stop stop-color="#00C4FF"/>
<stop offset="0.6781" stop-color="#0392EC"/>
<stop offset="1" stop-color="#0579E3"/>
</linearGradient>
<linearGradient id="paint24_linear_1573_1639" x1="134.232" y1="90.4027" x2="157.692" y2="90.4027" gradientUnits="userSpaceOnUse">
<stop stop-color="#00C4FF"/>
<stop offset="0.6781" stop-color="#0392EC"/>
<stop offset="1" stop-color="#0579E3"/>
</linearGradient>
<linearGradient id="paint25_linear_1573_1639" x1="134.23" y1="90.4027" x2="157.69" y2="90.4027" gradientUnits="userSpaceOnUse">
<stop stop-color="#00C4FF"/>
<stop offset="0.6781" stop-color="#0392EC"/>
<stop offset="1" stop-color="#0579E3"/>
</linearGradient>
<linearGradient id="paint26_linear_1573_1639" x1="134.233" y1="93.0625" x2="157.693" y2="93.0625" gradientUnits="userSpaceOnUse">
<stop stop-color="#00C4FF"/>
<stop offset="0.6781" stop-color="#0392EC"/>
<stop offset="1" stop-color="#0579E3"/>
</linearGradient>
<linearGradient id="paint27_linear_1573_1639" x1="134.232" y1="93.0625" x2="157.692" y2="93.0625" gradientUnits="userSpaceOnUse">
<stop stop-color="#00C4FF"/>
<stop offset="0.6781" stop-color="#0392EC"/>
<stop offset="1" stop-color="#0579E3"/>
</linearGradient>
<linearGradient id="paint28_linear_1573_1639" x1="134.231" y1="93.0625" x2="157.691" y2="93.0625" gradientUnits="userSpaceOnUse">
<stop stop-color="#00C4FF"/>
<stop offset="0.6781" stop-color="#0392EC"/>
<stop offset="1" stop-color="#0579E3"/>
</linearGradient>
<linearGradient id="paint29_linear_1573_1639" x1="134.231" y1="96.0062" x2="157.691" y2="96.0062" gradientUnits="userSpaceOnUse">
<stop stop-color="#00C4FF"/>
<stop offset="0.6781" stop-color="#0392EC"/>
<stop offset="1" stop-color="#0579E3"/>
</linearGradient>
<linearGradient id="paint30_linear_1573_1639" x1="134.233" y1="96.0062" x2="157.693" y2="96.0062" gradientUnits="userSpaceOnUse">
<stop stop-color="#00C4FF"/>
<stop offset="0.6781" stop-color="#0392EC"/>
<stop offset="1" stop-color="#0579E3"/>
</linearGradient>
<linearGradient id="paint31_linear_1573_1639" x1="134.232" y1="96.0062" x2="157.692" y2="96.0062" gradientUnits="userSpaceOnUse">
<stop stop-color="#00C4FF"/>
<stop offset="0.6781" stop-color="#0392EC"/>
<stop offset="1" stop-color="#0579E3"/>
</linearGradient>
<linearGradient id="paint32_linear_1573_1639" x1="134.229" y1="98.6626" x2="157.689" y2="98.6626" gradientUnits="userSpaceOnUse">
<stop stop-color="#00C4FF"/>
<stop offset="0.6781" stop-color="#0392EC"/>
<stop offset="1" stop-color="#0579E3"/>
</linearGradient>
<linearGradient id="paint33_linear_1573_1639" x1="134.231" y1="98.6626" x2="157.692" y2="98.6626" gradientUnits="userSpaceOnUse">
<stop stop-color="#00C4FF"/>
<stop offset="0.6781" stop-color="#0392EC"/>
<stop offset="1" stop-color="#0579E3"/>
</linearGradient>
<linearGradient id="paint34_linear_1573_1639" x1="134.231" y1="98.6626" x2="157.691" y2="98.6626" gradientUnits="userSpaceOnUse">
<stop stop-color="#00C4FF"/>
<stop offset="0.6781" stop-color="#0392EC"/>
<stop offset="1" stop-color="#0579E3"/>
</linearGradient>
<linearGradient id="paint35_linear_1573_1639" x1="134.231" y1="101.608" x2="157.691" y2="101.608" gradientUnits="userSpaceOnUse">
<stop stop-color="#00C4FF"/>
<stop offset="0.6781" stop-color="#0392EC"/>
<stop offset="1" stop-color="#0579E3"/>
</linearGradient>
<linearGradient id="paint36_linear_1573_1639" x1="134.233" y1="101.608" x2="157.693" y2="101.608" gradientUnits="userSpaceOnUse">
<stop stop-color="#00C4FF"/>
<stop offset="0.6781" stop-color="#0392EC"/>
<stop offset="1" stop-color="#0579E3"/>
</linearGradient>
<linearGradient id="paint37_linear_1573_1639" x1="134.231" y1="101.608" x2="157.691" y2="101.608" gradientUnits="userSpaceOnUse">
<stop stop-color="#00C4FF"/>
<stop offset="0.6781" stop-color="#0392EC"/>
<stop offset="1" stop-color="#0579E3"/>
</linearGradient>
<linearGradient id="paint38_linear_1573_1639" x1="134.228" y1="104.264" x2="157.689" y2="104.264" gradientUnits="userSpaceOnUse">
<stop stop-color="#00C4FF"/>
<stop offset="0.6781" stop-color="#0392EC"/>
<stop offset="1" stop-color="#0579E3"/>
</linearGradient>
<linearGradient id="paint39_linear_1573_1639" x1="134.235" y1="104.264" x2="157.696" y2="104.264" gradientUnits="userSpaceOnUse">
<stop stop-color="#00C4FF"/>
<stop offset="0.6781" stop-color="#0392EC"/>
<stop offset="1" stop-color="#0579E3"/>
</linearGradient>
<linearGradient id="paint40_linear_1573_1639" x1="134.231" y1="104.264" x2="157.691" y2="104.264" gradientUnits="userSpaceOnUse">
<stop stop-color="#00C4FF"/>
<stop offset="0.6781" stop-color="#0392EC"/>
<stop offset="1" stop-color="#0579E3"/>
</linearGradient>
<linearGradient id="paint41_linear_1573_1639" x1="134.231" y1="107.204" x2="157.691" y2="107.204" gradientUnits="userSpaceOnUse">
<stop stop-color="#00C4FF"/>
<stop offset="0.6781" stop-color="#0392EC"/>
<stop offset="1" stop-color="#0579E3"/>
</linearGradient>
<linearGradient id="paint42_linear_1573_1639" x1="134.233" y1="107.204" x2="157.693" y2="107.204" gradientUnits="userSpaceOnUse">
<stop stop-color="#00C4FF"/>
<stop offset="0.6781" stop-color="#0392EC"/>
<stop offset="1" stop-color="#0579E3"/>
</linearGradient>
<linearGradient id="paint43_linear_1573_1639" x1="134.231" y1="107.204" x2="157.691" y2="107.204" gradientUnits="userSpaceOnUse">
<stop stop-color="#00C4FF"/>
<stop offset="0.6781" stop-color="#0392EC"/>
<stop offset="1" stop-color="#0579E3"/>
</linearGradient>
<linearGradient id="paint44_linear_1573_1639" x1="134.229" y1="109.862" x2="157.69" y2="109.862" gradientUnits="userSpaceOnUse">
<stop stop-color="#00C4FF"/>
<stop offset="0.6781" stop-color="#0392EC"/>
<stop offset="1" stop-color="#0579E3"/>
</linearGradient>
<linearGradient id="paint45_linear_1573_1639" x1="134.232" y1="109.862" x2="157.692" y2="109.862" gradientUnits="userSpaceOnUse">
<stop stop-color="#00C4FF"/>
<stop offset="0.6781" stop-color="#0392EC"/>
<stop offset="1" stop-color="#0579E3"/>
</linearGradient>
<linearGradient id="paint46_linear_1573_1639" x1="134.231" y1="109.862" x2="157.691" y2="109.862" gradientUnits="userSpaceOnUse">
<stop stop-color="#00C4FF"/>
<stop offset="0.6781" stop-color="#0392EC"/>
<stop offset="1" stop-color="#0579E3"/>
</linearGradient>
<linearGradient id="paint47_linear_1573_1639" x1="149.156" y1="107.06" x2="158.367" y2="107.06" gradientUnits="userSpaceOnUse">
<stop stop-color="#00C4FF"/>
<stop offset="0.6781" stop-color="#0392EC"/>
<stop offset="1" stop-color="#0579E3"/>
</linearGradient>
<linearGradient id="paint48_linear_1573_1639" x1="149.156" y1="108.599" x2="158.367" y2="108.599" gradientUnits="userSpaceOnUse">
<stop stop-color="#D8F29D"/>
<stop offset="0.9939" stop-color="#78DF12"/>
</linearGradient>
<linearGradient id="paint49_linear_1573_1639" x1="155.011" y1="105.477" x2="156.546" y2="105.477" gradientUnits="userSpaceOnUse">
<stop stop-color="#D8F29D"/>
<stop offset="0.9939" stop-color="#78DF12"/>
</linearGradient>
<linearGradient id="paint50_linear_1573_1639" x1="77.461" y1="78.6891" x2="83.2679" y2="78.6891" gradientUnits="userSpaceOnUse">
<stop stop-color="#F7ABC5"/>
<stop offset="1" stop-color="#F16D9A"/>
</linearGradient>
<linearGradient id="paint51_linear_1573_1639" x1="87.2266" y1="78.6891" x2="93.0335" y2="78.6891" gradientUnits="userSpaceOnUse">
<stop stop-color="#F7ABC5"/>
<stop offset="1" stop-color="#F16D9A"/>
</linearGradient>
<linearGradient id="paint52_linear_1573_1639" x1="96.9922" y1="78.6891" x2="102.799" y2="78.6891" gradientUnits="userSpaceOnUse">
<stop stop-color="#F7ABC5"/>
<stop offset="1" stop-color="#F16D9A"/>
</linearGradient>
<linearGradient id="paint53_linear_1573_1639" x1="106.758" y1="78.6891" x2="112.565" y2="78.6891" gradientUnits="userSpaceOnUse">
<stop stop-color="#F7ABC5"/>
<stop offset="1" stop-color="#F16D9A"/>
</linearGradient>
<linearGradient id="paint54_linear_1573_1639" x1="116.519" y1="78.6891" x2="122.326" y2="78.6891" gradientUnits="userSpaceOnUse">
<stop stop-color="#F7ABC5"/>
<stop offset="1" stop-color="#F16D9A"/>
</linearGradient>
<linearGradient id="paint55_linear_1573_1639" x1="101.138" y1="93.845" x2="122.644" y2="93.845" gradientUnits="userSpaceOnUse">
<stop stop-color="#006CFF"/>
<stop offset="0.3081" stop-color="#3296FF"/>
<stop offset="1" stop-color="#AEFEFF"/>
</linearGradient>
<linearGradient id="paint56_linear_1573_1639" x1="126.876" y1="98.264" x2="110.657" y2="98.264" gradientUnits="userSpaceOnUse">
<stop stop-color="#F7ABC5"/>
<stop offset="1" stop-color="#F16D9A"/>
</linearGradient>
<linearGradient id="paint57_linear_1573_1639" x1="89.5084" y1="102.619" x2="118.096" y2="102.619" gradientUnits="userSpaceOnUse">
<stop stop-color="#D8F29D"/>
<stop offset="0.9939" stop-color="#78DF12"/>
</linearGradient>
<linearGradient id="paint58_linear_1573_1639" x1="90.7847" y1="43.1982" x2="93.4013" y2="43.5379" gradientUnits="userSpaceOnUse">
<stop stop-color="#FFF4DE"/>
<stop offset="1" stop-color="#FFC985"/>
</linearGradient>
<linearGradient id="paint59_linear_1573_1639" x1="85.1893" y1="38.6647" x2="92.1152" y2="39.5643" gradientUnits="userSpaceOnUse">
<stop stop-color="#F7ABC5"/>
<stop offset="1" stop-color="#F16D9A"/>
</linearGradient>
<linearGradient id="paint60_linear_1573_1639" x1="84.3359" y1="32.5374" x2="86.6401" y2="32.5374" gradientUnits="userSpaceOnUse">
<stop stop-color="#FFF4DE"/>
<stop offset="1" stop-color="#FFC985"/>
</linearGradient>
<linearGradient id="paint61_linear_1573_1639" x1="84.5816" y1="29.6849" x2="89.1715" y2="30.3426" gradientUnits="userSpaceOnUse">
<stop stop-color="#FFF4DE"/>
<stop offset="1" stop-color="#FFC985"/>
</linearGradient>
<linearGradient id="paint62_linear_1573_1639" x1="83.9115" y1="33.8372" x2="83.9115" y2="46.8528" gradientUnits="userSpaceOnUse">
<stop stop-color="#F7ABC5"/>
<stop offset="1" stop-color="#F16D9A"/>
</linearGradient>
<linearGradient id="paint63_linear_1573_1639" x1="83.0743" y1="46.7376" x2="93.4589" y2="46.7376" gradientUnits="userSpaceOnUse">
<stop stop-color="#006CFF"/>
<stop offset="0.3081" stop-color="#3296FF"/>
<stop offset="1" stop-color="#AEFEFF"/>
</linearGradient>
<linearGradient id="paint64_linear_1573_1639" x1="84.3243" y1="44.7133" x2="87.1648" y2="44.7133" gradientUnits="userSpaceOnUse">
<stop stop-color="#FFF4DE"/>
<stop offset="1" stop-color="#FFC985"/>
</linearGradient>
<linearGradient id="paint65_linear_1573_1639" x1="83.1889" y1="33.242" x2="83.1889" y2="41.0789" gradientUnits="userSpaceOnUse">
<stop stop-color="#F7ABC5"/>
<stop offset="1" stop-color="#F16D9A"/>
</linearGradient>
<linearGradient id="paint66_linear_1573_1639" x1="80.2072" y1="31.2568" x2="89.1125" y2="31.2568" gradientUnits="userSpaceOnUse">
<stop stop-color="#231F20"/>
<stop offset="1" stop-color="#58595B"/>
</linearGradient>
<radialGradient id="paint67_radial_1573_1639" cx="0" cy="0" r="1" gradientUnits="userSpaceOnUse" gradientTransform="translate(78.4299 136.388) scale(12.051 0.980133)">
<stop offset="0.2452" stop-color="#97AEAE"/>
<stop offset="0.3707" stop-color="#9DB2B2" stop-opacity="0.8336"/>
<stop offset="0.5337" stop-color="#ADBFBF" stop-opacity="0.6175"/>
<stop offset="0.7174" stop-color="#C8D4D4" stop-opacity="0.3739"/>
<stop offset="0.9149" stop-color="#EDF1F1" stop-opacity="0.1121"/>
<stop offset="0.9995" stop-color="white" stop-opacity="0"/>
</radialGradient>
<linearGradient id="paint68_linear_1573_1639" x1="74.5548" y1="110.015" x2="76.8233" y2="110.015" gradientUnits="userSpaceOnUse">
<stop stop-color="#FFF4DE"/>
<stop offset="1" stop-color="#FFC985"/>
</linearGradient>
<linearGradient id="paint69_linear_1573_1639" x1="72.7812" y1="103.391" x2="76.112" y2="103.391" gradientUnits="userSpaceOnUse">
<stop stop-color="#D0E3FF"/>
<stop offset="0.5257" stop-color="#ADCCFF"/>
<stop offset="0.9997" stop-color="#91BAFF"/>
</linearGradient>
<linearGradient id="paint70_linear_1573_1639" x1="75.0937" y1="133.132" x2="76.2225" y2="133.132" gradientUnits="userSpaceOnUse">
<stop stop-color="#FFF4DE"/>
<stop offset="1" stop-color="#FFC985"/>
</linearGradient>
<linearGradient id="paint71_linear_1573_1639" x1="74.6607" y1="134.286" x2="77.3256" y2="134.286" gradientUnits="userSpaceOnUse">
<stop stop-color="#231F20"/>
<stop offset="1" stop-color="#58595B"/>
</linearGradient>
<linearGradient id="paint72_linear_1573_1639" x1="79.1759" y1="133.183" x2="80.304" y2="133.183" gradientUnits="userSpaceOnUse">
<stop stop-color="#FFF4DE"/>
<stop offset="1" stop-color="#FFC985"/>
</linearGradient>
<linearGradient id="paint73_linear_1573_1639" x1="78.7423" y1="134.337" x2="81.4076" y2="134.337" gradientUnits="userSpaceOnUse">
<stop stop-color="#231F20"/>
<stop offset="1" stop-color="#58595B"/>
</linearGradient>
<linearGradient id="paint74_linear_1573_1639" x1="74.6918" y1="120.283" x2="82.1753" y2="120.283" gradientUnits="userSpaceOnUse">
<stop stop-color="#F7ABC5"/>
<stop offset="1" stop-color="#F16D9A"/>
</linearGradient>
<linearGradient id="paint75_linear_1573_1639" x1="88.8789" y1="97.309" x2="91.4426" y2="97.309" gradientUnits="userSpaceOnUse">
<stop stop-color="#FFF4DE"/>
<stop offset="1" stop-color="#FFC985"/>
</linearGradient>
<linearGradient id="paint76_linear_1573_1639" x1="75.2929" y1="102.317" x2="90.3159" y2="102.317" gradientUnits="userSpaceOnUse">
<stop stop-color="#D0E3FF"/>
<stop offset="0.5257" stop-color="#ADCCFF"/>
<stop offset="0.9997" stop-color="#91BAFF"/>
</linearGradient>
<linearGradient id="paint77_linear_1573_1639" x1="78.8983" y1="95.4364" x2="81.4997" y2="95.4364" gradientUnits="userSpaceOnUse">
<stop stop-color="#FFF4DE"/>
<stop offset="1" stop-color="#FFC985"/>
</linearGradient>
<linearGradient id="paint78_linear_1573_1639" x1="77.629" y1="92.3285" x2="82.1667" y2="92.3285" gradientUnits="userSpaceOnUse">
<stop stop-color="#FFF4DE"/>
<stop offset="1" stop-color="#FFC985"/>
</linearGradient>
<linearGradient id="paint79_linear_1573_1639" x1="75.4765" y1="94.409" x2="82.1467" y2="94.409" gradientUnits="userSpaceOnUse">
<stop stop-color="#231F20"/>
<stop offset="1" stop-color="#58595B"/>
</linearGradient>
<radialGradient id="paint80_radial_1573_1639" cx="0" cy="0" r="1" gradientUnits="userSpaceOnUse" gradientTransform="translate(182.121 136.169) scale(12.0509 0.98013)">
<stop offset="0.2452" stop-color="#97AEAE"/>
<stop offset="0.3707" stop-color="#9DB2B2" stop-opacity="0.8336"/>
<stop offset="0.5337" stop-color="#ADBFBF" stop-opacity="0.6175"/>
<stop offset="0.7174" stop-color="#C8D4D4" stop-opacity="0.3739"/>
<stop offset="0.9149" stop-color="#EDF1F1" stop-opacity="0.1121"/>
<stop offset="0.9995" stop-color="white" stop-opacity="0"/>
</radialGradient>
<linearGradient id="paint81_linear_1573_1639" x1="173.207" y1="102.683" x2="182.05" y2="102.683" gradientUnits="userSpaceOnUse">
<stop stop-color="#00E8DE"/>
<stop offset="1" stop-color="#00B6CB"/>
</linearGradient>
<linearGradient id="paint82_linear_1573_1639" x1="171.836" y1="104.181" x2="173.609" y2="104.181" gradientUnits="userSpaceOnUse">
<stop stop-color="#FFF4DE"/>
<stop offset="1" stop-color="#FFC985"/>
</linearGradient>
<linearGradient id="paint83_linear_1573_1639" x1="177.512" y1="133.834" x2="180.296" y2="133.834" gradientUnits="userSpaceOnUse">
<stop stop-color="#FFF4DE"/>
<stop offset="1" stop-color="#FFC985"/>
</linearGradient>
<linearGradient id="paint84_linear_1573_1639" x1="174.387" y1="135.357" x2="179.561" y2="135.357" gradientUnits="userSpaceOnUse">
<stop stop-color="#58595B"/>
<stop offset="1" stop-color="#00B6CB"/>
</linearGradient>
<linearGradient id="paint85_linear_1573_1639" x1="177.91" y1="121.486" x2="185.597" y2="121.486" gradientUnits="userSpaceOnUse">
<stop stop-color="#084872"/>
<stop offset="1" stop-color="#1C94BE"/>
</linearGradient>
<linearGradient id="paint86_linear_1573_1639" x1="185.852" y1="133.445" x2="188.057" y2="133.445" gradientUnits="userSpaceOnUse">
<stop stop-color="#FFF4DE"/>
<stop offset="1" stop-color="#FFC985"/>
</linearGradient>
<linearGradient id="paint87_linear_1573_1639" x1="183.804" y1="135.651" x2="188.6" y2="135.651" gradientUnits="userSpaceOnUse">
<stop stop-color="#58595B"/>
<stop offset="1" stop-color="#00B6CB"/>
</linearGradient>
<linearGradient id="paint88_linear_1573_1639" x1="182.418" y1="121.245" x2="187.875" y2="121.245" gradientUnits="userSpaceOnUse">
<stop stop-color="#084872"/>
<stop offset="1" stop-color="#1C94BE"/>
</linearGradient>
<linearGradient id="paint89_linear_1573_1639" x1="182.828" y1="95.7196" x2="185.089" y2="95.7196" gradientUnits="userSpaceOnUse">
<stop stop-color="#FFF4DE"/>
<stop offset="1" stop-color="#FFC985"/>
</linearGradient>
<linearGradient id="paint90_linear_1573_1639" x1="180.717" y1="93.0226" x2="184.748" y2="93.0226" gradientUnits="userSpaceOnUse">
<stop stop-color="#FFF4DE"/>
<stop offset="1" stop-color="#FFC985"/>
</linearGradient>
<linearGradient id="paint91_linear_1573_1639" x1="180.59" y1="91.0619" x2="186.574" y2="91.0619" gradientUnits="userSpaceOnUse">
<stop stop-color="#231F20"/>
<stop offset="1" stop-color="#58595B"/>
</linearGradient>
<linearGradient id="paint92_linear_1573_1639" x1="180.871" y1="92.6882" x2="184.719" y2="92.4596" gradientUnits="userSpaceOnUse">
<stop stop-color="#FFF4DE"/>
<stop offset="1" stop-color="#FFC985"/>
</linearGradient>
<linearGradient id="paint93_linear_1573_1639" x1="180.457" y1="103.519" x2="188.074" y2="103.519" gradientUnits="userSpaceOnUse">
<stop stop-color="#00E8DE"/>
<stop offset="1" stop-color="#00B6CB"/>
</linearGradient>
<linearGradient id="paint94_linear_1573_1639" x1="183.891" y1="105.446" x2="188.995" y2="105.446" gradientUnits="userSpaceOnUse">
<stop stop-color="#00E8DE"/>
<stop offset="1" stop-color="#00B6CB"/>
</linearGradient>
<linearGradient id="paint95_linear_1573_1639" x1="187.102" y1="114.334" x2="189.019" y2="114.334" gradientUnits="userSpaceOnUse">
<stop stop-color="#FFF4DE"/>
<stop offset="1" stop-color="#FFC985"/>
</linearGradient>
<linearGradient id="paint96_linear_1573_1639" x1="179.399" y1="85.1213" x2="166.25" y2="85.1213" gradientUnits="userSpaceOnUse">
<stop stop-color="white" stop-opacity="0"/>
<stop offset="0.9961" stop-color="white" stop-opacity="0.7"/>
</linearGradient>
<linearGradient id="paint97_linear_1573_1639" x1="173.051" y1="102.311" x2="171.914" y2="102.311" gradientUnits="userSpaceOnUse">
<stop stop-color="#FFD800"/>
<stop offset="0.5516" stop-color="#FFB100"/>
<stop offset="1" stop-color="#FF9500"/>
</linearGradient>
<linearGradient id="paint98_linear_1573_1639" x1="176.746" y1="93.489" x2="171.974" y2="93.489" gradientUnits="userSpaceOnUse">
<stop stop-color="#D0E3FF"/>
<stop offset="0.5257" stop-color="#ADCCFF"/>
<stop offset="0.9997" stop-color="#91BAFF"/>
</linearGradient>
<linearGradient id="paint99_linear_1573_1639" x1="181.11" y1="85.1233" x2="164.66" y2="85.1233" gradientUnits="userSpaceOnUse">
<stop stop-color="#D0E3FF"/>
<stop offset="0.5257" stop-color="#ADCCFF"/>
<stop offset="0.9997" stop-color="#91BAFF"/>
</linearGradient>
<linearGradient id="paint100_linear_1573_1639" x1="171.348" y1="103.005" x2="173.053" y2="104.391" gradientUnits="userSpaceOnUse">
<stop stop-color="#FFF4DE"/>
<stop offset="1" stop-color="#FFC985"/>
</linearGradient>
<linearGradient id="paint101_linear_1573_1639" x1="129.066" y1="34.9588" x2="144.41" y2="34.9588" gradientUnits="userSpaceOnUse">
<stop stop-color="#F7ABC5"/>
<stop offset="1" stop-color="#F16D9A"/>
</linearGradient>
<linearGradient id="paint102_linear_1573_1639" x1="168.996" y1="67.5918" x2="195.881" y2="67.5918" gradientUnits="userSpaceOnUse">
<stop stop-color="#D8F29D"/>
<stop offset="0.9939" stop-color="#78DF12"/>
</linearGradient>
<linearGradient id="paint103_linear_1573_1639" x1="39.4918" y1="79.4399" x2="68.9015" y2="79.4399" gradientUnits="userSpaceOnUse">
<stop stop-color="#FFD800"/>
<stop offset="0.5516" stop-color="#FFB100"/>
<stop offset="1" stop-color="#FF9500"/>
</linearGradient>
<linearGradient id="paint104_linear_1573_1639" x1="45.7817" y1="109.911" x2="57.6732" y2="109.911" gradientUnits="userSpaceOnUse">
<stop stop-color="#00E8DE"/>
<stop offset="1" stop-color="#00B6CB"/>
</linearGradient>
</defs>
</svg>
