<svg width="150" height="149" viewBox="0 0 150 149" fill="none" xmlns="http://www.w3.org/2000/svg">
<path d="M141.267 79.2343C141.267 105.903 120.908 127.521 95.7954 127.521C70.6825 127.521 50.3242 105.903 50.3242 79.2343C50.3242 52.5662 70.6824 30.9473 95.7954 30.9473C120.908 30.9473 141.267 52.5662 141.267 79.2343Z" fill="#F2FF8E"/>
<path d="M57.6068 78.5205C57.6068 93.7088 46.0121 106.021 31.7094 106.021C17.407 106.021 5.8125 93.7088 5.8125 78.5205C5.8125 63.3318 17.4071 51.0195 31.7094 51.0195C46.0121 51.0195 57.6068 63.3318 57.6068 78.5205Z" fill="#FFD9F8"/>
<path d="M87.6806 23.9353C87.6806 36.5963 78.0152 46.8604 66.0921 46.8604C54.1693 46.8604 44.5039 36.5963 44.5039 23.9353C44.5039 11.2739 54.1693 1.00977 66.0921 1.00977C78.0152 1.00977 87.6806 11.2739 87.6806 23.9353Z" fill="#88FF7F"/>
<path d="M136.895 121.982C136.895 131.946 129.289 140.023 119.906 140.023C110.524 140.023 102.918 131.946 102.918 121.982C102.918 112.019 110.524 103.941 119.906 103.941C129.289 103.941 136.895 112.019 136.895 121.982Z" fill="#FFC59D"/>
<path d="M39.9267 43.4716C41.1632 45.951 45.9689 71.1093 47.0449 72.4038C47.7875 73.2981 54.8147 77.4254 59.0935 79.8949L61.3146 77.9103L53.718 68.582L50.6794 66.4845C50.6794 66.4845 45.6657 48.5898 45.1336 46.5105C44.6019 44.4313 46.361 42.4324 46.4413 39.9531C46.5208 37.4744 45.5458 36.9145 45.0339 37.7942C44.522 38.674 44.8425 40.1932 43.9624 40.8332C43.0826 41.4727 41.5358 33.5562 40.4698 33.1561C39.4042 32.7565 40.4698 38.4342 40.4698 38.4342C40.4698 38.4342 37.0639 32.6361 35.9949 33.136C34.9259 33.6362 37.794 38.834 37.794 38.834C37.794 38.834 33.4712 35.2354 32.8789 36.1148C32.8789 36.1148 38.6898 40.9927 39.9267 43.4716Z" fill="#EFBBA5"/>
<path d="M47.0473 72.4043C45.9714 71.1097 41.1657 45.951 39.9292 43.4721C38.6926 40.9931 32.8817 36.1152 32.8817 36.1152C32.2895 36.9946 36.8118 41.0735 36.8118 41.0735C36.8118 41.0735 33.4469 39.0738 32.8283 39.8736C32.21 40.6733 37.4073 45.7112 38.2871 46.7509C39.1668 47.7905 41.3564 68.7648 42.3557 72.7021C43.355 76.6394 55.16 83.4118 55.16 83.4118L59.0959 79.8954C54.8171 77.4256 47.7899 73.2983 47.0473 72.4043Z" fill="#C99583"/>
<path d="M65.5166 115.76C65.3978 115.44 70.1936 91.69 68.3542 88.3625C67.2137 86.2994 58.8601 81.7107 52.6756 78.5215L50.2656 85.5344L64.5475 92.9636L60.9181 120.335L63.4037 120.402C64.546 118.067 65.5702 115.904 65.5166 115.76Z" fill="#D1B386"/>
<path d="M99.2214 78.7373C97.2221 76.8978 86.764 77.5044 86.764 77.5044L80.1115 76.9701L76.7836 79.1L73.8888 78.1924C73.8888 78.1924 70.5426 78.02 70.0482 77.8587C69.6632 77.7333 59.9641 72.1707 55.7004 69.7207L52.6758 78.5232C58.8603 81.7124 67.214 86.3011 68.3544 88.3641C70.1938 91.6917 65.398 115.442 65.5168 115.762C65.5703 115.905 64.5461 118.069 63.4038 120.404L95.7937 121.279L96.2356 98.8888L111.529 97.6892C111.529 97.6891 101.22 80.5767 99.2214 78.7373Z" fill="#F9E0B7"/>
<path d="M53.7184 68.584L47.8008 84.2564L50.2636 85.5377L55.6982 69.7223C54.4903 69.0285 53.7184 68.584 53.7184 68.584Z" fill="#001743"/>
<path d="M74.9355 69.1205L76.7871 77.8569L73.8923 78.1902C73.8923 78.1902 72.94 83.3223 80.7248 82.3479C88.5093 81.3743 88.3494 77.771 88.3494 77.771L85.9848 77.3695L84.511 65.1855L74.9355 69.1205Z" fill="#C99583"/>
<path d="M69.8725 66.6645L69.4805 58.4459L69.8725 57.0336L84.3843 55.4648L86.762 59.4392L85.0044 69.358C85.0044 69.358 70.8923 70.2117 70.8138 69.9762C70.7354 69.7412 69.8725 66.6645 69.8725 66.6645Z" fill="black"/>
<path d="M84.2295 58.9981L83.8375 62.685L82.0333 62.7635L81.4058 58.4492H79.2852C79.7527 63.4552 80.2962 70.0497 80.3871 74.5114C82.4073 73.507 84.1866 72.2741 84.6219 71.5487C85.3279 70.372 84.9358 64.3319 84.9358 64.3319C84.9358 64.3319 87.2105 65.1948 87.3675 61.5868C87.5241 57.9783 84.2295 58.9981 84.2295 58.9981Z" fill="#C99583"/>
<path d="M69.4815 58.4492C69.4815 58.4492 69.403 68.6463 69.8734 70.6856C70.3443 72.7252 73.532 76.6471 76.6054 75.9413C77.783 75.671 79.1306 75.1353 80.3859 74.5115C80.2949 70.0498 79.7511 63.4552 79.2835 58.4493L69.4815 58.4492Z" fill="#EFBBA5"/>
<path d="M76.7413 107.286C73.9576 104.301 66.9436 105.687 66.9436 105.687C66.9436 105.687 60.7595 91.9327 58.8064 90.3335C55.8115 87.8813 47.8587 88.4141 47.8587 88.4141C47.8587 88.4141 40.6082 89.3734 35.3841 91.2663C30.1596 93.1593 28.2402 94.1714 28.2402 94.1714L24.082 100.462L26.0011 111.284L29.6927 111.331C30.0748 106.089 30.8692 95.1454 30.8453 95.1204C30.8145 95.0885 40.917 102.008 41.7623 107.366C41.9196 108.365 42.1067 109.806 42.3069 111.492L58.0962 111.692L54.7353 95.1204L62.3662 111.747L63.7446 111.764H79.1941C79.1939 111.764 79.5249 110.271 76.7413 107.286Z" fill="#EA7B50"/>
<path d="M58.7139 114.747H63.7422L62.3641 111.744L58.0938 111.689L58.7139 114.747Z" fill="#C15A3A"/>
<path d="M58.0953 111.693L62.3656 111.747L54.7344 95.1211L58.0953 111.693Z" fill="#C15A3A"/>
<path d="M30.844 95.1212C30.8675 95.1458 30.0732 106.089 29.6914 111.332L42.3051 111.493C42.1049 109.807 41.9183 108.366 41.7609 107.367C40.9153 102.009 30.8132 95.0893 30.844 95.1212Z" fill="#C15A3A"/>
<path d="M89.1866 116.746H87.1473L85.5481 118.345L80.7227 126.582V141.935L86.6417 143.292H95.1442L89.1866 116.746Z" fill="#383733"/>
<path d="M77.2734 111.23H81.1121L82.0007 111.771C82.5907 112.131 82.9512 112.772 82.9512 113.463V141.397C82.9512 142.49 82.0644 143.377 80.971 143.377H77.5936L77.2734 111.23Z" fill="#00104A"/>
<path d="M74.567 143.377H34.7634C31.3644 143.377 28.6094 140.621 28.6094 137.223V117.384C28.6094 113.986 31.3645 111.23 34.7634 111.23H74.5671C77.9657 111.23 80.7212 113.986 80.7212 117.384V137.223C80.7212 140.621 77.9657 143.377 74.567 143.377Z" fill="black"/>
<path d="M61.9015 145.082H47.0858C46.2013 145.082 45.4844 144.366 45.4844 143.481V143.377H63.5029V143.481C63.5029 144.366 62.786 145.082 61.9015 145.082Z" fill="#00104A"/>
<path d="M112.268 116.748H92.8881C89.8928 116.748 87.4648 114.32 87.4648 111.325V95.7029C87.4648 92.7076 89.8928 90.2793 92.8881 90.2793H112.268C115.264 90.2793 117.692 92.7076 117.692 95.7029V111.325C117.692 114.32 115.264 116.748 112.268 116.748Z" fill="black"/>
<path d="M112.268 116.748H92.8881C89.8928 116.748 87.4648 114.32 87.4648 111.325V95.7029C87.4648 92.7076 89.8928 90.2793 92.8881 90.2793H112.268C115.264 90.2793 117.692 92.7076 117.692 95.7029V111.325C117.692 114.32 115.264 116.748 112.268 116.748Z" stroke="#00104A" stroke-width="0.093125" stroke-miterlimit="10"/>
<path d="M114.133 93.3965H91.0234V113.633H114.133V93.3965Z" fill="#EBFF78"/>
<path d="M114.133 93.3965H91.0234V113.633H114.133V93.3965Z" stroke="#00104A" stroke-width="0.093125" stroke-miterlimit="10"/>
<path d="M115.641 89.4962C115.641 91.3998 114.01 92.9432 111.998 92.9432C109.986 92.9432 108.355 91.3998 108.355 89.4962C108.355 87.5923 109.986 86.0488 111.998 86.0488C114.01 86.0488 115.641 87.5923 115.641 89.4962Z" fill="black"/>
<path d="M108.842 66.7188L108.246 66.8027L111.22 87.9101L111.816 87.8262L108.842 66.7188Z" fill="black"/>
<path d="M115.076 67.2704L112 88.3633L112.596 88.4502L115.672 67.3573L115.076 67.2704Z" fill="black"/>
<path d="M109.599 66.483C109.599 67.1992 109.074 67.78 108.427 67.78C107.779 67.78 107.254 67.1991 107.254 66.483C107.254 65.7665 107.779 65.1855 108.427 65.1855C109.074 65.1855 109.599 65.7665 109.599 66.483Z" fill="black"/>
<path d="M116.704 66.9451C116.704 67.6418 116.21 68.2065 115.602 68.2065C114.993 68.2065 114.5 67.6418 114.5 66.9451C114.5 66.2483 114.993 65.6836 115.602 65.6836C116.21 65.6836 116.704 66.2483 116.704 66.9451Z" fill="black"/>
<path d="M115.207 143.375H90.5924C87.8058 143.375 85.5469 141.116 85.5469 138.329V121.791C85.5469 119.005 87.8058 116.746 90.5924 116.746H115.207C117.994 116.746 120.253 119.005 120.253 121.791V138.329C120.253 141.116 117.994 143.375 115.207 143.375Z" fill="black"/>
<path d="M32.0056 112.668C30.9282 112.668 30.0547 113.542 30.0547 114.619V139.985C30.0547 141.062 30.9282 141.936 32.0056 141.936H38.6019C43.5594 134.988 54.2658 119.857 59.3499 112.668L32.0056 112.668Z" fill="white"/>
<path d="M78.9502 118.826L61.7266 141.936H65.5147L78.9502 123.798V118.826Z" fill="#D8D6D2"/>
<path d="M65.5156 141.937H76.9998C78.0775 141.937 78.951 141.063 78.951 139.986V123.799L65.5156 141.937Z" fill="white"/>
<path d="M59.3534 112.668C54.269 119.857 43.5626 134.988 38.6055 141.936H40.765L62.1562 112.668H59.3534Z" fill="#D8D6D2"/>
<path d="M77 112.668H70.0472L47 141.936H58.4728L78.8542 114.014C78.5989 113.233 77.8658 112.668 77 112.668Z" fill="#D8D6D2"/>
<path d="M78.9508 114.619C78.9508 114.407 78.916 114.204 78.8536 114.014L58.4727 141.935H61.7272L78.9507 118.826L78.9508 114.619Z" fill="white"/>
<path d="M62.153 112.668L40.7617 141.936H47.0009L70.0479 112.668H62.153Z" fill="white"/>
<path d="M89.1969 118.453C88.3135 118.453 87.5977 119.169 87.5977 120.052V136.593L103.431 118.453H89.1969Z" fill="#7A7977"/>
<path d="M104.875 141.937H116.6C117.483 141.937 118.199 141.221 118.199 140.338V128.529L104.875 141.937Z" fill="#7A7977"/>
<path d="M118.205 120.336L97.0352 141.936H104.88L118.205 128.528V120.336Z" fill="#605F5D"/>
<path d="M103.431 118.453L87.5977 136.593V140.337C87.5977 140.558 87.6424 140.769 87.7238 140.961L107.759 118.453H103.431Z" fill="#605F5D"/>
<path d="M118.204 120.052C118.204 119.169 117.488 118.453 116.605 118.453H115.485L94.4727 141.936H97.0345L118.204 120.336V120.052Z" fill="#7A7977"/>
<path d="M109.361 118.453L88.4688 141.762C88.6869 141.873 88.9326 141.936 89.1941 141.936H90.3808L111.182 118.453L109.361 118.453Z" fill="#605F5D"/>
<path d="M114.786 118.453L93.4492 141.936H94.4698L115.482 118.453H114.786Z" fill="#605F5D"/>
<path d="M107.758 118.453L87.7227 140.961C87.8697 141.307 88.1367 141.591 88.4707 141.762L109.363 118.453H107.758Z" fill="#7A7977"/>
<path d="M111.184 118.453L90.3828 141.936H93.4515L114.788 118.453H111.184Z" fill="#7A7977"/>
<path d="M114.133 102.191H91.0234V105.63H114.133V102.191Z" fill="#0003CA"/>
<path d="M104.698 105.633H100.469V113.632H104.698V105.633Z" fill="#FF311E"/>
<path d="M96.2343 105.633H91.0234V113.632H96.2343V105.633Z" fill="#FFED43"/>
<path d="M100.464 105.633H96.2344V113.632H100.464V105.633Z" fill="#0039CA"/>
<path d="M108.925 105.633H104.695V113.632H108.925V105.633Z" fill="white"/>
<path d="M114.133 105.633H108.922V113.632H114.133V105.633Z" fill="#3CFF34"/>
<path d="M49.143 120.867C49.8937 119.969 50.6527 119.052 51.6281 118.405C52.6035 117.758 53.8471 117.409 54.9619 117.765C56.0771 118.121 56.944 119.324 56.6675 120.462C56.5396 120.988 56.2179 121.614 56.596 122.002C56.7379 122.148 56.9451 122.207 57.1431 122.255C58.4061 122.565 59.7067 122.698 60.9701 123.004C62.899 123.471 64.7285 124.343 66.3057 125.548C66.7721 125.904 67.2415 126.327 67.382 126.897C67.5727 127.669 67.089 128.463 66.4697 128.961C65.8499 129.459 65.0949 129.758 64.4395 130.208C63.7842 130.657 63.1989 131.343 63.2118 132.138C63.2202 132.647 63.4718 133.118 63.5609 133.619C63.7252 134.542 63.3156 135.494 62.6951 136.197C62.0746 136.9 61.2609 137.399 60.4608 137.888C58.4512 139.115 56.4421 140.342 54.4328 141.568C53.9293 141.876 53.4137 142.188 52.838 142.315C51.7804 142.549 50.6828 142.124 49.768 141.544C48.853 140.964 48.0412 140.224 47.0836 139.717C45.2989 138.774 43.1745 138.728 41.1671 138.946C39.7183 139.104 37.2228 139.758 35.9951 138.647C34.9954 137.743 35.6573 136.284 36.3336 135.407C38.8283 132.175 41.8862 129.272 44.5783 126.196C46.1188 124.436 47.6432 122.662 49.143 120.867Z" fill="#8E0042"/>
<path d="M49.143 120.867C49.8937 119.969 50.6527 119.052 51.6281 118.405C52.6035 117.758 53.8471 117.409 54.9619 117.765C56.0771 118.121 56.944 119.324 56.6675 120.462C56.5396 120.988 56.2179 121.614 56.596 122.002C56.7379 122.148 56.9451 122.207 57.1431 122.255C58.4061 122.565 59.7067 122.698 60.9701 123.004C62.899 123.471 64.7285 124.343 66.3057 125.548C66.7721 125.904 67.2415 126.327 67.382 126.897C67.5727 127.669 67.089 128.463 66.4697 128.961C65.8499 129.459 65.0949 129.758 64.4395 130.208C63.7842 130.657 63.1989 131.343 63.2118 132.138C63.2202 132.647 63.4718 133.118 63.5609 133.619C63.7252 134.542 63.3156 135.494 62.6951 136.197C62.0746 136.9 61.2609 137.399 60.4608 137.888C58.4512 139.115 56.4421 140.342 54.4328 141.568C53.9293 141.876 53.4137 142.188 52.838 142.315C51.7804 142.549 50.6828 142.124 49.768 141.544C48.853 140.964 48.0412 140.224 47.0836 139.717C45.2989 138.774 43.1745 138.728 41.1671 138.946C39.7183 139.104 37.2228 139.758 35.9951 138.647C34.9954 137.743 35.6573 136.284 36.3336 135.407C38.8283 132.175 41.8862 129.272 44.5783 126.196C46.1188 124.436 47.6432 122.662 49.143 120.867Z" stroke="black" stroke-width="0.0465625" stroke-miterlimit="10"/>
<path d="M35.3828 89.5846C35.3828 89.5846 35.7026 92.7299 37.6751 94.7024C39.6476 96.6749 43.8592 96.4615 44.7119 94.1692C45.5652 91.8769 43.8593 87.7188 43.8593 87.7188" fill="#C99583"/>
<path d="M38.7804 88.0318L35.838 91.6391C35.838 91.6391 31.5838 95.0066 27.6651 89.8353C23.7469 84.6643 22.1476 77.9473 25.346 75.5483C25.346 75.5483 25.0262 70.6616 33.3429 68.4668C41.6595 66.2721 43.9631 76.588 44.8102 78.5069C45.6572 80.4263 44.618 84.9045 44.3782 85.064C44.1381 85.2243 38.7804 88.0318 38.7804 88.0318Z" fill="black"/>
<path d="M34.8537 80.3969C33.6997 81.3202 32.4606 80.0804 31.9058 80.2652C31.1863 80.505 35.1845 85.2231 35.1845 85.2231L33.2652 86.2627L31.2663 83.666C31.2663 83.666 27.1882 82.8241 29.0272 86.5824C30.8662 90.3408 33.5055 88.9814 33.5055 88.9814C33.5055 88.9814 36.5375 94.5832 41.7633 92.3977C39.1432 89.7886 36.555 84.4174 34.8537 80.3969Z" fill="#C99583"/>
<path d="M42.2194 74.4258C42.2194 74.4258 43.1948 76.2989 40.8656 76.8248C38.5362 77.3503 37.1816 75.6252 35.8384 78.9036C35.5304 79.6549 35.1948 80.12 34.8516 80.3946C36.5528 84.4152 39.141 89.7868 41.7611 92.3956C42.2917 92.1734 42.8443 91.8723 43.419 91.4762C49.6563 87.1759 42.2194 74.4258 42.2194 74.4258Z" fill="#EFBBA5"/>
<path d="M52.7617 132.856C52.7617 132.856 59.3724 135.207 59.5858 133.555C59.7989 131.902 53.1886 130.096 53.1886 130.096C53.1886 130.096 58.2532 130.25 58.5198 129.29C58.7861 128.331 58.1997 127.744 54.5748 127.511C50.9495 127.279 48.4669 125.59 48.4669 125.59C49.9286 124.769 51.6957 123.266 50.845 122.231C49.9942 121.197 46.6847 123.693 45.2699 124.172C43.8548 124.652 40.554 124.172 40.554 124.172L39.6262 125.563L39.0938 126.362C42.8606 128.843 49.0969 132.575 55.4713 134.761C54.2904 133.758 52.7617 132.856 52.7617 132.856Z" fill="#EFBBA5"/>
<path d="M55.4756 134.762C49.1011 132.576 42.8649 128.844 39.098 126.363L36.875 129.696C36.875 129.696 42.0507 129.185 43.277 131.477C44.5032 133.769 47.7017 135.049 48.1813 135.422C48.6614 135.795 50.3137 139.367 51.5935 138.834C52.8726 138.301 50.9309 134.742 50.9309 134.742C50.9309 134.742 56.0179 138.087 56.7466 136.861C57.0601 136.334 56.3671 135.519 55.4756 134.762Z" fill="#C99583"/>
<path d="M53.1928 130.095C53.1928 130.095 58.2574 130.25 58.524 129.29C58.7903 128.331 58.2039 127.744 54.579 127.511C50.9537 127.278 48.4711 125.59 48.4711 125.59C49.9328 124.769 51.6999 123.266 50.8492 122.231C49.9985 121.196 46.689 123.693 45.2741 124.172C43.859 124.652 40.5583 124.172 40.5583 124.172L39.6305 125.564L39.098 126.362L36.875 129.695C36.875 129.695 42.0507 129.184 43.277 131.476C44.5032 133.768 47.7016 135.048 48.1813 135.421C48.6613 135.794 50.3137 139.366 51.5935 138.833C52.8726 138.3 50.9312 134.741 50.9312 134.741C50.9312 134.741 56.0181 138.086 56.7465 136.86C57.06 136.333 56.3669 135.518 55.4755 134.761C54.2947 133.758 52.7659 132.856 52.7659 132.856C52.7659 132.856 59.3766 135.207 59.5901 133.555C59.803 131.902 53.1928 130.095 53.1928 130.095Z" stroke="black" stroke-width="0.0465625" stroke-miterlimit="10"/>
<path d="M22.3717 120.389C28.198 124.246 37.9792 127.97 44.3647 130.181C45.471 128.697 46.185 126.822 45.7219 124.894C44.9225 121.568 42.2033 120.479 39.7512 118.88C37.299 117.28 28.545 112.722 28.545 112.722C28.545 112.722 31.4397 111.29 32.9275 109.684C34.9533 107.497 33.354 93.1036 28.2362 94.1696C26.3096 94.5712 17.8306 101.429 13.9688 108.367C14.7567 111.756 16.8458 116.731 22.3717 120.389Z" fill="#EA7B50"/>
<path d="M22.375 120.389C28.2013 124.246 37.9825 127.97 44.368 130.181C45.4743 128.697 46.1883 126.822 45.7252 124.894C44.9258 121.568 42.2066 120.479 39.7545 118.88C37.3023 117.28 28.5483 112.722 28.5483 112.722C28.5483 112.722 31.443 111.29 32.9308 109.684C34.9566 107.497 33.3573 93.1036 28.2395 94.1696" stroke="black" stroke-width="0.0465625" stroke-miterlimit="10"/>
<path d="M22.372 120.391C16.8461 116.733 14.7569 111.758 13.9689 108.369C13.1519 109.837 12.5409 111.308 12.2432 112.723C10.5373 120.827 26.6655 128.001 29.5156 129.757C33.5391 132.235 38.7614 133.947 41.0005 132.988C42.0599 132.533 43.3709 131.516 44.365 130.183" fill="#C15A3A"/>
<path d="M77.5799 110.578C77.5799 110.578 76.6587 108.045 73.8684 107.801C71.0781 107.557 68.2102 108.749 67.6799 110.578C67.1504 112.406 66.9333 114.222 67.8816 114.357C68.8299 114.492 69.3444 113.219 69.3444 113.219C69.3444 113.219 68.9924 114.614 70.5362 114.784C72.0804 114.953 72.189 113.03 72.189 113.03C72.189 113.03 72.2704 114.798 73.7332 114.794C75.196 114.79 75.3709 112.813 75.3709 112.813C75.3709 112.813 75.6023 114.357 76.9026 113.626C78.203 112.894 77.5799 110.578 77.5799 110.578Z" fill="#EFBBA5"/>
<path d="M77.5799 110.578C77.5799 110.578 76.6587 108.045 73.8684 107.801C71.0781 107.557 68.2102 108.749 67.6799 110.578C67.1504 112.406 66.9333 114.222 67.8816 114.357C68.8299 114.492 69.3444 113.219 69.3444 113.219C69.3444 113.219 68.9924 114.614 70.5362 114.784C72.0804 114.953 72.189 113.03 72.189 113.03C72.189 113.03 72.2704 114.798 73.7332 114.794C75.196 114.79 75.3709 112.813 75.3709 112.813C75.3709 112.813 75.6023 114.357 76.9026 113.626C78.203 112.894 77.5799 110.578 77.5799 110.578Z" stroke="black" stroke-width="0.0465625" stroke-miterlimit="10"/>
<path d="M69.3438 113.218C69.3438 113.218 69.361 109.593 69.7519 108.775" stroke="black" stroke-width="0.0465625" stroke-miterlimit="10"/>
<path d="M72.1641 113.219C72.1641 113.219 72.3569 109.452 72.475 108.244" stroke="black" stroke-width="0.0465625" stroke-miterlimit="10"/>
<path d="M75.3674 112.814C75.3674 112.814 75.2221 109.31 74.8672 108.457" stroke="black" stroke-width="0.0465625" stroke-miterlimit="10"/>
<path d="M54.7344 95.3965L58.0018 111.23" stroke="black" stroke-width="0.0465625" stroke-miterlimit="10"/>
<path d="M62.1562 111.281C62.1562 111.281 62.6443 107.034 66.9447 105.684" stroke="black" stroke-width="0.0465625" stroke-miterlimit="10"/>
<path d="M36 92.0035C36 92.0035 37.3983 96.6196 41.7625 96.0476C46.1263 95.4755 44.7922 91.4568 44.6995 90.4941" stroke="black" stroke-width="0.0465625" stroke-miterlimit="10"/>
<path d="M35.8867 91.7699C35.8867 91.7699 38.2117 93.8869 41.5406 92.4816C44.8696 91.0767 45.1347 89.5469 45.1347 89.5469" stroke="black" stroke-width="0.0465625" stroke-miterlimit="10"/>
<path d="M30.0508 85.4257C30.2803 85.2493 30.5854 85.1873 30.874 85.2188C31.1619 85.25 31.4351 85.3681 31.6822 85.5195C32.3196 85.9105 32.8198 86.5727 32.8822 87.3175" stroke="black" stroke-width="0.0465625" stroke-miterlimit="10"/>
<path d="M30.8828 86.8096C31.0654 86.5702 31.3463 86.4253 31.6305 86.3267C31.7834 86.2735 31.9429 86.2313 32.1047 86.2368C32.2661 86.2423 32.4319 86.3013 32.5378 86.4234" stroke="black" stroke-width="0.0465625" stroke-miterlimit="10"/>
<path d="M35.9351 80.078C36.0825 79.9802 36.2482 79.8939 36.425 79.8965C36.6021 79.8991 36.788 80.018 36.8111 80.1932C36.814 80.2186 36.8137 80.2449 36.8016 80.2669C36.7876 80.2907 36.7616 80.3047 36.7367 80.3171C36.2427 80.5686 35.6938 80.8055 35.4154 81.2849C35.3179 81.4525 35.1859 82.184 34.9963 82.2299C34.6941 82.3025 34.7495 81.7774 34.7902 81.6413C34.9779 81.0102 35.3853 80.4433 35.9351 80.078Z" fill="black"/>
<path d="M40.7525 77.2265C40.6168 77.3117 40.4826 77.436 40.4767 77.5965C40.4749 77.6468 40.4881 77.7004 40.5266 77.733C40.5581 77.7594 40.601 77.7678 40.642 77.77C40.9028 77.7865 41.1342 77.6207 41.3725 77.5148C41.5992 77.4139 41.8477 77.3644 42.0956 77.3703C42.2052 77.3729 42.6666 77.4312 42.6285 77.2555C42.5995 77.1234 42.1382 77.0252 42.0286 77.0036C41.5955 76.9175 41.128 76.9907 40.7525 77.2265Z" fill="black"/>
<path d="M35.3824 83.1174C35.2581 83.0555 36.6975 79.6876 39.1852 81.7844C39.1852 81.7844 38.6345 84.7342 35.3824 83.1174Z" fill="white"/>
<path d="M38.7856 82.2389C38.7856 82.7824 38.3449 83.2235 37.801 83.2235C37.2572 83.2235 36.8164 82.7824 36.8164 82.2389C36.8164 81.695 37.2572 81.2539 37.801 81.2539C38.3449 81.2539 38.7856 81.695 38.7856 82.2389Z" fill="black"/>
<path d="M43.9292 78.2098C44.0568 78.2201 43.9824 81.5949 41.1341 80.6558C41.1341 80.6558 40.5922 77.9432 43.9292 78.2098Z" fill="white"/>
<path d="M42.0187 79.4375C41.832 78.9722 42.0575 78.4438 42.5228 78.2571C42.9878 78.0701 43.5162 78.2963 43.7033 78.7612C43.8899 79.2266 43.6641 79.7547 43.1991 79.9417C42.7341 80.1284 42.2053 79.9029 42.0187 79.4375Z" fill="black"/>
<path d="M39.9297 80.0156C40.3657 80.7523 40.5479 81.6453 41.127 82.276C41.2319 82.3909 41.3599 82.4994 41.5146 82.5137C41.6576 82.5266 41.7929 82.4554 41.9224 82.3938C42.2146 82.2544 42.5245 82.151 42.8421 82.0872C42.9458 82.0663 43.0563 82.0501 43.1541 82.0898C43.2378 82.1235 43.3008 82.1936 43.3521 82.2677C43.6099 82.6363 43.6349 83.1401 43.4647 83.5556C43.2938 83.9714 42.9458 84.3004 42.5431 84.4999C42.3899 84.5761 42.223 84.6356 42.0521 84.6293C41.8812 84.6231 41.7052 84.5406 41.6245 84.3899" stroke="black" stroke-width="0.0465625" stroke-miterlimit="10"/>
<path d="M43.6125 88.9019C43.0365 88.3786 42.3265 88.0251 41.6011 87.7446C41.1146 87.5557 40.6029 87.3965 40.087 87.3496C40.0566 87.4662 40.0537 87.5898 40.0639 87.7105C40.1325 88.522 40.7276 89.2576 41.4995 89.5165C42.259 89.771 43.1465 89.562 43.732 89.0164C43.6928 88.9771 43.6532 88.9389 43.6125 88.9019Z" fill="#C95B5B"/>
<path d="M43.6125 88.9019C43.0365 88.3786 42.3265 88.0251 41.6011 87.7446C41.1146 87.5557 40.6029 87.3965 40.087 87.3496C40.0566 87.4662 40.0537 87.5898 40.0639 87.7105C40.1325 88.522 40.7276 89.2576 41.4995 89.5165C42.259 89.771 43.1465 89.562 43.732 89.0164C43.6928 88.9771 43.6532 88.9389 43.6125 88.9019Z" stroke="black" stroke-width="0.0465625" stroke-miterlimit="10"/>
<path d="M40.9465 87.0919C40.7261 87.0754 40.5042 87.0538 40.2857 87.0171C40.2083 87.0945 40.1453 87.1828 40.1074 87.2858C40.0997 87.3067 40.0953 87.3284 40.0898 87.3496C40.6058 87.3966 41.117 87.5561 41.6036 87.7446C42.3293 88.0254 43.0392 88.3789 43.6154 88.9023C43.6561 88.939 43.6956 88.9775 43.7349 89.0164C43.7444 89.0076 43.7552 88.9988 43.7646 88.9897C44.0994 88.6655 44.329 88.2456 44.4904 87.8081C44.5978 87.5162 44.6774 87.2063 44.6503 86.8965C44.648 86.8705 44.6425 86.8444 44.6385 86.8184C43.4445 87.1377 42.1826 87.1842 40.9465 87.0919Z" fill="#661D1D"/>
<path d="M40.9465 87.0919C40.7261 87.0754 40.5042 87.0538 40.2857 87.0171C40.2083 87.0945 40.1453 87.1828 40.1074 87.2858C40.0997 87.3067 40.0953 87.3284 40.0898 87.3496C40.6058 87.3966 41.117 87.5561 41.6036 87.7446C42.3293 88.0254 43.0392 88.3789 43.6154 88.9023C43.6561 88.939 43.6956 88.9775 43.7349 89.0164C43.7444 89.0076 43.7552 88.9988 43.7646 88.9897C44.0994 88.6655 44.329 88.2456 44.4904 87.8081C44.5978 87.5162 44.6774 87.2063 44.6503 86.8965C44.648 86.8705 44.6425 86.8444 44.6385 86.8184C43.4445 87.1377 42.1826 87.1842 40.9465 87.0919Z" stroke="black" stroke-width="0.0465625" stroke-miterlimit="10"/>
<path d="M43.9087 86.3129C43.4466 86.5109 42.928 86.5288 42.433 86.5307C41.8297 86.5329 41.2023 86.5186 40.6537 86.7695C40.5192 86.8307 40.3894 86.9133 40.2852 87.017C40.5037 87.0537 40.7259 87.0753 40.946 87.0918C42.1821 87.1842 43.4443 87.1376 44.638 86.8182C44.6102 86.6308 44.5412 86.4397 44.4183 86.2974C44.2369 86.087 44.1221 86.2212 43.9087 86.3129Z" fill="white"/>
<path d="M43.9087 86.3129C43.4466 86.5109 42.928 86.5288 42.433 86.5307C41.8297 86.5329 41.2023 86.5186 40.6537 86.7695C40.5192 86.8307 40.3894 86.9133 40.2852 87.017C40.5037 87.0537 40.7259 87.0753 40.946 87.0918C42.1821 87.1842 43.4443 87.1376 44.638 86.8182C44.6102 86.6308 44.5412 86.4397 44.4183 86.2974C44.2369 86.087 44.1221 86.2212 43.9087 86.3129Z" stroke="black" stroke-width="0.0465625" stroke-miterlimit="10"/>
<path d="M69.3086 58.3578C69.3086 58.3578 69.6672 49.9411 71.3893 49.0393C73.1117 48.1376 84.6645 49.1145 85.8123 49.7159C86.9604 50.3169 87.7548 58.3577 87.7548 58.3577L69.3086 58.3578Z" fill="#001743"/>
<path d="M60.414 59.5616C60.414 59.5616 94.6352 61.2903 95.7115 60.9896C96.7878 60.6889 86.8856 57.4578 86.8856 57.4578L69.2334 56.7813C69.2334 56.7813 58.9852 58.9602 60.414 59.5616Z" fill="#001743"/>
<path d="M85.0131 63.2854C84.9137 62.7313 84.8246 62.1681 84.8806 61.6084C84.9368 61.0418 85.1912 60.4386 85.7116 60.2069C85.9818 60.0869 86.3632 60.1203 86.4927 60.3858" stroke="#342C00" stroke-width="0.0465625" stroke-miterlimit="10"/>
<path d="M84.8672 62.1673C84.8988 61.9381 85.0157 61.747 85.1535 61.6205C85.2918 61.4933 85.4506 61.4214 85.6075 61.3503C85.6819 61.3169 85.7601 61.2831 85.8367 61.3026C85.9137 61.3221 85.987 61.4144 85.9819 61.5252" stroke="#342C00" stroke-width="0.0465625" stroke-miterlimit="10"/>
<path d="M71.7515 59.8355C71.9674 59.7948 72.2044 59.7658 72.3958 59.8737C72.5535 59.9632 72.6547 60.1439 72.6488 60.3248C72.6477 60.356 72.6426 60.3893 72.621 60.4109C72.6041 60.4281 72.5799 60.4359 72.5568 60.4406C72.3001 60.4993 72.0445 60.3676 71.7908 60.2983C71.5979 60.2452 71.3932 60.2279 71.1964 60.2635C71.0207 60.2957 70.1516 60.7761 70.4795 60.3064C70.6961 59.9954 71.4082 59.9 71.7515 59.8355Z" fill="black"/>
<path d="M77.9719 59.9008C77.5211 59.9269 77.0561 60.1003 76.7852 60.4615C77.0558 60.6203 77.3953 60.5066 77.7005 60.434C77.9044 60.3856 78.1138 60.3578 78.3235 60.3512C78.4214 60.3479 78.5218 60.3497 78.6136 60.3831C78.7445 60.4315 78.8435 60.539 78.9513 60.628C79.1124 60.7611 79.3033 60.8572 79.5062 60.9081C79.6452 60.9433 79.8451 60.9155 79.8578 60.7725C79.8743 60.5832 79.3481 60.2734 79.1904 60.1678C78.852 59.9419 78.3698 59.8781 77.9719 59.9008Z" fill="black"/>
<path d="M76.125 63.6516C76.125 63.6516 76.9618 59.6878 80.2563 61.9573C80.2563 61.9573 78.5567 65.3248 76.125 63.6516Z" fill="white"/>
<path d="M73.5923 63.3176C73.5923 63.3176 72.7555 59.3538 69.4609 61.6234C69.4609 61.6234 71.1607 64.9908 73.5923 63.3176Z" fill="white"/>
<path d="M72.4129 62.4395C72.4129 63.0706 71.9637 63.5818 71.4096 63.5818C70.8555 63.5818 70.4062 63.0706 70.4062 62.4395C70.4062 61.8084 70.8555 61.2969 71.4096 61.2969C71.9637 61.2968 72.4129 61.8084 72.4129 62.4395Z" fill="black"/>
<path d="M78.6317 62.9747C78.6317 63.6058 78.1821 64.1169 77.6283 64.1169C77.0742 64.1169 76.625 63.6058 76.625 62.9747C76.625 62.3436 77.0742 61.832 77.6283 61.832C78.1821 61.832 78.6317 62.3436 78.6317 62.9747Z" fill="black"/>
<path d="M74.37 61.1738C74.4936 62.2776 74.6175 63.3814 74.7019 64.4885C74.7198 64.7211 74.7253 64.9832 74.5647 65.1516C74.3612 65.3646 74.0142 65.3096 73.729 65.3834C73.2288 65.5128 72.9347 66.0618 72.9153 66.5778C72.9054 66.8327 72.9545 67.1037 73.1243 67.2936C73.2454 67.4297 73.4166 67.5111 73.5915 67.5621C74.007 67.6828 74.4669 67.6435 74.8556 67.4535" stroke="black" stroke-width="0.0465625" stroke-miterlimit="10"/>
<path d="M78.1813 69.9577C78.8986 69.7208 79.6394 69.5415 80.3893 69.4604C80.4223 69.1509 80.3725 68.8215 80.2027 68.584C77.8569 69.6816 75.3071 70.3386 72.7233 70.5154C72.6529 71.3783 73.4142 72.0467 74.2429 72.4061C75.2392 71.2279 76.6969 70.4476 78.1813 69.9577Z" fill="#701E1E"/>
<path d="M78.1813 69.9577C78.8986 69.7208 79.6394 69.5415 80.3893 69.4604C80.4223 69.1509 80.3725 68.8215 80.2027 68.584C77.8569 69.6816 75.3071 70.3386 72.7233 70.5154C72.6529 71.3783 73.4142 72.0467 74.2429 72.4061C75.2392 71.2279 76.6969 70.4476 78.1813 69.9577Z" stroke="black" stroke-width="0.0465625" stroke-miterlimit="10"/>
<path d="M79.9771 68.3684C79.7065 68.2041 79.3647 68.2257 79.0512 68.2705C78.1343 68.4014 77.2484 68.6794 76.3632 68.9427C75.5641 69.1807 74.7706 69.3805 73.9477 69.514C73.4926 69.5877 72.9466 69.6904 72.7892 70.1913C72.7544 70.3016 72.7349 70.4099 72.7266 70.5151C75.31 70.3383 77.8602 69.6812 80.2056 68.5837C80.145 68.4986 80.0698 68.4245 79.9771 68.3684Z" fill="white"/>
<path d="M79.9771 68.3684C79.7065 68.2041 79.3647 68.2257 79.0512 68.2705C78.1343 68.4014 77.2484 68.6794 76.3632 68.9427C75.5641 69.1807 74.7706 69.3805 73.9477 69.514C73.4926 69.5877 72.9466 69.6904 72.7892 70.1913C72.7544 70.3016 72.7349 70.4099 72.7266 70.5151C75.31 70.3383 77.8602 69.6812 80.2056 68.5837C80.145 68.4986 80.0698 68.4245 79.9771 68.3684Z" stroke="black" stroke-width="0.0465625" stroke-miterlimit="10"/>
<path d="M78.1806 69.9562C76.6962 70.4461 75.2385 71.2265 74.2422 72.4047C74.632 72.5737 75.0362 72.675 75.3753 72.6955C76.2987 72.7506 77.214 72.4696 78.0479 72.0692C78.5701 71.818 79.0743 71.5158 79.4916 71.1135C79.9089 70.7112 80.2372 70.2027 80.3597 69.6361C80.3725 69.5782 80.382 69.5191 80.3886 69.459C79.6387 69.54 78.898 69.7193 78.1806 69.9562Z" fill="#B55252"/>
<path d="M78.1806 69.9562C76.6962 70.4461 75.2385 71.2265 74.2422 72.4047C74.632 72.5737 75.0362 72.675 75.3753 72.6955C76.2987 72.7506 77.214 72.4696 78.0479 72.0692C78.5701 71.818 79.0743 71.5158 79.4916 71.1135C79.9089 70.7112 80.2372 70.2027 80.3597 69.6361C80.3725 69.5782 80.382 69.5191 80.3886 69.459C79.6387 69.54 78.898 69.7193 78.1806 69.9562Z" stroke="black" stroke-width="0.0465625" stroke-miterlimit="10"/>
<path d="M69.4807 56.7801L87.6819 57.72L87.1858 54.1179L69.832 53.1523C69.832 53.1523 69.3912 56.1395 69.4807 56.7801Z" fill="#004987"/>
<path d="M76.6055 75.9403C76.6055 75.9403 82.1178 74.5509 84.6852 71.4199" stroke="black" stroke-width="0.0465625" stroke-miterlimit="10"/>
<path d="M73.8559 78.5226C73.8559 78.5226 73.3683 82.9341 79.8729 82.4346C86.3772 81.9356 88.0307 79.2168 88.35 77.9102" stroke="black" stroke-width="0.0465625" stroke-miterlimit="10"/>
<path d="M70.3551 79.0996C70.3551 79.0996 68.7558 87.916 65.5039 91.2563" stroke="black" stroke-width="0.0465625" stroke-miterlimit="10"/>
<path d="M97.1144 79.0996C97.0077 79.2966 95.195 84.7876 96.2346 90.2783" stroke="black" stroke-width="0.0465625" stroke-miterlimit="10"/>
</svg>
