<svg width="123" height="166" viewBox="0 0 123 166" fill="none" xmlns="http://www.w3.org/2000/svg">
<path fill-rule="evenodd" clip-rule="evenodd" d="M59.812 82.7303L115.769 80.5247L97.5996 88.2559L17.3837 85.6363L7.50391 80.4648L59.812 82.7303Z" fill="#774F71"/>
<path fill-rule="evenodd" clip-rule="evenodd" d="M67.0741 119.096C67.0938 119.113 67.1166 119.124 67.1393 119.135C74.5505 122.593 100.619 79.2794 114.199 46.9498C114.2 46.9425 114.203 46.9361 114.207 46.9298L114.21 46.9234C121.402 29.7944 125.085 15.7525 120.613 13.4024C116.678 11.338 107.518 22.919 97.7624 39.1116C97.7624 39.1116 97.759 39.118 97.754 39.1233C97.7212 39.1779 97.5633 39.4386 97.2975 39.8824C79.2893 69.984 59.523 115.26 67.0741 119.096Z" fill="#EAA77A"/>
<path fill-rule="evenodd" clip-rule="evenodd" d="M93.6154 50.2715C93.6154 50.2715 93.2244 51.3425 92.8295 53.036L92.8316 53.037C91.6736 57.9979 90.4566 68.3323 98.745 73.0265C98.745 73.0265 98.7484 73.0201 98.7494 73.0128C98.7504 73.0054 98.7527 72.991 98.7571 72.9773C99.065 71.8826 103.947 53.7425 93.6154 50.2715Z" fill="#BA703E"/>
<path fill-rule="evenodd" clip-rule="evenodd" d="M79.7899 79.0918C79.7899 79.0918 79.3763 80.1521 78.9117 81.8128L78.9134 81.8138C77.5519 86.678 75.7316 96.7258 82.4179 100.659C82.4179 100.659 82.4212 100.652 82.4225 100.645C82.4239 100.638 82.4273 100.624 82.4319 100.611C82.7767 99.5332 88.3056 81.7003 79.7899 79.0918Z" fill="#BA703E"/>
<path fill-rule="evenodd" clip-rule="evenodd" d="M108.725 26.5886C108.725 26.5886 108.378 27.6094 108.015 29.1308H108.017C106.953 33.5875 105.735 42.3742 112.563 42.6854C112.563 42.6854 112.566 42.6791 112.567 42.6727C112.568 42.6664 112.571 42.654 112.574 42.6413C112.853 41.6355 117.283 25.0695 108.725 26.5886Z" fill="#BA703E"/>
<path fill-rule="evenodd" clip-rule="evenodd" d="M67.0741 119.098C67.0938 119.115 67.1166 119.126 67.1393 119.137C74.5505 122.594 100.619 79.2811 114.199 46.9515C113.508 48.403 85.6589 106.958 76.2782 102.503C66.7792 97.9912 97.7621 39.1133 97.7621 39.1133C97.7621 39.1133 97.7587 39.1196 97.7537 39.125C97.7209 39.1795 97.5629 39.4403 97.2972 39.8841C79.2893 69.9857 59.523 115.262 67.0741 119.098Z" fill="#CE895B"/>
<path fill-rule="evenodd" clip-rule="evenodd" d="M106.34 53.3227C106.34 53.3227 105.304 53.1728 103.988 55.2475C103.988 55.2475 105.245 55.0369 106.34 53.3227Z" fill="#EFE5DA"/>
<path fill-rule="evenodd" clip-rule="evenodd" d="M87.9537 70.1137C87.9537 70.1137 86.9172 69.9638 85.6016 72.0381C85.6016 72.0381 86.8586 71.828 87.9537 70.1137Z" fill="#EFE5DA"/>
<path fill-rule="evenodd" clip-rule="evenodd" d="M115.565 18.3047C115.565 18.3047 113.957 20.7422 113.746 22.5227C113.746 22.5227 115.379 19.7937 115.565 18.3047Z" fill="#EFE5DA"/>
<path fill-rule="evenodd" clip-rule="evenodd" d="M74.8404 105.149C74.8404 105.149 73.8039 104.999 72.4883 107.074C72.4883 107.074 73.7457 106.863 74.8404 105.149Z" fill="#EFE5DA"/>
<path fill-rule="evenodd" clip-rule="evenodd" d="M102.83 39.4844C102.83 39.4844 101.143 42.2549 101.066 44.0089C101.066 44.0089 102.756 40.9536 102.83 39.4844Z" fill="#EFE5DA"/>
<path fill-rule="evenodd" clip-rule="evenodd" d="M89.4627 69.6699C89.4627 69.6699 87.7755 72.4404 87.6992 74.1945C87.6992 74.1945 89.388 71.1392 89.4627 69.6699Z" fill="#EFE5DA"/>
<path fill-rule="evenodd" clip-rule="evenodd" d="M102.22 51.873C102.22 51.873 100.533 54.6435 100.457 56.3976C100.457 56.3976 102.146 53.3426 102.22 51.873Z" fill="#EFE5DA"/>
<path fill-rule="evenodd" clip-rule="evenodd" d="M85.2031 91.6666C85.2031 91.6666 86.906 90.1592 87.8655 87.6953C87.8655 87.6953 86.0084 89.6191 85.2031 91.6666Z" fill="#EFE5DA"/>
<path fill-rule="evenodd" clip-rule="evenodd" d="M118.42 23.2842C118.42 23.2842 117.276 23.1704 115.859 25.4321C115.859 25.4321 117.241 25.1534 118.42 23.2842Z" fill="#EFE5DA"/>
<path fill-rule="evenodd" clip-rule="evenodd" d="M73.4468 118.529C73.4716 118.537 73.4967 118.538 73.5218 118.539C81.694 118.851 88.9222 68.8181 88.8994 33.7522C88.8977 33.7451 88.898 33.7381 88.8987 33.7308L88.8994 33.7237C88.8847 15.1462 86.8331 0.774967 81.7998 0.343227C77.372 -0.0329551 73.4207 14.194 70.7094 32.9031C70.7094 32.9031 70.7091 32.9101 70.7061 32.9171C70.697 32.9804 70.6525 33.2819 70.5799 33.7937C65.6571 68.5233 64.9991 117.922 73.4468 118.529Z" fill="#EAA77A"/>
<path fill-rule="evenodd" clip-rule="evenodd" d="M71.2109 44.799C71.2109 44.799 71.2661 45.9379 71.5587 47.6522H71.561C72.4178 52.6737 75.3044 62.6713 84.7649 63.7831C84.7649 63.7831 84.7652 63.7761 84.7635 63.7687C84.7619 63.7617 84.7582 63.7473 84.7568 63.7333C84.6159 62.6047 82.0801 43.9911 71.2109 44.799Z" fill="#BA703E"/>
<path fill-rule="evenodd" clip-rule="evenodd" d="M69.6523 76.7249C69.6523 76.7249 69.6822 77.8629 69.8984 79.5734H69.9004C70.5323 84.5849 72.7515 94.5524 80.4395 95.5839C80.4395 95.5839 80.4398 95.5769 80.4388 95.5699C80.4375 95.5625 80.4348 95.5484 80.4338 95.5344C80.3334 94.4075 78.5127 75.826 69.6523 76.7249Z" fill="#BA703E"/>
<path fill-rule="evenodd" clip-rule="evenodd" d="M75.9609 17.1096C75.9609 17.1096 76.0369 18.1853 76.2923 19.7282L76.2939 19.7275C77.0423 24.2481 79.3275 32.8189 85.7417 30.4574C85.7417 30.4574 85.7417 30.4504 85.7403 30.444C85.739 30.4377 85.736 30.4253 85.7347 30.4122C85.6014 29.3777 83.2593 12.3903 75.9609 17.1096Z" fill="#BA703E"/>
<path fill-rule="evenodd" clip-rule="evenodd" d="M73.4469 118.528C73.4716 118.536 73.4967 118.538 73.5218 118.539C81.6941 118.851 88.9222 68.8177 88.8995 33.7518C88.8252 35.3576 85.8682 100.131 75.4934 99.6623C64.9881 99.1881 70.7091 32.9023 70.7091 32.9023C70.7091 32.9023 70.7088 32.9094 70.7058 32.9164C70.6968 32.9797 70.6523 33.2812 70.5796 33.7929C65.6571 68.5229 64.9992 117.921 73.4469 118.528Z" fill="#CE895B"/>
<path fill-rule="evenodd" clip-rule="evenodd" d="M84.1284 42.6738C84.1284 42.6738 83.115 42.9379 82.707 45.3603C82.707 45.3603 83.7844 44.6786 84.1284 42.6738Z" fill="#EFE5DA"/>
<path fill-rule="evenodd" clip-rule="evenodd" d="M73.6949 65.2832C73.6949 65.2832 72.6814 65.5469 72.2734 67.9694C72.2734 67.9694 73.3508 67.2879 73.6949 65.2832Z" fill="#EFE5DA"/>
<path fill-rule="evenodd" clip-rule="evenodd" d="M79.0518 6.82031C79.0518 6.82031 78.5153 9.69054 79.011 11.4135C79.011 11.4135 79.4578 8.26446 79.0518 6.82031Z" fill="#EFE5DA"/>
<path fill-rule="evenodd" clip-rule="evenodd" d="M75.1948 102.664C75.1948 102.664 74.1814 102.928 73.7734 105.35C73.7734 105.35 74.8504 104.669 75.1948 102.664Z" fill="#EFE5DA"/>
<path fill-rule="evenodd" clip-rule="evenodd" d="M75.5236 31.2773C75.5236 31.2773 75.043 34.4856 75.6531 36.1316C75.6531 36.1316 76.0249 32.6606 75.5236 31.2773Z" fill="#EFE5DA"/>
<path fill-rule="evenodd" clip-rule="evenodd" d="M74.9103 64.2891C74.9103 64.2891 74.4297 67.4973 75.0398 69.1433C75.0398 69.1433 75.4117 65.6723 74.9103 64.2891Z" fill="#EFE5DA"/>
<path fill-rule="evenodd" clip-rule="evenodd" d="M79.7697 42.9355C79.7697 42.9355 79.2891 46.1438 79.8992 47.7898C79.8992 47.7898 80.271 44.3188 79.7697 42.9355Z" fill="#EFE5DA"/>
<path fill-rule="evenodd" clip-rule="evenodd" d="M79.5176 86.2144C79.5176 86.2144 80.5023 84.1645 80.4313 81.5215C80.4313 81.5215 79.4658 84.0149 79.5176 86.2144Z" fill="#EFE5DA"/>
<path fill-rule="evenodd" clip-rule="evenodd" d="M83.6092 10.3027C83.6092 10.3027 82.5108 10.6418 82.082 13.2757C82.082 13.2757 83.2474 12.4832 83.6092 10.3027Z" fill="#EFE5DA"/>
<path d="M99.488 42.2424C88.3592 39.9692 77.4948 47.1481 75.2216 58.277L71.601 76.0014L58.9708 137.835L54.1708 161.334C53.4582 164.822 55.7083 168.227 59.196 168.939L86.8668 174.591C90.3545 175.304 93.7596 173.054 94.4721 169.566L99.2722 146.067L111.902 84.2336L115.523 66.5092C117.796 55.38 110.617 44.5155 99.488 42.2424Z" fill="#452A3F"/>
<path d="M106.395 34.2973L96.2656 32.2285L93.5513 45.5192L103.681 47.5879L106.395 34.2973Z" fill="#452A3F"/>
<path d="M95.5647 29.6096L108.05 32.1599C108.159 32.1823 108.23 32.2894 108.208 32.3988L106.796 39.308L93.9141 36.6767L95.3254 29.7679C95.3478 29.6581 95.4549 29.5872 95.5647 29.6096Z" fill="#EC4E59"/>
<path d="M115.183 56.8613C105.873 97.399 96.0341 157.157 56.043 167.185C56.9322 168.066 58.0815 168.709 59.4002 168.978L86.6657 174.548C90.2658 175.283 93.7706 172.991 94.4969 169.434L115.605 66.0979C116.253 62.9207 116.06 59.7687 115.183 56.8613Z" fill="#301D2C"/>
<path d="M113.093 78.2179L72.8633 70.002L66.0677 103.277L106.298 111.493L113.093 78.2179Z" fill="#EC4E59"/>
<path d="M77.5545 67.2919L76.0273 66.98L77.9029 57.7986C79.4254 51.4959 84.5557 46.6544 90.9799 45.4375L91.2697 46.9687C85.4463 48.0721 80.7966 52.4558 79.424 58.1377L77.5545 67.2919Z" fill="#684762"/>
<path d="M73.3534 79.9991L69.8945 96.9355L71.4217 97.2474L74.8805 80.311L73.3534 79.9991Z" fill="#E06C75"/>
<path d="M67.6613 107.895L66.3945 114.098L67.9217 114.41L69.1884 108.207L67.6613 107.895Z" fill="#684762"/>
<mask id="mask0_1573_1279" style="mask-type:luminance" maskUnits="userSpaceOnUse" x="66" y="70" width="48" height="42">
<path d="M113.144 78.2258L72.9141 70.0098L66.1184 103.285L106.348 111.501L113.144 78.2258Z" fill="white"/>
</mask>
<g mask="url(#mask0_1573_1279)">
<path d="M115.183 56.8613C105.873 97.399 96.0341 157.157 56.043 167.185C56.9322 168.066 58.0815 168.709 59.4002 168.978L86.6657 174.548C90.2658 175.283 93.7706 172.991 94.4969 169.434L115.605 66.0979C116.253 62.9207 116.06 59.7687 115.183 56.8613Z" fill="#CE4250"/>
</g>
<path d="M31.011 34.7441L24.7966 35.197L20.0803 72.2563C19.6318 75.7724 19.5354 79.3207 19.7931 82.8563L23.8364 138.358C23.908 139.342 24.7551 140.076 25.7361 140.005L45.2768 138.581C46.2527 138.51 46.9893 137.66 46.9177 136.676L42.8744 81.1745C42.6167 77.639 42.0073 74.1425 41.0538 70.7281L31.011 34.7441Z" fill="#452A3F"/>
<path d="M41.087 70.8848C43.4361 91.5269 39.1398 115.868 22.9609 126.402L23.8318 138.358C23.9034 139.342 24.7505 140.076 25.7314 140.005L45.2722 138.581C46.2481 138.51 46.9847 137.66 46.9131 136.676L42.8702 81.1746C42.6165 77.6939 42.0157 74.246 41.087 70.8848Z" fill="#301D2C"/>
<path d="M33.6801 37.3458L22.9023 38.1309L23.0677 33.1633L32.7915 32.4551L33.6801 37.3458Z" fill="#DFAC1E"/>
<path d="M42.82 102.362C43.6296 113.475 39.9615 122.802 34.6193 123.191C29.2825 123.58 24.2964 114.883 23.4868 103.77C22.6772 92.6553 26.3507 83.3331 31.6872 82.9442C37.0297 82.555 42.0105 91.247 42.82 102.362Z" fill="#F4EEE9"/>
<path d="M34.5096 121.739C30.6266 122.021 25.7383 114.669 24.9367 103.666C24.1352 92.6625 27.906 84.6794 31.7893 84.3966C35.6726 84.1137 40.561 91.4657 41.3626 102.469C42.1641 113.472 38.3929 121.456 34.5096 121.739Z" fill="#EDBA57"/>
<path d="M41.3592 102.467C41.2002 100.286 40.8753 98.259 40.4368 96.3965C35.278 96.4356 30.14 96.7606 25.0056 97.1318C24.8079 99.1452 24.7633 101.33 24.9334 103.663C25.0649 105.467 25.3136 107.164 25.6439 108.76C31.3907 108.341 36.011 108.005 41.3947 107.613C41.4901 105.985 41.4904 104.271 41.3592 102.467Z" fill="#F4EEE9"/>
<path d="M23.2625 86.4442L21.7751 86.5526L21.732 85.97C21.5824 83.9458 21.3555 80.8855 21.3635 78.4336L22.8552 78.4386C22.8471 80.8333 23.0717 83.8581 23.2196 85.8605L23.2625 86.4442Z" fill="#684762"/>
<path d="M23.1147 75.1174L21.6367 74.9176L22.0186 72.0882C23.7027 59.6317 24.8152 51.4022 25.7222 39.7539L27.2085 39.87C26.2982 51.5598 25.184 59.8064 23.4962 72.2883L23.1147 75.1174Z" fill="#684762"/>
<path d="M52.5458 53.247L38.6471 55.4723C33.0847 56.3629 29.2978 61.5939 30.1884 67.156L43.3702 149.486C43.8123 152.248 46.4101 154.129 49.1719 153.687L73.2101 149.838C75.9725 149.395 77.8538 146.797 77.4113 144.035L64.2296 61.7057C63.339 56.1436 58.1079 52.3564 52.5458 53.247Z" fill="#D08918"/>
<path d="M48.8562 47.358L40.2969 48.7285L41.6964 57.4693L50.2558 56.0988L48.8562 47.358Z" fill="#D08918"/>
<path d="M39.0625 47.0053L49.5069 45.3329C49.6281 45.3135 49.7418 45.3958 49.7612 45.517L50.692 51.3301L39.8085 53.0728L38.8777 47.2603C38.8587 47.1392 38.9417 47.0244 39.0625 47.0053Z" fill="#DFAC1E"/>
<path d="M66.6778 77.7972L32.8789 83.209L36.8565 108.051L70.6554 102.639L66.6778 77.7972Z" fill="#CDA119"/>
<path d="M42.3164 142.925L43.3369 149.299C43.7957 152.164 46.4912 154.116 49.3541 153.658L73.0242 149.868C75.887 149.409 77.8365 146.714 77.378 143.849L65.0293 66.721C64.8556 65.6363 64.5661 64.6022 64.1859 63.6172C67.0434 92.4236 65.3459 125.047 42.3164 142.925Z" fill="#B9750F"/>
<path d="M67.2247 81.2464L33.4258 86.6582L36.281 104.49L70.08 99.0786L67.2247 81.2464Z" fill="#B9750F"/>
<path d="M40.1711 108.67L38.91 108.872L33.3821 74.3453C32.6492 71.0406 33.2422 67.2272 34.9759 64.1816L36.085 64.8135C34.504 67.5917 33.9618 71.0657 34.6362 74.1063L40.1711 108.67Z" fill="#E4A03E"/>
<path d="M41.0306 114.058L39.7695 114.26L40.9782 121.808L42.2392 121.606L41.0306 114.058Z" fill="#E4A03E"/>
<mask id="mask1_1573_1279" style="mask-type:luminance" maskUnits="userSpaceOnUse" x="32" y="77" width="39" height="32">
<path d="M66.6739 77.7972L32.875 83.209L36.8526 108.051L70.6515 102.639L66.6739 77.7972Z" fill="white"/>
</mask>
<g mask="url(#mask1_1573_1279)">
<path d="M42.3203 142.925L43.3408 149.299C43.7996 152.164 46.4951 154.116 49.358 153.658L73.0281 149.868C75.8909 149.409 77.8404 146.714 77.3819 143.849L65.0332 66.721C64.8595 65.6363 64.57 64.6022 64.1898 63.6172C67.0473 92.4236 65.3498 125.047 42.3203 142.925Z" fill="#BA901C"/>
</g>
<mask id="mask2_1573_1279" style="mask-type:luminance" maskUnits="userSpaceOnUse" x="33" y="81" width="38" height="24">
<path d="M67.2208 81.2444L33.4219 86.6562L36.2771 104.488L70.0761 99.0767L67.2208 81.2444Z" fill="white"/>
</mask>
<g mask="url(#mask2_1573_1279)">
<path d="M42.3164 142.921L43.3369 149.295C43.7957 152.16 46.4912 154.112 49.3541 153.654L73.0242 149.864C75.887 149.405 77.8365 146.71 77.378 143.845L65.0293 66.7171C64.8556 65.6324 64.5661 64.5982 64.1859 63.6133C67.0434 92.4197 65.3459 125.043 42.3164 142.921Z" fill="#9E6212"/>
</g>
<path d="M51.8224 73.4258L51.5547 124.785L71.4006 133.101L87.0902 121.299L86.6882 74.6326L70.998 78.119L51.8224 73.4258Z" fill="#F5F5F5"/>
<path d="M70.998 78.1172L71.4006 133.098L51.5547 124.783C51.5547 124.783 61.2745 124.972 65.6341 114.591C71.2664 101.182 70.998 78.1172 70.998 78.1172Z" fill="#EDE4E4"/>
<path d="M51.8242 73.4268L60.2723 66.7214L60.2716 60.8203L76.9009 63.7725L76.498 69.5364L70.9998 78.12L51.8242 73.4268Z" fill="#F5F5F5"/>
<path d="M86.6863 74.6345L77.9695 69.2706L77.836 63.9056L76.8972 63.7734L76.4942 69.5373L70.9961 78.1209L86.6863 74.6345Z" fill="#F5F5F5"/>
<path d="M51.8242 73.4258L70.9998 78.1191L76.498 69.5352C76.498 69.5352 72.7442 76.2422 51.8242 73.4258Z" fill="#EDE4E4"/>
<path d="M60.2656 66.7227L76.4913 69.5373L76.8946 63.7734C76.8946 63.7734 77.1624 69.539 60.2656 66.7227Z" fill="#EDE4E4"/>
<path d="M51.6836 88.8473L70.9941 94.0783L86.8178 86.9707L86.9524 105.074L71.2618 114.595L51.6836 108.025V88.8473Z" fill="#9BC9EA"/>
<path d="M70.9941 94.0807L51.6836 88.8496V108.027L71.2618 114.597L70.9941 94.0807Z" fill="#8FBCD8"/>
<path d="M24.6737 73.4382L17.1434 46.1309L11.2891 47.2952L14.7795 75.4061C15.2899 78.8888 12.6245 81.4866 11.5612 84.8402C9.75895 90.5127 11.5716 94.7246 11.7577 95.6601L22.7245 150.806C22.9631 152.006 24.1252 152.785 25.326 152.546L44.4497 148.743C45.6506 148.504 46.4264 147.34 46.1874 146.14L35.2205 90.9943C35.0345 90.0588 34.0167 83.3773 31.2622 80.9227C28.638 78.5829 25.5399 76.85 24.6737 73.4382Z" fill="#63A879"/>
<path d="M18.9955 48.3821L10.5134 50.0689L9.76937 46.3278C9.74862 46.2237 9.81622 46.1226 9.92031 46.1019L18.025 44.4901C18.1294 44.4693 18.2308 44.5372 18.2519 44.6417L18.9955 48.3821Z" fill="#508960"/>
<path d="M31.2647 80.9202C31.0763 80.7542 30.8895 80.5959 30.6967 80.4355C36.1387 101.848 30.7694 124.574 21.2617 143.437L22.7266 150.803C22.9653 152.004 24.1273 152.783 25.3281 152.544L44.4518 148.741C45.6527 148.502 46.4285 147.338 46.1895 146.138L35.2226 90.9921C35.0372 90.0566 34.0191 83.3751 31.2647 80.9202Z" fill="#508960"/>
<path d="M14.5033 101.456L15.236 101.285L14.4826 101.369C13.7908 98.4221 13.0759 95.3745 12.9046 92.2787C12.6997 88.6903 13.2577 85.5506 14.5623 82.9478C14.7781 82.5167 15.0187 82.095 15.2591 81.6727C15.7741 80.7697 16.2604 79.9172 16.4954 78.9922L17.9543 79.3617C17.6694 80.4855 17.1085 81.4685 16.5663 82.4187C16.3391 82.8176 16.1118 83.2155 15.9073 83.6228C14.7226 85.9867 14.2172 88.8707 14.407 92.1934C14.571 95.159 15.2708 98.141 15.9478 101.025L15.2353 101.284L14.5033 101.456Z" fill="#8CC49C"/>
<path d="M18.2484 77.3133L16.7571 77.5182C16.0034 72.0113 14.9521 66.4288 13.6328 60.9256L15.0964 60.5742C16.4277 66.1263 17.4887 71.7579 18.2484 77.3133Z" fill="#8CC49C"/>
<path d="M38.5848 116.782C41.2415 130.142 38.9995 141.846 33.5837 142.923C28.1678 144 21.6231 134.043 18.9664 120.684C16.3094 107.324 18.5471 95.6236 23.9632 94.5466C29.3787 93.4693 35.9278 103.422 38.5848 116.782Z" fill="#F4EEE9"/>
<path fill-rule="evenodd" clip-rule="evenodd" d="M24.3704 187.375H0.5625L7.50045 80.4648L15.6603 82.7303L21.463 81.7293L24.3704 138.361V187.375Z" fill="#BA85AF"/>
<path fill-rule="evenodd" clip-rule="evenodd" d="M117.171 187.375L112.328 116.315L114.24 92.0421L115.768 80.5254L94.228 84.3612L40.4892 84.4318L21.4648 81.7299L24.3722 138.362L23.3488 176.499L22.6858 187.375H117.171Z" fill="#F2C4CF"/>
<path fill-rule="evenodd" clip-rule="evenodd" d="M21.463 81.7285L15.6603 82.7295L15.0673 151.655L12.4665 169.16L0.5625 187.374L13.5321 169.982L15.8146 169.16L22.684 187.374L24.3704 138.361L21.463 81.7285Z" fill="#9E6F95"/>
<mask id="mask3_1573_1279" style="mask-type:luminance" maskUnits="userSpaceOnUse" x="21" y="80" width="97" height="108">
<path d="M117.171 187.379L112.328 116.319L114.24 92.046L115.768 80.5293L94.228 84.3651L40.4892 84.4357L21.4648 81.7338L24.3722 138.366L23.3488 176.503L22.6858 187.379H117.171Z" fill="white"/>
</mask>
<g mask="url(#mask3_1573_1279)">
<path fill-rule="evenodd" clip-rule="evenodd" d="M37.6925 183.95L38.9047 180.031L30.1832 163.098L38.9047 177.302L48.171 180.031L86.4506 176.7L102.703 170.981L107.82 127.039L108.121 95.7374L104.153 90.9216L106.014 86.1059L95.1021 88.2585L109.002 81.7319L117.168 73.1641L121.063 87.0088L124.675 187.869L29.2652 196.429L17.8281 190.545L21.4618 189.482L37.6925 183.95Z" fill="#E2B5C2"/>
</g>
<path fill-rule="evenodd" clip-rule="evenodd" d="M92.1722 93.9336C92.1722 93.9336 90.0449 98.4391 90.5286 111.202H97.7801C97.7801 111.202 98.7015 98.18 99.7651 94.0755L92.1722 93.9336Z" fill="#512A2A"/>
<path fill-rule="evenodd" clip-rule="evenodd" d="M39.0979 92.5156C39.0979 92.5156 38.3121 99.31 39.956 111.203L46.4344 111.783C46.4344 111.783 47.2119 98.9141 48.1768 93.5521L39.0979 92.5156Z" fill="#512A2A"/>
<path fill-rule="evenodd" clip-rule="evenodd" d="M100.677 93.934C100.677 93.934 104.158 149.277 104.158 151.705C104.158 151.705 95.3523 162.919 93.2642 164.175C73.4106 176.118 50.2047 165.156 50.2047 165.156L40.5358 151.705C40.5358 151.705 42.3006 110.377 39.0977 92.5156L48.1762 93.5525C48.1762 93.5525 49.3801 134.485 50.5223 156.347C50.5223 156.347 76.1175 164.175 93.9085 156.454C95.107 151.102 94.2954 113.988 92.1682 93.9343L100.677 93.934Z" fill="#B26969"/>
<path fill-rule="evenodd" clip-rule="evenodd" d="M93.9096 156.452V163.092C93.9096 163.092 87.3348 168.055 73.0244 168.829C58.7141 169.602 51.2059 165.028 51.2059 165.028L50.5234 156.346C50.5234 156.346 73.6694 164.174 93.9096 156.452Z" fill="#512A2A"/>
<path fill-rule="evenodd" clip-rule="evenodd" d="M92.1719 93.9336H92.4781C92.4781 93.9336 94.0621 108.688 94.519 119.469C94.9758 130.25 94.519 162.632 94.519 162.632L93.9122 163.093V156.099L94.1702 121.887L92.1719 93.9336Z" fill="#512A2A"/>
<path fill-rule="evenodd" clip-rule="evenodd" d="M39.0977 92.5156V93.605L40.6646 106.691L40.5358 151.705L40.9876 133.17V106.368L39.0977 92.5156Z" fill="#512A2A"/>
</svg>
