<svg width="232" height="118" viewBox="0 0 232 118" fill="none" xmlns="http://www.w3.org/2000/svg">
<g id="OBJECTS">
<g id="Group">
<g id="Group_2">
<path id="Vector" opacity="0.14" d="M102.659 115.288C102.659 114.394 79.7945 113.67 51.5891 113.67C23.3841 113.67 0.519531 114.394 0.519531 115.288C0.519531 116.181 23.3841 116.905 51.5891 116.905C79.7945 116.906 102.659 116.181 102.659 115.288Z" fill="url(#paint0_linear_707_2020)"/>
<path id="Vector_2" opacity="0.14" d="M231.464 116.122C231.464 115.228 208.599 114.504 180.394 114.504C152.189 114.504 129.324 115.228 129.324 116.122C129.324 117.015 152.189 117.739 180.394 117.739C208.599 117.739 231.464 117.015 231.464 116.122Z" fill="url(#paint1_linear_707_2020)"/>
<path id="Vector_3" opacity="0.14" d="M216.873 108.686C216.873 107.547 173.609 106.623 120.241 106.623C66.8729 106.623 23.6094 107.547 23.6094 108.686C23.6094 109.826 66.8729 110.75 120.241 110.75C173.609 110.75 216.873 109.826 216.873 108.686Z" fill="url(#paint2_linear_707_2020)"/>
<g id="Group_3">
<path id="Vector_4" d="M64.3568 104.265L21.0549 113.609C20.3613 113.758 19.6775 113.317 19.5277 112.623L14.0526 87.2492C13.9029 86.5555 14.3441 85.8717 15.0378 85.722L58.3396 76.3788C59.0333 76.229 59.717 76.6703 59.8668 77.3639L65.3419 102.738C65.4917 103.432 65.0504 104.116 64.3568 104.265Z" fill="white"/>
<path id="Vector_5" d="M62.5015 102.559L22.331 111.227C21.6373 111.376 20.9536 110.935 20.8038 110.241L16.1972 88.8915C16.0474 88.1978 16.4886 87.5141 17.1823 87.3643L57.3528 78.6972C58.0465 78.5474 58.7302 78.9886 58.88 79.6823L63.4866 101.032C63.636 101.725 63.1952 102.409 62.5015 102.559Z" fill="url(#paint3_linear_707_2020)"/>
<g id="Group_4">
<path id="Vector_6" d="M46.9158 96.4168L41.4609 90.2656L38.8614 98.0654L37.9384 100.834L34.42 96.8664L32.7434 101.897L31.0664 106.928L36.2618 105.865L41.4569 104.802L44.3162 104.217L52.3707 102.568L46.9158 96.4168Z" fill="white"/>
<path id="Vector_7" d="M38.3532 89.0134C38.6936 90.6771 37.6212 92.3015 35.9575 92.6422C34.2938 92.9826 32.6694 91.9103 32.3287 90.2465C31.9883 88.5828 33.0606 86.9585 34.7243 86.6177C36.3877 86.2773 38.0124 87.35 38.3532 89.0134Z" fill="white"/>
</g>
</g>
<g id="Group_5">
<path id="Vector_8" d="M54.8352 111.897L10.5873 114.009C9.87852 114.043 9.27647 113.495 9.24261 112.787L8.0054 86.8581C7.97154 86.1494 8.51876 85.5473 9.22752 85.5135L53.4755 83.4019C54.1842 83.368 54.7863 83.9152 54.8202 84.624L56.0574 110.553C56.0912 111.261 55.544 111.863 54.8352 111.897Z" fill="white"/>
<path id="Vector_9" d="M53.2909 109.91L12.2427 111.869C11.5339 111.903 10.9319 111.356 10.898 110.647L9.85696 88.8304C9.8231 88.1217 10.3703 87.5196 11.0791 87.4857L52.1277 85.5269C52.8364 85.493 53.4385 86.0402 53.4723 86.749L54.5134 108.566C54.5472 109.274 54 109.877 53.2909 109.91Z" fill="url(#paint4_linear_707_2020)"/>
<g id="Group_6">
<path id="Vector_10" d="M38.9218 101.295L34.55 94.332L30.7058 101.599L29.3413 104.179L26.5217 99.6879L24.0421 104.376L21.5625 109.063L26.8617 108.867L32.1613 108.67L35.0777 108.562L43.2936 108.258L38.9218 101.295Z" fill="white"/>
<path id="Vector_11" d="M31.6982 92.5859C31.7611 94.2827 30.4367 95.7095 28.7394 95.7724C27.0426 95.8353 25.6159 94.5109 25.5529 92.8137C25.49 91.1168 26.8144 89.6901 28.5117 89.6272C30.2085 89.5642 31.6352 90.889 31.6982 92.5859Z" fill="white"/>
</g>
</g>
<path id="Vector_12" d="M185.899 78.4061C192.861 78.4061 198.615 72.829 198.665 65.8672C198.665 65.819 198.665 65.7708 198.665 65.7229C198.665 58.3096 194.616 51.8456 188.612 48.4096C188.257 34.4028 176.799 23.1549 162.707 23.1549C156.141 23.1549 150.15 25.6006 145.583 29.624C140.96 16.1901 128.212 6.53711 113.209 6.53711C98.4512 6.53711 85.8751 15.8766 81.0672 28.9671C76.6063 25.3349 70.9159 23.1549 64.7148 23.1549C51.5117 23.1549 40.6218 33.0287 39.0074 45.7939C38.8701 45.7909 38.734 45.7836 38.5956 45.7836C27.5836 45.7836 18.6562 54.7109 18.6562 65.7229C18.6562 65.7711 18.6566 65.8193 18.6566 65.8672C18.7059 72.829 24.46 78.4061 31.4218 78.4061H185.899Z" fill="url(#paint5_linear_707_2020)"/>
<path id="Vector_13" d="M120.312 34.5965V74.059C120.312 74.8663 120.967 75.5206 121.774 75.5206H176.703C177.51 75.5206 178.165 74.8663 178.165 74.059V34.5965C178.165 33.7891 177.51 33.1348 176.703 33.1348H121.774C120.967 33.1351 120.312 33.7894 120.312 34.5965Z" fill="url(#paint6_linear_707_2020)"/>
<path id="Vector_14" d="M53 34.5965V74.059C53 74.8663 53.6543 75.5206 54.4617 75.5206H109.39C110.198 75.5206 110.852 74.8663 110.852 74.059V34.5965C110.852 33.7891 110.198 33.1348 109.39 33.1348H54.4617C53.6543 33.1351 53 33.7894 53 34.5965Z" fill="url(#paint7_linear_707_2020)"/>
<g id="Group_7">
<path id="Vector_15" d="M221.112 114.406L176.826 115.456C176.116 115.473 175.528 114.912 175.511 114.202L174.895 88.251C174.878 87.5415 175.44 86.9527 176.149 86.9358L220.435 85.8851C221.144 85.8682 221.733 86.4298 221.75 87.1393L222.366 113.09C222.383 113.8 221.821 114.389 221.112 114.406Z" fill="white"/>
<path id="Vector_16" d="M219.612 112.383L178.529 113.358C177.819 113.375 177.23 112.813 177.213 112.104L176.696 90.2686C176.679 89.5591 177.24 88.9703 177.95 88.9533L219.033 87.9789C219.743 87.962 220.332 88.5235 220.349 89.233L220.866 111.068C220.883 111.777 220.322 112.366 219.612 112.383Z" fill="url(#paint8_linear_707_2020)"/>
<g id="Group_8">
<path id="Vector_17" d="M205.451 103.425L201.247 96.3594L197.23 103.533L195.804 106.079L193.092 101.522L190.501 106.149L187.91 110.775L193.213 110.706L198.515 110.637L201.433 110.598L209.654 110.491L205.451 103.425Z" fill="white"/>
<path id="Vector_18" d="M198.434 94.5461C198.456 96.2441 197.098 97.6385 195.4 97.6609C193.702 97.683 192.308 96.3247 192.285 94.6267C192.263 92.9288 193.622 91.5344 195.32 91.512C197.018 91.4899 198.412 92.8482 198.434 94.5461Z" fill="white"/>
</g>
</g>
<g id="Group_9">
<path id="Vector_19" d="M213.07 114.363L168.801 115.99C168.092 116.016 167.496 115.463 167.47 114.753L166.517 88.8128C166.49 88.1036 167.044 87.5075 167.753 87.4813L212.022 85.8544C212.731 85.8283 213.327 86.3821 213.353 87.0912L214.306 113.032C214.333 113.741 213.779 114.337 213.07 114.363Z" fill="white"/>
<path id="Vector_20" d="M211.55 112.36L170.482 113.87C169.773 113.896 169.177 113.342 169.151 112.633L168.349 90.8063C168.322 90.0972 168.876 89.501 169.585 89.4749L210.653 87.9657C211.362 87.9396 211.958 88.4934 211.984 89.2026L212.786 111.029C212.813 111.738 212.259 112.334 211.55 112.36Z" fill="url(#paint9_linear_707_2020)"/>
<g id="Group_10">
<path id="Vector_21" d="M197.271 103.588L192.976 96.5781L189.053 103.803L187.66 106.368L184.89 101.846L182.359 106.506L179.828 111.166L185.129 111.028L190.431 110.889L193.348 110.813L201.567 110.599L197.271 103.588Z" fill="white"/>
<path id="Vector_22" d="M190.136 94.801C190.181 96.4986 188.841 97.9106 187.143 97.9548C185.446 97.9993 184.034 96.659 183.989 94.9615C183.945 93.2639 185.285 91.8519 186.983 91.8077C188.68 91.7635 190.092 93.1034 190.136 94.801Z" fill="white"/>
</g>
</g>
<g id="Group_11">
<path id="Vector_23" d="M120.316 34.5965V74.059C120.316 74.8663 120.971 75.5206 121.778 75.5206H176.707C177.514 75.5206 178.169 74.8663 178.169 74.059V34.5965C178.169 33.7891 177.514 33.1348 176.707 33.1348H121.778C120.971 33.1351 120.316 33.7894 120.316 34.5965Z" stroke="white" stroke-width="1.30189" stroke-miterlimit="10" stroke-dasharray="9.21 9.21"/>
</g>
<g id="Group_12">
<path id="Vector_24" d="M53.0039 34.5965V74.059C53.0039 74.8663 53.6582 75.5206 54.4656 75.5206H109.394C110.202 75.5206 110.856 74.8663 110.856 74.059V34.5965C110.856 33.7891 110.202 33.1348 109.394 33.1348H54.4656C53.6582 33.1351 53.0039 33.7894 53.0039 34.5965Z" stroke="white" stroke-width="1.30189" stroke-miterlimit="10" stroke-dasharray="9.21 9.21"/>
</g>
<path id="Vector_25" opacity="0.57" d="M177.497 77.5691L120.401 69.458C119.699 69.3582 119.21 68.7076 119.31 68.0051L124.105 34.247C124.205 33.5445 124.856 33.0558 125.558 33.1555L182.654 41.2662C183.357 41.3659 183.846 42.0166 183.746 42.7191L178.95 76.4772C178.85 77.1801 178.2 77.6688 177.497 77.5691Z" fill="url(#paint10_linear_707_2020)"/>
<path id="Vector_26" d="M165.371 70.002C165.371 70.002 165.447 71.517 166.25 72.5897C167.054 73.6625 168.028 74.1372 168.772 75.2625C169.357 76.1468 175.337 82.8194 176.164 80.6143C176.272 80.3255 176.19 80.0031 176.094 79.7094C175.201 76.9608 172.621 75.6313 170.398 74.0525L169.559 73.3946C169.559 73.3946 169.291 71.8467 168.421 70.9392L165.371 70.002Z" fill="url(#paint11_linear_707_2020)"/>
<g id="Group_13">
<g id="Group_14">
<g id="Group_15">
<path id="Vector_27" d="M180.288 51.4505C180.288 51.6172 180.289 51.774 180.29 51.9359C180.924 51.9988 181.563 52.025 182.199 52.0279C182.162 51.8141 182.134 51.6562 182.12 51.5753L182.256 51.1878C182.382 50.9121 182.508 50.6369 182.635 50.3616C182.716 50.1846 182.797 50.0072 182.878 49.8302C182.98 49.6083 183.013 49.3842 183.165 49.1818C183.298 49.0055 183.461 48.8539 183.61 48.6912C183.635 48.6647 183.66 48.6349 183.662 48.5985C183.666 48.5474 183.624 48.5025 183.585 48.4646C183.497 48.3773 183.399 48.2857 183.278 48.2629C183.21 48.25 183.141 48.2607 183.073 48.2714C182.972 48.2875 182.864 48.3056 182.774 48.3523C182.68 48.4005 182.657 48.4693 182.594 48.54C182.489 48.6563 182.322 48.7424 182.195 48.8392C182.219 48.8215 182.118 48.5043 182.111 48.473C182.075 48.3144 182.036 48.1694 181.944 48.0274C181.935 48.0138 181.925 47.9994 181.909 47.9946C181.894 47.9895 181.878 47.9954 181.863 47.999C181.797 48.0145 181.731 47.9843 181.666 47.9887C181.598 47.9931 181.546 48.0414 181.479 48.0513C181.409 48.062 181.337 48.0281 181.268 48.0126C181.151 47.9865 181.041 48.0115 180.931 48.041C180.874 48.0564 180.83 48.0715 180.769 48.0572C180.711 48.0436 180.656 48.0134 180.596 48.016C180.514 48.0196 180.476 48.098 180.424 48.1473C180.352 48.2139 180.287 48.1702 180.201 48.183C180.117 48.1959 180.081 48.2879 180.059 48.3674C179.976 48.6703 179.791 49.0475 179.789 49.3625C179.788 49.651 179.948 50.0183 180.018 50.3042C180.111 50.6865 180.205 51.0689 180.298 51.4512L180.288 51.4505Z" fill="url(#paint12_linear_707_2020)"/>
<path id="Vector_28" d="M180.762 59.8679C180.575 59.7567 180.408 59.618 180.289 59.4399C180.065 59.1043 180.05 58.691 180.047 58.3028C180.032 56.812 180.063 55.3238 180.142 53.8408C180.181 53.1 180.201 52.0891 180.274 51.3531L182.163 51.3398C182.163 51.3398 182.38 55.9825 182.736 58.3881C182.801 58.8334 182.858 59.3236 182.605 59.6806C182.228 60.2142 181.872 60.3293 181.218 60.0821C181.063 60.0232 180.906 59.9536 180.762 59.8679Z" fill="url(#paint13_linear_707_2020)"/>
</g>
</g>
<path id="Vector_29" d="M180.146 58.9148C179.93 59.349 179.987 59.8973 180.072 60.4718C180.278 61.8694 180.463 63.2689 180.654 64.6677C180.739 65.2907 180.824 65.9137 180.916 66.5364C181.104 67.8075 181.356 69.6784 183.065 69.6799C183.454 69.6802 183.892 69.3133 184.079 69.0134C184.22 68.7882 184.279 68.4997 184.291 68.185C184.316 67.5168 184.129 66.7281 184.059 66.1647C183.914 65.0077 183.748 63.8515 183.546 62.6989C183.416 61.9585 183.277 61.2184 183.102 60.4839C182.958 59.8789 182.838 59.1043 182.453 58.5839C182.043 58.029 181.289 58.072 180.769 58.3278C180.458 58.4813 180.263 58.6814 180.146 58.9148Z" fill="url(#paint14_linear_707_2020)"/>
<path id="Vector_30" d="M180.18 63.6915C180.41 65.6957 180.434 70.4587 182.776 70.6133C185.367 70.784 184.595 63.3379 184.595 63.3379L180.18 63.6915Z" fill="white"/>
</g>
<g id="Group_16">
<path id="Vector_31" d="M177.72 74.6234L120.624 66.5126C119.921 66.4129 119.433 65.7623 119.532 65.0598L124.328 31.3017C124.428 30.5992 125.078 30.1105 125.781 30.2102L182.877 38.3209C183.58 38.4206 184.068 39.0712 183.969 39.7738L179.173 73.5319C179.073 74.2348 178.422 74.7235 177.72 74.6234Z" fill="white"/>
<path id="Vector_32" d="M176.249 71.7412L123.229 64.2094C122.527 64.1096 122.038 63.459 122.138 62.7565L126.189 34.2372C126.289 33.5347 126.94 33.046 127.642 33.1457L180.662 40.6776C181.365 40.7773 181.853 41.4279 181.754 42.1305L177.702 70.6494C177.602 71.3522 176.952 71.8409 176.249 71.7412Z" fill="url(#paint15_linear_707_2020)"/>
<g id="Group_17">
<path id="Vector_33" d="M159.828 57.3471L155.989 47.502L149.382 55.7496L147.037 58.6774L144.561 52.3275L140.3 57.6473L136.039 62.9672L142.776 63.9972L149.514 65.0276L153.222 65.5947L163.668 67.1918L159.828 57.3471Z" fill="white"/>
<path id="Vector_34" d="M152.808 44.6101C152.478 46.7677 150.461 48.2489 148.304 47.9192C146.147 47.5895 144.665 45.5728 144.995 43.4156C145.325 41.258 147.342 39.7765 149.499 40.1066C151.656 40.4363 153.138 42.4529 152.808 44.6101Z" fill="white"/>
</g>
</g>
<path id="Vector_35" d="M179.761 72.3223H176.387V73.1742H179.761V72.3223Z" fill="#F2F2F2"/>
<path id="Vector_36" d="M179.764 73.459H177.242V74.3102H179.764V73.459Z" fill="#F2F2F2"/>
<path id="Vector_37" d="M179.76 74.5918H178.074V75.4422H179.76V74.5918Z" fill="#F2F2F2"/>
<path id="Vector_38" d="M179.76 75.7266H178.918V76.5777H179.76V75.7266Z" fill="#F2F2F2"/>
<path id="Vector_39" d="M177.397 95.7405C176.686 93.0184 176.573 90.1447 176.528 87.3438C176.505 85.9524 177.206 80.8619 177.285 79.4708C177.433 76.8371 177.979 77.3405 181.12 78.011C181.517 78.0956 181.894 78.2579 182.229 78.4872C186.178 81.1842 183.839 87.3667 182.77 90.8509C182.306 92.3641 181.659 94.1717 181.101 95.6529C179.071 97.4208 177.397 95.7405 177.397 95.7405Z" fill="url(#paint16_linear_707_2020)"/>
<g id="Group_18">
<path id="Vector_40" d="M182.893 114.052C182.842 113.822 182.72 113.6 182.618 113.382C182.588 113.32 182.345 112.712 182.336 112.642C182.204 111.62 182.13 108.771 182.13 108.771L179.293 108.99C179.293 108.99 179.919 111.406 179.651 112.884H179.654C178.464 113.692 176.313 114.823 176.313 114.823C176.313 114.823 173.822 115.462 173.695 115.532C173.567 115.602 173.246 115.721 172.902 116.101C172.902 116.101 172.666 116.781 175.869 116.994C175.869 116.994 177.261 117.173 179.42 116.632C179.89 116.548 180.36 116.463 180.831 116.38C181.314 116.293 182.772 116.115 182.95 115.956C183.019 115.895 183.064 115.835 183.092 115.774C183.308 115.305 182.998 114.529 182.893 114.052Z" fill="url(#paint17_linear_707_2020)"/>
<path id="Vector_41" d="M182.624 113.395C181.916 113.573 181.137 113.598 180.49 113.575C180.028 113.559 179.503 113.47 179.038 113.281C177.844 114.018 176.313 114.823 176.313 114.823C176.313 114.823 173.822 115.462 173.695 115.532C173.567 115.601 173.247 115.721 172.902 116.101C172.902 116.101 172.666 116.781 175.869 116.994C175.869 116.994 177.261 117.173 179.42 116.632C179.89 116.548 180.36 116.463 180.831 116.379C181.314 116.293 182.772 116.114 182.95 115.956C183.019 115.895 183.064 115.835 183.092 115.774C183.308 115.305 182.998 114.529 182.893 114.051C182.844 113.827 182.725 113.609 182.624 113.395Z" fill="url(#paint18_linear_707_2020)"/>
<path id="Vector_42" d="M182.204 110.143C182.461 106.768 182.643 99.3821 180.967 95.3205C180.704 94.682 179.997 94.0237 179.275 93.9954C178.717 93.9733 177.919 94.2544 177.613 94.7523C177.36 95.1638 177.349 96.4775 177.398 96.9313C177.537 98.217 178.705 106.407 179.26 110.277L182.204 110.143Z" fill="url(#paint19_linear_707_2020)"/>
</g>
<path id="Vector_43" d="M173.974 81.3574H180.076C180.084 81.3707 180.093 81.3828 180.1 81.3961L180.107 81.3574H184.346L184.353 81.3637C184.665 83.4675 184.304 84.9524 184.304 84.9524C183.698 87.6668 180.34 88.7296 179.193 89.017C178.543 90.3418 177.803 91.5702 177.242 92.5663C176.466 93.9452 175.658 95.3116 174.797 96.6397C172.437 97.9332 170.95 96.1959 170.95 96.1959C170.836 93.3844 171.34 90.553 171.894 87.807C172.117 86.6967 173.329 83.3067 173.974 81.3574Z" fill="url(#paint20_linear_707_2020)"/>
<g id="Group_19">
<path id="Vector_44" d="M174.448 114.712C174.423 114.478 174.326 114.244 174.248 114.016C174.226 113.951 174.05 113.32 174.049 113.249C174.03 112.218 174.268 109.379 174.268 109.379L171.426 109.285C171.426 109.285 171.783 111.756 171.354 113.195L171.357 113.196C170.086 113.869 167.823 114.757 167.823 114.757C167.823 114.757 165.278 115.119 165.144 115.174C165.009 115.229 164.677 115.313 164.293 115.653C164.293 115.653 163.984 116.303 167.144 116.866C167.144 116.866 168.509 117.196 170.713 116.895C171.19 116.863 171.667 116.831 172.144 116.799C172.633 116.766 174.102 116.748 174.296 116.611C174.371 116.557 174.423 116.503 174.458 116.445C174.723 116.003 174.501 115.197 174.448 114.712Z" fill="url(#paint21_linear_707_2020)"/>
<path id="Vector_45" d="M172.695 109.328C172.749 109.483 172.796 109.641 172.837 109.8C172.896 109.647 172.951 109.493 173.005 109.338L172.695 109.328Z" fill="#FFD9B6"/>
<path id="Vector_46" d="M174.247 114.016C174.235 113.978 174.171 113.751 174.119 113.553C174.009 113.609 173.9 113.663 173.794 113.714C172.57 114.298 171.26 114.209 169.971 113.908C169.946 113.902 169.923 113.895 169.901 113.888C168.845 114.355 167.823 114.756 167.823 114.756C167.823 114.756 165.278 115.119 165.144 115.174C165.009 115.229 164.677 115.313 164.293 115.653C164.293 115.653 163.984 116.303 167.144 116.866C167.144 116.866 168.509 117.196 170.713 116.895C171.19 116.863 171.667 116.831 172.144 116.799C172.633 116.766 174.102 116.748 174.296 116.611C174.371 116.557 174.423 116.503 174.458 116.445C174.724 116.003 174.501 115.197 174.449 114.712C174.423 114.478 174.326 114.243 174.247 114.016Z" fill="url(#paint22_linear_707_2020)"/>
<path id="Vector_47" d="M174.195 110.751C174.757 107.765 175.116 104.715 175.166 101.676C175.184 100.594 175.158 99.5091 175.052 98.432C174.944 97.3479 175.033 95.7857 173.885 95.2363C173.213 94.915 172.281 94.9467 171.631 95.3173C170.999 95.6768 170.869 96.4242 170.867 97.0918C170.864 98.3849 171.127 106.654 171.254 110.561C171.254 110.562 174.195 110.751 174.195 110.751Z" fill="url(#paint23_linear_707_2020)"/>
</g>
<path id="Vector_48" d="M174.621 62.0781L175.033 63.736L174.078 63.9737L174.621 62.0781Z" fill="url(#paint24_linear_707_2020)"/>
<path id="Vector_49" d="M177.326 63.8424C177.316 64.3723 177.211 67.4885 177.211 67.4885C177.531 67.851 179.083 67.9824 179.738 67.4285C180.259 66.988 180.314 66.5921 180.314 66.5921L180.123 62.041L177.326 63.8424Z" fill="url(#paint25_linear_707_2020)"/>
<path id="Vector_50" d="M179.892 58.5918L180.062 60.2143L180.322 62.6891L180.396 63.3854C178.818 66.0692 176.204 66.3529 175.357 65.4568C174.51 64.5608 174.129 59.443 174.129 59.443L179.892 58.5918Z" fill="url(#paint26_linear_707_2020)"/>
<path id="Vector_51" d="M179.183 65.6992C179.183 65.6992 177.191 61.4963 176.572 61.1463C175.954 60.7963 173.881 61.2891 172.778 59.6393C171.689 58.0109 172.347 57.1634 172.778 57.0828C173.209 57.0022 174.014 58.6001 175.442 57.6481C176.895 56.6791 179.859 56.6791 180.315 57.8365C180.315 57.8365 182.17 58.0249 181.766 60.5545C181.362 63.0842 180.663 65.2101 180.044 65.3985L179.183 65.6992Z" fill="url(#paint27_linear_707_2020)"/>
<path id="Vector_52" d="M177.972 61.1263C178.611 61.6397 178.583 63.1223 177.349 63.94L176.844 61.5065C176.91 61.1311 177.551 60.7885 177.972 61.1263Z" fill="url(#paint28_linear_707_2020)"/>
<path id="Vector_53" d="M180.109 66.6843C178.342 66.7575 175.547 67.0637 174.886 69.0457C174.534 70.1019 174.485 71.2563 174.596 72.3577C174.684 73.2218 174.758 74.0866 174.794 74.9554C174.854 76.4226 174.934 78.0757 174.427 79.4807L173.496 82.7092C173.496 82.7092 180.266 86.4874 184.573 82.1259C184.573 82.1259 185.199 70.5011 183.551 67.6429C183.351 67.2951 182.796 67.1052 182.449 66.9908C181.681 66.738 180.895 66.6519 180.109 66.6843Z" fill="url(#paint29_linear_707_2020)"/>
<path id="Vector_54" d="M167.179 72.69C167.179 72.69 167.487 72.5336 167.408 71.9658C167.329 71.398 167.172 70.0596 167.172 70.0596C167.172 70.0596 167.211 69.5889 167.39 69.7063C167.569 69.8241 167.95 70.1457 168.044 70.9759C168.044 70.9759 168.153 71.6917 168.32 71.886C168.488 72.0803 168.924 72.6072 168.951 73.3918C168.951 73.3918 167.59 73.7392 167.179 72.69Z" fill="url(#paint30_linear_707_2020)"/>
<g id="Group_20">
<path id="Vector_55" d="M176.447 80.6011C176.745 80.2592 176.823 79.7495 176.883 79.2096C177.027 77.8959 177.191 76.5858 177.349 75.2742C177.419 74.6902 177.489 74.1062 177.553 73.5207C177.683 72.3258 177.898 70.573 176.352 70.1675C176 70.0751 175.517 70.3037 175.276 70.5311C175.096 70.7018 174.974 70.9488 174.888 71.2307C174.707 71.8294 174.69 72.5875 174.621 73.1141C174.479 74.1956 174.355 75.2812 174.265 76.3724C174.208 77.0734 174.159 77.7759 174.143 78.4821C174.13 79.0635 174.056 79.7933 174.281 80.3549C174.52 80.9543 175.214 81.0938 175.744 80.9849C176.062 80.9197 176.286 80.7847 176.447 80.6011Z" fill="url(#paint31_linear_707_2020)"/>
</g>
<path id="Vector_56" d="M178.413 73.9513C178.32 72.3093 178.618 68.4718 176.308 68.0578C173.753 67.5997 174.015 73.6893 174.015 73.6893L178.413 73.9513Z" fill="white"/>
<g id="Group_21">
<g id="Group_22">
<path id="Vector_57" d="M44.9626 113.898C44.9972 113.651 45.1079 113.405 45.1988 113.166C45.2246 113.098 45.4321 112.434 45.4358 112.359C45.491 111.266 45.3331 108.246 45.3331 108.246L48.353 108.242C48.353 108.242 47.8907 110.851 48.297 112.393L48.2933 112.394C49.6196 113.151 51.9903 114.17 51.9903 114.17C51.9903 114.17 54.6789 114.64 54.8198 114.703C54.9604 114.766 55.31 114.866 55.7056 115.24C55.7056 115.24 56.0118 115.94 52.6402 116.431C52.6402 116.431 51.181 116.735 48.8523 116.341C48.3474 116.291 47.8425 116.241 47.338 116.191C46.8199 116.14 45.2618 116.071 45.0605 115.919C44.9824 115.86 44.9302 115.8 44.8952 115.737C44.627 115.258 44.8904 114.412 44.9626 113.898Z" fill="url(#paint32_linear_707_2020)"/>
<path id="Vector_58" d="M45.1979 113.167C45.213 113.127 45.2884 112.889 45.3506 112.68C45.465 112.744 45.5788 112.804 45.6892 112.861C46.9687 113.522 48.3616 113.472 49.7397 113.197C49.7659 113.192 49.7902 113.185 49.8144 113.178C50.9192 113.709 51.9897 114.17 51.9897 114.17C51.9897 114.17 54.6783 114.64 54.8192 114.703C54.9598 114.766 55.3094 114.866 55.705 115.24C55.705 115.24 56.0112 115.94 52.6396 116.431C52.6396 116.431 51.1805 116.735 48.8518 116.341C48.3469 116.291 47.842 116.241 47.3374 116.191C46.8193 116.14 45.2612 116.071 45.0599 115.919C44.9819 115.86 44.9296 115.8 44.8946 115.737C44.6271 115.259 44.891 114.412 44.9627 113.898C44.9958 113.651 45.107 113.405 45.1979 113.167Z" fill="url(#paint33_linear_707_2020)"/>
</g>
<path id="Vector_59" d="M49.0117 87.1033C48.9513 84.3867 48.3651 79.4335 46.1152 79.2686C45.2747 79.2071 44.4286 78.8988 43.6496 79.22C43.4641 79.2966 43.29 79.3926 43.1285 79.5052C42.2479 80.1187 41.7279 81.2205 41.6064 82.3086C41.4622 83.5959 41.7764 84.8858 42.0815 86.1447C42.7447 88.8778 43.3787 91.622 44.2457 94.2977C44.3701 94.6812 44.5077 95.065 44.687 95.4249C43.4523 102 45.3718 111.24 45.3718 111.24L48.1771 110.949C48.1771 110.949 49.1037 95.6814 49.1508 93.7961C49.16 93.427 49.1398 93.1337 49.1019 92.8967C49.3514 91.0277 49.0584 89.2123 49.0117 87.1033Z" fill="url(#paint34_linear_707_2020)"/>
</g>
<g id="Group_23">
<g id="Group_24">
<g id="Group_25">
<path id="Vector_60" d="M54.7416 76.8318C54.615 77.0817 52.0173 75.3425 51.7681 75.1695C50.6748 74.4104 43.8215 68.0465 47.2399 66.9775C47.765 66.8134 48.285 66.9907 48.6972 67.2469C50.5526 68.3998 55.4581 73.3505 55.4581 73.3505L54.7416 76.8318Z" fill="white"/>
</g>
<path id="Vector_61" d="M55.2039 76.7055C55.2039 76.7055 53.8287 73.9588 55.3489 72.931L55.0608 72.6211C55.0608 72.6211 54.3498 72.7812 53.8979 73.4196C53.6594 73.7564 52.8623 75.2214 53.4033 76.6592C53.4445 76.7692 54.6987 76.8914 54.6987 76.8914L55.2039 76.7055Z" fill="url(#paint35_linear_707_2020)"/>
</g>
<path id="Vector_62" d="M55.2379 63.8983C55.243 63.8998 55.2482 63.9012 55.2533 63.9023C55.4061 63.9446 55.5492 64.0322 55.6651 64.1393C55.7148 64.1853 55.9408 64.3653 55.9316 64.4333C55.9463 64.3244 55.9614 64.2159 55.9765 64.1069C55.9974 63.952 55.9989 63.7599 56.1921 63.7283C56.2801 63.7139 56.3691 63.7389 56.4549 63.7632C56.5406 63.7875 56.63 63.8118 56.7176 63.7956C56.8059 63.779 56.8825 63.7235 56.969 63.6996C57.1758 63.6429 57.3844 63.775 57.5975 63.7971C57.7657 63.8144 57.9467 63.7643 58.0976 63.8401C58.1708 63.8766 58.2275 63.9388 58.2776 64.0035C58.4262 64.1952 58.6434 64.5397 58.5871 64.7947C58.5859 64.8002 57.6012 68.244 57.6012 68.244C57.4716 68.6963 57.5221 69.3222 57.4981 69.7918C57.4716 70.311 57.4521 70.8303 57.4359 71.3495C57.3966 72.6195 57.3406 77.4738 54.9192 76.5689C54.3992 76.3746 54.139 75.4822 54.015 74.9074C53.7228 73.5531 55.9216 67.7244 55.9216 67.7244L55.8138 66.5195L55.4804 65.3405C55.3913 65.0262 55.3203 64.7101 55.1341 64.4378C55.0546 64.3215 54.9762 64.1905 54.9898 64.0503C54.9957 63.9881 55.0248 63.9229 55.0815 63.8968C55.1297 63.874 55.1856 63.8843 55.2379 63.8983Z" fill="url(#paint36_linear_707_2020)"/>
</g>
<path id="Vector_63" d="M57.9797 65.5436C57.9797 65.5436 58.369 65.3967 58.1015 65.1137L58.6233 65.4722C58.6233 65.4722 59.2441 65.743 59.2416 64.7711C59.0517 64.6114 58.8618 64.4521 58.6719 64.2924C58.5412 64.1827 58.4095 64.0738 58.28 63.9626C58.2023 63.896 58.1677 63.8596 58.0636 63.8419C57.9171 63.8169 57.7696 63.7956 57.6227 63.7724C57.5318 63.758 57.4395 63.7437 57.3486 63.7577C57.2728 63.7694 57.2017 63.8004 57.1267 63.8169C56.9585 63.8537 56.784 63.814 56.6122 63.804C56.4937 63.7974 56.2479 63.7948 56.2173 63.952C56.1816 64.136 56.5404 64.3376 56.6663 64.4432C56.8617 64.607 57.0571 64.7708 57.2525 64.9349C57.495 65.1369 57.7364 65.3397 57.9797 65.5436Z" fill="url(#paint37_linear_707_2020)"/>
<g id="Group_26">
<g id="Group_27">
<path id="Vector_64" d="M37.0218 113.17C37.0822 112.928 37.2187 112.696 37.3343 112.468C37.367 112.403 37.6438 111.766 37.6555 111.691C37.8263 110.61 37.9893 107.59 37.9893 107.59L40.9926 107.906C40.9926 107.906 40.2566 110.451 40.4972 112.028L40.4936 112.028C41.7322 112.921 43.9815 114.185 43.9815 114.185C43.9815 114.185 46.6053 114.937 46.7385 115.015C46.8717 115.093 47.2085 115.229 47.5625 115.643C47.5625 115.643 47.7928 116.371 44.3881 116.502C44.3881 116.502 42.9051 116.65 40.6312 116.012C40.1344 115.909 39.638 115.805 39.1412 115.702C38.6315 115.596 37.0892 115.363 36.9052 115.19C36.8342 115.123 36.7882 115.058 36.7598 114.993C36.5442 114.488 36.896 113.674 37.0218 113.17Z" fill="url(#paint38_linear_707_2020)"/>
<path id="Vector_65" d="M37.3344 112.468C37.3536 112.43 37.454 112.201 37.5376 112C37.6447 112.076 37.751 112.148 37.8548 112.216C39.0571 113.009 40.4474 113.107 41.8472 112.979C41.8737 112.977 41.8984 112.973 41.9234 112.969C42.9656 113.614 43.9813 114.185 43.9813 114.185C43.9813 114.185 46.6051 114.937 46.7383 115.015C46.8715 115.093 47.2083 115.229 47.5623 115.643C47.5623 115.643 47.7926 116.371 44.3879 116.502C44.3879 116.502 42.9049 116.65 40.631 116.012C40.1342 115.909 39.6378 115.805 39.141 115.702C38.6313 115.596 37.089 115.364 36.905 115.19C36.834 115.123 36.788 115.058 36.7596 114.993C36.5443 114.488 36.8962 113.674 37.022 113.171C37.0827 112.928 37.2189 112.696 37.3344 112.468Z" fill="url(#paint39_linear_707_2020)"/>
</g>
<path id="Vector_66" d="M44.4445 82.9941C44.2936 81.4139 43.4914 79.9173 42.15 79.0517C41.1468 78.4048 39.9023 78.2723 38.859 78.9012C38.0236 79.4046 37.3859 80.3099 37.1599 81.4055C36.8453 82.9312 37.0576 84.5625 37.3469 86.0743C37.6471 87.6449 37.872 89.2302 38.162 90.8031C38.3316 91.7234 38.5315 92.639 38.6996 93.5576C38.7427 93.7931 38.7927 94.0415 38.8557 94.2891C36.7319 100.695 37.7101 110.571 37.7101 110.571L40.5304 110.578C40.5304 110.578 43.0523 95.5944 43.3125 93.6451C43.367 93.4372 43.42 93.233 43.4777 93.0427C43.8196 91.9185 44.0746 90.7206 44.2215 89.5846C44.4953 87.4701 44.648 85.1212 44.4445 82.9941Z" fill="url(#paint40_linear_707_2020)"/>
</g>
<path id="Vector_67" d="M36.4599 82.4069C36.812 80.6964 37.8667 79.1865 37.7685 77.415C37.6695 75.6272 37.5856 73.8376 37.4513 72.0525C37.3942 71.2944 37.2433 70.5098 37.2249 69.7536C37.2003 68.7383 37.7655 67.9364 38.4776 67.264C39.097 66.6797 39.8153 66.2384 40.5322 65.8064C40.5605 65.7891 40.5892 65.7722 40.6175 65.7549C40.8939 65.5885 41.1721 65.4211 41.4706 65.3092C42.7236 64.8386 44.3991 64.9206 45.5598 65.5963C46.302 66.0283 47.0439 66.4603 47.7862 66.8924C48.5748 67.3516 49.0495 68.2672 49.0042 69.2432C48.9064 71.3632 48.7956 73.4829 48.648 75.5992C48.5707 76.7062 48.3525 77.7708 48.4578 78.8851C48.5947 80.3372 49.104 81.9392 48.708 83.3902C48.513 84.1048 47.986 84.2966 47.3652 84.4184C45.7603 84.733 44.1628 85.1588 42.5355 85.3159C40.948 85.4694 39.3483 85.1547 37.8391 84.6267C36.8849 84.2929 36.2575 83.3898 36.4599 82.4069Z" fill="url(#paint41_linear_707_2020)"/>
<g id="Group_28">
<path id="Vector_68" d="M46.1641 67.9512L45.6489 70.4506L44.2773 68.19L45.1068 68.0619L45.3725 68.5985V68.0513L46.1641 67.9512Z" fill="url(#paint42_linear_707_2020)"/>
<path id="Vector_69" d="M45.7245 69.7402L45.2852 69.7829L45.7017 80.1182L47.0545 81.2101L47.9907 79.7513L45.7245 69.7402Z" fill="url(#paint43_linear_707_2020)"/>
</g>
<g id="Group_29">
<path id="Vector_70" d="M41.5156 63.4011L41.9499 64.8739C41.9499 64.8739 45.217 68.46 45.3686 68.598C45.5434 68.7574 45.2696 66.5151 45.5077 66.3403L44.8184 62.8477L41.5156 63.4011Z" fill="url(#paint44_linear_707_2020)"/>
<path id="Vector_71" d="M41.1602 59.7324L41.9061 63.7429L41.9547 64.3019C43.6055 66.1735 45.7053 65.9984 46.2352 65.1641C46.7652 64.3298 46.4288 58.8555 46.4288 58.8555L41.1602 59.7324Z" fill="url(#paint45_linear_707_2020)"/>
<path id="Vector_72" d="M45.8571 61.9648L45.7891 63.7165L46.7893 63.7555L45.8571 61.9648Z" fill="#FFB5BE"/>
<path id="Vector_73" d="M42.891 59.7642C42.891 59.7642 42.9848 60.3858 42.5432 61.3536C42.1012 62.3214 42.6643 63.9119 42.6643 63.9119L41.2662 62.2894L41.8109 65.1904C40.9052 63.7776 40.0393 62.2397 39.5366 60.6338C39.2456 59.7046 39.2434 58.4423 40.3234 58.0534C40.577 57.9621 41.1087 57.8351 41.1087 57.8351C41.1087 57.8351 41.2018 57.7196 41.2471 57.674C41.4311 57.4877 41.6659 57.352 41.904 57.2474C42.9863 56.7716 44.2905 56.8574 45.4291 57.0163C49.1444 57.5341 46.5209 60.0299 46.5209 60.0299L46.3892 59.2251C46.3892 59.2251 44.5363 60.8763 42.891 59.7642Z" fill="url(#paint46_linear_707_2020)"/>
<path id="Vector_74" d="M40.8651 61.8711C40.5195 62.3734 40.8562 63.4244 41.9102 63.7435L41.7501 61.9009C41.6228 61.6474 41.0925 61.5406 40.8651 61.8711Z" fill="url(#paint47_linear_707_2020)"/>
</g>
<g id="Group_30">
<g id="Group_31">
<g id="Group_32">
<g id="Group_33">
<path id="Vector_75" d="M45.3635 68.5962L46.2081 67.9338L45.4489 66.1387C45.4489 66.1387 45.323 68.5546 45.3635 68.5962Z" fill="url(#paint48_linear_707_2020)"/>
<path id="Vector_76" d="M45.4453 66.1389L46.2045 67.934L47.6143 68.207L45.4453 65.9766V66.1389Z" fill="url(#paint49_linear_707_2020)"/>
</g>
<path id="Vector_77" d="M41.2188 65.4435L43.4838 68.9575L44.937 67.7287L41.9489 64.873L41.2188 65.4435Z" fill="url(#paint50_linear_707_2020)"/>
</g>
<path id="Vector_78" d="M44.9355 67.7285L45.3661 68.597L44.4844 68.0932L44.9355 67.7285Z" fill="url(#paint51_linear_707_2020)"/>
</g>
</g>
<g id="Group_34">
<path id="Vector_79" d="M106.779 109.175L49.6825 101.063C48.98 100.964 48.4913 100.313 48.591 99.6106L53.3868 65.8525C53.4865 65.1499 54.1372 64.6612 54.8397 64.761L111.936 72.8717C112.638 72.9714 113.127 73.622 113.027 74.3245L108.232 108.083C108.132 108.786 107.481 109.274 106.779 109.175Z" fill="white"/>
<path id="Vector_80" d="M105.308 106.294L52.288 98.7617C51.5855 98.662 51.0968 98.0114 51.1965 97.3089L55.2478 68.79C55.3475 68.0874 55.9982 67.5987 56.7007 67.6985L109.721 75.2303C110.423 75.3301 110.912 75.9807 110.812 76.6832L106.761 105.202C106.661 105.905 106.01 106.393 105.308 106.294Z" fill="url(#paint52_linear_707_2020)"/>
<g id="Group_35">
<path id="Vector_81" d="M88.8867 91.8994L85.0473 82.0547L78.4413 90.3023L76.0961 93.2301L73.6194 86.8799L69.3587 92.1997L65.0977 97.5195L71.835 98.5499L78.5727 99.58L82.2807 100.147L92.7264 101.745L88.8867 91.8994Z" fill="white"/>
<path id="Vector_82" d="M81.8664 79.1628C81.5367 81.3204 79.52 82.8016 77.3628 82.4718C75.2052 82.1418 73.724 80.1255 74.0537 77.9683C74.3838 75.8107 76.4001 74.3295 78.5573 74.6592C80.7145 74.9889 82.1961 77.0052 81.8664 79.1628Z" fill="white"/>
</g>
</g>
<g id="Group_36">
<g id="Group_37">
<g id="Group_38">
<g id="Group_39">
<path id="Vector_83" d="M45.1398 79.7303C44.9278 79.9614 41.8039 76.9188 41.5577 76.6818C40.4761 75.6411 34.6463 68.0857 38.9118 67.7556C39.5672 67.7048 40.1284 68.0087 40.5439 68.3698C42.414 69.9948 46.8701 76.2711 46.8701 76.2711L45.1398 79.7303Z" fill="white"/>
</g>
<path id="Vector_84" d="M45.7004 79.6628L47.0693 78.9581L47.3373 78.7082L47.4362 78.4105L47.2677 77.1295L47.0984 75.8613L45.2139 76.0468L43.9531 77.3609V79.0052L45.0737 79.7827L45.7004 79.6628Z" fill="url(#paint53_linear_707_2020)"/>
</g>
</g>
<path id="Vector_85" d="M60.0939 77.2827C60.1631 77.0262 59.9556 76.8621 59.9563 76.6089C59.957 76.4238 60.0954 76.3083 60.2065 76.1806C60.3824 75.9782 60.2209 75.8199 60.1351 75.5815C60.116 75.5281 60.4325 75.23 60.4682 75.1881C60.5841 75.0512 60.7431 74.9467 60.8347 74.7899C60.9208 74.6431 60.8376 74.4304 60.7019 74.3435C60.5708 74.2596 60.445 74.3178 60.3125 74.3608C60.0089 74.4594 59.7053 74.5581 59.4017 74.6567C59.2895 74.6931 59.1655 74.7204 59.0624 74.7774C58.9781 74.8241 58.8928 74.8429 58.8188 74.7524C58.7643 74.6858 58.7559 74.5904 58.7783 74.5073C58.8011 74.4245 58.8512 74.3516 58.9053 74.285C58.9594 74.218 59.0186 74.1547 59.0639 74.0819C59.1831 73.8894 59.192 73.6333 59.0863 73.4327C59.0587 73.3808 59.0208 73.3297 58.9653 73.3105C58.8887 73.284 58.8019 73.3282 58.7548 73.3941C58.6922 73.4809 58.6801 73.5987 58.6392 73.6966C58.5564 73.8942 58.4295 74.0708 58.2852 74.228L57.7078 74.7086L56.8018 75.4622L55.767 75.9874C55.767 75.9874 46.6483 75.8129 45.5653 76.5828C45.1053 76.9096 44.4256 77.4881 44.4929 78.1019C44.7836 80.7515 51.3782 78.8677 51.8584 78.7183C52.2927 78.5833 55.6198 77.9507 56.0882 77.9323C56.0882 77.9323 59.6545 77.7921 59.66 77.7917C59.8908 77.7659 60.042 77.4752 60.0939 77.2827Z" fill="url(#paint54_linear_707_2020)"/>
</g>
<path id="Vector_86" d="M45.0846 79.7828C45.0846 79.7828 45.4306 76.6025 47.109 75.8614L46.879 75.606C46.879 75.606 45.4085 75.5817 45.0703 75.8753C44.7586 76.1458 43.3926 77.7577 43.6697 79.2687C43.6907 79.3842 44.9028 79.7272 44.9028 79.7272L45.0846 79.7828Z" fill="url(#paint55_linear_707_2020)"/>
</g>
<g id="Group_40">
<path id="Vector_87" d="M192.526 32.6671C195.703 32.6671 195.709 27.7285 192.526 27.7285C189.348 27.7285 189.343 32.6671 192.526 32.6671Z" fill="url(#paint56_linear_707_2020)"/>
<path id="Vector_88" d="M135.301 10.49C140.386 10.49 140.394 2.58789 135.301 2.58789C130.216 2.58789 130.208 10.49 135.301 10.49Z" fill="url(#paint57_linear_707_2020)"/>
<g id="Group_41">
<path id="Vector_89" d="M213.488 56.3685C218.573 56.3685 218.581 48.4668 213.488 48.4668C208.404 48.4668 208.396 56.3685 213.488 56.3685Z" fill="url(#paint58_linear_707_2020)"/>
</g>
<g id="Group_42">
<path id="Vector_90" d="M75.3917 6.80679C75.6493 6.80679 75.9069 6.80679 76.1649 6.80679C76.6068 6.82335 77.019 6.73135 77.4017 6.53042C77.7995 6.40089 78.144 6.17972 78.4347 5.86655C78.7479 5.57583 78.969 5.23138 79.0986 4.83357C79.2995 4.45085 79.3919 4.03869 79.375 3.59672C79.3367 3.31226 79.2984 3.0278 79.2601 2.74333C79.1078 2.19943 78.8325 1.72728 78.4347 1.3269C77.8065 0.750244 77.0345 0.38666 76.1649 0.38666C75.9073 0.38666 75.6497 0.38666 75.3917 0.38666C74.9498 0.3701 74.5376 0.4621 74.1549 0.663028C73.7567 0.792564 73.4126 1.01373 73.1219 1.3269C72.8087 1.61762 72.5876 1.96207 72.458 2.35988C72.2571 2.74223 72.1647 3.15476 72.1817 3.59672C72.2199 3.88119 72.2582 4.16565 72.2965 4.45012C72.4488 4.99402 72.7241 5.46617 73.1219 5.86655C73.7501 6.44321 74.5221 6.80679 75.3917 6.80679Z" fill="url(#paint59_linear_707_2020)"/>
</g>
<g id="Group_43">
<path id="Vector_91" d="M50.6109 18.5608C52.5175 18.5608 52.5208 15.5977 50.6109 15.5977C48.7043 15.5977 48.701 18.5608 50.6109 18.5608Z" fill="url(#paint60_linear_707_2020)"/>
</g>
<g id="Group_44">
<path id="Vector_92" d="M167.17 18.0675C170.348 18.0675 170.354 13.1289 167.17 13.1289C163.993 13.1285 163.988 18.0675 167.17 18.0675Z" fill="url(#paint61_linear_707_2020)"/>
</g>
<g id="Group_45">
<path id="Vector_93" d="M23.6129 40.0585C28.062 40.0585 28.0694 33.1445 23.6129 33.1445C19.1641 33.1442 19.1564 40.0585 23.6129 40.0585Z" fill="url(#paint62_linear_707_2020)"/>
</g>
</g>
</g>
</g>
<defs>
<linearGradient id="paint0_linear_707_2020" x1="51.5893" y1="119.55" x2="51.5893" y2="152.118" gradientUnits="userSpaceOnUse">
<stop stop-color="#0E090F"/>
<stop offset="0.1506" stop-color="#160E18" stop-opacity="0.8795"/>
<stop offset="0.6857" stop-color="#2F1E33" stop-opacity="0.4515"/>
<stop offset="1" stop-color="#38243D" stop-opacity="0.2"/>
</linearGradient>
<linearGradient id="paint1_linear_707_2020" x1="180.394" y1="119.55" x2="180.394" y2="152.118" gradientUnits="userSpaceOnUse">
<stop stop-color="#0E090F"/>
<stop offset="0.1506" stop-color="#160E18" stop-opacity="0.8795"/>
<stop offset="0.6857" stop-color="#2F1E33" stop-opacity="0.4515"/>
<stop offset="1" stop-color="#38243D" stop-opacity="0.2"/>
</linearGradient>
<linearGradient id="paint2_linear_707_2020" x1="120.241" y1="119.549" x2="120.241" y2="152.117" gradientUnits="userSpaceOnUse">
<stop stop-color="#0E090F"/>
<stop offset="0.1506" stop-color="#160E18" stop-opacity="0.8795"/>
<stop offset="0.6857" stop-color="#2F1E33" stop-opacity="0.4515"/>
<stop offset="1" stop-color="#38243D" stop-opacity="0.2"/>
</linearGradient>
<linearGradient id="paint3_linear_707_2020" x1="16.1679" y1="94.9618" x2="63.5157" y2="94.9618" gradientUnits="userSpaceOnUse">
<stop stop-color="#39C4E2" stop-opacity="0.97"/>
<stop offset="1" stop-color="#007A68"/>
</linearGradient>
<linearGradient id="paint4_linear_707_2020" x1="9.85534" y1="98.698" x2="54.5148" y2="98.698" gradientUnits="userSpaceOnUse">
<stop stop-color="#39C4E2" stop-opacity="0.97"/>
<stop offset="1" stop-color="#007A68"/>
</linearGradient>
<linearGradient id="paint5_linear_707_2020" x1="108.661" y1="8.58113" x2="108.661" y2="84.1513" gradientUnits="userSpaceOnUse">
<stop stop-color="#E97FB3"/>
<stop offset="0.212" stop-color="#AD97C6"/>
<stop offset="0.4946" stop-color="#64B4DE"/>
<stop offset="0.7295" stop-color="#2ECAEF"/>
<stop offset="0.9045" stop-color="#0DD7FA"/>
<stop offset="1" stop-color="#00DCFE"/>
</linearGradient>
<linearGradient id="paint6_linear_707_2020" x1="149.238" y1="70.755" x2="149.238" y2="25.8925" gradientUnits="userSpaceOnUse">
<stop stop-color="#E97FB3"/>
<stop offset="0.212" stop-color="#AD97C6"/>
<stop offset="0.4946" stop-color="#64B4DE"/>
<stop offset="0.7295" stop-color="#2ECAEF"/>
<stop offset="0.9045" stop-color="#0DD7FA"/>
<stop offset="1" stop-color="#00DCFE"/>
</linearGradient>
<linearGradient id="paint7_linear_707_2020" x1="81.9259" y1="70.755" x2="81.9259" y2="25.8925" gradientUnits="userSpaceOnUse">
<stop stop-color="#E97FB3"/>
<stop offset="0.212" stop-color="#AD97C6"/>
<stop offset="0.4946" stop-color="#64B4DE"/>
<stop offset="0.7295" stop-color="#2ECAEF"/>
<stop offset="0.9045" stop-color="#0DD7FA"/>
<stop offset="1" stop-color="#00DCFE"/>
</linearGradient>
<linearGradient id="paint8_linear_707_2020" x1="176.695" y1="100.668" x2="220.867" y2="100.668" gradientUnits="userSpaceOnUse">
<stop stop-color="#39C4E2" stop-opacity="0.97"/>
<stop offset="1" stop-color="#007A68"/>
</linearGradient>
<linearGradient id="paint9_linear_707_2020" x1="168.348" y1="100.918" x2="212.787" y2="100.918" gradientUnits="userSpaceOnUse">
<stop stop-color="#39C4E2" stop-opacity="0.97"/>
<stop offset="1" stop-color="#007A68"/>
</linearGradient>
<linearGradient id="paint10_linear_707_2020" x1="148.822" y1="72.6708" x2="155.774" y2="28.2049" gradientUnits="userSpaceOnUse">
<stop stop-color="#E97FB3"/>
<stop offset="0.212" stop-color="#AD97C6"/>
<stop offset="0.4946" stop-color="#64B4DE"/>
<stop offset="0.7295" stop-color="#2ECAEF"/>
<stop offset="0.9045" stop-color="#0DD7FA"/>
<stop offset="1" stop-color="#00DCFE"/>
</linearGradient>
<linearGradient id="paint11_linear_707_2020" x1="170.793" y1="70.0019" x2="170.793" y2="81.0583" gradientUnits="userSpaceOnUse">
<stop stop-color="#FFD1C1"/>
<stop offset="0.3861" stop-color="#FFCFBF"/>
<stop offset="0.5877" stop-color="#FFC9B7"/>
<stop offset="0.7467" stop-color="#FFBDA9"/>
<stop offset="0.8825" stop-color="#FFAE97"/>
<stop offset="1" stop-color="#FF9A7F"/>
</linearGradient>
<linearGradient id="paint12_linear_707_2020" x1="183.607" y1="48.4784" x2="175.365" y2="54.0252" gradientUnits="userSpaceOnUse">
<stop stop-color="#FFD1C1"/>
<stop offset="0.3861" stop-color="#FFCFBF"/>
<stop offset="0.5877" stop-color="#FFC9B7"/>
<stop offset="0.7467" stop-color="#FFBDA9"/>
<stop offset="0.8825" stop-color="#FFAE97"/>
<stop offset="1" stop-color="#FF9A7F"/>
</linearGradient>
<linearGradient id="paint13_linear_707_2020" x1="179.169" y1="56.0286" x2="182.884" y2="55.5391" gradientUnits="userSpaceOnUse">
<stop stop-color="#FFD1C1"/>
<stop offset="0.3861" stop-color="#FFCFBF"/>
<stop offset="0.5877" stop-color="#FFC9B7"/>
<stop offset="0.7467" stop-color="#FFBDA9"/>
<stop offset="0.8825" stop-color="#FFAE97"/>
<stop offset="1" stop-color="#FF9A7F"/>
</linearGradient>
<linearGradient id="paint14_linear_707_2020" x1="180.243" y1="64.1798" x2="183.958" y2="63.6902" gradientUnits="userSpaceOnUse">
<stop stop-color="#FFD1C1"/>
<stop offset="0.3861" stop-color="#FFCFBF"/>
<stop offset="0.5877" stop-color="#FFC9B7"/>
<stop offset="0.7467" stop-color="#FFBDA9"/>
<stop offset="0.8825" stop-color="#FFAE97"/>
<stop offset="1" stop-color="#FF9A7F"/>
</linearGradient>
<linearGradient id="paint15_linear_707_2020" x1="122.125" y1="52.4435" x2="181.766" y2="52.4435" gradientUnits="userSpaceOnUse">
<stop stop-color="#39C4E2" stop-opacity="0.97"/>
<stop offset="1" stop-color="#007A68"/>
</linearGradient>
<linearGradient id="paint16_linear_707_2020" x1="180.482" y1="77.4743" x2="180.482" y2="96.4619" gradientUnits="userSpaceOnUse">
<stop stop-color="#071786"/>
<stop offset="0.1509" stop-color="#05136B"/>
<stop offset="0.3236" stop-color="#041055"/>
<stop offset="0.5107" stop-color="#030E45"/>
<stop offset="0.7204" stop-color="#020C3B"/>
<stop offset="1" stop-color="#020C38"/>
</linearGradient>
<linearGradient id="paint17_linear_707_2020" x1="178.033" y1="117.022" x2="178.033" y2="108.771" gradientUnits="userSpaceOnUse">
<stop stop-color="#FFD1C1"/>
<stop offset="0.3861" stop-color="#FFCFBF"/>
<stop offset="0.5877" stop-color="#FFC9B7"/>
<stop offset="0.7467" stop-color="#FFBDA9"/>
<stop offset="0.8825" stop-color="#FFAE97"/>
<stop offset="1" stop-color="#FF9A7F"/>
</linearGradient>
<linearGradient id="paint18_linear_707_2020" x1="173.066" y1="114.549" x2="183.149" y2="115.615" gradientUnits="userSpaceOnUse">
<stop stop-color="#071786"/>
<stop offset="0.1509" stop-color="#05136B"/>
<stop offset="0.3236" stop-color="#041055"/>
<stop offset="0.5107" stop-color="#030E45"/>
<stop offset="0.7204" stop-color="#020C3B"/>
<stop offset="1" stop-color="#020C38"/>
</linearGradient>
<linearGradient id="paint19_linear_707_2020" x1="179.873" y1="110.277" x2="179.873" y2="93.9939" gradientUnits="userSpaceOnUse">
<stop stop-color="#071786"/>
<stop offset="0.1509" stop-color="#05136B"/>
<stop offset="0.3236" stop-color="#041055"/>
<stop offset="0.5107" stop-color="#030E45"/>
<stop offset="0.7204" stop-color="#020C3B"/>
<stop offset="1" stop-color="#020C38"/>
</linearGradient>
<linearGradient id="paint20_linear_707_2020" x1="177.707" y1="81.3575" x2="177.707" y2="100.559" gradientUnits="userSpaceOnUse">
<stop stop-color="#071786"/>
<stop offset="0.1509" stop-color="#05136B"/>
<stop offset="0.3236" stop-color="#041055"/>
<stop offset="0.5107" stop-color="#030E45"/>
<stop offset="0.7204" stop-color="#020C3B"/>
<stop offset="1" stop-color="#020C38"/>
</linearGradient>
<linearGradient id="paint21_linear_707_2020" x1="169.435" y1="117.022" x2="169.435" y2="109.285" gradientUnits="userSpaceOnUse">
<stop stop-color="#FFD1C1"/>
<stop offset="0.3861" stop-color="#FFCFBF"/>
<stop offset="0.5877" stop-color="#FFC9B7"/>
<stop offset="0.7467" stop-color="#FFBDA9"/>
<stop offset="0.8825" stop-color="#FFAE97"/>
<stop offset="1" stop-color="#FF9A7F"/>
</linearGradient>
<linearGradient id="paint22_linear_707_2020" x1="164.285" y1="115.287" x2="174.585" y2="115.287" gradientUnits="userSpaceOnUse">
<stop stop-color="#071786"/>
<stop offset="0.1509" stop-color="#05136B"/>
<stop offset="0.3236" stop-color="#041055"/>
<stop offset="0.5107" stop-color="#030E45"/>
<stop offset="0.7204" stop-color="#020C3B"/>
<stop offset="1" stop-color="#020C38"/>
</linearGradient>
<linearGradient id="paint23_linear_707_2020" x1="173.019" y1="110.751" x2="173.019" y2="95.0161" gradientUnits="userSpaceOnUse">
<stop stop-color="#071786"/>
<stop offset="0.1509" stop-color="#05136B"/>
<stop offset="0.3236" stop-color="#041055"/>
<stop offset="0.5107" stop-color="#030E45"/>
<stop offset="0.7204" stop-color="#020C3B"/>
<stop offset="1" stop-color="#020C38"/>
</linearGradient>
<linearGradient id="paint24_linear_707_2020" x1="175.17" y1="63.4996" x2="174.143" y2="62.9066" gradientUnits="userSpaceOnUse">
<stop stop-color="#E2B691"/>
<stop offset="1" stop-color="#EF9367"/>
</linearGradient>
<linearGradient id="paint25_linear_707_2020" x1="180.729" y1="65.9685" x2="177.256" y2="63.9633" gradientUnits="userSpaceOnUse">
<stop stop-color="#FFD1C1"/>
<stop offset="0.3861" stop-color="#FFCFBF"/>
<stop offset="0.5877" stop-color="#FFC9B7"/>
<stop offset="0.7467" stop-color="#FFBDA9"/>
<stop offset="0.8825" stop-color="#FFAE97"/>
<stop offset="1" stop-color="#FF9A7F"/>
</linearGradient>
<linearGradient id="paint26_linear_707_2020" x1="180.28" y1="63.5855" x2="173.872" y2="59.8863" gradientUnits="userSpaceOnUse">
<stop stop-color="#FFD1C1"/>
<stop offset="0.3861" stop-color="#FFCFBF"/>
<stop offset="0.5877" stop-color="#FFC9B7"/>
<stop offset="0.7467" stop-color="#FFBDA9"/>
<stop offset="0.8825" stop-color="#FFAE97"/>
<stop offset="1" stop-color="#FF9A7F"/>
</linearGradient>
<linearGradient id="paint27_linear_707_2020" x1="181.824" y1="61.3212" x2="172.184" y2="61.3212" gradientUnits="userSpaceOnUse">
<stop stop-color="#071786"/>
<stop offset="0.1509" stop-color="#05136B"/>
<stop offset="0.3236" stop-color="#041055"/>
<stop offset="0.5107" stop-color="#030E45"/>
<stop offset="0.7204" stop-color="#020C3B"/>
<stop offset="1" stop-color="#020C38"/>
</linearGradient>
<linearGradient id="paint28_linear_707_2020" x1="178.262" y1="62.8761" x2="176.583" y2="61.9067" gradientUnits="userSpaceOnUse">
<stop stop-color="#FFD1C1"/>
<stop offset="0.3861" stop-color="#FFCFBF"/>
<stop offset="0.5877" stop-color="#FFC9B7"/>
<stop offset="0.7467" stop-color="#FFBDA9"/>
<stop offset="0.8825" stop-color="#FFAE97"/>
<stop offset="1" stop-color="#FF9A7F"/>
</linearGradient>
<linearGradient id="paint29_linear_707_2020" x1="178.882" y1="71.7865" x2="178.685" y2="64.7035" gradientUnits="userSpaceOnUse">
<stop stop-color="#E7E6FF"/>
<stop offset="0.3393" stop-color="#C9D2F8"/>
<stop offset="0.7637" stop-color="#AABDF1"/>
<stop offset="1" stop-color="#9EB5EE"/>
</linearGradient>
<linearGradient id="paint30_linear_707_2020" x1="168.701" y1="73.5366" x2="166.688" y2="70.0506" gradientUnits="userSpaceOnUse">
<stop stop-color="#FFD1C1"/>
<stop offset="0.3861" stop-color="#FFCFBF"/>
<stop offset="0.5877" stop-color="#FFC9B7"/>
<stop offset="0.7467" stop-color="#FFBDA9"/>
<stop offset="0.8825" stop-color="#FFAE97"/>
<stop offset="1" stop-color="#FF9A7F"/>
</linearGradient>
<linearGradient id="paint31_linear_707_2020" x1="175.882" y1="70.1469" x2="175.882" y2="81.0189" gradientUnits="userSpaceOnUse">
<stop stop-color="#FFD1C1"/>
<stop offset="0.3861" stop-color="#FFCFBF"/>
<stop offset="0.5877" stop-color="#FFC9B7"/>
<stop offset="0.7467" stop-color="#FFBDA9"/>
<stop offset="0.8825" stop-color="#FFAE97"/>
<stop offset="1" stop-color="#FF9A7F"/>
</linearGradient>
<linearGradient id="paint32_linear_707_2020" x1="52.9513" y1="110.47" x2="44.6279" y2="115.275" gradientUnits="userSpaceOnUse">
<stop stop-color="#F4F3F1"/>
<stop offset="1" stop-color="#FFB2BC"/>
</linearGradient>
<linearGradient id="paint33_linear_707_2020" x1="46.8511" y1="117.721" x2="52.5184" y2="112.054" gradientUnits="userSpaceOnUse">
<stop stop-color="#071786"/>
<stop offset="0.1509" stop-color="#05136B"/>
<stop offset="0.3236" stop-color="#041055"/>
<stop offset="0.5107" stop-color="#030E45"/>
<stop offset="0.7204" stop-color="#020C3B"/>
<stop offset="1" stop-color="#020C38"/>
</linearGradient>
<linearGradient id="paint34_linear_707_2020" x1="57.1808" y1="98.2324" x2="48.6548" y2="96.0025" gradientUnits="userSpaceOnUse">
<stop stop-color="#071786"/>
<stop offset="0.1509" stop-color="#05136B"/>
<stop offset="0.3236" stop-color="#041055"/>
<stop offset="0.5107" stop-color="#030E45"/>
<stop offset="0.7204" stop-color="#020C3B"/>
<stop offset="1" stop-color="#020C38"/>
</linearGradient>
<linearGradient id="paint35_linear_707_2020" x1="55.349" y1="74.7565" x2="53.2187" y2="74.7565" gradientUnits="userSpaceOnUse">
<stop stop-color="#F9FBFC"/>
<stop offset="0.5289" stop-color="#F7FAFC"/>
<stop offset="0.7194" stop-color="#F0F5FD"/>
<stop offset="0.8552" stop-color="#E5ECFD"/>
<stop offset="0.9642" stop-color="#D4E0FF"/>
<stop offset="0.9973" stop-color="#CDDBFF"/>
</linearGradient>
<linearGradient id="paint36_linear_707_2020" x1="53.9882" y1="70.1831" x2="58.596" y2="70.1831" gradientUnits="userSpaceOnUse">
<stop stop-color="#FACED3"/>
<stop offset="1" stop-color="#FFB2BC"/>
</linearGradient>
<linearGradient id="paint37_linear_707_2020" x1="57.4683" y1="65.3983" x2="57.922" y2="63.7988" gradientUnits="userSpaceOnUse">
<stop stop-color="#F4F3F1"/>
<stop offset="1" stop-color="#FFB2BC"/>
</linearGradient>
<linearGradient id="paint38_linear_707_2020" x1="44.6659" y1="110.626" x2="36.8426" y2="115.143" gradientUnits="userSpaceOnUse">
<stop stop-color="#F4F3F1"/>
<stop offset="1" stop-color="#FFB2BC"/>
</linearGradient>
<linearGradient id="paint39_linear_707_2020" x1="39.076" y1="117.361" x2="44.1841" y2="112.253" gradientUnits="userSpaceOnUse">
<stop stop-color="#071786"/>
<stop offset="0.1509" stop-color="#05136B"/>
<stop offset="0.3236" stop-color="#041055"/>
<stop offset="0.5107" stop-color="#030E45"/>
<stop offset="0.7204" stop-color="#020C3B"/>
<stop offset="1" stop-color="#020C38"/>
</linearGradient>
<linearGradient id="paint40_linear_707_2020" x1="43.5586" y1="93.4309" x2="28.999" y2="98.2186" gradientUnits="userSpaceOnUse">
<stop stop-color="#071786"/>
<stop offset="0.1509" stop-color="#05136B"/>
<stop offset="0.3236" stop-color="#041055"/>
<stop offset="0.5107" stop-color="#030E45"/>
<stop offset="0.7204" stop-color="#020C3B"/>
<stop offset="1" stop-color="#020C38"/>
</linearGradient>
<linearGradient id="paint41_linear_707_2020" x1="42.9018" y1="72.8298" x2="43.0985" y2="65.5827" gradientUnits="userSpaceOnUse">
<stop stop-color="#E7E6FF"/>
<stop offset="0.3393" stop-color="#C9D2F8"/>
<stop offset="0.7637" stop-color="#AABDF1"/>
<stop offset="1" stop-color="#9EB5EE"/>
</linearGradient>
<linearGradient id="paint42_linear_707_2020" x1="46.1643" y1="69.2009" x2="44.2772" y2="69.2009" gradientUnits="userSpaceOnUse">
<stop stop-color="#071786"/>
<stop offset="0.1509" stop-color="#05136B"/>
<stop offset="0.3236" stop-color="#041055"/>
<stop offset="0.5107" stop-color="#030E45"/>
<stop offset="0.7204" stop-color="#020C3B"/>
<stop offset="1" stop-color="#020C38"/>
</linearGradient>
<linearGradient id="paint43_linear_707_2020" x1="47.9905" y1="75.4752" x2="45.2852" y2="75.4752" gradientUnits="userSpaceOnUse">
<stop stop-color="#071786"/>
<stop offset="0.1509" stop-color="#05136B"/>
<stop offset="0.3236" stop-color="#041055"/>
<stop offset="0.5107" stop-color="#030E45"/>
<stop offset="0.7204" stop-color="#020C3B"/>
<stop offset="1" stop-color="#020C38"/>
</linearGradient>
<linearGradient id="paint44_linear_707_2020" x1="45.4036" y1="65.5867" x2="42.1319" y2="66.2856" gradientUnits="userSpaceOnUse">
<stop stop-color="#F4F3F1"/>
<stop offset="1" stop-color="#FFB2BC"/>
</linearGradient>
<linearGradient id="paint45_linear_707_2020" x1="47.3206" y1="61.1577" x2="41.5958" y2="63.3752" gradientUnits="userSpaceOnUse">
<stop stop-color="#F4F3F1"/>
<stop offset="1" stop-color="#FFB2BC"/>
</linearGradient>
<linearGradient id="paint46_linear_707_2020" x1="41.9115" y1="54.7177" x2="44.054" y2="61.145" gradientUnits="userSpaceOnUse">
<stop stop-color="#071786"/>
<stop offset="0.1509" stop-color="#05136B"/>
<stop offset="0.3236" stop-color="#041055"/>
<stop offset="0.5107" stop-color="#030E45"/>
<stop offset="0.7204" stop-color="#020C3B"/>
<stop offset="1" stop-color="#020C38"/>
</linearGradient>
<linearGradient id="paint47_linear_707_2020" x1="41.9936" y1="62.5292" x2="40.8899" y2="62.9567" gradientUnits="userSpaceOnUse">
<stop stop-color="#F4F3F1"/>
<stop offset="1" stop-color="#FFB2BC"/>
</linearGradient>
<linearGradient id="paint48_linear_707_2020" x1="45.7816" y1="68.5961" x2="45.7816" y2="66.1387" gradientUnits="userSpaceOnUse">
<stop stop-color="#E7E6FF"/>
<stop offset="0.3393" stop-color="#C9D2F8"/>
<stop offset="0.7637" stop-color="#AABDF1"/>
<stop offset="1" stop-color="#9EB5EE"/>
</linearGradient>
<linearGradient id="paint49_linear_707_2020" x1="46.5299" y1="68.2068" x2="46.5299" y2="65.9766" gradientUnits="userSpaceOnUse">
<stop stop-color="#F9FBFC"/>
<stop offset="0.9973" stop-color="#CDDBFF"/>
</linearGradient>
<linearGradient id="paint50_linear_707_2020" x1="43.0778" y1="68.9576" x2="43.0778" y2="64.8729" gradientUnits="userSpaceOnUse">
<stop stop-color="#F9FBFC"/>
<stop offset="0.3069" stop-color="#F0F5FD"/>
<stop offset="0.8031" stop-color="#D8E3FE"/>
<stop offset="0.9973" stop-color="#CDDBFF"/>
</linearGradient>
<linearGradient id="paint51_linear_707_2020" x1="44.9249" y1="68.5969" x2="44.9249" y2="67.7284" gradientUnits="userSpaceOnUse">
<stop stop-color="#E7E6FF"/>
<stop offset="0.3393" stop-color="#C9D2F8"/>
<stop offset="0.7637" stop-color="#AABDF1"/>
<stop offset="1" stop-color="#9EB5EE"/>
</linearGradient>
<linearGradient id="paint52_linear_707_2020" x1="51.1836" y1="86.9958" x2="110.825" y2="86.9958" gradientUnits="userSpaceOnUse">
<stop stop-color="#39C4E2" stop-opacity="0.97"/>
<stop offset="1" stop-color="#007A68"/>
</linearGradient>
<linearGradient id="paint53_linear_707_2020" x1="47.4361" y1="77.822" x2="43.9529" y2="77.822" gradientUnits="userSpaceOnUse">
<stop stop-color="#F9FBFC"/>
<stop offset="0.3069" stop-color="#F0F5FD"/>
<stop offset="0.8031" stop-color="#D8E3FE"/>
<stop offset="0.9973" stop-color="#CDDBFF"/>
</linearGradient>
<linearGradient id="paint54_linear_707_2020" x1="51.1049" y1="69.6524" x2="53.3332" y2="79.1634" gradientUnits="userSpaceOnUse">
<stop stop-color="#F4F3F1"/>
<stop offset="1" stop-color="#FFB2BC"/>
</linearGradient>
<linearGradient id="paint55_linear_707_2020" x1="47.1092" y1="77.6941" x2="43.6331" y2="77.6941" gradientUnits="userSpaceOnUse">
<stop stop-color="#F9FBFC"/>
<stop offset="0.3069" stop-color="#F0F5FD"/>
<stop offset="0.8031" stop-color="#D8E3FE"/>
<stop offset="0.9973" stop-color="#CDDBFF"/>
</linearGradient>
<linearGradient id="paint56_linear_707_2020" x1="192.818" y1="71.0764" x2="192.44" y2="18.1344" gradientUnits="userSpaceOnUse">
<stop stop-color="#B866FA"/>
<stop offset="1" stop-color="#78DDFE"/>
</linearGradient>
<linearGradient id="paint57_linear_707_2020" x1="135.51" y1="35.7972" x2="135.132" y2="-17.1451" gradientUnits="userSpaceOnUse">
<stop stop-color="#B866FA"/>
<stop offset="1" stop-color="#78DDFE"/>
</linearGradient>
<linearGradient id="paint58_linear_707_2020" x1="213.166" y1="61.9204" x2="213.516" y2="51.6018" gradientUnits="userSpaceOnUse">
<stop stop-color="#B866FA"/>
<stop offset="1" stop-color="#78DDFE"/>
</linearGradient>
<linearGradient id="paint59_linear_707_2020" x1="76.0911" y1="47.3965" x2="75.713" y2="-5.54539" gradientUnits="userSpaceOnUse">
<stop stop-color="#B866FA"/>
<stop offset="1" stop-color="#78DDFE"/>
</linearGradient>
<linearGradient id="paint60_linear_707_2020" x1="50.8051" y1="44.2767" x2="50.427" y2="-8.66534" gradientUnits="userSpaceOnUse">
<stop stop-color="#B866FA"/>
<stop offset="1" stop-color="#78DDFE"/>
</linearGradient>
<linearGradient id="paint61_linear_707_2020" x1="167.439" y1="53.1773" x2="167.061" y2="0.235254" gradientUnits="userSpaceOnUse">
<stop stop-color="#B866FA"/>
<stop offset="1" stop-color="#78DDFE"/>
</linearGradient>
<linearGradient id="paint62_linear_707_2020" x1="23.7869" y1="60.9615" x2="23.4087" y2="8.0194" gradientUnits="userSpaceOnUse">
<stop stop-color="#B866FA"/>
<stop offset="1" stop-color="#78DDFE"/>
</linearGradient>
</defs>
</svg>
