<svg width="752" height="513" viewBox="0 0 752 513" fill="none" xmlns="http://www.w3.org/2000/svg">
<path d="M725.901 462.375H26.0995C11.6847 462.375 0 450.69 0 436.276V26.0995C0 11.6847 11.6855 0 26.0995 0H725.901C740.315 0 752 11.6855 752 26.0995V436.275C752 450.69 740.314 462.375 725.901 462.375Z" fill="#212121"/>
<path d="M724.046 27.9536H27.9528V434.423H724.046V27.9536Z" fill="#424242"/>
<path d="M633.961 512.879H600.457C597.845 512.879 595.43 511.489 594.118 509.229L551.39 462.375H595.535L636.66 506.712C637.179 507.273 637.581 507.961 637.67 508.719C637.917 510.823 636.296 512.879 633.961 512.879Z" fill="#212121"/>
<path d="M118.039 512.879H151.542C154.154 512.879 156.57 511.489 157.881 509.229L200.61 462.375H156.464L115.34 506.712C114.821 507.273 114.419 507.961 114.33 508.719C114.082 510.823 115.704 512.879 118.039 512.879Z" fill="#212121"/>
<path d="M551.389 462.375L565.249 477.572H609.631L595.535 462.375H551.389Z" fill="#161616"/>
<path d="M156.465 462.375L142.37 477.572H186.751L200.611 462.375H156.465Z" fill="#161616"/>
<path opacity="0.1" d="M725.901 0H26.0995C11.6847 0 0 11.6855 0 26.0995V118.588L752 332.044V26.0995C752 11.6855 740.314 0 725.901 0Z" fill="white"/>
</svg>
