<svg width="133" height="132" viewBox="0 0 133 132" fill="none" xmlns="http://www.w3.org/2000/svg">
<path d="M68.2774 0.0290894C34.375 -0.958192 5.00831 23.3013 0.571499 55.1328C-4.27945 89.9362 22.4198 121.251 55.2721 126.266C96.1349 132.505 135.769 96.4146 132.211 57.2621C129.529 27.7641 102.74 1.03264 68.2774 0.0290894Z" fill="#F4F7FA"/>
<path d="M59.6771 79.1488C73.9936 69.6491 95.4895 79.2804 96.4997 76.0807C96.5773 75.8349 97.0364 74.6832 93.6374 72.7208C83.0895 66.6309 74.9941 64.7221 77.6708 50.7052C80.3475 36.6882 74.5028 26.1687 60.9827 23.8473C46.7549 21.4044 39.6808 1.12417 26.7261 4.28959C4.15325 9.80575 17.1062 41.3459 36.7192 59.1304C48.555 69.8627 45.453 84.7095 51.272 84.984C54.3457 85.129 55.0999 82.1861 59.6771 79.1488Z" fill="url(#paint0_linear_1540_7215)"/>
<g opacity="0.4">
<mask id="mask0_1540_7215" style="mask-type:luminance" maskUnits="userSpaceOnUse" x="14" y="3" width="83" height="85">
<path d="M61.3096 87.6001C73.5535 87.5365 106.312 80.0378 93.6414 72.7227C83.0935 66.6328 74.9981 64.724 77.6748 50.7071C80.3516 36.6901 74.5068 26.1707 60.9867 23.8493C46.7589 21.4064 39.6849 1.12605 26.7301 4.29156C4.15714 9.80767 17.1101 41.3478 36.7232 59.1323C53.2107 74.0825 42.0238 87.7003 61.3096 87.6001Z" fill="white"/>
</mask>
<g mask="url(#mask0_1540_7215)">
<path d="M71.7019 87.753C71.6044 87.4326 70.2557 81.4672 70.1561 81.1474C60.9283 51.5169 42.6614 24.3141 17.8293 4.77148L17.3984 5.26292C42.1664 24.7551 60.3789 51.9 69.5533 81.4633C69.6943 81.5627 70.8547 87.4998 70.995 87.6004C71.1542 87.7146 71.5434 87.6378 71.7019 87.753Z" fill="#FCFDFE"/>
<path d="M60.7616 59.2169L61.4307 59.1103C58.6135 44.4719 72.808 26.2582 72.9517 26.0759L72.405 25.6875C72.2594 25.872 57.8924 44.308 60.7616 59.2169Z" fill="#FCFDFE"/>
<path d="M44.8516 33.2585L45.33 32.8078C32.6059 20.753 8.42775 20.1509 8.18461 20.1465L8.17969 20.7889C8.41969 20.793 32.3259 21.3913 44.8516 33.2585Z" fill="#FCFDFE"/>
</g>
</g>
<g opacity="0.5">
<path d="M48.1995 73.9053C49.9275 70.5898 53.7842 62.7935 46.7639 60.4336C40.9196 58.4689 36.7113 58.3332 36.6346 51.1097C36.5579 43.8861 32.6034 39.2521 25.662 39.4553C18.3572 39.6691 12.8144 30.315 6.70344 33.1841C-3.9445 38.1837 4.72963 54.3796 17.1587 59.3948C29.5876 64.41 22.1321 68.4783 21.5141 74.3675C21.4877 74.9175 21.4892 75.7721 21.6825 76.7805C22.8724 82.9888 29.2707 84.2619 33.7059 89.459C39.7548 96.5466 46.8033 76.584 48.1995 73.9053Z" fill="url(#paint1_linear_1540_7215)"/>
<mask id="mask1_1540_7215" style="mask-type:luminance" maskUnits="userSpaceOnUse" x="1" y="32" width="50" height="59">
<path d="M48.1995 73.9072C49.9275 70.5918 53.7842 62.7954 46.7639 60.4356C40.9196 58.4709 36.7113 58.3351 36.6346 51.1116C36.5579 43.8881 32.6034 39.2541 25.662 39.4573C18.3572 39.6711 12.8144 30.3169 6.70344 33.1861C-3.9445 38.1856 4.72963 54.3816 17.1587 59.3968C29.5876 64.4119 22.1321 68.4802 21.5141 74.3695C21.4877 74.9194 21.4892 75.774 21.6825 76.7825C22.8724 82.9907 29.2707 84.2639 33.7059 89.4609C39.7548 96.5485 46.8033 76.586 48.1995 73.9072Z" fill="white"/>
</mask>
<g mask="url(#mask1_1540_7215)">
<path d="M43.7565 90.2003L44.0965 90.1461C40.1383 66.7119 24.1367 45.3185 2.33641 34.3145L2.17188 34.6015C23.8803 45.5592 39.8147 66.8634 43.7565 90.2003Z" fill="#FCFDFE"/>
<path d="M40.4375 77.6095L40.7815 77.6197C41.1854 68.2835 49.9607 61.2541 50.0494 61.1842L49.8301 60.9355C49.7403 61.0062 40.8478 68.1261 40.4375 77.6095Z" fill="#FCFDFE"/>
<path d="M42.9052 85.9087L43.2146 85.7633C38.8176 77.2935 20.6639 75.5807 20.481 75.5645L20.4453 75.8881C20.6262 75.9042 38.5918 77.6 42.9052 85.9087Z" fill="#FCFDFE"/>
<path d="M29.0973 57.0271L29.4186 56.9071C26.5536 49.9258 31.7714 39.4654 31.8244 39.3606L31.5142 39.2227C31.4604 39.3287 26.1793 49.9168 29.0973 57.0271Z" fill="#FCFDFE"/>
<path d="M18.5984 45.7425L18.7906 45.4709C11.2686 40.7646 -0.789031 42.8891 -0.910156 42.9114L-0.848235 43.2306C-0.728704 43.2086 11.1937 41.1094 18.5984 45.7425Z" fill="#FCFDFE"/>
</g>
</g>
<g opacity="0.5">
<path d="M54.3805 78.4372C52.3077 73.2458 44.3055 70.1359 40.0497 74.4078C35.2346 79.2411 28.3675 71.7355 26.2283 62.8691C24.135 54.1926 7.50377 52.9072 10.3103 72.1023C11.9863 83.5655 23.1691 85.1129 28.6306 87.2368C34.092 89.3608 32.1214 97.8306 39.8002 96.9776C43.5201 96.5644 54.0416 93.0589 55.9143 88.3521C57.3434 84.7599 54.9754 79.9272 54.3805 78.4372Z" fill="url(#paint2_linear_1540_7215)"/>
<mask id="mask2_1540_7215" style="mask-type:luminance" maskUnits="userSpaceOnUse" x="9" y="56" width="48" height="42">
<path d="M54.3805 78.4352C52.3077 73.2439 44.3055 70.134 40.0497 74.4058C35.2346 79.2392 28.3675 71.7335 26.2283 62.8671C24.135 54.1907 7.50377 52.9053 10.3103 72.1003C11.9863 83.5636 23.1691 85.1109 28.6306 87.2349C34.092 89.3589 32.1214 97.8286 39.8002 96.9757C43.5201 96.5625 54.0416 93.057 55.9143 88.3502C57.3434 84.758 54.9754 79.9253 54.3805 78.4352Z" fill="white"/>
</mask>
<g mask="url(#mask2_1540_7215)">
<path d="M52.2505 91.4423C49.2914 90.5385 46.2024 89.4555 43.1417 88.164C30.2926 82.7415 15.33 72.4256 17.0163 54.0743L16.7815 54.0527C16.0307 62.2218 18.4597 69.505 24.0004 75.6999C28.4266 80.6487 34.8373 84.9159 43.0545 88.3831C46.1008 89.6685 49.1749 90.7475 52.1218 91.6495C52.1625 91.5793 52.2053 91.5101 52.2505 91.4423Z" fill="white"/>
<path d="M26.4272 78.1895L26.4647 77.9567C18.7182 76.7041 8.93205 70.7552 8.83408 70.6953L8.71094 70.8964C8.80937 70.9565 18.6352 76.9296 26.4272 78.1895Z" fill="white"/>
<path d="M22.8484 73.9603C20.327 64.9555 24.6834 58.5028 24.7277 58.4387L24.5338 58.3047C24.4887 58.3697 20.069 64.9087 22.6213 74.0238L22.8484 73.9603Z" fill="white"/>
<path d="M52.4679 91.5169C42.5369 85.87 44.1586 70.5936 44.1868 70.4461L43.9589 70.3867C43.9175 70.5288 42.3321 86.0249 52.3514 91.7218L52.4679 91.5169Z" fill="white"/>
<path d="M47.9284 90.266L47.947 90.0308C40.6799 89.4548 33.7953 95.5094 33.7266 95.5707L33.8834 95.7467C33.9515 95.6861 40.7627 89.6978 47.9284 90.266Z" fill="white"/>
</g>
</g>
<path d="M78.8447 26.2566C79.0396 27.0101 79.2858 27.7386 79.5808 28.4372C79.5204 28.4748 79.4603 28.5133 79.4021 28.5569C78.2647 29.4087 77.9933 31.1057 78.796 32.3474C79.5987 33.5892 81.1715 33.9053 82.3089 33.0536C82.3684 33.0091 82.4241 32.9609 82.4788 32.912C82.9898 33.4574 83.5384 33.9594 84.1201 34.4141C84.0849 34.4807 84.0504 34.5483 84.0199 34.6193C83.4362 35.9777 83.9876 37.6055 85.2514 38.255C86.5154 38.9045 88.0132 38.3297 88.5968 36.9713C88.6267 36.9016 88.6517 36.831 88.6757 36.7602C89.3606 36.9583 90.0644 37.0991 90.7823 37.1809C90.7829 37.2575 90.7845 37.3345 90.791 37.4122C90.9174 38.9135 92.1438 40.0358 93.5303 39.919C94.9167 39.8023 95.9381 38.4906 95.8117 36.9894C95.8051 36.9117 95.7938 36.8355 95.7815 36.7599C96.4756 36.5592 97.146 36.3026 97.7881 35.9926C97.8236 36.0585 96.9706 36.0504 97.0117 36.114C97.8144 37.3557 100.277 37.7454 101.414 36.8937C102.552 36.0419 102.823 34.3449 102.02 33.1032C101.978 33.0383 101.933 32.9774 101.887 32.9177C102.384 32.3721 102.841 31.7853 103.254 31.1622C103.316 31.2013 103.379 31.2395 103.445 31.2733C104.709 31.9228 106.207 31.3481 106.791 29.9896C107.374 28.6311 106.823 27.0034 105.559 26.3538C105.494 26.3206 105.429 26.2926 105.363 26.2657C105.537 25.5275 105.658 24.7681 105.724 23.9927C105.795 23.9931 105.866 23.9924 105.938 23.9864C107.324 23.8696 108.345 22.5579 108.219 21.0568C108.093 19.5556 106.866 18.4332 105.48 18.55C105.408 18.5561 105.338 18.5673 105.268 18.5795C105.073 17.8261 104.827 17.0976 104.532 16.3989C104.592 16.3613 104.652 16.3228 104.71 16.2792C105.848 15.4274 106.119 13.7304 105.317 12.4887C104.514 11.2469 102.941 10.9308 101.804 11.7825C101.744 11.8271 101.688 11.8752 101.634 11.9241C101.123 11.3788 100.574 10.8767 99.9924 10.422C100.028 10.3554 100.062 10.2878 100.093 10.2169C100.676 8.85843 100.214 7.21921 97.3208 6.10925C95.994 5.60019 96.0994 6.50647 95.5157 7.86491C95.4858 7.93452 95.4608 8.00516 95.4368 8.07604C94.7519 7.87794 94.0481 7.73708 93.3301 7.65519C93.3297 7.57855 93.328 7.50168 93.3215 7.42391C93.195 5.92269 92.4998 4.33578 89.2889 4.55568C87.9007 4.65069 88.1743 6.3456 88.3008 7.84682C88.3073 7.92453 88.3186 8.00066 88.3309 8.07627C87.6368 8.27704 86.9664 8.53368 86.3243 8.84357C86.2888 8.77771 86.2523 8.71222 86.2112 8.64861C85.4085 7.40694 83.8358 7.09077 82.6983 7.94249C81.5609 8.7943 81.2895 10.4914 82.0922 11.733C82.1341 11.7979 82.1794 11.8588 82.2253 11.9185C81.7279 12.4641 81.2709 13.0509 80.8584 13.674C80.7962 13.6349 80.7333 13.5968 80.6672 13.5628C79.4033 12.9133 77.9056 13.4881 77.3219 14.8466C76.7381 16.2051 77.2895 17.8328 78.5534 18.4823C78.6182 18.5156 78.6839 18.5435 78.7496 18.5705C78.5756 19.3086 78.4547 20.0681 78.3886 20.8435C78.3178 20.8431 78.2467 20.8438 78.1748 20.8498C76.7884 20.9666 75.767 22.2783 75.8934 23.7794C76.0199 25.2807 77.2463 26.4029 78.6327 26.2862C78.7047 26.2801 78.7749 26.2689 78.8447 26.2566ZM82.9419 23.1858C82.4828 17.7352 86.1913 12.9729 91.2251 12.549C96.2588 12.1251 100.712 16.1999 101.171 21.6505C101.63 27.1011 97.9213 31.8632 92.8875 32.2872C87.8537 32.7111 83.4009 28.6363 82.9419 23.1858Z" fill="#BFC6D1"/>
<path d="M78.5534 18.4807C77.2895 17.8312 76.7382 16.2035 77.3219 14.845C77.9055 13.4865 79.4033 12.9117 80.6672 13.5613C80.7333 13.5952 80.7962 13.6334 80.8583 13.6725C81.2709 13.0494 81.7279 12.4625 82.2253 11.917C82.1793 11.8573 82.1341 11.7964 82.0921 11.7314C81.2894 10.4898 80.6727 8.02681 81.8915 7.29631C84.2047 5.9098 85.4085 7.40544 86.2112 8.64716C86.2523 8.71077 86.2888 8.7762 86.3243 8.84206C86.9664 8.53217 87.6368 8.27562 88.3309 8.07486C88.3186 7.99925 88.3073 7.92313 88.3007 7.84541C88.2319 7.02833 88.5049 6.26923 88.9899 5.72656C89.2989 8.07402 89.5901 10.4234 89.8579 12.7756C85.5378 13.8631 82.5253 18.2404 82.9417 23.1844C83.2945 27.3739 86.0079 30.7479 89.53 31.8936C89.5218 32.3516 89.5101 32.8106 89.5143 33.2692C89.5259 34.5136 89.6066 35.7605 89.6885 37.0064C89.3468 36.9374 89.0088 36.855 88.6755 36.7587C88.6515 36.8296 88.6266 36.9002 88.5967 36.9698C88.013 38.3283 86.7088 39.1542 84.3833 38.063C83.0969 37.4592 83.436 35.9763 84.0197 34.6178C84.0502 34.5469 84.0846 34.4793 84.12 34.4127C83.5383 33.958 82.9896 33.4558 82.4785 32.9105C82.4239 32.9595 82.3681 33.0076 82.3087 33.0521C81.1712 33.9039 78.6196 33.4257 77.8169 32.184C77.0141 30.9423 78.2645 29.4073 79.4019 28.5555C79.4602 28.5119 79.5202 28.4734 79.5806 28.4358C79.2855 27.7372 79.0394 27.0086 78.8445 26.2552C78.7747 26.2676 78.7045 26.2788 78.6327 26.2847C77.2462 26.4016 76.0198 25.2793 75.8934 23.7779C75.7669 22.2768 76.7883 20.9652 78.1748 20.8484C78.2466 20.8423 78.3177 20.8416 78.3886 20.842C78.4547 20.0667 78.5756 19.3072 78.7495 18.5691C78.6839 18.542 78.6182 18.514 78.5534 18.4807Z" fill="#BFC6D1"/>
<path d="M77.5477 25.8947C77.7425 26.6482 77.9888 27.3767 78.2838 28.0754C78.2234 28.1129 78.1634 28.1514 78.1051 28.195C76.9677 29.0468 76.6963 30.7438 77.499 31.9856C78.3018 33.2273 79.8745 33.5434 81.012 32.6917C81.0714 32.6471 81.1271 32.5991 81.1818 32.5501C81.6929 33.0954 82.2415 33.5975 82.8232 34.0522C82.7879 34.1189 82.7535 34.1865 82.7229 34.2574C82.1392 35.6158 82.6906 37.2436 83.9545 37.8931C85.2184 38.5425 86.7162 37.9678 87.2999 36.6093C87.3298 36.5397 87.3548 36.4691 87.3788 36.3982C88.0636 36.5963 88.7674 36.7372 89.4854 36.819C89.4859 36.8956 89.4875 36.9726 89.4941 37.0503C89.6205 38.5515 90.8469 39.6738 92.2333 39.5571C93.6198 39.4403 94.6412 38.1286 94.5147 36.6275C94.5082 36.5497 94.4969 36.4736 94.4846 36.398C95.1787 36.1972 95.8491 35.9407 96.4912 35.6307C96.5267 35.6966 96.5631 35.762 96.6042 35.8257C97.407 37.0673 98.9798 37.3835 100.117 36.5318C101.255 35.68 101.526 33.9829 100.723 32.7413C100.681 32.6764 100.636 32.6155 100.59 32.5557C101.088 32.0102 101.545 31.4234 101.957 30.8002C102.019 30.8394 102.082 30.8775 102.148 30.9114C103.412 31.5609 104.91 30.9862 105.494 29.6277C106.077 28.2692 105.526 26.6415 104.262 25.992C104.197 25.9587 104.132 25.9308 104.066 25.9038C104.24 25.1656 104.361 24.4062 104.427 23.6308C104.498 23.6312 104.569 23.6305 104.641 23.6245C106.027 23.5078 107.048 22.1961 106.922 20.6948C106.796 19.1936 105.569 18.0713 104.183 18.1881C104.111 18.1942 104.041 18.2054 103.971 18.2176C103.776 17.4642 103.53 16.7357 103.235 16.037C103.295 15.9994 103.355 15.9609 103.414 15.9172C104.551 15.0655 104.822 13.3685 104.02 12.1268C103.217 10.885 101.644 10.5689 100.507 11.4206C100.447 11.4652 100.392 11.5133 100.337 11.5622C99.8258 11.0169 99.2771 10.5148 98.6955 10.0601C98.7308 9.99347 98.7652 9.92587 98.7957 9.85495C99.3794 8.49647 98.828 6.86873 97.5641 6.21919C96.3002 5.56978 94.8025 6.14452 94.2187 7.50295C94.1889 7.57261 94.1639 7.6432 94.1398 7.71408C93.455 7.51594 92.7511 7.37508 92.0332 7.29328C92.0328 7.21664 92.0311 7.13972 92.0246 7.062C91.8981 5.56078 90.6717 4.43845 89.2853 4.55522C87.8989 4.67199 86.8774 5.98359 87.0039 7.48481C87.0104 7.56258 87.0217 7.6387 87.0341 7.71431C86.3399 7.91508 85.6696 8.17163 85.0275 8.48152C84.9919 8.41566 84.9555 8.35027 84.9144 8.28656C84.1117 7.04489 82.5388 6.72881 81.4014 7.58049C80.264 8.4322 79.9926 10.1294 80.7953 11.3709C80.8372 11.4359 80.8825 11.4967 80.9284 11.5565C80.431 12.102 79.9741 12.6888 79.5614 13.312C79.4993 13.2729 79.4364 13.2348 79.3703 13.2008C78.1064 12.5513 76.6086 13.126 76.0249 14.4845C75.4413 15.843 75.9926 17.4708 77.2565 18.1202C77.3213 18.1535 77.3869 18.1815 77.4527 18.2084C77.2787 18.9466 77.1579 19.706 77.0917 20.4814C77.0208 20.481 76.9498 20.4817 76.8779 20.4877C75.4915 20.6045 74.4701 21.9162 74.5965 23.4173C74.723 24.9186 75.9494 26.0409 77.3358 25.9241C77.4077 25.9182 77.478 25.9071 77.5477 25.8947ZM81.6449 22.8239C81.1858 17.3733 84.8943 12.6111 89.9282 12.1872C94.9619 11.7631 99.4148 15.838 99.8738 21.2886C100.333 26.7391 96.6244 31.5013 91.5906 31.9252C86.5568 32.3493 82.104 28.2745 81.6449 22.8239Z" fill="#D8DEE8"/>
<path d="M32.7303 90.4362L32.6035 91.9018L25.7817 96.4096L24.7366 95.3985L28.7361 91.3438C28.7361 91.3438 29.5306 91.1086 28.3413 90.7092L24.5703 90.4384L24.8558 90.207L29.7373 89.8242C29.7373 89.8242 31.4322 90.1311 32.7303 90.4362Z" fill="#D8DEE8"/>
<path d="M93.9766 96.5273V100.382L105.814 111.839H109.456L104.903 102.163C104.903 102.163 102.779 100.893 107.332 100.893L123.722 104.183L123.488 103.157L103.993 96.8566C103.993 96.8566 97.9224 96.5273 93.9766 96.5273Z" fill="#97A6B7"/>
<path d="M115.086 101.082C117.658 101.384 119.78 99.8443 119.775 97.6464L119.599 18.4291C119.594 16.2312 117.466 14.8051 114.895 15.2431L114.564 15.2996L114.252 15.7038L20.7172 31.9685C19.5301 32.1709 18.5827 32.8512 18.5859 34.3168L18.7035 87.1402C18.7067 88.6058 19.8486 89.2486 21.0365 89.3877L114.155 99.6681L114.696 101.037L115.086 101.082Z" fill="#97A6B7"/>
<path d="M114.027 101.02C116.587 101.32 118.699 99.7843 118.694 97.5915L118.518 18.5574C118.514 16.3646 116.395 14.9411 113.837 15.3775L20.051 31.3713C18.8682 31.573 17.9186 32.9256 17.9219 34.3885L18.0392 87.1161C18.0424 88.579 18.9979 89.8809 20.1814 90.0197L114.027 101.02Z" fill="#D8DEE8"/>
<path opacity="0.3" d="M20.0538 32.6206L113.841 17.2013C115.205 16.977 116.322 17.7384 116.325 18.9038L116.461 80.0826L116.499 97.3643C116.502 98.5297 115.388 99.3505 114.023 99.1988L20.1786 88.7727C19.5433 88.7021 19.0298 88.0072 19.0281 87.2202L19.0011 75.1343L18.9102 34.2342C18.9084 33.4472 19.4188 32.725 20.0538 32.6206Z" fill="#D8DEE8"/>
<path d="M114.006 92.552C114.536 92.5991 114.969 92.2699 114.968 91.8181L114.806 19.1426C114.805 18.6908 114.371 18.3924 113.841 18.4773L20.0534 33.4945C19.8055 33.5342 19.6048 33.8168 19.6055 34.1245L19.7155 83.623C19.7162 83.9307 19.9182 84.199 20.1662 84.221L114.006 92.552Z" fill="url(#paint3_linear_1540_7215)"/>
<path opacity="0.6" d="M28.1505 86.4199C34.8224 81.5861 30.0984 67.3133 37.6837 59.9048C45.6462 52.128 57.4699 60.9148 63.5954 52.6132C68.2783 46.2668 62.7775 39.367 67.2293 33.2657C74.4087 23.4259 94.058 34.2057 103.675 23.7162C105.075 22.1897 106.495 19.9417 107.302 16.4942L113.838 15.3794C116.397 14.9431 118.516 16.3665 118.52 18.5593L118.696 97.5935C118.701 99.7863 116.589 101.322 114.029 101.022L20.1834 90.0217C18.9999 89.8829 18.0444 88.581 18.0411 87.1181L18.0391 86.1806C23.0184 88.4618 26.1251 87.8874 28.1505 86.4199Z" fill="white"/>
<path opacity="0.2" d="M23.6508 80.1929L109.654 86.4755L109.83 24L23.4414 37.8572L23.6508 80.1929Z" fill="white"/>
<path d="M23.1914 121.009C21.995 121.13 20.7527 120.565 20.0804 119.489L10.6011 104.322C9.73795 102.941 10.1566 101.147 11.5426 100.305C12.9384 99.4584 15.3859 99.7785 16.2675 101.173L25.9517 116.488C26.8647 117.932 26.4061 119.752 24.9345 120.544C24.5721 120.739 23.5861 120.97 23.1914 121.009Z" fill="url(#paint4_linear_1540_7215)"/>
<path opacity="0.3" d="M11.5426 100.305C12.9384 99.4584 15.3858 99.7785 16.2674 101.173L25.1222 115.176C24.0122 115.079 22.7558 115.312 21.3703 114.451C19.0638 113.019 19.6799 110.591 17.7497 108.84C16.8675 108.039 15.3566 107.293 12.5598 107.456L10.6011 104.322C9.73796 102.941 10.1566 101.147 11.5426 100.305Z" fill="url(#paint5_linear_1540_7215)"/>
<path d="M6.92506 97.7488C6.98338 97.7391 7.04188 97.734 7.10056 97.7324L11.2853 96.9922L13.0902 107.893L9.03275 108.508C8.93305 108.551 8.82936 108.583 8.72188 108.601C7.28502 108.839 5.71798 106.602 5.22181 103.606C4.72564 100.609 5.4882 97.9867 6.92506 97.7488Z" fill="url(#paint6_linear_1540_7215)"/>
<path d="M11.2847 96.9941C10.2977 100.887 10.8966 104.504 13.0896 107.895L45.9353 112.758L41.1915 82.1094L11.2847 96.9941Z" fill="url(#paint7_linear_1540_7215)"/>
<path opacity="0.3" d="M36.0286 105.157C32.8776 104.524 31.2439 100.375 27.7775 100.8C25.0575 101.134 24.678 103.891 21.9846 104.047C19.2274 104.206 18.2888 101.36 15.0843 100.833C13.6273 100.593 12.1985 100.919 10.8633 101.546C11.034 103.745 11.7742 105.857 13.0905 107.893L45.9362 112.756L42.3713 102.673C39.5934 104.976 37.5562 105.463 36.0286 105.157Z" fill="url(#paint8_linear_1540_7215)"/>
<path d="M37.3089 98.3443C38.7557 107.082 43.3248 113.603 47.5144 112.909C51.704 112.215 53.9275 104.57 52.4807 95.8322C51.034 87.0946 46.4648 80.5737 42.2753 81.2674C38.0857 81.9611 35.8622 89.6067 37.3089 98.3443Z" fill="url(#paint9_linear_1540_7215)"/>
<path d="M47.423 112.373C48.3124 112.226 49.1246 111.708 49.837 110.834C50.562 109.944 51.1506 108.734 51.5862 107.236C52.5019 104.087 52.6281 100.069 51.9414 95.9219C51.2547 91.7748 49.8402 88.0117 47.9584 85.3262C47.0633 84.0486 46.116 83.0924 45.1429 82.484C44.1868 81.8862 43.2511 81.6578 42.3616 81.8051C41.4721 81.9524 40.6599 82.4702 39.9475 83.3442C39.2225 84.2338 38.634 85.4443 38.1983 86.9422C37.8155 88.2588 37.5706 89.7274 37.4655 91.2938C37.3193 93.4737 39.1088 95.4278 39.5084 97.8409C39.9332 100.407 38.9715 103.241 39.8919 105.349C40.4591 106.648 41.1087 107.828 41.8261 108.852C42.7213 110.13 43.6686 111.086 44.6417 111.694C45.5978 112.292 46.5336 112.52 47.423 112.373Z" fill="url(#paint10_linear_1540_7215)"/>
<mask id="mask3_1540_7215" style="mask-type:luminance" maskUnits="userSpaceOnUse" x="37" y="81" width="16" height="32">
<path d="M47.4268 112.373C48.3163 112.226 49.1285 111.708 49.8409 110.834C50.5659 109.944 51.1544 108.734 51.5901 107.236C52.5058 104.087 52.632 100.069 51.9453 95.9219C51.2586 91.7748 49.844 88.0117 47.9623 85.3262C47.0671 84.0486 46.1198 83.0924 45.1468 82.484C44.1907 81.8862 43.2549 81.6578 42.3655 81.8051C41.476 81.9524 40.6638 82.4702 39.9514 83.3442C39.2264 84.2338 38.6379 85.4443 38.2022 86.9422C37.2865 90.091 37.1603 94.1091 37.847 98.2563C38.5337 102.403 39.9483 106.166 41.83 108.852C42.7252 110.13 43.6725 111.086 44.6456 111.694C45.6016 112.292 46.5374 112.52 47.4268 112.373Z" fill="white"/>
</mask>
<g mask="url(#mask3_1540_7215)">
<path d="M45.5556 97.1923C46.2193 101.201 44.0922 104.823 40.8509 105.276C37.6597 105.722 34.5858 102.92 33.9406 99.0234C33.2954 95.1266 35.3086 91.5225 38.4814 90.9656C41.7041 90.3999 44.8919 93.1841 45.5556 97.1923Z" fill="url(#paint11_linear_1540_7215)"/>
</g>
<mask id="mask4_1540_7215" style="mask-type:luminance" maskUnits="userSpaceOnUse" x="37" y="81" width="16" height="32">
<path d="M47.4268 112.373C48.3163 112.226 49.1285 111.708 49.8409 110.834C50.5659 109.944 51.1544 108.734 51.5901 107.236C52.5058 104.087 52.632 100.069 51.9453 95.9219C51.2586 91.7748 49.844 88.0117 47.9623 85.3262C47.0671 84.0486 46.1198 83.0924 45.1468 82.484C44.1907 81.8862 43.2549 81.6578 42.3655 81.8051C41.476 81.9524 40.6638 82.4702 39.9514 83.3442C39.2264 84.2338 38.6379 85.4443 38.2022 86.9422C37.2865 90.091 37.1603 94.1091 37.847 98.2563C38.5337 102.403 39.9483 106.166 41.83 108.852C42.7252 110.13 43.6725 111.086 44.6456 111.694C45.6016 112.292 46.5374 112.52 47.4268 112.373Z" fill="white"/>
</mask>
<g mask="url(#mask4_1540_7215)">
<path opacity="0.3" d="M45.0314 97.2118C45.5242 100.188 44.6223 102.766 43.0396 102.966C41.4814 103.163 39.8473 100.975 39.3682 98.081C38.8891 95.1874 39.7354 92.6185 41.2801 92.3393C42.849 92.0557 44.5386 94.2354 45.0314 97.2118Z" fill="url(#paint12_linear_1540_7215)"/>
</g>
<path d="M36.6016 56.1856C36.6016 69.7017 46.9189 81.3679 60.3556 82.2915C74.6462 83.2739 86.915 71.8663 86.915 56.754C86.915 41.6417 74.6462 29.957 60.3556 30.6164C46.9189 31.2365 36.6016 42.6696 36.6016 56.1856Z" fill="url(#paint13_linear_1540_7215)"/>
<path d="M35.2461 56.1856C35.2461 69.7017 45.5634 81.3679 59.0001 82.2915C73.2907 83.2739 85.5595 71.8663 85.5595 56.754C85.5595 41.6417 73.2907 29.957 59.0001 30.6164C45.5635 31.2365 35.2461 42.6696 35.2461 56.1856Z" fill="url(#paint14_linear_1540_7215)"/>
<g opacity="0.3">
<path d="M54.2738 73.625C59.1267 68.1096 54.5409 61.0331 59.6256 54.1621C64.3438 47.7863 70.9848 50.0429 76.1006 43.3217C77.1911 41.8889 77.9861 40.3432 78.5532 38.7539C82.888 43.4448 85.5612 49.7712 85.5612 56.7533C85.5612 71.8657 73.2924 83.2732 59.0018 82.2908C54.0544 81.9508 49.5425 80.1631 45.8242 77.3959C49.9868 77.0144 52.6045 75.5221 54.2738 73.625Z" fill="url(#paint15_linear_1540_7215)"/>
</g>
<path d="M37.5078 56.2129C37.5078 68.4419 46.8707 78.9454 59 79.7095C71.8207 80.5172 82.7631 70.2454 82.7631 56.7242C82.7631 43.2029 71.8207 32.6839 59 33.2019C46.8707 33.692 37.5078 43.9839 37.5078 56.2129Z" fill="url(#paint16_linear_1540_7215)"/>
<path d="M59.001 79.7076C55.4449 79.4835 52.134 78.4271 49.2344 76.7513C51.5044 76.0593 53.1171 74.939 54.2729 73.6254C59.1259 68.11 54.5401 61.0335 59.6247 54.1625C64.343 47.7867 70.984 50.0434 76.0997 43.3221C76.5504 42.7301 76.9499 42.1183 77.3045 41.4922C80.705 45.6003 82.7641 50.9123 82.7641 56.7223C82.7641 70.2434 71.8217 80.5153 59.001 79.7076Z" fill="#EFF2F6"/>
<path d="M42.1055 56.264C42.1055 65.8776 49.5102 74.0524 59.001 74.5412C68.91 75.0516 77.269 67.0558 77.269 56.6613C77.269 46.2668 68.91 38.0821 59.001 38.3686C49.5102 38.643 42.1055 46.6505 42.1055 56.264Z" fill="url(#paint17_linear_1540_7215)"/>
<path opacity="0.3" d="M59.6253 54.1622C63.6503 48.723 69.069 49.5645 73.7545 45.7598C75.9609 48.808 77.2695 52.5785 77.2695 56.6597C77.2695 67.0542 68.9104 75.0501 59.0015 74.5397C57.3512 74.4547 55.7658 74.1382 54.2734 73.625C59.1264 68.1096 54.5406 61.0331 59.6253 54.1622Z" fill="url(#paint18_linear_1540_7215)"/>
<path d="M46.8008 56.316C46.8008 63.2574 52.1797 69.0997 59 69.3726C66.0335 69.6541 71.8988 63.939 71.8988 56.5996C71.8988 49.2601 66.0335 43.4125 59 43.5351C52.1797 43.6539 46.8008 49.3747 46.8008 56.316Z" fill="url(#paint19_linear_1540_7215)"/>
<path d="M69.0493 48.3633C70.8308 50.6136 71.9019 53.4798 71.9019 56.5992C71.9019 63.9387 66.0365 69.6538 59.003 69.3723C58.1342 69.3375 57.2894 69.2125 56.4766 69.0072C57.3768 64.4022 55.8634 59.2477 59.6267 54.1623C62.3511 50.4809 65.7092 49.6766 69.0493 48.3633Z" fill="#EFF2F6"/>
<path d="M51.6016 56.3709C51.6016 60.5813 54.8842 64.0883 59.0013 64.2058C63.1953 64.3254 66.6529 60.8947 66.6529 56.5409C66.6529 52.1872 63.1953 48.6784 59.0013 48.7033C54.8842 48.7277 51.6016 52.1604 51.6016 56.3709Z" fill="url(#paint20_linear_1540_7215)"/>
<path opacity="0.3" d="M56.8672 63.826C56.9678 60.6854 57.2161 57.419 59.6256 54.163C60.9232 52.4095 62.3636 51.3095 63.8771 50.4961C65.5698 51.9355 66.6533 54.1101 66.6533 56.5407C66.6533 60.8944 63.1957 64.3252 59.0018 64.2055C58.2577 64.1843 57.5415 64.052 56.8672 63.826Z" fill="url(#paint21_linear_1540_7215)"/>
<path d="M62.3255 56.0018L56.6452 52.4753C56.3018 52.2622 55.8867 52.6739 55.8867 53.2013V59.6691C55.8867 60.1965 56.3018 60.6591 56.6452 60.4882L62.3255 57.6593C62.9709 57.3379 62.9709 56.4024 62.3255 56.0018Z" fill="white"/>
<path d="M18.7304 56.1981C18.6955 56.1866 24.6915 55.6607 24.6915 55.6607L21.6702 53.1708C20.6547 52.334 15.2244 53.1356 13.9297 53.4396L13.943 53.8067L18.7304 56.1981Z" fill="url(#paint22_linear_1540_7215)"/>
<path d="M45.5189 57.7495L58.6284 56.8049C58.737 56.7971 58.7301 56.6088 58.6211 56.605L45.4609 56.1504L45.5189 57.7495Z" fill="url(#paint23_linear_1540_7215)"/>
<path d="M18.6661 58.9414C18.632 58.9542 24.8184 59.1509 24.8184 59.1509L21.9814 61.7511C21.028 62.625 15.547 62.0289 14.2321 61.7742L14.2188 61.407L18.6661 58.9414Z" fill="url(#paint24_linear_1540_7215)"/>
<path d="M19.3581 58.9258C19.3242 58.9385 25.4829 59.1352 25.4829 59.1352L22.6588 61.7294C21.7097 62.6012 20.4071 62.9716 19.1329 62.7247L14.2305 61.7748L19.3581 58.9258Z" fill="url(#paint25_linear_1540_7215)"/>
<path d="M19.2566 56.0936C19.2219 56.0821 25.3579 55.6539 25.3579 55.6539L22.3498 53.1695C21.3388 52.3346 20.0113 52.0138 18.7567 52.3083L13.9297 53.4414L19.2566 56.0936Z" fill="url(#paint26_linear_1540_7215)"/>
<path d="M40.6307 59.6203L44.2057 59.5213C45.4618 59.4866 46.4312 58.3359 46.381 56.9509C46.3308 55.5658 45.2794 54.4528 44.0225 54.4649L40.4453 54.4994L40.6307 59.6203Z" fill="url(#paint27_linear_1540_7215)"/>
<g opacity="0.3">
<path d="M43.1879 57.7964C44.3794 57.3352 45.3047 56.5453 46.0207 55.6816C46.2325 56.0526 46.3621 56.4858 46.3789 56.9499C46.4291 58.335 45.4597 59.4857 44.2036 59.5204L40.6287 59.6193L40.5742 58.115C41.4311 58.2115 42.2547 58.1575 43.1879 57.7964Z" fill="url(#paint28_linear_1540_7215)"/>
</g>
<path d="M18.0958 58.8998L40.6267 59.6192C42.0209 59.5687 41.8354 54.4479 40.4411 54.4984L18 56.257L18.0958 58.8998Z" fill="white"/>
<g opacity="0.3">
<path d="M24.9818 58.2252C29.3971 57.9007 29.9973 56.7821 33.9644 56.9829C37.6199 57.168 39.5167 58.2393 41.5243 58.1507C41.4065 58.9666 41.1127 59.6005 40.6267 59.6181L18.0958 58.8987L18.0586 57.8714C20.8555 58.3507 23.1867 58.3571 24.9818 58.2252Z" fill="#D8DEE8"/>
</g>
<path d="M17.6121 57.5975C17.6388 58.3339 17.8556 58.9262 18.0961 58.9207C18.3362 58.915 18.5089 58.3153 18.4823 57.581C18.4557 56.8467 18.2397 56.2543 17.9996 56.2578C17.7591 56.2613 17.5854 56.8612 17.6121 57.5975Z" fill="#C7CCD3"/>
<path d="M81.5086 66.1439C81.1641 65.8804 80.8196 65.617 80.475 65.3535C80.1736 65.4391 75.2231 66.927 74.2431 71.2815C74.1082 71.8805 73.6114 74.0879 74.8206 75.5071C76.8476 77.886 82.7299 76.949 85.491 73.6223C87.6607 71.0081 87.9302 66.8856 86.6766 66.1135C85.1595 65.179 80.6371 68.6745 80.2926 68.9407C79.6013 69.475 78.9736 70.0437 78.8638 69.9439C78.6772 69.7744 80.162 67.8328 81.5086 66.1439Z" fill="url(#paint29_linear_1540_7215)"/>
<path d="M119.63 96.969C119.63 96.969 119.366 96.2841 119.779 95.9259C120.192 95.5677 122.477 94.5315 123.624 94.5531C124.77 94.5747 123.846 95.4583 123.192 95.9584C122.537 96.4584 121.01 97.5061 120.617 97.5949C120.224 97.6835 119.63 96.969 119.63 96.969Z" fill="url(#paint30_linear_1540_7215)"/>
<path d="M117.605 98.1796C118.271 97.6615 118.852 97.2568 119.291 96.9648C120.262 96.3189 120.694 96.1201 121.128 95.9845C121.506 95.8666 122.362 95.647 122.442 95.8247C122.524 96.0052 121.73 96.4292 119.781 97.9087C119.498 98.1234 118.599 98.8094 118.599 98.8094L117.605 98.1796Z" fill="url(#paint31_linear_1540_7215)"/>
<path d="M88.5889 128.826C88.5889 128.826 88.8536 129.51 88.441 129.869C88.0285 130.228 85.7452 131.267 84.5985 131.247C83.452 131.227 84.3745 130.342 85.0284 129.841C85.6822 129.34 87.2076 128.29 87.6005 128.201C87.9934 128.112 88.5889 128.826 88.5889 128.826Z" fill="url(#paint32_linear_1540_7215)"/>
<path d="M88.4252 125.797C88.4737 126.669 88.383 127.377 88.287 127.87C88.1503 128.573 88.0673 128.971 87.7337 129.325C87.1444 129.948 86.1126 130.071 85.9631 129.82C85.7934 129.536 86.8852 128.98 87.2474 127.646C87.406 127.061 87.369 126.533 87.3066 126.161L88.4252 125.797Z" fill="url(#paint33_linear_1540_7215)"/>
<path d="M84.501 90.2277C82.9557 91.8544 83.2933 94.1787 83.7773 98.3451C84.1834 101.84 84.7362 107.009 85.2564 113.552C85.7286 118.116 86.2008 122.681 86.6729 127.245C87.4598 127.245 88.2468 127.245 89.0337 127.245C89.9987 125.195 91.1482 122.057 91.2056 118.179C91.2532 114.967 90.5026 114.546 90.3577 110.908C90.278 108.908 90.4553 107.786 91.9611 99.1041C93.159 92.1976 93.3946 90.9015 92.4332 89.85C90.7372 87.9949 86.4658 88.1594 84.501 90.2277Z" fill="url(#paint34_linear_1540_7215)"/>
<path opacity="0.4" d="M89.2243 122.032C88.8181 120.758 87.7391 119.457 87.6662 116.932C87.5802 113.954 89.0085 113.21 88.7994 110.417C88.5984 107.732 87.2133 107.537 86.8163 104.892C86.3552 101.821 88.0638 101.017 88.6577 97.3851C89.1995 94.0716 88.415 90.8422 87.5983 88.6838C89.4321 88.3493 91.4066 88.7269 92.435 89.8518C93.3964 90.9033 93.1607 92.1995 91.9628 99.1059C90.457 107.788 90.2798 108.909 90.3594 110.91C90.5044 114.548 91.2549 114.969 91.2073 118.181C91.1499 122.059 90.0005 125.197 89.0354 127.247C88.775 127.247 88.5146 127.247 88.2541 127.247C89.5159 124.952 89.6224 123.28 89.2243 122.032Z" fill="url(#paint35_linear_1540_7215)"/>
<path d="M120.036 98.57C116.726 103.13 110.398 110.664 104.926 109.386C102.033 108.711 100.983 105.946 92.4793 94.269C90.4343 91.4608 88.693 89.1462 87.457 87.5215C90.7621 86.7032 94.0672 85.8847 97.3723 85.0664C99.6034 88.7471 101.07 91.8636 101.979 93.9677C104.15 98.9979 104.933 102.422 106.91 102.631C107.876 102.732 108.502 102 109.837 100.931C111.585 99.5315 114.292 97.7608 118.336 96.3981C118.903 97.1221 119.469 97.846 120.036 98.57Z" fill="url(#paint36_linear_1540_7215)"/>
<path d="M96.1198 64.4852C95.0343 64.8207 93.465 65.7565 91.2752 65.4134C90.616 65.3101 88.2806 64.9442 87.4527 63.0093C86.7238 61.3059 87.7614 59.5879 87.8905 59.3802C88.6352 58.1818 89.7836 57.7102 91.0667 57.2041C92.7304 56.5478 93.4807 56.6816 94.7169 56.3682C97.7751 55.5926 97.8343 53.5938 100.579 52.2181C104.088 50.4598 105.801 52.8182 108.712 51.2663C111.98 49.5241 110.825 46.017 113.712 43.6917C117.719 40.4641 127.088 41.468 130.036 47.0344C131.739 50.2493 131.419 55.2097 129.015 57.9944C127.614 59.6176 125.604 60.4809 125.704 61.9282C125.776 62.9582 126.994 63.0986 127.708 64.5621C128.629 66.4489 127.776 68.6149 127.638 68.9646C126.359 72.2117 120.525 74.2101 115.387 73.5175C106.12 72.2686 102.022 62.6614 96.1198 64.4852Z" fill="url(#paint37_linear_1540_7215)"/>
<path d="M97.2404 65.0952C94.7059 65.0856 91.5684 65.1133 88.3619 65.4518C81.4679 66.1795 81.739 69.6097 82.9874 72.7368C84.2612 75.928 84.217 78.7458 84.1913 79.7483C84.1501 81.3634 83.8566 82.6581 83.2695 85.2477C82.2497 89.7464 81.4902 90.7796 82.2083 91.9299C83.2554 93.6072 86.1898 93.5245 86.7044 93.4998C89.3108 93.3743 89.8638 91.8447 92.0613 91.6028C94.6145 91.3215 95.2047 93.239 98.7547 94.5292C102.945 96.0521 108.339 95.6493 110.845 92.8439C111.812 91.7606 112.433 90.2641 112.017 89.7929C111.451 89.1515 109.481 90.9971 107.383 90.2651C105.994 89.78 106.12 88.7122 104.456 87.6703C102.453 86.4164 101.276 87.3392 99.918 86.5298C97.8002 85.2671 98.2557 81.5846 98.0844 75.5222C98.0133 73.0123 97.8163 69.4402 97.2404 65.0952Z" fill="url(#paint38_linear_1540_7215)"/>
<path d="M97.2419 65.0945C100.919 65.2738 102.234 69.1013 106.072 69.8565C108.398 70.3141 111.867 69.6862 116.849 64.8477C117.555 65.1742 118.261 65.501 118.967 65.8277C118.241 70.1721 116.225 72.61 115.236 73.6367C109.582 79.5019 98.8585 79.3221 93.0521 74.2939C91.2299 72.716 90.2027 70.9295 89.6445 69.7555C91.4798 67.4729 94.151 64.9439 97.2419 65.0945Z" fill="url(#paint39_linear_1540_7215)"/>
<path d="M89.1951 62.2658C89.4247 62.1008 89.7473 62.2084 89.8343 62.4774C90.075 63.2221 90.5726 64.4891 91.2507 64.8057C92.2272 65.2612 93.6975 65.0612 93.8833 65.242C94.0684 65.4219 89.4989 67.7936 86.4544 66.7155C86.4329 66.7079 86.4122 66.6986 86.3922 66.6878L86.2189 66.5944C85.8752 66.4094 85.9529 65.8958 86.3358 65.8201C86.9232 65.704 88.4617 65.2624 88.8489 64.5914C88.8934 64.5144 88.906 63.9089 88.8947 63.8207L88.7699 62.8396C88.7506 62.6881 88.8159 62.5382 88.9399 62.4491L89.1951 62.2658Z" fill="url(#paint40_linear_1540_7215)"/>
<path d="M89.9094 62.778C89.9094 62.778 89.4138 63.6624 88.4437 63.4343C87.575 63.2301 87.8152 61.0208 88.4462 60.6968C88.6566 60.5888 89.0654 60.5767 89.3559 60.713C89.5602 60.809 90.1432 61.379 89.9365 62.1206C90.1394 62.0346 90.3312 62.0679 90.3899 62.1665C90.4645 62.2916 90.3079 62.4927 90.2725 62.5383C90.1496 62.6962 89.9856 62.7558 89.9094 62.778Z" fill="url(#paint41_linear_1540_7215)"/>
<path d="M117.443 65.1232L117.79 64.4396C117.79 64.4396 116.018 61.5425 117.47 61.0774C118.922 60.6121 118.513 61.4407 118.348 61.836C118.183 62.2312 118.448 63.5199 118.701 63.9136C118.953 64.3074 118.514 65.619 118.514 65.619L117.443 65.1232Z" fill="url(#paint42_linear_1540_7215)"/>
<path opacity="0.4" d="M104.897 92.6158C103.981 91.9925 104.611 90.7703 103.575 89.7829C102.626 88.8794 101.588 89.4169 99.8922 88.933C97.8534 88.3514 96.274 86.696 95.5484 85.2502C95.031 84.2194 95.0726 83.5441 95.5484 78.2624C96.0014 73.2324 96.1297 72.0039 96.776 71.8411C97.952 71.5448 99.0052 75.2402 101.309 75.2406C102.61 75.2409 102.786 74.0621 104.425 73.4465C107.207 72.4014 109.195 74.8595 112.168 74.7684C112.928 74.7452 113.85 74.5471 114.902 73.9554C110.617 78.0901 103.715 78.9935 98.1187 77.1202C98.1945 82.2324 97.9955 85.3841 99.9196 86.5312C101.277 87.3405 102.455 86.4178 104.457 87.6718C106.121 88.7136 105.996 89.7815 107.385 90.2665C109.482 90.9985 111.452 89.153 112.019 89.7944C112.396 90.2217 111.917 91.4894 111.104 92.5303C110.626 92.3323 110.098 92.1887 109.524 92.1439C107.329 91.9727 105.978 93.3512 104.897 92.6158Z" fill="url(#paint43_linear_1540_7215)"/>
<path d="M75.5488 56.0254L75.5977 55.3061L74.7599 54.8692C74.573 54.7717 74.3448 54.8068 74.1955 54.9557C73.4053 55.7443 71.1037 58.3915 71.3642 62.249C71.3779 62.4515 71.5169 62.6241 71.7119 62.6805C72.066 62.7829 72.4639 62.8408 72.4639 62.8408L75.5488 56.0254Z" fill="url(#paint44_linear_1540_7215)"/>
<path d="M81.1484 62.8235L81.4159 65.0455C81.4159 65.0455 81.5832 65.6606 81.5574 65.9265C81.8946 66.1682 82.5417 66.134 82.5417 66.134L83.0053 63.3891L81.2168 62.7949L81.1484 62.8235Z" fill="url(#paint45_linear_1540_7215)"/>
<path d="M80.7031 65.6722L80.9745 64.8151C80.9745 64.8151 81.3015 64.1081 82.2239 63.9876C83.1462 63.867 83.1359 64.3648 83.1359 64.3648L82.5344 64.5427C82.5344 64.5427 82.1451 64.6552 81.8781 65.219C81.5047 65.7933 81.1265 66.0568 81.1265 66.0568L80.7031 65.6722Z" fill="url(#paint46_linear_1540_7215)"/>
<path d="M84.7626 62.1712C84.7626 62.1712 77.8348 58.6993 75.6003 55.3047C72.1222 57.5271 72.4664 62.8394 72.4664 62.8394C72.4664 62.8394 80.8945 62.9726 84.0057 64.15C84.8422 63.6749 84.7626 62.1712 84.7626 62.1712Z" fill="url(#paint47_linear_1540_7215)"/>
<path d="M69.3841 63.525C69.5747 63.3829 69.6846 63.1445 69.6502 62.8921C68.7073 55.9359 73.0031 53.4561 73.0452 53.4325C73.3714 53.2513 73.4883 52.8392 73.3068 52.5131C73.1251 52.1871 72.7135 52.07 72.3874 52.2515C72.176 52.3688 67.2451 55.2133 68.3108 63.0736C68.3609 63.4435 68.7015 63.7028 69.0712 63.6526C69.189 63.6368 69.2954 63.5912 69.3841 63.525Z" fill="url(#paint48_linear_1540_7215)"/>
<defs>
<linearGradient id="paint0_linear_1540_7215" x1="42.3379" y1="8.76979" x2="67.7026" y2="86.6346" gradientUnits="userSpaceOnUse">
<stop stop-color="#FF9085"/>
<stop offset="1" stop-color="#FB6FBB"/>
</linearGradient>
<linearGradient id="paint1_linear_1540_7215" x1="1.90629" y1="61.8044" x2="50.8214" y2="61.8044" gradientUnits="userSpaceOnUse">
<stop offset="0.0036" stop-color="#E38DDD"/>
<stop offset="1" stop-color="#9571F6"/>
</linearGradient>
<linearGradient id="paint2_linear_1540_7215" x1="37.374" y1="64.0638" x2="27.2149" y2="92.9372" gradientUnits="userSpaceOnUse">
<stop stop-color="#FFC444"/>
<stop offset="0.9964" stop-color="#F36F56"/>
</linearGradient>
<linearGradient id="paint3_linear_1540_7215" x1="-3.55426" y1="123.081" x2="88.4704" y2="44.988" gradientUnits="userSpaceOnUse">
<stop offset="0.0036" stop-color="#E38DDD"/>
<stop offset="1" stop-color="#9571F6"/>
</linearGradient>
<linearGradient id="paint4_linear_1540_7215" x1="21.9558" y1="104.279" x2="14.5785" y2="116.61" gradientUnits="userSpaceOnUse">
<stop stop-color="#311944"/>
<stop offset="1" stop-color="#893976"/>
</linearGradient>
<linearGradient id="paint5_linear_1540_7215" x1="20.6679" y1="103.508" x2="13.2906" y2="115.839" gradientUnits="userSpaceOnUse">
<stop stop-color="#311944"/>
<stop offset="1" stop-color="#893976"/>
</linearGradient>
<linearGradient id="paint6_linear_1540_7215" x1="5.07033" y1="102.805" x2="13.0903" y2="102.805" gradientUnits="userSpaceOnUse">
<stop stop-color="#AA80F9"/>
<stop offset="0.9964" stop-color="#6165D7"/>
</linearGradient>
<linearGradient id="paint7_linear_1540_7215" x1="22.9038" y1="83.7423" x2="39.1145" y2="129.137" gradientUnits="userSpaceOnUse">
<stop stop-color="#AA80F9"/>
<stop offset="0.9964" stop-color="#6165D7"/>
</linearGradient>
<linearGradient id="paint8_linear_1540_7215" x1="20.023" y1="84.3035" x2="36.4365" y2="130.266" gradientUnits="userSpaceOnUse">
<stop stop-color="#AA80F9"/>
<stop offset="0.9964" stop-color="#6165D7"/>
</linearGradient>
<linearGradient id="paint9_linear_1540_7215" x1="34.8227" y1="88.5463" x2="54.967" y2="105.63" gradientUnits="userSpaceOnUse">
<stop offset="0.0036" stop-color="#E38DDD"/>
<stop offset="1" stop-color="#9571F6"/>
</linearGradient>
<linearGradient id="paint10_linear_1540_7215" x1="35.2452" y1="98.4354" x2="51.56" y2="96.1586" gradientUnits="userSpaceOnUse">
<stop stop-color="#311944"/>
<stop offset="1" stop-color="#893976"/>
</linearGradient>
<linearGradient id="paint11_linear_1540_7215" x1="34.4765" y1="83.344" x2="45.0608" y2="112.983" gradientUnits="userSpaceOnUse">
<stop stop-color="#FFC444"/>
<stop offset="0.9964" stop-color="#F36F56"/>
</linearGradient>
<linearGradient id="paint12_linear_1540_7215" x1="38.3103" y1="86.7529" x2="46.1198" y2="108.622" gradientUnits="userSpaceOnUse">
<stop stop-color="#FFC444"/>
<stop offset="0.9964" stop-color="#F36F56"/>
</linearGradient>
<linearGradient id="paint13_linear_1540_7215" x1="55.2088" y1="33.7419" x2="76.2949" y2="106.732" gradientUnits="userSpaceOnUse">
<stop stop-color="#AB316D"/>
<stop offset="1" stop-color="#792D3D"/>
</linearGradient>
<linearGradient id="paint14_linear_1540_7215" x1="53.8534" y1="33.7419" x2="74.9394" y2="106.732" gradientUnits="userSpaceOnUse">
<stop stop-color="#FFC444"/>
<stop offset="0.9964" stop-color="#F36F56"/>
</linearGradient>
<linearGradient id="paint15_linear_1540_7215" x1="56.0961" y1="31.9515" x2="77.6491" y2="106.558" gradientUnits="userSpaceOnUse">
<stop stop-color="#FFC444"/>
<stop offset="0.9964" stop-color="#F36F56"/>
</linearGradient>
<linearGradient id="paint16_linear_1540_7215" x1="54.2414" y1="36.02" x2="73.2125" y2="101.689" gradientUnits="userSpaceOnUse">
<stop stop-color="white"/>
<stop offset="0.9964" stop-color="#EBEFF2"/>
</linearGradient>
<linearGradient id="paint17_linear_1540_7215" x1="55.1031" y1="40.5668" x2="69.8501" y2="91.6144" gradientUnits="userSpaceOnUse">
<stop stop-color="#FFC444"/>
<stop offset="0.9964" stop-color="#F36F56"/>
</linearGradient>
<linearGradient id="paint18_linear_1540_7215" x1="61.868" y1="50.2995" x2="71.8381" y2="84.8112" gradientUnits="userSpaceOnUse">
<stop stop-color="#FFC444"/>
<stop offset="0.9964" stop-color="#F36F56"/>
</linearGradient>
<linearGradient id="paint19_linear_1540_7215" x1="56.0751" y1="45.1081" x2="66.6043" y2="81.5554" gradientUnits="userSpaceOnUse">
<stop stop-color="white"/>
<stop offset="0.9964" stop-color="#EBEFF2"/>
</linearGradient>
<linearGradient id="paint20_linear_1540_7215" x1="57.1619" y1="49.6479" x2="63.4777" y2="71.5101" gradientUnits="userSpaceOnUse">
<stop stop-color="#FFC444"/>
<stop offset="0.9964" stop-color="#F36F56"/>
</linearGradient>
<linearGradient id="paint21_linear_1540_7215" x1="59.6389" y1="52.2697" x2="64.5906" y2="69.4103" gradientUnits="userSpaceOnUse">
<stop stop-color="#FFC444"/>
<stop offset="0.9964" stop-color="#F36F56"/>
</linearGradient>
<linearGradient id="paint22_linear_1540_7215" x1="24.6915" y1="54.4994" x2="13.9297" y2="54.4994" gradientUnits="userSpaceOnUse">
<stop stop-color="#FFC444"/>
<stop offset="0.9964" stop-color="#F36F56"/>
</linearGradient>
<linearGradient id="paint23_linear_1540_7215" x1="58.698" y1="56.4715" x2="45.4899" y2="56.95" gradientUnits="userSpaceOnUse">
<stop stop-color="#444B8C"/>
<stop offset="0.9964" stop-color="#26264F"/>
</linearGradient>
<linearGradient id="paint24_linear_1540_7215" x1="24.8184" y1="60.5759" x2="14.2188" y2="60.5759" gradientUnits="userSpaceOnUse">
<stop stop-color="#FFC444"/>
<stop offset="0.9964" stop-color="#F36F56"/>
</linearGradient>
<linearGradient id="paint25_linear_1540_7215" x1="25.4829" y1="60.8627" x2="14.2305" y2="60.8627" gradientUnits="userSpaceOnUse">
<stop stop-color="#AB316D"/>
<stop offset="1" stop-color="#792D3D"/>
</linearGradient>
<linearGradient id="paint26_linear_1540_7215" x1="25.3579" y1="54.1474" x2="13.9297" y2="54.1474" gradientUnits="userSpaceOnUse">
<stop stop-color="#AB316D"/>
<stop offset="1" stop-color="#792D3D"/>
</linearGradient>
<linearGradient id="paint27_linear_1540_7215" x1="43.4643" y1="53.4985" x2="43.2493" y2="63.3172" gradientUnits="userSpaceOnUse">
<stop stop-color="#AB316D"/>
<stop offset="1" stop-color="#792D3D"/>
</linearGradient>
<linearGradient id="paint28_linear_1540_7215" x1="43.5673" y1="53.4998" x2="43.3523" y2="63.3185" gradientUnits="userSpaceOnUse">
<stop stop-color="#AB316D"/>
<stop offset="1" stop-color="#792D3D"/>
</linearGradient>
<linearGradient id="paint29_linear_1540_7215" x1="82.2004" y1="65.4982" x2="76.5675" y2="85.2711" gradientUnits="userSpaceOnUse">
<stop stop-color="#FF9085"/>
<stop offset="1" stop-color="#FB6FBB"/>
</linearGradient>
<linearGradient id="paint30_linear_1540_7215" x1="117.324" y1="101.937" x2="127.386" y2="87.8564" gradientUnits="userSpaceOnUse">
<stop stop-color="#AB316D"/>
<stop offset="1" stop-color="#792D3D"/>
</linearGradient>
<linearGradient id="paint31_linear_1540_7215" x1="121.996" y1="94.0698" x2="109.073" y2="113.502" gradientUnits="userSpaceOnUse">
<stop stop-color="#FFC444"/>
<stop offset="0.9964" stop-color="#F36F56"/>
</linearGradient>
<linearGradient id="paint32_linear_1540_7215" x1="90.8878" y1="123.854" x2="80.8458" y2="137.949" gradientUnits="userSpaceOnUse">
<stop stop-color="#AB316D"/>
<stop offset="1" stop-color="#792D3D"/>
</linearGradient>
<linearGradient id="paint33_linear_1540_7215" x1="87.9861" y1="130.441" x2="83.0135" y2="113.953" gradientUnits="userSpaceOnUse">
<stop stop-color="#FFC444"/>
<stop offset="0.9964" stop-color="#F36F56"/>
</linearGradient>
<linearGradient id="paint34_linear_1540_7215" x1="81.6666" y1="126.427" x2="89.4572" y2="99.0891" gradientUnits="userSpaceOnUse">
<stop stop-color="#AB316D"/>
<stop offset="1" stop-color="#792D3D"/>
</linearGradient>
<linearGradient id="paint35_linear_1540_7215" x1="83.1044" y1="126.838" x2="90.895" y2="99.5001" gradientUnits="userSpaceOnUse">
<stop stop-color="#AB316D"/>
<stop offset="1" stop-color="#792D3D"/>
</linearGradient>
<linearGradient id="paint36_linear_1540_7215" x1="96.2473" y1="106.758" x2="106.9" y2="87.2789" gradientUnits="userSpaceOnUse">
<stop stop-color="#AB316D"/>
<stop offset="1" stop-color="#792D3D"/>
</linearGradient>
<linearGradient id="paint37_linear_1540_7215" x1="116.435" y1="37.0072" x2="105.921" y2="69.7098" gradientUnits="userSpaceOnUse">
<stop stop-color="#444B8C"/>
<stop offset="0.9964" stop-color="#26264F"/>
</linearGradient>
<linearGradient id="paint38_linear_1540_7215" x1="100.666" y1="67.7295" x2="87.2577" y2="114.794" gradientUnits="userSpaceOnUse">
<stop stop-color="#FF9085"/>
<stop offset="1" stop-color="#FB6FBB"/>
</linearGradient>
<linearGradient id="paint39_linear_1540_7215" x1="104.102" y1="68.7075" x2="90.6947" y2="115.771" gradientUnits="userSpaceOnUse">
<stop stop-color="#FF9085"/>
<stop offset="1" stop-color="#FB6FBB"/>
</linearGradient>
<linearGradient id="paint40_linear_1540_7215" x1="93.414" y1="74.2592" x2="88.1866" y2="61.4879" gradientUnits="userSpaceOnUse">
<stop stop-color="#FFC444"/>
<stop offset="0.9964" stop-color="#F36F56"/>
</linearGradient>
<linearGradient id="paint41_linear_1540_7215" x1="91.0094" y1="59.8567" x2="80.3097" y2="71.1607" gradientUnits="userSpaceOnUse">
<stop stop-color="#FFC444"/>
<stop offset="0.9964" stop-color="#F36F56"/>
</linearGradient>
<linearGradient id="paint42_linear_1540_7215" x1="117.578" y1="58.3671" x2="118.551" y2="76.1816" gradientUnits="userSpaceOnUse">
<stop stop-color="#FFC444"/>
<stop offset="0.9964" stop-color="#F36F56"/>
</linearGradient>
<linearGradient id="paint43_linear_1540_7215" x1="114.902" y1="82.3288" x2="95.1757" y2="82.3288" gradientUnits="userSpaceOnUse">
<stop stop-color="#FF9085"/>
<stop offset="1" stop-color="#FB6FBB"/>
</linearGradient>
<linearGradient id="paint44_linear_1540_7215" x1="70.7695" y1="57.4149" x2="77.0568" y2="60.869" gradientUnits="userSpaceOnUse">
<stop stop-color="#AB316D"/>
<stop offset="1" stop-color="#792D3D"/>
</linearGradient>
<linearGradient id="paint45_linear_1540_7215" x1="79.3118" y1="63.0292" x2="85.9492" y2="66.6756" gradientUnits="userSpaceOnUse">
<stop stop-color="#AB316D"/>
<stop offset="1" stop-color="#792D3D"/>
</linearGradient>
<linearGradient id="paint46_linear_1540_7215" x1="82.4774" y1="63.9511" x2="81.185" y2="65.8851" gradientUnits="userSpaceOnUse">
<stop stop-color="#FFC444"/>
<stop offset="0.9964" stop-color="#F36F56"/>
</linearGradient>
<linearGradient id="paint47_linear_1540_7215" x1="76.0516" y1="55.6461" x2="83.7014" y2="76.1191" gradientUnits="userSpaceOnUse">
<stop stop-color="#444B8C"/>
<stop offset="0.9964" stop-color="#26264F"/>
</linearGradient>
<linearGradient id="paint48_linear_1540_7215" x1="72.092" y1="58.2179" x2="68.6421" y2="57.3707" gradientUnits="userSpaceOnUse">
<stop stop-color="#AB316D"/>
<stop offset="1" stop-color="#792D3D"/>
</linearGradient>
</defs>
</svg>
