<svg width="190" height="113" viewBox="0 0 190 113" fill="none" xmlns="http://www.w3.org/2000/svg">
<path d="M64.9942 112.401C98.3654 112.401 125.418 110.614 125.418 108.41C125.418 106.206 98.3654 104.42 64.9942 104.42C31.623 104.42 4.57031 106.206 4.57031 108.41C4.57031 110.614 31.623 112.401 64.9942 112.401Z" fill="#EBF5FF"/>
<path d="M163.69 111.559C178.217 111.559 189.993 110.149 189.993 108.41C189.993 106.67 178.217 105.26 163.69 105.26C149.163 105.26 137.387 106.67 137.387 108.41C137.387 110.149 149.163 111.559 163.69 111.559Z" fill="#EBF5FF"/>
<path d="M78.1641 1.63477L90.2401 4.71661" stroke="#6F5D58" stroke-width="0.690039" stroke-miterlimit="10"/>
<path d="M40.7734 38.4111C40.7734 38.4111 44.8778 35.3814 44.6393 34.9854C44.3599 34.521 42.7937 35.704 42.7937 35.704C42.7937 35.704 45.287 33.7047 44.8797 33.4333C44.5014 33.1813 42.2664 35.1152 42.2664 35.1152C42.2664 35.1152 44.3396 32.745 43.9944 32.4894C43.6493 32.2338 41.433 34.8809 41.433 34.8809C41.433 34.8809 43.0515 32.6006 42.7373 32.4482C42.4227 32.2954 40.2948 34.7875 40.2948 34.7875C40.2948 34.7875 40.1546 33.5974 39.7221 33.6096C39.2896 33.6219 39.7228 36.3096 39.5887 36.6711C39.3354 37.354 39.7579 38.2515 39.7579 38.2515L40.7734 38.4111Z" fill="#FFCEB6"/>
<path d="M39.6985 34.5995C39.7049 34.6055 39.7113 34.6116 39.7177 34.6177C39.7559 34.654 39.836 34.6437 39.846 34.5837C39.8479 34.5716 39.8501 34.5591 39.852 34.5469C39.8572 34.5161 39.8399 34.4943 39.8094 34.4908C39.7969 34.4895 39.7844 34.4879 39.7719 34.4866C39.7472 34.4837 39.7164 34.503 39.7055 34.5248C39.7011 34.5341 39.6966 34.543 39.6921 34.5523C39.685 34.5677 39.6854 34.5873 39.6985 34.5995Z" fill="#F7B094"/>
<path d="M41.5265 33.9344C41.6064 33.9815 41.6486 34.0172 41.7408 34.0053C41.7833 33.9998 41.8262 33.9637 41.8097 33.9148C41.7769 33.8174 41.7288 33.7958 41.6409 33.7388C41.5187 33.6598 41.4008 33.8603 41.5265 33.9344Z" fill="#F7B094"/>
<path d="M41.8384 33.5352C41.897 33.5784 41.9215 33.5845 41.9927 33.5907C42.0417 33.5949 42.0865 33.5362 42.0695 33.4901C42.0446 33.4237 42.0327 33.4025 41.9757 33.3577C41.8477 33.2571 41.7056 33.4376 41.8384 33.5352Z" fill="#F7B094"/>
<path d="M42.5589 34.2849C42.6144 34.2875 42.6253 34.2868 42.6762 34.2672C42.7349 34.2446 42.7407 34.1785 42.6927 34.1415C42.6485 34.1076 42.6395 34.1051 42.5851 34.0915C42.4474 34.0571 42.4139 34.2784 42.5589 34.2849Z" fill="#F7B094"/>
<path d="M42.8774 33.7999C42.8986 33.8196 42.9212 33.8383 42.9444 33.856C43.0295 33.9237 43.1719 33.8389 43.1062 33.7313C43.0917 33.7065 43.0762 33.6826 43.0595 33.6594C42.9608 33.5157 42.7556 33.6929 42.8774 33.7999Z" fill="#F7B094"/>
<path d="M43.3032 34.815C43.379 34.8553 43.4189 34.8814 43.5046 34.8647C43.5417 34.8576 43.5697 34.8089 43.5565 34.7735C43.5262 34.6926 43.4876 34.6732 43.4122 34.6288C43.2919 34.5579 43.1808 34.7499 43.3032 34.815Z" fill="#F7B094"/>
<path d="M43.7004 34.2706C43.6743 34.3853 43.7523 34.4656 43.865 34.4672C43.9195 34.4678 43.9675 34.4101 43.9495 34.3563C43.9211 34.2716 43.8631 34.2142 43.7684 34.219C43.7384 34.2203 43.7075 34.2397 43.7004 34.2706Z" fill="#F7B094"/>
<path d="M43.4719 35.5148C43.5164 35.5628 43.5622 35.5995 43.6192 35.6311C43.6965 35.674 43.8264 35.6002 43.7855 35.5032C43.7549 35.431 43.7214 35.3759 43.6701 35.3166C43.5525 35.1809 43.3485 35.382 43.4719 35.5148Z" fill="#F7B094"/>
<path d="M43.8916 35.4062C43.9016 35.4149 43.9119 35.4239 43.9219 35.4326C44.0438 35.5386 44.2065 35.3769 44.0992 35.2554C44.0905 35.2454 44.0815 35.2354 44.0724 35.2254C43.9632 35.101 43.7669 35.2979 43.8916 35.4062Z" fill="#F7B094"/>
<path d="M31.4432 37.5755C31.4432 37.5755 35.663 44.0144 36.1522 43.9074C36.6414 43.8004 39.7435 36.3828 39.7435 36.3828L41.1576 38.1392C41.1576 38.1392 39.0265 46.6735 37.0084 47.6831C34.9904 48.6928 28.1367 39.5823 28.1367 39.5823L31.4432 37.5755Z" fill="#FFCEB6"/>
<path d="M18.2848 16.2813C16.1649 16.0738 14.4921 16.7347 13.7309 18.2897C12.6029 20.5945 13.7905 25.8613 12.125 30.0418C12.125 30.0418 17.1975 27.1875 17.2468 22.9094C17.2961 18.6313 18.2848 16.2813 18.2848 16.2813Z" fill="#332B6B"/>
<path d="M24.4183 56.1367L23.9336 56.2959L24.0486 58.1638L24.4183 56.1367Z" fill="#FFCEB6"/>
<path d="M30.3203 87.9088L30.2884 83.1402L30.1527 79.1277L29.533 60.7845L28.8662 57.9483L23.9023 55.8223L23.9317 56.2976L24.4164 56.1384L24.0467 58.1655L27.9687 106.014L30.4434 106.268L30.3203 87.9088Z" fill="#FFCEB6"/>
<path d="M23.9294 56.2969L17.7409 58.3285L15.7261 74.5914L14.0922 87.7795L14.0609 88.2184L12.8086 105.885L15.1009 105.734L18.4908 88.6048L18.5379 88.3673L20.7718 76.1144L24.0445 58.1647L23.9294 56.2969Z" fill="#FFCEB6"/>
<path d="M28.9188 50.9453C28.8823 51.3369 22.9716 51.7423 19.2559 51.1915C19.2398 51.2444 19.223 51.3053 19.2066 51.3607C19.0245 51.373 18.8205 51.3817 18.5981 51.381C17.4338 53.9237 14.1647 71.6732 12.8086 102.407C12.8086 102.407 14.3187 102.32 16.1373 102.407C16.1373 102.407 23.6078 60.6098 23.8998 60.6211C24.1872 60.6324 27.2036 102.402 27.485 102.41C28.1208 102.429 29.2442 102.759 30.728 102.407C31.9313 76.6777 28.9188 50.9453 28.9188 50.9453Z" fill="#332B6B"/>
<path d="M13.5311 105.033L15.9182 105.682L16.4415 106.5L14.9862 106.925L13.4209 106.617L13.2305 105.95L13.5311 105.033Z" fill="#FFCEB6"/>
<path d="M28.6679 105.033L31.0549 105.682L31.5783 106.5L30.1232 106.925L28.5576 106.617L28.3672 105.95L28.6679 105.033Z" fill="#FFCEB6"/>
<path d="M12.4609 108.182H21.6939C21.6939 108.182 21.6707 107.414 21.3581 107C21.0455 106.585 16.5911 105.81 15.9182 105.681C15.9182 105.681 15.798 106.124 15.1171 106.243C14.4361 106.363 12.9956 105.454 12.9956 105.454L12.8419 105.371L12.4609 108.182Z" fill="#332B6B"/>
<path d="M27.6289 108.182H37.1638C37.1638 108.182 37.1406 107.414 36.828 107C36.5154 106.585 31.7253 105.81 31.0524 105.681C31.0524 105.681 30.9321 106.124 30.2512 106.243C29.5702 106.363 28.1297 105.454 28.1297 105.454L27.9051 105.371L27.6289 108.182Z" fill="#332B6B"/>
<path d="M19.4341 32.261C19.856 31.9417 21.0387 31.5833 21.1982 31.6316C21.3461 31.5543 22.5749 31.6851 23.049 31.9198C25.9342 33.349 30.2443 34.0283 30.4895 36.5939C30.4895 36.5939 30.6071 38.4376 29.1746 38.573L21.9178 39.2578L15.6977 39.9487C14.2653 40.0838 13.7425 37.9265 13.7425 37.9265C13.5034 35.3606 16.8669 34.2046 19.4341 32.261Z" fill="#FFD85A"/>
<path d="M29.6478 45.0156C32.2481 41.6434 28.5521 38.6547 28.3661 38.1659L27.1843 33.5059L23.7654 38.9586L16.8621 33.9615L15.6072 34.8081L15.1992 39.9029L18.5998 51.382C20.05 51.6047 25.962 52.4007 28.9433 51.1929C28.7154 48.8548 28.72 46.219 29.6478 45.0156Z" fill="#FFD85A"/>
<path d="M16.8846 33.9784C16.8846 33.9784 20.7812 36.4338 22.9955 36.148C25.2098 35.8621 25.6039 32.9727 25.6039 32.9727C25.6039 32.9727 26.3635 33.2214 27.2191 33.5218C27.2191 33.5218 27.263 40.1583 24.5649 40.1583C21.8666 40.1583 16.6826 36.8308 16.8846 33.9784Z" fill="#FFD85A"/>
<path d="M12.4387 101.987C12.3414 102.091 12.3417 102.513 12.3959 102.672C12.45 102.832 12.3533 103.192 12.4603 103.327C12.567 103.462 16.3962 103.687 16.4336 103.462C16.471 103.237 16.3559 102.938 16.422 102.729C16.488 102.519 16.5167 102.056 16.2496 102.086C15.983 102.117 12.5548 101.864 12.4387 101.987Z" fill="#160B02"/>
<path d="M27.2512 101.987C27.1539 102.091 27.1542 102.513 27.2084 102.672C27.2625 102.832 27.1658 103.192 27.2728 103.327C27.3795 103.462 31.2087 103.687 31.2461 103.462C31.2835 103.237 31.1684 102.938 31.2345 102.729C31.3005 102.519 31.3289 102.056 31.0621 102.086C30.7952 102.117 27.3669 101.864 27.2512 101.987Z" fill="#160B02"/>
<path d="M21.6959 34.3411C22.754 34.3072 23.5844 33.422 23.5506 32.364L23.3982 27.5938L19.5664 27.7162L19.7188 32.4867C19.7527 33.5444 20.6379 34.3749 21.6959 34.3411Z" fill="#FFCEB6"/>
<path d="M24.1265 17.8087L24.0205 17.8061C23.569 17.0182 22.8787 16.4481 22.0202 16.4281L18.6322 16.3501C17.2513 16.3182 15.9628 17.8164 16.1804 19.3127L18.095 28.0533C18.309 29.5263 19.3921 31.4654 22.8114 31.6343C22.8797 31.6388 22.9454 31.6482 23.015 31.6498L23.1053 31.6598C25.0995 31.7058 26.7031 30.0475 26.7491 28.0533L27.2848 21.1158C27.3257 19.3379 25.9045 17.8496 24.1265 17.8087Z" fill="#FFCEB6"/>
<path d="M22.2772 18.2416C22.2772 18.2416 21.0135 20.278 19.2211 22.5132C18.3703 23.5738 18.0052 24.5055 17.8466 25.3772C17.7329 26.0018 16.8579 26.0714 16.6339 25.4774C15.3187 21.9915 13.9987 15.9992 20.6362 15.9219L22.2772 18.2416Z" fill="#332B6B"/>
<path d="M15.8026 26.0711C16.2425 27.036 17.0968 27.5909 17.7111 27.3106C17.7716 27.2829 17.8277 27.2481 17.879 27.2071C18.3475 26.8317 18.4233 25.9258 18.0269 25.0563C17.587 24.0914 16.7327 23.5365 16.1184 23.8169C15.5042 24.0969 15.363 25.1063 15.8026 26.0711Z" fill="#FFCEB6"/>
<path d="M19.0634 20.7212C19.0634 20.7212 26.6197 21.9062 27.93 24.6107C27.93 24.6107 30.2871 14.028 18.9961 16.096L19.0634 20.7212Z" fill="#332B6B"/>
<path d="M17.7272 27.3815C17.7272 27.6484 17.511 27.8643 17.2445 27.8643C16.978 27.8643 16.7617 27.648 16.7617 27.3815C16.7617 27.1147 16.978 26.8984 17.2445 26.8984C17.5113 26.8984 17.7272 27.1147 17.7272 27.3815Z" fill="#FFD85A"/>
<path d="M19.6802 30.7344C19.9484 31.2017 20.9432 31.427 21.4189 31.5704C21.9042 31.7164 22.7598 32.0022 23.2326 31.717C23.2845 31.6857 23.2684 31.6161 23.2168 31.5962C22.9925 31.5104 22.7663 31.5349 22.5284 31.5088C22.1456 31.4669 21.7653 31.3683 21.396 31.2607C20.8723 31.1082 20.2436 30.6458 19.7083 30.6861C19.6841 30.6877 19.6674 30.7119 19.6802 30.7344Z" fill="#F7B094"/>
<path d="M23.6409 25.3345C23.5626 25.7538 23.6116 26.1411 23.813 26.5211C23.9184 26.7199 24.0718 26.8936 24.1662 27.0979C24.3447 27.4834 24.0041 27.4109 23.7482 27.5198C23.6989 27.5407 23.7215 27.6087 23.7618 27.6232C24.0969 27.7431 24.4614 27.6738 24.4508 27.2558C24.4437 26.9684 24.2016 26.7666 24.0566 26.5459C23.8243 26.193 23.7498 25.7663 23.7598 25.3506C23.7618 25.2836 23.6538 25.2662 23.6409 25.3345Z" fill="#F7B094"/>
<path d="M21.3446 25.4198C21.3898 25.2194 21.7207 24.6844 21.9553 24.7807C22.0855 24.8342 22.1181 24.9805 22.1771 25.0991C22.2402 25.2268 22.3189 25.3505 22.4304 25.4404C22.4823 25.482 22.5467 25.4536 22.5544 25.3889C22.5999 25.0157 22.3492 24.3628 21.8822 24.4195C21.4661 24.4701 21.1806 25.0234 21.1564 25.394C21.1497 25.502 21.3211 25.5252 21.3446 25.4198Z" fill="#332B6B"/>
<path d="M24.7668 25.6874C24.8119 25.4869 25.1429 24.952 25.3775 25.0483C25.5077 25.1018 25.5403 25.2481 25.5989 25.3667C25.6621 25.4943 25.7407 25.6181 25.8522 25.708C25.9041 25.7496 25.9686 25.7212 25.9763 25.6564C26.0217 25.2833 25.771 24.6303 25.304 24.6871C24.888 24.7377 24.6025 25.291 24.5783 25.6616C24.5719 25.7692 24.7433 25.7924 24.7668 25.6874Z" fill="#332B6B"/>
<path d="M24.0325 56.5192C23.9132 57.6529 23.7334 58.8395 23.8684 59.9774C23.8797 60.0722 24.0286 60.1147 24.0511 60.0022C24.278 58.8675 24.2429 57.6709 24.3132 56.5192C24.3238 56.3368 24.0511 56.3432 24.0325 56.5192Z" fill="#211E4F"/>
<path d="M27.5824 52.2379C27.6462 53.195 27.8499 54.1953 28.4951 54.9388C28.5308 54.9797 28.6004 54.9362 28.5853 54.8863C28.3127 53.9981 27.953 53.1708 27.8467 52.2379C27.828 52.0729 27.5711 52.0655 27.5824 52.2379Z" fill="#0457AA"/>
<path d="M18.1685 54.5411C19.2468 54.2985 20.2896 53.7203 21.0702 52.944C21.1462 52.8686 21.0479 52.7351 20.9542 52.7938C20.0273 53.3726 19.1021 53.8492 18.0931 54.2685C17.929 54.3362 17.9858 54.582 18.1685 54.5411Z" fill="#0457AA"/>
<path d="M27.2201 33.5215C29.8956 34.643 30.8962 35.8998 33.1979 37.9027C33.1979 37.9027 31.0455 41.0613 28.5363 41.6326L25.9062 36.4728L27.2201 33.5215Z" fill="#FFD85A"/>
<path d="M16.9229 33.9238C15.2367 34.7266 13.2119 35.7833 12.6016 41.2751L14.0624 39.7752L17.9167 35.4295L16.9229 33.9238Z" fill="#FFD85A"/>
<path d="M22.5287 29.1103C22.17 29.0256 21.8226 28.9183 21.4978 28.7413C21.3028 28.635 21.1284 28.9328 21.3237 29.0391C21.674 29.2299 22.0498 29.3514 22.4369 29.4429C22.6528 29.4942 22.7449 29.1616 22.5287 29.1103Z" fill="#F7B094"/>
<path d="M20.8779 26.3873C20.8746 26.3844 20.8714 26.3812 20.8682 26.3783C20.8199 26.3322 20.7451 26.3322 20.6968 26.3783C20.6935 26.3812 20.6903 26.3844 20.6874 26.3873C20.6017 26.4689 20.6681 26.6174 20.7828 26.6174C20.8969 26.6174 20.9633 26.4689 20.8779 26.3873Z" fill="#F7B094"/>
<path d="M21.2357 27.3292C21.3937 27.3292 21.394 27.084 21.2357 27.084C21.0778 27.084 21.0775 27.3292 21.2357 27.3292Z" fill="#F7B094"/>
<path d="M20.4039 27.1082C20.4 27.1008 20.3962 27.0931 20.3923 27.0857C20.2956 26.8971 20.0291 27.1617 20.2189 27.259C20.2263 27.2629 20.2341 27.2668 20.2415 27.2706C20.3488 27.3254 20.459 27.2155 20.4039 27.1082Z" fill="#F7B094"/>
<path d="M25.758 27.1072C25.9401 27.1072 25.9404 26.8242 25.758 26.8242C25.5756 26.8242 25.5753 27.1072 25.758 27.1072Z" fill="#F7B094"/>
<path d="M26.2994 27.8351C26.2933 27.8347 26.2872 27.8344 26.2807 27.8341C26.2304 27.8312 26.1808 27.8812 26.1837 27.9311C26.184 27.9372 26.1844 27.9434 26.1847 27.9498C26.1905 28.0468 26.3071 28.1042 26.3803 28.0307C26.4535 27.9579 26.3964 27.8409 26.2994 27.8351Z" fill="#F7B094"/>
<path d="M25.2149 27.9297C25.4021 27.9297 25.4024 27.6387 25.2149 27.6387C25.0273 27.6383 25.0273 27.9297 25.2149 27.9297Z" fill="#F7B094"/>
<path d="M28.922 47.1225C28.8176 48.9656 29.8963 55.4657 29.8963 55.4657C29.8963 55.4657 23.7506 57.4267 16.8789 54.6813C16.8789 54.6813 18.7145 51.7716 17.9153 49.0732C17.1161 46.3749 19.2514 46.7816 19.2514 46.7816L28.922 47.1225Z" fill="#FFD85A"/>
<path d="M18.5999 56.1002C17.3476 60.6861 16.6815 65.4644 16.0401 70.1666C15.1881 76.4131 14.5854 82.6896 14.1259 88.9767C13.8252 93.0879 13.5719 97.2106 13.4649 101.332C13.4604 101.51 13.7285 101.507 13.7398 101.332C14.5709 88.6441 15.3892 75.9326 17.5055 63.3787C17.9122 60.9671 18.3917 58.5736 18.8809 56.1776C18.9177 55.9955 18.6495 55.9175 18.5999 56.1002Z" fill="#211E4F"/>
<path d="M19.0579 81.2422C18.2615 81.6467 17.3228 81.5168 16.6483 80.937C16.5387 80.8426 16.3337 80.9693 16.4323 81.1036C17.0788 81.9825 18.3585 82.1278 19.1951 81.4198C19.2976 81.3334 19.1671 81.1868 19.0579 81.2422Z" fill="#211E4F"/>
<path d="M29.5523 81.6353C29.1868 82.1184 28.5549 82.0617 28.0586 81.8503C27.9703 81.8125 27.8346 81.9002 27.9074 82.0014C28.3934 82.6782 29.4227 82.3955 29.8388 81.8026C29.9629 81.6253 29.6783 81.4687 29.5523 81.6353Z" fill="#211E4F"/>
<path d="M24.0589 60.8196C24.3393 64.4032 24.8056 67.9839 25.1817 71.5595C25.522 74.7951 25.8427 78.0326 26.1456 81.272C26.6123 86.2639 27.0331 91.2607 27.4105 96.2604C27.5381 97.9506 27.6774 99.6396 27.8159 101.329C27.8349 101.562 28.1952 101.567 28.1824 101.329C27.6735 91.7779 26.7518 82.2372 25.7386 72.7284C25.3148 68.7516 24.9336 64.7361 24.2813 60.7903C24.2607 60.6646 24.0489 60.6926 24.0589 60.8196Z" fill="#211E4F"/>
<path d="M27.3435 56.1828C26.4383 57.7387 27.3416 60.9898 29.3716 61.1374C29.4386 61.1422 29.4666 61.0388 29.4064 61.0094C27.4638 60.0626 27.4451 58.0771 27.3713 56.1906C27.3706 56.1761 27.3513 56.1699 27.3435 56.1828Z" fill="#211E4F"/>
<path d="M21.0025 56.3661C20.9586 57.0658 20.7256 57.7471 20.2322 58.2591C19.7562 58.7535 19.1565 58.9317 18.5355 59.1657C18.4237 59.2079 18.3873 59.4074 18.5355 59.4309C20.1997 59.6929 21.4685 57.8705 21.2883 56.3665C21.2664 56.1866 21.0141 56.1786 21.0025 56.3661Z" fill="#211E4F"/>
<path d="M28.4254 54.3584C28.4193 54.3574 28.4132 54.3568 28.4067 54.3561C28.3632 54.3503 28.3242 54.3842 28.3017 54.4164C28.185 54.5817 28.1396 54.8369 28.2723 55.011C28.3104 55.0609 28.3826 55.0699 28.419 55.011C28.4876 54.9004 28.6545 54.3877 28.4254 54.3584Z" fill="#EFAC35"/>
<path d="M28.669 54.4867C28.6181 54.7449 28.5797 54.993 28.6406 55.2541C28.6545 55.3134 28.7308 55.3137 28.7611 55.2699C28.9068 55.0607 28.9632 54.8271 29.0093 54.5805C29.0509 54.3591 28.7131 54.2631 28.669 54.4867Z" fill="#EFAC35"/>
<path d="M19.2535 20.5957C19.2535 20.5957 22.9019 20.8787 24.9777 23.4265C24.9777 23.4265 21.6493 21.9483 18.2812 22.4516L19.2535 20.5957Z" fill="#332B6B"/>
<path d="M16.2641 42.471C16.2641 42.471 13.7994 48.8628 15.1794 55.8715C15.1794 55.8715 13.665 58.9266 13.2989 56.827C12.9328 54.7275 11.1501 48.8271 12.9045 41.2734L16.2641 42.471Z" fill="#FFCEB6"/>
<path d="M13.5491 37.2676C15.5849 38.5463 19.5639 37.4029 18.7754 39.9385C17.9868 42.4741 16.1257 44.9933 16.1257 44.9933C16.1257 44.9933 12.4898 44.4271 12.1469 42.9862C11.9185 42.0259 13.5491 37.2676 13.5491 37.2676Z" fill="#FFD85A"/>
<path d="M17.0333 57.1965C17.0359 57.1666 17.0379 57.1369 17.0392 57.107C17.0437 57.0248 16.9193 57.0109 16.8977 57.0879C16.8893 57.1169 16.8816 57.1459 16.8741 57.1753C16.8458 57.2871 17.024 57.3164 17.0333 57.1965Z" fill="#F7B094"/>
<path d="M16.8435 59.775C16.8921 59.7602 16.9286 59.7451 16.9746 59.7231C17.1232 59.6522 16.9869 59.4105 16.8444 59.5001C16.8151 59.5217 16.7835 59.5385 16.749 59.5507C16.6211 59.6068 16.7123 59.815 16.8435 59.775Z" fill="#F7B094"/>
<path d="M16.6922 59.3313C16.7615 59.2882 16.7956 59.2501 16.8185 59.1702C16.8224 59.1573 16.814 59.1418 16.8005 59.1386C16.7199 59.119 16.6696 59.1293 16.5968 59.1683C16.4901 59.226 16.5887 59.3958 16.6922 59.3313Z" fill="#F7B094"/>
<path d="M16.3229 60.7964C16.4025 60.7529 16.4437 60.6955 16.4802 60.6114C16.4892 60.5905 16.4785 60.5715 16.4557 60.5689C16.3651 60.5579 16.2936 60.5654 16.2156 60.6124C16.0979 60.6833 16.2024 60.8622 16.3229 60.7964Z" fill="#F7B094"/>
<path d="M16.1031 60.1825C16.1112 60.1735 16.1192 60.1645 16.1273 60.1558C16.1711 60.1074 16.146 60.0004 16.067 60.0104C16.0557 60.0117 16.0448 60.0133 16.0335 60.0146C15.8321 60.0397 15.9932 60.304 16.1031 60.1825Z" fill="#F7B094"/>
<path d="M15.2743 61.1905C15.3191 61.1737 15.3498 61.1618 15.3881 61.1337C15.4938 61.0564 15.4606 60.8901 15.3201 60.8833C15.2731 60.8811 15.2392 60.8862 15.1931 60.8969C15.0007 60.9417 15.0916 61.2585 15.2743 61.1905Z" fill="#F7B094"/>
<path d="M15.1931 60.516C15.3803 60.4258 15.292 60.2028 15.0935 60.2795C14.9201 60.3465 15.023 60.5982 15.1931 60.516Z" fill="#F7B094"/>
<path d="M14.2467 60.4535C14.326 60.4264 14.3853 60.4045 14.4259 60.3285C14.4388 60.3043 14.4329 60.2701 14.4068 60.2566C14.3314 60.2176 14.2725 60.2279 14.1906 60.2508C14.0601 60.2872 14.1191 60.497 14.2467 60.4535Z" fill="#F7B094"/>
<path d="M14.1186 60.1648C14.1725 60.1493 14.2256 60.1341 14.2788 60.1161C14.3362 60.0968 14.362 60.0545 14.3694 59.9972C14.3745 59.9572 14.36 59.9376 14.3333 59.9098C14.3043 59.8802 14.2537 59.8641 14.2134 59.8783C14.1602 59.897 14.1087 59.9176 14.0564 59.9385C13.9201 59.9933 13.9698 60.2076 14.1186 60.1648Z" fill="#F7B094"/>
<path d="M14.2876 49.2159C14.0482 49.0864 13.7907 49.0348 13.5429 49.1673C13.4101 49.2382 13.4836 49.4206 13.6144 49.4309C13.8013 49.446 13.9863 49.4428 14.1655 49.5066C14.3353 49.5672 14.4449 49.301 14.2876 49.2159Z" fill="#F7B094"/>
<path d="M21.3446 28.3908C21.2363 28.5242 21.2247 28.7221 21.1612 28.881C21.0881 29.0634 20.9447 29.2239 20.9047 29.4175C20.8889 29.4946 20.954 29.5754 21.0372 29.5503C21.2576 29.4833 21.3768 29.2654 21.4551 29.0621C21.5251 28.881 21.606 28.579 21.4777 28.4082C21.4487 28.3689 21.3826 28.3437 21.3446 28.3908Z" fill="#F7B094"/>
<path d="M21.8337 23.5134C21.5011 23.2363 21.0315 23.4103 20.6706 23.5666C20.3048 23.7252 19.9452 24.0081 19.8801 24.428C19.8685 24.5022 19.9461 24.5534 20.0061 24.5015C20.2549 24.2869 20.5111 24.119 20.8175 23.9907C21.0757 23.8827 21.4689 23.6775 21.7544 23.7042C21.8482 23.7132 21.9062 23.574 21.8337 23.5134Z" fill="#332B6B"/>
<path d="M25.6723 24.052C25.8044 24.0749 25.8914 24.1744 25.98 24.2676C26.0832 24.3759 26.1612 24.4319 26.3094 24.4571C26.4696 24.4845 26.5595 24.3207 26.4615 24.1957C26.2759 23.9588 26.0564 23.682 25.72 23.7001C25.5298 23.7097 25.4622 24.0156 25.6723 24.052Z" fill="#332B6B"/>
<path d="M16.9145 43.9862C18.0054 42.6765 18.8072 41.0793 18.6505 39.3378C18.6451 39.2762 18.5568 39.2746 18.5535 39.3378C18.4659 41.0906 17.6666 42.4309 16.7704 43.8753C16.7169 43.9617 16.8468 44.0674 16.9145 43.9862Z" fill="#EFAC35"/>
<path d="M27.6596 36.1683C27.396 37.4683 27.9999 38.9289 28.9764 39.809C29.3335 40.1309 29.7128 40.4203 29.9722 40.8344C30.4169 41.5444 30.4401 42.4496 30.4449 43.2637C30.4453 43.3185 30.5313 43.3333 30.5429 43.2769C30.7808 42.1299 30.6477 41.0107 29.7885 40.1551C29.4939 39.8615 29.1285 39.6401 28.852 39.3285C28.1172 38.4999 27.6954 37.2785 27.7521 36.1809C27.755 36.1283 27.6702 36.1161 27.6596 36.1683Z" fill="#EFAC35"/>
<path d="M17.7478 44.4368C17.6253 44.6218 17.4568 44.8613 17.5509 45.1007C17.6475 45.346 17.9115 45.3347 18.0533 45.5129C18.3162 45.8439 18.13 46.9654 18.1303 47.3978C18.1309 48.0914 18.167 48.7572 18.2569 49.4452C18.2708 49.5512 18.4123 49.5538 18.4239 49.4452C18.5521 48.248 18.5373 47.0243 18.4458 45.8232C18.4336 45.6634 18.4474 45.4204 18.3362 45.2841C18.1342 45.0366 17.4974 45.1913 17.8828 44.5161C17.9331 44.4275 17.8029 44.3534 17.7478 44.4368Z" fill="#EFAC35"/>
<path d="M19.1662 32.9237C19.056 34.2008 20.4701 35.0838 21.5739 35.2765C23.1127 35.5453 24.2751 34.4983 24.3824 32.9727C24.3963 32.7735 24.0879 32.7377 24.0383 32.9259C23.6996 34.216 22.9342 35.1563 21.4898 34.8441C20.6051 34.653 19.4498 33.9427 19.4331 32.9234C19.4302 32.7497 19.181 32.7545 19.1662 32.9237Z" fill="#EFAC35"/>
<path d="M5.41016 67.646L78.3513 1.46484" stroke="#6F5D58" stroke-width="0.690039" stroke-miterlimit="10"/>
<path d="M6.89805 67.8382C6.79138 68.6597 6.03889 69.2394 5.2171 69.1324C4.39564 69.0258 3.81588 68.2729 3.92288 67.4515C4.02955 66.63 4.78204 66.0503 5.60383 66.1573C6.42561 66.2642 7.00472 67.0167 6.89805 67.8382Z" fill="#332B6B"/>
<path d="M38.2652 39.3792C38.1586 40.2007 37.4057 40.7804 36.5843 40.6734C35.7628 40.5668 35.1831 39.814 35.2901 38.9925C35.3967 38.171 36.1496 37.5913 36.971 37.6983C37.7925 37.8049 38.3719 38.5574 38.2652 39.3792Z" fill="#332B6B"/>
<path d="M104.699 13.1188L87.793 7.95767L89.831 1.28125L106.737 6.44237C108.581 7.00505 109.619 8.95605 109.056 10.7997C108.494 12.6434 106.543 13.6815 104.699 13.1188Z" fill="#211E4F"/>
<path d="M91.262 0.701344L88.9648 0L86.3567 8.54254L88.6538 9.24388L91.262 0.701344Z" fill="#332B6B"/>
<path d="M0.171252 76.522C3.82158 74.9216 7.23729 72.6071 10.3846 70.1791C13.2099 67.9996 15.9298 65.6003 18.0507 62.7112C19.0877 61.2987 19.9508 59.774 20.6001 58.1459C21.3384 56.2955 21.818 54.3567 22.4425 52.4676C23.6262 48.8875 25.6214 45.9201 28.5808 43.5688C34.8202 38.6114 42.9056 37.3951 50.2458 34.8686C53.4933 33.7506 56.8249 32.3471 59.2423 29.8215C61.5526 27.4077 62.617 24.1976 63.4292 21.0281C64.4169 17.1732 65.2045 13.2886 67.4514 9.92279C69.6696 6.60021 72.8848 3.97824 76.5812 2.46713C76.8087 2.374 76.7108 1.99952 76.4781 2.09298C73.4014 3.32501 70.6644 5.28053 68.5194 7.81065C66.3744 10.3405 65.0289 13.2818 64.1533 16.461C63.2252 19.8312 62.6957 23.3846 61.0808 26.5231C59.2729 30.0365 56.0699 32.1651 52.4943 33.6211C45.3609 36.5257 37.4605 37.4525 30.8183 41.5479C27.9765 43.2997 25.4051 45.5985 23.7332 48.5182C21.8125 51.8724 21.3839 55.8102 19.7132 59.2694C17.9073 63.0086 14.9234 66.0189 11.7532 68.6319C8.10935 71.6354 4.13257 73.9774 0.0571707 76.327C-0.0723808 76.4008 0.0410561 76.579 0.171252 76.522Z" fill="#211E4F"/>
<path d="M13.3008 56.8255C13.3008 56.8255 13.8219 61.1413 14.2837 61.1181C14.8251 61.091 14.5212 59.1516 14.5212 59.1516C14.5212 59.1516 15.1071 62.2934 15.5386 62.0623C15.9392 61.8477 15.2892 58.9647 15.2892 58.9647C15.2892 58.9647 16.4007 61.9109 16.789 61.7275C17.177 61.5438 15.8892 58.3408 15.8892 58.3408C15.8892 58.3408 17.1358 60.8438 17.4187 60.6389C17.7017 60.4336 16.5086 57.3814 16.5086 57.3814C16.5086 57.3814 17.624 57.8194 17.8174 57.4323C18.0107 57.0453 15.2866 56.2409 15.1812 55.87C15.0758 55.499 13.7078 55.2734 13.7078 55.2734L13.3008 56.8255Z" fill="#FFCEB6"/>
<path d="M79.648 1.82844C79.5414 2.6499 78.7886 3.22965 77.9671 3.12266C77.1456 3.01599 76.5659 2.26317 76.6729 1.44171C76.7795 0.620252 77.5324 0.0404933 78.3538 0.147486C79.1753 0.254479 79.7547 1.00698 79.648 1.82844Z" fill="#332B6B"/>
<path d="M57.8021 32.3828C55.8044 34.6193 55.2501 37.9435 56.1218 40.6857C57.0168 43.5004 65.066 46.1559 65.066 46.1559L66.1982 40.8082L57.8021 32.3828Z" fill="#2DEAE4"/>
<path d="M58.8023 16.2971C58.8023 16.2971 51.0263 20.8181 51.6006 21.7192C52.6441 23.3566 64.6077 14.4121 64.6077 14.4121L58.8023 16.2971Z" fill="#0457AA"/>
<path d="M57.543 15.1258C57.5559 17.3875 61.1208 21.7285 63.7756 22.023L64.0467 20.0675L62.8778 15.6934L61.1717 14.7578C61.1717 14.7578 60.4292 13.1839 60.4086 13.2377C60.3879 13.2915 58.2136 14.0753 58.2136 14.0753L57.543 15.1258Z" fill="#332B6B"/>
<path d="M79.1735 39.6016C79.1735 39.6016 79.5595 43.9493 80.0626 49.0533C80.1603 50.0453 86.875 48.4401 90.8354 47.2142L90.3468 50.511L80.828 54.9315C79.3894 55.5996 77.692 54.8519 77.2176 53.3385C76.3275 50.4997 74.9772 45.723 73.9141 39.9232L79.1735 39.6016Z" fill="#FFCEB6"/>
<path d="M77.4474 32.7988C79.7291 36.7479 80.7303 45.1878 80.7303 45.1878C80.7303 45.1878 77.8338 47.502 72.2695 45.7443L75.4229 32.7991L77.4474 32.7988Z" fill="#2DEAE4"/>
<path d="M72.7891 97.7056C72.7604 97.7914 72.2464 105.574 72.2464 105.574L68.6016 105.434L69.0189 96.2773L72.7891 97.7056Z" fill="#FFCEB6"/>
<path d="M60.3418 98.0025C60.3131 98.0882 58.8594 105.573 58.8594 105.573L55.2148 105.433L56.5719 96.5742L60.3418 98.0025Z" fill="#FFCEB6"/>
<path d="M68.1133 101.757L72.5864 101.664C73.6788 92.6374 76.5064 72.6485 76.2557 62.8145L68.7462 63.4206C68.7643 73.7287 68.6067 93.6893 68.1133 101.757Z" fill="#0D72ED"/>
<path d="M55.6758 101.074H59.8833C59.8833 101.074 70.7476 63.5532 70.1781 63.5525L60.4292 63.2734C60.427 64.588 55.6758 101.074 55.6758 101.074Z" fill="#0D72ED"/>
<path d="M54.1318 106.353C54.1337 105.69 54.4173 105.104 54.8495 104.745C54.9075 104.364 54.9687 103.966 55.0093 103.703C55.0361 103.529 55.1834 103.4 55.3593 103.395L59.0203 103.295C59.2198 103.29 59.3864 103.446 59.3944 103.645L59.4292 104.515C60.057 104.805 60.5001 105.518 60.4976 106.353L60.494 107.575H54.1289L54.1318 106.353Z" fill="#332B6B"/>
<path d="M68.1172 103.934C68.1169 103.715 68.2938 103.537 68.5129 103.536C70.0837 104.28 71.4043 104.08 72.6296 103.518L74.0495 105.281L76.4733 105.67C78.1046 105.67 79.6138 105.808 79.4172 107.63L68.1774 107.59L68.1269 104.821L68.1178 104.82L68.1172 103.934Z" fill="#332B6B"/>
<path d="M76.6782 43.1161C76.5387 43.1544 76.4652 43.2904 76.3721 43.3929C76.2744 43.5002 76.169 43.5901 76.1233 43.7313C76.0914 43.8293 76.1909 43.9114 76.2825 43.8905C76.4352 43.8551 76.5384 43.7342 76.6357 43.6185C76.7262 43.5106 76.8503 43.3891 76.8406 43.2402C76.8355 43.1577 76.763 43.0929 76.6782 43.1161Z" fill="#F7B094"/>
<path d="M72.9158 101.013C72.9631 101.136 73.0953 101.663 73.0311 102.009C72.967 102.355 73.1597 103.053 72.9967 103.249C72.8336 103.445 67.889 102.964 67.7627 102.764C67.6364 102.565 67.8852 101.79 67.7769 101.569C67.6686 101.348 67.6918 100.679 67.8078 100.54C67.9238 100.4 72.8262 100.781 72.9158 101.013Z" fill="#0457AA"/>
<path d="M60.1931 100.868C60.2405 100.991 60.3726 101.518 60.3085 101.864C60.2444 102.21 60.4371 102.909 60.274 103.104C60.1109 103.3 55.1664 102.819 55.0401 102.619C54.9137 102.42 55.1625 101.646 55.0542 101.424C54.946 101.203 54.9692 100.535 55.0852 100.395C55.2015 100.256 60.1035 100.637 60.1931 100.868Z" fill="#0457AA"/>
<path d="M63.361 65.1188C63.1622 65.7827 62.8802 66.3521 62.3787 66.8394C61.8808 67.3231 61.2756 67.6289 60.7023 68.006C60.5173 68.1275 60.6797 68.4101 60.8763 68.3038C62.0265 67.6818 63.5592 66.6096 63.5331 65.142C63.5315 65.0431 63.3897 65.0234 63.361 65.1188Z" fill="#0457AA"/>
<path d="M75.7436 67.2914C75.2628 67.2988 74.9176 66.5102 74.7233 66.1615C74.5151 65.788 74.3772 65.3916 74.2215 64.9946C74.1796 64.8882 74.0237 64.8995 74.0175 65.0223C73.9863 65.6536 74.3427 66.224 74.6872 66.7274C74.9454 67.1048 75.2351 67.6439 75.7681 67.4741C75.8657 67.4432 75.8519 67.2897 75.7436 67.2914Z" fill="#0457AA"/>
<path d="M69.2405 65.7705C69.1186 66.7266 69.0178 67.9232 69.2446 68.8659C69.2624 68.939 69.3752 68.939 69.3929 68.8659C69.6201 67.9219 69.5189 66.726 69.3971 65.7705C69.3842 65.6703 69.2534 65.6703 69.2405 65.7705Z" fill="#0457AA"/>
<path d="M75.2909 36.4815L78.1098 35.0039C78.4652 39.456 76.9258 53.8698 76.7105 60.1914C76.6824 61.0157 76.6338 61.8585 76.6157 62.6377C76.6125 62.7792 76.6228 63.1704 76.5278 63.2752C72.5568 67.648 62.4991 64.6519 60.434 64.0206C60.2001 63.949 60.0347 63.7408 60.0167 63.4969L59.9155 62.1408L59.4853 56.3799L56.6406 35.4525L75.2909 36.4815Z" fill="#2DEAE4"/>
<path d="M64.7493 27.3693C65.3298 26.9468 66.9056 26.553 67.1093 26.6425C67.3094 26.5452 68.7584 26.8665 69.3546 27.2661C72.9833 29.6976 78.1102 31.1794 78.1102 35.0028C78.1102 36.0089 77.718 37.7311 75.837 37.7679L67.3304 37.9538L58.6488 38.1401C56.7677 38.1768 56.6414 35.4514 56.6414 35.4514C56.5708 31.6454 61.2179 29.9406 64.7493 27.3693Z" fill="#2DEAE4"/>
<path d="M66.7862 42.6321C66.8084 42.6321 66.8084 42.5977 66.7862 42.5977C66.764 42.5977 66.764 42.6321 66.7862 42.6321Z" fill="#17C6BD"/>
<path d="M60.7339 69.1465C59.7307 73.6241 59.2173 78.2586 58.5502 82.7975C57.8438 87.6021 57.0736 92.4403 56.6489 97.2782C56.6376 97.4071 56.8554 97.4384 56.8764 97.3092C57.675 92.4568 58.1961 87.549 58.9096 82.6818C59.5676 78.1939 60.4777 73.6834 60.8367 69.1604C60.8419 69.1017 60.7468 69.0891 60.7339 69.1465Z" fill="#0457AA"/>
<path d="M69.2959 69.8888C69.1876 77.5739 69.4393 85.2716 69.5759 92.9554C69.6033 94.5007 69.6385 96.046 69.6723 97.5912C69.6755 97.7437 69.9108 97.7443 69.9095 97.5912C69.8463 89.9019 69.748 82.2126 69.583 74.5246C69.5498 72.9787 69.5179 71.4337 69.4496 69.8888C69.4451 69.7902 69.2975 69.7892 69.2959 69.8888Z" fill="#0457AA"/>
<path d="M77.5155 47.686C77.8181 46.851 77.7707 45.8394 77.801 44.9606C77.8416 43.7853 77.8387 42.6087 77.8001 41.4334C77.7314 39.3577 77.7527 36.949 77.0302 34.9726C76.9937 34.873 76.8136 34.8769 76.8291 35C77.1014 37.1543 77.4575 39.2542 77.5355 41.4337C77.5751 42.5349 77.5838 43.6377 77.56 44.7392C77.5393 45.6951 77.3605 46.7331 77.4813 47.6815C77.4842 47.7005 77.5087 47.7054 77.5155 47.686Z" fill="#17C6BD"/>
<path d="M75.9369 58.9832C75.9842 59.8681 76.0335 60.8152 75.8057 61.6818C75.7013 62.0792 75.4879 62.3911 75.3297 62.7595C75.2852 62.8626 75.4083 62.9883 75.4989 62.89C76.436 61.8742 76.3058 60.2426 76.2143 58.9832C76.2018 58.8065 75.9272 58.8036 75.9369 58.9832Z" fill="#17C6BD"/>
<path d="M65.2427 28.7838C65.4164 30.5511 70.251 31.7725 70.1192 28.9252L69.6239 23.2437L65.0664 23.002C65.4541 25.4589 65.5714 27.5424 65.2427 28.7838Z" fill="#FFCEB6"/>
<path d="M73.3401 22.052L72.3394 12.595C72.2485 12.0626 71.7384 11.7017 71.2063 11.7926L68.6904 12.2225C68.062 11.4954 67.2299 11.0427 66.334 11.1957L62.7987 11.8C61.3578 12.0462 60.3224 13.8628 60.8512 15.3733L64.275 24.1441C64.7958 25.6324 66.6375 27.3529 70.2395 26.8302C70.3085 26.8215 70.3765 26.818 70.4461 26.806L70.5418 26.798C72.6227 26.4429 73.6958 24.1325 73.3401 22.052Z" fill="#FFCEB6"/>
<path d="M61.8219 22.4714C62.4739 23.3847 63.4739 23.7882 64.0549 23.3731C64.1123 23.3321 64.1635 23.2848 64.2083 23.2316C64.6192 22.7469 64.5145 21.7904 63.927 20.9673C63.275 20.054 62.275 19.6506 61.694 20.0656C61.1129 20.481 61.17 21.5581 61.8219 22.4714Z" fill="#FFCEB6"/>
<path d="M68.8712 17.782C68.9582 18.6673 69.3256 19.996 70.0607 20.5829C70.2473 20.7321 70.4661 20.7778 70.6562 20.9071C70.9685 20.9983 71.1106 21.2367 71.0829 21.6231C71.0172 21.6438 70.9502 21.6599 70.8822 21.6724C70.5312 21.8674 69.9543 21.7933 69.5583 21.8403C69.3759 21.8619 69.3043 22.1323 69.5115 22.1845C70.0897 22.3302 71.6031 22.2403 71.5364 21.386C71.5006 20.9251 71.1648 20.7691 70.789 20.5909C69.5834 20.0182 69.5673 18.7798 68.9028 17.7733C68.8947 17.7604 68.8693 17.764 68.8712 17.782Z" fill="#F7B094"/>
<path d="M71.9338 18.55C71.969 17.9538 71.4356 17.1001 70.7653 17.211C70.3844 17.2741 70.2003 17.6222 70.1162 17.9667C70.0312 18.3157 69.9703 18.8449 70.2294 19.1381C70.2967 19.2145 70.415 19.1671 70.4433 19.0817C70.5207 18.8494 70.4862 18.5677 70.5059 18.3254C70.5233 18.1095 70.5632 17.6905 70.7998 17.59C71.2058 17.4172 71.7285 18.2123 71.753 18.55C71.7617 18.6657 71.9271 18.667 71.9338 18.55Z" fill="#332B6B"/>
<path d="M66.9091 19.773C66.7886 19.4504 66.9152 18.705 67.2391 18.5346C67.7599 18.2603 68.0857 19.4385 68.3242 19.7099C68.389 19.7837 68.5137 19.7418 68.5382 19.6535C68.6468 19.2609 68.3513 18.7879 68.1112 18.5007C67.8666 18.2084 67.5089 17.9964 67.1305 18.1749C66.5733 18.4379 66.4776 19.3428 66.7438 19.8426C66.7915 19.9313 66.9455 19.8704 66.9091 19.773Z" fill="#332B6B"/>
<path d="M69.1408 26.8962C68.5185 26.6971 67.8417 26.7837 67.2033 26.5594C66.5807 26.3406 66.0554 25.9065 65.4292 25.7228C65.3831 25.7093 65.3422 25.7628 65.3667 25.8041C65.9381 26.7535 68.1366 27.4144 69.1508 26.9726C69.1859 26.9571 69.1717 26.9059 69.1408 26.8962Z" fill="#F7B094"/>
<path d="M90.3438 50.5127C90.3187 50.5388 95.2607 50.1292 95.5639 49.708C95.8672 49.2868 93.7812 49.1521 93.7812 49.1521C93.7812 49.1521 97.0809 48.6729 96.9606 48.2594C96.8401 47.846 94.1508 47.8595 94.1508 47.8595C94.1508 47.8595 97.3925 46.5943 97.3506 45.9594C97.3087 45.3242 93.6481 46.8366 93.6481 46.8366C93.6481 46.8366 96.1118 44.777 95.7744 44.3864C95.4373 43.9958 92.4544 46.4728 92.4544 46.4728C92.4544 46.4728 93.2501 44.4502 92.8414 44.2288C92.4328 44.0078 90.4283 47.4921 90.4283 47.4921L90.3438 50.5127Z" fill="#FFCEB6"/>
<path d="M90.3481 47.68C90.2005 47.6993 90.1661 47.9781 90.1525 48.0922C90.1206 48.3655 90.1889 48.6694 90.2731 48.9278C90.2924 48.9871 90.3739 48.9736 90.3791 48.9136C90.4084 48.563 90.5373 48.0577 90.3987 47.7187C90.3907 47.699 90.3723 47.6768 90.3481 47.68Z" fill="#F7B094"/>
<path d="M92.0946 45.8041C92.2112 45.8161 92.364 45.8003 92.4455 45.7088C92.4832 45.6665 92.4829 45.6101 92.4455 45.5676C92.3646 45.4754 92.2115 45.459 92.0946 45.4696C91.8793 45.4896 91.8806 45.7826 92.0946 45.8041Z" fill="#F7B094"/>
<path d="M94.1808 45.6682C94.2401 45.7629 94.3316 45.8177 94.4447 45.7922C94.4724 45.7861 94.4844 45.7565 94.4795 45.731C94.4663 45.6627 94.4408 45.5966 94.4019 45.5389C94.3107 45.4036 94.0925 45.527 94.1808 45.6682Z" fill="#F7B094"/>
<path d="M93.6784 45.9708C93.6945 46.0507 93.7751 46.2415 93.8933 46.1974C94.0174 46.151 93.9523 45.9466 93.9172 45.8703C93.8521 45.7282 93.6507 45.8339 93.6784 45.9708Z" fill="#F7B094"/>
<path d="M95.8729 46.4798C95.8442 46.5655 95.8632 46.592 95.9112 46.6658C95.9251 46.687 95.9518 46.6903 95.9705 46.6735C96.0343 46.6161 96.0611 46.5955 96.0556 46.5046C96.0492 46.3996 95.9067 46.3789 95.8729 46.4798Z" fill="#F7B094"/>
<path d="M95.0156 46.8267C95.0159 46.9353 95.0627 47.0562 95.1877 47.0498C95.2045 47.0488 95.2267 47.0372 95.2293 47.0182C95.2399 46.9411 95.2106 46.8786 95.1929 46.8029C95.1697 46.7027 95.0153 46.7256 95.0156 46.8267Z" fill="#F7B094"/>
<path d="M94.6605 48.3017C94.6125 48.3846 94.5971 48.4719 94.6796 48.536C94.7192 48.567 94.7836 48.5721 94.8107 48.5193C94.8336 48.4748 94.8384 48.4313 94.8574 48.3849C94.9055 48.2702 94.7205 48.1986 94.6605 48.3017Z" fill="#F7B094"/>
<path d="M95.444 48.2819C95.4076 48.3321 95.3979 48.3566 95.3863 48.4178C95.3486 48.6167 95.6286 48.6982 95.6918 48.502C95.7108 48.4423 95.7153 48.4153 95.7076 48.3534C95.6902 48.2129 95.53 48.1623 95.444 48.2819Z" fill="#F7B094"/>
<path d="M93.9574 49.4956C93.9271 49.5323 93.9107 49.5607 93.8955 49.6058C93.8826 49.6441 93.8958 49.6989 93.9271 49.7254C93.9355 49.7324 93.9439 49.7395 93.9522 49.7466C94.0132 49.7982 94.0931 49.776 94.1211 49.7018C94.1417 49.6477 94.1288 49.6193 94.1237 49.5642C94.1169 49.4901 94.0164 49.424 93.9574 49.4956Z" fill="#F7B094"/>
<path d="M94.4732 49.6321C94.479 49.6956 94.4858 49.7314 94.5309 49.7768C94.5641 49.81 94.6092 49.8032 94.6434 49.7768C94.6862 49.7436 94.6966 49.7166 94.7088 49.664C94.7504 49.4845 94.4581 49.4655 94.4732 49.6321Z" fill="#F7B094"/>
<path d="M92.7189 47.4285C92.7482 47.9038 92.8546 48.3692 93.145 48.7565C93.1666 48.7855 93.2233 48.7704 93.2091 48.7295C93.0602 48.3018 92.91 47.8835 92.8675 47.4285C92.8585 47.335 92.7131 47.3324 92.7189 47.4285Z" fill="#F7B094"/>
<path d="M92.7145 47.8848C92.4032 47.7159 91.9729 48.1365 91.7715 48.3363C91.7122 48.395 91.787 48.4791 91.8566 48.4465C92.0145 48.3718 92.166 48.2799 92.3142 48.1881C92.4515 48.1033 92.5714 47.9889 92.7145 47.9148C92.7258 47.9087 92.7254 47.8909 92.7145 47.8848Z" fill="#F7B094"/>
<path d="M67.4189 16.8331C66.5501 15.9717 64.8295 17.178 64.758 18.1986C64.7535 18.2643 64.8424 18.3211 64.8978 18.2788C65.2356 18.0213 65.4376 17.6262 65.7699 17.3552C66.2604 16.955 66.7889 16.955 67.3857 16.9137C67.4251 16.9108 67.4496 16.8634 67.4189 16.8331Z" fill="#332B6B"/>
<path d="M69.6807 16.3382C70.1132 16.1339 70.4757 15.9071 70.9723 15.9077C71.5276 15.9087 71.9669 16.2277 72.4947 16.3121C72.5659 16.3234 72.651 16.2493 72.5998 16.1755C72.0255 15.3505 69.9549 15.0875 69.6114 16.2848C69.5991 16.3273 69.6452 16.355 69.6807 16.3382Z" fill="#332B6B"/>
<path d="M79.8088 49.1469C79.5587 49.3196 79.2941 49.4714 79.046 49.6473C78.9042 49.7479 78.5761 49.9606 78.5703 50.1588C78.5697 50.1775 78.5887 50.1904 78.6061 50.1862C78.6925 50.1643 78.7721 50.0963 78.8497 50.0537C78.987 49.9786 79.1243 49.9055 79.2574 49.8233C79.4894 49.6802 79.7286 49.549 79.9583 49.4027C80.1201 49.3003 79.9651 49.0386 79.8088 49.1469Z" fill="#F7B094"/>
<path d="M75.696 47.1583C75.8181 47.4255 76.1562 47.9817 76.0102 48.2921C75.8284 48.6785 76.046 48.2386 75.7369 48.5151C75.5065 48.7213 75.4272 48.8064 75.3666 49.1297C75.1784 50.1345 75.656 51.5705 76.0305 52.4745C76.0827 52.6005 76.2664 52.5567 76.2383 52.4171C76.1162 51.8113 75.9067 51.2267 75.7801 50.6211C75.7076 50.2737 75.5332 49.7929 75.6173 49.4387C75.6641 48.9585 75.8481 48.7007 76.17 48.6653C76.2035 48.6533 76.2335 48.635 76.2599 48.6095C76.4913 48.1426 76.1088 47.5331 75.8751 47.0536C75.8165 46.9324 75.6412 47.0381 75.696 47.1583Z" fill="#17C6BD"/>
<path d="M61.5648 18.1971C61.2999 17.93 61.173 19.8327 60.88 19.7505C60.5871 19.668 60.3576 19.4456 60.144 19.229C59.7782 18.8581 59.4137 18.472 59.182 18.0054C58.9503 17.5384 57.6815 14.8124 58.1562 13.8981C58.2294 13.7573 58.3209 13.6238 58.3621 13.4708C58.4195 13.2584 58.3741 13.0341 58.3447 12.8159C58.2622 12.2049 58.3183 11.5533 58.6377 11.026C58.9574 10.4988 59.58 10.1301 60.1878 10.2333C60.3154 8.91197 61.6544 7.83495 62.9725 7.99287C63.5387 6.93486 65.1949 6.69509 66.0379 7.54878C66.5039 7.21233 66.9886 6.86719 67.5516 6.75214C68.1146 6.63709 68.781 6.81756 69.0569 7.32191C69.0982 7.01027 69.4488 6.81595 69.7627 6.83754C70.0766 6.85913 70.355 7.03766 70.6125 7.21846C71.2673 7.67833 71.9522 8.34221 71.8413 9.13466C72.3199 9.12338 72.7659 9.43953 73.004 9.85428C73.2425 10.2694 73.2986 10.7669 73.267 11.2445C73.2515 11.4756 73.22 11.7215 73.327 11.9268C73.4001 12.0673 73.5297 12.1695 73.6199 12.2993C74.0124 12.8649 73.5351 13.6174 73.0546 14.1105C72.6412 14.5343 66.4572 17.0728 64.9689 16.2004C64.918 16.6783 62.8752 19.5191 61.5648 18.1971Z" fill="#332B6B"/>
<path d="M67.5388 23.4457C67.4415 23.5588 67.4012 23.6783 67.3387 23.8124C67.2759 23.9474 67.2253 24.048 67.2114 24.1988C67.203 24.29 67.3071 24.32 67.3735 24.2919C67.6455 24.1769 67.816 23.7786 67.737 23.4979C67.7145 23.417 67.5985 23.376 67.5388 23.4457Z" fill="#F7B094"/>
<path d="M67.4765 23.8851C67.568 24.1752 67.9663 24.4091 68.2377 24.5074C68.5757 24.6296 68.977 24.6586 69.2986 24.4849C69.3621 24.4507 69.365 24.346 69.2986 24.3125C69.0156 24.17 68.7079 24.2 68.4082 24.1127C68.1213 24.0289 67.8609 23.7527 67.5567 23.7791C67.5055 23.784 67.4588 23.8294 67.4765 23.8851Z" fill="#F7B094"/>
<path d="M60.2325 82.8722C61.1545 83.3124 62.6167 83.558 63.4568 82.8051C63.5151 82.7526 63.472 82.633 63.3891 82.6418C62.9003 82.6927 62.4442 82.8757 61.946 82.8992C61.3959 82.925 60.8477 82.8248 60.3344 82.6308C60.1951 82.5783 60.0975 82.8077 60.2325 82.8722Z" fill="#0457AA"/>
<path d="M71.7893 83.3218C72.6137 83.4391 73.6975 83.4997 74.46 83.1069C74.5647 83.0527 74.5106 82.8961 74.4023 82.8932C73.9727 82.8829 73.546 83.0057 73.1193 83.0472C72.6862 83.0895 72.2547 83.0943 71.8203 83.0962C71.6956 83.0972 71.6579 83.3028 71.7893 83.3218Z" fill="#0457AA"/>
<path d="M63.8796 28.5188C64.1748 32.114 70.9775 33.4721 71.1448 29.1624C71.1506 29.0151 70.9082 28.9767 70.8828 29.1269C70.577 30.9313 69.217 31.7186 67.4532 31.3937C66.012 31.1285 64.3646 30.1089 64.2086 28.5188C64.188 28.3109 63.8622 28.3067 63.8796 28.5188Z" fill="#17C6BD"/>
<path d="M73.8356 12.8559C73.8356 12.8559 74.0622 7.65193 69.1257 6.30356C64.1892 4.95519 59.5617 8.13984 57.7148 10.9742C55.8679 13.8089 58.3059 18.7992 58.3059 18.7992C58.3059 18.7992 65.2475 14.1372 73.8356 12.8559Z" fill="#0457AA"/>
<path d="M69.514 12.8552C69.514 12.8552 67.6493 10.4704 69.2513 9.65342C70.8533 8.8368 71.9845 10.1604 72.5217 12.1362C72.5217 12.1362 71.2455 12.3324 69.514 12.8552Z" fill="#332B6B"/>
<path d="M64.9072 46.5025C66.8253 45.8499 67.844 43.2724 68.135 41.4435C68.1553 41.3149 67.9681 41.2034 67.9033 41.3459C67.4869 42.2621 67.2375 43.2379 66.7499 44.127C66.2562 45.0275 65.5723 45.6684 64.8047 46.3268C64.7257 46.3945 64.8099 46.5357 64.9072 46.5025Z" fill="#17C6BD"/>
<path d="M62.6702 37.9821C64.199 39.335 66.0085 40.7755 68.0066 41.3315C68.0849 41.353 68.1265 41.2457 68.0607 41.2032C66.2944 40.0643 64.4552 39.1919 62.8326 37.82C62.7208 37.7256 62.559 37.8835 62.6702 37.9821Z" fill="#17C6BD"/>
<path d="M66.4511 42.2656C68.3409 43.799 73.2594 51.9988 84.8542 54.7825L85.7901 56.399L85.2058 57.7925C85.2058 57.7925 74.8308 56.8041 70.7715 53.2997C66.7122 49.7954 61.7734 44.8944 61.7734 44.8944L66.4511 42.2656Z" fill="#FFCEB6"/>
<path d="M60.9453 44.5168C60.9453 44.5168 64.4477 48.3659 64.5705 48.3241C64.6933 48.2822 68.254 46.0782 69.1132 44.1107C69.9727 42.1433 68.0178 38.8281 68.0178 38.8281L61.7732 36.0859L60.9453 44.5168Z" fill="#2DEAE4"/>
<path d="M65.1132 46.4913C65.5018 46.5461 66.7035 46.4743 66.3252 45.7601C66.223 45.5674 66.01 45.5168 66.4122 45.3418C66.5527 45.2809 66.6958 45.2725 66.8199 45.1729C67.0136 45.0176 67.1151 44.7256 66.9572 44.5145C66.9021 44.4407 66.7841 44.443 66.7551 44.541C66.6945 44.7472 66.7045 44.8636 66.4722 44.9783C66.381 45.0231 66.2724 45.0331 66.1786 45.0753C66.0181 45.1475 65.8721 45.2683 65.8318 45.4469C65.788 45.6405 65.9075 45.6924 65.9697 45.8436C66.1225 46.2142 65.322 46.2387 65.1128 46.3118C65.0365 46.3389 65.0139 46.4772 65.1132 46.4913Z" fill="#17C6BD"/>
<path d="M63.3673 37.6317C63.7208 38.1918 64.222 38.6468 64.6364 39.1618C65.1069 39.7467 65.5442 40.3568 66.0054 40.9488C66.9432 42.1534 68.0215 43.2904 69.3102 44.1238C69.4001 44.1818 69.4965 44.0516 69.423 43.9778C68.2455 42.7918 67.0057 41.8076 65.9835 40.4638C65.2558 39.507 64.4998 38.1554 63.4024 37.5965C63.3805 37.5856 63.3528 37.6088 63.3673 37.6317Z" fill="#17C6BD"/>
<path d="M64.1017 48.4485C64.0851 48.4651 64.0685 48.4817 64.0519 48.4983C64.0484 48.5018 64.0538 48.5075 64.0577 48.504C64.0742 48.4874 64.0908 48.4709 64.1074 48.4543C64.1109 48.4504 64.1052 48.4447 64.1017 48.4485Z" fill="#17C6BD"/>
<path d="M63.5613 48.9505C64.5139 48.7888 65.539 47.9054 66.2896 47.3479C67.3933 46.5284 68.9644 45.4075 69.4426 44.0662C69.4762 43.9725 69.3543 43.9273 69.2918 43.9783C68.6818 44.4742 68.2216 45.1768 67.647 45.7227C67.0804 46.2609 66.4765 46.7572 65.8442 47.2161C65.0833 47.7678 64.2177 48.1723 63.4649 48.7214C63.3486 48.8062 63.4182 48.975 63.5613 48.9505Z" fill="#17C6BD"/>
<path d="M73.4007 52.0427C73.8267 51.6908 74.3991 51.1194 74.4638 50.5413C74.4761 50.4307 74.3262 50.3895 74.2566 50.4555C74.0629 50.6396 73.9521 50.9106 73.8045 51.132C73.6314 51.3917 73.4419 51.6454 73.2441 51.8864C73.1541 51.9969 73.2905 52.1339 73.4007 52.0427Z" fill="#F7B094"/>
<path d="M77.2514 51.8921C78.7306 52.8525 80.7109 53.7255 82.4444 54.0706C82.5659 54.0948 82.6055 53.934 82.4947 53.8886C81.6735 53.554 80.8153 53.3175 79.9936 52.9778C79.088 52.6034 78.2395 52.1306 77.3523 51.72C77.2369 51.6665 77.1421 51.8212 77.2514 51.8921Z" fill="#F7B094"/>
<path d="M114.378 27.2051H105.266V28.7239H114.378V27.2051Z" fill="#464091"/>
<path d="M111.421 32.4746H101.789V38.0331H111.421V32.4746Z" fill="#464091"/>
<path d="M101.119 32.1136H78.9375L84.631 25.9041C85.1102 25.3817 85.7915 25.082 86.5002 25.082H93.5562C94.2645 25.082 94.9461 25.3817 95.4254 25.9038L101.119 32.1136ZM81.1357 31.1468H98.921L94.7128 26.5577C94.4163 26.2345 93.9948 26.0492 93.5562 26.0492H86.5002C86.0616 26.0492 85.64 26.2345 85.3435 26.558L81.1357 31.1468Z" fill="#211E4F"/>
<path d="M100.033 54.4414L91.4609 51.3496L90.9456 52.7784L99.5174 55.8701L100.033 54.4414Z" fill="#211E4F"/>
<path d="M91.7076 46.4316H88.3477V58.0993H91.7076V46.4316Z" fill="#464091"/>
<path d="M90.5751 59.1035H89.4727V109.619H90.5751V59.1035Z" fill="#211E4F"/>
<path d="M91.4549 74.8164H88.5977V80.5866H91.4549V74.8164Z" fill="#332B6B"/>
<path d="M91.4549 107.914H88.5977V111.326H91.4549V107.914Z" fill="#332B6B"/>
<path d="M86.399 59.4554L85.3516 59.1113L69.5857 107.106L70.6332 107.45L86.399 59.4554Z" fill="#211E4F"/>
<path d="M82.3318 74.6554L79.6172 73.7637L77.8163 79.2459L80.531 80.1377L82.3318 74.6554Z" fill="#332B6B"/>
<path d="M71.9998 106.103L69.2852 105.211L68.2204 108.452L70.9351 109.344L71.9998 106.103Z" fill="#332B6B"/>
<path d="M109.484 107.444L110.531 107.1L94.7654 59.1049L93.7179 59.449L109.484 107.444Z" fill="#211E4F"/>
<path d="M99.59 80.13L102.305 79.2383L100.504 73.756L97.7892 74.6478L99.59 80.13Z" fill="#332B6B"/>
<path d="M109.184 109.333L111.898 108.441L110.834 105.2L108.119 106.092L109.184 109.333Z" fill="#332B6B"/>
<path d="M114.376 39.2334C115.928 39.2334 117.186 37.4515 117.186 35.2534C117.186 33.0553 115.928 31.2734 114.376 31.2734C112.824 31.2734 111.566 33.0553 111.566 35.2534C111.566 37.4515 112.824 39.2334 114.376 39.2334Z" fill="#DAEFF7"/>
<path d="M95.4677 60.3717H84.5977L85.3456 56.4004H94.7194L95.4677 60.3717Z" fill="#332B6B"/>
<path d="M93.4677 43.2656H86.5898V47.9856H93.4677V43.2656Z" fill="#332B6B"/>
<path d="M97.4533 39.5137H82.6016V44.2336H97.4533V39.5137Z" fill="#464091"/>
<path d="M106.604 28.373H78.2266V36.3176H106.604V28.373Z" fill="#464091"/>
<path d="M106.602 34.4133H100.521C99.8322 34.4133 99.2734 33.8545 99.2734 33.1655V27.7166C99.2734 27.0272 99.8322 26.4688 100.521 26.4688H105.355C106.044 26.4688 106.602 27.0276 106.602 27.7166V34.4133Z" fill="#211E4F"/>
<path d="M116.121 29.5313H109.735C109.467 29.5313 109.25 29.3141 109.25 29.0462V26.9538C109.25 26.686 109.467 26.4688 109.735 26.4688H116.121C116.389 26.4688 116.606 26.686 116.606 26.9538V29.0462C116.606 29.3141 116.389 29.5313 116.121 29.5313Z" fill="#332B6B"/>
<path d="M100.882 57.2172L94.8752 55.0506C94.6232 54.9597 94.4927 54.6816 94.5836 54.4296L95.2936 52.4612C95.3844 52.2092 95.6625 52.0787 95.9146 52.1695L101.922 54.3361C102.174 54.427 102.304 54.7051 102.213 54.9571L101.503 56.9256C101.412 57.1772 101.134 57.3081 100.882 57.2172Z" fill="#332B6B"/>
<path d="M83.5043 34.9887L74.3438 25.8281L71.9009 28.271L81.0615 37.4315L83.5043 34.9887Z" fill="#332B6B"/>
<path d="M71.5419 29.0491C71.2777 28.7848 71.2777 28.3562 71.5419 28.0916L74.1636 25.4697C74.4278 25.2054 74.8568 25.2054 75.121 25.4697C75.3853 25.7339 75.3853 26.1629 75.121 26.4271L72.4994 29.0488C72.2348 29.3134 71.8062 29.3134 71.5419 29.0491Z" fill="#464091"/>
<path d="M113.163 40.0095H109.677C109.005 40.0095 108.461 39.4651 108.461 38.7939V31.7136C108.461 31.0424 109.005 30.498 109.677 30.498H113.163C113.834 30.498 114.378 31.0424 114.378 31.7136V38.7939C114.378 39.4651 113.834 40.0095 113.163 40.0095Z" fill="#332B6B"/>
<path d="M105.349 42.3567H77.9516C77.26 42.3567 76.6992 41.7959 76.6992 41.1043V35.6644C76.6992 34.9729 77.26 34.4121 77.9516 34.4121H106.601V41.1043C106.601 41.7962 106.041 42.3567 105.349 42.3567Z" fill="#332B6B"/>
<path d="M84.1972 35.6035H81.7383V38.0624H84.1972V35.6035Z" fill="#464091"/>
<path d="M83.7966 30.4395H82.1289V32.1072H83.7966V30.4395Z" fill="#332B6B"/>
<path d="M86.1951 30.4395H84.5273V32.1072H86.1951V30.4395Z" fill="#332B6B"/>
<path d="M88.5896 30.4395H86.9219V32.1072H88.5896V30.4395Z" fill="#332B6B"/>
<path d="M90.988 30.4395H89.3203V32.1072H90.988V30.4395Z" fill="#332B6B"/>
<path d="M93.3826 30.4395H91.7148V32.1072H93.3826V30.4395Z" fill="#332B6B"/>
<path d="M95.7771 30.4395H94.1094V32.1072H95.7771V30.4395Z" fill="#332B6B"/>
<path d="M98.1716 30.4395H96.5039V32.1072H98.1716V30.4395Z" fill="#332B6B"/>
<path d="M95.0731 39.5137H81.7383V40.7431H95.0731V39.5137Z" fill="#464091"/>
<path d="M87.8222 35.6035H85.3633V38.0624H87.8222V35.6035Z" fill="#464091"/>
<path d="M91.4472 35.6035H88.9883V38.0624H91.4472V35.6035Z" fill="#464091"/>
<path d="M95.0722 35.6035H92.6133V38.0624H95.0722V35.6035Z" fill="#464091"/>
<path d="M102.936 32.7675C104.222 32.7675 105.264 31.7256 105.264 30.4404C105.264 29.1552 104.222 28.1133 102.936 28.1133C101.651 28.1133 100.609 29.1552 100.609 30.4404C100.609 31.7256 101.651 32.7675 102.936 32.7675Z" fill="#332B6B"/>
<path d="M103.846 30.4407C103.846 30.9431 103.439 31.3501 102.937 31.3501C102.435 31.3501 102.027 30.9428 102.027 30.4407C102.027 29.9383 102.434 29.5312 102.937 29.5312C103.439 29.5312 103.846 29.9386 103.846 30.4407Z" fill="#211E4F"/>
<path d="M84.3518 57.4179C84.3183 57.4321 88.2451 59.1169 88.6908 58.8504C89.1362 58.5839 87.2744 57.6335 87.2744 57.6335C87.2744 57.6335 90.4939 58.5014 90.5474 58.0741C90.6005 57.6467 88.1262 56.5932 88.1262 56.5932C88.1262 56.5932 91.6038 56.7167 91.8171 56.1169C92.0304 55.5172 88.0701 55.4547 88.0701 55.4547C88.0701 55.4547 91.1484 54.5401 90.9937 54.048C90.839 53.5559 87.1188 54.6477 87.1188 54.6477C87.1188 54.6477 88.6508 53.106 88.3634 52.7409C88.0759 52.3757 84.8542 54.7805 84.8542 54.7805L84.3518 57.4179Z" fill="#FFCEB6"/>
<path d="M87.0976 53.7634C87.164 53.7882 87.2301 53.8124 87.2974 53.834C87.3857 53.862 87.4592 53.7392 87.3893 53.6764C87.3368 53.6293 87.2823 53.5849 87.2275 53.5407C87.0577 53.4037 86.8959 53.6877 87.0976 53.7634Z" fill="#F7B094"/>
<path d="M88.7656 54.6555C88.7875 54.727 88.812 54.7612 88.8748 54.8005C88.9534 54.8501 89.0621 54.7856 89.0601 54.6941C89.0595 54.668 89.0591 54.6419 89.0595 54.6158C89.0598 54.3954 88.7011 54.446 88.7656 54.6555Z" fill="#F7B094"/>
<path d="M89.3667 54.4151C89.4028 54.5987 89.4717 54.6716 89.6464 54.7074C89.6741 54.7132 89.7141 54.6938 89.7096 54.6593C89.7031 54.6104 89.7221 54.5617 89.7138 54.5108C89.7038 54.4499 89.6767 54.3938 89.6658 54.3326C89.6309 54.1373 89.328 54.2188 89.3667 54.4151Z" fill="#F7B094"/>
<path d="M89.1072 56.0285C89.122 56.0478 89.1369 56.0671 89.1517 56.0868C89.2019 56.1525 89.3147 56.1181 89.2922 56.0275C89.2864 56.0043 89.2806 55.9811 89.2748 55.9579C89.2406 55.8213 89.0286 55.9257 89.1072 56.0285Z" fill="#F7B094"/>
<path d="M90.1802 56.0745C90.1841 56.1144 90.188 56.1547 90.1919 56.195C90.1996 56.2753 90.3005 56.2885 90.3295 56.2137C90.3443 56.176 90.3588 56.1386 90.3736 56.1009C90.4261 55.9656 90.1661 55.9275 90.1802 56.0745Z" fill="#F7B094"/>
<path d="M88.5132 57.1649C88.4716 57.2445 88.4252 57.3154 88.3949 57.4002C88.3444 57.5413 88.5396 57.6377 88.6373 57.5413C88.7137 57.4659 88.7475 57.3792 88.7817 57.2783C88.8345 57.1211 88.5899 57.0173 88.5132 57.1649Z" fill="#F7B094"/>
<path d="M89.1545 57.478C89.1162 57.5286 89.0826 57.5721 89.0543 57.6285C88.9863 57.7639 89.1616 57.9221 89.2744 57.7983C89.3247 57.7429 89.3617 57.6856 89.4014 57.6221C89.5009 57.4619 89.2621 57.3356 89.1545 57.478Z" fill="#F7B094"/>
<path d="M87.2352 58.0511C87.2188 58.0859 87.2024 58.1211 87.1859 58.1559C87.1173 58.3018 87.3177 58.425 87.4051 58.2838C87.4254 58.2513 87.4457 58.2184 87.4657 58.1858C87.5572 58.0376 87.3078 57.8974 87.2352 58.0511Z" fill="#F7B094"/>
<path d="M172.075 19.23C172.132 25.647 170.268 33.3811 174.154 36.7923C174.154 36.7923 169.816 40.342 165.8 37.5725C161.784 34.8026 163.926 19.0508 163.926 19.0508L172.075 19.23Z" fill="#332B6B"/>
<path d="M155.573 41.2752C155.573 41.2752 155.599 43.4492 155.21 46.5452C154.884 49.1401 153.61 42.5627 151.482 38.5156L149.555 39.3725C149.555 39.3725 152.575 51.6258 154.56 51.727C157.784 51.891 159.151 47.0406 159.566 43.1969C159.566 43.1969 159.087 41.98 155.573 41.2752Z" fill="#FFCEB6"/>
<path d="M162.168 56.3633L162.653 56.5225L162.538 58.3903L162.168 56.3633Z" fill="#FFCEB6"/>
<path d="M156.264 88.1351L156.296 83.3665L156.431 79.3543L157.051 61.0108L157.718 58.1745L162.682 56.0488L162.653 56.5239L162.168 56.3646L162.537 58.3917L158.615 106.24L156.141 106.494L156.264 88.1351Z" fill="#FFCEB6"/>
<path d="M162.651 56.5254L168.839 58.557L170.854 74.8202L172.487 88.008L172.519 88.447L173.771 106.114L171.479 105.963L168.089 88.8334L168.042 88.5959L165.808 76.3432L162.535 58.3933L162.651 56.5254Z" fill="#FFCEB6"/>
<path d="M157.667 51.1719C157.704 51.5634 163.614 51.9688 167.33 51.4181C167.346 51.4709 167.363 51.5318 167.379 51.5873C167.561 51.5995 167.765 51.6082 167.988 51.6076C169.152 54.1503 170.924 54.5457 172.662 78.8482C172.487 80.4821 156.039 80.9442 154.742 78.8482C155.863 56.5508 157.667 51.1719 157.667 51.1719Z" fill="#211E4F"/>
<path d="M173.051 105.262L170.664 105.911L170.141 106.728L171.596 107.153L173.161 106.845L173.352 106.178L173.051 105.262Z" fill="#FFCEB6"/>
<path d="M157.919 105.262L155.531 105.911L155.008 106.728L156.463 107.153L158.028 106.845L158.219 106.178L157.919 105.262Z" fill="#FFCEB6"/>
<path d="M174.12 108.412H164.887C164.887 108.412 164.91 107.645 165.223 107.23C165.535 106.815 169.99 106.04 170.662 105.912C170.662 105.912 170.783 106.354 171.464 106.474C172.145 106.594 173.585 105.684 173.585 105.684L173.739 105.602L174.12 108.412Z" fill="#332B6B"/>
<path d="M158.957 108.412H149.422C149.422 108.412 149.445 107.645 149.758 107.23C150.07 106.815 154.86 106.04 155.533 105.912C155.533 105.912 155.654 106.354 156.335 106.474C157.015 106.594 158.456 105.684 158.456 105.684L158.681 105.602L158.957 108.412Z" fill="#332B6B"/>
<path d="M149.555 39.3725C149.555 39.3725 146.533 36.2469 146.843 35.903C147.205 35.5002 148.519 36.9584 148.519 36.9584C148.519 36.9584 146.449 34.5227 146.901 34.3336C147.32 34.1579 149.148 36.4805 149.148 36.4805C149.148 36.4805 147.562 33.7603 147.949 33.5746C148.337 33.389 150.011 36.4083 150.011 36.4083C150.011 36.4083 148.854 33.8627 149.192 33.7722C149.529 33.6819 151.146 36.5324 151.146 36.5324C151.146 36.5324 151.509 35.3906 151.932 35.4847C152.354 35.5788 151.261 38.2005 151.483 38.516C151.704 38.8315 151.017 40.0358 151.017 40.0358L149.555 39.3725Z" fill="#FFCEB6"/>
<path d="M151.594 36.1603C151.517 36.1494 151.459 36.1465 151.406 36.2138C151.36 36.2731 151.363 36.3475 151.429 36.3917C151.458 36.4107 151.487 36.4217 151.519 36.4339C151.692 36.4997 151.774 36.1858 151.594 36.1603Z" fill="#F7B094"/>
<path d="M149.903 34.8139C149.805 34.7988 149.748 34.8349 149.69 34.9126C149.643 34.9757 149.722 35.0734 149.794 35.0473C149.875 35.0176 149.932 34.977 149.945 34.8871C149.949 34.8581 149.938 34.8194 149.903 34.8139Z" fill="#F7B094"/>
<path d="M150.087 35.2312C149.956 35.2577 149.91 35.3373 149.895 35.4617C149.889 35.509 149.945 35.5413 149.986 35.5306C150.076 35.5061 150.13 35.4887 150.192 35.4114C150.259 35.3279 150.198 35.209 150.087 35.2312Z" fill="#F7B094"/>
<path d="M148.734 34.6937C148.685 34.7107 148.659 34.7262 148.621 34.761C148.592 34.7865 148.584 34.8293 148.593 34.8651C148.596 34.8745 148.598 34.8838 148.6 34.8932C148.611 34.9347 148.655 34.956 148.695 34.947C148.768 34.9302 148.794 34.8861 148.835 34.8248C148.876 34.7613 148.807 34.6685 148.734 34.6937Z" fill="#F7B094"/>
<path d="M149.004 35.2257C148.925 35.2696 148.884 35.2892 148.852 35.3756C148.833 35.4281 148.882 35.4694 148.927 35.4745C149.009 35.4839 149.045 35.452 149.11 35.4072C149.221 35.3318 149.124 35.1597 149.004 35.2257Z" fill="#F7B094"/>
<path d="M147.522 35.1513C147.515 35.168 147.507 35.1845 147.5 35.2012C147.472 35.2647 147.521 35.3724 147.605 35.3379C147.62 35.3314 147.636 35.3253 147.651 35.3192C147.877 35.2264 147.595 34.9837 147.522 35.1513Z" fill="#F7B094"/>
<path d="M148.179 35.6716C148.113 35.7152 148.068 35.7409 148.028 35.808C148.004 35.8483 148.035 35.9117 148.085 35.9072C148.164 35.9001 148.205 35.875 148.275 35.8344C148.38 35.7728 148.281 35.6049 148.179 35.6716Z" fill="#F7B094"/>
<path d="M147.474 36.2957C147.354 36.3379 147.264 36.4626 147.316 36.5889C147.328 36.6199 147.354 36.6376 147.388 36.6302C147.521 36.6018 147.579 36.4607 147.545 36.3363C147.537 36.3073 147.503 36.285 147.474 36.2957Z" fill="#F7B094"/>
<path d="M150.347 36.7091C149.891 36.7252 149.424 36.9314 149.231 37.3736C149.212 37.4168 149.259 37.4561 149.297 37.4242C149.601 37.168 149.938 36.9488 150.347 36.914C150.477 36.9031 150.481 36.7045 150.347 36.7091Z" fill="#F7B094"/>
<path d="M149.668 37.0493C149.667 37.1933 149.758 37.331 149.793 37.4676C149.814 37.5536 149.937 37.5485 149.962 37.4676C149.996 37.3532 150.013 37.2539 149.944 37.1418C149.897 37.0651 149.81 36.9977 149.719 36.998C149.691 36.9984 149.668 37.0216 149.668 37.0493Z" fill="#F7B094"/>
<path d="M151.374 38.1552C151.142 38.1897 150.907 38.4694 150.82 38.6744C150.788 38.7472 150.866 38.8123 150.93 38.7594C151.027 38.6789 151.118 38.5854 151.211 38.4984C151.291 38.422 151.392 38.3456 151.446 38.2483C151.474 38.1958 151.427 38.1471 151.374 38.1552Z" fill="#F7B094"/>
<path d="M158.518 59.5254C158.209 61.2086 157.302 62.4142 156.199 63.6581C156.099 63.7713 156.231 63.9775 156.371 63.8805C157.755 62.9144 158.474 61.1922 158.705 59.5769C158.722 59.4564 158.54 59.401 158.518 59.5254Z" fill="#464091"/>
<path d="M167.787 59.2395C167.754 60.002 168.266 60.8605 168.617 61.5105C169.008 62.2327 169.474 62.9533 170.153 63.4332C170.294 63.5327 170.44 63.32 170.331 63.2024C169.283 62.0719 168.382 60.7026 167.895 59.2247C167.876 59.1654 167.789 59.176 167.787 59.2395Z" fill="#464091"/>
<path d="M156.4 80.4426C156.887 81.2244 158.03 81.2979 158.531 80.4796C158.575 80.4081 158.478 80.3407 158.419 80.3929C157.841 80.9063 157.054 80.9398 156.497 80.3675C156.449 80.3175 156.362 80.382 156.4 80.4426Z" fill="#F7B094"/>
<path d="M167.829 80.2563C168.013 80.5231 168.474 80.6575 168.783 80.6769C169.138 80.6991 169.429 80.5866 169.654 80.3101C169.716 80.2334 169.617 80.128 169.543 80.1996C169.302 80.4329 168.951 80.4783 168.633 80.4281C168.368 80.3862 168.102 80.2215 167.835 80.2463C167.831 80.2466 167.826 80.2518 167.829 80.2563Z" fill="#F7B094"/>
<path d="M167.151 32.4876C166.73 32.1682 165.547 31.8099 165.387 31.8582C165.239 31.7809 164.011 31.9117 163.537 32.1463C160.651 33.5756 156.341 34.2549 156.096 36.8205C156.096 36.8205 155.978 38.6642 157.411 38.7995L164.668 39.4844L171.925 40.1692C173.357 40.3045 173.586 38.4711 173.586 38.4711C173.825 35.9052 169.719 34.4315 167.151 32.4876Z" fill="#FFD85A"/>
<path d="M156.939 45.2435C154.339 41.8713 158.035 38.8826 158.221 38.3937L159.379 33.8262L162.822 39.1864L169.702 34.2061L171.388 40.1307C171.388 40.1307 169.295 46.4062 168.993 48.5812C168.707 50.6398 170.626 58.3939 170.626 58.3939C169.176 58.6166 160.876 60.061 156.145 58.5866C156.372 56.2489 157.867 46.4468 156.939 45.2435Z" fill="#FFD85A"/>
<path d="M169.698 34.205C169.698 34.205 165.802 36.6607 163.587 36.3745C161.373 36.0887 160.979 33.1992 160.979 33.1992C160.979 33.1992 160.152 33.5524 159.297 33.8528C159.297 33.8528 159.32 40.3848 162.018 40.3848C164.716 40.3848 169.9 37.0574 169.698 34.205Z" fill="#FFD85A"/>
<path d="M156.62 35.5684C155.697 36.8017 154.695 42.1175 154.695 42.1175L157.937 43.8545L162.084 36.0318L156.62 35.5684Z" fill="#FFD85A"/>
<path d="M164.891 34.5715C163.833 34.5377 163.002 33.6524 163.036 32.5944L163.189 27.8242L167.02 27.9467L166.868 32.7172C166.834 33.7752 165.949 34.6054 164.891 34.5715Z" fill="#FFCEB6"/>
<path d="M162.456 17.572L162.562 17.5695C163.013 16.7815 163.703 16.2114 164.562 16.1918L167.95 16.1138C169.331 16.0819 170.62 17.5801 170.402 19.0764L168.488 27.8169C168.274 29.29 167.19 31.2291 163.771 31.398C163.703 31.4025 163.637 31.4118 163.567 31.4134L163.477 31.4234C161.483 31.4695 159.879 29.8111 159.833 27.8169L159.298 20.8792C159.257 19.1012 160.678 17.613 162.456 17.572Z" fill="#FFCEB6"/>
<path d="M163.051 20.0507C163.051 20.0507 165.57 20.0407 167.362 22.2757C169.071 24.4059 168.427 27.4055 168.481 29.0526C170.045 27.8129 177.071 14.353 165.934 15.6527L163.051 20.0507Z" fill="#332B6B"/>
<path d="M170.781 25.8348C170.341 26.7997 169.487 27.3546 168.872 27.0742C168.812 27.0465 168.756 27.0117 168.705 26.9708C168.236 26.5954 168.16 25.6895 168.557 24.82C168.996 23.8551 169.851 23.3002 170.465 23.5805C171.079 23.8606 171.221 24.8699 170.781 25.8348Z" fill="#FFCEB6"/>
<path d="M167.1 21.4418C167.1 21.4418 159.844 20.4544 158.654 24.3738C158.654 24.3738 156.383 13.6259 165.937 15.6529L167.1 21.4418Z" fill="#332B6B"/>
<path d="M168.855 27.1452C168.855 27.4117 169.072 27.6279 169.339 27.6279C169.605 27.6279 169.821 27.4117 169.821 27.1452C169.821 26.8783 169.605 26.6621 169.339 26.6621C169.072 26.6624 168.855 26.8783 168.855 27.1452Z" fill="#2DEAE4"/>
<path d="M166.88 30.4498C166.341 30.4092 165.719 30.871 165.192 31.0247C164.876 31.1169 164.555 31.1974 164.229 31.2464C163.947 31.289 163.639 31.2577 163.372 31.3602C163.32 31.3798 163.304 31.4498 163.356 31.4807C163.828 31.7653 164.691 31.4785 165.17 31.3341C165.656 31.1878 166.638 30.9699 166.908 30.4984C166.921 30.4762 166.904 30.4517 166.88 30.4498Z" fill="#F7B094"/>
<path d="M162.824 25.1103C162.835 25.5273 162.757 25.9511 162.527 26.3056C162.383 26.5283 162.14 26.7262 162.133 27.0156C162.122 27.4348 162.487 27.5028 162.822 27.3829C162.862 27.3688 162.885 27.3004 162.836 27.2795C162.751 27.2434 162.703 27.2289 162.631 27.2018C162.454 27.1354 162.347 27.2289 162.379 26.9653C162.408 26.7274 162.66 26.4877 162.771 26.2808C162.973 25.9021 163.021 25.5128 162.943 25.0942C162.931 25.0265 162.823 25.0426 162.824 25.1103Z" fill="#F7B094"/>
<path d="M165.427 25.1598C165.403 24.7885 165.117 24.2365 164.701 24.1852C164.234 24.1275 163.983 24.7821 164.029 25.1546C164.037 25.2197 164.102 25.2474 164.153 25.2062C164.251 25.1269 164.328 25.0183 164.388 24.9061C164.454 24.7808 164.485 24.6032 164.628 24.5465C164.866 24.4517 165.193 24.9825 165.239 25.1855C165.262 25.2893 165.434 25.2684 165.427 25.1598Z" fill="#332B6B"/>
<path d="M162.005 25.4254C161.981 25.0541 161.695 24.5021 161.279 24.4508C160.812 24.3932 160.561 25.0477 160.607 25.4202C160.615 25.4853 160.68 25.513 160.731 25.4718C160.83 25.3925 160.907 25.2839 160.966 25.1718C161.033 25.0464 161.063 24.8688 161.206 24.8121C161.444 24.7174 161.771 25.2481 161.817 25.4512C161.84 25.5546 162.012 25.5337 162.005 25.4254Z" fill="#332B6B"/>
<path d="M156.149 42.562C156.571 41.8853 156.912 41.2449 157.419 40.6129C157.707 40.2549 157.952 39.8888 158.108 39.4515C158.486 38.389 158.322 37.2201 158.02 36.1627C158.001 36.0977 157.894 36.1073 157.898 36.1792C157.976 37.407 158.274 38.7892 157.666 39.9326C157.186 40.8379 156.192 41.4518 156.129 42.5565C156.128 42.5678 156.144 42.5707 156.149 42.562Z" fill="#EFAC35"/>
<path d="M161.653 28.8938C162.392 29.4577 163.315 29.2347 163.868 28.5257C163.93 28.4458 163.85 28.3034 163.749 28.3714C163.183 28.7484 162.42 29.1271 161.775 28.6843C161.645 28.5941 161.532 28.8016 161.653 28.8938Z" fill="#F7B094"/>
<path d="M163.762 28.0862C163.493 28.2342 163.615 28.8461 163.859 28.9612C163.955 29.0063 164.067 28.9528 164.07 28.8403C164.074 28.7024 163.984 28.5667 163.95 28.4333C163.919 28.3154 163.923 28.1913 163.836 28.0959C163.818 28.0753 163.785 28.0733 163.762 28.0862Z" fill="#F7B094"/>
<path d="M161.852 23.2757C161.856 23.2686 161.861 23.2615 161.864 23.2544C161.886 23.2164 161.892 23.158 161.864 23.1206C161.526 22.6656 160.52 23.0207 160.292 23.4448C160.243 23.536 160.324 23.6408 160.425 23.6173C160.566 23.5837 160.686 23.5077 160.821 23.4548C160.978 23.3933 161.145 23.3652 161.311 23.3398C161.448 23.3188 161.586 23.3301 161.72 23.3172C161.764 23.3127 161.826 23.323 161.852 23.2757Z" fill="#332B6B"/>
<path d="M164.378 23.2829C164.449 23.2883 164.501 23.2506 164.569 23.2374C164.711 23.2091 164.874 23.2129 165.018 23.2094C165.289 23.2026 165.535 23.2945 165.801 23.3051C165.909 23.3096 165.946 23.1772 165.884 23.105C165.592 22.7672 164.527 22.5822 164.294 23.0859C164.267 23.1436 164.273 23.1981 164.314 23.2464C164.333 23.2677 164.348 23.2806 164.378 23.2829Z" fill="#332B6B"/>
<path d="M155.491 46.8776C155.618 46.9149 155.745 46.9787 155.851 47.0606C155.949 47.1367 156.023 47.2582 156.135 47.3116C156.215 47.35 156.313 47.3046 156.314 47.2092C156.315 47.0358 156.161 46.8901 156.029 46.7954C155.876 46.6845 155.713 46.6359 155.526 46.6178C155.374 46.6036 155.352 46.8369 155.491 46.8776Z" fill="#F7B094"/>
<path d="M168.374 43.872C168.406 44.0447 168.556 44.434 168.539 44.6048C168.527 44.7212 168.349 44.9397 168.29 45.0325C168.118 45.3058 168.031 45.3544 167.983 45.7215C167.876 46.532 167.916 47.5104 168.054 48.3174C168.068 48.396 168.199 48.3957 168.213 48.3174C168.289 47.8758 168.294 47.4382 168.296 46.9906C168.297 46.7492 168.289 46.5072 168.294 46.2655C168.306 45.7431 168.31 45.6296 168.627 45.1885C168.972 44.7099 168.79 44.4015 168.574 43.8172C168.527 43.6915 168.349 43.7399 168.374 43.872Z" fill="#EFAC35"/>
<path d="M162.423 33.1036C162.267 34.3224 163.594 35.2038 164.644 35.4078C166.208 35.7117 167.26 34.6179 167.473 33.1387C167.497 32.975 167.252 32.8986 167.218 33.0685C166.95 34.4149 166.047 35.3694 164.602 35.073C163.686 34.8848 162.548 34.1593 162.593 33.1036C162.597 32.9918 162.436 32.9985 162.423 33.1036Z" fill="#EFAC35"/>
<path d="M169.566 39.9666C169.566 39.9666 172.105 44.1116 175.578 47.4851C177.105 48.9678 174.631 49.9739 171.767 56.1876L172.817 58.0451C172.817 58.0451 181.299 49.719 180.397 47.253C179.734 45.4406 171.285 36.4609 171.285 36.4609L169.566 39.9666Z" fill="#FFCEB6"/>
<path d="M176.58 48.6469C176.755 48.6102 176.93 48.5773 177.107 48.5489C177.278 48.5216 177.458 48.5174 177.623 48.4635C177.695 48.44 177.727 48.3234 177.646 48.2863C177.284 48.12 176.818 48.2447 176.495 48.4452C176.386 48.5122 176.458 48.6727 176.58 48.6469Z" fill="#F7B094"/>
<path d="M172.818 58.0456C172.818 58.0456 169.977 61.3359 169.606 61.0588C169.173 60.7339 170.507 59.2947 170.507 59.2947C170.507 59.2947 168.267 61.5744 168.038 61.1419C167.825 60.7404 169.974 58.7111 169.974 58.7111C169.974 58.7111 167.407 60.5351 167.188 60.1661C166.968 59.7971 169.825 57.8583 169.825 57.8583C169.825 57.8583 167.393 59.2396 167.273 58.9112C167.153 58.5831 169.846 56.7162 169.846 56.7162C169.846 56.7162 168.676 56.4571 168.732 56.0279C168.788 55.5986 171.648 56.3959 171.942 56.1468C172.236 55.8977 173.347 56.5303 173.347 56.5303L172.818 58.0456Z" fill="#FFCEB6"/>
<path d="M169.746 56.2659C169.746 56.272 169.746 56.2781 169.746 56.2842C169.745 56.3307 169.803 56.3675 169.843 56.3396C169.848 56.3364 169.853 56.3329 169.858 56.3297C169.988 56.2396 169.75 56.1149 169.746 56.2659Z" fill="#F7B094"/>
<path d="M169.118 57.8826C169.087 57.8069 169.057 57.747 169.004 57.6841C168.881 57.5375 168.68 57.7241 168.754 57.8771C168.776 57.9216 168.801 57.9629 168.825 58.0064C168.909 58.162 169.19 58.0528 169.118 57.8826Z" fill="#F7B094"/>
<path d="M168.588 58.1721C168.577 58.1614 168.566 58.1508 168.555 58.1402C168.462 58.0493 168.268 58.1398 168.322 58.2762C168.327 58.29 168.333 58.3036 168.338 58.3174C168.432 58.5578 168.754 58.3345 168.588 58.1721Z" fill="#F7B094"/>
<path d="M169.165 58.8404C169.154 58.831 169.144 58.8214 169.133 58.812C169.053 58.7421 168.9 58.8072 168.94 58.9242C168.945 58.9374 168.949 58.9506 168.954 58.9638C169.027 59.1755 169.312 58.9686 169.165 58.8404Z" fill="#F7B094"/>
<path d="M168.667 59.2589C168.657 59.2473 168.647 59.2357 168.637 59.2241C168.61 59.1922 168.552 59.1864 168.517 59.2087C168.51 59.2132 168.504 59.2186 168.497 59.2241C168.463 59.2525 168.462 59.3079 168.482 59.344C168.489 59.3575 168.497 59.3711 168.504 59.3846C168.574 59.5119 168.769 59.3769 168.667 59.2589Z" fill="#F7B094"/>
<path d="M169.893 59.6111C169.842 59.5128 169.783 59.4732 169.675 59.4616C169.582 59.4516 169.499 59.5656 169.53 59.651C169.548 59.6994 169.575 59.7387 169.596 59.7854C169.681 59.9846 169.998 59.8119 169.893 59.6111Z" fill="#F7B094"/>
<path d="M169.187 60.3546C169.39 60.3546 169.391 60.0391 169.187 60.0391C168.985 60.0391 168.984 60.3546 169.187 60.3546Z" fill="#F7B094"/>
<path d="M170.494 60.0294C170.467 60.0117 170.44 59.9943 170.412 59.9766C170.261 59.8792 170.078 60.109 170.218 60.2286C170.242 60.2495 170.267 60.2705 170.291 60.2917C170.475 60.449 170.698 60.1606 170.494 60.0294Z" fill="#F7B094"/>
<path d="M169.702 34.2051C172.886 35.7545 174.931 38.5792 177.599 42.3604C177.599 42.3604 176.867 44.9511 173.35 46.0703C173.35 46.0703 170.937 43.6768 168.859 42.8593L167.582 36.0075L169.702 34.2051Z" fill="#FFD85A"/>
<path d="M166.818 37.7043C166.751 39.8935 168.386 42.4823 170.197 43.6237C170.274 43.6727 170.361 43.5599 170.295 43.4968C169.457 42.7024 168.666 41.9157 168.085 40.9028C167.499 39.88 167.269 38.7794 166.837 37.7021C166.833 37.6924 166.819 37.6931 166.818 37.7043Z" fill="#EFAC35"/>
<path d="M163.964 35.4983C162.893 38.449 162.524 41.7355 162.273 44.8463C161.908 49.3571 161.991 53.8927 162.427 58.3958C162.441 58.5401 162.666 58.5443 162.656 58.3958C162.155 50.7641 162.395 43.0162 164.153 35.5505C164.183 35.4258 164.006 35.3801 163.964 35.4983Z" fill="#EFAC35"/>
<path d="M143.517 43.7213L143.164 43.4326L147.534 36.7188L149.233 38.1084L143.517 43.7213Z" fill="#332B6B"/>
<path d="M152.604 32.257C151.977 31.744 151.044 31.8374 150.532 32.4643L149.101 34.2132C148.588 34.84 148.681 35.7723 149.308 36.2854C149.935 36.7981 150.867 36.705 151.38 36.0782L152.811 34.3292C153.324 33.7024 153.231 32.7698 152.604 32.257Z" fill="#332B6B"/>
<path d="M152.497 35.7192L149.242 33.0566L146.58 36.3113L149.834 38.9739L152.497 35.7192Z" fill="#FFD85A"/>
<path d="M151.648 35.7967L149.309 33.8828L147.395 36.222L149.734 38.1358L151.648 35.7967Z" fill="#EFAC35"/>
</svg>
