<svg width="151" height="139" viewBox="0 0 151 139" fill="none" xmlns="http://www.w3.org/2000/svg">
<path d="M40.3348 123.119C48.6205 115.861 57.9475 105.335 63.2072 91.471C64.5495 87.9328 72.8416 66.0755 63.3741 59.9145C60.0391 57.7443 57.317 59.3545 52.815 56.5224C47.4804 53.1666 47.8878 48.7579 44.3717 41.7895C42.2736 37.6316 36.1336 25.4631 25.8237 24.8723C19.6627 24.5193 12.2914 28.3166 8.88547 33.4777C3.88965 41.048 8.40391 50.0692 16.3011 65.2377C23.3017 78.6839 26.6524 80.5327 31.5281 90.2797C35.1467 97.5136 39.204 108.296 40.3348 123.119Z" fill="url(#paint0_linear_1573_5311)"/>
<mask id="mask0_1573_5311" style="mask-type:luminance" maskUnits="userSpaceOnUse" x="6" y="24" width="62" height="100">
<path d="M40.3348 123.121C48.6205 115.863 57.9475 105.337 63.2072 91.4729C64.5495 87.9347 72.8416 66.0775 63.3741 59.9165C60.0391 57.7463 57.317 59.3564 52.815 56.5244C47.4804 53.1686 47.8878 48.7599 44.3717 41.7915C42.2736 37.6335 36.1336 25.4651 25.8237 24.8743C19.6627 24.5213 12.2914 28.3185 8.88547 33.4797C3.88965 41.05 8.40391 50.0712 16.3011 65.2396C23.3017 78.6858 26.6524 80.5346 31.5281 90.2816C35.1467 97.5155 39.204 108.298 40.3348 123.121Z" fill="white"/>
</mask>
<g mask="url(#mask0_1573_5311)">
<g opacity="0.5">
<path d="M7.66049 157.128L7.50272 156.792C19.0392 151.381 28.0204 143.803 34.1968 134.27C42.4257 121.57 45.0342 105.888 41.9498 87.6592C38.7374 68.6727 30.1546 51.6817 23.5203 40.7714C18.9217 33.2087 11.9165 26.5386 2.69922 20.9464L2.8918 20.6289C12.1606 26.2523 19.2078 32.9644 23.8376 40.5785C30.4888 51.5165 39.0938 68.5529 42.3162 87.5972C45.4163 105.92 42.7894 121.691 34.5084 134.472C28.2937 144.064 19.2608 151.687 7.66049 157.128Z" fill="white"/>
<path d="M35.2757 63.6468L35.0942 63.6113C35.0412 63.601 29.7133 62.536 23.2327 59.4356C17.248 56.5726 9.02331 51.3373 3.82812 42.6563L4.14694 42.4655C9.29447 51.0673 17.4542 56.2596 23.3931 59.1007C29.1626 61.8609 34.0033 62.9953 34.9845 63.2087C40.4967 35.3328 26.6205 21.3771 22.228 17.7585C22.0967 17.6504 22.0499 17.6114 22.0227 17.5829L22.2914 17.3265L22.157 17.4547L22.291 17.3262C22.3072 17.3425 22.3833 17.4052 22.464 17.4718C26.9067 21.1316 40.9625 35.2645 35.312 63.4655L35.2757 63.6468Z" fill="white"/>
<path d="M42.0896 87.5176L41.9995 87.4784C41.8465 87.4121 26.5367 80.6531 13.1288 64.8664L-0.40625 48.9299L-0.123384 48.6895L13.4116 64.6259C26.2289 79.7172 40.7836 86.5211 42.0582 87.098C48.8625 82.7811 57.5305 75.3687 60.3872 64.4925C62.0995 57.9733 60.8881 53.2471 60.8755 53.2001L61.2346 53.1051C61.2473 53.1529 62.4833 57.9741 60.7464 64.5868C59.1463 70.6791 54.6249 79.5937 42.1727 87.4651L42.0896 87.5176Z" fill="white"/>
</g>
</g>
<path d="M4.71094 118.336C11.749 113.715 21.3374 105.89 27.2223 93.4869C34.9402 77.2204 29.507 67.3721 35.3381 38.5702C39.0251 20.359 41.7817 7.68698 52.1974 2.46884C60.3597 -1.62026 72.2482 -0.642273 78.4857 5.55598C83.6719 10.7097 85.5584 20.0758 85.5088 26.5178C85.4684 31.768 84.1397 35.3533 86.6118 38.554C89.1383 41.825 92.6542 40.8361 95.1097 43.3607C100.089 48.4806 94.4051 61.5708 93.4864 63.6864C83.267 87.2201 57.7383 99.8407 46.5362 105.212C37.2739 109.653 23.1655 115.262 4.71094 118.336Z" fill="url(#paint1_linear_1573_5311)"/>
<mask id="mask1_1573_5311" style="mask-type:luminance" maskUnits="userSpaceOnUse" x="4" y="0" width="94" height="119">
<path d="M4.71094 118.332C11.749 113.711 21.3374 105.886 27.2223 93.4829C34.9402 77.2165 29.507 67.3682 35.3381 38.5663C39.0251 20.3551 41.7817 7.68307 52.1974 2.46493C60.3597 -1.62417 72.2482 -0.646179 78.4857 5.55207C83.6719 10.7058 85.5584 20.0719 85.5088 26.5139C85.4684 31.7641 84.1397 35.3494 86.6118 38.5501C89.1383 41.8211 92.6542 40.8322 95.1097 43.3568C100.089 48.4767 94.4051 61.5669 93.4864 63.6825C83.267 87.2162 57.7383 99.8368 46.5362 105.208C37.2739 109.649 23.1655 115.259 4.71094 118.332Z" fill="white"/>
</mask>
<g mask="url(#mask1_1573_5311)">
<g opacity="0.5">
<path d="M-3.00778 121.599L-3.07812 121.235C8.12687 119.075 17.9994 115.891 26.2647 111.771C38.4588 105.694 46.7796 97.7311 50.9961 88.1044C54.298 80.5663 55.0369 72.2956 56.0598 60.8482C56.8762 51.711 56.6307 45.1623 56.4142 39.3842C56.1315 31.8422 55.9081 25.8849 58.214 17.7047C60.5544 9.40222 64.8077 1.48455 70.8561 -5.82812L71.1423 -5.59131C65.1271 1.68112 60.8976 9.5531 58.5716 17.8055C56.2815 25.9296 56.5038 31.861 56.7852 39.3705C57.0023 45.1594 57.2482 51.7206 56.4298 60.8811C55.4424 71.9316 54.6625 80.6599 51.3363 88.2534C47.0839 97.9618 38.7044 105.986 26.4304 112.104C18.1348 116.239 8.23042 119.433 -3.00778 121.599Z" fill="white"/>
<path d="M56.7607 54.3345L56.5855 54.2188C56.5304 54.1823 51.0139 50.4908 46.1098 43.2961C43.2293 39.0707 41.1182 34.4799 39.8347 29.651C38.2306 23.6157 37.9225 17.1908 38.9191 10.5547L39.2865 10.6098C38.2975 17.1953 38.6027 23.5696 40.1937 29.5556C41.4664 34.3437 43.56 38.8963 46.4166 43.087C50.7931 49.5072 55.649 53.1066 56.6175 53.7895C64.373 38.3263 74.9084 29.6273 82.3957 25.0473C90.5467 20.0616 96.9527 18.7451 97.0166 18.7323L97.0891 19.0965C97.026 19.1092 90.6718 20.4171 82.5743 25.3733C75.1025 29.9465 64.5752 38.6507 56.8543 54.1467L56.7607 54.3345Z" fill="white"/>
<path d="M53.9365 78.9746L53.8807 78.8518C53.8368 78.7551 49.4168 69.0888 43.0886 60.2654C36.7851 51.476 19.4401 45.7799 19.2656 45.7234L19.3799 45.3701C19.5556 45.4269 37.0156 51.1603 43.3904 60.0489C49.3519 68.3609 53.6246 77.4169 54.1619 78.5747C64.4093 77.3262 76.7509 65.7395 85.3163 56.2161C94.652 45.8362 101.636 35.6022 101.705 35.5L102.012 35.7089C101.943 35.8112 94.9449 46.0659 85.5923 56.4645C80.0968 62.5749 74.8744 67.5398 70.0704 71.2214C64.0497 75.8356 58.6665 78.4389 54.0706 78.9593L53.9365 78.9746Z" fill="white"/>
<path d="M32.8821 110.47C31.2317 110.47 30.3018 110.423 30.273 110.421L29.9034 110.401L30.1406 110.117C33.5681 106.006 35.3671 101.397 35.4876 96.4191C35.5841 92.4305 34.6102 88.194 32.5936 83.8272C29.1534 76.3781 23.8037 71.0734 23.75 71.0206L24.0104 70.7559C24.0644 70.809 29.4624 76.1616 32.9307 83.6714C34.9715 88.0903 35.9567 92.3823 35.8588 96.428C35.7391 101.376 33.9917 105.962 30.6636 110.065C32.4904 110.128 40.8742 110.287 51.8123 108.49C63.1949 106.62 79.7501 102.188 93.9796 91.6975L121.589 71.3423L121.81 71.6412L94.2001 91.9964C79.908 102.533 63.2884 106.982 51.8629 108.858C43.3974 110.248 36.4539 110.47 32.8821 110.47Z" fill="white"/>
</g>
</g>
<path d="M48.582 111.152C59.3723 113.364 73.3955 114.43 87.619 110.238C91.2489 109.168 113.672 102.559 112.856 91.2925C112.569 87.324 109.64 86.1291 109.175 80.8308C108.623 74.5528 112.381 72.2119 115.805 65.1983C117.849 61.0133 123.83 48.7658 118.067 40.1962C114.624 35.0753 107.143 31.4993 100.972 31.9066C91.9218 32.5039 87.4652 41.5537 80.1572 57.0146C73.6789 70.7201 74.232 74.5068 69.4157 84.2833C65.8412 91.5391 59.7055 101.29 48.582 111.152Z" fill="url(#paint2_linear_1573_5311)"/>
<mask id="mask2_1573_5311" style="mask-type:luminance" maskUnits="userSpaceOnUse" x="48" y="31" width="73" height="83">
<path d="M48.5742 111.148C59.3645 113.36 73.3877 114.426 87.6112 110.234C91.241 109.164 113.665 102.555 112.848 91.2886C112.561 87.3201 109.633 86.1252 109.167 80.8269C108.615 74.5489 112.373 72.208 115.798 65.1944C117.841 61.0094 123.822 48.7619 118.059 40.1923C114.616 35.0714 107.135 31.4954 100.964 31.9027C91.914 32.5 87.4574 41.5498 80.1494 57.0107C73.6711 70.7162 74.2242 74.5029 69.4079 84.2794C65.8334 91.5352 59.6977 101.286 48.5742 111.148Z" fill="white"/>
</mask>
<g mask="url(#mask2_1573_5311)">
<g opacity="0.5">
<path d="M31.7821 113.526C21.7689 113.526 11.6829 110.894 1.73828 105.68L1.91092 105.351C11.8008 110.537 21.8308 113.154 31.7828 113.154C33.1871 113.154 34.5883 113.102 35.989 112.998C51.0806 111.874 65.1493 104.471 77.8047 90.9939C90.9863 76.9562 99.3315 59.8474 104.011 47.9667C107.255 39.7315 108.333 30.1188 107.215 19.3959L107.584 19.3574C108.709 30.1403 107.623 39.8116 104.357 48.1027C99.6651 60.0136 91.2972 77.1675 78.0754 91.248C65.3544 104.795 51.2037 112.238 36.0165 113.368C34.6072 113.473 33.1949 113.526 31.7821 113.526Z" fill="white"/>
<path d="M92.8946 71.1673L92.8133 71.0014C92.7894 70.9528 90.4166 66.065 88.9682 59.0286C87.6306 52.5303 86.8284 42.8139 90.6024 33.4274L90.947 33.566C87.2074 42.8667 88.0047 52.5055 89.332 58.9537C90.6215 65.2183 92.6443 69.7599 93.0676 70.6704C118.605 58.2082 121.332 38.718 121.559 33.0314C121.566 32.8615 121.568 32.8007 121.574 32.7617L121.941 32.8205C121.938 32.8429 121.934 32.9416 121.93 33.046C121.701 38.7974 118.941 58.538 93.061 71.0866L92.8946 71.1673Z" fill="white"/>
<path d="M95.0171 94.3896C90.2671 94.3896 84.6245 93.5039 78.0925 91.0613L78.0006 91.0268L77.9772 90.9314C77.9376 90.7693 74.0657 74.4883 78.5346 54.2638L83.0458 33.8477L83.4085 33.9278L78.8973 54.3439C74.6251 73.6771 78.0047 89.384 78.3159 90.7482C85.8615 93.5556 96.9977 95.9784 107.383 91.6899C113.618 89.1153 116.663 85.2819 116.694 85.2435L116.986 85.4719C116.956 85.5111 113.863 89.4103 107.545 92.0246C104.48 93.2931 100.301 94.3896 95.0171 94.3896Z" fill="white"/>
</g>
</g>
<path d="M151 117.012L7.46875 115.771V119.442C7.46875 120.439 8.09478 121.286 8.94265 121.437L49.5289 128.666C50.0105 128.751 50.499 128.774 50.985 128.733L149.44 120.492C150.319 120.418 151 119.568 151 118.545L151 117.012Z" fill="#BFC8D6"/>
<path d="M100.509 46.762V108.172C100.509 108.947 100.281 109.67 99.8298 110.206C99.3916 110.731 98.8154 111.077 98.1498 111.127L32.2107 116.061L7.6342 117.95H7.63047L7.46399 117.884L6.9297 117.882C5.2971 118.002 3.94922 116.685 3.94922 114.989V47.056C3.94922 45.3605 5.3174 43.8594 6.95 43.8594H98.1744C99.5205 43.8594 100.509 45.2292 100.509 46.762Z" fill="#BFC8D6"/>
<path d="M101.997 46.762V108.172C101.997 109.356 101.381 110.413 100.466 110.878C100.453 110.885 100.456 110.891 100.443 110.898C100.356 110.94 100.276 110.979 100.184 111.01C100.164 111.018 100.148 111.025 100.127 111.033C100.111 111.036 100.096 111.042 100.081 111.046C100.015 111.066 99.9493 111.081 99.8809 111.094C99.7996 111.11 99.7169 111.121 99.6319 111.127L99.1699 111.117L33.5293 115.908H33.5257L8.40607 117.8C8.16391 117.818 7.9272 117.905 7.70173 117.863C7.67951 117.859 7.6591 117.95 7.63698 117.95H7.63325C7.57772 117.95 7.51717 117.847 7.46164 117.831C6.28947 117.511 5.4375 116.345 5.4375 114.989V47.056C5.4375 45.3605 6.77528 43.8594 8.40788 43.8594H99.6323C100.978 43.8594 101.997 45.2292 101.997 46.762Z" fill="white"/>
<path d="M96.789 106.796L11.822 112.629C10.4936 112.72 9.41406 111.672 9.41406 110.288V50.8128C9.41406 49.4286 10.4936 48.3017 11.822 48.296L96.789 47.9297C97.8984 47.9249 98.7958 48.9431 98.7958 50.2039V104.375C98.7958 105.636 97.8984 106.72 96.789 106.796Z" fill="#D8DEE8"/>
<path d="M57.2416 45.8453C57.2416 46.4765 56.7721 46.9897 56.1923 46.9915C55.6117 46.9934 55.1406 46.482 55.1406 45.8494C55.1406 45.2167 55.6117 44.7036 56.1923 44.7031C56.7721 44.7027 57.2416 45.2141 57.2416 45.8453Z" fill="white"/>
<path opacity="0.48" d="M8.40075 117.842L99.1646 111.16L99.6265 111.126C100.244 111.081 100.805 110.776 101.233 110.313C94.7018 109.956 90.6449 107.638 88.028 105.243C82.7726 100.433 83.6842 95.6902 78.0169 92.5279C70.9483 88.5836 65.3902 93.5815 60.0262 88.6504C56.7743 85.6607 58.3709 83.4313 54.3694 78.9638C49.9374 74.0155 47.052 75.6788 42.598 71.2254C36.9662 65.5942 39.7829 61.2131 34.9318 57.1701C29.0467 52.2654 22.6999 56.805 17.0978 52.1013C14.6816 50.0725 13.3557 47.1231 12.6634 43.9863H8.40112C6.76867 43.9863 5.44141 45.3609 5.44141 47.0565V114.99C5.44135 116.685 6.76841 117.962 8.40075 117.842Z" fill="white"/>
<path d="M103.933 110.754L7.46875 117.823L49.5289 125.314C50.0105 125.4 50.499 125.422 50.985 125.382L151 117.009L105.467 110.802C104.958 110.733 104.444 110.717 103.933 110.754Z" fill="url(#paint3_linear_1573_5311)"/>
<path d="M21.5469 117.885L101.856 111.912L126.711 115.273L47.0937 121.658L21.5469 117.885Z" fill="#D8DEE8"/>
<path d="M16.6685 132.767C14.2651 132.946 11.812 132.375 9.77851 130.984C5.2744 127.903 4.56685 122.005 8.2062 117.851L61.3786 56.7279C63.1189 54.7424 65.7029 53.5843 68.4557 53.5492C71.1962 53.5143 73.8352 54.5958 75.6947 56.5095L95.118 76.498L115.315 52.4222C118.336 48.8206 123.801 48.3901 127.515 51.4254C131.207 54.4421 131.802 59.7706 128.851 63.3612L102.691 95.1848C101.061 97.1671 98.6223 98.3842 96 98.5172C93.3661 98.6508 90.8068 97.6778 88.9899 95.8451L69.3567 76.0424L24.2955 129.002C22.36 131.258 19.55 132.553 16.6685 132.767Z" fill="url(#paint4_linear_1573_5311)"/>
<path d="M134.934 67.5902L110.848 48.106L140.306 36.8843L142.391 36.8008L136.808 67.3311L134.934 67.5902Z" fill="url(#paint5_linear_1573_5311)"/>
<path d="M18.7505 132.685C16.3472 132.864 13.894 132.293 11.8606 130.902C7.35646 127.821 6.64885 121.923 10.2882 117.769L63.4607 56.6459C65.2009 54.6604 67.785 53.5022 70.5378 53.4672C73.2782 53.4323 75.9173 54.5138 77.7768 56.4275L97.2001 76.416L117.397 52.3402C120.418 48.7386 125.883 48.3081 129.597 51.3434C133.289 54.3601 133.884 59.6886 130.933 63.2791L104.773 95.1028C103.143 97.085 100.704 98.3022 98.082 98.4352C95.4481 98.5688 92.8888 97.5957 91.0719 95.7631L71.4388 75.9604L26.3775 128.92C24.442 131.176 21.6321 132.471 18.7505 132.685Z" fill="url(#paint6_linear_1573_5311)"/>
<path d="M136.809 67.3311L112.934 48.0225L142.392 36.8008L136.809 67.3311Z" fill="url(#paint7_linear_1573_5311)"/>
<path d="M39.4141 137.197L52.7222 139.365C53.0006 139.411 53.2835 139.423 53.5647 139.4L54.6519 139.315L54.4717 115.66L39.4141 115.125V137.197Z" fill="url(#paint8_linear_1573_5311)"/>
<path d="M69.8847 116.528V137.13C69.8847 137.867 69.3184 138.469 68.586 138.513L54.2178 139.368C53.6365 139.402 53.1406 138.92 53.1406 138.321V116.857C53.1406 116.257 53.6107 115.76 54.1941 115.744L68.6659 115.34C69.3371 115.322 69.8847 115.854 69.8847 116.528Z" fill="url(#paint9_linear_1573_5311)"/>
<path d="M39.4141 115.124L53.1414 115.773L68.6667 115.341L52.7495 114.822L39.4141 115.124Z" fill="url(#paint10_linear_1573_5311)"/>
<path opacity="0.3" d="M68.645 115.34L57.3111 115.656C56.6664 115.674 56.1399 116.218 56.1406 116.877C56.1418 117.976 56.3252 119.112 56.8091 120.208C58.4225 123.863 62.0291 123.998 62.7795 127.352C63.4047 130.147 61.1907 131.35 60.9567 134.921C60.8953 135.859 60.9764 136.869 61.2557 137.951C61.4028 138.52 61.9323 138.908 62.5096 138.874L68.7492 138.503C69.3894 138.465 69.8842 137.938 69.8842 137.294V116.548C69.8842 115.863 69.3274 115.321 68.645 115.34Z" fill="url(#paint11_linear_1573_5311)"/>
<path d="M58.1797 139.134L63.507 138.817V115.486L58.1797 115.635V139.134Z" fill="url(#paint12_linear_1573_5311)"/>
<path d="M58.4141 139.12L63.5014 138.817V115.486L58.4141 115.628V139.12Z" fill="url(#paint13_linear_1573_5311)"/>
<path d="M48.7729 114.912L63.6234 115.756H58.2844L45.3008 114.991L48.7729 114.912Z" fill="url(#paint14_linear_1573_5311)"/>
<path d="M55.9982 114.201C56.344 112.082 56.5967 110.534 57.9801 109.104C58.5634 108.501 59.2005 107.843 60.2451 107.668C61.4465 107.468 62.9799 107.941 63.4 108.922C63.7989 109.854 62.8592 110.461 63.2585 111.531C63.6597 112.607 64.8292 112.584 64.9573 113.452C65.0658 114.188 64.3476 115.023 63.6225 115.414C62.3703 116.09 61.6594 115.139 59.2138 115.293C57.5285 115.399 56.5557 115.932 56.0993 115.394C55.882 115.138 55.9033 114.782 55.9982 114.201Z" fill="url(#paint15_linear_1573_5311)"/>
<g opacity="0.3">
<path d="M62.6915 113.373C61.1815 112.795 60.4076 111.539 59.7388 111.836C59.1444 112.1 59.5071 113.203 58.8085 114.101C58.1706 114.921 57.0006 115.116 55.9609 115.117C55.9871 115.222 56.0298 115.314 56.0986 115.395C56.555 115.933 57.5277 115.4 59.213 115.294C61.6587 115.141 62.3696 116.091 63.6217 115.415C64.2869 115.057 64.9445 114.324 64.965 113.638C64.2594 113.714 63.4745 113.672 62.6915 113.373Z" fill="url(#paint16_linear_1573_5311)"/>
</g>
<path d="M46.8741 108.961C47.8898 108.159 48.9606 109.053 50.211 108.172C51.4776 107.28 51.1096 105.848 52.0919 105.442C53.233 104.97 54.9233 106.41 55.7321 107.323C57.7866 109.643 58.7514 113.761 57.1276 115.21C56.5181 115.754 54.7923 115.53 51.3655 115.06C47.4487 114.522 46.885 114.137 46.5102 113.633C45.5 112.275 45.7242 109.869 46.8741 108.961Z" fill="url(#paint17_linear_1573_5311)"/>
<g opacity="0.3">
<path d="M53.3053 110.701C52.7408 110.523 52.4837 111.169 51.3234 111.429C51.1105 111.477 49.0644 111.905 47.9662 110.62C47.5306 110.111 47.3261 109.426 47.3499 108.699C47.1897 108.755 47.0313 108.838 46.8742 108.962C45.7242 109.87 45.5 112.276 46.5101 113.634C46.885 114.138 47.4487 114.523 51.3655 115.061C54.7922 115.531 56.5181 115.755 57.1275 115.211C57.2094 115.138 57.283 115.057 57.3519 114.971C56.5298 114.943 55.6673 114.744 55.0445 114.139C53.8429 112.972 54.2649 111.004 53.3053 110.701Z" fill="url(#paint18_linear_1573_5311)"/>
</g>
<path d="M27.972 109.01C27.746 109.01 27.5529 108.839 27.531 108.609C27.1427 104.534 25.8142 100.663 23.7903 97.7079C21.9973 95.0898 19.8628 93.5276 18.0793 93.5276C18.0772 93.5276 18.0754 93.5276 18.0734 93.5276C11.5775 93.5402 10.2186 108.454 10.2057 108.605C10.1846 108.849 9.97083 109.03 9.72583 109.009C9.48186 108.988 9.30103 108.773 9.32196 108.529C9.37759 107.881 10.7684 92.6549 18.0716 92.6406C18.0742 92.6406 18.0768 92.6406 18.0794 92.6406C20.1866 92.6406 22.5343 94.3044 24.5221 97.2067C26.6294 100.284 28.0116 104.303 28.414 108.525C28.4372 108.769 28.2584 108.985 28.0146 109.008C28.0003 109.01 27.9861 109.01 27.972 109.01Z" fill="url(#paint19_linear_1573_5311)"/>
<path d="M0.910406 139.703L9.46156 144.033L14.6427 128.134L6.10565 106.818L3.68489 107.412L0.0118752 138.024C-0.0712599 138.717 0.2878 139.388 0.910406 139.703Z" fill="url(#paint20_linear_1573_5311)"/>
<path opacity="0.52" d="M14.6426 128.133L6.10561 106.818L4.67776 107.168C4.47979 110.014 4.56676 112.357 4.70127 114.062C5.27359 121.319 7.17419 123.339 6.25344 128.401C5.48787 132.611 3.81595 133.182 3.96212 136.014C4.1213 139.099 6.27271 141.682 8.83058 143.713L9.46152 144.033L14.6426 128.133Z" fill="url(#paint21_linear_1573_5311)"/>
<path d="M6.10938 106.818H37.9931L48.5452 140.884L9.46529 144.033L6.10938 106.818Z" fill="url(#paint22_linear_1573_5311)"/>
<path d="M15.9824 109.741C15.7811 109.741 15.599 109.603 15.551 109.398C15.4604 109.012 13.3656 99.8841 16.3193 95.4044C17.1659 94.1205 18.3487 93.3367 19.8347 93.0745C27.4702 91.7291 32.1713 108.129 32.3677 108.828C32.4339 109.063 32.2966 109.308 32.0608 109.374C31.8247 109.441 31.5801 109.303 31.5139 109.067C31.4679 108.904 26.8403 92.7383 19.9888 93.948C18.7349 94.1692 17.7768 94.8052 17.0599 95.8926C14.3142 100.057 16.3933 109.105 16.4147 109.196C16.4706 109.434 16.3226 109.673 16.0842 109.729C16.05 109.737 16.0159 109.741 15.9824 109.741Z" fill="url(#paint23_linear_1573_5311)"/>
<g opacity="0.3">
<path d="M37.9907 106.822H22.1734C21.3934 107.616 20.8397 108.53 20.7868 109.556C20.5382 114.376 31.6184 115.959 32.6869 122.565C33.4578 127.33 28.7146 132.828 24.4825 135.278C20.0236 137.859 17.0023 136.552 13.9867 139.417C12.6617 140.676 11.8548 142.251 11.375 143.882L48.5428 140.888L37.9907 106.822Z" fill="url(#paint24_linear_1573_5311)"/>
</g>
<path d="M15.9855 111.045C16.67 111.045 17.2249 110.49 17.2249 109.806C17.2249 109.121 16.67 108.566 15.9855 108.566C15.301 108.566 14.7461 109.121 14.7461 109.806C14.7461 110.49 15.301 111.045 15.9855 111.045Z" fill="url(#paint25_linear_1573_5311)"/>
<path d="M32.1496 110.93C32.8341 110.93 33.389 110.375 33.389 109.691C33.389 109.006 32.8341 108.451 32.1496 108.451C31.4651 108.451 30.9102 109.006 30.9102 109.691C30.9102 110.375 31.4651 110.93 32.1496 110.93Z" fill="url(#paint26_linear_1573_5311)"/>
<path d="M117.056 97.8949C118.725 96.97 118.237 91.7205 115.972 88.0318C112.758 82.7943 105.711 80.2939 104.267 81.8539C102.788 83.4503 107.044 89.4429 107.735 90.4164C110.243 93.9477 115.082 98.9891 117.056 97.8949Z" fill="url(#paint27_linear_1573_5311)"/>
<path d="M134.502 128.366C134.23 128.742 134.228 129.38 134.532 129.66C134.83 129.936 135.203 129.664 136.336 129.573C137.55 129.476 137.897 129.727 138.694 129.41C139.016 129.281 139.578 128.994 139.541 128.758C139.514 128.592 139.206 128.539 138.172 128.315C136.705 127.996 136.708 127.97 136.402 127.953C135.633 127.911 134.861 127.869 134.502 128.366Z" fill="url(#paint28_linear_1573_5311)"/>
<path d="M135.066 126.307L135.895 128.258C135.861 128.371 135.284 128.8 134.73 128.63L133.613 126.77L135.066 126.307Z" fill="url(#paint29_linear_1573_5311)"/>
<path d="M127.029 130.981C126.757 131.357 126.756 131.995 127.059 132.276C127.358 132.552 127.731 132.279 128.863 132.188C130.077 132.091 130.424 132.342 131.221 132.025C131.543 131.897 132.105 131.609 132.068 131.373C132.042 131.208 131.734 131.154 130.7 130.93C129.232 130.612 129.235 130.585 128.929 130.568C128.16 130.526 127.389 130.484 127.029 130.981Z" fill="url(#paint30_linear_1573_5311)"/>
<path d="M127.59 128.924L128.419 130.875C128.385 130.988 127.808 131.417 127.253 131.247L126.137 129.387L127.59 128.924Z" fill="url(#paint31_linear_1573_5311)"/>
<path d="M90.879 82.1958C92.8153 81.5359 95.7745 80.7691 99.4193 80.7695C103.523 80.77 106.819 80.7704 109.094 82.7099C114.617 87.417 108.435 98.6916 111.602 107.041C111.949 107.956 112.958 110.855 112.08 113.982C111.918 114.558 111.585 115.058 111.016 115.903C107.67 120.866 98.0887 122.499 93.7842 118.196C91.5093 115.922 89.6492 115.112 89.5944 112.517C89.3785 102.274 90.9677 92.0576 90.879 82.1958Z" fill="url(#paint32_linear_1573_5311)"/>
<path opacity="0.3" d="M93.0576 94.7084C92.2753 92.5666 93.0859 90.1149 91.3417 89.0447C90.7026 88.6525 89.9082 88.4863 89.043 88.5054C89.1465 96.0337 89.2947 103.555 89.4778 111.412C89.5383 114.007 89.8628 114.135 92.3782 116.409C95.2928 119.044 100.315 119.904 104.623 119.042C98.9814 115.572 94.9558 111.978 95.5324 108.897C96.2038 105.31 102.774 104.25 102.51 101.699C102.23 98.9958 94.7676 99.3905 93.0576 94.7084Z" fill="url(#paint33_linear_1573_5311)"/>
<path d="M92.6735 82.4273C90.7767 81.1467 86.2068 84.3762 83.6734 87.2188C82.4959 88.5399 78.3964 93.1397 79.415 99.3187C79.5809 100.326 80.3451 105.034 84.3752 107.34C87.9836 109.404 92.856 108.873 96.7599 105.949C97.2933 105.476 97.8269 105.002 98.3604 104.529C98.8853 103.962 99.4102 103.394 99.935 102.827C99.1099 102.14 97.708 101.15 95.7393 100.515C92.7392 99.5471 90.7669 100.983 90.0494 100.038C89.166 98.8738 91.8553 96.705 92.561 91.771C92.7514 90.4396 94.7921 83.8577 92.6735 82.4273Z" fill="url(#paint34_linear_1573_5311)"/>
<path d="M96.5288 115.738C95.7293 119.929 97.8546 118.027 102.298 115.195C106.977 112.213 117.408 107.521 122.573 111.593C126.421 114.626 124.56 120.296 130.584 125.649C131.646 126.592 132.623 127.224 133.23 127.587C134.153 127.08 135.077 126.573 136.001 126.066C136.136 123.807 136.391 115.127 130.168 108.063C128.664 106.355 125.798 103.074 121.398 102.037C109.503 99.2331 97.266 111.872 96.5288 115.738Z" fill="url(#paint35_linear_1573_5311)"/>
<path d="M91.5494 112.454C90.9992 114.872 92.0199 117.468 93.521 118.986C96.8531 122.355 103.378 121.244 107.331 119.429C112.14 117.221 112.922 114.077 114.967 114.604C118.144 115.421 116.801 123.172 122.978 128.659C124.039 129.602 125.016 130.235 125.623 130.597C126.547 130.09 127.471 129.583 128.394 129.076C128.557 123.832 127.567 119.754 126.719 117.172C125.747 114.212 124.877 111.56 122.453 109.177C119.442 106.216 115.85 105.456 113.792 105.047C105.084 103.32 92.9789 106.172 91.5494 112.454Z" fill="url(#paint36_linear_1573_5311)"/>
<path d="M118.641 104.507L95.7852 104.166L101.863 107.099L118.699 105.997L118.641 104.507Z" fill="url(#paint37_linear_1573_5311)"/>
<path d="M94.9805 104.773V104.773C94.9805 105.201 95.2482 105.583 95.6501 105.729L102.953 108.592L102.986 106.607L95.7871 104.166C95.383 104.05 94.9805 104.353 94.9805 104.773Z" fill="url(#paint38_linear_1573_5311)"/>
<path d="M98.2384 103.854C98.0982 103.822 98.9219 102.181 99.5684 102.371C100.215 102.56 103.377 104.393 103.665 105.147C103.952 105.902 103.952 105.902 103.952 105.902C103.952 105.902 102.573 106.01 101.717 105.722C100.862 105.435 99.3791 104.108 98.2384 103.854Z" fill="white"/>
<path d="M103.591 92.6747L101.98 107.343C101.924 107.849 102.633 108.603 103.141 108.579L126.775 107.128C127.163 107.11 127.487 106.824 127.552 106.441L130.519 92.2739C130.607 91.7584 129.68 91.226 129.157 91.2405L104.391 91.9369C103.977 91.9486 103.636 92.2634 103.591 92.6747Z" fill="url(#paint39_linear_1573_5311)"/>
<path d="M104.128 93.1024L102.517 107.771C102.461 108.277 102.871 108.713 103.38 108.689L127.312 107.556C127.701 107.538 128.024 107.252 128.09 106.869L130.535 92.6369C130.623 92.1212 130.218 91.6535 129.695 91.6683L104.928 92.3647C104.515 92.3761 104.173 92.6912 104.128 93.1024Z" fill="url(#paint40_linear_1573_5311)"/>
<path opacity="0.3" d="M118.185 104.121C116.095 103.236 116.833 101.547 114.365 99.4419C111.11 96.6655 107.791 97.8696 106.63 95.7175C106.268 95.0473 106.095 94.0044 106.725 92.3164L104.932 92.3668C104.519 92.3784 104.177 92.6933 104.132 93.1046L102.521 107.773C102.465 108.279 102.875 108.715 103.384 108.691L127.316 107.558C127.704 107.54 128.028 107.254 128.094 106.871L128.431 104.907C127.705 104.503 126.837 104.136 125.825 103.93C122.313 103.218 120.591 105.141 118.185 104.121Z" fill="url(#paint41_linear_1573_5311)"/>
<path d="M99.8088 75.1602C99.8215 76.6815 99.6518 77.888 99.4912 78.7142C99.3073 79.6609 99.1748 79.9055 99.0056 80.1039C98.751 80.4027 98.3652 80.6533 96.1852 81.1938C94.9989 81.4879 94.8463 81.4799 94.8201 81.5977C94.6923 82.1719 97.9272 84.1293 101.269 83.6575C103.314 83.3688 105.175 82.2019 105.061 81.5891C104.946 80.9724 102.903 81.3033 102.294 80.1876C101.871 79.4114 102.345 78.3097 102.907 77.3971C102.363 76.3785 100.352 76.1788 99.8088 75.1602Z" fill="white"/>
<path d="M104.099 77.0948C104.728 76.596 105.039 75.5202 104.679 74.6953C104.369 73.9854 103.663 73.7116 103.239 73.5474C102.013 73.0721 100.28 73.1844 99.4217 74.2038C98.9132 74.8079 99.2513 76.4261 99.2957 76.7127C99.3459 77.0369 99.5485 77.1964 99.7027 77.4718C99.9163 77.8537 100.249 78.4589 100.787 79.4663C100.907 79.2418 101.073 78.9681 101.297 78.6831C101.384 78.5734 101.727 78.1465 102.16 77.8312C103.029 77.1992 103.503 77.5676 104.099 77.0948Z" fill="url(#paint42_linear_1573_5311)"/>
<path d="M99.8978 78.5053C99.8978 78.5053 100.374 80.0857 102.057 80.4091C103.564 80.6986 104.647 77.4318 103.884 76.4801C103.629 76.1626 103.022 75.9003 102.471 75.9104C102.145 75.9165 102.009 76.0159 101.476 76.0153C100.985 76.0148 100.868 75.93 100.699 76.0107C100.487 76.1117 100.266 76.4371 100.303 77.4842C100.095 77.1243 99.7844 76.926 99.5144 76.977C99.4713 76.9851 99.3516 77.0278 99.267 77.1178C98.961 77.4433 99.1814 78.0183 99.8978 78.5053Z" fill="white"/>
<path d="M100.682 75.7952C100.739 75.867 100.451 76.0768 100.337 76.4499C100.114 77.1741 100.627 78.2465 101.364 78.5181C101.799 78.6786 101.993 78.4411 102.752 78.5556C103.222 78.6264 103.588 78.7838 103.814 78.8986C103.837 79.7626 103.41 80.5067 102.777 80.7384C102.094 80.9879 101.419 80.5528 101.137 80.3709C100.948 80.2492 100.342 79.8608 100.154 79.1637C99.9587 78.4372 100.412 78.1481 100.11 77.6126C99.9572 77.3425 99.7076 77.1777 99.5497 76.6905C99.5068 76.5581 99.4846 76.4451 99.4727 76.3699C99.9605 76.0644 100.598 75.691 100.682 75.7952Z" fill="url(#paint43_linear_1573_5311)"/>
<path d="M103.202 79.0562C103.202 79.0562 102.838 79.14 102.293 78.9649C102.267 78.9563 102.235 78.9565 102.228 78.9696C102.202 79.0187 102.495 79.3463 102.846 79.3396C103.095 79.3347 103.333 79.1621 103.317 79.098C103.309 79.071 103.256 79.0604 103.202 79.0562Z" fill="white"/>
<defs>
<linearGradient id="paint0_linear_1573_5311" x1="73.6123" y1="56.1509" x2="41.8714" y2="69.4172" gradientUnits="userSpaceOnUse">
<stop stop-color="#FF9085"/>
<stop offset="1" stop-color="#FB6FBB"/>
</linearGradient>
<linearGradient id="paint1_linear_1573_5311" x1="16.547" y1="29.3489" x2="67.7858" y2="95.7904" gradientUnits="userSpaceOnUse">
<stop offset="0.0036" stop-color="#E38DDD"/>
<stop offset="1" stop-color="#9571F6"/>
</linearGradient>
<linearGradient id="paint2_linear_1573_5311" x1="142.386" y1="50.8983" x2="81.5672" y2="76.3179" gradientUnits="userSpaceOnUse">
<stop stop-color="#FF9085"/>
<stop offset="1" stop-color="#FB6FBB"/>
</linearGradient>
<linearGradient id="paint3_linear_1573_5311" x1="40.996" y1="118.068" x2="184.527" y2="118.068" gradientUnits="userSpaceOnUse">
<stop offset="0.494" stop-color="#EBEFF2"/>
<stop offset="1" stop-color="white"/>
</linearGradient>
<linearGradient id="paint4_linear_1573_5311" x1="51.0882" y1="113.477" x2="-6.43812" y2="188.967" gradientUnits="userSpaceOnUse">
<stop offset="0.0036" stop-color="#F36F56"/>
<stop offset="1" stop-color="#FFC444"/>
</linearGradient>
<linearGradient id="paint5_linear_1573_5311" x1="70.2225" y1="128.063" x2="12.6971" y2="203.552" gradientUnits="userSpaceOnUse">
<stop offset="0.0036" stop-color="#F36F56"/>
<stop offset="1" stop-color="#FFC444"/>
</linearGradient>
<linearGradient id="paint6_linear_1573_5311" x1="79.8329" y1="80.3491" x2="-45.3989" y2="210.799" gradientUnits="userSpaceOnUse">
<stop stop-color="#FFC444"/>
<stop offset="0.9964" stop-color="#F36F56"/>
</linearGradient>
<linearGradient id="paint7_linear_1573_5311" x1="91.9423" y1="91.9776" x2="-33.2904" y2="222.428" gradientUnits="userSpaceOnUse">
<stop stop-color="#FFC444"/>
<stop offset="0.9964" stop-color="#F36F56"/>
</linearGradient>
<linearGradient id="paint8_linear_1573_5311" x1="33.739" y1="106.472" x2="44.6987" y2="123.036" gradientUnits="userSpaceOnUse">
<stop stop-color="#AA80F9"/>
<stop offset="0.9964" stop-color="#6165D7"/>
</linearGradient>
<linearGradient id="paint9_linear_1573_5311" x1="67.8506" y1="116.326" x2="51.8033" y2="143.428" gradientUnits="userSpaceOnUse">
<stop stop-color="#AA80F9"/>
<stop offset="0.9964" stop-color="#6165D7"/>
</linearGradient>
<linearGradient id="paint10_linear_1573_5311" x1="56.1525" y1="107.789" x2="53.6103" y2="116.748" gradientUnits="userSpaceOnUse">
<stop offset="0.0036" stop-color="#E38DDD"/>
<stop offset="1" stop-color="#9571F6"/>
</linearGradient>
<linearGradient id="paint11_linear_1573_5311" x1="68.9747" y1="117.016" x2="52.7838" y2="144.36" gradientUnits="userSpaceOnUse">
<stop offset="0.0036" stop-color="#E38DDD"/>
<stop offset="1" stop-color="#9571F6"/>
</linearGradient>
<linearGradient id="paint12_linear_1573_5311" x1="58.8322" y1="117.179" x2="65.3479" y2="150.003" gradientUnits="userSpaceOnUse">
<stop stop-color="#FFC444"/>
<stop offset="0.3138" stop-color="#FBA94A"/>
<stop offset="0.9964" stop-color="#F36F56"/>
</linearGradient>
<linearGradient id="paint13_linear_1573_5311" x1="59.8145" y1="127.392" x2="71.3556" y2="125.685" gradientUnits="userSpaceOnUse">
<stop stop-color="#FFC444"/>
<stop offset="0.3138" stop-color="#FBA94A"/>
<stop offset="0.9964" stop-color="#F36F56"/>
</linearGradient>
<linearGradient id="paint14_linear_1573_5311" x1="52.0611" y1="115.729" x2="76.5479" y2="112.107" gradientUnits="userSpaceOnUse">
<stop stop-color="#FFC444"/>
<stop offset="0.3138" stop-color="#FBA94A"/>
<stop offset="0.9964" stop-color="#F36F56"/>
</linearGradient>
<linearGradient id="paint15_linear_1573_5311" x1="64.4719" y1="108.543" x2="58.4048" y2="114.853" gradientUnits="userSpaceOnUse">
<stop stop-color="#FFC444"/>
<stop offset="0.3138" stop-color="#FBA94A"/>
<stop offset="0.9964" stop-color="#F36F56"/>
</linearGradient>
<linearGradient id="paint16_linear_1573_5311" x1="65.4483" y1="109.484" x2="59.3811" y2="115.793" gradientUnits="userSpaceOnUse">
<stop stop-color="#FFC444"/>
<stop offset="0.3138" stop-color="#FBA94A"/>
<stop offset="0.9964" stop-color="#F36F56"/>
</linearGradient>
<linearGradient id="paint17_linear_1573_5311" x1="50.1332" y1="111.056" x2="66.2462" y2="108.674" gradientUnits="userSpaceOnUse">
<stop stop-color="#FFC444"/>
<stop offset="0.3138" stop-color="#FBA94A"/>
<stop offset="0.9964" stop-color="#F36F56"/>
</linearGradient>
<linearGradient id="paint18_linear_1573_5311" x1="50.3207" y1="112.325" x2="66.4337" y2="109.942" gradientUnits="userSpaceOnUse">
<stop stop-color="#FFC444"/>
<stop offset="0.3138" stop-color="#FBA94A"/>
<stop offset="0.9964" stop-color="#F36F56"/>
</linearGradient>
<linearGradient id="paint19_linear_1573_5311" x1="9.32035" y1="100.826" x2="28.416" y2="100.826" gradientUnits="userSpaceOnUse">
<stop stop-color="#311944"/>
<stop offset="1" stop-color="#A03976"/>
</linearGradient>
<linearGradient id="paint20_linear_1573_5311" x1="-3.62742" y1="111.547" x2="7.18196" y2="129.673" gradientUnits="userSpaceOnUse">
<stop stop-color="#FF9085"/>
<stop offset="1" stop-color="#FB6FBB"/>
</linearGradient>
<linearGradient id="paint21_linear_1573_5311" x1="-1.95619" y1="110.55" x2="8.85319" y2="128.677" gradientUnits="userSpaceOnUse">
<stop stop-color="#FF9085"/>
<stop offset="1" stop-color="#FB6FBB"/>
</linearGradient>
<linearGradient id="paint22_linear_1573_5311" x1="15.1935" y1="118.849" x2="45.6261" y2="142.297" gradientUnits="userSpaceOnUse">
<stop stop-color="#FF9085"/>
<stop offset="1" stop-color="#FB6FBB"/>
</linearGradient>
<linearGradient id="paint23_linear_1573_5311" x1="14.7461" y1="101.368" x2="32.3843" y2="101.368" gradientUnits="userSpaceOnUse">
<stop stop-color="#311944"/>
<stop offset="1" stop-color="#A03976"/>
</linearGradient>
<linearGradient id="paint24_linear_1573_5311" x1="15.5845" y1="118.342" x2="46.0171" y2="141.79" gradientUnits="userSpaceOnUse">
<stop stop-color="#FF9085"/>
<stop offset="1" stop-color="#FB6FBB"/>
</linearGradient>
<linearGradient id="paint25_linear_1573_5311" x1="14.7461" y1="109.806" x2="17.2249" y2="109.806" gradientUnits="userSpaceOnUse">
<stop stop-color="#311944"/>
<stop offset="1" stop-color="#A03976"/>
</linearGradient>
<linearGradient id="paint26_linear_1573_5311" x1="30.9102" y1="109.691" x2="33.389" y2="109.691" gradientUnits="userSpaceOnUse">
<stop stop-color="#311944"/>
<stop offset="1" stop-color="#A03976"/>
</linearGradient>
<linearGradient id="paint27_linear_1573_5311" x1="109.287" y1="91.6897" x2="112.358" y2="87.8009" gradientUnits="userSpaceOnUse">
<stop stop-color="#AA80F9"/>
<stop offset="0.9964" stop-color="#6165D7"/>
</linearGradient>
<linearGradient id="paint28_linear_1573_5311" x1="139.162" y1="127.796" x2="134.467" y2="129.66" gradientUnits="userSpaceOnUse">
<stop stop-color="#444B8C"/>
<stop offset="0.9964" stop-color="#26264F"/>
</linearGradient>
<linearGradient id="paint29_linear_1573_5311" x1="136.255" y1="128.898" x2="132.885" y2="125.345" gradientUnits="userSpaceOnUse">
<stop stop-color="#FFC444"/>
<stop offset="0.9964" stop-color="#F36F56"/>
</linearGradient>
<linearGradient id="paint30_linear_1573_5311" x1="131.689" y1="130.411" x2="126.994" y2="132.275" gradientUnits="userSpaceOnUse">
<stop stop-color="#444B8C"/>
<stop offset="0.9964" stop-color="#26264F"/>
</linearGradient>
<linearGradient id="paint31_linear_1573_5311" x1="128.778" y1="131.516" x2="125.408" y2="127.963" gradientUnits="userSpaceOnUse">
<stop stop-color="#FFC444"/>
<stop offset="0.9964" stop-color="#F36F56"/>
</linearGradient>
<linearGradient id="paint32_linear_1573_5311" x1="92.1063" y1="110.262" x2="104.71" y2="94.3029" gradientUnits="userSpaceOnUse">
<stop stop-color="#AA80F9"/>
<stop offset="0.9964" stop-color="#6165D7"/>
</linearGradient>
<linearGradient id="paint33_linear_1573_5311" x1="92.1025" y1="109.764" x2="104.294" y2="94.3269" gradientUnits="userSpaceOnUse">
<stop stop-color="#AA80F9"/>
<stop offset="0.9964" stop-color="#6165D7"/>
</linearGradient>
<linearGradient id="paint34_linear_1573_5311" x1="85.1286" y1="103.433" x2="97.6471" y2="87.582" gradientUnits="userSpaceOnUse">
<stop stop-color="#AA80F9"/>
<stop offset="0.9964" stop-color="#6165D7"/>
</linearGradient>
<linearGradient id="paint35_linear_1573_5311" x1="111.901" y1="127.606" x2="126.421" y2="104.386" gradientUnits="userSpaceOnUse">
<stop stop-color="#444B8C"/>
<stop offset="0.9964" stop-color="#26264F"/>
</linearGradient>
<linearGradient id="paint36_linear_1573_5311" x1="119.78" y1="106.766" x2="102.593" y2="130.602" gradientUnits="userSpaceOnUse">
<stop stop-color="#444B8C"/>
<stop offset="0.9964" stop-color="#26264F"/>
</linearGradient>
<linearGradient id="paint37_linear_1573_5311" x1="110.608" y1="113.956" x2="107.843" y2="106.123" gradientUnits="userSpaceOnUse">
<stop stop-color="#311944"/>
<stop offset="1" stop-color="#893976"/>
</linearGradient>
<linearGradient id="paint38_linear_1573_5311" x1="98.5317" y1="102.606" x2="99.5455" y2="109.61" gradientUnits="userSpaceOnUse">
<stop stop-color="#311944"/>
<stop offset="1" stop-color="#893976"/>
</linearGradient>
<linearGradient id="paint39_linear_1573_5311" x1="118.617" y1="103.214" x2="113.226" y2="95.5595" gradientUnits="userSpaceOnUse">
<stop stop-color="#444B8C"/>
<stop offset="0.9964" stop-color="#26264F"/>
</linearGradient>
<linearGradient id="paint40_linear_1573_5311" x1="108.274" y1="115.881" x2="120.071" y2="91.9199" gradientUnits="userSpaceOnUse">
<stop stop-color="#311944"/>
<stop offset="1" stop-color="#893976"/>
</linearGradient>
<linearGradient id="paint41_linear_1573_5311" x1="102.516" y1="100.504" x2="128.431" y2="100.504" gradientUnits="userSpaceOnUse">
<stop stop-color="#311944"/>
<stop offset="1" stop-color="#893976"/>
</linearGradient>
<linearGradient id="paint42_linear_1573_5311" x1="96.7964" y1="82.5624" x2="102.987" y2="74.0043" gradientUnits="userSpaceOnUse">
<stop stop-color="#311944"/>
<stop offset="1" stop-color="#6B3976"/>
</linearGradient>
<linearGradient id="paint43_linear_1573_5311" x1="97.8249" y1="83.3131" x2="104.021" y2="74.7466" gradientUnits="userSpaceOnUse">
<stop stop-color="#311944"/>
<stop offset="1" stop-color="#6B3976"/>
</linearGradient>
</defs>
</svg>
